<?xml version="1.0" encoding="utf-8"?>
<!-- Generator: Adobe Illustrator 16.0.0, SVG Export Plug-In . SVG Version: 6.00 Build 0)  -->
<!DOCTYPE svg PUBLIC "-//W3C//DTD SVG 1.1//EN" "http://www.w3.org/Graphics/SVG/1.1/DTD/svg11.dtd">
<svg version="1.1" id="图层_1" xmlns="http://www.w3.org/2000/svg" xmlns:xlink="http://www.w3.org/1999/xlink" x="0px" y="0px"
	 width="240.189px" height="80.859px" viewBox="0 0 240.189 80.859" enable-background="new 0 0 240.189 80.859"
	 xml:space="preserve">
<g>
	<text transform="matrix(1 0 0 1 0 42.7432)" font-family="'KaiTi'" font-size="10">弥陀唤声</text>
	<text transform="matrix(1 0 0 1 47.9922 8.5938)"><tspan x="0" y="0" font-family="'KaiTi'" font-size="10">汝</tspan><tspan x="0" y="14" font-family="'KaiTi'" font-size="10">一心</tspan><tspan x="0" y="28" font-family="'KaiTi'" font-size="10">正念</tspan><tspan x="0" y="42" font-family="'KaiTi'" font-size="10">直来</tspan><tspan x="0" y="56" font-family="'KaiTi'" font-size="10">护汝</tspan><tspan x="0" y="70" font-family="'KaiTi'" font-size="10">不畏(慈悲)</tspan></text>
	<text transform="matrix(1 0 0 1 104.0313 8.5938)"><tspan x="0" y="0" font-family="'KaiTi'" font-size="10" letter-spacing="6">十方众生</tspan><tspan x="0" y="14" font-family="'KaiTi'" font-size="10">至心信乐欲生</tspan><tspan x="0" y="28" font-family="'KaiTi'" font-size="10" letter-spacing="6">乃至十念</tspan><tspan x="0" y="42" font-family="'KaiTi'" font-size="10" letter-spacing="6">若不生者</tspan><tspan x="0" y="56" font-family="'KaiTi'" font-size="10" letter-spacing="6">不取正觉</tspan><tspan x="0" y="70" font-family="'KaiTi'" font-size="10" letter-spacing="6">唯除逆谤</tspan></text>
	<text transform="matrix(1 0 0 1 200.189 43.5938)" font-family="'KaiTi'" font-size="10">第十八愿</text>
	<text transform="matrix(1 0 0 1 164.8462 22.5938)"><tspan x="0" y="0" font-family="'KaiTi'" font-size="10">(信心)</tspan><tspan x="0" y="14" font-family="'KaiTi'" font-size="10">(念佛)</tspan><tspan x="0" y="56" font-family="'KaiTi'" font-size="10">(智慧)</tspan></text>
	<g>
		<line fill="none" stroke="#000000" stroke-width="0.5" stroke-miterlimit="10" x1="44" y1="4.193" x2="44" y2="75.336"/>
		<line fill="none" stroke="#000000" stroke-width="0.5" stroke-miterlimit="10" x1="43.772" y1="4.385" x2="46.667" y2="4.385"/>
		<line fill="none" stroke="#000000" stroke-width="0.5" stroke-miterlimit="10" x1="43.772" y1="75.336" x2="46.667" y2="75.336"/>
		<line fill="none" stroke="#000000" stroke-width="0.5" stroke-miterlimit="10" x1="41.024" y1="40.151" x2="43.919" y2="40.151"/>
	</g>
	<line fill="none" stroke="#000000" stroke-width="0.5" stroke-miterlimit="10" x1="195.876" y1="4.141" x2="195.876" y2="75.578"/>
	<line fill="none" stroke="#000000" stroke-width="0.5" stroke-miterlimit="10" x1="192.9" y1="4.385" x2="195.794" y2="4.385"/>
	<line fill="none" stroke="#000000" stroke-width="0.5" stroke-miterlimit="10" x1="192.9" y1="75.336" x2="195.794" y2="75.336"/>
	
		<line fill="none" stroke="#000000" stroke-width="0.5" stroke-miterlimit="10" x1="195.794" y1="40.151" x2="198.691" y2="40.151"/>
	<line fill="none" stroke="#000000" stroke-width="0.5" stroke-miterlimit="10" x1="96.181" y1="75.578" x2="101.931" y2="75.578"/>
	<line fill="none" stroke="#000000" stroke-width="0.5" stroke-miterlimit="10" x1="59.931" y1="4.385" x2="101.931" y2="4.385"/>
	<line fill="none" stroke="#000000" stroke-width="0.5" stroke-miterlimit="10" x1="69.681" y1="19.469" x2="101.931" y2="19.469"/>
	<line fill="none" stroke="#000000" stroke-width="0.5" stroke-miterlimit="10" x1="69.681" y1="33.469" x2="101.931" y2="33.469"/>
	<line fill="none" stroke="#000000" stroke-width="0.5" stroke-miterlimit="10" x1="69.681" y1="47.219" x2="101.931" y2="47.219"/>
	<line fill="none" stroke="#000000" stroke-width="0.5" stroke-miterlimit="10" x1="69.681" y1="61.469" x2="101.931" y2="61.469"/>
</g>
</svg>
