<?xml version="1.0" encoding="utf-8"?>
<!-- Generator: Adobe Illustrator 21.0.0, SVG Export Plug-In . SVG Version: 6.00 Build 0)  -->
<svg version="1.1" id="圖層_1" xmlns="http://www.w3.org/2000/svg" xmlns:xlink="http://www.w3.org/1999/xlink" x="0px" y="0px"
	 viewBox="0 0 228.2 31.4" style="enable-background:new 0 0 228.2 31.4;" xml:space="preserve">
<style type="text/css">
	.st0{enable-background:new    ;}
	.st1{font-family:'KaiTi';}
	.st2{font-size:10px;}
	.st3{letter-spacing:5;}
	.st4{fill:none;stroke:#000000;stroke-width:0.5;stroke-miterlimit:10;}
</style>
<text transform="matrix(1 0 0 1 58.6003 8.5937)" class="st0"><tspan x="0" y="0" class="st1 st2">生起···</tspan><tspan x="50" y="0" class="st1 st2 st3">  </tspan><tspan x="70" y="0" class="st1 st2">機的深信</tspan><tspan x="0" y="21" class="st1 st2">本末···</tspan><tspan x="50" y="21" class="st1 st2 st3">  </tspan><tspan x="70" y="21" class="st1 st2">法的深信</tspan></text>
<text transform="matrix(1 0 0 1 0 19.2604)" class="st1 st2">名號=佛願</text>
<g>
	<line class="st4" x1="51.9" y1="5.4" x2="51.9" y2="26.9"/>
	<line class="st4" x1="51.9" y1="5.4" x2="55.7" y2="5.4"/>
	<line class="st4" x1="51.9" y1="26.9" x2="55.7" y2="26.9"/>
	<line class="st4" x1="51.9" y1="16.1" x2="48.2" y2="16.1"/>
</g>
<g>
	<line class="st4" x1="174.8" y1="26.6" x2="174.8" y2="5"/>
	<line class="st4" x1="174.8" y1="26.6" x2="171" y2="26.6"/>
	<line class="st4" x1="174.8" y1="5" x2="171" y2="5"/>
	<line class="st4" x1="174.8" y1="15.8" x2="178.5" y2="15.8"/>
</g>
<text transform="matrix(1 0 0 1 183.2 19.26)" class="st1 st2">深心=信心</text>
<g>
	<g>
		<line class="st4" x1="110" y1="5.3" x2="119" y2="5.3"/>
		<g>
			<polygon points="122.5,5.3 117.5,7.3 118.7,5.3 117.5,3.2 			"/>
		</g>
	</g>
</g>
<g>
	<g>
		<line class="st4" x1="110" y1="25.6" x2="119" y2="25.6"/>
		<g>
			<polygon points="122.5,25.6 117.5,27.6 118.7,25.6 117.5,23.5 			"/>
		</g>
	</g>
</g>
</svg>
