<?xml version="1.0" encoding="utf-8"?>
<!-- Generator: Adobe Illustrator 21.0.0, SVG Export Plug-In . SVG Version: 6.00 Build 0)  -->
<svg version="1.1" baseProfile="tiny" id="圖層_1"
	 xmlns="http://www.w3.org/2000/svg" xmlns:xlink="http://www.w3.org/1999/xlink" x="0px" y="0px" viewBox="0 0 278.2 31.8"
	 xml:space="preserve">
<text transform="matrix(1 0 0 1 33.6003 8.7997)" font-family="'KaiTi'" font-size="10px">實</text>
<text transform="matrix(1 0 0 1 43.6003 8.7997)" font-family="'KaiTi'" font-size="10px">相</text>
<text transform="matrix(1 0 0 1 53.6003 8.7997)" font-family="'KaiTi'" font-size="10px">身</text>
<text transform="matrix(1 0 0 1 63.6003 8.7997)" font-family="'DFKaiShu-SB-Estd-BF'" font-size="10px"> </text>
<text transform="matrix(1 0 0 1 73.6003 8.7997)" font-family="'KaiTi'" font-size="10px">不</text>
<text transform="matrix(1 0 0 1 83.6003 8.7997)" font-family="'KaiTi'" font-size="10px">取</text>
<text transform="matrix(1 0 0 1 93.6003 8.7997)" font-family="'KaiTi'" font-size="10px">正</text>
<text transform="matrix(1 0 0 1 103.6003 8.7997)" font-family="'KaiTi'" font-size="10px">覺</text>
<text transform="matrix(1 0 0 1 113.6003 8.7997)" font-family="'KaiTi'" font-size="10px">之</text>
<text transform="matrix(1 0 0 1 123.6003 8.7997)" font-family="'DFKaiShu-SB-Estd-BF'" font-size="10px">「</text>
<text transform="matrix(1 0 0 1 133.6003 8.7997)" font-family="'KaiTi'" font-size="10px">正</text>
<text transform="matrix(1 0 0 1 143.6003 8.7997)" font-family="'KaiTi'" font-size="10px">覺</text>
<text transform="matrix(1 0 0 1 -7758.3999 -8583.2002)" font-family="'KaiTi'" font-size="10px">­</text>
<text transform="matrix(1 0 0 1 -7758.3999 -8583.2002)" font-family="'KaiTi'" font-size="10px">­</text>
<text transform="matrix(1 0 0 1 -7758.3999 -8582.2002)" font-family="'KaiTi'" font-size="10px">­</text>
<text transform="matrix(1 0 0 1 153.6003 8.7997)" font-family="'DFKaiShu-SB-Estd-BF'" font-size="10px">」</text>
<text transform="matrix(1 0 0 1 163.6003 8.7997)" font-family="'AdobeMingStd-Light-B5pc-H'" font-size="10px"> </text>
<text transform="matrix(1 0 0 1 173.6003 8.7997)" font-family="'KaiTi'" font-size="10px">大</text>
<text transform="matrix(1 0 0 1 183.6003 8.7997)" font-family="'KaiTi'" font-size="10px">智</text>
<text transform="matrix(1 0 0 1 193.6003 8.7997)" font-family="'AdobeMingStd-Light-B5pc-H'" font-size="10px"> </text>
<text transform="matrix(1 0 0 1 203.6003 8.7997)" font-family="'KaiTi'" font-size="10px">自</text>
<text transform="matrix(1 0 0 1 213.6003 8.7997)" font-family="'KaiTi'" font-size="10px">利</text>
<text transform="matrix(1 0 0 1 33.6003 29.7997)" font-family="'KaiTi'" font-size="10px">為</text>
<text transform="matrix(1 0 0 1 43.6003 29.7997)" font-family="'KaiTi'" font-size="10px">物</text>
<text transform="matrix(1 0 0 1 53.6003 29.7997)" font-family="'KaiTi'" font-size="10px">身</text>
<text transform="matrix(1 0 0 1 -7758.3999 -8583.2002)" font-family="'KaiTi'" font-size="10px">­</text>
<text transform="matrix(1 0 0 1 -7758.3999 -8583.2002)" font-family="'KaiTi'" font-size="10px">­</text>
<text transform="matrix(1 0 0 1 63.6003 29.7997)" font-family="'DFKaiShu-SB-Estd-BF'" font-size="10px"> </text>
<text transform="matrix(1 0 0 1 73.6003 29.7997)" font-family="'KaiTi'" font-size="10px">若</text>
<text transform="matrix(1 0 0 1 83.6003 29.7997)" font-family="'KaiTi'" font-size="10px">不</text>
<text transform="matrix(1 0 0 1 93.6003 29.7997)" font-family="'KaiTi'" font-size="10px">生</text>
<text transform="matrix(1 0 0 1 103.6003 29.7997)" font-family="'KaiTi'" font-size="10px">者</text>
<text transform="matrix(1 0 0 1 113.6003 29.7997)" font-family="'KaiTi'" font-size="10px">之</text>
<text transform="matrix(1 0 0 1 123.6003 29.7997)" font-family="'DFKaiShu-SB-Estd-BF'" font-size="10px">「</text>
<text transform="matrix(1 0 0 1 133.6003 29.7997)" font-family="'KaiTi'" font-size="10px">往</text>
<text transform="matrix(1 0 0 1 143.6003 29.7997)" font-family="'KaiTi'" font-size="10px">生</text>
<text transform="matrix(1 0 0 1 153.6003 29.7997)" font-family="'DFKaiShu-SB-Estd-BF'" font-size="10px">」</text>
<text transform="matrix(1 0 0 1 163.6003 29.7997)" font-family="'DFKaiShu-SB-Estd-BF'" font-size="10px"> </text>
<text transform="matrix(1 0 0 1 173.6003 29.7997)" font-family="'KaiTi'" font-size="10px">大</text>
<text transform="matrix(1 0 0 1 183.6003 29.7997)" font-family="'KaiTi'" font-size="10px">悲</text>
<text transform="matrix(1 0 0 1 193.6003 29.7997)" font-family="'KaiTi'" font-size="10px"> </text>
<text transform="matrix(1 0 0 1 203.6003 29.7997)" font-family="'KaiTi'" font-size="10px">利</text>
<text transform="matrix(1 0 0 1 213.6003 29.7997)" font-family="'KaiTi'" font-size="10px">他</text>
<text transform="matrix(1 0 0 1 0 19.4664)" font-family="'KaiTi'" font-size="10px">名號</text>
<g>
	<line fill="none" stroke="#000000" stroke-width="0.5" stroke-miterlimit="10" x1="26.9" y1="5.6" x2="26.9" y2="27.1"/>
	<line fill="none" stroke="#000000" stroke-width="0.5" stroke-miterlimit="10" x1="26.9" y1="5.6" x2="30.7" y2="5.6"/>
	<line fill="none" stroke="#000000" stroke-width="0.5" stroke-miterlimit="10" x1="26.9" y1="27.1" x2="30.7" y2="27.1"/>
	<line fill="none" stroke="#000000" stroke-width="0.5" stroke-miterlimit="10" x1="26.9" y1="16.3" x2="23.2" y2="16.3"/>
</g>
<g>
	<line fill="none" stroke="#000000" stroke-width="0.5" stroke-miterlimit="10" x1="230.5" y1="27.1" x2="230.5" y2="5.6"/>
	<line fill="none" stroke="#000000" stroke-width="0.5" stroke-miterlimit="10" x1="230.5" y1="27.1" x2="226.7" y2="27.1"/>
	<line fill="none" stroke="#000000" stroke-width="0.5" stroke-miterlimit="10" x1="230.5" y1="5.6" x2="226.7" y2="5.6"/>
	<line fill="none" stroke="#000000" stroke-width="0.5" stroke-miterlimit="10" x1="230.5" y1="16.3" x2="234.2" y2="16.3"/>
</g>
<text transform="matrix(1 0 0 1 238.2 19.4661)" font-family="'KaiTi'" font-size="10px">一體不二</text>
<line fill="none" stroke="#000000" stroke-width="0.5" stroke-miterlimit="10" x1="65.4" y1="5.6" x2="70.9" y2="5.6"/>
<line fill="none" stroke="#000000" stroke-width="0.5" stroke-miterlimit="10" x1="164.6" y1="5.6" x2="170.1" y2="5.6"/>
<line fill="none" stroke="#000000" stroke-width="0.5" stroke-miterlimit="10" x1="65.4" y1="27.1" x2="70.9" y2="27.1"/>
<line fill="none" stroke="#000000" stroke-width="0.5" stroke-miterlimit="10" x1="164.6" y1="27.1" x2="170.1" y2="27.1"/>
<line fill="none" stroke="#000000" stroke-width="0.5" stroke-miterlimit="10" x1="196.4" y1="5.6" x2="201.9" y2="5.6"/>
<line fill="none" stroke="#000000" stroke-width="0.5" stroke-miterlimit="10" x1="196.4" y1="27.1" x2="201.9" y2="27.1"/>
</svg>
