<?xml version="1.0" encoding="utf-8"?>
<!-- Generator: Adobe Illustrator 21.0.0, SVG Export Plug-In . SVG Version: 6.00 Build 0)  -->
<svg version="1.1" baseProfile="tiny" id="图层_1"
	 xmlns="http://www.w3.org/2000/svg" xmlns:xlink="http://www.w3.org/1999/xlink" x="0px" y="0px" viewBox="0 0 192 115.4"
	 overflow="scroll" xml:space="preserve">
<text transform="matrix(1 0 0 1 51.9993 8.5939)" font-family="'KaiTi'" font-size="10px">若</text>
<text transform="matrix(1 0 0 1 61.9993 8.5939)" font-family="'KaiTi'" font-size="10px"> </text>
<text transform="matrix(1 0 0 1 71.9993 8.5939)" font-family="'KaiTi'" font-size="10px"> </text>
<text transform="matrix(1 0 0 1 81.9993 8.5939)" font-family="'KaiTi'" font-size="10px">人</text>
<text transform="matrix(1 0 0 1 91.9993 8.5939)" font-family="'KaiTi'" font-size="10px"> </text>
<text transform="matrix(1 0 0 1 101.9993 8.5939)" font-family="'KaiTi'" font-size="10px">十</text>
<text transform="matrix(1 0 0 1 111.9993 8.5939)" font-family="'KaiTi'" font-size="10px">方</text>
<text transform="matrix(1 0 0 1 121.9993 8.5939)" font-family="'KaiTi'" font-size="10px">众</text>
<text transform="matrix(1 0 0 1 131.9993 8.5939)" font-family="'KaiTi'" font-size="10px">生</text>
<text transform="matrix(1 0 0 1 51.9993 29.5939)" font-family="'KaiTi'" font-size="10px">念</text>
<text transform="matrix(1 0 0 1 61.9993 29.5939)" font-family="'KaiTi'" font-size="10px">我</text>
<text transform="matrix(1 0 0 1 71.9993 29.5939)" font-family="'KaiTi'" font-size="10px">称</text>
<text transform="matrix(1 0 0 1 81.9993 29.5939)" font-family="'KaiTi'" font-size="10px">名</text>
<text transform="matrix(1 0 0 1 91.9993 29.5939)" font-family="'KaiTi'" font-size="10px"> </text>
<text transform="matrix(1 0 0 1 101.9993 29.5939)" font-family="'KaiTi'" font-size="10px">起</text>
<text transform="matrix(1 0 0 1 111.9993 29.5939)" font-family="'KaiTi'" font-size="10px"> </text>
<text transform="matrix(1 0 0 1 121.9993 29.5939)" font-family="'KaiTi'" font-size="10px"> </text>
<text transform="matrix(1 0 0 1 131.9993 29.5939)" font-family="'KaiTi'" font-size="10px">行</text>
<text transform="matrix(1 0 0 1 51.9993 50.5939)" font-family="'KaiTi'" font-size="10px">自</text>
<text transform="matrix(1 0 0 1 61.9993 50.5939)" font-family="'KaiTi'" font-size="10px"> </text>
<text transform="matrix(1 0 0 1 71.9993 50.5939)" font-family="'KaiTi'" font-size="10px"> </text>
<text transform="matrix(1 0 0 1 81.9993 50.5939)" font-family="'KaiTi'" font-size="10px">归</text>
<text transform="matrix(1 0 0 1 91.9993 50.5939)" font-family="'KaiTi'" font-size="10px"> </text>
<text transform="matrix(1 0 0 1 101.9993 50.5939)" font-family="'KaiTi'" font-size="10px">安</text>
<text transform="matrix(1 0 0 1 111.9993 50.5939)" font-family="'KaiTi'" font-size="10px"> </text>
<text transform="matrix(1 0 0 1 121.9993 50.5939)" font-family="'KaiTi'" font-size="10px"> </text>
<text transform="matrix(1 0 0 1 131.9993 50.5939)" font-family="'KaiTi'" font-size="10px">心</text>
<text transform="matrix(1 0 0 1 51.9993 71.5939)" font-family="'KaiTi'" font-size="10px">即</text>
<text transform="matrix(1 0 0 1 61.9993 71.5939)" font-family="'KaiTi'" font-size="10px">入</text>
<text transform="matrix(1 0 0 1 71.9993 71.5939)" font-family="'KaiTi'" font-size="10px">必</text>
<text transform="matrix(1 0 0 1 81.9993 71.5939)" font-family="'KaiTi'" font-size="10px">定</text>
<text transform="matrix(1 0 0 1 91.9993 71.5939)" font-family="'KaiTi'" font-size="10px"> </text>
<text transform="matrix(1 0 0 1 101.9993 71.5939)" font-family="'KaiTi'" font-size="10px">现</text>
<text transform="matrix(1 0 0 1 111.9993 71.5939)" font-family="'KaiTi'" font-size="10px"> </text>
<text transform="matrix(1 0 0 1 121.9993 71.5939)" font-family="'KaiTi'" font-size="10px"> </text>
<text transform="matrix(1 0 0 1 131.9993 71.5939)" font-family="'KaiTi'" font-size="10px">果</text>
<text transform="matrix(1 0 0 1 51.9993 92.5939)" font-family="'KaiTi'" font-size="10px">得</text>
<text transform="matrix(1 0 0 1 61.9993 92.5939)" font-family="'KaiTi'" font-size="10px">等</text>
<text transform="matrix(1 0 0 1 71.9993 92.5939)" font-family="'KaiTi'" font-size="10px">正</text>
<text transform="matrix(1 0 0 1 81.9993 92.5939)" font-family="'KaiTi'" font-size="10px">觉</text>
<text transform="matrix(1 0 0 1 91.9993 92.5939)" font-family="'KaiTi'" font-size="10px"> </text>
<text transform="matrix(1 0 0 1 101.9993 92.5939)" font-family="'KaiTi'" font-size="10px">当</text>
<text transform="matrix(1 0 0 1 111.9993 92.5939)" font-family="'KaiTi'" font-size="10px"> </text>
<text transform="matrix(1 0 0 1 121.9993 92.5939)" font-family="'KaiTi'" font-size="10px"> </text>
<text transform="matrix(1 0 0 1 131.9993 92.5939)" font-family="'KaiTi'" font-size="10px">果</text>
<text transform="matrix(1 0 0 1 51.9993 113.5934)" font-family="'KaiTi'" font-size="10px">常</text>
<text transform="matrix(1 0 0 1 61.9993 113.5934)" font-family="'KaiTi'" font-size="10px">应</text>
<text transform="matrix(1 0 0 1 71.9993 113.5934)" font-family="'KaiTi'" font-size="10px">忆</text>
<text transform="matrix(1 0 0 1 81.9993 113.5934)" font-family="'KaiTi'" font-size="10px">念</text>
<text transform="matrix(1 0 0 1 91.9993 113.5934)" font-family="'KaiTi'" font-size="10px"> </text>
<text transform="matrix(1 0 0 1 101.9993 113.5934)" font-family="'KaiTi'" font-size="10px">乃</text>
<text transform="matrix(1 0 0 1 111.9993 113.5934)" font-family="'KaiTi'" font-size="10px">至</text>
<text transform="matrix(1 0 0 1 121.9993 113.5934)" font-family="'KaiTi'" font-size="10px">十</text>
<text transform="matrix(1 0 0 1 131.9993 113.5934)" font-family="'KaiTi'" font-size="10px">念</text>
<text transform="matrix(1 0 0 1 151.9995 40.0939)" font-family="'KaiTi'" font-size="10px">因</text>
<text transform="matrix(1 0 0 1 151.9995 64.5939)" font-family="'KaiTi'" font-size="10px">平生业成</text>
<text transform="matrix(1 0 0 1 151.9995 78.5939)" font-family="'KaiTi'" font-size="10px">现生不退</text>
<text transform="matrix(1 0 0 1 151.9995 92.5939)" font-family="'KaiTi'" font-size="10px">往生成佛</text>
<text transform="matrix(1 0 0 1 0 61.0939)" font-family="'KaiTi'" font-size="10px">弥陀本愿</text>
<g>
	<line fill="none" stroke="#000000" stroke-width="0.5" stroke-miterlimit="10" x1="46.2" y1="4.9" x2="46.2" y2="110.2"/>
	<line fill="none" stroke="#000000" stroke-width="0.5" stroke-miterlimit="10" x1="46.2" y1="4.9" x2="49" y2="4.9"/>
	<line fill="none" stroke="#000000" stroke-width="0.5" stroke-miterlimit="10" x1="46.2" y1="110.2" x2="49" y2="110.2"/>
	<line fill="none" stroke="#000000" stroke-width="0.5" stroke-miterlimit="10" x1="46.2" y1="57.9" x2="43.5" y2="57.9"/>
</g>
<line fill="none" stroke="#000000" stroke-width="0.5" stroke-miterlimit="10" x1="94.5" y1="4.9" x2="100" y2="4.9"/>
<line fill="none" stroke="#000000" stroke-width="0.5" stroke-miterlimit="10" x1="94.5" y1="26.1" x2="100" y2="26.1"/>
<line fill="none" stroke="#000000" stroke-width="0.5" stroke-miterlimit="10" x1="94.5" y1="47.2" x2="100" y2="47.2"/>
<line fill="none" stroke="#000000" stroke-width="0.5" stroke-miterlimit="10" x1="94.5" y1="68.3" x2="100" y2="68.3"/>
<line fill="none" stroke="#000000" stroke-width="0.5" stroke-miterlimit="10" x1="94.5" y1="88.7" x2="100" y2="88.7"/>
<line fill="none" stroke="#000000" stroke-width="0.5" stroke-miterlimit="10" x1="94.5" y1="110.2" x2="100" y2="110.2"/>
<g>
	<line fill="none" stroke="#000000" stroke-width="0.5" stroke-miterlimit="10" x1="147" y1="47.5" x2="147" y2="26.1"/>
	<line fill="none" stroke="#000000" stroke-width="0.5" stroke-miterlimit="10" x1="147" y1="47.2" x2="144.2" y2="47.2"/>
	<line fill="none" stroke="#000000" stroke-width="0.5" stroke-miterlimit="10" x1="147" y1="26.1" x2="144.2" y2="26.1"/>
	<line fill="none" stroke="#000000" stroke-width="0.5" stroke-miterlimit="10" x1="147.1" y1="36.8" x2="149.7" y2="36.8"/>
</g>
<g>
	<line fill="none" stroke="#000000" stroke-width="0.5" stroke-miterlimit="10" x1="146.9" y1="61.3" x2="146.9" y2="75.7"/>
	<line fill="none" stroke="#000000" stroke-width="0.5" stroke-miterlimit="10" x1="146.9" y1="61.3" x2="149.8" y2="61.3"/>
	<line fill="none" stroke="#000000" stroke-width="0.5" stroke-miterlimit="10" x1="146.9" y1="75.7" x2="149.8" y2="75.7"/>
	<line fill="none" stroke="#000000" stroke-width="0.5" stroke-miterlimit="10" x1="146.9" y1="68.3" x2="144.3" y2="68.3"/>
</g>
<line fill="none" stroke="#000000" stroke-width="0.5" stroke-miterlimit="10" x1="144.3" y1="88.7" x2="149.8" y2="88.7"/>
</svg>
