<?xml version="1.0" encoding="utf-8"?>
<!-- Generator: Adobe Illustrator 21.0.0, SVG Export Plug-In . SVG Version: 6.00 Build 0)  -->
<svg version="1.1" id="图层_1" xmlns="http://www.w3.org/2000/svg" xmlns:xlink="http://www.w3.org/1999/xlink" x="0px" y="0px"
	 viewBox="0 0 290.9 24.4" style="enable-background:new 0 0 290.9 24.4;" xml:space="preserve">
<style type="text/css">
	.st0{font-family:'KaiTi';}
	.st1{font-size:10px;}
	.st2{letter-spacing:5;}
	.st3{fill:none;stroke:#000000;stroke-width:0.5;stroke-miterlimit:10;}
</style>
<text transform="matrix(1 0 0 1 180.875 8.5937)"><tspan x="0" y="0" class="st0 st1">安</tspan><tspan x="10" y="0" class="st0 st1 st2"> </tspan><tspan x="20" y="0" class="st0 st1">清净无染不变动之安</tspan><tspan x="0" y="14" class="st0 st1">乐</tspan><tspan x="10" y="14" class="st0 st1 st2"> </tspan><tspan x="20" y="14" class="st0 st1">微妙难思如涅盘之乐</tspan></text>
<g>
	<line class="st3" x1="172.9" y1="12" x2="175.8" y2="12"/>
	<line class="st3" x1="175.6" y1="4.6" x2="178.4" y2="4.6"/>
	<line class="st3" x1="175.6" y1="19.8" x2="178.4" y2="19.8"/>
	<line class="st3" x1="175.8" y1="4.3" x2="175.8" y2="19.8"/>
</g>
<line class="st3" x1="193.5" y1="4.6" x2="198" y2="4.6"/>
<text transform="matrix(1 0 0 1 0 15.5938)"><tspan x="0" y="0" class="st0 st1">弥陀净土</tspan><tspan x="40" y="0" class="st0 st1 st2"> </tspan><tspan x="50" y="0" class="st0 st1">极乐净土</tspan><tspan x="90" y="0" class="st0 st1 st2"> </tspan><tspan x="100" y="0" class="st0 st1">安稳快乐</tspan><tspan x="140" y="0" class="st0 st1 st2"> </tspan><tspan x="150" y="0" class="st0 st1">安乐</tspan></text>
<line class="st3" x1="193.5" y1="19.8" x2="198" y2="19.8"/>
<line class="st3" x1="142.4" y1="12" x2="147" y2="12"/>
<line class="st3" x1="92.4" y1="12.2" x2="97" y2="12.2"/>
<line class="st3" x1="42.6" y1="12" x2="47.2" y2="12"/>
</svg>
