<?xml version="1.0" encoding="utf-8"?>
<!-- Generator: Adobe Illustrator 21.0.0, SVG Export Plug-In . SVG Version: 6.00 Build 0)  -->
<svg version="1.1" baseProfile="tiny" id="圖層_1"
	 xmlns="http://www.w3.org/2000/svg" xmlns:xlink="http://www.w3.org/1999/xlink" x="0px" y="0px" viewBox="0 0 240.2 80.9"
	 overflow="scroll" xml:space="preserve">
<g>
	<text transform="matrix(1 0 0 1 5.245209e-05 42.7434)" font-family="KaiTi" font-size="10px">彌陀喚聲</text>
	<text transform="matrix(1 0 0 1 47.9922 8.5938)" font-family="KaiTi" font-size="10px">汝</text>
	<text transform="matrix(1 0 0 1 47.9922 22.5938)" font-family="KaiTi" font-size="10px">一心</text>
	<text transform="matrix(1 0 0 1 47.9922 36.5938)" font-family="KaiTi" font-size="10px">正念</text>
	<text transform="matrix(1 0 0 1 47.9922 50.5938)" font-family="KaiTi" font-size="10px">直來</text>
	<text transform="matrix(1 0 0 1 47.9922 64.5938)" font-family="KaiTi" font-size="10px">護汝</text>
	<text transform="matrix(1 0 0 1 47.9922 78.5938)" font-family="KaiTi" font-size="10px">不畏(慈悲)</text>
	<text transform="matrix(1 0 0 1 104.0311 8.5938)" font-family="KaiTi" font-size="10px">十</text>
	<text transform="matrix(1 0 0 1 120.6307 8.5938)" font-family="KaiTi" font-size="10px">方</text>
	<text transform="matrix(1 0 0 1 137.2313 8.5938)" font-family="KaiTi" font-size="10px">眾</text>
	<text transform="matrix(1 0 0 1 153.8309 8.5938)" font-family="KaiTi" font-size="10px">生</text>
	<text transform="matrix(1 0 0 1 104.0311 22.5938)" font-family="KaiTi" font-size="10px">至</text>
	<text transform="matrix(1 0 0 1 114.0311 22.5938)" font-family="KaiTi" font-size="10px">心</text>
	<text transform="matrix(1 0 0 1 124.0311 22.5938)" font-family="KaiTi" font-size="10px">信</text>
	<text transform="matrix(1 0 0 1 134.0311 22.5938)" font-family="KaiTi" font-size="10px">樂</text>
	<text transform="matrix(1 0 0 1 144.0311 22.5938)" font-family="KaiTi" font-size="10px">欲</text>
	<text transform="matrix(1 0 0 1 154.0311 22.5938)" font-family="KaiTi" font-size="10px">生</text>
	<text transform="matrix(1 0 0 1 104.0311 36.5938)" font-family="KaiTi" font-size="10px">乃</text>
	<text transform="matrix(1 0 0 1 120.6307 36.5938)" font-family="KaiTi" font-size="10px">至</text>
	<text transform="matrix(1 0 0 1 137.2313 36.5938)" font-family="KaiTi" font-size="10px">十</text>
	<text transform="matrix(1 0 0 1 153.8309 36.5938)" font-family="KaiTi" font-size="10px">念</text>
	<text transform="matrix(1 0 0 1 104.0311 50.5938)" font-family="KaiTi" font-size="10px">若</text>
	<text transform="matrix(1 0 0 1 120.6307 50.5938)" font-family="KaiTi" font-size="10px">不</text>
	<text transform="matrix(1 0 0 1 137.2313 50.5938)" font-family="KaiTi" font-size="10px">生</text>
	<text transform="matrix(1 0 0 1 153.8309 50.5938)" font-family="KaiTi" font-size="10px">者</text>
	<text transform="matrix(1 0 0 1 104.0311 64.5938)" font-family="KaiTi" font-size="10px">不</text>
	<text transform="matrix(1 0 0 1 120.6307 64.5938)" font-family="KaiTi" font-size="10px">取</text>
	<text transform="matrix(1 0 0 1 137.2313 64.5938)" font-family="KaiTi" font-size="10px">正</text>
	<text transform="matrix(1 0 0 1 153.8309 64.5938)" font-family="KaiTi" font-size="10px">覺</text>
	<text transform="matrix(1 0 0 1 104.0311 78.5938)" font-family="KaiTi" font-size="10px">唯</text>
	<text transform="matrix(1 0 0 1 120.6307 78.5938)" font-family="KaiTi" font-size="10px">除</text>
	<text transform="matrix(1 0 0 1 137.2313 78.5938)" font-family="KaiTi" font-size="10px">逆</text>
	<text transform="matrix(1 0 0 1 153.8309 78.5938)" font-family="KaiTi" font-size="10px">謗</text>
	<text transform="matrix(1 0 0 1 200.1887 43.5938)" font-family="KaiTi" font-size="10px">第十八願</text>
	<text transform="matrix(1 0 0 1 164.8462 22.5938)" font-family="KaiTi" font-size="10px">(信心)</text>
	<text transform="matrix(1 0 0 1 164.8462 36.5938)" font-family="KaiTi" font-size="10px">(念佛)</text>
	<text transform="matrix(1 0 0 1 164.8462 78.5938)" font-family="KaiTi" font-size="10px">(智慧)</text>
	<g>
		<line fill="none" stroke="#000000" stroke-width="0.5" stroke-miterlimit="10" x1="44" y1="4.2" x2="44" y2="75.3"/>
		<line fill="none" stroke="#000000" stroke-width="0.5" stroke-miterlimit="10" x1="43.8" y1="4.4" x2="46.7" y2="4.4"/>
		<line fill="none" stroke="#000000" stroke-width="0.5" stroke-miterlimit="10" x1="43.8" y1="75.3" x2="46.7" y2="75.3"/>
		<line fill="none" stroke="#000000" stroke-width="0.5" stroke-miterlimit="10" x1="41" y1="40.2" x2="43.9" y2="40.2"/>
	</g>
	<line fill="none" stroke="#000000" stroke-width="0.5" stroke-miterlimit="10" x1="195.9" y1="4.1" x2="195.9" y2="75.6"/>
	<line fill="none" stroke="#000000" stroke-width="0.5" stroke-miterlimit="10" x1="192.9" y1="4.4" x2="195.8" y2="4.4"/>
	<line fill="none" stroke="#000000" stroke-width="0.5" stroke-miterlimit="10" x1="192.9" y1="75.3" x2="195.8" y2="75.3"/>
	<line fill="none" stroke="#000000" stroke-width="0.5" stroke-miterlimit="10" x1="195.8" y1="40.2" x2="198.7" y2="40.2"/>
	<line fill="none" stroke="#000000" stroke-width="0.5" stroke-miterlimit="10" x1="96.2" y1="75.6" x2="101.9" y2="75.6"/>
	<line fill="none" stroke="#000000" stroke-width="0.5" stroke-miterlimit="10" x1="59.9" y1="4.4" x2="101.9" y2="4.4"/>
	<line fill="none" stroke="#000000" stroke-width="0.5" stroke-miterlimit="10" x1="69.7" y1="19.5" x2="101.9" y2="19.5"/>
	<line fill="none" stroke="#000000" stroke-width="0.5" stroke-miterlimit="10" x1="69.7" y1="33.5" x2="101.9" y2="33.5"/>
	<line fill="none" stroke="#000000" stroke-width="0.5" stroke-miterlimit="10" x1="69.7" y1="47.2" x2="101.9" y2="47.2"/>
	<line fill="none" stroke="#000000" stroke-width="0.5" stroke-miterlimit="10" x1="69.7" y1="61.5" x2="101.9" y2="61.5"/>
</g>
</svg>
