<?xml version="1.0" encoding="utf-8"?>
<!-- Generator: Adobe Illustrator 21.0.0, SVG Export Plug-In . SVG Version: 6.00 Build 0)  -->
<svg version="1.1" baseProfile="tiny" id="圖層_1"
	 xmlns="http://www.w3.org/2000/svg" xmlns:xlink="http://www.w3.org/1999/xlink" x="0px" y="0px" viewBox="0 0 308.6 38.4"
	 overflow="scroll" xml:space="preserve">
<text transform="matrix(1 0 0 1 0 15.5938)" font-family="'KaiTi'" font-size="10px">彌</text>
<text transform="matrix(1 0 0 1 10 15.5938)" font-family="'KaiTi'" font-size="10px">陀</text>
<text transform="matrix(1 0 0 1 0 22.5938)" font-family="'KaiTi'" font-size="10px"> </text>
<text transform="matrix(1 0 0 1 10 22.5938)" font-family="'KaiTi'" font-size="10px"> </text>
<text transform="matrix(1 0 0 1 20 22.5938)" font-family="'KaiTi'" font-size="10px"> </text>
<text transform="matrix(1 0 0 1 30 22.5938)" font-family="'KaiTi'" font-size="10px">若</text>
<text transform="matrix(1 0 0 1 40 22.5938)" font-family="'KaiTi'" font-size="10px">人</text>
<text transform="matrix(1 0 0 1 0 29.5938)" font-family="'KaiTi'" font-size="10px">本</text>
<text transform="matrix(1 0 0 1 10 29.5938)" font-family="'KaiTi'" font-size="10px">願</text>
<text transform="matrix(1 0 0 1 61.75 8.5938)" font-family="'KaiTi'" font-size="10px">念我</text>
<text transform="matrix(1 0 0 1 61.75 22.5938)" font-family="'KaiTi'" font-size="10px">稱名</text>
<text transform="matrix(1 0 0 1 61.75 36.5938)" font-family="'KaiTi'" font-size="10px">自歸</text>
<text transform="matrix(1 0 0 1 91.875 15.5938)" font-family="'KaiTi'" font-size="10px">起行</text>
<text transform="matrix(1 0 0 1 91.875 36.5938)" font-family="'KaiTi'" font-size="10px">安心</text>
<text transform="matrix(1 0 0 1 120.3251 26.0938)" font-family="'KaiTi'" font-size="10px">因</text>
<text transform="matrix(1 0 0 1 139.625 15.5938)" font-family="'KaiTi'" font-size="10px">現</text>
<text transform="matrix(1 0 0 1 149.625 15.5938)" font-family="'KaiTi'" font-size="10px">果</text>
<text transform="matrix(1 0 0 1 159.625 15.5938)" font-family="'KaiTi'" font-size="10px"> </text>
<text transform="matrix(1 0 0 1 169.625 15.5938)" font-family="'KaiTi'" font-size="10px">即</text>
<text transform="matrix(1 0 0 1 179.625 15.5938)" font-family="'KaiTi'" font-size="10px">入</text>
<text transform="matrix(1 0 0 1 189.625 15.5938)" font-family="'KaiTi'" font-size="10px">必</text>
<text transform="matrix(1 0 0 1 199.625 15.5938)" font-family="'KaiTi'" font-size="10px">定</text>
<text transform="matrix(1 0 0 1 139.625 36.5938)" font-family="'KaiTi'" font-size="10px">當</text>
<text transform="matrix(1 0 0 1 149.625 36.5938)" font-family="'KaiTi'" font-size="10px">果</text>
<text transform="matrix(1 0 0 1 159.625 36.5938)" font-family="'KaiTi'" font-size="10px"> </text>
<text transform="matrix(1 0 0 1 169.625 36.5938)" font-family="'KaiTi'" font-size="10px">得</text>
<text transform="matrix(1 0 0 1 179.625 36.5938)" font-family="'KaiTi'" font-size="10px">等</text>
<text transform="matrix(1 0 0 1 189.625 36.5938)" font-family="'KaiTi'" font-size="10px">正</text>
<text transform="matrix(1 0 0 1 199.625 36.5938)" font-family="'KaiTi'" font-size="10px">覺</text>
<text transform="matrix(1 0 0 1 218.625 26.0938)" font-family="'KaiTi'" font-size="10px">常應憶念(乃至十念)</text>
<g>
	<line fill="none" stroke="#000000" stroke-width="0.5" stroke-miterlimit="10" x1="55.9" y1="4.9" x2="55.9" y2="33.6"/>
	<line fill="none" stroke="#000000" stroke-width="0.5" stroke-miterlimit="10" x1="55.9" y1="4.9" x2="59.7" y2="4.9"/>
	<line fill="none" stroke="#000000" stroke-width="0.5" stroke-miterlimit="10" x1="55.9" y1="33.6" x2="59.7" y2="33.6"/>
	<line fill="none" stroke="#000000" stroke-width="0.5" stroke-miterlimit="10" x1="55.9" y1="19.2" x2="52.2" y2="19.2"/>
</g>
<line fill="none" stroke="#000000" stroke-width="0.5" stroke-miterlimit="10" x1="22.7" y1="19.3" x2="28.2" y2="19.3"/>
<line fill="none" stroke="#000000" stroke-width="0.5" stroke-miterlimit="10" x1="84.1" y1="33.6" x2="89.6" y2="33.6"/>
<g>
	<line fill="none" stroke="#000000" stroke-width="0.5" stroke-miterlimit="10" x1="86.5" y1="19.2" x2="86.5" y2="4.9"/>
	<line fill="none" stroke="#000000" stroke-width="0.5" stroke-miterlimit="10" x1="86.5" y1="19.2" x2="83.6" y2="19.2"/>
	<line fill="none" stroke="#000000" stroke-width="0.5" stroke-miterlimit="10" x1="86.5" y1="4.9" x2="83.6" y2="4.9"/>
	<line fill="none" stroke="#000000" stroke-width="0.5" stroke-miterlimit="10" x1="86.5" y1="12.1" x2="89.1" y2="12.1"/>
</g>
<g>
	<line fill="none" stroke="#000000" stroke-width="0.5" stroke-miterlimit="10" x1="116.3" y1="33.6" x2="116.3" y2="12.1"/>
	<line fill="none" stroke="#000000" stroke-width="0.5" stroke-miterlimit="10" x1="116.3" y1="33.6" x2="113.5" y2="33.6"/>
	<line fill="none" stroke="#000000" stroke-width="0.5" stroke-miterlimit="10" x1="116.3" y1="12.1" x2="113.5" y2="12.1"/>
	<line fill="none" stroke="#000000" stroke-width="0.5" stroke-miterlimit="10" x1="116.3" y1="22.8" x2="119" y2="22.8"/>
</g>
<g>
	<line fill="none" stroke="#000000" stroke-width="0.5" stroke-miterlimit="10" x1="134.3" y1="12.1" x2="134.3" y2="33.6"/>
	<line fill="none" stroke="#000000" stroke-width="0.5" stroke-miterlimit="10" x1="134.3" y1="12.1" x2="137.2" y2="12.1"/>
	<line fill="none" stroke="#000000" stroke-width="0.5" stroke-miterlimit="10" x1="134.3" y1="33.6" x2="137.2" y2="33.6"/>
	<line fill="none" stroke="#000000" stroke-width="0.5" stroke-miterlimit="10" x1="134.3" y1="22.8" x2="131.7" y2="22.8"/>
</g>
<line fill="none" stroke="#000000" stroke-width="0.5" stroke-miterlimit="10" x1="161.8" y1="12.1" x2="167.3" y2="12.1"/>
<line fill="none" stroke="#000000" stroke-width="0.5" stroke-miterlimit="10" x1="161.8" y1="33.6" x2="167.3" y2="33.6"/>
<g>
	<line fill="none" stroke="#000000" stroke-width="0.5" stroke-miterlimit="10" x1="214" y1="33.6" x2="214" y2="12.1"/>
	<line fill="none" stroke="#000000" stroke-width="0.5" stroke-miterlimit="10" x1="214" y1="33.6" x2="211.1" y2="33.6"/>
	<line fill="none" stroke="#000000" stroke-width="0.5" stroke-miterlimit="10" x1="214" y1="12.1" x2="211.1" y2="12.1"/>
	<line fill="none" stroke="#000000" stroke-width="0.5" stroke-miterlimit="10" x1="214" y1="22.8" x2="216.6" y2="22.8"/>
</g>
</svg>
