<?xml version="1.0" encoding="utf-8"?>
<!-- Generator: Adobe Illustrator 21.0.0, SVG Export Plug-In . SVG Version: 6.00 Build 0)  -->
<svg version="1.1" baseProfile="tiny" id="图层_1"
	 xmlns="http://www.w3.org/2000/svg" xmlns:xlink="http://www.w3.org/1999/xlink" x="0px" y="0px" viewBox="0 0 194 164.4"
	 overflow="scroll" xml:space="preserve">
<text transform="matrix(1 0 0 1 0 8.5938)" font-family="'KaiTi'" font-size="10px">弥陀在我心内住</text>
<text transform="matrix(1 0 0 1 0 22.5938)" font-family="'KaiTi'" font-size="10px">弥陀在我顶上坐</text>
<text transform="matrix(1 0 0 1 0 36.5938)" font-family="'KaiTi'" font-size="10px">弥陀在我身中现</text>
<text transform="matrix(1 0 0 1 0 50.5938)" font-family="'KaiTi'" font-size="10px">弥陀与我同时行</text>
<text transform="matrix(1 0 0 1 0 64.5938)" font-family="'KaiTi'" font-size="10px">弥陀在我身心内</text>
<text transform="matrix(1 0 0 1 0 78.5938)" font-family="'KaiTi'" font-size="10px">我在弥陀光明中</text>
<text transform="matrix(1 0 0 1 0 92.5938)" font-family="'KaiTi'" font-size="10px">佛入我心我入佛</text>
<text transform="matrix(1 0 0 1 0 106.5938)" font-family="'KaiTi'" font-size="10px">我与弥陀一体融</text>
<text transform="matrix(1 0 0 1 0 120.5938)" font-family="'KaiTi'" font-size="10px">弥陀功德盈我心</text>
<text transform="matrix(1 0 0 1 0 134.5938)" font-family="'KaiTi'" font-size="10px">弥陀光明照我身</text>
<text transform="matrix(1 0 0 1 0 148.5938)" font-family="'KaiTi'" font-size="10px">时处诸缘皆护我</text>
<text transform="matrix(1 0 0 1 0 162.5938)" font-family="'KaiTi'" font-size="10px">摄取不舍迎接我</text>
<text transform="matrix(1 0 0 1 84 29.5938)" font-family="'KaiTi'" font-size="10px">名体不离故</text>
<text transform="matrix(1 0 0 1 84 64.5938)" font-family="'KaiTi'" font-size="10px">名体不离故</text>
<text transform="matrix(1 0 0 1 84 78.5938)" font-family="'KaiTi'" font-size="10px">光明摄取故</text>
<text transform="matrix(1 0 0 1 84 99.5938)" font-family="'KaiTi'" font-size="10px">名体不离故</text>
<text transform="matrix(1 0 0 1 134 99.5938)" font-family="'DFKaiShu-SB-Estd-BF'" font-size="10px">、</text>
<text transform="matrix(1 0 0 1 144 99.5938)" font-family="'KaiTi'" font-size="10px">光明摄取故</text>
<text transform="matrix(1 0 0 1 84 120.5938)" font-family="'KaiTi'" font-size="10px">名体不离故</text>
<text transform="matrix(1 0 0 1 84 148.5938)" font-family="'KaiTi'" font-size="10px">光明摄取故</text>
<g>
	<line fill="none" stroke="#000000" stroke-width="0.5" stroke-miterlimit="10" x1="74.3" y1="46.9" x2="77.2" y2="46.9"/>
	<line fill="none" stroke="#000000" stroke-width="0.5" stroke-miterlimit="10" x1="74.3" y1="5" x2="77.2" y2="5"/>
	<line fill="none" stroke="#000000" stroke-width="0.5" stroke-miterlimit="10" x1="77" y1="26.2" x2="79.9" y2="26.2"/>
	<line fill="none" stroke="#000000" stroke-width="0.5" stroke-miterlimit="10" x1="77.2" y1="4.8" x2="77.2" y2="47.3"/>
</g>
<line fill="none" stroke="#000000" stroke-width="0.5" stroke-miterlimit="10" x1="74.3" y1="60.7" x2="79.9" y2="60.7"/>
<line fill="none" stroke="#000000" stroke-width="0.5" stroke-miterlimit="10" x1="74.3" y1="74.1" x2="79.9" y2="74.1"/>
<g>
	<line fill="none" stroke="#000000" stroke-width="0.5" stroke-miterlimit="10" x1="79.9" y1="95.8" x2="77.1" y2="95.8"/>
	<line fill="none" stroke="#000000" stroke-width="0.5" stroke-miterlimit="10" x1="77.1" y1="102.7" x2="74.2" y2="102.7"/>
	<line fill="none" stroke="#000000" stroke-width="0.5" stroke-miterlimit="10" x1="77.1" y1="88.5" x2="74.2" y2="88.5"/>
	<line fill="none" stroke="#000000" stroke-width="0.5" stroke-miterlimit="10" x1="77.1" y1="102.9" x2="77.1" y2="88.3"/>
</g>
<line fill="none" stroke="#000000" stroke-width="0.5" stroke-miterlimit="10" x1="74.3" y1="117.1" x2="79.9" y2="117.1"/>
<g>
	<line fill="none" stroke="#000000" stroke-width="0.5" stroke-miterlimit="10" x1="79.9" y1="145.4" x2="77.1" y2="145.4"/>
	<line fill="none" stroke="#000000" stroke-width="0.5" stroke-miterlimit="10" x1="77.1" y1="159.2" x2="74.2" y2="159.2"/>
	<line fill="none" stroke="#000000" stroke-width="0.5" stroke-miterlimit="10" x1="77.1" y1="131.7" x2="74.2" y2="131.7"/>
	<line fill="none" stroke="#000000" stroke-width="0.5" stroke-miterlimit="10" x1="77.1" y1="159.4" x2="77.1" y2="131.4"/>
</g>
</svg>
