<?xml version="1.0" encoding="utf-8"?>
<!-- Generator: Adobe Illustrator 21.0.0, SVG Export Plug-In . SVG Version: 6.00 Build 0)  -->
<svg version="1.1" baseProfile="tiny" id="圖層_1"
	 xmlns="http://www.w3.org/2000/svg" xmlns:xlink="http://www.w3.org/1999/xlink" x="0px" y="0px" viewBox="0 0 321 24.6"
	 overflow="scroll" xml:space="preserve">
<text transform="matrix(1 0 0 1 101 8.5938)" font-family="'KaiTi'" font-size="10px">第一義諦</text>
<text transform="matrix(1 0 0 1 141 8.5938)" font-family="'DFKaiShu-SB-Estd-BF'" font-size="10px">，</text>
<text transform="matrix(1 0 0 1 151 8.5938)" font-family="'KaiTi'" font-size="10px">空有不二之空</text>
<text transform="matrix(1 0 0 1 211 8.5938)" font-family="'DFKaiShu-SB-Estd-BF'" font-size="10px">，</text>
<text transform="matrix(1 0 0 1 221 8.5938)" font-family="'KaiTi'" font-size="10px">謂之真空</text>
<text transform="matrix(1 0 0 1 261 8.5938)" font-family="'DFKaiShu-SB-Estd-BF'" font-size="10px">，</text>
<text transform="matrix(1 0 0 1 271 8.5938)" font-family="'KaiTi'" font-size="10px">故稱第一</text>
<text transform="matrix(1 0 0 1 311 8.5938)" font-family="'DFKaiShu-SB-Estd-BF'" font-size="10px">。</text>
<text transform="matrix(1 0 0 1 101 22.5938)" font-family="'KaiTi'" font-size="10px">妙境界相</text>
<text transform="matrix(1 0 0 1 141 22.5938)" font-family="'DFKaiShu-SB-Estd-BF'" font-size="10px">，</text>
<text transform="matrix(1 0 0 1 151 22.5938)" font-family="'KaiTi'" font-size="10px">空有不二之有</text>
<text transform="matrix(1 0 0 1 211 22.5938)" font-family="'DFKaiShu-SB-Estd-BF'" font-size="10px">，</text>
<text transform="matrix(1 0 0 1 221 22.5938)" font-family="'KaiTi'" font-size="10px">謂之妙有</text>
<text transform="matrix(1 0 0 1 261 22.5938)" font-family="'DFKaiShu-SB-Estd-BF'" font-size="10px">，</text>
<text transform="matrix(1 0 0 1 271 22.5938)" font-family="'KaiTi'" font-size="10px">故說妙境</text>
<text transform="matrix(1 0 0 1 311 22.5938)" font-family="'DFKaiShu-SB-Estd-BF'" font-size="10px">。</text>
<text transform="matrix(1 0 0 1 0 15.5938)" font-family="'KaiTi'" font-size="10px">彌</text>
<text transform="matrix(1 0 0 1 10 15.5938)" font-family="'KaiTi'" font-size="10px">陀</text>
<text transform="matrix(1 0 0 1 20 15.5938)" font-family="'KaiTi'" font-size="10px">淨</text>
<text transform="matrix(1 0 0 1 30 15.5938)" font-family="'KaiTi'" font-size="10px">土</text>
<text transform="matrix(1 0 0 1 40.0005 15.5938)" font-family="'KaiTi'" font-size="10px"> </text>
<text transform="matrix(1 0 0 1 50.0005 15.5938)" font-family="'KaiTi'" font-size="10px">真</text>
<text transform="matrix(1 0 0 1 60.0005 15.5938)" font-family="'KaiTi'" font-size="10px">空</text>
<text transform="matrix(1 0 0 1 70.0005 15.5938)" font-family="'KaiTi'" font-size="10px">妙</text>
<text transform="matrix(1 0 0 1 80.0005 15.5938)" font-family="'KaiTi'" font-size="10px">有</text>
<g>
	<line fill="none" stroke="#000000" stroke-width="0.5" stroke-miterlimit="10" x1="95.7" y1="5" x2="95.7" y2="19.1"/>
	<line fill="none" stroke="#000000" stroke-width="0.5" stroke-miterlimit="10" x1="95.7" y1="5" x2="98.4" y2="5"/>
	<line fill="none" stroke="#000000" stroke-width="0.5" stroke-miterlimit="10" x1="95.7" y1="19.1" x2="98.4" y2="19.1"/>
	<line fill="none" stroke="#000000" stroke-width="0.5" stroke-miterlimit="10" x1="95.7" y1="12.1" x2="92.9" y2="12.1"/>
</g>
<line fill="none" stroke="#000000" stroke-width="0.5" stroke-miterlimit="10" x1="42.2" y1="12.1" x2="47.7" y2="12.1"/>
</svg>
