<?xml version="1.0" encoding="utf-8"?>
<!-- Generator: Adobe Illustrator 21.0.0, SVG Export Plug-In . SVG Version: 6.00 Build 0)  -->
<svg version="1.1" id="图层_1" xmlns="http://www.w3.org/2000/svg" xmlns:xlink="http://www.w3.org/1999/xlink" x="0px" y="0px"
	 viewBox="0 0 233.1 80.4" style="enable-background:new 0 0 233.1 80.4;" xml:space="preserve">
<style type="text/css">
	.st0{fill:none;stroke:#000000;stroke-width:0.5;stroke-miterlimit:10;}
	.st1{enable-background:new    ;}
	.st2{font-family:'KaiTi';}
	.st3{font-size:10px;}
	.st4{font-family:'DFKaiShu-SB-Estd-BF';}
</style>
<g>
	<line class="st0" x1="73.8" y1="4.4" x2="73.8" y2="33.1"/>
	<line class="st0" x1="73.8" y1="4.4" x2="77.6" y2="4.4"/>
	<line class="st0" x1="73.8" y1="33.1" x2="77.6" y2="33.1"/>
	<line class="st0" x1="73.8" y1="18.7" x2="70.1" y2="18.7"/>
</g>
<text transform="matrix(1 0 0 1 80.05 8.594)" class="st1"><tspan x="0" y="0" class="st2 st3">举三部经名</tspan><tspan x="0" y="14" class="st2 st3">明三经正依之理由</tspan><tspan x="0" y="28" class="st2 st3">示祖证</tspan><tspan x="0" y="42" class="st2 st3">明旁依之理由</tspan><tspan x="0" y="56" class="st2 st3">举例</tspan><tspan x="0" y="70" class="st2 st3">示祖证</tspan></text>
<g>
	<line class="st0" x1="73.8" y1="46.4" x2="73.8" y2="75.1"/>
	<line class="st0" x1="73.8" y1="46.4" x2="77.6" y2="46.4"/>
	<line class="st0" x1="73.8" y1="75.1" x2="77.6" y2="75.1"/>
	<line class="st0" x1="73.8" y1="60.7" x2="70.1" y2="60.7"/>
</g>
<text transform="matrix(1 0 0 1 7.05 22.594)" class="st1"><tspan x="0" y="0" class="st2 st3">明正依唯三部</tspan><tspan x="0" y="42" class="st2 st3">明旁依经甚多</tspan></text>
<g>
	<line class="st0" x1="0.3" y1="18.7" x2="0.3" y2="60.7"/>
	<line class="st0" x1="0.3" y1="18.7" x2="4" y2="18.7"/>
	<line class="st0" x1="0.3" y1="60.7" x2="4" y2="60.7"/>
</g>
<line class="st0" x1="162.6" y1="18.7" x2="170.1" y2="18.7"/>
<text transform="matrix(1 0 0 1 173.0832 22.6667)"><tspan x="0" y="0" class="st2 st3">纯</tspan><tspan x="10" y="0" class="st4 st3">、</tspan><tspan x="20" y="0" class="st2 st3">专</tspan><tspan x="30" y="0" class="st4 st3">、</tspan><tspan x="40" y="0" class="st2 st3">不杂</tspan></text>
<line class="st0" x1="141.7" y1="46.4" x2="149.2" y2="46.4"/>
<text transform="matrix(1 0 0 1 152.2498 50.5728)" class="st2 st3">兼</text>
</svg>
