<?xml version="1.0" encoding="utf-8"?>
<!-- Generator: Adobe Illustrator 21.0.0, SVG Export Plug-In . SVG Version: 6.00 Build 0)  -->
<svg version="1.1" baseProfile="tiny" id="圖層_1"
	 xmlns="http://www.w3.org/2000/svg" xmlns:xlink="http://www.w3.org/1999/xlink" x="0px" y="0px" viewBox="0 0 201.9 94.4"
	 overflow="scroll" xml:space="preserve">
<text transform="matrix(1 0 0 1 121.9346 22.5936)" font-family="'KaiTi'" font-size="10px">正</text>
<text transform="matrix(1 0 0 1 131.9346 22.5936)" font-family="'KaiTi'" font-size="10px"> </text>
<text transform="matrix(1 0 0 1 141.9346 22.5936)" font-family="'KaiTi'" font-size="10px">純</text>
<text transform="matrix(1 0 0 1 151.9346 22.5936)" font-family="'DFKaiShu-SB-Estd-BF'" font-size="10px">、</text>
<text transform="matrix(1 0 0 1 161.9346 22.5936)" font-family="'KaiTi'" font-size="10px">專</text>
<text transform="matrix(1 0 0 1 171.9346 22.5936)" font-family="'KaiTi'" font-size="10px"> </text>
<text transform="matrix(1 0 0 1 181.9346 22.5936)" font-family="'KaiTi'" font-size="10px">統</text>
<text transform="matrix(1 0 0 1 191.9346 22.5936)" font-family="'KaiTi'" font-size="10px">攝</text>
<text transform="matrix(1 0 0 1 121.9346 36.5936)" font-family="'KaiTi'" font-size="10px">依</text>
<text transform="matrix(1 0 0 1 131.9346 36.5936)" font-family="'KaiTi'" font-size="10px"> </text>
<text transform="matrix(1 0 0 1 141.9346 36.5936)" font-family="'KaiTi'" font-size="10px">用</text>
<text transform="matrix(1 0 0 1 151.9346 36.5936)" font-family="'KaiTi'" font-size="10px"> </text>
<text transform="matrix(1 0 0 1 161.9346 36.5936)" font-family="'KaiTi'" font-size="10px"> </text>
<text transform="matrix(1 0 0 1 171.9346 36.5936)" font-family="'KaiTi'" font-size="10px"> </text>
<text transform="matrix(1 0 0 1 181.9346 36.5936)" font-family="'KaiTi'" font-size="10px">簡</text>
<text transform="matrix(1 0 0 1 191.9346 36.5936)" font-family="'KaiTi'" font-size="10px">別</text>
<text transform="matrix(1 0 0 1 121.9346 50.5936)" font-family="'KaiTi'" font-size="10px">明</text>
<text transform="matrix(1 0 0 1 131.9346 50.5936)" font-family="'KaiTi'" font-size="10px">簡</text>
<text transform="matrix(1 0 0 1 141.9346 50.5936)" font-family="'KaiTi'" font-size="10px">別</text>
<text transform="matrix(1 0 0 1 121.9346 64.5936)" font-family="'KaiTi'" font-size="10px">明</text>
<text transform="matrix(1 0 0 1 131.9346 64.5936)" font-family="'KaiTi'" font-size="10px">正</text>
<text transform="matrix(1 0 0 1 141.9346 64.5936)" font-family="'KaiTi'" font-size="10px">旁</text>
<text transform="matrix(1 0 0 1 121.9346 78.5936)" font-family="'KaiTi'" font-size="10px">正</text>
<text transform="matrix(1 0 0 1 131.9346 78.5936)" font-family="'KaiTi'" font-size="10px">依</text>
<text transform="matrix(1 0 0 1 141.9346 78.5936)" font-family="'KaiTi'" font-size="10px">統</text>
<text transform="matrix(1 0 0 1 151.9346 78.5936)" font-family="'KaiTi'" font-size="10px">攝</text>
<text transform="matrix(1 0 0 1 161.9346 78.5936)" font-family="'KaiTi'" font-size="10px">旁</text>
<text transform="matrix(1 0 0 1 171.9346 78.5936)" font-family="'KaiTi'" font-size="10px">依</text>
<text transform="matrix(1 0 0 1 121.9346 92.5936)" font-family="'KaiTi'" font-size="10px">正</text>
<text transform="matrix(1 0 0 1 131.9346 92.5936)" font-family="'KaiTi'" font-size="10px">依</text>
<text transform="matrix(1 0 0 1 141.9346 92.5936)" font-family="'KaiTi'" font-size="10px">為</text>
<text transform="matrix(1 0 0 1 151.9346 92.5936)" font-family="'KaiTi'" font-size="10px">標</text>
<text transform="matrix(1 0 0 1 161.9346 92.5936)" font-family="'KaiTi'" font-size="10px">準</text>
<g>
	<line fill="none" stroke="#000000" stroke-width="0.5" stroke-miterlimit="10" x1="115.2" y1="19.2" x2="115.2" y2="33.4"/>
	<line fill="none" stroke="#000000" stroke-width="0.5" stroke-miterlimit="10" x1="115.2" y1="19.2" x2="119" y2="19.2"/>
	<line fill="none" stroke="#000000" stroke-width="0.5" stroke-miterlimit="10" x1="115.2" y1="33.4" x2="119" y2="33.4"/>
	<line fill="none" stroke="#000000" stroke-width="0.5" stroke-miterlimit="10" x1="115.2" y1="26.3" x2="111.5" y2="26.3"/>
</g>
<line fill="none" stroke="#000000" stroke-width="0.5" stroke-miterlimit="10" x1="174" y1="19.2" x2="179.5" y2="19.2"/>
<line fill="none" stroke="#000000" stroke-width="0.5" stroke-miterlimit="10" x1="153.8" y1="33.4" x2="179.5" y2="33.4"/>
<g>
	<line fill="none" stroke="#000000" stroke-width="0.5" stroke-miterlimit="10" x1="115.1" y1="46.9" x2="115.1" y2="61"/>
	<line fill="none" stroke="#000000" stroke-width="0.5" stroke-miterlimit="10" x1="115.1" y1="46.9" x2="118.9" y2="46.9"/>
	<line fill="none" stroke="#000000" stroke-width="0.5" stroke-miterlimit="10" x1="115.1" y1="61" x2="118.9" y2="61"/>
	<line fill="none" stroke="#000000" stroke-width="0.5" stroke-miterlimit="10" x1="115.1" y1="53.9" x2="111.4" y2="53.9"/>
</g>
<g>
	<line fill="none" stroke="#000000" stroke-width="0.5" stroke-miterlimit="10" x1="115" y1="75.1" x2="115" y2="89.3"/>
	<line fill="none" stroke="#000000" stroke-width="0.5" stroke-miterlimit="10" x1="115" y1="75.1" x2="118.8" y2="75.1"/>
	<line fill="none" stroke="#000000" stroke-width="0.5" stroke-miterlimit="10" x1="115" y1="89.3" x2="118.8" y2="89.3"/>
	<line fill="none" stroke="#000000" stroke-width="0.5" stroke-miterlimit="10" x1="115" y1="82.2" x2="111.3" y2="82.2"/>
</g>
<line fill="none" stroke="#000000" stroke-width="0.5" stroke-miterlimit="10" x1="134" y1="19.2" x2="139.5" y2="19.2"/>
<line fill="none" stroke="#000000" stroke-width="0.5" stroke-miterlimit="10" x1="134" y1="33.4" x2="139.5" y2="33.4"/>
<text transform="matrix(1 0 0 1 68.7679 29.5936)" font-family="'KaiTi'" font-size="10px">明 字 義</text>
<text transform="matrix(1 0 0 1 68.7679 57.5936)" font-family="'KaiTi'" font-size="10px">明 意 義</text>
<text transform="matrix(1 0 0 1 68.7679 85.5936)" font-family="'KaiTi'" font-size="10px">結明規則</text>
<g>
	<line fill="none" stroke="#000000" stroke-width="0.5" stroke-miterlimit="10" x1="62.4" y1="26.3" x2="62.4" y2="82.2"/>
	<line fill="none" stroke="#000000" stroke-width="0.5" stroke-miterlimit="10" x1="62.4" y1="26.3" x2="66.2" y2="26.3"/>
	<line fill="none" stroke="#000000" stroke-width="0.5" stroke-miterlimit="10" x1="62.4" y1="82.2" x2="66.2" y2="82.2"/>
	<line fill="none" stroke="#000000" stroke-width="0.5" stroke-miterlimit="10" x1="62.4" y1="53.9" x2="58.7" y2="53.9"/>
</g>
<text transform="matrix(1 0 0 1 6.5181 8.5936)" font-family="'KaiTi'" font-size="10px">明正依地位</text>
<text transform="matrix(1 0 0 1 6.5181 57.5936)" font-family="'KaiTi'" font-size="10px">明正依規則</text>
<g>
	<line fill="none" stroke="#000000" stroke-width="0.5" stroke-miterlimit="10" x1="0.3" y1="3.7" x2="0.3" y2="53.9"/>
	<line fill="none" stroke="#000000" stroke-width="0.5" stroke-miterlimit="10" x1="0.3" y1="3.7" x2="4" y2="3.7"/>
	<line fill="none" stroke="#000000" stroke-width="0.5" stroke-miterlimit="10" x1="0.3" y1="53.9" x2="4" y2="53.9"/>
</g>
</svg>
