<?xml version="1.0" encoding="utf-8"?>
<!-- Generator: Adobe Illustrator 21.0.0, SVG Export Plug-In . SVG Version: 6.00 Build 0)  -->
<svg version="1.1" baseProfile="tiny" id="圖層_1"
	 xmlns="http://www.w3.org/2000/svg" xmlns:xlink="http://www.w3.org/1999/xlink" x="0px" y="0px" viewBox="0 0 255.8 80.4"
	 xml:space="preserve">
<text transform="matrix(1 0 0 1 50.75 8.5938)" font-family="'KaiTi'" font-size="10px">極</text>
<text transform="matrix(1 0 0 1 60.75 8.5938)" font-family="'KaiTi'" font-size="10px">樂</text>
<text transform="matrix(1 0 0 1 70.75 8.5938)" font-family="'KaiTi'" font-size="10px"> </text>
<text transform="matrix(1 0 0 1 80.75 8.5938)" font-family="'KaiTi'" font-size="10px">無</text>
<text transform="matrix(1 0 0 1 90.75 8.5938)" font-family="'KaiTi'" font-size="10px">為</text>
<text transform="matrix(1 0 0 1 100.75 8.5938)" font-family="'KaiTi'" font-size="10px">涅</text>
<text transform="matrix(1 0 0 1 110.75 8.5938)" font-family="'KaiTi'" font-size="10px">槃</text>
<text transform="matrix(1 0 0 1 120.75 8.5938)" font-family="'KaiTi'" font-size="10px"> </text>
<text transform="matrix(1 0 0 1 130.75 8.5938)" font-family="'KaiTi'" font-size="10px">無</text>
<text transform="matrix(1 0 0 1 140.75 8.5938)" font-family="'KaiTi'" font-size="10px">有</text>
<text transform="matrix(1 0 0 1 150.75 8.5938)" font-family="'KaiTi'" font-size="10px">眾</text>
<text transform="matrix(1 0 0 1 160.75 8.5938)" font-family="'KaiTi'" font-size="10px">苦</text>
<text transform="matrix(1 0 0 1 170.75 8.5938)" font-family="'DFKaiShu-SB-Estd-BF'" font-size="10px">，</text>
<text transform="matrix(1 0 0 1 180.75 8.5938)" font-family="'KaiTi'" font-size="10px">但</text>
<text transform="matrix(1 0 0 1 190.75 8.5938)" font-family="'KaiTi'" font-size="10px">受</text>
<text transform="matrix(1 0 0 1 200.75 8.5938)" font-family="'KaiTi'" font-size="10px">諸</text>
<text transform="matrix(1 0 0 1 210.75 8.5938)" font-family="'KaiTi'" font-size="10px">樂</text>
<text transform="matrix(1 0 0 1 50.75 22.5938)" font-family="'KaiTi'" font-size="10px">少</text>
<text transform="matrix(1 0 0 1 60.75 22.5938)" font-family="'KaiTi'" font-size="10px">善</text>
<text transform="matrix(1 0 0 1 70.75 22.5938)" font-family="'KaiTi'" font-size="10px">福</text>
<text transform="matrix(1 0 0 1 80.75 22.5938)" font-family="'KaiTi'" font-size="10px">不</text>
<text transform="matrix(1 0 0 1 90.75 22.5938)" font-family="'KaiTi'" font-size="10px">生</text>
<text transform="matrix(1 0 0 1 100.75 22.5938)" font-family="'KaiTi'" font-size="10px">(</text>
<text transform="matrix(1 0 0 1 105.75 22.5938)" font-family="'KaiTi'" font-size="10px">非</text>
<text transform="matrix(1 0 0 1 115.75 22.5938)" font-family="'KaiTi'" font-size="10px">往</text>
<text transform="matrix(1 0 0 1 125.75 22.5938)" font-family="'KaiTi'" font-size="10px">生</text>
<text transform="matrix(1 0 0 1 135.75 22.5938)" font-family="'KaiTi'" font-size="10px">之</text>
<text transform="matrix(1 0 0 1 145.75 22.5938)" font-family="'KaiTi'" font-size="10px">因</text>
<text transform="matrix(1 0 0 1 155.75 22.5938)" font-family="'KaiTi'" font-size="10px">)</text>
<text transform="matrix(1 0 0 1 50.75 36.5938)" font-family="'KaiTi'" font-size="10px">唯</text>
<text transform="matrix(1 0 0 1 60.75 36.5938)" font-family="'KaiTi'" font-size="10px">持</text>
<text transform="matrix(1 0 0 1 70.75 36.5938)" font-family="'KaiTi'" font-size="10px">名</text>
<text transform="matrix(1 0 0 1 80.75 36.5938)" font-family="'KaiTi'" font-size="10px">得</text>
<text transform="matrix(1 0 0 1 90.75 36.5938)" font-family="'KaiTi'" font-size="10px">生</text>
<text transform="matrix(1 0 0 1 100.75 36.5938)" font-family="'KaiTi'" font-size="10px">(</text>
<text transform="matrix(1 0 0 1 105.75 36.5938)" font-family="'KaiTi'" font-size="10px">往</text>
<text transform="matrix(1 0 0 1 115.75 36.5938)" font-family="'KaiTi'" font-size="10px">生</text>
<text transform="matrix(1 0 0 1 125.75 36.5938)" font-family="'KaiTi'" font-size="10px">之</text>
<text transform="matrix(1 0 0 1 135.75 36.5938)" font-family="'KaiTi'" font-size="10px">正</text>
<text transform="matrix(1 0 0 1 145.75 36.5938)" font-family="'KaiTi'" font-size="10px">因</text>
<text transform="matrix(1 0 0 1 155.75 36.5938)" font-family="'KaiTi'" font-size="10px">)</text>
<text transform="matrix(1 0 0 1 50.75 50.5938)" font-family="'KaiTi'" font-size="10px">(</text>
<text transform="matrix(1 0 0 1 55.75 50.5938)" font-family="'KaiTi'" font-size="10px">1</text>
<text transform="matrix(1 0 0 1 60.75 50.5938)" font-family="'KaiTi'" font-size="10px">)</text>
<text transform="matrix(1 0 0 1 65.75 50.5938)" font-family="'KaiTi'" font-size="10px">國</text>
<text transform="matrix(1 0 0 1 75.75 50.5938)" font-family="'KaiTi'" font-size="10px">土</text>
<text transform="matrix(1 0 0 1 85.75 50.5938)" font-family="'KaiTi'" font-size="10px">涅</text>
<text transform="matrix(1 0 0 1 95.75 50.5938)" font-family="'KaiTi'" font-size="10px">槃</text>
<text transform="matrix(1 0 0 1 50.75 64.5938)" font-family="'KaiTi'" font-size="10px">(</text>
<text transform="matrix(1 0 0 1 55.75 64.5938)" font-family="'KaiTi'" font-size="10px">2</text>
<text transform="matrix(1 0 0 1 60.75 64.5938)" font-family="'KaiTi'" font-size="10px">)</text>
<text transform="matrix(1 0 0 1 65.75 64.5938)" font-family="'KaiTi'" font-size="10px">眾</text>
<text transform="matrix(1 0 0 1 75.75 64.5938)" font-family="'KaiTi'" font-size="10px">生</text>
<text transform="matrix(1 0 0 1 85.75 64.5938)" font-family="'KaiTi'" font-size="10px">涅</text>
<text transform="matrix(1 0 0 1 95.75 64.5938)" font-family="'KaiTi'" font-size="10px">槃</text>
<text transform="matrix(1 0 0 1 105.75 64.5938)" font-family="'KaiTi'" font-size="10px"> </text>
<text transform="matrix(1 0 0 1 115.75 64.5938)" font-family="'KaiTi'" font-size="10px">依</text>
<text transform="matrix(1 0 0 1 125.75 64.5938)" font-family="'KaiTi'" font-size="10px">正</text>
<text transform="matrix(1 0 0 1 135.75 64.5938)" font-family="'KaiTi'" font-size="10px">主</text>
<text transform="matrix(1 0 0 1 145.75 64.5938)" font-family="'KaiTi'" font-size="10px">伴</text>
<text transform="matrix(1 0 0 1 155.75 64.5938)" font-family="'DFKaiShu-SB-Estd-BF'" font-size="10px">，</text>
<text transform="matrix(1 0 0 1 165.75 64.5938)" font-family="'KaiTi'" font-size="10px">同</text>
<text transform="matrix(1 0 0 1 175.75 64.5938)" font-family="'KaiTi'" font-size="10px">一</text>
<text transform="matrix(1 0 0 1 185.75 64.5938)" font-family="'KaiTi'" font-size="10px">涅</text>
<text transform="matrix(1 0 0 1 195.75 64.5938)" font-family="'KaiTi'" font-size="10px">槃</text>
<text transform="matrix(1 0 0 1 205.75 64.5938)" font-family="'DFKaiShu-SB-Estd-BF'" font-size="10px">，</text>
<text transform="matrix(1 0 0 1 215.75 64.5938)" font-family="'KaiTi'" font-size="10px">妙</text>
<text transform="matrix(1 0 0 1 225.75 64.5938)" font-family="'KaiTi'" font-size="10px">境</text>
<text transform="matrix(1 0 0 1 235.75 64.5938)" font-family="'KaiTi'" font-size="10px">界</text>
<text transform="matrix(1 0 0 1 245.75 64.5938)" font-family="'KaiTi'" font-size="10px">相</text>
<text transform="matrix(1 0 0 1 50.75 78.5938)" font-family="'KaiTi'" font-size="10px">(</text>
<text transform="matrix(1 0 0 1 55.75 78.5938)" font-family="'KaiTi'" font-size="10px">3</text>
<text transform="matrix(1 0 0 1 60.75 78.5938)" font-family="'KaiTi'" font-size="10px">)</text>
<text transform="matrix(1 0 0 1 65.75 78.5938)" font-family="'KaiTi'" font-size="10px">主</text>
<text transform="matrix(1 0 0 1 75.75 78.5938)" font-family="'KaiTi'" font-size="10px">佛</text>
<text transform="matrix(1 0 0 1 85.75 78.5938)" font-family="'KaiTi'" font-size="10px">涅</text>
<text transform="matrix(1 0 0 1 95.75 78.5938)" font-family="'KaiTi'" font-size="10px">槃</text>
<g>
	<line fill="none" stroke="#000000" stroke-width="0.5" stroke-miterlimit="10" x1="45.6" y1="47.7" x2="45.6" y2="75.7"/>
	<line fill="none" stroke="#000000" stroke-width="0.5" stroke-miterlimit="10" x1="45.6" y1="47.7" x2="48.3" y2="47.7"/>
	<line fill="none" stroke="#000000" stroke-width="0.5" stroke-miterlimit="10" x1="45.6" y1="75.7" x2="48.3" y2="75.7"/>
	<line fill="none" stroke="#000000" stroke-width="0.5" stroke-miterlimit="10" x1="45.6" y1="61.7" x2="42.8" y2="61.7"/>
</g>
<line fill="none" stroke="#000000" stroke-width="0.5" stroke-miterlimit="10" x1="72.6" y1="5" x2="78.1" y2="5"/>
<line fill="none" stroke="#000000" stroke-width="0.5" stroke-miterlimit="10" x1="122.6" y1="5" x2="128.1" y2="5"/>
<line fill="none" stroke="#000000" stroke-width="0.5" stroke-miterlimit="10" x1="42.8" y1="5" x2="48.3" y2="5"/>
<g>
	<line fill="none" stroke="#000000" stroke-width="0.5" stroke-miterlimit="10" x1="45.5" y1="18.7" x2="45.5" y2="34.4"/>
	<line fill="none" stroke="#000000" stroke-width="0.5" stroke-miterlimit="10" x1="45.5" y1="18.7" x2="48.2" y2="18.7"/>
	<line fill="none" stroke="#000000" stroke-width="0.5" stroke-miterlimit="10" x1="45.5" y1="34.4" x2="48.2" y2="34.4"/>
	<line fill="none" stroke="#000000" stroke-width="0.5" stroke-miterlimit="10" x1="45.5" y1="26.5" x2="42.7" y2="26.5"/>
</g>
<text transform="matrix(1 0 0 1 0 8.5938)" font-family="'KaiTi'" font-size="10px">一</text>
<text transform="matrix(1 0 0 1 10 8.5938)" font-family="'DFKaiShu-SB-Estd-BF'" font-size="10px">、</text>
<text transform="matrix(1 0 0 1 20 8.5938)" font-family="'KaiTi'" font-size="10px">目標</text>
<text transform="matrix(1 0 0 1 0 29.5938)" font-family="'KaiTi'" font-size="10px">二</text>
<text transform="matrix(1 0 0 1 10 29.5938)" font-family="'DFKaiShu-SB-Estd-BF'" font-size="10px">、</text>
<text transform="matrix(1 0 0 1 20 29.5938)" font-family="'KaiTi'" font-size="10px">方法</text>
<text transform="matrix(1 0 0 1 0 64.5938)" font-family="'KaiTi'" font-size="10px">三</text>
<text transform="matrix(1 0 0 1 10 64.5938)" font-family="'DFKaiShu-SB-Estd-BF'" font-size="10px">、</text>
<text transform="matrix(1 0 0 1 20 64.5938)" font-family="'KaiTi'" font-size="10px">涅槃</text>
<g>
	<line fill="none" stroke="#000000" stroke-width="0.5" stroke-miterlimit="10" x1="111.1" y1="75.7" x2="111.1" y2="47.7"/>
	<line fill="none" stroke="#000000" stroke-width="0.5" stroke-miterlimit="10" x1="111.1" y1="75.7" x2="108.4" y2="75.7"/>
	<line fill="none" stroke="#000000" stroke-width="0.5" stroke-miterlimit="10" x1="111.1" y1="47.7" x2="108.4" y2="47.7"/>
	<line fill="none" stroke="#000000" stroke-width="0.5" stroke-miterlimit="10" x1="111.1" y1="61.7" x2="113.9" y2="61.7"/>
</g>
</svg>
