<?xml version="1.0" encoding="utf-8"?>
<!-- Generator: Adobe Illustrator 21.0.0, SVG Export Plug-In . SVG Version: 6.00 Build 0)  -->
<svg version="1.1" id="圖層_1" xmlns="http://www.w3.org/2000/svg" xmlns:xlink="http://www.w3.org/1999/xlink" x="0px" y="0px"
	 viewBox="0 0 241.7 108.4" style="enable-background:new 0 0 241.7 108.4;" xml:space="preserve">
<style type="text/css">
	.st0{font-family:'KaiTi';}
	.st1{font-size:10px;}
	.st2{letter-spacing:5;}
	.st3{fill:none;stroke:#000000;stroke-width:0.5;stroke-miterlimit:10;}
</style>
<text transform="matrix(1 0 0 1 99.9258 8.5938)" class="st0 st1">選</text>
<text transform="matrix(1 0 0 1 109.9258 8.5938)" class="st0 st1">擇</text>
<text transform="matrix(1 0 0 1 119.9258 8.5938)" class="st0 st1">讚</text>
<text transform="matrix(1 0 0 1 129.9258 8.5938)" class="st0 st1">歎</text>
<text transform="matrix(1 0 0 1 139.9258 8.5938)" class="st0 st1"> </text>
<text transform="matrix(1 0 0 1 144.9258 8.5938)" class="st0 st1">《</text>
<text transform="matrix(1 0 0 1 154.9258 8.5938)" class="st0 st1">大</text>
<text transform="matrix(1 0 0 1 164.9258 8.5938)" class="st0 st1 st2"> </text>
<text transform="matrix(1 0 0 1 174.9258 8.5938)" class="st0 st1">經</text>
<text transform="matrix(1 0 0 1 184.9258 8.5938)" class="st0 st1">》</text>
<text transform="matrix(1 0 0 1 99.9258 22.5938)" class="st0 st1">選</text>
<text transform="matrix(1 0 0 1 109.9258 22.5938)" class="st0 st1">擇</text>
<text transform="matrix(1 0 0 1 119.9258 22.5938)" class="st0 st1">留</text>
<text transform="matrix(1 0 0 1 129.9258 22.5938)" class="st0 st1">教</text>
<text transform="matrix(1 0 0 1 139.9258 22.5938)" class="st0 st1"> </text>
<text transform="matrix(1 0 0 1 144.9258 22.5938)" class="st0 st1">《</text>
<text transform="matrix(1 0 0 1 154.9258 22.5938)" class="st0 st1">大</text>
<text transform="matrix(1 0 0 1 164.9258 22.5938)" class="st0 st1 st2"> </text>
<text transform="matrix(1 0 0 1 174.9258 22.5938)" class="st0 st1">經</text>
<text transform="matrix(1 0 0 1 184.9258 22.5938)" class="st0 st1">》</text>
<text transform="matrix(1 0 0 1 99.9258 36.5938)" class="st0 st1">選</text>
<text transform="matrix(1 0 0 1 109.9258 36.5938)" class="st0 st1">擇</text>
<text transform="matrix(1 0 0 1 119.9258 36.5938)" class="st0 st1">付</text>
<text transform="matrix(1 0 0 1 129.9258 36.5938)" class="st0 st1">囑</text>
<text transform="matrix(1 0 0 1 139.9258 36.5938)" class="st0 st1"> </text>
<text transform="matrix(1 0 0 1 144.9258 36.5938)" class="st0 st1">《</text>
<text transform="matrix(1 0 0 1 154.9258 36.5938)" class="st0 st1">觀</text>
<text transform="matrix(1 0 0 1 164.9258 36.5938)" class="st0 st1 st2"> </text>
<text transform="matrix(1 0 0 1 174.9258 36.5938)" class="st0 st1">經</text>
<text transform="matrix(1 0 0 1 184.9258 36.5938)" class="st0 st1">》</text>
<text transform="matrix(1 0 0 1 99.9258 50.5938)" class="st0 st1">選</text>
<text transform="matrix(1 0 0 1 109.9258 50.5938)" class="st0 st1">擇</text>
<text transform="matrix(1 0 0 1 119.9258 50.5938)" class="st0 st1">本</text>
<text transform="matrix(1 0 0 1 129.9258 50.5938)" class="st0 st1">願</text>
<text transform="matrix(1 0 0 1 139.9258 50.5938)" class="st0 st1"> </text>
<text transform="matrix(1 0 0 1 144.9258 50.5938)" class="st0 st1">《</text>
<text transform="matrix(1 0 0 1 154.9258 50.5938)" class="st0 st1">大</text>
<text transform="matrix(1 0 0 1 164.9258 50.5938)" class="st0 st1 st2"> </text>
<text transform="matrix(1 0 0 1 174.9258 50.5938)" class="st0 st1">經</text>
<text transform="matrix(1 0 0 1 184.9258 50.5938)" class="st0 st1">》</text>
<text transform="matrix(1 0 0 1 99.9258 64.5938)" class="st0 st1">選</text>
<text transform="matrix(1 0 0 1 109.9258 64.5938)" class="st0 st1">擇</text>
<text transform="matrix(1 0 0 1 119.9258 64.5938)" class="st0 st1">攝</text>
<text transform="matrix(1 0 0 1 129.9258 64.5938)" class="st0 st1">取</text>
<text transform="matrix(1 0 0 1 139.9258 64.5938)" class="st0 st1"> </text>
<text transform="matrix(1 0 0 1 144.9258 64.5938)" class="st0 st1">《</text>
<text transform="matrix(1 0 0 1 154.9258 64.5938)" class="st0 st1">觀</text>
<text transform="matrix(1 0 0 1 164.9258 64.5938)" class="st0 st1 st2"> </text>
<text transform="matrix(1 0 0 1 174.9258 64.5938)" class="st0 st1">經</text>
<text transform="matrix(1 0 0 1 184.9258 64.5938)" class="st0 st1">》</text>
<text transform="matrix(1 0 0 1 99.9258 78.5938)" class="st0 st1">選</text>
<text transform="matrix(1 0 0 1 109.9258 78.5938)" class="st0 st1">擇</text>
<text transform="matrix(1 0 0 1 119.9258 78.5938)" class="st0 st1">我</text>
<text transform="matrix(1 0 0 1 129.9258 78.5938)" class="st0 st1">名</text>
<text transform="matrix(1 0 0 1 139.9258 78.5938)" class="st0 st1"> </text>
<text transform="matrix(1 0 0 1 144.9258 78.5938)" class="st0 st1">《</text>
<text transform="matrix(1 0 0 1 154.9258 78.5938)" class="st0 st1">般</text>
<text transform="matrix(1 0 0 1 164.9258 78.5938)" class="st0 st1">舟</text>
<text transform="matrix(1 0 0 1 174.9258 78.5938)" class="st0 st1">經</text>
<text transform="matrix(1 0 0 1 184.9258 78.5938)" class="st0 st1">》</text>
<text transform="matrix(1 0 0 1 99.9258 92.5938)" class="st0 st1">選</text>
<text transform="matrix(1 0 0 1 109.9258 92.5938)" class="st0 st1">擇</text>
<text transform="matrix(1 0 0 1 119.9258 92.5938)" class="st0 st1">化</text>
<text transform="matrix(1 0 0 1 129.9258 92.5938)" class="st0 st1">讚</text>
<text transform="matrix(1 0 0 1 139.9258 92.5938)" class="st0 st1"> </text>
<text transform="matrix(1 0 0 1 144.9258 92.5938)" class="st0 st1">《</text>
<text transform="matrix(1 0 0 1 154.9258 92.5938)" class="st0 st1">觀</text>
<text transform="matrix(1 0 0 1 164.9258 92.5938)" class="st0 st1 st2"> </text>
<text transform="matrix(1 0 0 1 174.9258 92.5938)" class="st0 st1">經</text>
<text transform="matrix(1 0 0 1 184.9258 92.5938)" class="st0 st1">》</text>
<text transform="matrix(1 0 0 1 99.9258 106.5938)" class="st0 st1">選</text>
<text transform="matrix(1 0 0 1 109.9258 106.5938)" class="st0 st1">擇</text>
<text transform="matrix(1 0 0 1 119.9258 106.5938)" class="st0 st1">證</text>
<text transform="matrix(1 0 0 1 129.9258 106.5938)" class="st0 st1">誠</text>
<text transform="matrix(1 0 0 1 139.9258 106.5938)" class="st0 st1"> </text>
<text transform="matrix(1 0 0 1 144.9258 106.5938)" class="st0 st1">《</text>
<text transform="matrix(1 0 0 1 154.9258 106.5938)" class="st0 st1">彌</text>
<text transform="matrix(1 0 0 1 164.9258 106.5938)" class="st0 st1">陀</text>
<text transform="matrix(1 0 0 1 174.9258 106.5938)" class="st0 st1">經</text>
<text transform="matrix(1 0 0 1 184.9258 106.5938)" class="st0 st1">》</text>
<g>
	<line class="st3" x1="92.5" y1="17.6" x2="95.4" y2="17.6"/>
	<line class="st3" x1="95.2" y1="4" x2="98.1" y2="4"/>
	<line class="st3" x1="95.3" y1="31.5" x2="98.1" y2="31.5"/>
	<line class="st3" x1="95.4" y1="3.7" x2="95.4" y2="31.7"/>
</g>
<text transform="matrix(1 0 0 1 40.4258 22.5)" class="st0 st1">釋迦三選擇</text>
<text transform="matrix(1 0 0 1 40.4258 71.5)" class="st0 st1">彌陀四選擇</text>
<text transform="matrix(1 0 0 1 40.4258 106.5)" class="st0 st1">諸佛一選擇</text>
<g>
	<line class="st3" x1="92.6" y1="67.9" x2="95.5" y2="67.9"/>
	<line class="st3" x1="95.3" y1="46.7" x2="98.2" y2="46.7"/>
	<line class="st3" x1="95.3" y1="74.6" x2="98.1" y2="74.6"/>
	<line class="st3" x1="95.5" y1="46.4" x2="95.5" y2="88.2"/>
</g>
<line class="st3" x1="95.2" y1="88.2" x2="98" y2="88.2"/>
<line class="st3" x1="95.5" y1="60.7" x2="98.4" y2="60.7"/>
<line class="st3" x1="92.6" y1="102.9" x2="98.1" y2="102.9"/>
<line class="st3" x1="32.8" y1="67.3" x2="35.7" y2="67.3"/>
<line class="st3" x1="35.5" y1="17.7" x2="38.3" y2="17.7"/>
<line class="st3" x1="35.6" y1="103.7" x2="38.3" y2="103.7"/>
<line class="st3" x1="35.7" y1="18" x2="35.7" y2="103.7"/>
<text transform="matrix(1 0 0 1 -2.136230e-04 71.4061)" class="st0 st1">八選擇</text>
<line class="st3" x1="196.3" y1="54.4" x2="199.2" y2="54.4"/>
<line class="st3" x1="193.5" y1="4" x2="196.3" y2="4"/>
<line class="st3" x1="196.3" y1="102.9" x2="193.7" y2="102.9"/>
<line class="st3" x1="196.1" y1="3.7" x2="196.1" y2="102.9"/>
<text transform="matrix(1 0 0 1 201.6665 57.5727)" class="st0 st1">選擇念佛</text>
<line class="st3" x1="141.1" y1="102.9" x2="146.5" y2="102.9"/>
<line class="st3" x1="141.1" y1="88.2" x2="146.5" y2="88.2"/>
<line class="st3" x1="141.1" y1="74.6" x2="146.5" y2="74.6"/>
<line class="st3" x1="141.1" y1="60.7" x2="146.5" y2="60.7"/>
<line class="st3" x1="141.1" y1="46.4" x2="146.5" y2="46.4"/>
<line class="st3" x1="141.1" y1="31.5" x2="146.5" y2="31.5"/>
<line class="st3" x1="141.1" y1="17.6" x2="146.5" y2="17.6"/>
<line class="st3" x1="141.1" y1="3.7" x2="146.5" y2="3.7"/>
</svg>
