<?xml version="1.0" encoding="utf-8"?>
<!-- Generator: Adobe Illustrator 21.0.0, SVG Export Plug-In . SVG Version: 6.00 Build 0)  -->
<svg version="1.1" baseProfile="tiny" id="图层_1"
	 xmlns="http://www.w3.org/2000/svg" xmlns:xlink="http://www.w3.org/1999/xlink" x="0px" y="0px" viewBox="0 0 241.7 108.4"
	 overflow="scroll" xml:space="preserve">
<text transform="matrix(1 0 0 1 99.9258 8.5938)" font-family="KaiTi" font-size="10px">选</text>
<text transform="matrix(1 0 0 1 109.9258 8.5938)" font-family="KaiTi" font-size="10px">择</text>
<text transform="matrix(1 0 0 1 119.9258 8.5938)" font-family="KaiTi" font-size="10px">赞</text>
<text transform="matrix(1 0 0 1 129.9258 8.5938)" font-family="KaiTi" font-size="10px">叹</text>
<text transform="matrix(1 0 0 1 139.9258 8.5938)" font-family="KaiTi" font-size="10px"> </text>
<text transform="matrix(1 0 0 1 144.9258 8.5938)" font-family="KaiTi" font-size="10px">《</text>
<text transform="matrix(1 0 0 1 154.9258 8.5938)" font-family="KaiTi" font-size="10px">大</text>
<text transform="matrix(1 0 0 1 164.9258 8.5938)" font-family="KaiTi" font-size="10px"> </text>
<text transform="matrix(1 0 0 1 174.9258 8.5938)" font-family="KaiTi" font-size="10px">经</text>
<text transform="matrix(1 0 0 1 184.9258 8.5938)" font-family="KaiTi" font-size="10px">》</text>
<text transform="matrix(1 0 0 1 99.9258 22.5938)" font-family="KaiTi" font-size="10px">选</text>
<text transform="matrix(1 0 0 1 109.9258 22.5938)" font-family="KaiTi" font-size="10px">择</text>
<text transform="matrix(1 0 0 1 119.9258 22.5938)" font-family="KaiTi" font-size="10px">留</text>
<text transform="matrix(1 0 0 1 129.9258 22.5938)" font-family="KaiTi" font-size="10px">教</text>
<text transform="matrix(1 0 0 1 139.9258 22.5938)" font-family="KaiTi" font-size="10px"> </text>
<text transform="matrix(1 0 0 1 144.9258 22.5938)" font-family="KaiTi" font-size="10px">《</text>
<text transform="matrix(1 0 0 1 154.9258 22.5938)" font-family="KaiTi" font-size="10px">大</text>
<text transform="matrix(1 0 0 1 164.9258 22.5938)" font-family="KaiTi" font-size="10px"> </text>
<text transform="matrix(1 0 0 1 174.9258 22.5938)" font-family="KaiTi" font-size="10px">经</text>
<text transform="matrix(1 0 0 1 184.9258 22.5938)" font-family="KaiTi" font-size="10px">》</text>
<text transform="matrix(1 0 0 1 99.9258 36.5938)" font-family="KaiTi" font-size="10px">选</text>
<text transform="matrix(1 0 0 1 109.9258 36.5938)" font-family="KaiTi" font-size="10px">择</text>
<text transform="matrix(1 0 0 1 119.9258 36.5938)" font-family="KaiTi" font-size="10px">付</text>
<text transform="matrix(1 0 0 1 129.9258 36.5938)" font-family="KaiTi" font-size="10px">嘱</text>
<text transform="matrix(1 0 0 1 139.9258 36.5938)" font-family="KaiTi" font-size="10px"> </text>
<text transform="matrix(1 0 0 1 144.9258 36.5938)" font-family="KaiTi" font-size="10px">《</text>
<text transform="matrix(1 0 0 1 154.9258 36.5938)" font-family="KaiTi" font-size="10px">观</text>
<text transform="matrix(1 0 0 1 164.9258 36.5938)" font-family="KaiTi" font-size="10px"> </text>
<text transform="matrix(1 0 0 1 174.9258 36.5938)" font-family="KaiTi" font-size="10px">经</text>
<text transform="matrix(1 0 0 1 184.9258 36.5938)" font-family="KaiTi" font-size="10px">》</text>
<text transform="matrix(1 0 0 1 99.9258 50.5938)" font-family="KaiTi" font-size="10px">选</text>
<text transform="matrix(1 0 0 1 109.9258 50.5938)" font-family="KaiTi" font-size="10px">择</text>
<text transform="matrix(1 0 0 1 119.9258 50.5938)" font-family="KaiTi" font-size="10px">本</text>
<text transform="matrix(1 0 0 1 129.9258 50.5938)" font-family="KaiTi" font-size="10px">愿</text>
<text transform="matrix(1 0 0 1 139.9258 50.5938)" font-family="KaiTi" font-size="10px"> </text>
<text transform="matrix(1 0 0 1 144.9258 50.5938)" font-family="KaiTi" font-size="10px">《</text>
<text transform="matrix(1 0 0 1 154.9258 50.5938)" font-family="KaiTi" font-size="10px">大</text>
<text transform="matrix(1 0 0 1 164.9258 50.5938)" font-family="KaiTi" font-size="10px"> </text>
<text transform="matrix(1 0 0 1 174.9258 50.5938)" font-family="KaiTi" font-size="10px">经</text>
<text transform="matrix(1 0 0 1 184.9258 50.5938)" font-family="KaiTi" font-size="10px">》</text>
<text transform="matrix(1 0 0 1 99.9258 64.5938)" font-family="KaiTi" font-size="10px">选</text>
<text transform="matrix(1 0 0 1 109.9258 64.5938)" font-family="KaiTi" font-size="10px">择</text>
<text transform="matrix(1 0 0 1 119.9258 64.5938)" font-family="KaiTi" font-size="10px">摄</text>
<text transform="matrix(1 0 0 1 129.9258 64.5938)" font-family="KaiTi" font-size="10px">取</text>
<text transform="matrix(1 0 0 1 139.9258 64.5938)" font-family="KaiTi" font-size="10px"> </text>
<text transform="matrix(1 0 0 1 144.9258 64.5938)" font-family="KaiTi" font-size="10px">《</text>
<text transform="matrix(1 0 0 1 154.9258 64.5938)" font-family="KaiTi" font-size="10px">观</text>
<text transform="matrix(1 0 0 1 164.9258 64.5938)" font-family="KaiTi" font-size="10px"> </text>
<text transform="matrix(1 0 0 1 174.9258 64.5938)" font-family="KaiTi" font-size="10px">经</text>
<text transform="matrix(1 0 0 1 184.9258 64.5938)" font-family="KaiTi" font-size="10px">》</text>
<text transform="matrix(1 0 0 1 99.9258 78.5938)" font-family="KaiTi" font-size="10px">选</text>
<text transform="matrix(1 0 0 1 109.9258 78.5938)" font-family="KaiTi" font-size="10px">择</text>
<text transform="matrix(1 0 0 1 119.9258 78.5938)" font-family="KaiTi" font-size="10px">我</text>
<text transform="matrix(1 0 0 1 129.9258 78.5938)" font-family="KaiTi" font-size="10px">名</text>
<text transform="matrix(1 0 0 1 139.9258 78.5938)" font-family="KaiTi" font-size="10px"> </text>
<text transform="matrix(1 0 0 1 144.9258 78.5938)" font-family="KaiTi" font-size="10px">《</text>
<text transform="matrix(1 0 0 1 154.9258 78.5938)" font-family="KaiTi" font-size="10px">般</text>
<text transform="matrix(1 0 0 1 164.9258 78.5938)" font-family="KaiTi" font-size="10px">舟</text>
<text transform="matrix(1 0 0 1 174.9258 78.5938)" font-family="KaiTi" font-size="10px">经</text>
<text transform="matrix(1 0 0 1 184.9258 78.5938)" font-family="KaiTi" font-size="10px">》</text>
<text transform="matrix(1 0 0 1 99.9258 92.5938)" font-family="KaiTi" font-size="10px">选</text>
<text transform="matrix(1 0 0 1 109.9258 92.5938)" font-family="KaiTi" font-size="10px">择</text>
<text transform="matrix(1 0 0 1 119.9258 92.5938)" font-family="KaiTi" font-size="10px">化</text>
<text transform="matrix(1 0 0 1 129.9258 92.5938)" font-family="KaiTi" font-size="10px">赞</text>
<text transform="matrix(1 0 0 1 139.9258 92.5938)" font-family="KaiTi" font-size="10px"> </text>
<text transform="matrix(1 0 0 1 144.9258 92.5938)" font-family="KaiTi" font-size="10px">《</text>
<text transform="matrix(1 0 0 1 154.9258 92.5938)" font-family="KaiTi" font-size="10px">观</text>
<text transform="matrix(1 0 0 1 164.9258 92.5938)" font-family="KaiTi" font-size="10px"> </text>
<text transform="matrix(1 0 0 1 174.9258 92.5938)" font-family="KaiTi" font-size="10px">经</text>
<text transform="matrix(1 0 0 1 184.9258 92.5938)" font-family="KaiTi" font-size="10px">》</text>
<text transform="matrix(1 0 0 1 99.9258 106.5938)" font-family="KaiTi" font-size="10px">选</text>
<text transform="matrix(1 0 0 1 109.9258 106.5938)" font-family="KaiTi" font-size="10px">择</text>
<text transform="matrix(1 0 0 1 119.9258 106.5938)" font-family="KaiTi" font-size="10px">证</text>
<text transform="matrix(1 0 0 1 129.9258 106.5938)" font-family="KaiTi" font-size="10px">诚</text>
<text transform="matrix(1 0 0 1 139.9258 106.5938)" font-family="KaiTi" font-size="10px"> </text>
<text transform="matrix(1 0 0 1 144.9258 106.5938)" font-family="KaiTi" font-size="10px">《</text>
<text transform="matrix(1 0 0 1 154.9258 106.5938)" font-family="KaiTi" font-size="10px">弥</text>
<text transform="matrix(1 0 0 1 164.9258 106.5938)" font-family="KaiTi" font-size="10px">陀</text>
<text transform="matrix(1 0 0 1 174.9258 106.5938)" font-family="KaiTi" font-size="10px">经</text>
<text transform="matrix(1 0 0 1 184.9258 106.5938)" font-family="KaiTi" font-size="10px">》</text>
<g>
	<line fill="none" stroke="#000000" stroke-width="0.5" stroke-miterlimit="10" x1="92.5" y1="17.6" x2="95.4" y2="17.6"/>
	<line fill="none" stroke="#000000" stroke-width="0.5" stroke-miterlimit="10" x1="95.2" y1="4" x2="98.1" y2="4"/>
	<line fill="none" stroke="#000000" stroke-width="0.5" stroke-miterlimit="10" x1="95.3" y1="31.5" x2="98.1" y2="31.5"/>
	<line fill="none" stroke="#000000" stroke-width="0.5" stroke-miterlimit="10" x1="95.4" y1="3.7" x2="95.4" y2="31.7"/>
</g>
<text transform="matrix(1 0 0 1 40.4258 22.5)" font-family="KaiTi" font-size="10px">释迦三选择</text>
<text transform="matrix(1 0 0 1 40.4258 71.5)" font-family="KaiTi" font-size="10px">弥陀四选择</text>
<text transform="matrix(1 0 0 1 40.4258 106.5)" font-family="KaiTi" font-size="10px">诸佛一选择</text>
<g>
	<line fill="none" stroke="#000000" stroke-width="0.5" stroke-miterlimit="10" x1="92.6" y1="67.9" x2="95.5" y2="67.9"/>
	<line fill="none" stroke="#000000" stroke-width="0.5" stroke-miterlimit="10" x1="95.3" y1="46.7" x2="98.2" y2="46.7"/>
	<line fill="none" stroke="#000000" stroke-width="0.5" stroke-miterlimit="10" x1="95.3" y1="74.6" x2="98.1" y2="74.6"/>
	<line fill="none" stroke="#000000" stroke-width="0.5" stroke-miterlimit="10" x1="95.5" y1="46.4" x2="95.5" y2="88.2"/>
</g>
<line fill="none" stroke="#000000" stroke-width="0.5" stroke-miterlimit="10" x1="95.2" y1="88.2" x2="98" y2="88.2"/>
<line fill="none" stroke="#000000" stroke-width="0.5" stroke-miterlimit="10" x1="95.5" y1="60.7" x2="98.4" y2="60.7"/>
<line fill="none" stroke="#000000" stroke-width="0.5" stroke-miterlimit="10" x1="92.6" y1="102.9" x2="98.1" y2="102.9"/>
<line fill="none" stroke="#000000" stroke-width="0.5" stroke-miterlimit="10" x1="32.8" y1="67.3" x2="35.7" y2="67.3"/>
<line fill="none" stroke="#000000" stroke-width="0.5" stroke-miterlimit="10" x1="35.5" y1="17.7" x2="38.3" y2="17.7"/>
<line fill="none" stroke="#000000" stroke-width="0.5" stroke-miterlimit="10" x1="35.6" y1="103.7" x2="38.3" y2="103.7"/>
<line fill="none" stroke="#000000" stroke-width="0.5" stroke-miterlimit="10" x1="35.7" y1="18" x2="35.7" y2="103.7"/>
<text transform="matrix(1 0 0 1 -2.136230e-04 71.4061)" font-family="KaiTi" font-size="10px">八选择</text>
<line fill="none" stroke="#000000" stroke-width="0.5" stroke-miterlimit="10" x1="196.3" y1="54.4" x2="199.2" y2="54.4"/>
<line fill="none" stroke="#000000" stroke-width="0.5" stroke-miterlimit="10" x1="193.5" y1="4" x2="196.3" y2="4"/>
<line fill="none" stroke="#000000" stroke-width="0.5" stroke-miterlimit="10" x1="196.3" y1="102.9" x2="193.7" y2="102.9"/>
<line fill="none" stroke="#000000" stroke-width="0.5" stroke-miterlimit="10" x1="196.1" y1="3.7" x2="196.1" y2="102.9"/>
<text transform="matrix(1 0 0 1 201.6665 57.5727)" font-family="KaiTi" font-size="10px">选择念佛</text>
<line fill="none" stroke="#000000" stroke-width="0.5" stroke-miterlimit="10" x1="141.1" y1="102.9" x2="146.5" y2="102.9"/>
<line fill="none" stroke="#000000" stroke-width="0.5" stroke-miterlimit="10" x1="141.1" y1="88.2" x2="146.5" y2="88.2"/>
<line fill="none" stroke="#000000" stroke-width="0.5" stroke-miterlimit="10" x1="141.1" y1="74.6" x2="146.5" y2="74.6"/>
<line fill="none" stroke="#000000" stroke-width="0.5" stroke-miterlimit="10" x1="141.1" y1="60.7" x2="146.5" y2="60.7"/>
<line fill="none" stroke="#000000" stroke-width="0.5" stroke-miterlimit="10" x1="141.1" y1="46.4" x2="146.5" y2="46.4"/>
<line fill="none" stroke="#000000" stroke-width="0.5" stroke-miterlimit="10" x1="141.1" y1="31.5" x2="146.5" y2="31.5"/>
<line fill="none" stroke="#000000" stroke-width="0.5" stroke-miterlimit="10" x1="141.1" y1="17.6" x2="146.5" y2="17.6"/>
<line fill="none" stroke="#000000" stroke-width="0.5" stroke-miterlimit="10" x1="141.1" y1="3.7" x2="146.5" y2="3.7"/>
</svg>
