<?xml version="1.0" encoding="utf-8"?>
<!-- Generator: Adobe Illustrator 21.0.0, SVG Export Plug-In . SVG Version: 6.00 Build 0)  -->
<svg version="1.1" id="圖層_1" xmlns="http://www.w3.org/2000/svg" xmlns:xlink="http://www.w3.org/1999/xlink" x="0px" y="0px"
	 viewBox="0 0 264 245.4" style="enable-background:new 0 0 264 245.4;" xml:space="preserve">
<style type="text/css">
	.st0{font-family:'KaiTi';}
	.st1{font-size:10px;}
	.st2{fill:none;stroke:#000000;stroke-width:0.5;stroke-miterlimit:10;}
	.st3{letter-spacing:5;}
</style>
<text transform="matrix(1 0 0 1 30.3335 83.8438)"><tspan x="0" y="0" class="st0 st1">約菩薩藏</tspan><tspan x="0" y="103.3" class="st0 st1">約 頓 教</tspan></text>
<g>
	<line class="st2" x1="24.7" y1="80" x2="24.7" y2="183.8"/>
	<line class="st2" x1="24.4" y1="80" x2="27.3" y2="80"/>
	<line class="st2" x1="24.4" y1="183.8" x2="27.3" y2="183.8"/>
	<line class="st2" x1="21.8" y1="131.9" x2="24.7" y2="131.9"/>
</g>
<text transform="matrix(1 0 0 1 202.5015 8.5938)"><tspan x="0" y="0" class="st0 st1">通擇機</tspan><tspan x="0" y="14" class="st0 st1">通自力</tspan><tspan x="0" y="28" class="st0 st1">通難行</tspan><tspan x="0" y="42" class="st0 st1">通因地</tspan><tspan x="0" y="56" class="st0 st1">通相對</tspan><tspan x="0" y="98" class="st0 st1">直</tspan><tspan x="10" y="98" class="st0 st1 st3"> </tspan><tspan x="20" y="98" class="st0 st1">述</tspan><tspan x="0" y="147" class="st0 st1">引</tspan><tspan x="10" y="147" class="st0 st1 st3"> </tspan><tspan x="20" y="147" class="st0 st1">釋</tspan></text>
<text transform="matrix(1 0 0 1 80.7514 36.5938)"><tspan x="0" y="0" class="st0 st1">明諸宗通意</tspan><tspan x="0" y="94.5" class="st0 st1">明淨土別意</tspan><tspan x="0" y="129.5" class="st0 st1">釋頓漸義</tspan><tspan x="0" y="171.5" class="st0 st1">判淨土頓</tspan></text>
<g>
	<line class="st2" x1="197.3" y1="4.6" x2="197.3" y2="60.8"/>
	<line class="st2" x1="197.1" y1="4.6" x2="200" y2="4.6"/>
	<line class="st2" x1="197.1" y1="60.8" x2="200" y2="60.8"/>
	<line class="st2" x1="194.4" y1="32.7" x2="197.3" y2="32.7"/>
</g>
<line class="st2" x1="133.7" y1="32.7" x2="139.2" y2="32.7"/>
<text transform="matrix(1 0 0 1 142.1985 36.5938)"><tspan x="0" y="0" class="st0 st1">依行者根機</tspan><tspan x="0" y="94.5" class="st0 st1">依法門利益</tspan></text>
<g>
	<line class="st2" x1="197.3" y1="102.8" x2="197.3" y2="151.8"/>
	<line class="st2" x1="197" y1="102.8" x2="199.9" y2="102.8"/>
	<line class="st2" x1="197" y1="151.8" x2="199.9" y2="151.8"/>
	<line class="st2" x1="194.3" y1="127.3" x2="197.2" y2="127.3"/>
</g>
<text transform="matrix(1 0 0 1 244.0015 85.5938)"><tspan x="0" y="0" class="st0 st1">機</tspan><tspan x="0" y="14" class="st0 st1">行</tspan><tspan x="0" y="28" class="st0 st1">益</tspan><tspan x="0" y="42" class="st0 st1">結論</tspan><tspan x="0" y="56" class="st0 st1">天親</tspan><tspan x="0" y="70" class="st0 st1">曇鸞</tspan><tspan x="0" y="84" class="st0 st1">善導</tspan></text>
<g>
	<line class="st2" x1="238.1" y1="82.1" x2="238.1" y2="124.8"/>
	<line class="st2" x1="237.9" y1="82.1" x2="240.8" y2="82.1"/>
	<line class="st2" x1="237.9" y1="124.8" x2="240.8" y2="124.8"/>
	<line class="st2" x1="235.1" y1="102.9" x2="238" y2="102.9"/>
</g>
<g>
	<line class="st2" x1="238.3" y1="137.5" x2="238.3" y2="166"/>
	<line class="st2" x1="238.1" y1="137.5" x2="241" y2="137.5"/>
	<line class="st2" x1="238.1" y1="166" x2="241" y2="166"/>
	<line class="st2" x1="235.3" y1="151.8" x2="238.2" y2="151.8"/>
</g>
<line class="st2" x1="133.7" y1="127.3" x2="139.2" y2="127.3"/>
<g>
	<line class="st2" x1="76.1" y1="32.7" x2="76.1" y2="127.3"/>
	<line class="st2" x1="75.9" y1="32.7" x2="78.8" y2="32.7"/>
	<line class="st2" x1="76.1" y1="127.3" x2="79" y2="127.3"/>
	<line class="st2" x1="73" y1="80" x2="75.9" y2="80"/>
</g>
<g>
	<line class="st2" x1="76" y1="162.6" x2="76" y2="205.1"/>
	<line class="st2" x1="75.8" y1="162.6" x2="78.7" y2="162.6"/>
	<line class="st2" x1="76.1" y1="205.1" x2="79" y2="205.1"/>
	<line class="st2" x1="72.9" y1="183.8" x2="75.8" y2="183.8"/>
</g>
<g>
	<line class="st2" x1="126" y1="176.8" x2="126" y2="233.4"/>
	<line class="st2" x1="125.7" y1="176.8" x2="128.6" y2="176.8"/>
	<line class="st2" x1="125.7" y1="233.4" x2="128.6" y2="233.4"/>
	<line class="st2" x1="123" y1="205.1" x2="125.9" y2="205.1"/>
</g>
<text transform="matrix(1 0 0 1 131.6224 180.5833)"><tspan x="0" y="0" class="st0 st1">直判</tspan><tspan x="0" y="28" class="st0 st1">對判</tspan><tspan x="0" y="56" class="st0 st1">引釋</tspan></text>
<text transform="matrix(1 0 0 1 161.8724 201.5836)"><tspan x="0" y="0" class="st0 st1">諸宗</tspan><tspan x="0" y="14" class="st0 st1">淨土</tspan><tspan x="0" y="28" class="st0 st1">般舟讚一</tspan><tspan x="0" y="42" class="st0 st1">般舟讚二</tspan></text>
<g>
	<line class="st2" x1="156.7" y1="198.1" x2="156.7" y2="212.4"/>
	<line class="st2" x1="156.4" y1="198.1" x2="159.3" y2="198.1"/>
	<line class="st2" x1="156.4" y1="212.4" x2="159.3" y2="212.4"/>
	<line class="st2" x1="153.7" y1="205.2" x2="156.6" y2="205.2"/>
</g>
<line class="st2" x1="183.8" y1="198.1" x2="189.3" y2="198.1"/>
<line class="st2" x1="183.8" y1="212.4" x2="189.3" y2="212.4"/>
<text transform="matrix(1 0 0 1 192.6848 201.583)"><tspan x="0" y="0" class="st0 st1">望機成漸</tspan><tspan x="0" y="14" class="st0 st1">頓中之頓</tspan></text>
<g>
	<line class="st2" x1="156.6" y1="226.2" x2="156.6" y2="240.5"/>
	<line class="st2" x1="156.4" y1="226.2" x2="159.3" y2="226.2"/>
	<line class="st2" x1="156.4" y1="240.5" x2="159.3" y2="240.5"/>
	<line class="st2" x1="153.6" y1="233.4" x2="156.5" y2="233.4"/>
</g>
<text transform="matrix(1 0 0 1 1.621246e-04 136.3333)" class="st0 st1">別明</text>
</svg>
