<?xml version="1.0" encoding="utf-8"?>
<!-- Generator: Adobe Illustrator 21.0.0, SVG Export Plug-In . SVG Version: 6.00 Build 0)  -->
<svg version="1.1" baseProfile="tiny" id="图层_1"
	 xmlns="http://www.w3.org/2000/svg" xmlns:xlink="http://www.w3.org/1999/xlink" x="0px" y="0px" viewBox="0 0 141.8 38.4"
	 overflow="scroll" xml:space="preserve">
<text transform="matrix(1 0 0 1 51.833 8.5938)" font-family="'KaiTi'" font-size="10px">众</text>
<text transform="matrix(1 0 0 1 61.833 8.5938)" font-family="'KaiTi'" font-size="10px">生</text>
<text transform="matrix(1 0 0 1 71.833 8.5938)" font-family="'KaiTi'" font-size="10px">口</text>
<text transform="matrix(1 0 0 1 81.833 8.5938)" font-family="'KaiTi'" font-size="10px">称</text>
<text transform="matrix(1 0 0 1 91.833 8.5938)" font-family="'KaiTi'" font-size="10px"> </text>
<text transform="matrix(1 0 0 1 101.833 8.5938)" font-family="'KaiTi'" font-size="10px">佛</text>
<text transform="matrix(1 0 0 1 111.833 8.5938)" font-family="'KaiTi'" font-size="10px">即</text>
<text transform="matrix(1 0 0 1 121.833 8.5938)" font-family="'KaiTi'" font-size="10px">闻</text>
<text transform="matrix(1 0 0 1 131.833 8.5938)" font-family="'KaiTi'" font-size="10px">之</text>
<text transform="matrix(1 0 0 1 51.833 22.5938)" font-family="'KaiTi'" font-size="10px">众</text>
<text transform="matrix(1 0 0 1 61.833 22.5938)" font-family="'KaiTi'" font-size="10px">生</text>
<text transform="matrix(1 0 0 1 71.833 22.5938)" font-family="'KaiTi'" font-size="10px">身</text>
<text transform="matrix(1 0 0 1 81.833 22.5938)" font-family="'KaiTi'" font-size="10px">礼</text>
<text transform="matrix(1 0 0 1 91.833 22.5938)" font-family="'KaiTi'" font-size="10px"> </text>
<text transform="matrix(1 0 0 1 101.833 22.5938)" font-family="'KaiTi'" font-size="10px">佛</text>
<text transform="matrix(1 0 0 1 111.833 22.5938)" font-family="'KaiTi'" font-size="10px">即</text>
<text transform="matrix(1 0 0 1 121.833 22.5938)" font-family="'KaiTi'" font-size="10px">见</text>
<text transform="matrix(1 0 0 1 131.833 22.5938)" font-family="'KaiTi'" font-size="10px">之</text>
<text transform="matrix(1 0 0 1 51.833 36.5938)" font-family="'KaiTi'" font-size="10px">众</text>
<text transform="matrix(1 0 0 1 61.833 36.5938)" font-family="'KaiTi'" font-size="10px">生</text>
<text transform="matrix(1 0 0 1 71.833 36.5938)" font-family="'KaiTi'" font-size="10px">心</text>
<text transform="matrix(1 0 0 1 81.833 36.5938)" font-family="'KaiTi'" font-size="10px">念</text>
<text transform="matrix(1 0 0 1 91.833 36.5938)" font-family="'KaiTi'" font-size="10px"> </text>
<text transform="matrix(1 0 0 1 101.833 36.5938)" font-family="'KaiTi'" font-size="10px">佛</text>
<text transform="matrix(1 0 0 1 111.833 36.5938)" font-family="'KaiTi'" font-size="10px">即</text>
<text transform="matrix(1 0 0 1 121.833 36.5938)" font-family="'KaiTi'" font-size="10px">念</text>
<text transform="matrix(1 0 0 1 131.833 36.5938)" font-family="'KaiTi'" font-size="10px">之</text>
<text transform="matrix(1 0 0 1 -1.678467e-04 15.5938)" font-family="'KaiTi'" font-size="10px">彼此三业</text>
<text transform="matrix(1 0 0 1 -1.678467e-04 29.5938)" font-family="'KaiTi'" font-size="10px">机法一体</text>
<g>
	<line fill="none" stroke="#000000" stroke-width="0.5" stroke-miterlimit="10" x1="46.1" y1="4.9" x2="46.1" y2="32.9"/>
	<line fill="none" stroke="#000000" stroke-width="0.5" stroke-miterlimit="10" x1="46.1" y1="4.9" x2="48.8" y2="4.9"/>
	<line fill="none" stroke="#000000" stroke-width="0.5" stroke-miterlimit="10" x1="46.1" y1="32.9" x2="48.8" y2="32.9"/>
	<line fill="none" stroke="#000000" stroke-width="0.5" stroke-miterlimit="10" x1="46.1" y1="19.1" x2="43.3" y2="19.1"/>
</g>
<line fill="none" stroke="#000000" stroke-width="0.5" stroke-miterlimit="10" x1="94" y1="4.9" x2="99.5" y2="4.9"/>
<line fill="none" stroke="#000000" stroke-width="0.5" stroke-miterlimit="10" x1="94" y1="19.1" x2="99.5" y2="19.1"/>
<line fill="none" stroke="#000000" stroke-width="0.5" stroke-miterlimit="10" x1="94" y1="32.9" x2="99.5" y2="32.9"/>
</svg>
