<?xml version="1.0" encoding="utf-8"?>
<!-- Generator: Adobe Illustrator 21.0.0, SVG Export Plug-In . SVG Version: 6.00 Build 0)  -->
<svg version="1.1" baseProfile="tiny" id="图层_1"
	 xmlns="http://www.w3.org/2000/svg" xmlns:xlink="http://www.w3.org/1999/xlink" x="0px" y="0px" viewBox="0 0 156.7 24.4"
	 overflow="scroll" xml:space="preserve">
<text transform="matrix(1 0 0 1 32.8333 8.5938)" font-family="'KaiTi'" font-size="10px">自</text>
<text transform="matrix(1 0 0 1 42.8333 8.5938)" font-family="'KaiTi'" font-size="10px">受</text>
<text transform="matrix(1 0 0 1 52.8333 8.5938)" font-family="'KaiTi'" font-size="10px">用</text>
<text transform="matrix(1 0 0 1 62.8333 8.5938)" font-family="'KaiTi'" font-size="10px">身</text>
<text transform="matrix(1 0 0 1 72.8333 8.5938)" font-family="'KaiTi'" font-size="10px"> </text>
<text transform="matrix(1 0 0 1 82.8333 8.5938)" font-family="'KaiTi'" font-size="10px">自</text>
<text transform="matrix(1 0 0 1 92.8333 8.5938)" font-family="'KaiTi'" font-size="10px">受</text>
<text transform="matrix(1 0 0 1 102.8333 8.5938)" font-family="'KaiTi'" font-size="10px">用</text>
<text transform="matrix(1 0 0 1 112.8333 8.5938)" font-family="'KaiTi'" font-size="10px">土</text>
<text transform="matrix(1 0 0 1 32.8333 22.5938)" font-family="'KaiTi'" font-size="10px">他</text>
<text transform="matrix(1 0 0 1 42.8333 22.5938)" font-family="'KaiTi'" font-size="10px">受</text>
<text transform="matrix(1 0 0 1 52.8333 22.5938)" font-family="'KaiTi'" font-size="10px">用</text>
<text transform="matrix(1 0 0 1 62.8333 22.5938)" font-family="'KaiTi'" font-size="10px">身</text>
<text transform="matrix(1 0 0 1 72.8333 22.5938)" font-family="'KaiTi'" font-size="10px"> </text>
<text transform="matrix(1 0 0 1 82.8333 22.5938)" font-family="'KaiTi'" font-size="10px">他</text>
<text transform="matrix(1 0 0 1 92.8333 22.5938)" font-family="'KaiTi'" font-size="10px">受</text>
<text transform="matrix(1 0 0 1 102.8333 22.5938)" font-family="'KaiTi'" font-size="10px">用</text>
<text transform="matrix(1 0 0 1 112.8333 22.5938)" font-family="'KaiTi'" font-size="10px">土</text>
<text transform="matrix(1 0 0 1 7.629395e-06 15.5938)" font-family="'KaiTi'" font-size="10px">报身</text>
<g>
	<line fill="none" stroke="#000000" stroke-width="0.5" stroke-miterlimit="10" x1="26.3" y1="4.4" x2="26.3" y2="19.7"/>
	<line fill="none" stroke="#000000" stroke-width="0.5" stroke-miterlimit="10" x1="26.3" y1="4.4" x2="30.1" y2="4.4"/>
	<line fill="none" stroke="#000000" stroke-width="0.5" stroke-miterlimit="10" x1="26.3" y1="19.7" x2="30.1" y2="19.7"/>
	<line fill="none" stroke="#000000" stroke-width="0.5" stroke-miterlimit="10" x1="26.3" y1="12.3" x2="22.6" y2="12.3"/>
</g>
<line fill="none" stroke="#000000" stroke-width="0.5" stroke-miterlimit="10" x1="80.9" y1="4.6" x2="74" y2="4.6"/>
<line fill="none" stroke="#000000" stroke-width="0.5" stroke-miterlimit="10" x1="80.9" y1="19.7" x2="74" y2="19.7"/>
<g>
	<line fill="none" stroke="#000000" stroke-width="0.5" stroke-miterlimit="10" x1="130" y1="19.9" x2="130" y2="4.6"/>
	<line fill="none" stroke="#000000" stroke-width="0.5" stroke-miterlimit="10" x1="130" y1="19.9" x2="126.2" y2="19.9"/>
	<line fill="none" stroke="#000000" stroke-width="0.5" stroke-miterlimit="10" x1="130" y1="4.6" x2="126.2" y2="4.6"/>
	<line fill="none" stroke="#000000" stroke-width="0.5" stroke-miterlimit="10" x1="130" y1="12.1" x2="133.7" y2="12.1"/>
</g>
<text transform="matrix(1 0 0 1 136.7 15.5938)" font-family="'KaiTi'" font-size="10px">报土</text>
</svg>
