<?xml version="1.0" encoding="utf-8"?>
<!-- Generator: Adobe Illustrator 19.1.0, SVG Export Plug-In . SVG Version: 6.00 Build 0)  -->
<svg version="1.1" baseProfile="tiny" id="图层_1"
	 xmlns="http://www.w3.org/2000/svg" xmlns:xlink="http://www.w3.org/1999/xlink" x="0px" y="0px" viewBox="0 0 169.5 27"
	 xml:space="preserve">
<text transform="matrix(1 0 0 1 0 17.3125)" font-family="'FZKTK--GBK1-0'" font-size="12px">报身</text>
<text transform="matrix(1 0 0 1 32.113 10.3125)" font-family="'FZKTK--GBK1-0'" font-size="12px">自受用身</text>
<text transform="matrix(1 0 0 1 32.113 24.3125)" font-family="'FZKTK--GBK1-0'" font-size="12px">他受用身</text>
<text transform="matrix(1 0 0 1 88.68 10.3125)" font-family="'FZKTK--GBK1-0'" font-size="12px">自受用土</text>
<text transform="matrix(1 0 0 1 88.68 24.3125)" font-family="'FZKTK--GBK1-0'" font-size="12px">他受用土</text>
<text transform="matrix(1 0 0 1 145.4766 17.3125)" font-family="'FZKTK--GBK1-0'" font-size="12px">报土</text>
<g>
	<line fill="none" stroke="#040000" stroke-width="0.5" stroke-miterlimit="10" x1="27.9" y1="13.6" x2="25" y2="13.6"/>
	<line fill="none" stroke="#040000" stroke-width="0.5" stroke-miterlimit="10" x1="30.7" y1="20.6" x2="27.8" y2="20.6"/>
	<line fill="none" stroke="#040000" stroke-width="0.5" stroke-miterlimit="10" x1="30.7" y1="6.4" x2="27.8" y2="6.4"/>
	<line fill="none" stroke="#040000" stroke-width="0.5" stroke-miterlimit="10" x1="27.8" y1="20.8" x2="27.8" y2="6.1"/>
</g>
<g>
	<line fill="none" stroke="#040000" stroke-width="0.5" stroke-miterlimit="10" x1="140.6" y1="13.5" x2="143.5" y2="13.5"/>
	<line fill="none" stroke="#040000" stroke-width="0.5" stroke-miterlimit="10" x1="137.8" y1="6.5" x2="140.7" y2="6.5"/>
	<line fill="none" stroke="#040000" stroke-width="0.5" stroke-miterlimit="10" x1="137.8" y1="20.7" x2="140.7" y2="20.7"/>
	<line fill="none" stroke="#040000" stroke-width="0.5" stroke-miterlimit="10" x1="140.7" y1="6.3" x2="140.7" y2="21"/>
</g>
<line fill="none" stroke="#040000" stroke-width="0.5" stroke-miterlimit="10" x1="80.8" y1="6.2" x2="86.6" y2="6.2"/>
<line fill="none" stroke="#040000" stroke-width="0.5" stroke-miterlimit="10" x1="80.8" y1="20.4" x2="86.6" y2="20.4"/>
</svg>
