<?xml version="1.0" encoding="utf-8"?>
<!-- Generator: Adobe Illustrator 21.0.0, SVG Export Plug-In . SVG Version: 6.00 Build 0)  -->
<svg version="1.1" id="图层_1" xmlns="http://www.w3.org/2000/svg" xmlns:xlink="http://www.w3.org/1999/xlink" x="0px" y="0px"
	 viewBox="0 0 229 94.4" style="enable-background:new 0 0 229 94.4;" xml:space="preserve">
<style type="text/css">
	.st0{font-family:'KaiTi';}
	.st1{font-size:10px;}
	.st2{letter-spacing:5;}
	.st3{fill:none;stroke:#000000;stroke-width:0.5;stroke-miterlimit:10;}
</style>
<text transform="matrix(1 0 0 1 72.625 8.5938)"><tspan x="0" y="0" class="st0 st1">概要 </tspan><tspan x="25" y="0" class="st0 st1 st2">      </tspan><tspan x="85" y="0" class="st0 st1">依准目的</tspan><tspan x="0" y="14" class="st0 st1">概括 </tspan><tspan x="25" y="14" class="st0 st1 st2">      </tspan><tspan x="85" y="14" class="st0 st1">全貌整体</tspan><tspan x="0" y="28" class="st0 st1">概略 </tspan><tspan x="25" y="28" class="st0 st1 st2">      </tspan><tspan x="85" y="28" class="st0 st1">不暇细释</tspan><tspan x="0" y="42" class="st0 st1">论述 第一章</tspan><tspan x="55" y="42" class="st0 st1 st2">   </tspan><tspan x="85" y="42" class="st0 st1">总</tspan><tspan x="95" y="42" class="st0 st1 st2">  </tspan><tspan x="115" y="42" class="st0 st1">论</tspan><tspan x="0" y="56" class="st0 st1">论证 二至九章</tspan><tspan x="65" y="56" class="st0 st1 st2">  </tspan><tspan x="85" y="56" class="st0 st1">分</tspan><tspan x="95" y="56" class="st0 st1 st2">  </tspan><tspan x="115" y="56" class="st0 st1">论</tspan><tspan x="0" y="70" class="st0 st1">论定 第十章</tspan><tspan x="55" y="70" class="st0 st1 st2">   </tspan><tspan x="85" y="70" class="st0 st1">结</tspan><tspan x="95" y="70" class="st0 st1 st2">  </tspan><tspan x="115" y="70" class="st0 st1">论</tspan><tspan x="0" y="84" class="st0 st1">综合</tspan></text>
<line class="st3" x1="95.2" y1="5" x2="154.9" y2="5"/>
<line class="st3" x1="95.2" y1="19" x2="154.9" y2="19"/>
<line class="st3" x1="95.2" y1="33.1" x2="154.9" y2="33.1"/>
<text transform="matrix(1 0 0 1 51.25 8.5938)"><tspan x="0" y="0" class="st0 st1">一</tspan><tspan x="0" y="21" class="st0 st1">二</tspan><tspan x="0" y="56" class="st0 st1">三</tspan><tspan x="0" y="84" class="st0 st1">四</tspan></text>
<g>
	<line class="st3" x1="67" y1="19" x2="67" y2="33.5"/>
	<line class="st3" x1="67" y1="19" x2="69.9" y2="19"/>
	<line class="st3" x1="66.7" y1="33.5" x2="69.6" y2="33.5"/>
	<line class="st3" x1="64" y1="26.2" x2="66.9" y2="26.2"/>
</g>
<g>
	<line class="st3" x1="66.9" y1="47.2" x2="66.9" y2="75.2"/>
	<line class="st3" x1="66.9" y1="47.2" x2="69.8" y2="47.2"/>
	<line class="st3" x1="66.7" y1="75.2" x2="69.6" y2="75.2"/>
	<line class="st3" x1="64" y1="61.2" x2="66.9" y2="61.2"/>
</g>
<line class="st3" x1="65.9" y1="4.9" x2="71.5" y2="4.9"/>
<line class="st3" x1="63.9" y1="89" x2="69.5" y2="89"/>
<g>
	<line class="st3" x1="45.5" y1="4.9" x2="45.5" y2="89"/>
	<line class="st3" x1="45.5" y1="4.9" x2="48.4" y2="4.9"/>
	<line class="st3" x1="45.3" y1="89" x2="48.2" y2="89"/>
	<line class="st3" x1="42.4" y1="46.9" x2="45.3" y2="46.9"/>
</g>
<text transform="matrix(1 0 0 1 0 50.5938)" class="st0 st1">本书简介</text>
<g>
	<line class="st3" x1="203.1" y1="33" x2="203.1" y2="5"/>
	<line class="st3" x1="203.1" y1="33" x2="200.2" y2="33"/>
	<line class="st3" x1="203.3" y1="5" x2="200.4" y2="5"/>
	<line class="st3" x1="206" y1="19" x2="203.1" y2="19"/>
</g>
<g>
	<line class="st3" x1="203.3" y1="74.9" x2="203.3" y2="46.9"/>
	<line class="st3" x1="203.3" y1="74.9" x2="200.4" y2="74.9"/>
	<line class="st3" x1="203.5" y1="46.9" x2="200.6" y2="46.9"/>
	<line class="st3" x1="206.2" y1="60.9" x2="203.3" y2="60.9"/>
</g>
<text transform="matrix(1 0 0 1 209.021 22.5938)"><tspan x="0" y="0" class="st0 st1">概</tspan><tspan x="0" y="42" class="st0 st1">论</tspan><tspan x="0" y="70" class="st0 st1">概论</tspan></text>
<line class="st3" x1="95.2" y1="88.3" x2="206" y2="88.3"/>
</svg>
