<?xml version="1.0" encoding="utf-8"?>
<!-- Generator: Adobe Illustrator 21.0.0, SVG Export Plug-In . SVG Version: 6.00 Build 0)  -->
<svg version="1.1" baseProfile="tiny" id="图层_1"
	 xmlns="http://www.w3.org/2000/svg" xmlns:xlink="http://www.w3.org/1999/xlink" x="0px" y="0px" viewBox="0 0 141.7 38.4"
	 overflow="scroll" xml:space="preserve">
<text transform="matrix(1 0 0 1 0 8.5938)" font-family="'KaiTi'" font-size="10px">本</text>
<text transform="matrix(1 0 0 1 10 8.5938)" font-family="'KaiTi'" font-size="10px">尊</text>
<text transform="matrix(1 0 0 1 20 8.5938)" font-family="'KaiTi'" font-size="10px"> </text>
<text transform="matrix(1 0 0 1 30 8.5938)" font-family="'KaiTi'" font-size="10px">南</text>
<text transform="matrix(1 0 0 1 40 8.5938)" font-family="'KaiTi'" font-size="10px">无</text>
<text transform="matrix(1 0 0 1 50 8.5938)" font-family="'KaiTi'" font-size="10px">阿</text>
<text transform="matrix(1 0 0 1 60 8.5938)" font-family="'KaiTi'" font-size="10px">弥</text>
<text transform="matrix(1 0 0 1 70 8.5938)" font-family="'KaiTi'" font-size="10px">陀</text>
<text transform="matrix(1 0 0 1 80 8.5938)" font-family="'KaiTi'" font-size="10px">佛</text>
<text transform="matrix(1 0 0 1 0 22.5938)" font-family="'KaiTi'" font-size="10px">目</text>
<text transform="matrix(1 0 0 1 10 22.5938)" font-family="'KaiTi'" font-size="10px">的</text>
<text transform="matrix(1 0 0 1 20 22.5938)" font-family="'KaiTi'" font-size="10px"> </text>
<text transform="matrix(1 0 0 1 30 22.5938)" font-family="'KaiTi'" font-size="10px">愿</text>
<text transform="matrix(1 0 0 1 40 22.5938)" font-family="'KaiTi'" font-size="10px">生</text>
<text transform="matrix(1 0 0 1 50 22.5938)" font-family="'KaiTi'" font-size="10px">极</text>
<text transform="matrix(1 0 0 1 60 22.5938)" font-family="'KaiTi'" font-size="10px">乐</text>
<text transform="matrix(1 0 0 1 70 22.5938)" font-family="'KaiTi'" font-size="10px">世</text>
<text transform="matrix(1 0 0 1 80 22.5938)" font-family="'KaiTi'" font-size="10px">界</text>
<text transform="matrix(1 0 0 1 0 36.5938)" font-family="'KaiTi'" font-size="10px">方</text>
<text transform="matrix(1 0 0 1 10 36.5938)" font-family="'KaiTi'" font-size="10px">法</text>
<text transform="matrix(1 0 0 1 20 36.5938)" font-family="'KaiTi'" font-size="10px"> </text>
<text transform="matrix(1 0 0 1 30 36.5938)" font-family="'KaiTi'" font-size="10px">专</text>
<text transform="matrix(1 0 0 1 40 36.5938)" font-family="'KaiTi'" font-size="10px">称</text>
<text transform="matrix(1 0 0 1 50 36.5938)" font-family="'KaiTi'" font-size="10px">弥</text>
<text transform="matrix(1 0 0 1 60 36.5938)" font-family="'KaiTi'" font-size="10px">陀</text>
<text transform="matrix(1 0 0 1 70 36.5938)" font-family="'KaiTi'" font-size="10px">佛</text>
<text transform="matrix(1 0 0 1 80 36.5938)" font-family="'KaiTi'" font-size="10px">名</text>
<g>
	<line fill="none" stroke="#000000" stroke-width="0.5" stroke-miterlimit="10" x1="98.7" y1="18.6" x2="95.9" y2="18.6"/>
	<line fill="none" stroke="#000000" stroke-width="0.5" stroke-miterlimit="10" x1="95.9" y1="32.4" x2="93" y2="32.4"/>
	<line fill="none" stroke="#000000" stroke-width="0.5" stroke-miterlimit="10" x1="95.9" y1="4.9" x2="93" y2="4.9"/>
	<line fill="none" stroke="#000000" stroke-width="0.5" stroke-miterlimit="10" x1="95.9" y1="32.6" x2="95.9" y2="4.6"/>
</g>
<line fill="none" stroke="#000000" stroke-width="0.5" stroke-miterlimit="10" x1="21.8" y1="4.6" x2="27.3" y2="4.6"/>
<line fill="none" stroke="#000000" stroke-width="0.5" stroke-miterlimit="10" x1="21.8" y1="18.6" x2="27.3" y2="18.6"/>
<line fill="none" stroke="#000000" stroke-width="0.5" stroke-miterlimit="10" x1="21.8" y1="32.4" x2="27.3" y2="32.4"/>
<text transform="matrix(1 0 0 1 101.6667 22.5938)" font-family="'KaiTi'" font-size="10px">信而行之</text>
</svg>
