<?xml version="1.0" encoding="utf-8"?>
<!-- Generator: Adobe Illustrator 21.0.0, SVG Export Plug-In . SVG Version: 6.00 Build 0)  -->
<svg version="1.1" id="圖層_1" xmlns="http://www.w3.org/2000/svg" xmlns:xlink="http://www.w3.org/1999/xlink" x="0px" y="0px"
	 viewBox="0 0 223 24.4" style="enable-background:new 0 0 223 24.4;" xml:space="preserve">
<style type="text/css">
	.st0{font-family:'KaiTi';}
	.st1{font-size:10px;}
	.st2{font-family:'DFKaiShu-SB-Estd-BF';}
	.st3{fill:none;stroke:#000000;stroke-width:0.5;stroke-miterlimit:10;}
</style>
<text transform="matrix(1 0 0 1 0 15.5938)" class="st0 st1">本願稱名</text>
<text transform="matrix(1 0 0 1 51 8.5938)"><tspan x="0" y="0" class="st0 st1">眾生心行業</tspan><tspan x="0" y="14" class="st0 st1">如來本願力</tspan></text>
<text transform="matrix(1 0 0 1 112 8.5938)"><tspan x="0" y="0" class="st0 st1">因</tspan><tspan x="0" y="14" class="st0 st1">緣</tspan></text>
<text transform="matrix(1 0 0 1 133 15.5938)"><tspan x="0" y="0" class="st0 st1">現世福樂</tspan><tspan x="40" y="0" class="st2 st1">，</tspan><tspan x="50" y="0" class="st0 st1">往生成佛</tspan></text>
<g>
	<line class="st3" x1="45.6" y1="5.3" x2="45.6" y2="19.9"/>
	<line class="st3" x1="45.6" y1="5.3" x2="48.3" y2="5.3"/>
	<line class="st3" x1="45.6" y1="19.9" x2="48.3" y2="19.9"/>
	<line class="st3" x1="45.6" y1="12.6" x2="42.9" y2="12.6"/>
</g>
<line class="st3" x1="103.7" y1="5.3" x2="109.2" y2="5.3"/>
<line class="st3" x1="103.7" y1="19.9" x2="109.2" y2="19.9"/>
<g>
	<line class="st3" x1="127.1" y1="19.9" x2="127.1" y2="5.3"/>
	<line class="st3" x1="127.1" y1="19.9" x2="124.4" y2="19.9"/>
	<line class="st3" x1="127.1" y1="5.3" x2="124.4" y2="5.3"/>
	<line class="st3" x1="127.1" y1="12.6" x2="129.9" y2="12.6"/>
</g>
</svg>
