<?xml version="1.0" encoding="utf-8"?>
<!-- Generator: Adobe Illustrator 21.0.0, SVG Export Plug-In . SVG Version: 6.00 Build 0)  -->
<svg version="1.1" id="图层_1" xmlns="http://www.w3.org/2000/svg" xmlns:xlink="http://www.w3.org/1999/xlink" x="0px" y="0px"
	 viewBox="0 0 223 38.8" style="enable-background:new 0 0 223 38.8;" xml:space="preserve">
<style type="text/css">
	.st0{font-family:'KaiTi';}
	.st1{font-size:10px;}
	.st2{letter-spacing:5;}
	.st3{fill:none;stroke:#000000;stroke-width:0.5;stroke-miterlimit:10;}
</style>
<text transform="matrix(1 0 0 1 57 8.5938)"><tspan x="0" y="0" class="st0 st1">机</tspan><tspan x="10" y="0" class="st0 st1 st2"> </tspan><tspan x="20" y="0" class="st0 st1">凡夫</tspan><tspan x="0" y="14" class="st0 st1">行</tspan><tspan x="10" y="14" class="st0 st1 st2"> </tspan><tspan x="20" y="14" class="st0 st1">称名</tspan><tspan x="0" y="28" class="st0 st1">益</tspan><tspan x="10" y="28" class="st0 st1 st2"> </tspan><tspan x="20" y="28" class="st0 st1">入报</tspan></text>
<text transform="matrix(1 0 0 1 108 9)"><tspan x="0" y="0" class="st0 st1">圣者上根</tspan><tspan x="0" y="14" class="st0 st1">定散万行</tspan><tspan x="0" y="28" class="st0 st1">凡圣同居</tspan></text>
<text transform="matrix(1 0 0 1 0 9)"><tspan x="0" y="0" class="st0 st1">本</tspan><tspan x="10" y="0" class="st0 st1 st2">  </tspan><tspan x="30" y="0" class="st0 st1"> 愿</tspan><tspan x="0" y="14" class="st0 st1">(弥陀修德</tspan><tspan x="0" y="28" class="st0 st1">他力救度)</tspan></text>
<text transform="matrix(1 0 0 1 158 9)"><tspan x="0" y="0" class="st0 st1">心</tspan><tspan x="10" y="0" class="st0 st1 st2">  </tspan><tspan x="30" y="0" class="st0 st1"> 性</tspan><tspan x="0" y="14" class="st0 st1">(众生性德</tspan><tspan x="0" y="28" class="st0 st1">自力修行之教)</tspan></text>
<line class="st3" x1="99.9" y1="4.9" x2="105.6" y2="4.9"/>
<line class="st3" x1="99.9" y1="19.2" x2="105.6" y2="19.2"/>
<line class="st3" x1="99.9" y1="33.4" x2="105.6" y2="33.4"/>
<g>
	<line class="st3" x1="51.3" y1="5" x2="51.3" y2="33.4"/>
	<line class="st3" x1="51.1" y1="5" x2="54" y2="5"/>
	<line class="st3" x1="51.1" y1="33.4" x2="54" y2="33.4"/>
	<line class="st3" x1="48.4" y1="19.2" x2="51.3" y2="19.2"/>
</g>
<g>
	<line class="st3" x1="153.4" y1="33.4" x2="153.4" y2="5"/>
	<line class="st3" x1="153.6" y1="33.4" x2="150.7" y2="33.4"/>
	<line class="st3" x1="153.6" y1="5" x2="150.7" y2="5"/>
	<line class="st3" x1="156.3" y1="19.2" x2="153.4" y2="19.2"/>
</g>
</svg>
