<?xml version="1.0" encoding="utf-8"?>
<!-- Generator: Adobe Illustrator 21.0.0, SVG Export Plug-In . SVG Version: 6.00 Build 0)  -->
<svg version="1.1" baseProfile="tiny" id="圖層_1"
	 xmlns="http://www.w3.org/2000/svg" xmlns:xlink="http://www.w3.org/1999/xlink" x="0px" y="0px" viewBox="0 0 276.2 31.8"
	 overflow="scroll" xml:space="preserve">
<text transform="matrix(1 0 0 1 62.6003 8.7997)" font-family="'KaiTi'" font-size="10px">實</text>
<text transform="matrix(1 0 0 1 72.6003 8.7997)" font-family="'KaiTi'" font-size="10px">相</text>
<text transform="matrix(1 0 0 1 82.6003 8.7997)" font-family="'KaiTi'" font-size="10px">身</text>
<text transform="matrix(1 0 0 1 92.6003 8.7997)" font-family="'DFKaiShu-SB-Estd-BF'" font-size="10px"> </text>
<text transform="matrix(1 0 0 1 102.6003 8.7997)" font-family="'KaiTi'" font-size="10px">不</text>
<text transform="matrix(1 0 0 1 112.6003 8.7997)" font-family="'KaiTi'" font-size="10px">取</text>
<text transform="matrix(1 0 0 1 122.6003 8.7997)" font-family="'KaiTi'" font-size="10px">正</text>
<text transform="matrix(1 0 0 1 132.6003 8.7997)" font-family="'KaiTi'" font-size="10px">覺</text>
<text transform="matrix(1 0 0 1 142.6003 8.7997)" font-family="'KaiTi'" font-size="10px">之</text>
<text transform="matrix(1 0 0 1 152.6003 8.7997)" font-family="'DFKaiShu-SB-Estd-BF'" font-size="10px">「</text>
<text transform="matrix(1 0 0 1 162.6003 8.7997)" font-family="'KaiTi'" font-size="10px">正</text>
<text transform="matrix(1 0 0 1 172.6003 8.7997)" font-family="'KaiTi'" font-size="10px">覺</text>
<text transform="matrix(1 0 0 1 -7729.3999 -8583.2002)" font-family="'KaiTi'" font-size="10px">­</text>
<text transform="matrix(1 0 0 1 -7729.3999 -8583.2002)" font-family="'KaiTi'" font-size="10px">­</text>
<text transform="matrix(1 0 0 1 -7729.3999 -8583.2002)" font-family="'KaiTi'" font-size="10px">­</text>
<text transform="matrix(1 0 0 1 182.6003 8.7997)" font-family="'DFKaiShu-SB-Estd-BF'" font-size="10px">」</text>
<text transform="matrix(1 0 0 1 192.6003 8.7997)" font-family="'AdobeMingStd-Light-B5pc-H'" font-size="10px"> </text>
<text transform="matrix(1 0 0 1 202.6003 8.7997)" font-family="'KaiTi'" font-size="10px">自</text>
<text transform="matrix(1 0 0 1 212.6003 8.7997)" font-family="'KaiTi'" font-size="10px">利</text>
<text transform="matrix(1 0 0 1 62.6003 29.7997)" font-family="'KaiTi'" font-size="10px">為</text>
<text transform="matrix(1 0 0 1 72.6003 29.7997)" font-family="'KaiTi'" font-size="10px">物</text>
<text transform="matrix(1 0 0 1 82.6003 29.7997)" font-family="'KaiTi'" font-size="10px">身</text>
<text transform="matrix(1 0 0 1 92.6003 8.7997)" font-family="'KaiTi'" font-size="10px">­</text>
<text transform="matrix(1 0 0 1 -7729.3999 -8583.2002)" font-family="'KaiTi'" font-size="10px">­</text>
<text transform="matrix(1 0 0 1 92.6003 29.7997)" font-family="'DFKaiShu-SB-Estd-BF'" font-size="10px"> </text>
<text transform="matrix(1 0 0 1 102.6003 29.7997)" font-family="'KaiTi'" font-size="10px">若</text>
<text transform="matrix(1 0 0 1 112.6003 29.7997)" font-family="'KaiTi'" font-size="10px">不</text>
<text transform="matrix(1 0 0 1 122.6003 29.7997)" font-family="'KaiTi'" font-size="10px">生</text>
<text transform="matrix(1 0 0 1 132.6003 29.7997)" font-family="'KaiTi'" font-size="10px">者</text>
<text transform="matrix(1 0 0 1 142.6003 29.7997)" font-family="'KaiTi'" font-size="10px">之</text>
<text transform="matrix(1 0 0 1 152.6003 29.7997)" font-family="'DFKaiShu-SB-Estd-BF'" font-size="10px">「</text>
<text transform="matrix(1 0 0 1 162.6003 29.7997)" font-family="'KaiTi'" font-size="10px">往</text>
<text transform="matrix(1 0 0 1 172.6003 29.7997)" font-family="'KaiTi'" font-size="10px">生</text>
<text transform="matrix(1 0 0 1 182.6003 29.7997)" font-family="'DFKaiShu-SB-Estd-BF'" font-size="10px">」</text>
<text transform="matrix(1 0 0 1 192.6003 29.7997)" font-family="'DFKaiShu-SB-Estd-BF'" font-size="10px"> </text>
<text transform="matrix(1 0 0 1 202.6003 29.7997)" font-family="'KaiTi'" font-size="10px">利</text>
<text transform="matrix(1 0 0 1 212.6003 29.7997)" font-family="'KaiTi'" font-size="10px">他</text>
<text transform="matrix(1 0 0 1 0 19.4664)" font-family="'KaiTi'" font-size="10px">本願</text>
<text transform="matrix(1 0 0 1 20 19.4664)" font-family="'DFKaiShu-SB-Estd-BF'" font-size="10px">、</text>
<text transform="matrix(1 0 0 1 30 19.4664)" font-family="'KaiTi'" font-size="10px">名號</text>
<g>
	<line fill="none" stroke="#000000" stroke-width="0.5" stroke-miterlimit="10" x1="55.9" y1="5.6" x2="55.9" y2="27.1"/>
	<line fill="none" stroke="#000000" stroke-width="0.5" stroke-miterlimit="10" x1="55.9" y1="5.6" x2="59.7" y2="5.6"/>
	<line fill="none" stroke="#000000" stroke-width="0.5" stroke-miterlimit="10" x1="55.9" y1="27.1" x2="59.7" y2="27.1"/>
	<line fill="none" stroke="#000000" stroke-width="0.5" stroke-miterlimit="10" x1="55.9" y1="16.3" x2="52.2" y2="16.3"/>
</g>
<g>
	<line fill="none" stroke="#000000" stroke-width="0.5" stroke-miterlimit="10" x1="229.5" y1="27.1" x2="229.5" y2="5.6"/>
	<line fill="none" stroke="#000000" stroke-width="0.5" stroke-miterlimit="10" x1="229.5" y1="27.1" x2="225.7" y2="27.1"/>
	<line fill="none" stroke="#000000" stroke-width="0.5" stroke-miterlimit="10" x1="229.5" y1="5.6" x2="225.7" y2="5.6"/>
	<line fill="none" stroke="#000000" stroke-width="0.5" stroke-miterlimit="10" x1="229.5" y1="16.3" x2="233.2" y2="16.3"/>
</g>
<text transform="matrix(1 0 0 1 236.2 19.4661)" font-family="'KaiTi'" font-size="10px">一體不二</text>
<line fill="none" stroke="#000000" stroke-width="0.5" stroke-miterlimit="10" x1="94.4" y1="5.6" x2="99.9" y2="5.6"/>
<line fill="none" stroke="#000000" stroke-width="0.5" stroke-miterlimit="10" x1="193.6" y1="5.6" x2="199.1" y2="5.6"/>
<line fill="none" stroke="#000000" stroke-width="0.5" stroke-miterlimit="10" x1="94.4" y1="27.1" x2="99.9" y2="27.1"/>
<line fill="none" stroke="#000000" stroke-width="0.5" stroke-miterlimit="10" x1="193.6" y1="27.1" x2="199.1" y2="27.1"/>
</svg>
