<?xml version="1.0" encoding="utf-8"?>
<!-- Generator: Adobe Illustrator 21.0.0, SVG Export Plug-In . SVG Version: 6.00 Build 0)  -->
<svg version="1.1" id="图层_1" xmlns="http://www.w3.org/2000/svg" xmlns:xlink="http://www.w3.org/1999/xlink" x="0px" y="0px"
	 viewBox="0 0 113.8 94.6" style="enable-background:new 0 0 113.8 94.6;" xml:space="preserve">
<style type="text/css">
	.st0{font-family:'KaiTi';}
	.st1{font-size:10px;}
	.st2{fill:none;stroke:#040000;stroke-width:0.5;stroke-miterlimit:10;}
	.st3{font-family:'DFKaiShu-SB-Estd-BF';}
</style>
<text transform="matrix(1 0 0 1 73.7998 8.5938)"><tspan x="0" y="0" class="st0 st1">一部纲要</tspan><tspan x="0" y="14" class="st0 st1">三昧名义</tspan><tspan x="0" y="28" class="st0 st1">总赞缘起</tspan><tspan x="0" y="42" class="st0 st1">赞正宗分</tspan><tspan x="0" y="56" class="st0 st1">赞得益分</tspan><tspan x="0" y="70" class="st0 st1">赞流通分</tspan></text>
<g>
	<line class="st2" x1="64.9" y1="12" x2="67.8" y2="12"/>
	<line class="st2" x1="67.8" y1="4.7" x2="70.7" y2="4.7"/>
	<line class="st2" x1="67.8" y1="19.6" x2="70.7" y2="19.6"/>
	<line class="st2" x1="67.8" y1="4.5" x2="67.8" y2="19.6"/>
</g>
<g>
	<line class="st2" x1="64.9" y1="54" x2="67.8" y2="54"/>
	<line class="st2" x1="67.8" y1="32.5" x2="70.7" y2="32.5"/>
	<line class="st2" x1="67.8" y1="75.7" x2="70.7" y2="75.7"/>
	<line class="st2" x1="67.8" y1="32.3" x2="67.8" y2="75.7"/>
</g>
<text transform="matrix(1 0 0 1 22.4248 15.5938)"><tspan x="0" y="0" class="st0 st1">一</tspan><tspan x="10" y="0" class="st3 st1">、</tspan><tspan x="20" y="0" class="st0 st1">前序</tspan><tspan x="0" y="42" class="st0 st1">二</tspan><tspan x="10" y="42" class="st3 st1">、</tspan><tspan x="20" y="42" class="st0 st1">正赞</tspan><tspan x="0" y="77" class="st0 st1">三</tspan><tspan x="10" y="77" class="st3 st1">、</tspan><tspan x="20" y="77" class="st0 st1">後序</tspan></text>
<g>
	<line class="st2" x1="13.4" y1="50.3" x2="16.3" y2="50.3"/>
	<line class="st2" x1="16.6" y1="11.5" x2="19.5" y2="11.5"/>
	<line class="st2" x1="16.6" y1="89.3" x2="19.5" y2="89.3"/>
	<line class="st2" x1="16.6" y1="11.3" x2="16.6" y2="89.3"/>
</g>
<text transform="matrix(1 0 0 1 -1.449585e-04 40.0938)"><tspan x="0" y="0" class="st0 st1">般</tspan><tspan x="0" y="14" class="st0 st1">舟</tspan><tspan x="0" y="28" class="st0 st1">赞</tspan></text>
</svg>
