<?xml version="1.0" encoding="utf-8"?>
<!-- Generator: Adobe Illustrator 21.0.0, SVG Export Plug-In . SVG Version: 6.00 Build 0)  -->
<svg version="1.1" id="圖層_1" xmlns="http://www.w3.org/2000/svg" xmlns:xlink="http://www.w3.org/1999/xlink" x="0px" y="0px"
	 viewBox="0 0 375 158" style="enable-background:new 0 0 375 158;" xml:space="preserve">
<style type="text/css">
	.st0{fill:none;stroke:#000000;stroke-width:0.5;stroke-miterlimit:10;}
	.st1{font-family:'DFKaiShu-SB-Estd-BF';}
	.st2{font-size:14px;}
	.st3{fill:none;stroke:#000000;stroke-width:0.25;stroke-miterlimit:10;}
</style>
<path class="st0" d="M84,48.6"/>
<path class="st0" d="M84,77.1"/>
<line class="st0" x1="84" y1="132.2" x2="84" y2="76.8"/>
<text transform="matrix(1 0 0 1 100.4997 25.8624)" class="st1 st2">一、因位二</text>
<text transform="matrix(1 0 0 1 100.4997 25.8624)" class="st3 st1 st2">一、因位二</text>
<path class="st3" d="M190.8,92"/>
<path class="st3" d="M190.8,67.2"/>
<path class="st3" d="M197.7,80"/>
<path class="st3" d="M190.8,91.8"/>
<path class="st3" d="M184.4,85.8"/>
<path class="st3" d="M190.7,91.3"/>
<text transform="matrix(1 0 0 1 1.0474 81.5083)" class="st1 st2">阿彌陀佛三</text>
<text transform="matrix(1 0 0 1 1.0474 81.5083)" class="st3 st1 st2">阿彌陀佛三</text>
<line class="st0" x1="75.4" y1="76.9" x2="84" y2="76.9"/>
<text transform="matrix(1 0 0 1 100.4997 83.9619)" class="st1 st2">二、中間二</text>
<text transform="matrix(1 0 0 1 100.4997 83.9619)" class="st3 st1 st2">二、中間二</text>
<text transform="matrix(1 0 0 1 100.4996 136.5826)" class="st1 st2">三、果  上</text>
<text transform="matrix(1 0 0 1 100.4996 136.5826)" class="st3 st1 st2">三、果  上</text>
<line class="st0" x1="188.4" y1="91.2" x2="188.4" y2="62.7"/>
<line class="st0" x1="179.8" y1="77" x2="188.4" y2="77"/>
<line class="st0" x1="84" y1="77.1" x2="84" y2="21.7"/>
<line class="st0" x1="84" y1="21.8" x2="92.5" y2="21.8"/>
<line class="st0" x1="83.8" y1="132.2" x2="92.3" y2="132.2"/>
<path class="st0" d="M160.4,21.8"/>
<text transform="matrix(1 0 0 1 209.3838 136.5824)" class="st1 st2">阿  彌  陀  佛</text>
<text transform="matrix(1 0 0 1 209.3838 136.5824)" class="st3 st1 st2">阿  彌  陀  佛</text>
<line class="st0" x1="188.2" y1="62.7" x2="196.8" y2="62.7"/>
<line class="st0" x1="188.2" y1="90.9" x2="196.8" y2="90.9"/>
<text transform="matrix(1 0 0 1 204.8004 67.1559)" class="st1 st2">修行時節兆載永劫</text>
<text transform="matrix(1 0 0 1 204.8004 67.1559)" class="st3 st1 st2">修行時節兆載永劫</text>
<text transform="matrix(1 0 0 1 204.8005 95.6559)" class="st1 st2">修行功德六度萬行</text>
<text transform="matrix(1 0 0 1 204.8005 95.6559)" class="st3 st1 st2">修行功德六度萬行</text>
<line class="st0" x1="175.5" y1="132.2" x2="199.1" y2="132.2"/>
<line class="st0" x1="188.6" y1="35.5" x2="188.6" y2="7"/>
<line class="st0" x1="180" y1="21.3" x2="188.6" y2="21.3"/>
<line class="st0" x1="188.4" y1="7" x2="197" y2="7"/>
<line class="st0" x1="188.4" y1="35.2" x2="197" y2="35.2"/>
<text transform="matrix(1 0 0 1 205.0005 11.51)" class="st1 st2">思惟時節五劫</text>
<text transform="matrix(1 0 0 1 205.0005 11.51)" class="st3 st1 st2">思惟時節五劫</text>
<text transform="matrix(1 0 0 1 205.0006 40.01)" class="st1 st2">思惟誓願四十八願</text>
<text transform="matrix(1 0 0 1 205.0006 40.01)" class="st3 st1 st2">思惟誓願四十八願</text>
<g>
	<line class="st0" x1="328.7" y1="105.5" x2="328.7" y2="77"/>
	<line class="st0" x1="320.1" y1="91.3" x2="328.7" y2="91.3"/>
	<line class="st0" x1="328.5" y1="77" x2="337.1" y2="77"/>
	<line class="st0" x1="328.5" y1="105.2" x2="337.1" y2="105.2"/>
	<text transform="matrix(1 0 0 1 345.0671 81.4559)" class="st1 st2">定善</text>
	<text transform="matrix(1 0 0 1 345.0671 81.4559)" class="st3 st1 st2">定善</text>
	<text transform="matrix(1 0 0 1 345.0672 109.9559)" class="st1 st2">散善</text>
	<text transform="matrix(1 0 0 1 345.0672 109.9559)" class="st3 st1 st2">散善</text>
</g>
<g>
	<line class="st0" x1="328.9" y1="148.6" x2="328.9" y2="120.1"/>
	<line class="st0" x1="320.3" y1="134.4" x2="328.9" y2="134.4"/>
	<line class="st0" x1="328.7" y1="120.1" x2="337.3" y2="120.1"/>
	<line class="st0" x1="328.7" y1="148.3" x2="337.3" y2="148.3"/>
	<text transform="matrix(1 0 0 1 345.2674 124.5634)" class="st1 st2">依報</text>
	<text transform="matrix(1 0 0 1 345.2674 124.5634)" class="st3 st1 st2">依報</text>
	<text transform="matrix(1 0 0 1 345.2675 153.0634)" class="st1 st2">正報</text>
	<text transform="matrix(1 0 0 1 345.2675 153.0634)" class="st3 st1 st2">正報</text>
</g>
</svg>
