<?xml version="1.0" encoding="utf-8"?>
<!-- Generator: Adobe Illustrator 21.0.0, SVG Export Plug-In . SVG Version: 6.00 Build 0)  -->
<svg version="1.1" id="圖層_1" xmlns="http://www.w3.org/2000/svg" xmlns:xlink="http://www.w3.org/1999/xlink" x="0px" y="0px"
	 viewBox="0 0 333.7 66.4" style="enable-background:new 0 0 333.7 66.4;" xml:space="preserve">
<style type="text/css">
	.st0{enable-background:new    ;}
	.st1{font-family:'KaiTi';}
	.st2{font-size:10px;}
	.st3{letter-spacing:5;}
	.st4{fill:none;stroke:#000000;stroke-width:0.5;stroke-miterlimit:10;}
</style>
<text transform="matrix(1 0 0 1 68.9999 8.5938)" class="st0"><tspan x="0" y="0" class="st1 st2">菩提心</tspan><tspan x="0" y="14" class="st1 st2">厭欣心</tspan><tspan x="0" y="42" class="st1 st2">三</tspan><tspan x="10" y="42" class="st1 st2 st3"> </tspan><tspan x="20" y="42" class="st1 st2">心</tspan></text>
<text transform="matrix(1 0 0 1 109.8333 36.5939)" class="st0"><tspan x="0" y="0" class="st1 st2">至</tspan><tspan x="10" y="0" class="st1 st2 st3"> </tspan><tspan x="20" y="0" class="st1 st2">誠</tspan><tspan x="30" y="0" class="st1 st2 st3"> </tspan><tspan x="40" y="0" class="st1 st2">心</tspan><tspan x="0" y="14" class="st1 st2">深</tspan><tspan x="10" y="14" class="st1 st2 st3">   </tspan><tspan x="40" y="14" class="st1 st2">心</tspan><tspan x="0" y="28" class="st1 st2">迴向發願心</tspan></text>
<text transform="matrix(1 0 0 1 27.4999 15.5939)" class="st0"><tspan x="0" y="0" class="st1 st2">總安心</tspan><tspan x="0" y="35" class="st1 st2">別安心</tspan></text>
<text transform="matrix(1 0 0 1 -6.103516e-05 31.0939)" class="st1 st2">安心</text>
<g>
	<line class="st4" x1="20.8" y1="28.7" x2="23.6" y2="28.7"/>
	<line class="st4" x1="23.6" y1="11.8" x2="26.5" y2="11.8"/>
	<line class="st4" x1="23.6" y1="47.5" x2="26.5" y2="47.5"/>
	<line class="st4" x1="23.6" y1="11.8" x2="23.6" y2="47.5"/>
</g>
<g>
	<line class="st4" x1="60.3" y1="11.8" x2="63.1" y2="11.8"/>
	<line class="st4" x1="63.1" y1="4.7" x2="66" y2="4.7"/>
	<line class="st4" x1="63.1" y1="18.9" x2="66" y2="18.9"/>
	<line class="st4" x1="63.1" y1="4.5" x2="63.1" y2="19.1"/>
</g>
<g>
	<line class="st4" x1="101.5" y1="47.5" x2="104.3" y2="47.5"/>
	<line class="st4" x1="104.3" y1="33.1" x2="107.2" y2="33.1"/>
	<line class="st4" x1="104.3" y1="61.9" x2="107.2" y2="61.9"/>
	<line class="st4" x1="104.3" y1="33.1" x2="104.3" y2="61.9"/>
</g>
<g>
	<line class="st4" x1="168.3" y1="47.5" x2="165.5" y2="47.5"/>
	<line class="st4" x1="165.5" y1="61.9" x2="162.6" y2="61.9"/>
	<line class="st4" x1="165.5" y1="33.1" x2="162.6" y2="33.1"/>
	<line class="st4" x1="165.5" y1="61.9" x2="165.5" y2="33.1"/>
</g>
<text transform="matrix(1 0 0 1 170.4999 43.5939)" class="st0"><tspan x="0" y="0" class="st1 st2">歸佛願生</tspan><tspan x="0" y="14" class="st1 st2">之 一 心</tspan></text>
<g>
	<line class="st4" x1="212.8" y1="47.5" x2="215.6" y2="47.5"/>
	<line class="st4" x1="215.6" y1="33.1" x2="218.5" y2="33.1"/>
	<line class="st4" x1="215.6" y1="61.9" x2="218.5" y2="61.9"/>
	<line class="st4" x1="215.6" y1="33.1" x2="215.6" y2="61.9"/>
</g>
<text transform="matrix(1 0 0 1 221.4833 36.5939)" class="st0"><tspan x="0" y="0" class="st1 st2">真實</tspan><tspan x="0" y="14" class="st1 st2">決定</tspan><tspan x="0" y="28" class="st1 st2">相續</tspan></text>
<line class="st4" x1="244.3" y1="33.1" x2="250" y2="33.1"/>
<line class="st4" x1="244.3" y1="47.5" x2="250" y2="47.5"/>
<line class="st4" x1="244.3" y1="61.9" x2="250" y2="61.9"/>
<text transform="matrix(1 0 0 1 253.0497 36.5939)" class="st0"><tspan x="0" y="0" class="st1 st2">體</tspan><tspan x="0" y="14" class="st1 st2">相</tspan><tspan x="0" y="28" class="st1 st2">用</tspan></text>
<g>
	<line class="st4" x1="271.6" y1="47.5" x2="268.9" y2="47.5"/>
	<line class="st4" x1="268.8" y1="61.9" x2="266" y2="61.9"/>
	<line class="st4" x1="268.9" y1="33.1" x2="266" y2="33.1"/>
	<line class="st4" x1="268.8" y1="61.9" x2="268.9" y2="33.1"/>
</g>
<text transform="matrix(1 0 0 1 273.6499 50.5941)" class="st1 st2">南無阿彌陀佛</text>
<line class="st4" x1="60.2" y1="47.5" x2="65.9" y2="47.5"/>
</svg>
