<?xml version="1.0" encoding="utf-8"?>
<!-- Generator: Adobe Illustrator 21.0.0, SVG Export Plug-In . SVG Version: 6.00 Build 0)  -->
<svg version="1.1" id="圖層_1" xmlns="http://www.w3.org/2000/svg" xmlns:xlink="http://www.w3.org/1999/xlink" x="0px" y="0px"
	 viewBox="0 0 230.8 87.2" style="enable-background:new 0 0 230.8 87.2;" xml:space="preserve">
<style type="text/css">
	.st0{font-family:'KaiTi';}
	.st1{font-size:10px;}
	.st2{font-family:'DFKaiShu-SB-Estd-BF';}
	.st3{letter-spacing:5;}
	.st4{font-size:5px;}
	.st5{fill:none;stroke:#000000;stroke-width:0.5;stroke-miterlimit:10;}
</style>
<text transform="matrix(1 0 0 1 1.1667 46.4643)" class="st0 st1">阿彌陀佛三</text>
<text transform="matrix(1 0 0 1 62.9585 15.3512)" class="st0 st1">一</text>
<text transform="matrix(1 0 0 1 72.9585 15.3512)" class="st2 st1">、</text>
<text transform="matrix(1 0 0 1 82.9585 15.3512)" class="st0 st1">因</text>
<text transform="matrix(1 0 0 1 92.9585 15.3512)" class="st0 st1">位</text>
<text transform="matrix(1 0 0 1 102.9585 15.3512)" class="st0 st1">二</text>
<text transform="matrix(1 0 0 1 62.9585 43.3512)" class="st0 st1">二</text>
<text transform="matrix(1 0 0 1 72.9585 43.3512)" class="st2 st1">、</text>
<text transform="matrix(1 0 0 1 82.9585 43.3512)" class="st0 st1">中</text>
<text transform="matrix(1 0 0 1 92.9585 43.3512)" class="st0 st1">間</text>
<text transform="matrix(1 0 0 1 102.9585 43.3512)" class="st0 st1">二</text>
<text transform="matrix(1 0 0 1 62.9585 78.3512)" class="st0 st1">三</text>
<text transform="matrix(1 0 0 1 72.9585 78.3512)" class="st2 st1">、</text>
<text transform="matrix(1 0 0 1 82.9585 78.3512)" class="st0 st1">果</text>
<text transform="matrix(1 0 0 1 92.9585 78.3512)" class="st0 st1 st3"> </text>
<text transform="matrix(1 0 0 1 102.9585 78.3512)" class="st0 st1">上</text>
<text transform="matrix(1 0 0 1 112.9585 78.3512)" class="st0 st4"> </text>
<text transform="matrix(1 0 0 1 115.4585 78.3512)" class="st0 st1"> </text>
<text transform="matrix(1 0 0 1 120.4585 78.3512)" class="st0 st4"> </text>
<text transform="matrix(1 0 0 1 122.9585 78.3512)" class="st0 st1">阿</text>
<text transform="matrix(1 0 0 1 132.9585 78.3512)" class="st0 st1 st3"> </text>
<text transform="matrix(1 0 0 1 142.9585 78.3512)" class="st0 st1">彌</text>
<text transform="matrix(1 0 0 1 152.9585 78.3512)" class="st0 st1 st3"> </text>
<text transform="matrix(1 0 0 1 162.9585 78.3512)" class="st0 st1">陀</text>
<text transform="matrix(1 0 0 1 172.9585 78.3512)" class="st0 st1 st3"> </text>
<text transform="matrix(1 0 0 1 182.9585 78.3512)" class="st0 st1">佛</text>
<text transform="matrix(1 0 0 1 122.1245 8.5936)" class="st0 st1">思惟時節五劫</text>
<text transform="matrix(1 0 0 1 122.1245 22.5936)" class="st0 st1">思惟誓願四十八願</text>
<text transform="matrix(1 0 0 1 122.1245 36.5936)" class="st0 st1">修行時節兆載永劫</text>
<text transform="matrix(1 0 0 1 122.1245 50.5936)" class="st0 st1">修行功德六度萬行</text>
<text transform="matrix(1 0 0 1 210.8352 43.3383)" class="st0 st1">定善</text>
<text transform="matrix(1 0 0 1 210.8352 57.3383)" class="st0 st1">散善</text>
<text transform="matrix(1 0 0 1 210.8352 71.3383)" class="st0 st1">依報</text>
<text transform="matrix(1 0 0 1 210.8352 85.3383)" class="st0 st1">正報</text>
<g>
	<line class="st5" x1="56.1" y1="12.1" x2="56.1" y2="75"/>
	<line class="st5" x1="55.9" y1="12.1" x2="58.9" y2="12.1"/>
	<line class="st5" x1="55.9" y1="75" x2="58.9" y2="75"/>
	<line class="st5" x1="56.2" y1="43.3" x2="53.2" y2="43.3"/>
</g>
<g>
	<line class="st5" x1="115.4" y1="11.9" x2="118.3" y2="11.9"/>
	<line class="st5" x1="118.2" y1="5" x2="121.1" y2="5"/>
	<line class="st5" x1="118.2" y1="19.2" x2="121.1" y2="19.2"/>
	<line class="st5" x1="118.3" y1="4.8" x2="118.3" y2="19.4"/>
</g>
<g>
	<line class="st5" x1="115.3" y1="40.4" x2="118.2" y2="40.4"/>
	<line class="st5" x1="118.1" y1="33.5" x2="121" y2="33.5"/>
	<line class="st5" x1="118.1" y1="47.7" x2="121" y2="47.7"/>
	<line class="st5" x1="118.2" y1="33.3" x2="118.2" y2="47.9"/>
</g>
<line class="st5" x1="203.2" y1="47.4" x2="206.1" y2="47.4"/>
<line class="st5" x1="205.9" y1="40.5" x2="208.8" y2="40.5"/>
<line class="st5" x1="205.9" y1="54.7" x2="208.8" y2="54.7"/>
<line class="st5" x1="206.1" y1="40.3" x2="206.1" y2="54.9"/>
<line class="st5" x1="203.3" y1="75" x2="206.2" y2="75"/>
<line class="st5" x1="206.1" y1="68.1" x2="209" y2="68.1"/>
<line class="st5" x1="206.1" y1="82.3" x2="209" y2="82.3"/>
<line class="st5" x1="206.2" y1="67.9" x2="206.2" y2="82.5"/>
<line class="st5" x1="115.8" y1="75.2" x2="121.8" y2="75.2"/>
</svg>
