<?xml version="1.0" encoding="utf-8"?>
<!-- Generator: Adobe Illustrator 21.0.0, SVG Export Plug-In . SVG Version: 6.00 Build 0)  -->
<svg version="1.1" baseProfile="tiny" id="圖層_1"
	 xmlns="http://www.w3.org/2000/svg" xmlns:xlink="http://www.w3.org/1999/xlink" x="0px" y="0px" viewBox="0 0 260.4 116.8"
	 overflow="scroll" xml:space="preserve">
<text transform="matrix(1 0 0 1 52.6665 8.5937)" font-family="'KaiTi'" font-size="10px">若</text>
<text transform="matrix(1 0 0 1 62.6665 8.5937)" font-family="'KaiTi'" font-size="10px">人</text>
<text transform="matrix(1 0 0 1 72.6665 8.5937)" font-family="'KaiTi'" font-size="10px"> </text>
<text transform="matrix(1 0 0 1 82.6665 8.5937)" font-family="'KaiTi'" font-size="10px">根</text>
<text transform="matrix(1 0 0 1 92.6665 8.5937)" font-family="'KaiTi'" font-size="10px">機</text>
<text transform="matrix(1 0 0 1 102.6665 8.5937)" font-family="'KaiTi'" font-size="10px"> </text>
<text transform="matrix(1 0 0 1 112.6665 8.5937)" font-family="'KaiTi'" font-size="10px">聖</text>
<text transform="matrix(1 0 0 1 122.6665 8.5937)" font-family="'KaiTi'" font-size="10px">凡</text>
<text transform="matrix(1 0 0 1 132.6665 8.5937)" font-family="'KaiTi'" font-size="10px">善</text>
<text transform="matrix(1 0 0 1 142.666 8.5937)" font-family="'KaiTi'" font-size="10px">惡</text>
<text transform="matrix(1 0 0 1 152.666 8.5937)" font-family="'KaiTi'" font-size="10px">男</text>
<text transform="matrix(1 0 0 1 162.666 8.5937)" font-family="'KaiTi'" font-size="10px">女</text>
<text transform="matrix(1 0 0 1 172.666 8.5937)" font-family="'KaiTi'" font-size="10px">老</text>
<text transform="matrix(1 0 0 1 182.666 8.5937)" font-family="'KaiTi'" font-size="10px">少</text>
<text transform="matrix(1 0 0 1 52.6665 22.5937)" font-family="'KaiTi'" font-size="10px">念</text>
<text transform="matrix(1 0 0 1 62.6665 22.5937)" font-family="'KaiTi'" font-size="10px">我</text>
<text transform="matrix(1 0 0 1 72.6665 22.5937)" font-family="'KaiTi'" font-size="10px"> </text>
<text transform="matrix(1 0 0 1 82.6665 22.5937)" font-family="'KaiTi'" font-size="10px">意</text>
<text transform="matrix(1 0 0 1 92.6665 22.5937)" font-family="'KaiTi'" font-size="10px">業</text>
<text transform="matrix(1 0 0 1 102.6665 22.5937)" font-family="'KaiTi'" font-size="10px"> </text>
<text transform="matrix(1 0 0 1 112.6665 22.5937)" font-family="'KaiTi'" font-size="10px">心</text>
<text transform="matrix(1 0 0 1 122.6665 22.5937)" font-family="'KaiTi'" font-size="10px">中</text>
<text transform="matrix(1 0 0 1 132.6665 22.5937)" font-family="'KaiTi'" font-size="10px">憶</text>
<text transform="matrix(1 0 0 1 142.666 22.5937)" font-family="'KaiTi'" font-size="10px">念</text>
<text transform="matrix(1 0 0 1 152.666 22.5937)" font-family="'KaiTi'" font-size="10px">彌</text>
<text transform="matrix(1 0 0 1 162.666 22.5937)" font-family="'KaiTi'" font-size="10px">陀</text>
<text transform="matrix(1 0 0 1 172.666 22.5937)" font-family="'KaiTi'" font-size="10px">佛</text>
<text transform="matrix(1 0 0 1 182.666 22.5937)" font-family="'KaiTi'" font-size="10px">名</text>
<text transform="matrix(1 0 0 1 52.6665 36.5937)" font-family="'KaiTi'" font-size="10px">稱</text>
<text transform="matrix(1 0 0 1 62.6665 36.5937)" font-family="'KaiTi'" font-size="10px">名</text>
<text transform="matrix(1 0 0 1 72.6665 36.5937)" font-family="'KaiTi'" font-size="10px"> </text>
<text transform="matrix(1 0 0 1 82.6665 36.5937)" font-family="'KaiTi'" font-size="10px">口</text>
<text transform="matrix(1 0 0 1 92.6665 36.5937)" font-family="'KaiTi'" font-size="10px">業</text>
<text transform="matrix(1 0 0 1 102.6665 36.5937)" font-family="'KaiTi'" font-size="10px"> </text>
<text transform="matrix(1 0 0 1 112.6665 36.5937)" font-family="'KaiTi'" font-size="10px">口</text>
<text transform="matrix(1 0 0 1 122.6665 36.5937)" font-family="'KaiTi'" font-size="10px">中</text>
<text transform="matrix(1 0 0 1 132.6665 36.5937)" font-family="'KaiTi'" font-size="10px">稱</text>
<text transform="matrix(1 0 0 1 142.666 36.5937)" font-family="'KaiTi'" font-size="10px">念</text>
<text transform="matrix(1 0 0 1 152.666 36.5937)" font-family="'KaiTi'" font-size="10px">彌</text>
<text transform="matrix(1 0 0 1 162.666 36.5937)" font-family="'KaiTi'" font-size="10px">陀</text>
<text transform="matrix(1 0 0 1 172.666 36.5937)" font-family="'KaiTi'" font-size="10px">佛</text>
<text transform="matrix(1 0 0 1 182.666 36.5937)" font-family="'KaiTi'" font-size="10px">名</text>
<text transform="matrix(1 0 0 1 52.6665 50.5937)" font-family="'KaiTi'" font-size="10px">自</text>
<text transform="matrix(1 0 0 1 62.6665 50.5937)" font-family="'KaiTi'" font-size="10px">歸</text>
<text transform="matrix(1 0 0 1 72.6665 50.5937)" font-family="'KaiTi'" font-size="10px"> </text>
<text transform="matrix(1 0 0 1 82.6665 50.5937)" font-family="'KaiTi'" font-size="10px">歸</text>
<text transform="matrix(1 0 0 1 92.6665 50.5937)" font-family="'KaiTi'" font-size="10px">命</text>
<text transform="matrix(1 0 0 1 102.6665 50.5937)" font-family="'KaiTi'" font-size="10px"> </text>
<text transform="matrix(1 0 0 1 112.6665 50.5937)" font-family="'KaiTi'" font-size="10px">歸</text>
<text transform="matrix(1 0 0 1 122.6665 50.5937)" font-family="'KaiTi'" font-size="10px">命</text>
<text transform="matrix(1 0 0 1 132.6665 50.5937)" font-family="'KaiTi'" font-size="10px">信</text>
<text transform="matrix(1 0 0 1 142.666 50.5937)" font-family="'KaiTi'" font-size="10px">受</text>
<text transform="matrix(1 0 0 1 152.666 50.5937)" font-family="'KaiTi'" font-size="10px">彌</text>
<text transform="matrix(1 0 0 1 162.666 50.5937)" font-family="'KaiTi'" font-size="10px">陀</text>
<text transform="matrix(1 0 0 1 172.666 50.5937)" font-family="'KaiTi'" font-size="10px">救</text>
<text transform="matrix(1 0 0 1 182.666 50.5937)" font-family="'KaiTi'" font-size="10px">度</text>
<text transform="matrix(1 0 0 1 204.9998 8.5937)" font-family="'KaiTi'" font-size="10px">十方眾生</text>
<text transform="matrix(1 0 0 1 204.9998 29.5937)" font-family="'KaiTi'" font-size="10px">起行</text>
<text transform="matrix(1 0 0 1 204.9998 50.5937)" font-family="'KaiTi'" font-size="10px">安心</text>
<line fill="none" stroke="#000000" stroke-width="0.5" stroke-miterlimit="10" x1="74.6" y1="4.6" x2="80.1" y2="4.6"/>
<line fill="none" stroke="#000000" stroke-width="0.5" stroke-miterlimit="10" x1="74.6" y1="18.9" x2="80.1" y2="18.9"/>
<line fill="none" stroke="#000000" stroke-width="0.5" stroke-miterlimit="10" x1="74.6" y1="33.2" x2="80.1" y2="33.2"/>
<line fill="none" stroke="#000000" stroke-width="0.5" stroke-miterlimit="10" x1="74.6" y1="47.5" x2="80.1" y2="47.5"/>
<line fill="none" stroke="#000000" stroke-width="0.5" stroke-miterlimit="10" x1="105.5" y1="4.6" x2="111" y2="4.6"/>
<line fill="none" stroke="#000000" stroke-width="0.5" stroke-miterlimit="10" x1="105.5" y1="18.9" x2="111" y2="18.9"/>
<line fill="none" stroke="#000000" stroke-width="0.5" stroke-miterlimit="10" x1="105.5" y1="33.2" x2="111" y2="33.2"/>
<line fill="none" stroke="#000000" stroke-width="0.5" stroke-miterlimit="10" x1="105.5" y1="47.5" x2="111" y2="47.5"/>
<g>
	<line fill="none" stroke="#000000" stroke-width="0.5" stroke-miterlimit="10" x1="46.3" y1="4.6" x2="46.3" y2="47.5"/>
	<line fill="none" stroke="#000000" stroke-width="0.5" stroke-miterlimit="10" x1="46.3" y1="4.6" x2="49.1" y2="4.6"/>
	<line fill="none" stroke="#000000" stroke-width="0.5" stroke-miterlimit="10" x1="46.3" y1="47.5" x2="49.1" y2="47.5"/>
	<line fill="none" stroke="#000000" stroke-width="0.5" stroke-miterlimit="10" x1="46.3" y1="26" x2="43.6" y2="26"/>
</g>
<text transform="matrix(1 0 0 1 0 22.5937)" font-family="'KaiTi'" font-size="10px">阿彌陀佛</text>
<text transform="matrix(1 0 0 1 0 36.5937)" font-family="'KaiTi'" font-size="10px">本願如是</text>
<g>
	<line fill="none" stroke="#000000" stroke-width="0.5" stroke-miterlimit="10" x1="198.6" y1="33.2" x2="198.6" y2="18.9"/>
	<line fill="none" stroke="#000000" stroke-width="0.5" stroke-miterlimit="10" x1="198.6" y1="33.2" x2="195.7" y2="33.2"/>
	<line fill="none" stroke="#000000" stroke-width="0.5" stroke-miterlimit="10" x1="198.6" y1="18.9" x2="195.7" y2="18.9"/>
	<line fill="none" stroke="#000000" stroke-width="0.5" stroke-miterlimit="10" x1="198.6" y1="26" x2="201.2" y2="26"/>
</g>
<line fill="none" stroke="#000000" stroke-width="0.5" stroke-miterlimit="10" x1="195.2" y1="4.6" x2="201.2" y2="4.6"/>
<line fill="none" stroke="#000000" stroke-width="0.5" stroke-miterlimit="10" x1="195.6" y1="47.5" x2="201.2" y2="47.5"/>
<g>
	<line fill="none" stroke="#000000" stroke-width="0.5" stroke-miterlimit="10" x1="232.1" y1="47.5" x2="232.1" y2="26"/>
	<line fill="none" stroke="#000000" stroke-width="0.5" stroke-miterlimit="10" x1="232.1" y1="47.5" x2="229.2" y2="47.5"/>
	<line fill="none" stroke="#000000" stroke-width="0.5" stroke-miterlimit="10" x1="232.1" y1="26" x2="229.2" y2="26"/>
	<line fill="none" stroke="#000000" stroke-width="0.5" stroke-miterlimit="10" x1="232.1" y1="36.7" x2="234.7" y2="36.7"/>
</g>
<text transform="matrix(1 0 0 1 238 40.0937)" font-family="'KaiTi'" font-size="10px">因</text>
<text transform="matrix(1 0 0 1 37.6665 86)" font-family="'KaiTi'" font-size="10px">現</text>
<text transform="matrix(1 0 0 1 47.6665 86)" font-family="'KaiTi'" font-size="10px">果</text>
<text transform="matrix(1 0 0 1 57.6665 86)" font-family="'KaiTi'" font-size="10px"> </text>
<text transform="matrix(1 0 0 1 67.6665 86)" font-family="'KaiTi'" font-size="10px">即</text>
<text transform="matrix(1 0 0 1 77.6665 86)" font-family="'KaiTi'" font-size="10px">入</text>
<text transform="matrix(1 0 0 1 87.6665 86)" font-family="'KaiTi'" font-size="10px">必</text>
<text transform="matrix(1 0 0 1 97.6665 86)" font-family="'KaiTi'" font-size="10px">定</text>
<text transform="matrix(1 0 0 1 37.6665 114)" font-family="'KaiTi'" font-size="10px">當</text>
<text transform="matrix(1 0 0 1 47.6665 114)" font-family="'KaiTi'" font-size="10px">果</text>
<text transform="matrix(1 0 0 1 57.6665 114)" font-family="'KaiTi'" font-size="10px"> </text>
<text transform="matrix(1 0 0 1 67.6665 114)" font-family="'KaiTi'" font-size="10px">得</text>
<text transform="matrix(1 0 0 1 77.6665 114)" font-family="'KaiTi'" font-size="10px">等</text>
<text transform="matrix(1 0 0 1 87.6665 114)" font-family="'KaiTi'" font-size="10px">正</text>
<text transform="matrix(1 0 0 1 97.6665 114)" font-family="'KaiTi'" font-size="10px">覺</text>
<text transform="matrix(1 0 0 1 107.6665 114)" font-family="'KaiTi'" font-size="10px"> </text>
<text transform="matrix(1 0 0 1 117.5832 80)" font-family="'KaiTi'" font-size="10px">平生業成</text>
<text transform="matrix(1 0 0 1 117.5832 94)" font-family="'KaiTi'" font-size="10px">現生不退</text>
<text transform="matrix(1 0 0 1 117.5832 115)" font-family="'KaiTi'" font-size="10px">往生成佛</text>
<g>
	<line fill="none" stroke="#000000" stroke-width="0.5" stroke-miterlimit="10" x1="112.6" y1="76.4" x2="112.6" y2="90.7"/>
	<line fill="none" stroke="#000000" stroke-width="0.5" stroke-miterlimit="10" x1="112.6" y1="76.4" x2="115.4" y2="76.4"/>
	<line fill="none" stroke="#000000" stroke-width="0.5" stroke-miterlimit="10" x1="112.6" y1="90.7" x2="115.4" y2="90.7"/>
	<line fill="none" stroke="#000000" stroke-width="0.5" stroke-miterlimit="10" x1="112.6" y1="83.5" x2="109.9" y2="83.5"/>
</g>
<line fill="none" stroke="#000000" stroke-width="0.5" stroke-miterlimit="10" x1="60" y1="83.5" x2="65.5" y2="83.5"/>
<line fill="none" stroke="#000000" stroke-width="0.5" stroke-miterlimit="10" x1="60" y1="111.4" x2="65.5" y2="111.4"/>
<line fill="none" stroke="#000000" stroke-width="0.5" stroke-miterlimit="10" x1="109.8" y1="111.4" x2="115.3" y2="111.4"/>
<g>
	<line fill="none" stroke="#000000" stroke-width="0.5" stroke-miterlimit="10" x1="31.3" y1="83.5" x2="31.3" y2="111.4"/>
	<line fill="none" stroke="#000000" stroke-width="0.5" stroke-miterlimit="10" x1="31.3" y1="83.5" x2="34.1" y2="83.5"/>
	<line fill="none" stroke="#000000" stroke-width="0.5" stroke-miterlimit="10" x1="31.3" y1="111.4" x2="34.1" y2="111.4"/>
	<line fill="none" stroke="#000000" stroke-width="0.5" stroke-miterlimit="10" x1="31.3" y1="97.5" x2="28.6" y2="97.5"/>
</g>
<text transform="matrix(1 0 0 1 14.7915 100.9999)" font-family="'KaiTi'" font-size="10px">果</text>
<g>
	<line fill="none" stroke="#000000" stroke-width="0.5" stroke-miterlimit="10" x1="163.7" y1="111.4" x2="163.7" y2="76.4"/>
	<line fill="none" stroke="#000000" stroke-width="0.5" stroke-miterlimit="10" x1="163.7" y1="111.4" x2="160.9" y2="111.4"/>
	<line fill="none" stroke="#000000" stroke-width="0.5" stroke-miterlimit="10" x1="163.7" y1="76.4" x2="160.9" y2="76.4"/>
	<line fill="none" stroke="#000000" stroke-width="0.5" stroke-miterlimit="10" x1="163.7" y1="93.9" x2="166.4" y2="93.9"/>
</g>
<text transform="matrix(1 0 0 1 170.4202 97.4999)" font-family="'KaiTi'" font-size="10px">常應憶念(乃至十念)</text>
<line fill="none" stroke="#000000" stroke-width="0.5" stroke-miterlimit="10" x1="250.4" y1="36.7" x2="255.9" y2="36.7"/>
<line fill="none" stroke="#000000" stroke-width="0.5" stroke-miterlimit="10" x1="255.9" y1="36.7" x2="255.9" y2="61.8"/>
<line fill="none" stroke="#000000" stroke-width="0.5" stroke-miterlimit="10" x1="255.9" y1="61.8" x2="2.7" y2="61.8"/>
<line fill="none" stroke="#000000" stroke-width="0.5" stroke-miterlimit="10" x1="2.7" y1="97.5" x2="2.7" y2="61.8"/>
<g>
	<g>
		<line fill="none" stroke="#000000" stroke-width="0.5" stroke-miterlimit="10" x1="2.7" y1="97.5" x2="9.2" y2="97.5"/>
		<g>
			<polygon points="12.5,97.5 7.5,99.5 8.7,97.5 7.5,95.4 			"/>
		</g>
	</g>
</g>
</svg>
