<?xml version="1.0" encoding="utf-8"?>
<!-- Generator: Adobe Illustrator 21.0.0, SVG Export Plug-In . SVG Version: 6.00 Build 0)  -->
<svg version="1.1" baseProfile="tiny" id="圖層_1"
	 xmlns="http://www.w3.org/2000/svg" xmlns:xlink="http://www.w3.org/1999/xlink" x="0px" y="0px" viewBox="0 0 278.4 66.4"
	 overflow="scroll" xml:space="preserve">
<text transform="matrix(1 0 0 1 134 8.5938)" font-family="'KaiTi'" font-size="10px">阿</text>
<text transform="matrix(1 0 0 1 144 8.5938)" font-family="'KaiTi'" font-size="10px">彌</text>
<text transform="matrix(1 0 0 1 154 8.5938)" font-family="'KaiTi'" font-size="10px">陀</text>
<text transform="matrix(1 0 0 1 164 8.5938)" font-family="'KaiTi'" font-size="10px">婆</text>
<text transform="matrix(1 0 0 1 174 8.5938)" font-family="'KaiTi'" font-size="10px"> </text>
<text transform="matrix(1 0 0 1 184 8.5938)" font-family="'DFKaiShu-SB-Estd-BF'" font-size="10px">(</text>
<text transform="matrix(1 0 0 1 189 8.5938)" font-family="'TimesNewRomanPSMT'" font-size="10px">A</text>
<text transform="matrix(1 0 0 1 196.2217 8.5938)" font-family="'TimesNewRomanPSMT'" font-size="10px">m</text>
<text transform="matrix(1 0 0 1 204 8.5938)" font-family="'TimesNewRomanPSMT'" font-size="10px">i</text>
<text transform="matrix(1 0 0 1 206.7783 8.5938)" font-family="'TimesNewRomanPSMT'" font-size="10px">t</text>
<text transform="matrix(1 0 0 1 209.5566 8.5938)" font-family="'TimesNewRomanPSMT'" font-size="10px">ā</text>
<text transform="matrix(1 0 0 1 213.9951 8.5938)" font-family="'TimesNewRomanPSMT'" font-size="10px">b</text>
<text transform="matrix(1 0 0 1 218.9951 8.5938)" font-family="'TimesNewRomanPSMT'" font-size="10px">h</text>
<text transform="matrix(1 0 0 1 223.9951 8.5938)" font-family="'TimesNewRomanPSMT'" font-size="10px">a</text>
<text transform="matrix(1 0 0 1 228.4336 8.5938)" font-family="'DFKaiShu-SB-Estd-BF'" font-size="10px">)</text>
<text transform="matrix(1 0 0 1 233.4336 8.5938)" font-family="'KaiTi'" font-size="10px"> </text>
<text transform="matrix(1 0 0 1 243.4336 8.5938)" font-family="'KaiTi'" font-size="10px"> </text>
<text transform="matrix(1 0 0 1 248.4336 8.5938)" font-family="'KaiTi'" font-size="10px">無</text>
<text transform="matrix(1 0 0 1 258.4336 8.5938)" font-family="'KaiTi'" font-size="10px">量</text>
<text transform="matrix(1 0 0 1 268.4336 8.5938)" font-family="'KaiTi'" font-size="10px">光</text>
<text transform="matrix(1 0 0 1 134 22.5938)" font-family="'KaiTi'" font-size="10px">阿</text>
<text transform="matrix(1 0 0 1 144 22.5938)" font-family="'KaiTi'" font-size="10px">彌</text>
<text transform="matrix(1 0 0 1 154 22.5938)" font-family="'KaiTi'" font-size="10px">陀</text>
<text transform="matrix(1 0 0 1 164 22.5938)" font-family="'KaiTi'" font-size="10px">由</text>
<text transform="matrix(1 0 0 1 174 22.5938)" font-family="'KaiTi'" font-size="10px">須</text>
<text transform="matrix(1 0 0 1 184 22.5938)" font-family="'DFKaiShu-SB-Estd-BF'" font-size="10px">(</text>
<text transform="matrix(1 0 0 1 189 22.5938)" font-family="'TimesNewRomanPSMT'" font-size="10px">A</text>
<text transform="matrix(1 0 0 1 196.2217 22.5938)" font-family="'TimesNewRomanPSMT'" font-size="10px">m</text>
<text transform="matrix(1 0 0 1 204 22.5938)" font-family="'TimesNewRomanPSMT'" font-size="10px">i</text>
<text transform="matrix(1 0 0 1 206.7783 22.5938)" font-family="'TimesNewRomanPSMT'" font-size="10px">t</text>
<text transform="matrix(1 0 0 1 209.5566 22.5938)" font-family="'TimesNewRomanPSMT'" font-size="10px">ā</text>
<text transform="matrix(1 0 0 1 213.9951 22.5938)" font-family="'TimesNewRomanPSMT'" font-size="10px">y</text>
<text transform="matrix(1 0 0 1 218.9951 22.5938)" font-family="'TimesNewRomanPSMT'" font-size="10px">u</text>
<text transform="matrix(1 0 0 1 223.9951 22.5938)" font-family="'TimesNewRomanPSMT'" font-size="10px">s</text>
<text transform="matrix(1 0 0 1 227.8867 22.5938)" font-family="'DFKaiShu-SB-Estd-BF'" font-size="10px">)</text>
<text transform="matrix(1 0 0 1 232.8867 22.5938)" font-family="'KaiTi'" font-size="10px"> </text>
<text transform="matrix(1 0 0 1 242.8867 22.5938)" font-family="'KaiTi'" font-size="10px"> </text>
<text transform="matrix(1 0 0 1 247.8867 22.5938)" font-family="'KaiTi'" font-size="10px">無</text>
<text transform="matrix(1 0 0 1 257.8867 22.5938)" font-family="'KaiTi'" font-size="10px">量</text>
<text transform="matrix(1 0 0 1 267.8867 22.5938)" font-family="'KaiTi'" font-size="10px">壽</text>
<text transform="matrix(1 0 0 1 134 36.5938)" font-family="'KaiTi'" font-size="10px">阿</text>
<text transform="matrix(1 0 0 1 144 36.5938)" font-family="'KaiTi'" font-size="10px">彌</text>
<text transform="matrix(1 0 0 1 154 36.5938)" font-family="'KaiTi'" font-size="10px">陀</text>
<text transform="matrix(1 0 0 1 164 36.5938)" font-family="'DFKaiShu-SB-Estd-BF'" font-size="10px">(</text>
<text transform="matrix(1 0 0 1 169 36.5938)" font-family="'TimesNewRomanPSMT'" font-size="10px">A</text>
<text transform="matrix(1 0 0 1 176.2217 36.5938)" font-family="'TimesNewRomanPSMT'" font-size="10px">m</text>
<text transform="matrix(1 0 0 1 184 36.5938)" font-family="'TimesNewRomanPSMT'" font-size="10px">i</text>
<text transform="matrix(1 0 0 1 186.7783 36.5938)" font-family="'TimesNewRomanPSMT'" font-size="10px">t</text>
<text transform="matrix(1 0 0 1 189.5566 36.5938)" font-family="'TimesNewRomanPSMT'" font-size="10px">ā</text>
<text transform="matrix(1 0 0 1 193.9951 36.5938)" font-family="'DFKaiShu-SB-Estd-BF'" font-size="10px">)</text>
<text transform="matrix(1 0 0 1 134 50.5938)" font-family="'KaiTi'" font-size="10px">無</text>
<text transform="matrix(1 0 0 1 144 50.5938)" font-family="'KaiTi'" font-size="10px"> </text>
<text transform="matrix(1 0 0 1 154 50.5938)" font-family="'KaiTi'" font-size="10px">量</text>
<text transform="matrix(1 0 0 1 164 50.5938)" font-family="'KaiTi'" font-size="10px"> </text>
<text transform="matrix(1 0 0 1 174 50.5938)" font-family="'KaiTi'" font-size="10px"> </text>
<text transform="matrix(1 0 0 1 179 50.5938)" font-family="'KaiTi'" font-size="10px">直</text>
<text transform="matrix(1 0 0 1 189 50.5938)" font-family="'KaiTi'" font-size="10px">譯</text>
<text transform="matrix(1 0 0 1 134 64.5938)" font-family="'KaiTi'" font-size="10px">無</text>
<text transform="matrix(1 0 0 1 144 64.5938)" font-family="'KaiTi'" font-size="10px">量</text>
<text transform="matrix(1 0 0 1 154 64.5938)" font-family="'KaiTi'" font-size="10px">壽</text>
<text transform="matrix(1 0 0 1 164 64.5938)" font-family="'KaiTi'" font-size="10px"> </text>
<text transform="matrix(1 0 0 1 174 64.5938)" font-family="'KaiTi'" font-size="10px"> </text>
<text transform="matrix(1 0 0 1 179 64.5938)" font-family="'KaiTi'" font-size="10px">意</text>
<text transform="matrix(1 0 0 1 189 64.5938)" font-family="'KaiTi'" font-size="10px">譯</text>
<g>
	<line fill="none" stroke="#000000" stroke-width="0.5" stroke-miterlimit="10" x1="123.1" y1="12.5" x2="127.2" y2="12.5"/>
	<line fill="none" stroke="#000000" stroke-width="0.5" stroke-miterlimit="10" x1="127.1" y1="4.6" x2="131.2" y2="4.6"/>
	<line fill="none" stroke="#000000" stroke-width="0.5" stroke-miterlimit="10" x1="127.1" y1="19.7" x2="131.1" y2="19.7"/>
	<line fill="none" stroke="#000000" stroke-width="0.5" stroke-miterlimit="10" x1="127.2" y1="4.6" x2="127.2" y2="19.7"/>
</g>
<line fill="none" stroke="#000000" stroke-width="0.5" stroke-miterlimit="10" x1="236.7" y1="5.4" x2="244.7" y2="5.4"/>
<line fill="none" stroke="#000000" stroke-width="0.5" stroke-miterlimit="10" x1="236.7" y1="19.7" x2="244.7" y2="19.7"/>
<line fill="none" stroke="#000000" stroke-width="0.5" stroke-miterlimit="10" x1="167.6" y1="46.8" x2="175.6" y2="46.8"/>
<line fill="none" stroke="#000000" stroke-width="0.5" stroke-miterlimit="10" x1="167.6" y1="60.8" x2="175.6" y2="60.8"/>
<text transform="matrix(1 0 0 1 89 15.5938)" font-family="'KaiTi'" font-size="10px">二名說</text>
<text transform="matrix(1 0 0 1 89 36.5938)" font-family="'KaiTi'" font-size="10px">一名說</text>
<text transform="matrix(1 0 0 1 89 50.5938)" font-family="'KaiTi'" font-size="10px">二字譯</text>
<text transform="matrix(1 0 0 1 89 64.5938)" font-family="'KaiTi'" font-size="10px">三字譯</text>
<g>
	<line fill="none" stroke="#000000" stroke-width="0.5" stroke-miterlimit="10" x1="76.8" y1="23.4" x2="80.9" y2="23.4"/>
	<line fill="none" stroke="#000000" stroke-width="0.5" stroke-miterlimit="10" x1="80.7" y1="12.5" x2="84.8" y2="12.5"/>
	<line fill="none" stroke="#000000" stroke-width="0.5" stroke-miterlimit="10" x1="80.8" y1="33.3" x2="84.8" y2="33.3"/>
	<line fill="none" stroke="#000000" stroke-width="0.5" stroke-miterlimit="10" x1="80.9" y1="12.5" x2="80.9" y2="33.3"/>
</g>
<line fill="none" stroke="#000000" stroke-width="0.5" stroke-miterlimit="10" x1="123.2" y1="33.3" x2="131.2" y2="33.3"/>
<line fill="none" stroke="#000000" stroke-width="0.5" stroke-miterlimit="10" x1="123.1" y1="46.8" x2="131.1" y2="46.8"/>
<line fill="none" stroke="#000000" stroke-width="0.5" stroke-miterlimit="10" x1="123.2" y1="60.8" x2="131.2" y2="60.8"/>
<g>
	<line fill="none" stroke="#000000" stroke-width="0.5" stroke-miterlimit="10" x1="76.8" y1="54" x2="80.9" y2="54"/>
	<line fill="none" stroke="#000000" stroke-width="0.5" stroke-miterlimit="10" x1="80.7" y1="46.8" x2="84.8" y2="46.8"/>
	<line fill="none" stroke="#000000" stroke-width="0.5" stroke-miterlimit="10" x1="80.8" y1="60.8" x2="84.8" y2="60.8"/>
	<line fill="none" stroke="#000000" stroke-width="0.5" stroke-miterlimit="10" x1="80.9" y1="46.8" x2="80.9" y2="60.8"/>
</g>
<text transform="matrix(1 0 0 1 52.75 26.0938)" font-family="'KaiTi'" font-size="10px">本名</text>
<text transform="matrix(1 0 0 1 52.75 57.5938)" font-family="'KaiTi'" font-size="10px">譯語</text>
<g>
	<line fill="none" stroke="#000000" stroke-width="0.5" stroke-miterlimit="10" x1="44.1" y1="38.3" x2="48.2" y2="38.3"/>
	<line fill="none" stroke="#000000" stroke-width="0.5" stroke-miterlimit="10" x1="48" y1="22.9" x2="52.1" y2="22.9"/>
	<line fill="none" stroke="#000000" stroke-width="0.5" stroke-miterlimit="10" x1="48.1" y1="53.8" x2="52.1" y2="53.8"/>
	<line fill="none" stroke="#000000" stroke-width="0.5" stroke-miterlimit="10" x1="48.2" y1="22.9" x2="48.2" y2="53.8"/>
</g>
<text transform="matrix(1 0 0 1 0 41.8438)" font-family="'KaiTi'" font-size="10px">阿彌陀佛</text>
</svg>
