<?xml version="1.0" encoding="utf-8"?>
<!-- Generator: Adobe Illustrator 21.0.0, SVG Export Plug-In . SVG Version: 6.00 Build 0)  -->
<svg version="1.1" id="圖層_1" xmlns="http://www.w3.org/2000/svg" xmlns:xlink="http://www.w3.org/1999/xlink" x="0px" y="0px"
	 viewBox="0 0 235.7 87.2" style="enable-background:new 0 0 235.7 87.2;" xml:space="preserve">
<style type="text/css">
	.st0{font-family:'KaiTi';}
	.st1{font-size:10px;}
	.st2{font-family:'DFKaiShu-SB-Estd-BF';}
	.st3{letter-spacing:10;}
	.st4{font-size:5px;}
	.st5{fill:none;stroke:#000000;stroke-width:0.5;stroke-miterlimit:10;}
</style>
<text transform="matrix(1 0 0 1 1.983643e-04 46.4648)" class="st0 st1">阿彌陀佛三</text>
<text transform="matrix(1 0 0 1 62.792 15.3517)" class="st0 st1">一</text>
<text transform="matrix(1 0 0 1 72.792 15.3517)" class="st2 st1">、</text>
<text transform="matrix(1 0 0 1 82.792 15.3517)" class="st0 st1">因</text>
<text transform="matrix(1 0 0 1 92.792 15.3517)" class="st0 st1">位</text>
<text transform="matrix(1 0 0 1 102.792 15.3517)" class="st0 st1">二</text>
<text transform="matrix(1 0 0 1 62.792 43.3517)" class="st0 st1">二</text>
<text transform="matrix(1 0 0 1 72.792 43.3517)" class="st2 st1">、</text>
<text transform="matrix(1 0 0 1 82.792 43.3517)" class="st0 st1">中</text>
<text transform="matrix(1 0 0 1 92.792 43.3517)" class="st0 st1">間</text>
<text transform="matrix(1 0 0 1 102.792 43.3517)" class="st0 st1">二</text>
<text transform="matrix(1 0 0 1 62.792 78.3517)" class="st0 st1">三</text>
<text transform="matrix(1 0 0 1 72.792 78.3517)" class="st2 st1">、</text>
<text transform="matrix(1 0 0 1 82.792 78.3517)" class="st0 st1">果</text>
<text transform="matrix(1 0 0 1 92.792 78.3517)" class="st0 st1 st3"> </text>
<text transform="matrix(1 0 0 1 102.792 78.3517)" class="st0 st1">上</text>
<text transform="matrix(1 0 0 1 112.792 78.3517)" class="st0 st4"> </text>
<text transform="matrix(1 0 0 1 115.292 78.3517)" class="st0 st1"> </text>
<text transform="matrix(1 0 0 1 120.292 78.3517)" class="st0 st4"> </text>
<text transform="matrix(1 0 0 1 129.792 78.3517)" class="st0 st1">阿</text>
<text transform="matrix(1 0 0 1 132.792 78.3517)" class="st0 st1 st3"> </text>
<text transform="matrix(1 0 0 1 149.792 78.3517)" class="st0 st1">彌</text>
<text transform="matrix(1 0 0 1 152.792 78.3517)" class="st0 st1 st3"> </text>
<text transform="matrix(1 0 0 1 169.792 78.3517)" class="st0 st1">陀</text>
<text transform="matrix(1 0 0 1 172.792 78.3517)" class="st0 st1 st3"> </text>
<text transform="matrix(1 0 0 1 189.792 78.3517)" class="st0 st1">佛</text>
<text transform="matrix(1 0 0 1 124.633 8.5939)" class="st0 st1">思惟時節五劫</text>
<text transform="matrix(1 0 0 1 124.933 22.5939)" class="st0 st1">思惟誓願四十八願</text>
<text transform="matrix(1 0 0 1 124.983 36.5939)" class="st0 st1">修行時節兆載永劫</text>
<text transform="matrix(1 0 0 1 124.958 50.5941)" class="st0 st1">修行功德六度萬行</text>
<text transform="matrix(1 0 0 1 214.6687 43.3388)" class="st0 st1">定善</text>
<text transform="matrix(1 0 0 1 214.6687 57.3388)" class="st0 st1">散善</text>
<text transform="matrix(1 0 0 1 215.6687 71.3388)" class="st0 st1">依報</text>
<text transform="matrix(1 0 0 1 214.6687 85.3388)" class="st0 st1">正報</text>
<g>
	<line class="st5" x1="55.9" y1="12.1" x2="55.9" y2="75"/>
	<line class="st5" x1="55.7" y1="12.1" x2="58.7" y2="12.1"/>
	<line class="st5" x1="55.7" y1="75" x2="58.7" y2="75"/>
	<line class="st5" x1="56" y1="43.3" x2="53" y2="43.3"/>
</g>
<g>
	<line class="st5" x1="116.2" y1="11.9" x2="119.1" y2="11.9"/>
	<line class="st5" x1="119" y1="5" x2="121.9" y2="5"/>
	<line class="st5" x1="119" y1="19.2" x2="121.9" y2="19.2"/>
	<line class="st5" x1="119.1" y1="4.8" x2="119.1" y2="19.4"/>
</g>
<g>
	<line class="st5" x1="116.3" y1="40.4" x2="119.2" y2="40.4"/>
	<line class="st5" x1="119.1" y1="33.5" x2="122" y2="33.5"/>
	<line class="st5" x1="119.1" y1="47.7" x2="122" y2="47.7"/>
	<line class="st5" x1="119.2" y1="33.3" x2="119.2" y2="47.9"/>
</g>
<line class="st5" x1="207" y1="47.4" x2="209.9" y2="47.4"/>
<line class="st5" x1="209.7" y1="40.5" x2="212.6" y2="40.5"/>
<line class="st5" x1="209.7" y1="54.7" x2="212.6" y2="54.7"/>
<line class="st5" x1="209.9" y1="40.3" x2="209.9" y2="54.9"/>
<line class="st5" x1="206.9" y1="75.2" x2="209.8" y2="75.2"/>
<line class="st5" x1="209.7" y1="68.3" x2="212.6" y2="68.3"/>
<line class="st5" x1="209.7" y1="82.5" x2="212.6" y2="82.5"/>
<line class="st5" x1="209.8" y1="68.1" x2="209.8" y2="82.7"/>
<line class="st5" x1="116.6" y1="75.2" x2="122.6" y2="75.2"/>
</svg>
