<?xml version="1.0" encoding="utf-8"?>
<!-- Generator: Adobe Illustrator 21.0.0, SVG Export Plug-In . SVG Version: 6.00 Build 0)  -->
<svg version="1.1" baseProfile="tiny" id="图层_1"
	 xmlns="http://www.w3.org/2000/svg" xmlns:xlink="http://www.w3.org/1999/xlink" x="0px" y="0px" viewBox="0 0 281.4 66.4"
	 overflow="scroll" xml:space="preserve">
<text transform="matrix(1 0 0 1 137 8.5938)" font-family="'KaiTi'" font-size="10px">阿</text>
<text transform="matrix(1 0 0 1 147 8.5938)" font-family="'KaiTi'" font-size="10px">弥</text>
<text transform="matrix(1 0 0 1 157 8.5938)" font-family="'KaiTi'" font-size="10px">陀</text>
<text transform="matrix(1 0 0 1 167 8.5938)" font-family="'KaiTi'" font-size="10px">婆</text>
<text transform="matrix(1 0 0 1 177 8.5938)" font-family="'KaiTi'" font-size="10px"> </text>
<text transform="matrix(1 0 0 1 187 8.5938)" font-family="'DFKaiShu-SB-Estd-BF'" font-size="10px">(</text>
<text transform="matrix(1 0 0 1 192 8.5938)" font-family="'TimesNewRomanPSMT'" font-size="10px">A</text>
<text transform="matrix(1 0 0 1 199.2217 8.5938)" font-family="'TimesNewRomanPSMT'" font-size="10px">m</text>
<text transform="matrix(1 0 0 1 207 8.5938)" font-family="'TimesNewRomanPSMT'" font-size="10px">i</text>
<text transform="matrix(1 0 0 1 209.7783 8.5938)" font-family="'TimesNewRomanPSMT'" font-size="10px">t</text>
<text transform="matrix(1 0 0 1 212.5566 8.5938)" font-family="'TimesNewRomanPSMT'" font-size="10px">ā</text>
<text transform="matrix(1 0 0 1 216.9951 8.5938)" font-family="'TimesNewRomanPSMT'" font-size="10px">b</text>
<text transform="matrix(1 0 0 1 221.9951 8.5938)" font-family="'TimesNewRomanPSMT'" font-size="10px">h</text>
<text transform="matrix(1 0 0 1 226.9951 8.5938)" font-family="'TimesNewRomanPSMT'" font-size="10px">a</text>
<text transform="matrix(1 0 0 1 231.4336 8.5938)" font-family="'DFKaiShu-SB-Estd-BF'" font-size="10px">)</text>
<text transform="matrix(1 0 0 1 236.4336 8.5938)" font-family="'KaiTi'" font-size="10px"> </text>
<text transform="matrix(1 0 0 1 246.4336 8.5938)" font-family="'KaiTi'" font-size="10px"> </text>
<text transform="matrix(1 0 0 1 251.4336 8.5938)" font-family="'KaiTi'" font-size="10px">无</text>
<text transform="matrix(1 0 0 1 261.4336 8.5938)" font-family="'KaiTi'" font-size="10px">量</text>
<text transform="matrix(1 0 0 1 271.4336 8.5938)" font-family="'KaiTi'" font-size="10px">光</text>
<text transform="matrix(1 0 0 1 137 22.5938)" font-family="'KaiTi'" font-size="10px">阿</text>
<text transform="matrix(1 0 0 1 147 22.5938)" font-family="'KaiTi'" font-size="10px">弥</text>
<text transform="matrix(1 0 0 1 157 22.5938)" font-family="'KaiTi'" font-size="10px">陀</text>
<text transform="matrix(1 0 0 1 167 22.5938)" font-family="'KaiTi'" font-size="10px">由</text>
<text transform="matrix(1 0 0 1 177 22.5938)" font-family="'KaiTi'" font-size="10px">须</text>
<text transform="matrix(1 0 0 1 187 22.5938)" font-family="'DFKaiShu-SB-Estd-BF'" font-size="10px">(</text>
<text transform="matrix(1 0 0 1 192 22.5938)" font-family="'TimesNewRomanPSMT'" font-size="10px">A</text>
<text transform="matrix(1 0 0 1 199.2217 22.5938)" font-family="'TimesNewRomanPSMT'" font-size="10px">m</text>
<text transform="matrix(1 0 0 1 207 22.5938)" font-family="'TimesNewRomanPSMT'" font-size="10px">i</text>
<text transform="matrix(1 0 0 1 209.7783 22.5938)" font-family="'TimesNewRomanPSMT'" font-size="10px">t</text>
<text transform="matrix(1 0 0 1 212.5566 22.5938)" font-family="'TimesNewRomanPSMT'" font-size="10px">ā</text>
<text transform="matrix(1 0 0 1 216.9951 22.5938)" font-family="'TimesNewRomanPSMT'" font-size="10px">y</text>
<text transform="matrix(1 0 0 1 221.9951 22.5938)" font-family="'TimesNewRomanPSMT'" font-size="10px">u</text>
<text transform="matrix(1 0 0 1 226.9951 22.5938)" font-family="'TimesNewRomanPSMT'" font-size="10px">s</text>
<text transform="matrix(1 0 0 1 230.8867 22.5938)" font-family="'DFKaiShu-SB-Estd-BF'" font-size="10px">)</text>
<text transform="matrix(1 0 0 1 235.8867 22.5938)" font-family="'KaiTi'" font-size="10px"> </text>
<text transform="matrix(1 0 0 1 245.8867 22.5938)" font-family="'KaiTi'" font-size="10px"> </text>
<text transform="matrix(1 0 0 1 250.8867 22.5938)" font-family="'KaiTi'" font-size="10px">无</text>
<text transform="matrix(1 0 0 1 260.8867 22.5938)" font-family="'KaiTi'" font-size="10px">量</text>
<text transform="matrix(1 0 0 1 270.8867 22.5938)" font-family="'KaiTi'" font-size="10px">寿</text>
<text transform="matrix(1 0 0 1 137 36.5938)" font-family="'KaiTi'" font-size="10px">阿</text>
<text transform="matrix(1 0 0 1 147 36.5938)" font-family="'KaiTi'" font-size="10px">弥</text>
<text transform="matrix(1 0 0 1 157 36.5938)" font-family="'KaiTi'" font-size="10px">陀</text>
<text transform="matrix(1 0 0 1 167 36.5938)" font-family="'DFKaiShu-SB-Estd-BF'" font-size="10px">(</text>
<text transform="matrix(1 0 0 1 172 36.5938)" font-family="'TimesNewRomanPSMT'" font-size="10px">A</text>
<text transform="matrix(1 0 0 1 179.2217 36.5938)" font-family="'TimesNewRomanPSMT'" font-size="10px">m</text>
<text transform="matrix(1 0 0 1 187 36.5938)" font-family="'TimesNewRomanPSMT'" font-size="10px">i</text>
<text transform="matrix(1 0 0 1 189.7783 36.5938)" font-family="'TimesNewRomanPSMT'" font-size="10px">t</text>
<text transform="matrix(1 0 0 1 192.5566 36.5938)" font-family="'TimesNewRomanPSMT'" font-size="10px">ā</text>
<text transform="matrix(1 0 0 1 196.9951 36.5938)" font-family="'DFKaiShu-SB-Estd-BF'" font-size="10px">)</text>
<text transform="matrix(1 0 0 1 137 50.5938)" font-family="'KaiTi'" font-size="10px">无</text>
<text transform="matrix(1 0 0 1 147 50.5938)" font-family="'KaiTi'" font-size="10px"> </text>
<text transform="matrix(1 0 0 1 157 50.5938)" font-family="'KaiTi'" font-size="10px">量</text>
<text transform="matrix(1 0 0 1 167 50.5938)" font-family="'KaiTi'" font-size="10px"> </text>
<text transform="matrix(1 0 0 1 177 50.5938)" font-family="'KaiTi'" font-size="10px"> </text>
<text transform="matrix(1 0 0 1 182 50.5938)" font-family="'KaiTi'" font-size="10px">直</text>
<text transform="matrix(1 0 0 1 192 50.5938)" font-family="'KaiTi'" font-size="10px">译</text>
<text transform="matrix(1 0 0 1 137 64.5938)" font-family="'KaiTi'" font-size="10px">无</text>
<text transform="matrix(1 0 0 1 147 64.5938)" font-family="'KaiTi'" font-size="10px">量</text>
<text transform="matrix(1 0 0 1 157 64.5938)" font-family="'KaiTi'" font-size="10px">寿</text>
<text transform="matrix(1 0 0 1 167 64.5938)" font-family="'KaiTi'" font-size="10px"> </text>
<text transform="matrix(1 0 0 1 177 64.5938)" font-family="'KaiTi'" font-size="10px"> </text>
<text transform="matrix(1 0 0 1 182 64.5938)" font-family="'KaiTi'" font-size="10px">意</text>
<text transform="matrix(1 0 0 1 192 64.5938)" font-family="'KaiTi'" font-size="10px">译</text>
<g>
	<line fill="none" stroke="#000000" stroke-width="0.5" stroke-miterlimit="10" x1="126.1" y1="12.5" x2="130.2" y2="12.5"/>
	<line fill="none" stroke="#000000" stroke-width="0.5" stroke-miterlimit="10" x1="130.1" y1="4.6" x2="134.2" y2="4.6"/>
	<line fill="none" stroke="#000000" stroke-width="0.5" stroke-miterlimit="10" x1="130.1" y1="19.7" x2="134.1" y2="19.7"/>
	<line fill="none" stroke="#000000" stroke-width="0.5" stroke-miterlimit="10" x1="130.2" y1="4.6" x2="130.2" y2="19.7"/>
</g>
<line fill="none" stroke="#000000" stroke-width="0.5" stroke-miterlimit="10" x1="239.7" y1="5.4" x2="247.7" y2="5.4"/>
<line fill="none" stroke="#000000" stroke-width="0.5" stroke-miterlimit="10" x1="239.7" y1="19.7" x2="247.7" y2="19.7"/>
<line fill="none" stroke="#000000" stroke-width="0.5" stroke-miterlimit="10" x1="170.6" y1="46.8" x2="178.6" y2="46.8"/>
<line fill="none" stroke="#000000" stroke-width="0.5" stroke-miterlimit="10" x1="170.6" y1="60.8" x2="178.6" y2="60.8"/>
<text transform="matrix(1 0 0 1 92 15.5938)" font-family="'KaiTi'" font-size="10px">二名说</text>
<text transform="matrix(1 0 0 1 92 36.5938)" font-family="'KaiTi'" font-size="10px">一名说</text>
<text transform="matrix(1 0 0 1 92 50.5938)" font-family="'KaiTi'" font-size="10px">二字译</text>
<text transform="matrix(1 0 0 1 92 64.5938)" font-family="'KaiTi'" font-size="10px">三字译</text>
<g>
	<line fill="none" stroke="#000000" stroke-width="0.5" stroke-miterlimit="10" x1="79.8" y1="23.4" x2="83.9" y2="23.4"/>
	<line fill="none" stroke="#000000" stroke-width="0.5" stroke-miterlimit="10" x1="83.7" y1="12.5" x2="87.8" y2="12.5"/>
	<line fill="none" stroke="#000000" stroke-width="0.5" stroke-miterlimit="10" x1="83.8" y1="33.3" x2="87.8" y2="33.3"/>
	<line fill="none" stroke="#000000" stroke-width="0.5" stroke-miterlimit="10" x1="83.9" y1="12.5" x2="83.9" y2="33.3"/>
</g>
<line fill="none" stroke="#000000" stroke-width="0.5" stroke-miterlimit="10" x1="126.2" y1="33.3" x2="134.2" y2="33.3"/>
<line fill="none" stroke="#000000" stroke-width="0.5" stroke-miterlimit="10" x1="126.1" y1="46.8" x2="134.1" y2="46.8"/>
<line fill="none" stroke="#000000" stroke-width="0.5" stroke-miterlimit="10" x1="126.2" y1="60.8" x2="134.2" y2="60.8"/>
<g>
	<line fill="none" stroke="#000000" stroke-width="0.5" stroke-miterlimit="10" x1="79.8" y1="54" x2="83.9" y2="54"/>
	<line fill="none" stroke="#000000" stroke-width="0.5" stroke-miterlimit="10" x1="83.7" y1="46.8" x2="87.8" y2="46.8"/>
	<line fill="none" stroke="#000000" stroke-width="0.5" stroke-miterlimit="10" x1="83.8" y1="60.8" x2="87.8" y2="60.8"/>
	<line fill="none" stroke="#000000" stroke-width="0.5" stroke-miterlimit="10" x1="83.9" y1="46.8" x2="83.9" y2="60.8"/>
</g>
<text transform="matrix(1 0 0 1 55.75 26.0938)" font-family="'KaiTi'" font-size="10px">本名</text>
<text transform="matrix(1 0 0 1 55.75 57.5938)" font-family="'KaiTi'" font-size="10px">译语</text>
<g>
	<line fill="none" stroke="#000000" stroke-width="0.5" stroke-miterlimit="10" x1="44.1" y1="38.3" x2="48.2" y2="38.3"/>
	<line fill="none" stroke="#000000" stroke-width="0.5" stroke-miterlimit="10" x1="48" y1="22.9" x2="52.1" y2="22.9"/>
	<line fill="none" stroke="#000000" stroke-width="0.5" stroke-miterlimit="10" x1="48.1" y1="53.8" x2="52.1" y2="53.8"/>
	<line fill="none" stroke="#000000" stroke-width="0.5" stroke-miterlimit="10" x1="48.2" y1="22.9" x2="48.2" y2="53.8"/>
</g>
<text transform="matrix(1 0 0 1 0 41.8438)" font-family="'KaiTi'" font-size="10px">阿弥陀佛</text>
</svg>
