<?xml version="1.0" encoding="utf-8"?>
<!-- Generator: Adobe Illustrator 21.1.0, SVG Export Plug-In . SVG Version: 6.00 Build 0)  -->
<svg version="1.1" id="圖層_1" xmlns="http://www.w3.org/2000/svg" xmlns:xlink="http://www.w3.org/1999/xlink" x="0px" y="0px"
	 viewBox="0 0 194 55.6" style="enable-background:new 0 0 194 55.6;" xml:space="preserve">
<style type="text/css">
	.st0{font-family:'KaiTi';}
	.st1{font-size:12px;}
	.st2{fill:none;}
	.st3{fill:none;stroke:#000000;stroke-width:0.5;stroke-miterlimit:10;}
</style>
<text transform="matrix(1 0 0 1 0 9.5977)"><tspan x="0" y="0" class="st0 st1">平生 - 專稱佛名  </tspan><tspan x="0" y="20.8" class="st0 st1">臨終 - 佛聖現前</tspan><tspan x="0" y="41.6" class="st0 st1">命終 - 心不顛倒</tspan></text>
<text transform="matrix(1 0 0 1 146 29.5977)" class="st0 st1">兩重因果</text>
<rect x="113.2" class="st2" width="12.8" height="55.6"/>
<text transform="matrix(1 0 0 1 113.1875 9.5977)"><tspan x="0" y="0" class="st0 st1">因</tspan><tspan x="0" y="14.4" class="st0 st1">果</tspan><tspan x="0" y="28.8" class="st0 st1">因</tspan><tspan x="0" y="43.2" class="st0 st1">果</tspan></text>
<line class="st3" x1="88" y1="6.6" x2="109.5" y2="6.6"/>
<line class="st3" x1="89" y1="48.1" x2="110.5" y2="48.1"/>
<g>
	<line class="st3" x1="88.5" y1="27.1" x2="109.5" y2="21.1"/>
	<line class="st3" x1="109.5" y1="35.1" x2="88.5" y2="27.1"/>
</g>
<g>
	<line class="st3" x1="132.1" y1="19.6" x2="132.1" y2="5.3"/>
	<line class="st3" x1="132.1" y1="19.6" x2="128.4" y2="19.6"/>
	<line class="st3" x1="132.1" y1="5.3" x2="128.4" y2="5.3"/>
	<line class="st3" x1="132.1" y1="12.5" x2="135.9" y2="12.5"/>
</g>
<g>
	<line class="st3" x1="132.1" y1="47.6" x2="132.1" y2="33.3"/>
	<line class="st3" x1="132.1" y1="47.6" x2="128.4" y2="47.6"/>
	<line class="st3" x1="132.1" y1="33.3" x2="128.4" y2="33.3"/>
	<line class="st3" x1="132.1" y1="40.5" x2="135.9" y2="40.5"/>
</g>
<g>
	<line class="st3" x1="139.1" y1="40.6" x2="139.1" y2="12.6"/>
	<line class="st3" x1="139.1" y1="40.6" x2="135.4" y2="40.6"/>
	<line class="st3" x1="139.1" y1="12.6" x2="135.4" y2="12.6"/>
	<line class="st3" x1="139.1" y1="26.8" x2="142.9" y2="26.8"/>
</g>
</svg>
