<?xml version="1.0" encoding="utf-8"?>
<!-- Generator: Adobe Illustrator 21.0.0, SVG Export Plug-In . SVG Version: 6.00 Build 0)  -->
<svg version="1.1" id="图层_1" xmlns="http://www.w3.org/2000/svg" xmlns:xlink="http://www.w3.org/1999/xlink" x="0px" y="0px"
	 viewBox="0 0 176 56.3" style="enable-background:new 0 0 176 56.3;" xml:space="preserve">
<style type="text/css">
	.st0{font-family:'KaiTi';}
	.st1{font-size:12px;}
	.st2{fill:none;}
	.st3{fill:none;stroke:#000000;stroke-width:0.5;stroke-miterlimit:10;}
</style>
<text transform="matrix(1 0 0 1 0 10.3125)" class="st0 st1">平生专持佛名</text>
<text transform="matrix(1 0 0 1 0 31.1125)" class="st0 st1">临终佛圣现前</text>
<text transform="matrix(1 0 0 1 0 51.9125)" class="st0 st1">命终心不颠倒</text>
<text transform="matrix(1 0 0 1 128 30.2979)" class="st0 st1">两重因果</text>
<rect x="95.2" y="0.7" class="st2" width="12.8" height="55.6"/>
<text transform="matrix(1 0 0 1 95.1875 10.3125)" class="st0 st1">因</text>
<text transform="matrix(1 0 0 1 95.1875 24.7126)" class="st0 st1">果</text>
<text transform="matrix(1 0 0 1 95.1875 39.1125)" class="st0 st1">因</text>
<text transform="matrix(1 0 0 1 95.1875 53.5125)" class="st0 st1">果</text>
<g>
	<line class="st3" x1="114.1" y1="20.3" x2="114.1" y2="6"/>
	<line class="st3" x1="114.1" y1="20.3" x2="110.4" y2="20.3"/>
	<line class="st3" x1="114.1" y1="6" x2="110.4" y2="6"/>
	<line class="st3" x1="114.1" y1="13.2" x2="117.9" y2="13.2"/>
</g>
<g>
	<line class="st3" x1="114.1" y1="48.3" x2="114.1" y2="34"/>
	<line class="st3" x1="114.1" y1="48.3" x2="110.4" y2="48.3"/>
	<line class="st3" x1="114.1" y1="34" x2="110.4" y2="34"/>
	<line class="st3" x1="114.1" y1="41.2" x2="117.9" y2="41.2"/>
</g>
<g>
	<line class="st3" x1="121.1" y1="41.3" x2="121.1" y2="13.3"/>
	<line class="st3" x1="121.1" y1="41.3" x2="117.4" y2="41.3"/>
	<line class="st3" x1="121.1" y1="13.3" x2="117.4" y2="13.3"/>
	<line class="st3" x1="121.1" y1="27.5" x2="124.9" y2="27.5"/>
</g>
<line class="st3" x1="75.3" y1="6" x2="92.3" y2="6"/>
<line class="st3" x1="75.3" y1="48.3" x2="92.3" y2="48.3"/>
<line class="st3" x1="92.3" y1="20.3" x2="75.3" y2="27.5"/>
<line class="st3" x1="92.3" y1="34" x2="75.3" y2="27.5"/>
</svg>
