<?xml version="1.0" encoding="utf-8"?>
<!-- Generator: Adobe Illustrator 21.0.0, SVG Export Plug-In . SVG Version: 6.00 Build 0)  -->
<svg version="1.1" id="圖層_1" xmlns="http://www.w3.org/2000/svg" xmlns:xlink="http://www.w3.org/1999/xlink" x="0px" y="0px"
	 viewBox="0 0 299.2 24.4" style="enable-background:new 0 0 299.2 24.4;" xml:space="preserve">
<style type="text/css">
	.st0{enable-background:new    ;}
	.st1{font-family:'KaiTi';}
	.st2{font-size:10px;}
	.st3{fill:none;stroke:#000000;stroke-width:0.5;stroke-miterlimit:10;}
</style>
<text transform="matrix(1 0 0 1 41.7499 8.5938)" class="st0"><tspan x="0" y="0" class="st1 st2">菩提心願</tspan><tspan x="0" y="14" class="st1 st2">菩提心行</tspan></text>
<text transform="matrix(1 0 0 1 -6.103516e-05 15.5939)" class="st1 st2">菩提心</text>
<g>
	<line class="st3" x1="33.2" y1="12.2" x2="36" y2="12.2"/>
	<line class="st3" x1="36" y1="5.3" x2="38.9" y2="5.3"/>
	<line class="st3" x1="36" y1="19.5" x2="38.9" y2="19.5"/>
	<line class="st3" x1="36" y1="5.1" x2="36" y2="19.7"/>
</g>
<line class="st3" x1="85.6" y1="5.3" x2="91.3" y2="5.3"/>
<line class="st3" x1="85.6" y1="19.5" x2="91.3" y2="19.5"/>
<text transform="matrix(1 0 0 1 94.5833 8.5938)" class="st0"><tspan x="0" y="0" class="st1 st2">四弘誓願</tspan><tspan x="0" y="14" class="st1 st2">六度萬行</tspan></text>
<line class="st3" x1="138.2" y1="5.3" x2="143.9" y2="5.3"/>
<line class="st3" x1="138.2" y1="19.5" x2="143.9" y2="19.5"/>
<text transform="matrix(1 0 0 1 146.8835 8.5938)" class="st0"><tspan x="0" y="0" class="st1 st2">此土所發</tspan><tspan x="0" y="14" class="st1 st2">淨土所行</tspan></text>
<g>
	<line class="st3" x1="196.2" y1="12.4" x2="193.4" y2="12.4"/>
	<line class="st3" x1="193.4" y1="19.3" x2="190.5" y2="19.3"/>
	<line class="st3" x1="193.4" y1="5.1" x2="190.5" y2="5.1"/>
	<line class="st3" x1="193.4" y1="19.5" x2="193.4" y2="4.9"/>
</g>
<text transform="matrix(1 0 0 1 199.1747 15.5938)" class="st1 st2">願共眾生同生淨土成佛</text>
</svg>
