<?xml version="1.0" encoding="utf-8"?>
<!-- Generator: Adobe Illustrator 16.0.0, SVG Export Plug-In . SVG Version: 6.00 Build 0)  -->
<!DOCTYPE svg PUBLIC "-//W3C//DTD SVG 1.1//EN" "http://www.w3.org/Graphics/SVG/1.1/DTD/svg11.dtd">
<svg version="1.1" id="图层_1" xmlns="http://www.w3.org/2000/svg" xmlns:xlink="http://www.w3.org/1999/xlink" x="0px" y="0px"
	 width="292.743px" height="108.924px" viewBox="0 0 292.743 108.924" enable-background="new 0 0 292.743 108.924"
	 xml:space="preserve">
<g>
	<text transform="matrix(1 0 0 1 0 50.1006)" font-family="'KaiTi'" font-size="10">五部九卷</text>
	<text transform="matrix(1 0 0 1 50.7788 22.0918)"><tspan x="0" y="0" font-family="'KaiTi'" font-size="10">教门</tspan><tspan x="0" y="56" font-family="'KaiTi'" font-size="10">行门</tspan></text>
	<text transform="matrix(1 0 0 1 81.0659 8.5938)"><tspan x="0" y="0" font-family="'KaiTi'" font-size="10">一文前玄义</tspan><tspan x="0" y="28" font-family="'KaiTi'" font-size="10">二依文释义</tspan><tspan x="0" y="56" font-family="'KaiTi'" font-size="10">一</tspan><tspan x="10" y="56" font-family="'KaiTi'" font-size="10" letter-spacing="20">教门</tspan><tspan x="0" y="84" font-family="'KaiTi'" font-size="10">二依文释义     </tspan></text>
	<text transform="matrix(1 0 0 1 141.8027 22.6587)"><tspan x="0" y="0" font-family="'KaiTi'" font-size="10">1.</tspan><tspan x="7.422" y="0" font-family="'KaiTi'" font-size="10" letter-spacing="20">序分</tspan><tspan x="0" y="14" font-family="'KaiTi'" font-size="10">2.</tspan><tspan x="7.422" y="14" font-family="'KaiTi'" font-size="10" letter-spacing="5">正宗分</tspan><tspan x="0" y="28" font-family="'KaiTi'" font-size="10">3.</tspan><tspan x="7.422" y="28" font-family="'KaiTi'" font-size="10" letter-spacing="5">流通分</tspan><tspan x="0" y="56" font-family="'KaiTi'" font-size="10">1.临时行法</tspan><tspan x="0" y="70" font-family="'KaiTi'" font-size="10">2.寻常行法</tspan><tspan x="0" y="84" font-family="'KaiTi'" font-size="10">3.别时行法</tspan></text>
	<text transform="matrix(1 0 0 1 202.0674 8.5938)" font-family="'KaiTi'" font-size="10" letter-spacing="5">玄义分</text>
	<text transform="matrix(1 0 0 1 202.0674 22.5938)" font-family="'KaiTi'" font-size="10" letter-spacing="5">序分义</text>
	<text transform="matrix(1 0 0 1 202.0674 36.5938)" font-family="'KaiTi'" font-size="10" letter-spacing="5">定善义</text>
	<text transform="matrix(1 0 0 1 202.0674 50.5938)" font-family="'KaiTi'" font-size="10" letter-spacing="5">散善义</text>
	<text transform="matrix(1 0 0 1 202.0674 64.5938)" font-family="'KaiTi'" font-size="10">观念法门</text>
	<text transform="matrix(1 0 0 0.98 202.0674 78.5938)" font-family="'KaiTi'" font-size="10" letter-spacing="5">法事赞</text>
	<text transform="matrix(1 0 0 1 202.0674 92.5938)" font-family="'KaiTi'" font-size="10">往生礼赞</text>
	<text transform="matrix(1 0 0 1 202.0674 106.5938)" font-family="'KaiTi'" font-size="10" letter-spacing="5">般舟赞</text>
	<text transform="matrix(1 0 0 1 252.7427 28.8682)"><tspan x="0" y="0" font-family="'KaiTi'" font-size="10">本疏四卷</tspan><tspan x="0" y="56" font-family="'KaiTi'" font-size="10">具疏五卷</tspan></text>
	<line fill="none" stroke="#000000" stroke-width="0.5" stroke-miterlimit="10" x1="44.549" y1="18.728" x2="44.549" y2="75.116"/>
	<line fill="none" stroke="#000000" stroke-width="0.5" stroke-miterlimit="10" x1="44.319" y1="18.987" x2="47.215" y2="18.987"/>
	<line fill="none" stroke="#000000" stroke-width="0.5" stroke-miterlimit="10" x1="44.319" y1="75.067" x2="47.215" y2="75.067"/>
	<line fill="none" stroke="#000000" stroke-width="0.5" stroke-miterlimit="10" x1="41.571" y1="46.809" x2="44.467" y2="46.809"/>
	<g>
		<line fill="none" stroke="#000000" stroke-width="0.5" stroke-miterlimit="10" x1="72.864" y1="18.987" x2="75.76" y2="18.987"/>
		<line fill="none" stroke="#000000" stroke-width="0.5" stroke-miterlimit="10" x1="75.76" y1="5.224" x2="78.656" y2="5.224"/>
		<line fill="none" stroke="#000000" stroke-width="0.5" stroke-miterlimit="10" x1="75.76" y1="32.674" x2="78.656" y2="32.674"/>
		<line fill="none" stroke="#000000" stroke-width="0.5" stroke-miterlimit="10" x1="75.76" y1="5.016" x2="75.76" y2="32.958"/>
	</g>
	<line fill="none" stroke="#000000" stroke-width="0.5" stroke-miterlimit="10" x1="132.887" y1="32.84" x2="135.783" y2="32.84"/>
	<line fill="none" stroke="#000000" stroke-width="0.5" stroke-miterlimit="10" x1="135.9" y1="19.195" x2="138.796" y2="19.195"/>
	<line fill="none" stroke="#000000" stroke-width="0.5" stroke-miterlimit="10" x1="135.9" y1="46.646" x2="138.796" y2="46.646"/>
	<line fill="none" stroke="#000000" stroke-width="0.5" stroke-miterlimit="10" x1="135.9" y1="18.987" x2="135.9" y2="46.929"/>
	<g>
		<line fill="none" stroke="#000000" stroke-width="0.5" stroke-miterlimit="10" x1="133.004" y1="89.039" x2="135.9" y2="89.039"/>
		<line fill="none" stroke="#000000" stroke-width="0.5" stroke-miterlimit="10" x1="135.9" y1="75.275" x2="138.796" y2="75.275"/>
		
			<line fill="none" stroke="#000000" stroke-width="0.5" stroke-miterlimit="10" x1="135.9" y1="102.726" x2="138.796" y2="102.726"/>
		<line fill="none" stroke="#000000" stroke-width="0.5" stroke-miterlimit="10" x1="135.9" y1="75.067" x2="135.9" y2="103.01"/>
	</g>
	<g>
		<line fill="none" stroke="#000000" stroke-width="0.5" stroke-miterlimit="10" x1="72.864" y1="75.067" x2="75.76" y2="75.067"/>
		<line fill="none" stroke="#000000" stroke-width="0.5" stroke-miterlimit="10" x1="75.76" y1="61.304" x2="78.656" y2="61.304"/>
		<line fill="none" stroke="#000000" stroke-width="0.5" stroke-miterlimit="10" x1="75.76" y1="88.755" x2="78.656" y2="88.755"/>
		<line fill="none" stroke="#000000" stroke-width="0.5" stroke-miterlimit="10" x1="75.76" y1="61.096" x2="75.76" y2="89.039"/>
	</g>
	<line fill="none" stroke="#000000" stroke-width="0.5" stroke-miterlimit="10" x1="132.875" y1="5.014" x2="198.374" y2="5.014"/>
	
		<line fill="none" stroke="#000000" stroke-width="0.5" stroke-miterlimit="10" x1="132.875" y1="60.887" x2="198.583" y2="60.887"/>
	<g>
		<line fill="none" stroke="#000000" stroke-width="0.5" stroke-miterlimit="10" x1="244.5" y1="46.929" x2="247.387" y2="46.929"/>
		<line fill="none" stroke="#000000" stroke-width="0.5" stroke-miterlimit="10" x1="244.5" y1="5.014" x2="247.387" y2="5.014"/>
		
			<line fill="none" stroke="#000000" stroke-width="0.5" stroke-miterlimit="10" x1="247.267" y1="26.101" x2="250.154" y2="26.101"/>
		<line fill="none" stroke="#000000" stroke-width="0.5" stroke-miterlimit="10" x1="247.383" y1="4.77" x2="247.383" y2="47.194"/>
	</g>
	<g>
		
			<line fill="none" stroke="#000000" stroke-width="0.5" stroke-miterlimit="10" x1="244.5" y1="103.046" x2="247.387" y2="103.046"/>
		<line fill="none" stroke="#000000" stroke-width="0.5" stroke-miterlimit="10" x1="244.5" y1="61.131" x2="247.387" y2="61.131"/>
		
			<line fill="none" stroke="#000000" stroke-width="0.5" stroke-miterlimit="10" x1="247.267" y1="82.217" x2="250.154" y2="82.217"/>
		
			<line fill="none" stroke="#000000" stroke-width="0.5" stroke-miterlimit="10" x1="247.383" y1="60.887" x2="247.383" y2="103.311"/>
	</g>
	<g>
		
			<line fill="none" stroke="#000000" stroke-width="0.5" stroke-miterlimit="10" x1="192.779" y1="75.918" x2="198.581" y2="75.918"/>
		
			<line fill="none" stroke="#000000" stroke-width="0.5" stroke-miterlimit="10" x1="192.779" y1="88.755" x2="198.581" y2="88.755"/>
		
			<line fill="none" stroke="#000000" stroke-width="0.5" stroke-miterlimit="10" x1="192.779" y1="103.01" x2="198.581" y2="103.01"/>
		
			<line fill="none" stroke="#000000" stroke-width="0.5" stroke-miterlimit="10" x1="192.779" y1="18.728" x2="198.372" y2="18.728"/>
		
			<line fill="none" stroke="#000000" stroke-width="0.5" stroke-miterlimit="10" x1="192.779" y1="32.958" x2="198.372" y2="32.958"/>
		
			<line fill="none" stroke="#000000" stroke-width="0.5" stroke-miterlimit="10" x1="192.779" y1="46.646" x2="198.372" y2="46.646"/>
		
			<line fill="none" stroke="#000000" stroke-width="0.5" stroke-miterlimit="10" x1="192.779" y1="32.958" x2="198.372" y2="46.646"/>
	</g>
</g>
</svg>
