<?xml version="1.0" encoding="utf-8"?>
<!-- Generator: Adobe Illustrator 16.0.0, SVG Export Plug-In . SVG Version: 6.00 Build 0)  -->
<!DOCTYPE svg PUBLIC "-//W3C//DTD SVG 1.1//EN" "http://www.w3.org/Graphics/SVG/1.1/DTD/svg11.dtd">
<svg version="1.1" id="图层_1" xmlns="http://www.w3.org/2000/svg" xmlns:xlink="http://www.w3.org/1999/xlink" x="0px" y="0px"
	 width="296.457px" height="79.97px" viewBox="0 0 296.457 79.97" enable-background="new 0 0 296.457 79.97" xml:space="preserve">
<text transform="matrix(1 0 0 1 0 56.7798)" font-family="'FZKTK--GBK1-0'" font-size="10">往生行相</text>
<text transform="matrix(1 0 0 1 48.4224 35.7041)"><tspan x="0" y="0" font-family="'FZKTK--GBK1-0'" font-size="10">正行</tspan><tspan x="0" y="42" font-family="'FZKTK--GBK1-0'" font-size="10">杂行</tspan></text>
<text transform="matrix(1 0 0 1 78.6445 8.5938)"><tspan x="0" y="0" font-family="'FZKTK--GBK1-0'" font-size="10" letter-spacing="20">读诵</tspan><tspan x="0" y="14" font-family="'FZKTK--GBK1-0'" font-size="10" letter-spacing="20">观察</tspan><tspan x="0" y="28" font-family="'FZKTK--GBK1-0'" font-size="10" letter-spacing="20">礼拜</tspan><tspan x="0" y="42" font-family="'FZKTK--GBK1-0'" font-size="10">赞叹供养</tspan><tspan x="0" y="56" font-family="'FZKTK--GBK1-0'" font-size="10" letter-spacing="20">称名</tspan></text>
<text transform="matrix(1 0 0 1 128.5283 64.5938)" font-family="'FZKTK--GBK1-0'" font-size="10">正定业</text>
<text transform="matrix(1 0 0 1 167.5576 39.9565)"><tspan x="0" y="0" font-family="'FZKTK--GBK1-0'" font-size="10" letter-spacing="3">心常亲近忆念</tspan><tspan x="0" y="14" font-family="'FZKTK--GBK1-0'" font-size="10" letter-spacing="3">不断名为无</tspan><tspan x="66.25" y="14" font-family="'FZKTK--GBK1-0'" font-size="10">间。</tspan></text>
<text transform="matrix(1 0 0 1 78.6445 77.7041)" font-family="'FZKTK--GBK1-0'" font-size="10">心常间断,虽可回向得生,众名疏杂之行。</text>
<text transform="matrix(1 0 0 1 256.457 66.7603)" font-family="'FZKTK--GBK1-0'" font-size="10">二行得失</text>
<g>
	<line fill="none" stroke="#000000" stroke-width="0.5" stroke-miterlimit="10" x1="72.895" y1="4.683" x2="72.895" y2="61.071"/>
	<line fill="none" stroke="#000000" stroke-width="0.5" stroke-miterlimit="10" x1="72.665" y1="4.942" x2="75.561" y2="4.942"/>
	<line fill="none" stroke="#000000" stroke-width="0.5" stroke-miterlimit="10" x1="72.665" y1="61.022" x2="75.561" y2="61.022"/>
	<line fill="none" stroke="#000000" stroke-width="0.5" stroke-miterlimit="10" x1="69.917" y1="32.764" x2="72.813" y2="32.764"/>
</g>
<line fill="none" stroke="#000000" stroke-width="0.5" stroke-miterlimit="10" x1="44.833" y1="32.344" x2="44.833" y2="75.238"/>
<line fill="none" stroke="#000000" stroke-width="0.5" stroke-miterlimit="10" x1="44.603" y1="32.594" x2="47.499" y2="32.594"/>
<line fill="none" stroke="#000000" stroke-width="0.5" stroke-miterlimit="10" x1="44.603" y1="75.188" x2="47.499" y2="75.188"/>
<line fill="none" stroke="#000000" stroke-width="0.5" stroke-miterlimit="10" x1="41.855" y1="53.802" x2="44.751" y2="53.802"/>
<line fill="none" stroke="#000000" stroke-width="0.5" stroke-miterlimit="10" x1="120.833" y1="61.071" x2="126.448" y2="61.071"/>
<text transform="matrix(1 0 0 1 128.5283 29.4521)" font-family="'FZKTK--GBK1-0'" font-size="10" letter-spacing="10">助业</text>
<g>
	
		<line fill="none" stroke="#000000" stroke-width="0.5" stroke-miterlimit="10" x1="120.741" y1="46.759" x2="123.628" y2="46.759"/>
	<line fill="none" stroke="#000000" stroke-width="0.5" stroke-miterlimit="10" x1="120.741" y1="4.844" x2="123.628" y2="4.844"/>
	<line fill="none" stroke="#000000" stroke-width="0.5" stroke-miterlimit="10" x1="123.508" y1="25.93" x2="126.395" y2="25.93"/>
	<line fill="none" stroke="#000000" stroke-width="0.5" stroke-miterlimit="10" x1="123.625" y1="4.6" x2="123.625" y2="47.024"/>
</g>
<g>
	
		<line fill="none" stroke="#000000" stroke-width="0.5" stroke-miterlimit="10" x1="160.182" y1="60.924" x2="163.068" y2="60.924"/>
	
		<line fill="none" stroke="#000000" stroke-width="0.5" stroke-miterlimit="10" x1="160.182" y1="25.929" x2="163.068" y2="25.929"/>
	<line fill="none" stroke="#000000" stroke-width="0.5" stroke-miterlimit="10" x1="162.947" y1="43.5" x2="165.835" y2="43.5"/>
	<line fill="none" stroke="#000000" stroke-width="0.5" stroke-miterlimit="10" x1="163.064" y1="25.688" x2="163.064" y2="61.19"/>
</g>
<line fill="none" stroke="#000000" stroke-width="0.5" stroke-miterlimit="10" x1="69.917" y1="75.173" x2="75.561" y2="75.173"/>
<line fill="none" stroke="#000000" stroke-width="0.5" stroke-miterlimit="10" x1="252.145" y1="62.892" x2="255.04" y2="62.892"/>
<line fill="none" stroke="#000000" stroke-width="0.5" stroke-miterlimit="10" x1="249.249" y1="50.486" x2="252.146" y2="50.486"/>
<line fill="none" stroke="#000000" stroke-width="0.5" stroke-miterlimit="10" x1="249.249" y1="75.161" x2="252.146" y2="75.161"/>
<line fill="none" stroke="#000000" stroke-width="0.5" stroke-miterlimit="10" x1="252.145" y1="50.234" x2="252.145" y2="75.406"/>
</svg>
