<?xml version="1.0" encoding="utf-8"?>
<!-- Generator: Adobe Illustrator 21.0.0, SVG Export Plug-In . SVG Version: 6.00 Build 0)  -->
<svg version="1.1" id="圖層_1" xmlns="http://www.w3.org/2000/svg" xmlns:xlink="http://www.w3.org/1999/xlink" x="0px" y="0px"
	 viewBox="0 0 100 80.4" style="enable-background:new 0 0 100 80.4;" xml:space="preserve">
<style type="text/css">
	.st0{enable-background:new    ;}
	.st1{font-family:'KaiTi';}
	.st2{font-size:10px;}
	.st3{letter-spacing:5;}
	.st4{fill:none;stroke:#000000;stroke-width:0.5;stroke-miterlimit:10;}
</style>
<text transform="matrix(1 0 0 1 -2.441406e-04 8.5937)" class="st0"><tspan x="0" y="0" class="st1 st2">五念門與五正行開合表</tspan><tspan x="0" y="14" class="st1 st2">禮拜門</tspan><tspan x="30" y="14" class="st1 st2 st3">   </tspan><tspan x="60" y="14" class="st1 st2">禮拜正行</tspan><tspan x="0" y="28" class="st1 st2">讚歎門</tspan><tspan x="30" y="28" class="st1 st2 st3">   </tspan><tspan x="60" y="28" class="st1 st2">讀誦正行</tspan><tspan x="0" y="42" class="st1 st2">作願門</tspan><tspan x="30" y="42" class="st1 st2 st3">   </tspan><tspan x="60" y="42" class="st1 st2">觀察正行</tspan><tspan x="0" y="56" class="st1 st2">觀察門</tspan><tspan x="30" y="56" class="st1 st2 st3">   </tspan><tspan x="60" y="56" class="st1 st2">稱名正行</tspan><tspan x="0" y="70" class="st1 st2">迴向門</tspan><tspan x="30" y="70" class="st1 st2 st3">   </tspan><tspan x="60" y="70" class="st1 st2">讚供正行</tspan></text>
<line class="st4" x1="32.3" y1="18.5" x2="57.2" y2="18.5"/>
<line class="st4" x1="32.3" y1="47.2" x2="57.2" y2="47.2"/>
<line class="st4" x1="32.7" y1="33.1" x2="57.2" y2="61.1"/>
<line class="st4" x1="32.3" y1="33.1" x2="57.2" y2="75"/>
<line class="st4" x1="57.2" y1="47.2" x2="32.3" y2="61.1"/>
<line class="st4" x1="32.3" y1="75" x2="57.2" y2="47.2"/>
</svg>
