<?xml version="1.0" encoding="utf-8"?>
<!-- Generator: Adobe Illustrator 21.0.0, SVG Export Plug-In . SVG Version: 6.00 Build 0)  -->
<svg version="1.1" id="圖層_1" xmlns="http://www.w3.org/2000/svg" xmlns:xlink="http://www.w3.org/1999/xlink" x="0px" y="0px"
	 viewBox="0 0 233 66.6" style="enable-background:new 0 0 233 66.6;" xml:space="preserve">
<style type="text/css">
	.st0{font-family:'KaiTi';}
	.st1{font-size:10px;}
	.st2{font-family:'DFKaiShu-SB-Estd-BF';}
	.st3{letter-spacing:5;}
	.st4{fill:none;stroke:#000000;stroke-width:0.5;stroke-miterlimit:10;}
</style>
<text transform="matrix(1 0 0 1 52 8.5938)"><tspan x="0" y="0" class="st0 st1">滅罪增上緣</tspan><tspan x="50" y="0" class="st2 st1">(</tspan><tspan x="55" y="0" class="st0 st1">增上緣</tspan><tspan x="85" y="0" class="st2 st1">)</tspan><tspan x="0" y="14" class="st0 st1">護念增上緣</tspan><tspan x="50" y="14" class="st2 st1">(</tspan><tspan x="55" y="14" class="st0 st1">親</tspan><tspan x="65" y="14" class="st0 st1 st3"> </tspan><tspan x="75" y="14" class="st0 st1">緣</tspan><tspan x="85" y="14" class="st2 st1">)</tspan><tspan x="0" y="28" class="st0 st1">見佛增上緣</tspan><tspan x="50" y="28" class="st2 st1">(</tspan><tspan x="55" y="28" class="st0 st1">近</tspan><tspan x="65" y="28" class="st0 st1 st3"> </tspan><tspan x="75" y="28" class="st0 st1">緣</tspan><tspan x="85" y="28" class="st2 st1">)</tspan><tspan x="0" y="42" class="st0 st1">攝生增上緣</tspan><tspan x="50" y="42" class="st2 st1">(</tspan><tspan x="55" y="42" class="st0 st1">增上緣</tspan><tspan x="85" y="42" class="st2 st1">)</tspan><tspan x="0" y="56" class="st0 st1">證生增上緣</tspan><tspan x="50" y="56" class="st2 st1">(</tspan><tspan x="55" y="56" class="st0 st1">親緣</tspan><tspan x="75" y="56" class="st2 st1">、</tspan><tspan x="85" y="56" class="st0 st1">近緣</tspan><tspan x="105" y="56" class="st2 st1">、</tspan><tspan x="115" y="56" class="st0 st1">增上緣</tspan><tspan x="145" y="56" class="st2 st1">)</tspan></text>
<g>
	<line class="st4" x1="45.6" y1="5.4" x2="45.6" y2="62"/>
	<line class="st4" x1="45.6" y1="5.4" x2="48.3" y2="5.4"/>
	<line class="st4" x1="45.6" y1="61.6" x2="48.3" y2="61.6"/>
	<line class="st4" x1="45.6" y1="33.5" x2="42.9" y2="33.5"/>
</g>
<text transform="matrix(1 0 0 1 0 37)" class="st0 st1">五增上緣</text>
<text transform="matrix(1 0 0 1 213 23)"><tspan x="0" y="0" class="st0 st1">現益</tspan><tspan x="0" y="35" class="st0 st1">當益</tspan></text>
<g>
	<line class="st4" x1="207.5" y1="33" x2="207.5" y2="5"/>
	<line class="st4" x1="207.5" y1="33" x2="147.2" y2="33"/>
	<line class="st4" x1="207.5" y1="4.7" x2="147.2" y2="4.7"/>
	<line class="st4" x1="207.5" y1="18.9" x2="210.3" y2="18.9"/>
</g>
<g>
	<line class="st4" x1="207.5" y1="62" x2="207.5" y2="47.5"/>
	<line class="st4" x1="207.5" y1="62" x2="204.7" y2="62"/>
	<line class="st4" x1="207.5" y1="47.5" x2="147.2" y2="47.5"/>
	<line class="st4" x1="207.5" y1="54.8" x2="210.3" y2="54.8"/>
</g>
</svg>
