<?xml version="1.0" encoding="utf-8"?>
<!-- Generator: Adobe Illustrator 21.0.0, SVG Export Plug-In . SVG Version: 6.00 Build 0)  -->
<svg version="1.1" baseProfile="tiny" id="圖層_1"
	 xmlns="http://www.w3.org/2000/svg" xmlns:xlink="http://www.w3.org/1999/xlink" x="0px" y="0px" viewBox="0 0 130.4 66.4"
	 xml:space="preserve">
<text transform="matrix(1 0 0 1 40.3752 8.5937)" font-family="'KaiTi'" font-size="10px">禮</text>
<text transform="matrix(1 0 0 1 50.3752 8.5937)" font-family="'KaiTi'" font-size="10px">拜</text>
<text transform="matrix(1 0 0 1 60.3752 8.5937)" font-family="'KaiTi'" font-size="10px">門</text>
<text transform="matrix(1 0 0 1 70.3752 8.5937)" font-family="'KaiTi'" font-size="10px"> </text>
<text transform="matrix(1 0 0 1 80.3752 8.5937)" font-family="'KaiTi'" font-size="10px">身</text>
<text transform="matrix(1 0 0 1 90.3752 8.5937)" font-family="'KaiTi'" font-size="10px">業</text>
<text transform="matrix(1 0 0 1 40.3752 22.5937)" font-family="'KaiTi'" font-size="10px">讚</text>
<text transform="matrix(1 0 0 1 50.3752 22.5937)" font-family="'KaiTi'" font-size="10px">歎</text>
<text transform="matrix(1 0 0 1 60.3752 22.5937)" font-family="'KaiTi'" font-size="10px">門</text>
<text transform="matrix(1 0 0 1 70.3752 22.5937)" font-family="'KaiTi'" font-size="10px"> </text>
<text transform="matrix(1 0 0 1 80.3752 22.5937)" font-family="'KaiTi'" font-size="10px">口</text>
<text transform="matrix(1 0 0 1 90.3752 22.5937)" font-family="'KaiTi'" font-size="10px">業</text>
<text transform="matrix(1 0 0 1 40.3752 29.5937)" font-family="'KaiTi'" font-size="10px"> </text>
<text transform="matrix(1 0 0 1 50.3752 29.5937)" font-family="'KaiTi'" font-size="10px"> </text>
<text transform="matrix(1 0 0 1 60.3752 29.5937)" font-family="'KaiTi'" font-size="10px"> </text>
<text transform="matrix(1 0 0 1 70.3752 29.5937)" font-family="'KaiTi'" font-size="10px"> </text>
<text transform="matrix(1 0 0 1 80.3752 29.5937)" font-family="'KaiTi'" font-size="10px"> </text>
<text transform="matrix(1 0 0 1 90.3752 29.5937)" font-family="'KaiTi'" font-size="10px"> </text>
<text transform="matrix(1 0 0 1 100.3752 29.5937)" font-family="'KaiTi'" font-size="10px"> </text>
<text transform="matrix(1 0 0 1 110.3752 29.5937)" font-family="'KaiTi'" font-size="10px">自</text>
<text transform="matrix(1 0 0 1 120.3752 29.5937)" font-family="'KaiTi'" font-size="10px">利</text>
<text transform="matrix(1 0 0 1 40.3752 36.5937)" font-family="'KaiTi'" font-size="10px">作</text>
<text transform="matrix(1 0 0 1 50.3752 36.5937)" font-family="'KaiTi'" font-size="10px">願</text>
<text transform="matrix(1 0 0 1 60.3752 36.5937)" font-family="'KaiTi'" font-size="10px">門</text>
<text transform="matrix(1 0 0 1 40.3752 43.5937)" font-family="'KaiTi'" font-size="10px"> </text>
<text transform="matrix(1 0 0 1 50.3752 43.5937)" font-family="'KaiTi'" font-size="10px"> </text>
<text transform="matrix(1 0 0 1 60.3752 43.5937)" font-family="'KaiTi'" font-size="10px"> </text>
<text transform="matrix(1 0 0 1 70.3752 43.5937)" font-family="'KaiTi'" font-size="10px"> </text>
<text transform="matrix(1 0 0 1 80.3752 43.5937)" font-family="'KaiTi'" font-size="10px">意</text>
<text transform="matrix(1 0 0 1 90.3752 43.5937)" font-family="'KaiTi'" font-size="10px">業</text>
<text transform="matrix(1 0 0 1 40.3752 50.5937)" font-family="'KaiTi'" font-size="10px">觀</text>
<text transform="matrix(1 0 0 1 50.3752 50.5937)" font-family="'KaiTi'" font-size="10px">察</text>
<text transform="matrix(1 0 0 1 60.3752 50.5937)" font-family="'KaiTi'" font-size="10px">門</text>
<text transform="matrix(1 0 0 1 40.3752 64.5937)" font-family="'KaiTi'" font-size="10px">迴</text>
<text transform="matrix(1 0 0 1 50.3752 64.5937)" font-family="'KaiTi'" font-size="10px">向</text>
<text transform="matrix(1 0 0 1 60.3752 64.5937)" font-family="'KaiTi'" font-size="10px">門</text>
<text transform="matrix(1 0 0 1 70.3752 64.5937)" font-family="'KaiTi'" font-size="10px"> </text>
<text transform="matrix(1 0 0 1 80.3752 64.5937)" font-family="'KaiTi'" font-size="10px"> </text>
<text transform="matrix(1 0 0 1 90.3752 64.5937)" font-family="'KaiTi'" font-size="10px"> </text>
<text transform="matrix(1 0 0 1 100.3752 64.5937)" font-family="'KaiTi'" font-size="10px"> </text>
<text transform="matrix(1 0 0 1 110.3752 64.5937)" font-family="'KaiTi'" font-size="10px">利</text>
<text transform="matrix(1 0 0 1 120.3752 64.5937)" font-family="'KaiTi'" font-size="10px">他</text>
<g>
	<line fill="none" stroke="#000000" stroke-width="0.5" stroke-miterlimit="10" x1="75.4" y1="47.6" x2="75.4" y2="33.2"/>
	<line fill="none" stroke="#000000" stroke-width="0.5" stroke-miterlimit="10" x1="75.4" y1="47.6" x2="72.7" y2="47.6"/>
	<line fill="none" stroke="#000000" stroke-width="0.5" stroke-miterlimit="10" x1="75.4" y1="33.2" x2="72.7" y2="33.2"/>
	<line fill="none" stroke="#000000" stroke-width="0.5" stroke-miterlimit="10" x1="75.4" y1="40.4" x2="78.2" y2="40.4"/>
</g>
<line fill="none" stroke="#000000" stroke-width="0.5" stroke-miterlimit="10" x1="72.7" y1="18.6" x2="78.2" y2="18.6"/>
<line fill="none" stroke="#000000" stroke-width="0.5" stroke-miterlimit="10" x1="72.7" y1="4.9" x2="78.2" y2="4.9"/>
<g>
	<line fill="none" stroke="#000000" stroke-width="0.5" stroke-miterlimit="10" x1="34.6" y1="4.9" x2="34.6" y2="61"/>
	<line fill="none" stroke="#000000" stroke-width="0.5" stroke-miterlimit="10" x1="34.6" y1="4.9" x2="37.4" y2="4.9"/>
	<line fill="none" stroke="#000000" stroke-width="0.5" stroke-miterlimit="10" x1="34.6" y1="61" x2="37.4" y2="61"/>
	<line fill="none" stroke="#000000" stroke-width="0.5" stroke-miterlimit="10" x1="34.6" y1="33.2" x2="31.9" y2="33.2"/>
</g>
<g>
	<line fill="none" stroke="#000000" stroke-width="0.5" stroke-miterlimit="10" x1="106.3" y1="47.6" x2="106.3" y2="4.9"/>
	<line fill="none" stroke="#000000" stroke-width="0.5" stroke-miterlimit="10" x1="106.3" y1="47.6" x2="103.6" y2="47.6"/>
	<line fill="none" stroke="#000000" stroke-width="0.5" stroke-miterlimit="10" x1="106.3" y1="4.9" x2="103.6" y2="4.9"/>
	<line fill="none" stroke="#000000" stroke-width="0.5" stroke-miterlimit="10" x1="106.3" y1="26.3" x2="109.1" y2="26.3"/>
</g>
<line fill="none" stroke="#000000" stroke-width="0.5" stroke-miterlimit="10" x1="72.7" y1="61.4" x2="109.1" y2="61.4"/>
<text transform="matrix(1 0 0 1 0 36.5937)" font-family="'KaiTi'" font-size="10px">五念門</text>
</svg>
