<?xml version="1.0" encoding="utf-8"?>
<!-- Generator: Adobe Illustrator 21.0.0, SVG Export Plug-In . SVG Version: 6.00 Build 0)  -->
<svg version="1.1" id="圖層_1" xmlns="http://www.w3.org/2000/svg" xmlns:xlink="http://www.w3.org/1999/xlink" x="0px" y="0px"
	 viewBox="0 0 234.7 66.4" style="enable-background:new 0 0 234.7 66.4;" xml:space="preserve">
<style type="text/css">
	.st0{font-family:'KaiTi';}
	.st1{font-size:10px;}
	.st2{fill:none;stroke:#000000;stroke-width:0.5;stroke-miterlimit:10;}
</style>
<text transform="matrix(1 0 0 1 83.0003 8.5938)"><tspan x="0" y="0" class="st0 st1">本願文</tspan><tspan x="0" y="14" class="st0 st1">本懷文</tspan><tspan x="0" y="28" class="st0 st1">成就文</tspan><tspan x="0" y="42" class="st0 st1">付囑文</tspan><tspan x="0" y="56" class="st0 st1">特留文</tspan></text>
<text transform="matrix(1 0 0 1 31.1669 8.5938)"><tspan x="0" y="0" class="st0 st1">彌陀一得</tspan><tspan x="0" y="14" class="st0 st1">釋迦一惠</tspan><tspan x="0" y="42" class="st0 st1">眾生三得</tspan></text>
<g>
	<line class="st2" x1="25.5" y1="5.3" x2="25.5" y2="46.9"/>
	<line class="st2" x1="25.5" y1="5.3" x2="28.2" y2="5.3"/>
	<line class="st2" x1="25.5" y1="46.9" x2="28.2" y2="46.9"/>
	<line class="st2" x1="25.5" y1="26.1" x2="22.7" y2="26.1"/>
</g>
<text transform="matrix(1 0 0 1 2.441406e-04 29.5938)" class="st0 st1">五得</text>
<line class="st2" x1="74.9" y1="5.3" x2="80.2" y2="5.3"/>
<line class="st2" x1="74.9" y1="19.3" x2="80.2" y2="19.3"/>
<g>
	<line class="st2" x1="77.2" y1="33.2" x2="77.2" y2="60.8"/>
	<line class="st2" x1="77.2" y1="33.2" x2="79.9" y2="33.2"/>
	<line class="st2" x1="77.2" y1="60.8" x2="79.9" y2="60.8"/>
	<line class="st2" x1="77.2" y1="46.9" x2="74.4" y2="46.9"/>
</g>
<text transform="matrix(1 0 0 1 123.7503 8.5938)"><tspan x="0" y="0" class="st0 st1">得佛</tspan><tspan x="0" y="14" class="st0 st1">惠真實利</tspan><tspan x="0" y="28" class="st0 st1">得往生</tspan><tspan x="0" y="42" class="st0 st1">得大利</tspan><tspan x="0" y="56" class="st0 st1">得度</tspan></text>
<line class="st2" x1="115.9" y1="5.3" x2="121.2" y2="5.3"/>
<line class="st2" x1="115.9" y1="19.3" x2="121.2" y2="19.3"/>
<line class="st2" x1="115.9" y1="33" x2="121.2" y2="33"/>
<line class="st2" x1="115.9" y1="47" x2="121.2" y2="47"/>
<line class="st2" x1="115.9" y1="60.8" x2="121.2" y2="60.8"/>
<g>
	<line class="st2" x1="168.9" y1="61" x2="168.9" y2="5.5"/>
	<line class="st2" x1="168.9" y1="60.8" x2="166.2" y2="60.8"/>
	<line class="st2" x1="168.9" y1="5.3" x2="166.2" y2="5.3"/>
	<line class="st2" x1="168.9" y1="33.2" x2="171.7" y2="33.2"/>
</g>
<text transform="matrix(1 0 0 1 174.6503 36.5938)" class="st0 st1">南無阿彌陀佛</text>
</svg>
