<?xml version="1.0" encoding="utf-8"?>
<!-- Generator: Adobe Illustrator 21.0.0, SVG Export Plug-In . SVG Version: 6.00 Build 0)  -->
<svg version="1.1" id="图层_1" xmlns="http://www.w3.org/2000/svg" xmlns:xlink="http://www.w3.org/1999/xlink" x="0px" y="0px"
	 viewBox="0 0 166.3 66.4" style="enable-background:new 0 0 166.3 66.4;" xml:space="preserve">
<style type="text/css">
	.st0{font-family:'KaiTi';}
	.st1{font-size:10px;}
	.st2{letter-spacing:5;}
	.st3{fill:none;stroke:#000000;stroke-width:0.5;stroke-miterlimit:10;}
</style>
<text transform="matrix(1 0 0 1 22.8335 8.5938)"><tspan x="0" y="0" class="st0 st1">礼拜门</tspan><tspan x="30" y="0" class="st0 st1 st2">   </tspan><tspan x="60" y="0" class="st0 st1">读 诵 正 行</tspan><tspan x="0" y="14" class="st0 st1">赞叹门</tspan><tspan x="30" y="14" class="st0 st1 st2">   </tspan><tspan x="60" y="14" class="st0 st1">观 察 正 行</tspan><tspan x="0" y="28" class="st0 st1">作愿门</tspan><tspan x="30" y="28" class="st0 st1 st2">   </tspan><tspan x="60" y="28" class="st0 st1">礼 拜 正 行</tspan><tspan x="0" y="42" class="st0 st1">观察门</tspan><tspan x="30" y="42" class="st0 st1 st2">   </tspan><tspan x="60" y="42" class="st0 st1">称 名 正 行</tspan><tspan x="0" y="56" class="st0 st1">回向门</tspan><tspan x="30" y="56" class="st0 st1 st2">   </tspan><tspan x="60" y="56" class="st0 st1">赞叹供养正行</tspan></text>
<line class="st3" x1="54.8" y1="5" x2="80.8" y2="33.1"/>
<line class="st3" x1="80.8" y1="19.1" x2="54.8" y2="46.9"/>
<line class="st3" x1="54.8" y1="19.1" x2="80.8" y2="46.9"/>
<line class="st3" x1="80.8" y1="60.8" x2="54.8" y2="19.1"/>
<g>
	<line class="st3" x1="16.5" y1="5" x2="16.5" y2="60.8"/>
	<line class="st3" x1="16.5" y1="5" x2="20.3" y2="5"/>
	<line class="st3" x1="16.5" y1="60.8" x2="20.3" y2="60.8"/>
	<line class="st3" x1="16.5" y1="32.9" x2="12.8" y2="32.9"/>
</g>
<g>
	<line class="st3" x1="149.6" y1="61" x2="149.6" y2="5.1"/>
	<line class="st3" x1="149.6" y1="61" x2="145.8" y2="61"/>
	<line class="st3" x1="149.6" y1="5.1" x2="140.2" y2="5.1"/>
	<line class="st3" x1="149.6" y1="33.1" x2="153.3" y2="33.1"/>
</g>
<text transform="matrix(1 0 0 1 1.621246e-04 22.5938)"><tspan x="0" y="0" class="st0 st1">五</tspan><tspan x="0" y="14" class="st0 st1">念</tspan><tspan x="0" y="28" class="st0 st1">门</tspan></text>
<text transform="matrix(1 0 0 1 156.3006 22.5938)"><tspan x="0" y="0" class="st0 st1">五</tspan><tspan x="0" y="14" class="st0 st1">正</tspan><tspan x="0" y="28" class="st0 st1">行</tspan></text>
</svg>
