<?xml version="1.0" encoding="utf-8"?>
<!-- Generator: Adobe Illustrator 21.0.0, SVG Export Plug-In . SVG Version: 6.00 Build 0)  -->
<svg version="1.1" baseProfile="tiny" id="圖層_1"
	 xmlns="http://www.w3.org/2000/svg" xmlns:xlink="http://www.w3.org/1999/xlink" x="0px" y="0px" viewBox="0 0 211.8 66.4"
	 overflow="scroll" xml:space="preserve">
<text transform="matrix(1 0 0 1 1.525879e-05 36.8772)" font-family="'KaiTi'" font-size="10px">五正行</text>
<text transform="matrix(1 0 0 1 41.8394 8.5937)" font-family="'KaiTi'" font-size="10px">讀</text>
<text transform="matrix(1 0 0 1 51.8394 8.5937)" font-family="'KaiTi'" font-size="10px">誦</text>
<text transform="matrix(1 0 0 1 61.8394 8.5937)" font-family="'KaiTi'" font-size="10px">正</text>
<text transform="matrix(1 0 0 1 71.8394 8.5937)" font-family="'KaiTi'" font-size="10px">行</text>
<text transform="matrix(1 0 0 1 81.8394 8.5937)" font-family="'KaiTi'" font-size="10px"> </text>
<text transform="matrix(1 0 0 1 91.8394 8.5937)" font-family="'KaiTi'" font-size="10px">專</text>
<text transform="matrix(1 0 0 1 101.8394 8.5937)" font-family="'KaiTi'" font-size="10px">讀</text>
<text transform="matrix(1 0 0 1 111.8394 8.5937)" font-family="'KaiTi'" font-size="10px">誦</text>
<text transform="matrix(1 0 0 1 121.8394 8.5937)" font-family="'KaiTi'" font-size="10px">淨</text>
<text transform="matrix(1 0 0 1 131.8394 8.5937)" font-family="'KaiTi'" font-size="10px">土</text>
<text transform="matrix(1 0 0 1 141.8394 8.5937)" font-family="'KaiTi'" font-size="10px">三</text>
<text transform="matrix(1 0 0 1 151.8394 8.5937)" font-family="'KaiTi'" font-size="10px">經</text>
<text transform="matrix(1 0 0 1 41.8394 22.5937)" font-family="'KaiTi'" font-size="10px">觀</text>
<text transform="matrix(1 0 0 1 51.8394 22.5937)" font-family="'KaiTi'" font-size="10px">察</text>
<text transform="matrix(1 0 0 1 61.8394 22.5937)" font-family="'KaiTi'" font-size="10px">正</text>
<text transform="matrix(1 0 0 1 71.8394 22.5937)" font-family="'KaiTi'" font-size="10px">行</text>
<text transform="matrix(1 0 0 1 81.8394 22.5937)" font-family="'KaiTi'" font-size="10px"> </text>
<text transform="matrix(1 0 0 1 91.8394 22.5937)" font-family="'KaiTi'" font-size="10px">專</text>
<text transform="matrix(1 0 0 1 101.8394 22.5937)" font-family="'KaiTi'" font-size="10px">觀</text>
<text transform="matrix(1 0 0 1 111.8394 22.5937)" font-family="'KaiTi'" font-size="10px">察</text>
<text transform="matrix(1 0 0 1 121.8394 22.5937)" font-family="'KaiTi'" font-size="10px">極</text>
<text transform="matrix(1 0 0 1 131.8394 22.5937)" font-family="'KaiTi'" font-size="10px">樂</text>
<text transform="matrix(1 0 0 1 141.8394 22.5937)" font-family="'KaiTi'" font-size="10px">依</text>
<text transform="matrix(1 0 0 1 151.8394 22.5937)" font-family="'KaiTi'" font-size="10px">正</text>
<text transform="matrix(1 0 0 1 161.8394 22.5937)" font-family="'KaiTi'" font-size="10px"> </text>
<text transform="matrix(1 0 0 1 171.8394 22.5937)" font-family="'KaiTi'" font-size="10px"> </text>
<text transform="matrix(1 0 0 1 181.8394 22.5937)" font-family="'KaiTi'" font-size="10px">助</text>
<text transform="matrix(1 0 0 1 191.8394 22.5937)" font-family="'KaiTi'" font-size="10px"> </text>
<text transform="matrix(1 0 0 1 201.8394 22.5937)" font-family="'KaiTi'" font-size="10px">業</text>
<text transform="matrix(1 0 0 1 41.8394 36.5937)" font-family="'KaiTi'" font-size="10px">禮</text>
<text transform="matrix(1 0 0 1 51.8394 36.5937)" font-family="'KaiTi'" font-size="10px">拜</text>
<text transform="matrix(1 0 0 1 61.8394 36.5937)" font-family="'KaiTi'" font-size="10px">正</text>
<text transform="matrix(1 0 0 1 71.8394 36.5937)" font-family="'KaiTi'" font-size="10px">行</text>
<text transform="matrix(1 0 0 1 81.8394 36.5937)" font-family="'KaiTi'" font-size="10px"> </text>
<text transform="matrix(1 0 0 1 91.8394 36.5937)" font-family="'KaiTi'" font-size="10px">專</text>
<text transform="matrix(1 0 0 1 101.8394 36.5937)" font-family="'KaiTi'" font-size="10px">禮</text>
<text transform="matrix(1 0 0 1 111.8394 36.5937)" font-family="'KaiTi'" font-size="10px">拜</text>
<text transform="matrix(1 0 0 1 121.8394 36.5937)" font-family="'KaiTi'" font-size="10px">阿</text>
<text transform="matrix(1 0 0 1 131.8394 36.5937)" font-family="'KaiTi'" font-size="10px">彌</text>
<text transform="matrix(1 0 0 1 141.8394 36.5937)" font-family="'KaiTi'" font-size="10px">陀</text>
<text transform="matrix(1 0 0 1 151.8394 36.5937)" font-family="'KaiTi'" font-size="10px">佛</text>
<text transform="matrix(1 0 0 1 41.8394 50.5937)" font-family="'KaiTi'" font-size="10px">稱</text>
<text transform="matrix(1 0 0 1 51.8394 50.5937)" font-family="'KaiTi'" font-size="10px">名</text>
<text transform="matrix(1 0 0 1 61.8394 50.5937)" font-family="'KaiTi'" font-size="10px">正</text>
<text transform="matrix(1 0 0 1 71.8394 50.5937)" font-family="'KaiTi'" font-size="10px">行</text>
<text transform="matrix(1 0 0 1 81.8394 50.5937)" font-family="'KaiTi'" font-size="10px"> </text>
<text transform="matrix(1 0 0 1 91.8394 50.5937)" font-family="'KaiTi'" font-size="10px">專</text>
<text transform="matrix(1 0 0 1 101.8394 50.5937)" font-family="'KaiTi'" font-size="10px">稱</text>
<text transform="matrix(1 0 0 1 111.8394 50.5937)" font-family="'KaiTi'" font-size="10px">念</text>
<text transform="matrix(1 0 0 1 121.8394 50.5937)" font-family="'KaiTi'" font-size="10px">阿</text>
<text transform="matrix(1 0 0 1 131.8394 50.5937)" font-family="'KaiTi'" font-size="10px">彌</text>
<text transform="matrix(1 0 0 1 141.8394 50.5937)" font-family="'KaiTi'" font-size="10px">陀</text>
<text transform="matrix(1 0 0 1 151.8394 50.5937)" font-family="'KaiTi'" font-size="10px">佛</text>
<text transform="matrix(1 0 0 1 161.8394 50.5937)" font-family="'KaiTi'" font-size="10px"> </text>
<text transform="matrix(1 0 0 1 171.8394 50.5937)" font-family="'KaiTi'" font-size="10px"> </text>
<text transform="matrix(1 0 0 1 181.8394 50.5937)" font-family="'KaiTi'" font-size="10px">正</text>
<text transform="matrix(1 0 0 1 191.8394 50.5937)" font-family="'KaiTi'" font-size="10px">定</text>
<text transform="matrix(1 0 0 1 201.8394 50.5937)" font-family="'KaiTi'" font-size="10px">業</text>
<text transform="matrix(1 0 0 1 41.8394 64.5937)" font-family="'KaiTi'" font-size="10px">讚</text>
<text transform="matrix(1 0 0 1 51.8394 64.5937)" font-family="'KaiTi'" font-size="10px">供</text>
<text transform="matrix(1 0 0 1 61.8394 64.5937)" font-family="'KaiTi'" font-size="10px">正</text>
<text transform="matrix(1 0 0 1 71.8394 64.5937)" font-family="'KaiTi'" font-size="10px">行</text>
<text transform="matrix(1 0 0 1 81.8394 64.5937)" font-family="'KaiTi'" font-size="10px"> </text>
<text transform="matrix(1 0 0 1 91.8394 64.5937)" font-family="'KaiTi'" font-size="10px">專</text>
<text transform="matrix(1 0 0 1 101.8394 64.5937)" font-family="'KaiTi'" font-size="10px">讚</text>
<text transform="matrix(1 0 0 1 111.8394 64.5937)" font-family="'KaiTi'" font-size="10px">供</text>
<text transform="matrix(1 0 0 1 121.8394 64.5937)" font-family="'KaiTi'" font-size="10px">阿</text>
<text transform="matrix(1 0 0 1 131.8394 64.5937)" font-family="'KaiTi'" font-size="10px">彌</text>
<text transform="matrix(1 0 0 1 141.8394 64.5937)" font-family="'KaiTi'" font-size="10px">陀</text>
<text transform="matrix(1 0 0 1 151.8394 64.5937)" font-family="'KaiTi'" font-size="10px">佛</text>
<g>
	<line fill="none" stroke="#000000" stroke-width="0.5" stroke-miterlimit="10" x1="36.1" y1="5.5" x2="36.1" y2="61.9"/>
	<line fill="none" stroke="#000000" stroke-width="0.5" stroke-miterlimit="10" x1="35.9" y1="5.8" x2="38.8" y2="5.8"/>
	<line fill="none" stroke="#000000" stroke-width="0.5" stroke-miterlimit="10" x1="35.9" y1="61.8" x2="38.8" y2="61.8"/>
	<line fill="none" stroke="#000000" stroke-width="0.5" stroke-miterlimit="10" x1="33.1" y1="33" x2="36" y2="33"/>
</g>
<line fill="none" stroke="#000000" stroke-width="0.5" stroke-miterlimit="10" x1="84.1" y1="5.5" x2="89.6" y2="5.5"/>
<line fill="none" stroke="#000000" stroke-width="0.5" stroke-miterlimit="10" x1="84.1" y1="33" x2="89.6" y2="33"/>
<line fill="none" stroke="#000000" stroke-width="0.5" stroke-miterlimit="10" x1="84.1" y1="19.5" x2="89.6" y2="19.5"/>
<line fill="none" stroke="#000000" stroke-width="0.5" stroke-miterlimit="10" x1="84.1" y1="47.5" x2="89.6" y2="47.5"/>
<line fill="none" stroke="#000000" stroke-width="0.5" stroke-miterlimit="10" x1="83.7" y1="61.8" x2="89.2" y2="61.8"/>
<line fill="none" stroke="#000000" stroke-width="0.5" stroke-miterlimit="10" x1="164.1" y1="19.5" x2="179.4" y2="19.5"/>
<line fill="none" stroke="#000000" stroke-width="0.5" stroke-miterlimit="10" x1="164.1" y1="47.5" x2="179.4" y2="47.5"/>
<line fill="none" stroke="#000000" stroke-width="0.5" stroke-miterlimit="10" x1="164.1" y1="5.5" x2="179.4" y2="19.5"/>
<line fill="none" stroke="#000000" stroke-width="0.5" stroke-miterlimit="10" x1="164.1" y1="33" x2="179.4" y2="19.5"/>
<line fill="none" stroke="#000000" stroke-width="0.5" stroke-miterlimit="10" x1="164.1" y1="61.8" x2="179.4" y2="19.5"/>
</svg>
