<?xml version="1.0" encoding="utf-8"?>
<!-- Generator: Adobe Illustrator 21.0.0, SVG Export Plug-In . SVG Version: 6.00 Build 0)  -->
<svg version="1.1" id="圖層_1" xmlns="http://www.w3.org/2000/svg" xmlns:xlink="http://www.w3.org/1999/xlink" x="0px" y="0px"
	 viewBox="0 0 164 66.4" style="enable-background:new 0 0 164 66.4;" xml:space="preserve">
<style type="text/css">
	.st0{font-family:'KaiTi';}
	.st1{font-size:10px;}
	.st2{fill:none;stroke:#000000;stroke-width:0.5;stroke-miterlimit:10;}
</style>
<text transform="matrix(1 0 0 1 134.0003 8.5938)"><tspan x="0" y="0" class="st0 st1">本願文</tspan><tspan x="0" y="14" class="st0 st1">成就文</tspan><tspan x="0" y="28" class="st0 st1">付囑文</tspan><tspan x="0" y="42" class="st0 st1">本懷文</tspan><tspan x="0" y="56" class="st0 st1">特留文</tspan></text>
<text transform="matrix(1 0 0 1 109.8336 8.5938)"><tspan x="0" y="0" class="st0 st1">因</tspan><tspan x="0" y="14" class="st0 st1">果</tspan></text>
<text transform="matrix(1 0 0 1 81.6669 15.5938)"><tspan x="0" y="0" class="st0 st1">體</tspan><tspan x="0" y="21" class="st0 st1">用</tspan><tspan x="0" y="35" class="st0 st1">在世</tspan><tspan x="0" y="49" class="st0 st1">滅後</tspan></text>
<text transform="matrix(1 0 0 1 30.1669 26.0938)"><tspan x="0" y="0" class="st0 st1">彌陀所讚</tspan><tspan x="0" y="31.5" class="st0 st1">釋迦能讚</tspan></text>
<line class="st2" x1="122.6" y1="19.8" x2="131" y2="19.8"/>
<line class="st2" x1="95.2" y1="33.5" x2="131" y2="33.5"/>
<line class="st2" x1="105.2" y1="47.2" x2="131" y2="47.2"/>
<line class="st2" x1="105.2" y1="60.8" x2="131" y2="60.8"/>
<line class="st2" x1="122.6" y1="6.2" x2="131" y2="6.2"/>
<g>
	<line class="st2" x1="24.5" y1="23.3" x2="24.5" y2="54"/>
	<line class="st2" x1="24.5" y1="23.3" x2="27.2" y2="23.3"/>
	<line class="st2" x1="24.5" y1="54" x2="27.2" y2="54"/>
	<line class="st2" x1="24.5" y1="38.6" x2="21.7" y2="38.6"/>
</g>
<text transform="matrix(1 0 0 1 2.441406e-04 41.8438)" class="st0 st1">五文</text>
<g>
	<line class="st2" x1="100.2" y1="6.2" x2="100.2" y2="19.8"/>
	<line class="st2" x1="100.1" y1="6.2" x2="107.8" y2="6.2"/>
	<line class="st2" x1="100.1" y1="19.8" x2="107.8" y2="19.8"/>
	<line class="st2" x1="100.2" y1="13" x2="95.2" y2="13"/>
</g>
<g>
	<line class="st2" x1="75.6" y1="13" x2="75.6" y2="33.5"/>
	<line class="st2" x1="75.5" y1="13" x2="78.2" y2="13"/>
	<line class="st2" x1="75.5" y1="33.5" x2="78.2" y2="33.5"/>
	<line class="st2" x1="75.6" y1="23.3" x2="73.1" y2="23.3"/>
</g>
<g>
	<line class="st2" x1="75.4" y1="47.2" x2="75.4" y2="60.8"/>
	<line class="st2" x1="75.4" y1="47.2" x2="78.1" y2="47.2"/>
	<line class="st2" x1="75.7" y1="60.8" x2="78.3" y2="60.8"/>
	<line class="st2" x1="75.4" y1="54" x2="72.9" y2="54"/>
</g>
</svg>
