<?xml version="1.0" encoding="utf-8"?>
<!-- Generator: Adobe Illustrator 21.0.0, SVG Export Plug-In . SVG Version: 6.00 Build 0)  -->
<svg version="1.1" id="圖層_1" xmlns="http://www.w3.org/2000/svg" xmlns:xlink="http://www.w3.org/1999/xlink" x="0px" y="0px"
	 viewBox="0 0 179 66.4" style="enable-background:new 0 0 179 66.4;" xml:space="preserve">
<style type="text/css">
	.st0{font-family:'KaiTi';}
	.st1{font-size:10px;}
	.st2{fill:none;stroke:#000000;stroke-width:0.5;stroke-miterlimit:10;}
</style>
<text transform="matrix(1 0 0 1 149.0003 8.5938)"><tspan x="0" y="0" class="st0 st1">本願文</tspan><tspan x="0" y="14" class="st0 st1">成就文</tspan><tspan x="0" y="28" class="st0 st1">付囑文</tspan><tspan x="0" y="42" class="st0 st1">本懷文</tspan><tspan x="0" y="56" class="st0 st1">特留文</tspan></text>
<text transform="matrix(1 0 0 1 114.1669 22.5938)"><tspan x="0" y="0" class="st0 st1">往生</tspan><tspan x="0" y="14" class="st0 st1">成佛</tspan><tspan x="0" y="28" class="st0 st1">在世</tspan><tspan x="0" y="42" class="st0 st1">滅後</tspan></text>
<text transform="matrix(1 0 0 1 82.6669 29.5938)"><tspan x="0" y="0" class="st0 st1">直讚</tspan><tspan x="0" y="28" class="st0 st1">因讚</tspan></text>
<text transform="matrix(1 0 0 1 31.1669 8.5938)"><tspan x="0" y="0" class="st0 st1">彌陀所讚</tspan><tspan x="0" y="35" class="st0 st1">釋迦能讚</tspan></text>
<g>
	<line class="st2" x1="108.5" y1="19.9" x2="108.5" y2="33.5"/>
	<line class="st2" x1="108.5" y1="19.9" x2="111.2" y2="19.9"/>
	<line class="st2" x1="108.5" y1="33.5" x2="111.2" y2="33.5"/>
	<line class="st2" x1="108.5" y1="26.7" x2="105.7" y2="26.7"/>
</g>
<g>
	<line class="st2" x1="108.5" y1="46.7" x2="108.5" y2="60.3"/>
	<line class="st2" x1="108.5" y1="46.7" x2="111.2" y2="46.7"/>
	<line class="st2" x1="108.5" y1="60.3" x2="111.2" y2="60.3"/>
	<line class="st2" x1="108.5" y1="53.5" x2="105.7" y2="53.5"/>
</g>
<line class="st2" x1="137.6" y1="19.8" x2="146" y2="19.8"/>
<line class="st2" x1="137.6" y1="33.5" x2="146" y2="33.5"/>
<line class="st2" x1="137.6" y1="47.2" x2="146" y2="47.2"/>
<line class="st2" x1="137.6" y1="60.8" x2="146" y2="60.8"/>
<line class="st2" x1="74.7" y1="6.2" x2="146" y2="6.2"/>
<g>
	<line class="st2" x1="77.5" y1="26.7" x2="77.5" y2="53.5"/>
	<line class="st2" x1="77.5" y1="26.7" x2="80.2" y2="26.7"/>
	<line class="st2" x1="77.5" y1="53.5" x2="80.2" y2="53.5"/>
	<line class="st2" x1="77.5" y1="40.1" x2="74.7" y2="40.1"/>
</g>
<g>
	<line class="st2" x1="25.5" y1="6.2" x2="25.5" y2="40.1"/>
	<line class="st2" x1="25.5" y1="6.2" x2="28.2" y2="6.2"/>
	<line class="st2" x1="25.5" y1="40.1" x2="28.2" y2="40.1"/>
	<line class="st2" x1="25.5" y1="23.1" x2="22.7" y2="23.1"/>
</g>
<text transform="matrix(1 0 0 1 2.365112e-04 26.0938)" class="st0 st1">五文</text>
</svg>
