<?xml version="1.0" encoding="utf-8"?>
<!-- Generator: Adobe Illustrator 21.0.0, SVG Export Plug-In . SVG Version: 6.00 Build 0)  -->
<svg version="1.1" baseProfile="tiny" id="圖層_1"
	 xmlns="http://www.w3.org/2000/svg" xmlns:xlink="http://www.w3.org/1999/xlink" x="0px" y="0px" viewBox="0 0 170.4 66.4"
	 overflow="scroll" xml:space="preserve">
<text transform="matrix(1 0 0 1 40.3752 8.5937)" font-family="'KaiTi'" font-size="10px">近</text>
<text transform="matrix(1 0 0 1 50.3752 8.5937)" font-family="'KaiTi'" font-size="10px"> </text>
<text transform="matrix(1 0 0 1 60.3752 8.5937)" font-family="'KaiTi'" font-size="10px">門</text>
<text transform="matrix(1 0 0 1 40.3752 22.5937)" font-family="'KaiTi'" font-size="10px">大</text>
<text transform="matrix(1 0 0 1 50.3752 22.5937)" font-family="'KaiTi'" font-size="10px">會</text>
<text transform="matrix(1 0 0 1 60.3752 22.5937)" font-family="'KaiTi'" font-size="10px">眾</text>
<text transform="matrix(1 0 0 1 70.3752 22.5937)" font-family="'KaiTi'" font-size="10px">門</text>
<text transform="matrix(1 0 0 1 40.3752 29.5937)" font-family="'KaiTi'" font-size="10px"> </text>
<text transform="matrix(1 0 0 1 50.3752 29.5937)" font-family="'KaiTi'" font-size="10px"> </text>
<text transform="matrix(1 0 0 1 60.3752 29.5937)" font-family="'KaiTi'" font-size="10px"> </text>
<text transform="matrix(1 0 0 1 70.3752 29.5937)" font-family="'KaiTi'" font-size="10px"> </text>
<text transform="matrix(1 0 0 1 80.3752 29.5937)" font-family="'KaiTi'" font-size="10px"> </text>
<text transform="matrix(1 0 0 1 90.3752 29.5937)" font-family="'KaiTi'" font-size="10px"> </text>
<text transform="matrix(1 0 0 1 100.3752 29.5937)" font-family="'KaiTi'" font-size="10px"> </text>
<text transform="matrix(1 0 0 1 110.3752 29.5937)" font-family="'KaiTi'" font-size="10px">入</text>
<text transform="matrix(1 0 0 1 120.3752 29.5937)" font-family="'KaiTi'" font-size="10px">功</text>
<text transform="matrix(1 0 0 1 130.3752 29.5937)" font-family="'KaiTi'" font-size="10px">德</text>
<text transform="matrix(1 0 0 1 140.3752 29.5937)" font-family="'KaiTi'" font-size="10px">(</text>
<text transform="matrix(1 0 0 1 145.3752 29.5937)" font-family="'KaiTi'" font-size="10px">自</text>
<text transform="matrix(1 0 0 1 155.3752 29.5937)" font-family="'KaiTi'" font-size="10px">利</text>
<text transform="matrix(1 0 0 1 165.3752 29.5937)" font-family="'KaiTi'" font-size="10px">)</text>
<text transform="matrix(1 0 0 1 40.3752 36.5937)" font-family="'KaiTi'" font-size="10px">宅</text>
<text transform="matrix(1 0 0 1 50.3752 36.5937)" font-family="'KaiTi'" font-size="10px"> </text>
<text transform="matrix(1 0 0 1 60.3752 36.5937)" font-family="'KaiTi'" font-size="10px">門</text>
<text transform="matrix(1 0 0 1 40.3752 43.5937)" font-family="'KaiTi'" font-size="10px"> </text>
<text transform="matrix(1 0 0 1 50.3752 43.5937)" font-family="'KaiTi'" font-size="10px"> </text>
<text transform="matrix(1 0 0 1 60.3752 43.5937)" font-family="'KaiTi'" font-size="10px"> </text>
<text transform="matrix(1 0 0 1 40.3752 50.5937)" font-family="'KaiTi'" font-size="10px">屋</text>
<text transform="matrix(1 0 0 1 50.3752 50.5937)" font-family="'KaiTi'" font-size="10px"> </text>
<text transform="matrix(1 0 0 1 60.3752 50.5937)" font-family="'KaiTi'" font-size="10px">門</text>
<text transform="matrix(1 0 0 1 40.3752 64.5937)" font-family="'KaiTi'" font-size="10px">園</text>
<text transform="matrix(1 0 0 1 50.3752 64.5937)" font-family="'KaiTi'" font-size="10px">林</text>
<text transform="matrix(1 0 0 1 60.3752 64.5937)" font-family="'KaiTi'" font-size="10px">遊</text>
<text transform="matrix(1 0 0 1 70.3752 64.5937)" font-family="'KaiTi'" font-size="10px">戲</text>
<text transform="matrix(1 0 0 1 80.3752 64.5937)" font-family="'KaiTi'" font-size="10px">地</text>
<text transform="matrix(1 0 0 1 90.3752 64.5937)" font-family="'KaiTi'" font-size="10px">門</text>
<text transform="matrix(1 0 0 1 100.3752 64.5937)" font-family="'KaiTi'" font-size="10px"> </text>
<text transform="matrix(1 0 0 1 110.3752 64.5937)" font-family="'KaiTi'" font-size="10px">出</text>
<text transform="matrix(1 0 0 1 120.3752 64.5937)" font-family="'KaiTi'" font-size="10px">功</text>
<text transform="matrix(1 0 0 1 130.3752 64.5937)" font-family="'KaiTi'" font-size="10px">德</text>
<text transform="matrix(1 0 0 1 140.3752 64.5937)" font-family="'KaiTi'" font-size="10px">(</text>
<text transform="matrix(1 0 0 1 145.3752 64.5937)" font-family="'KaiTi'" font-size="10px">利</text>
<text transform="matrix(1 0 0 1 155.3752 64.5937)" font-family="'KaiTi'" font-size="10px">他</text>
<text transform="matrix(1 0 0 1 165.3752 64.5937)" font-family="'KaiTi'" font-size="10px">)</text>
<g>
	<line fill="none" stroke="#000000" stroke-width="0.5" stroke-miterlimit="10" x1="34.6" y1="4.9" x2="34.6" y2="61"/>
	<line fill="none" stroke="#000000" stroke-width="0.5" stroke-miterlimit="10" x1="34.6" y1="4.9" x2="37.4" y2="4.9"/>
	<line fill="none" stroke="#000000" stroke-width="0.5" stroke-miterlimit="10" x1="34.6" y1="61" x2="37.4" y2="61"/>
	<line fill="none" stroke="#000000" stroke-width="0.5" stroke-miterlimit="10" x1="34.6" y1="33.2" x2="31.9" y2="33.2"/>
</g>
<g>
	<line fill="none" stroke="#000000" stroke-width="0.5" stroke-miterlimit="10" x1="105.3" y1="47.6" x2="105.3" y2="4.9"/>
	<line fill="none" stroke="#000000" stroke-width="0.5" stroke-miterlimit="10" x1="105.3" y1="47.6" x2="71.9" y2="47.6"/>
	<line fill="none" stroke="#000000" stroke-width="0.5" stroke-miterlimit="10" x1="105.3" y1="4.9" x2="71.9" y2="4.9"/>
	<line fill="none" stroke="#000000" stroke-width="0.5" stroke-miterlimit="10" x1="105.3" y1="26.3" x2="108.1" y2="26.3"/>
</g>
<line fill="none" stroke="#000000" stroke-width="0.5" stroke-miterlimit="10" x1="102.6" y1="61.4" x2="108.1" y2="61.4"/>
<text transform="matrix(1 0 0 1 0 36.5937)" font-family="'KaiTi'" font-size="10px">五果門</text>
</svg>
