<?xml version="1.0" encoding="utf-8"?>
<!-- Generator: Adobe Illustrator 21.0.0, SVG Export Plug-In . SVG Version: 6.00 Build 0)  -->
<svg version="1.1" id="图层_1" xmlns="http://www.w3.org/2000/svg" xmlns:xlink="http://www.w3.org/1999/xlink" x="0px" y="0px"
	 viewBox="0 0 148 66.4" style="enable-background:new 0 0 148 66.4;" xml:space="preserve">
<style type="text/css">
	.st0{font-family:'KaiTi';}
	.st1{font-size:10px;}
	.st2{fill:none;stroke:#000000;stroke-width:0.5;stroke-miterlimit:10;}
</style>
<text transform="matrix(1 0 0 1 118.0003 8.5938)"><tspan x="0" y="0" class="st0 st1">本愿文</tspan><tspan x="0" y="14" class="st0 st1">成就文</tspan><tspan x="0" y="28" class="st0 st1">付嘱文</tspan><tspan x="0" y="42" class="st0 st1">本怀文</tspan><tspan x="0" y="56" class="st0 st1">特留文</tspan></text>
<text transform="matrix(1 0 0 1 83.1669 8.5938)"><tspan x="0" y="0" class="st0 st1">因位</tspan><tspan x="0" y="14" class="st0 st1">果位</tspan><tspan x="0" y="28" class="st0 st1">直赞</tspan><tspan x="0" y="42" class="st0 st1">转赞</tspan><tspan x="0" y="56" class="st0 st1">留赞</tspan></text>
<text transform="matrix(1 0 0 1 31.1669 15.5938)"><tspan x="0" y="0" class="st0 st1">弥陀所赞</tspan><tspan x="0" y="35" class="st0 st1">释迦能赞</tspan></text>
<g>
	<line class="st2" x1="77.6" y1="5.3" x2="77.6" y2="19.8"/>
	<line class="st2" x1="77.6" y1="5.3" x2="80.3" y2="5.3"/>
	<line class="st2" x1="77.6" y1="19.8" x2="80.3" y2="19.8"/>
	<line class="st2" x1="77.6" y1="12.6" x2="74.8" y2="12.6"/>
</g>
<g>
	<line class="st2" x1="77.5" y1="33.5" x2="77.5" y2="60.3"/>
	<line class="st2" x1="77.6" y1="33.5" x2="80.3" y2="33.5"/>
	<line class="st2" x1="77.5" y1="60.3" x2="80.2" y2="60.3"/>
	<line class="st2" x1="77.5" y1="46.9" x2="74.7" y2="46.9"/>
</g>
<line class="st2" x1="106.6" y1="19.8" x2="115" y2="19.8"/>
<line class="st2" x1="106.6" y1="33.5" x2="115" y2="33.5"/>
<line class="st2" x1="106.6" y1="47.2" x2="115" y2="47.2"/>
<line class="st2" x1="106.6" y1="60.8" x2="115" y2="60.8"/>
<line class="st2" x1="106.6" y1="5.3" x2="115" y2="5.3"/>
<g>
	<line class="st2" x1="25.5" y1="13" x2="25.5" y2="46.9"/>
	<line class="st2" x1="25.5" y1="13" x2="28.2" y2="13"/>
	<line class="st2" x1="25.5" y1="46.9" x2="28.2" y2="46.9"/>
	<line class="st2" x1="25.5" y1="30" x2="22.7" y2="30"/>
</g>
<text transform="matrix(1 0 0 1 2.441406e-04 33.0938)" class="st0 st1">五文</text>
</svg>
