<?xml version="1.0" encoding="utf-8"?>
<!-- Generator: Adobe Illustrator 21.0.0, SVG Export Plug-In . SVG Version: 6.00 Build 0)  -->
<svg version="1.1" baseProfile="tiny" id="圖層_1"
	 xmlns="http://www.w3.org/2000/svg" xmlns:xlink="http://www.w3.org/1999/xlink" x="0px" y="0px" viewBox="0 0 292.743 108.924"
	 overflow="scroll" xml:space="preserve">
<text transform="matrix(1 0 0 1 0 50.1006)" font-family="KaiTi" font-size="10px">五部九卷</text>
<text transform="matrix(1 0 0 1 50.7788 22.0918)" font-family="KaiTi" font-size="10px">教門</text>
<text transform="matrix(1 0 0 1 50.7788 78.0918)" font-family="KaiTi" font-size="10px">行門</text>
<text transform="matrix(1 0 0 1 81.0659 8.5937)" font-family="KaiTi" font-size="10px">一</text>
<text transform="matrix(1 0 0 1 91.0659 8.5937)" font-family="KaiTi" font-size="10px">文</text>
<text transform="matrix(1 0 0 1 101.0659 8.5937)" font-family="KaiTi" font-size="10px">前</text>
<text transform="matrix(1 0 0 1 111.0659 8.5937)" font-family="KaiTi" font-size="10px">玄</text>
<text transform="matrix(1 0 0 1 121.0659 8.5937)" font-family="KaiTi" font-size="10px">義</text>
<text transform="matrix(1 0 0 1 81.0659 36.5938)" font-family="KaiTi" font-size="10px">二</text>
<text transform="matrix(1 0 0 1 91.0659 36.5938)" font-family="KaiTi" font-size="10px">依</text>
<text transform="matrix(1 0 0 1 101.0659 36.5938)" font-family="KaiTi" font-size="10px">文</text>
<text transform="matrix(1 0 0 1 111.0659 36.5938)" font-family="KaiTi" font-size="10px">釋</text>
<text transform="matrix(1 0 0 1 121.0659 36.5938)" font-family="KaiTi" font-size="10px">義</text>
<text transform="matrix(1 0 0 1 81.0659 64.5938)" font-family="KaiTi" font-size="10px">一</text>
<text transform="matrix(1 0 0 1 91.0659 64.5938)" font-family="KaiTi" font-size="10px">教</text>
<text transform="matrix(1 0 0 1 121.0659 64.5938)" font-family="KaiTi" font-size="10px">門</text>
<text transform="matrix(1 0 0 1 81.0659 92.5938)" font-family="KaiTi" font-size="10px">二</text>
<text transform="matrix(1 0 0 1 91.0659 92.5938)" font-family="KaiTi" font-size="10px">依</text>
<text transform="matrix(1 0 0 1 101.0659 92.5938)" font-family="KaiTi" font-size="10px">文</text>
<text transform="matrix(1 0 0 1 111.0659 92.5938)" font-family="KaiTi" font-size="10px">釋</text>
<text transform="matrix(1 0 0 1 121.0659 92.5938)" font-family="KaiTi" font-size="10px">義</text>
<text transform="matrix(1 0 0 1 131.0659 92.5938)" font-family="KaiTi" font-size="10px"> </text>
<text transform="matrix(1 0 0 1 133.8394 92.5938)" font-family="KaiTi" font-size="10px"> </text>
<text transform="matrix(1 0 0 1 136.6128 92.5938)" font-family="KaiTi" font-size="10px"> </text>
<text transform="matrix(1 0 0 1 139.3862 92.5938)" font-family="KaiTi" font-size="10px"> </text>
<text transform="matrix(1 0 0 1 142.1597 92.5938)" font-family="KaiTi" font-size="10px"> </text>
<text transform="matrix(1 0 0 1 141.8027 22.6587)" font-family="KaiTi" font-size="10px">1</text>
<text transform="matrix(1 0 0 1 146.6465 22.6587)" font-family="KaiTi" font-size="10px">.</text>
<text transform="matrix(1 0 0 1 149.2246 22.6587)" font-family="KaiTi" font-size="10px">序</text>
<text transform="matrix(1 0 0 1 179.2246 22.6587)" font-family="KaiTi" font-size="10px">分</text>
<text transform="matrix(1 0 0 1 141.8027 36.6587)" font-family="KaiTi" font-size="10px">2</text>
<text transform="matrix(1 0 0 1 146.6465 36.6587)" font-family="KaiTi" font-size="10px">.</text>
<text transform="matrix(1 0 0 1 149.2246 36.6587)" font-family="KaiTi" font-size="10px">正</text>
<text transform="matrix(1 0 0 1 164.2246 36.6587)" font-family="KaiTi" font-size="10px">宗</text>
<text transform="matrix(1 0 0 1 179.2246 36.6587)" font-family="KaiTi" font-size="10px">分</text>
<text transform="matrix(1 0 0 1 141.8027 50.6587)" font-family="KaiTi" font-size="10px">3</text>
<text transform="matrix(1 0 0 1 146.6465 50.6587)" font-family="KaiTi" font-size="10px">.</text>
<text transform="matrix(1 0 0 1 149.2246 50.6587)" font-family="KaiTi" font-size="10px">流</text>
<text transform="matrix(1 0 0 1 164.2246 50.6587)" font-family="KaiTi" font-size="10px">通</text>
<text transform="matrix(1 0 0 1 179.2246 50.6587)" font-family="KaiTi" font-size="10px">分</text>
<text transform="matrix(1 0 0 1 141.8027 78.6587)" font-family="KaiTi" font-size="10px">1</text>
<text transform="matrix(1 0 0 1 146.6465 78.6587)" font-family="KaiTi" font-size="10px">.</text>
<text transform="matrix(1 0 0 1 149.2246 78.6587)" font-family="KaiTi" font-size="10px">臨</text>
<text transform="matrix(1 0 0 1 159.2246 78.6587)" font-family="KaiTi" font-size="10px">時</text>
<text transform="matrix(1 0 0 1 169.2246 78.6587)" font-family="KaiTi" font-size="10px">行</text>
<text transform="matrix(1 0 0 1 179.2246 78.6587)" font-family="KaiTi" font-size="10px">法</text>
<text transform="matrix(1 0 0 1 141.8027 92.6587)" font-family="KaiTi" font-size="10px">2</text>
<text transform="matrix(1 0 0 1 146.6465 92.6587)" font-family="KaiTi" font-size="10px">.</text>
<text transform="matrix(1 0 0 1 149.2246 92.6587)" font-family="KaiTi" font-size="10px">尋</text>
<text transform="matrix(1 0 0 1 159.2246 92.6587)" font-family="KaiTi" font-size="10px">常</text>
<text transform="matrix(1 0 0 1 169.2246 92.6587)" font-family="KaiTi" font-size="10px">行</text>
<text transform="matrix(1 0 0 1 179.2246 92.6587)" font-family="KaiTi" font-size="10px">法</text>
<text transform="matrix(1 0 0 1 141.8027 106.6587)" font-family="KaiTi" font-size="10px">3</text>
<text transform="matrix(1 0 0 1 146.6465 106.6587)" font-family="KaiTi" font-size="10px">.</text>
<text transform="matrix(1 0 0 1 149.2246 106.6587)" font-family="KaiTi" font-size="10px">別</text>
<text transform="matrix(1 0 0 1 159.2246 106.6587)" font-family="KaiTi" font-size="10px">時</text>
<text transform="matrix(1 0 0 1 169.2246 106.6587)" font-family="KaiTi" font-size="10px">行</text>
<text transform="matrix(1 0 0 1 179.2246 106.6587)" font-family="KaiTi" font-size="10px">法</text>
<text transform="matrix(1 0 0 1 202.0676 8.5937)" font-family="KaiTi" font-size="10px">玄</text>
<text transform="matrix(1 0 0 1 217.0676 8.5937)" font-family="KaiTi" font-size="10px">義</text>
<text transform="matrix(1 0 0 1 232.0676 8.5937)" font-family="KaiTi" font-size="10px">分</text>
<text transform="matrix(1 0 0 1 202.0676 22.5937)" font-family="KaiTi" font-size="10px">序</text>
<text transform="matrix(1 0 0 1 217.0676 22.5937)" font-family="KaiTi" font-size="10px">分</text>
<text transform="matrix(1 0 0 1 232.0676 22.5937)" font-family="KaiTi" font-size="10px">義</text>
<text transform="matrix(1 0 0 1 202.0676 36.5937)" font-family="KaiTi" font-size="10px">定</text>
<text transform="matrix(1 0 0 1 217.0676 36.5937)" font-family="KaiTi" font-size="10px">善</text>
<text transform="matrix(1 0 0 1 232.0676 36.5937)" font-family="KaiTi" font-size="10px">義</text>
<text transform="matrix(1 0 0 1 202.0676 50.5937)" font-family="KaiTi" font-size="10px">散</text>
<text transform="matrix(1 0 0 1 217.0676 50.5937)" font-family="KaiTi" font-size="10px">善</text>
<text transform="matrix(1 0 0 1 232.0676 50.5937)" font-family="KaiTi" font-size="10px">義</text>
<text transform="matrix(1 0 0 1 202.0676 64.5938)" font-family="KaiTi" font-size="10px">觀</text>
<text transform="matrix(1 0 0 1 212.0676 64.5938)" font-family="KaiTi" font-size="10px">念</text>
<text transform="matrix(1 0 0 1 222.0676 64.5938)" font-family="KaiTi" font-size="10px">法</text>
<text transform="matrix(1 0 0 1 232.0676 64.5938)" font-family="KaiTi" font-size="10px">門</text>
<text transform="matrix(1 0 0 0.98 202.0676 78.5938)" font-family="KaiTi" font-size="10px">法</text>
<text transform="matrix(1 0 0 0.98 217.0676 78.5938)" font-family="KaiTi" font-size="10px">事</text>
<text transform="matrix(1 0 0 0.98 232.0676 78.5938)" font-family="KaiTi" font-size="10px">讚</text>
<text transform="matrix(1 0 0 1 202.0676 92.5938)" font-family="KaiTi" font-size="10px">往</text>
<text transform="matrix(1 0 0 1 212.0676 92.5938)" font-family="KaiTi" font-size="10px">生</text>
<text transform="matrix(1 0 0 1 222.0676 92.5938)" font-family="KaiTi" font-size="10px">禮</text>
<text transform="matrix(1 0 0 1 232.0676 92.5938)" font-family="KaiTi" font-size="10px">讚</text>
<text transform="matrix(1 0 0 1 202.0676 106.5938)" font-family="KaiTi" font-size="10px">般</text>
<text transform="matrix(1 0 0 1 217.0676 106.5938)" font-family="KaiTi" font-size="10px">舟</text>
<text transform="matrix(1 0 0 1 232.0676 106.5938)" font-family="KaiTi" font-size="10px">讚</text>
<text transform="matrix(1 0 0 1 252.7429 28.8682)" font-family="KaiTi" font-size="10px">本疏四卷</text>
<text transform="matrix(1 0 0 1 252.7429 84.8682)" font-family="KaiTi" font-size="10px">具疏五卷</text>
<line fill="none" stroke="#000000" stroke-width="0.5" stroke-miterlimit="10" x1="44.549" y1="18.728" x2="44.549" y2="75.116"/>
<line fill="none" stroke="#000000" stroke-width="0.5" stroke-miterlimit="10" x1="44.319" y1="18.987" x2="47.215" y2="18.987"/>
<line fill="none" stroke="#000000" stroke-width="0.5" stroke-miterlimit="10" x1="44.319" y1="75.067" x2="47.215" y2="75.067"/>
<line fill="none" stroke="#000000" stroke-width="0.5" stroke-miterlimit="10" x1="41.571" y1="46.809" x2="44.467" y2="46.809"/>
<g>
	<line fill="none" stroke="#000000" stroke-width="0.5" stroke-miterlimit="10" x1="72.864" y1="18.987" x2="75.76" y2="18.987"/>
	<line fill="none" stroke="#000000" stroke-width="0.5" stroke-miterlimit="10" x1="75.76" y1="5.224" x2="78.656" y2="5.224"/>
	<line fill="none" stroke="#000000" stroke-width="0.5" stroke-miterlimit="10" x1="75.76" y1="32.674" x2="78.656" y2="32.674"/>
	<line fill="none" stroke="#000000" stroke-width="0.5" stroke-miterlimit="10" x1="75.76" y1="5.016" x2="75.76" y2="32.958"/>
</g>
<line fill="none" stroke="#000000" stroke-width="0.5" stroke-miterlimit="10" x1="132.887" y1="32.84" x2="135.783" y2="32.84"/>
<line fill="none" stroke="#000000" stroke-width="0.5" stroke-miterlimit="10" x1="135.9" y1="19.195" x2="138.796" y2="19.195"/>
<line fill="none" stroke="#000000" stroke-width="0.5" stroke-miterlimit="10" x1="135.9" y1="46.645" x2="138.796" y2="46.645"/>
<line fill="none" stroke="#000000" stroke-width="0.5" stroke-miterlimit="10" x1="135.9" y1="18.987" x2="135.9" y2="46.929"/>
<g>
	<line fill="none" stroke="#000000" stroke-width="0.5" stroke-miterlimit="10" x1="133.004" y1="89.039" x2="135.9" y2="89.039"/>
	<line fill="none" stroke="#000000" stroke-width="0.5" stroke-miterlimit="10" x1="135.9" y1="75.275" x2="138.796" y2="75.275"/>
	
		<line fill="none" stroke="#000000" stroke-width="0.5" stroke-miterlimit="10" x1="135.9" y1="102.726" x2="138.796" y2="102.726"/>
	<line fill="none" stroke="#000000" stroke-width="0.5" stroke-miterlimit="10" x1="135.9" y1="75.067" x2="135.9" y2="103.01"/>
</g>
<g>
	<line fill="none" stroke="#000000" stroke-width="0.5" stroke-miterlimit="10" x1="72.864" y1="75.067" x2="75.76" y2="75.067"/>
	<line fill="none" stroke="#000000" stroke-width="0.5" stroke-miterlimit="10" x1="75.76" y1="61.304" x2="78.656" y2="61.304"/>
	<line fill="none" stroke="#000000" stroke-width="0.5" stroke-miterlimit="10" x1="75.76" y1="88.755" x2="78.656" y2="88.755"/>
	<line fill="none" stroke="#000000" stroke-width="0.5" stroke-miterlimit="10" x1="75.76" y1="61.096" x2="75.76" y2="89.039"/>
</g>
<line fill="none" stroke="#000000" stroke-width="0.5" stroke-miterlimit="10" x1="132.875" y1="5.014" x2="198.374" y2="5.014"/>
<line fill="none" stroke="#000000" stroke-width="0.5" stroke-miterlimit="10" x1="132.875" y1="60.887" x2="198.582" y2="60.887"/>
<g>
	<line fill="none" stroke="#000000" stroke-width="0.5" stroke-miterlimit="10" x1="244.5" y1="46.929" x2="247.387" y2="46.929"/>
	<line fill="none" stroke="#000000" stroke-width="0.5" stroke-miterlimit="10" x1="244.5" y1="5.014" x2="247.387" y2="5.014"/>
	
		<line fill="none" stroke="#000000" stroke-width="0.5" stroke-miterlimit="10" x1="247.267" y1="26.101" x2="250.154" y2="26.101"/>
	<line fill="none" stroke="#000000" stroke-width="0.5" stroke-miterlimit="10" x1="247.383" y1="4.77" x2="247.383" y2="47.194"/>
</g>
<g>
	
		<line fill="none" stroke="#000000" stroke-width="0.5" stroke-miterlimit="10" x1="244.5" y1="103.046" x2="247.387" y2="103.046"/>
	<line fill="none" stroke="#000000" stroke-width="0.5" stroke-miterlimit="10" x1="244.5" y1="61.131" x2="247.387" y2="61.131"/>
	
		<line fill="none" stroke="#000000" stroke-width="0.5" stroke-miterlimit="10" x1="247.267" y1="82.217" x2="250.154" y2="82.217"/>
	
		<line fill="none" stroke="#000000" stroke-width="0.5" stroke-miterlimit="10" x1="247.383" y1="60.887" x2="247.383" y2="103.311"/>
</g>
<g>
	
		<line fill="none" stroke="#000000" stroke-width="0.5" stroke-miterlimit="10" x1="192.779" y1="75.918" x2="198.581" y2="75.918"/>
	
		<line fill="none" stroke="#000000" stroke-width="0.5" stroke-miterlimit="10" x1="192.779" y1="88.755" x2="198.581" y2="88.755"/>
	
		<line fill="none" stroke="#000000" stroke-width="0.5" stroke-miterlimit="10" x1="192.779" y1="103.01" x2="198.581" y2="103.01"/>
	
		<line fill="none" stroke="#000000" stroke-width="0.5" stroke-miterlimit="10" x1="192.779" y1="18.728" x2="198.372" y2="18.728"/>
	
		<line fill="none" stroke="#000000" stroke-width="0.5" stroke-miterlimit="10" x1="192.779" y1="32.958" x2="198.372" y2="32.958"/>
	
		<line fill="none" stroke="#000000" stroke-width="0.5" stroke-miterlimit="10" x1="192.779" y1="46.645" x2="198.372" y2="46.645"/>
	
		<line fill="none" stroke="#000000" stroke-width="0.5" stroke-miterlimit="10" x1="192.779" y1="32.958" x2="198.372" y2="46.645"/>
</g>
</svg>
