<?xml version="1.0" encoding="utf-8"?>
<!-- Generator: Adobe Illustrator 21.1.0, SVG Export Plug-In . SVG Version: 6.00 Build 0)  -->
<svg version="1.1" id="图层_1" xmlns="http://www.w3.org/2000/svg" xmlns:xlink="http://www.w3.org/1999/xlink" x="0px" y="0px"
	 viewBox="0 0 328.3 127.1" style="enable-background:new 0 0 328.3 127.1;" xml:space="preserve">
<style type="text/css">
	.st0{fill:none;stroke:#000000;stroke-width:0.5;stroke-miterlimit:10;}
	.st1{font-family:'SIL-Kai-Reg-Jian';}
	.st2{font-size:12px;}
	.st3{fill:none;}
	.st4{letter-spacing:1;}
	.st5{letter-spacing:2;}
</style>
<g>
	<line class="st0" x1="21.4" y1="22.1" x2="21.4" y2="89.9"/>
	<line class="st0" x1="21.4" y1="22.1" x2="25.3" y2="22.1"/>
	<line class="st0" x1="21.4" y1="89.9" x2="25.3" y2="89.9"/>
	<line class="st0" x1="21.4" y1="57.2" x2="17.4" y2="57.2"/>
</g>
<text transform="matrix(1 0 0 1 29 25.7977)" class="st1 st2">教门 — 本疏</text>
<text transform="matrix(1 0 0 1 29 96.2977)" class="st1 st2">行门 — 具疏</text>
<rect y="29.4" class="st3" width="15.1" height="59"/>
<text transform="matrix(1 0 0 1 0 38.9953)"><tspan x="0" y="0" class="st1 st2">五</tspan><tspan x="0" y="14.4" class="st1 st2">部</tspan><tspan x="0" y="28.8" class="st1 st2">九</tspan><tspan x="0" y="43.2" class="st1 st2">卷</tspan></text>
<text transform="matrix(1 0 0 1 116.4 9.5977)"><tspan x="0" y="0" class="st1 st2">玄义分　　　　　　　　玄</tspan><tspan x="144" y="0" class="st1 st2 st4"> </tspan><tspan x="149.9" y="0" class="st1 st2">义</tspan><tspan x="161.9" y="0" class="st1 st2 st4"> </tspan><tspan x="167.8" y="0" class="st1 st2">分 一卷</tspan><tspan x="0" y="14.4" class="st1 st2">　　　　　序　　分　　序</tspan><tspan x="144" y="14.4" class="st1 st2 st4"> </tspan><tspan x="149.9" y="14.4" class="st1 st2">分</tspan><tspan x="161.9" y="14.4" class="st1 st2 st4"> </tspan><tspan x="167.8" y="14.4" class="st1 st2">义 一卷 </tspan><tspan x="0" y="28.8" class="st1 st2">文义分　　正</tspan><tspan x="72" y="28.8" class="st1 st2 st5"> </tspan><tspan x="78.2" y="28.8" class="st1 st2">宗</tspan><tspan x="90.2" y="28.8" class="st1 st2 st4"> </tspan><tspan x="96.1" y="28.8" class="st1 st2">分　　定</tspan><tspan x="144.1" y="28.8" class="st1 st2 st4"> </tspan><tspan x="150" y="28.8" class="st1 st2">善</tspan><tspan x="162" y="28.8" class="st1 st2 st4"> </tspan><tspan x="167.9" y="28.8" class="st1 st2">义 一卷 </tspan><tspan x="0" y="43.2" class="st1 st2">　　　　　流</tspan><tspan x="72" y="43.2" class="st1 st2 st4"> </tspan><tspan x="77.9" y="43.2" class="st1 st2">通</tspan><tspan x="89.9" y="43.2" class="st1 st2 st4"> </tspan><tspan x="95.8" y="43.2" class="st1 st2">分　　散</tspan><tspan x="143.8" y="43.2" class="st1 st2 st4"> </tspan><tspan x="149.8" y="43.2" class="st1 st2">善</tspan><tspan x="161.8" y="43.2" class="st1 st2 st4"> </tspan><tspan x="167.7" y="43.2" class="st1 st2">义 一卷</tspan><tspan x="0" y="72" class="st1 st2">观　行　　别时行法　　观念法门 一卷</tspan><tspan x="0" y="86.4" class="st1 st2">　　　　　临时行法　　法</tspan><tspan x="144" y="86.4" class="st1 st2 st4"> </tspan><tspan x="149.9" y="86.4" class="st1 st2">事</tspan><tspan x="161.9" y="86.4" class="st1 st2 st4"> </tspan><tspan x="167.8" y="86.4" class="st1 st2">赞 二卷</tspan><tspan x="0" y="100.8" class="st1 st2">行　仪　　寻常行法　　往生礼赞 一卷</tspan><tspan x="0" y="115.2" class="st1 st2">　　　　　别时行法　　般</tspan><tspan x="144" y="115.2" class="st1 st2 st4"> </tspan><tspan x="149.9" y="115.2" class="st1 st2">舟</tspan><tspan x="161.9" y="115.2" class="st1 st2 st4"> </tspan><tspan x="167.8" y="115.2" class="st1 st2">赞 一卷</tspan></text>
<g>
	<line class="st0" x1="106.9" y1="5.6" x2="106.9" y2="35.6"/>
	<line class="st0" x1="106.9" y1="5.6" x2="110.6" y2="5.6"/>
	<line class="st0" x1="106.9" y1="35.6" x2="110.6" y2="35.6"/>
	<line class="st0" x1="106.9" y1="21.1" x2="103.1" y2="21.1"/>
</g>
<g>
	<line class="st0" x1="106.9" y1="76.9" x2="106.9" y2="106.9"/>
	<line class="st0" x1="106.9" y1="76.9" x2="110.7" y2="76.9"/>
	<line class="st0" x1="106.9" y1="106.9" x2="110.7" y2="106.9"/>
	<line class="st0" x1="106.9" y1="92.4" x2="103.2" y2="92.4"/>
</g>
<g>
	<line class="st0" x1="164.4" y1="20.6" x2="164.4" y2="50.6"/>
	<line class="st0" x1="164.4" y1="20.6" x2="168.1" y2="20.6"/>
	<line class="st0" x1="164.4" y1="50.6" x2="168.1" y2="50.6"/>
	<line class="st0" x1="164.4" y1="36.1" x2="160.6" y2="36.1"/>
</g>
<g>
	<line class="st0" x1="164.1" y1="91.9" x2="164.1" y2="121.9"/>
	<line class="st0" x1="164.1" y1="91.9" x2="167.8" y2="91.9"/>
	<line class="st0" x1="164.1" y1="121.9" x2="167.8" y2="121.9"/>
	<line class="st0" x1="164.1" y1="107.4" x2="160.2" y2="107.4"/>
</g>
<line class="st0" x1="157.8" y1="5.6" x2="245.6" y2="5.6"/>
<line class="st0" x1="227.6" y1="20.6" x2="245.6" y2="20.6"/>
<line class="st0" x1="227.6" y1="35.6" x2="245.6" y2="35.6"/>
<line class="st0" x1="227.6" y1="76.9" x2="245.6" y2="76.9"/>
<line class="st0" x1="227.6" y1="91.9" x2="245.6" y2="91.9"/>
<line class="st0" x1="227.6" y1="106.9" x2="245.6" y2="106.9"/>
<line class="st0" x1="227.6" y1="121.9" x2="245.6" y2="121.9"/>
<line class="st0" x1="156.9" y1="76.9" x2="174.9" y2="76.9"/>
<line class="st0" x1="227.6" y1="50.6" x2="245.6" y2="50.6"/>
<line class="st0" x1="227.6" y1="35.6" x2="245.6" y2="50.6"/>
</svg>
