<?xml version="1.0" encoding="utf-8"?>
<!-- Generator: Adobe Illustrator 21.0.0, SVG Export Plug-In . SVG Version: 6.00 Build 0)  -->
<svg version="1.1" id="圖層_1" xmlns="http://www.w3.org/2000/svg" xmlns:xlink="http://www.w3.org/1999/xlink" x="0px" y="0px"
	 viewBox="0 0 328.3 127.1" style="enable-background:new 0 0 328.3 127.1;" xml:space="preserve">
<style type="text/css">
	.st0{fill:none;stroke:#000000;stroke-width:0.5;stroke-miterlimit:10;}
	.st1{font-family:'KaiTi';}
	.st2{font-size:12px;}
	.st3{letter-spacing:6;}
	.st4{fill:none;}
</style>
<g>
	<line class="st0" x1="21.4" y1="21.1" x2="21.4" y2="91.9"/>
	<line class="st0" x1="21.4" y1="21.1" x2="25.3" y2="21.1"/>
	<line class="st0" x1="21.4" y1="91.9" x2="25.3" y2="91.9"/>
	<line class="st0" x1="21.4" y1="57.2" x2="17.4" y2="57.2"/>
</g>
<text transform="matrix(1 0 0 1 29 25.7977)" class="st1 st2">教</text>
<text transform="matrix(1 0 0 1 41 25.7977)" class="st1 st2">門</text>
<text transform="matrix(1 0 0 1 53 25.7977)" class="st1 st2"> </text>
<text transform="matrix(1 0 0 1 59 25.7977)" class="st1 st2 st3"> </text>
<text transform="matrix(1 0 0 1 71 25.7977)" class="st1 st2"> </text>
<text transform="matrix(1 0 0 1 77 25.7977)" class="st1 st2">本</text>
<text transform="matrix(1 0 0 1 89 25.7977)" class="st1 st2">疏</text>
<text transform="matrix(1 0 0 1 29 96.2977)" class="st1 st2">行</text>
<text transform="matrix(1 0 0 1 41 96.2977)" class="st1 st2">門</text>
<text transform="matrix(1 0 0 1 53 96.2977)" class="st1 st2 st3"> </text>
<text transform="matrix(1 0 0 1 65 96.2977)" class="st1 st2 st3"> </text>
<text transform="matrix(1 0 0 1 77 96.2977)" class="st1 st2">具</text>
<text transform="matrix(1 0 0 1 89 96.2977)" class="st1 st2">疏</text>
<rect y="29.4" class="st4" width="15.1" height="59"/>
<text transform="matrix(1 0 0 1 0 39.0099)" class="st1 st2">五</text>
<text transform="matrix(1 0 0 1 0 53.4099)" class="st1 st2">部</text>
<text transform="matrix(1 0 0 1 0 67.8099)" class="st1 st2">九</text>
<text transform="matrix(1 0 0 1 0 82.21)" class="st1 st2">卷</text>
<text transform="matrix(1 0 0 1 116.4 9.6123)" class="st1 st2">玄義分　　　　　　　　玄</text>
<text transform="matrix(1 0 0 1 260.4 9.5977)" class="st1 st2"> </text>
<text transform="matrix(1 0 0 1 266.3 9.6123)" class="st1 st2">義</text>
<text transform="matrix(1 0 0 1 278.3 9.5977)" class="st1 st2"> </text>
<text transform="matrix(1 0 0 1 284.2 9.6123)" class="st1 st2">分 一卷</text>
<text transform="matrix(1 0 0 1 116.4 24.0124)" class="st1 st2">　　　　　序　　分　　序</text>
<text transform="matrix(1 0 0 1 260.4 23.9977)" class="st1 st2"> </text>
<text transform="matrix(1 0 0 1 266.3 24.0124)" class="st1 st2">分</text>
<text transform="matrix(1 0 0 1 278.3 23.9977)" class="st1 st2"> </text>
<text transform="matrix(1 0 0 1 284.2 24.0124)" class="st1 st2">義 一卷 </text>
<text transform="matrix(1 0 0 1 116.4 38.4124)" class="st1 st2">文義分　　正</text>
<text transform="matrix(1 0 0 1 188.4 38.3977)" class="st1 st2"> </text>
<text transform="matrix(1 0 0 1 194.6 38.4124)" class="st1 st2">宗</text>
<text transform="matrix(1 0 0 1 206.6 38.3977)" class="st1 st2"> </text>
<text transform="matrix(1 0 0 1 212.5 38.4124)" class="st1 st2">分　　定</text>
<text transform="matrix(1 0 0 1 260.5 38.3977)" class="st1 st2"> </text>
<text transform="matrix(1 0 0 1 266.4 38.4124)" class="st1 st2">善</text>
<text transform="matrix(1 0 0 1 278.4 38.3977)" class="st1 st2"> </text>
<text transform="matrix(1 0 0 1 284.3 38.4124)" class="st1 st2">義 一卷 </text>
<text transform="matrix(1 0 0 1 116.4 52.8123)" class="st1 st2">　　　　　流</text>
<text transform="matrix(1 0 0 1 188.4 52.7977)" class="st1 st2"> </text>
<text transform="matrix(1 0 0 1 194.3 52.8123)" class="st1 st2">通</text>
<text transform="matrix(1 0 0 1 206.3 52.7977)" class="st1 st2"> </text>
<text transform="matrix(1 0 0 1 212.2 52.8123)" class="st1 st2">分　　散</text>
<text transform="matrix(1 0 0 1 260.2 52.7977)" class="st1 st2"> </text>
<text transform="matrix(1 0 0 1 266.2 52.8123)" class="st1 st2">善</text>
<text transform="matrix(1 0 0 1 278.2 52.7977)" class="st1 st2"> </text>
<text transform="matrix(1 0 0 1 284.1 52.8123)" class="st1 st2">義 一卷</text>
<text transform="matrix(1 0 0 1 116.4 81.6123)" class="st1 st2">觀　行　　別時行法　　觀念法門 一卷</text>
<text transform="matrix(1 0 0 1 116.4 96.0124)" class="st1 st2">　　　　　臨時行法　　法</text>
<text transform="matrix(1 0 0 1 260.4 95.9977)" class="st1 st2"> </text>
<text transform="matrix(1 0 0 1 266.3 96.0124)" class="st1 st2">事</text>
<text transform="matrix(1 0 0 1 278.3 95.9977)" class="st1 st2"> </text>
<text transform="matrix(1 0 0 1 284.2 96.0124)" class="st1 st2">讚 二卷</text>
<text transform="matrix(1 0 0 1 116.4 110.4124)" class="st1 st2">行　儀　　尋常行法　　往生禮讚 一卷</text>
<text transform="matrix(1 0 0 1 116.4 124.8123)" class="st1 st2">　　　　　別時行法　　般</text>
<text transform="matrix(1 0 0 1 260.4 124.7977)" class="st1 st2"> </text>
<text transform="matrix(1 0 0 1 266.3 124.8123)" class="st1 st2">舟</text>
<text transform="matrix(1 0 0 1 278.3 124.7977)" class="st1 st2"> </text>
<text transform="matrix(1 0 0 1 284.2 124.8123)" class="st1 st2">讚 一卷</text>
<g>
	<line class="st0" x1="106.9" y1="5.6" x2="106.9" y2="35.6"/>
	<line class="st0" x1="106.9" y1="5.6" x2="110.6" y2="5.6"/>
	<line class="st0" x1="106.9" y1="35.6" x2="110.6" y2="35.6"/>
	<line class="st0" x1="106.9" y1="21.1" x2="103.1" y2="21.1"/>
</g>
<g>
	<line class="st0" x1="106.9" y1="76.9" x2="106.9" y2="106.9"/>
	<line class="st0" x1="106.9" y1="76.9" x2="110.7" y2="76.9"/>
	<line class="st0" x1="106.9" y1="106.9" x2="110.7" y2="106.9"/>
	<line class="st0" x1="106.9" y1="92.4" x2="103.2" y2="92.4"/>
</g>
<g>
	<line class="st0" x1="164.4" y1="20.6" x2="164.4" y2="50.6"/>
	<line class="st0" x1="164.4" y1="20.6" x2="168.1" y2="20.6"/>
	<line class="st0" x1="164.4" y1="50.6" x2="168.1" y2="50.6"/>
	<line class="st0" x1="164.4" y1="36.1" x2="160.6" y2="36.1"/>
</g>
<g>
	<line class="st0" x1="164.1" y1="91.9" x2="164.1" y2="121.9"/>
	<line class="st0" x1="164.1" y1="91.9" x2="167.8" y2="91.9"/>
	<line class="st0" x1="164.1" y1="121.9" x2="167.8" y2="121.9"/>
	<line class="st0" x1="164.1" y1="107.4" x2="160.2" y2="107.4"/>
</g>
<line class="st0" x1="157.8" y1="5.6" x2="245.6" y2="5.6"/>
<line class="st0" x1="227.6" y1="20.6" x2="245.6" y2="20.6"/>
<line class="st0" x1="227.6" y1="35.6" x2="245.6" y2="35.6"/>
<line class="st0" x1="227.6" y1="76.9" x2="245.6" y2="76.9"/>
<line class="st0" x1="227.6" y1="91.9" x2="245.6" y2="91.9"/>
<line class="st0" x1="227.6" y1="106.9" x2="245.6" y2="106.9"/>
<line class="st0" x1="227.6" y1="121.9" x2="245.6" y2="121.9"/>
<line class="st0" x1="156.9" y1="76.9" x2="174.9" y2="76.9"/>
<line class="st0" x1="227.6" y1="50.6" x2="245.6" y2="50.6"/>
<line class="st0" x1="56.9" y1="92.4" x2="74.9" y2="92.4"/>
<line class="st0" x1="56.9" y1="21.1" x2="74.9" y2="21.1"/>
</svg>
