<?xml version="1.0" encoding="utf-8"?>
<!-- Generator: Adobe Illustrator 16.0.0, SVG Export Plug-In . SVG Version: 6.00 Build 0)  -->
<!DOCTYPE svg PUBLIC "-//W3C//DTD SVG 1.1//EN" "http://www.w3.org/Graphics/SVG/1.1/DTD/svg11.dtd">
<svg version="1.1" id="图层_1" xmlns="http://www.w3.org/2000/svg" xmlns:xlink="http://www.w3.org/1999/xlink" x="0px" y="0px"
	 width="640px" height="480px" viewBox="0 0 640 480" enable-background="new 0 0 640 480" xml:space="preserve">
<text transform="matrix(1 0 0 1 98.5029 97.0571)" font-family="'FZKTK--GBK1-0'" font-size="10">往生行</text>
<text transform="matrix(1 0 0 1 136.8281 75.7813)"><tspan x="0" y="0" font-family="'FZKTK--GBK1-0'" font-size="10">正行</tspan><tspan x="0" y="14" font-family="'FZKTK--GBK1-0'" font-size="10">(专修)</tspan><tspan x="0" y="42" font-family="'FZKTK--GBK1-0'" font-size="10">杂行</tspan></text>
<text transform="matrix(1 0 0 1 167.5449 75.7817)"><tspan x="0" y="0" font-family="'FZKTK--GBK1-0'" font-size="10">五种</tspan><tspan x="0" y="42" font-family="'FZKTK--GBK1-0'" font-size="10">念余佛、修余行等</tspan></text>
<text transform="matrix(1 0 0 1 196.8652 47.9668)"><tspan x="0" y="0" font-family="'FZKTK--GBK1-0'" font-size="10" letter-spacing="19">读诵</tspan><tspan x="0" y="14" font-family="'FZKTK--GBK1-0'" font-size="10" letter-spacing="19">观察</tspan><tspan x="0" y="28" font-family="'FZKTK--GBK1-0'" font-size="10" letter-spacing="19">礼拜</tspan><tspan x="0" y="42" font-family="'FZKTK--GBK1-0'" font-size="10" letter-spacing="19">称名</tspan><tspan x="0" y="56" font-family="'FZKTK--GBK1-0'" font-size="10">赞叹供养</tspan></text>
<text transform="matrix(1 0 0 1 247.8809 47.9668)"><tspan x="0" y="0" font-family="'FZKTK--GBK1-0'" font-size="10">前三</tspan><tspan x="0" y="14" font-family="'FZKTK--GBK1-0'" font-size="10">后一</tspan></text>
<text transform="matrix(1 0 0 1 276.9277 55.249)" font-family="'FZKTK--GBK1-0'" font-size="10">助业</text>
<g>
	
		<line fill="none" stroke="#000000" stroke-width="0.5" stroke-miterlimit="10" x1="192.333" y1="44.95" x2="192.333" y2="101.338"/>
	<line fill="none" stroke="#000000" stroke-width="0.5" stroke-miterlimit="10" x1="192.104" y1="45.209" x2="195" y2="45.209"/>
	<line fill="none" stroke="#000000" stroke-width="0.5" stroke-miterlimit="10" x1="192.104" y1="101.289" x2="195" y2="101.289"/>
	
		<line fill="none" stroke="#000000" stroke-width="0.5" stroke-miterlimit="10" x1="189.356" y1="73.031" x2="192.252" y2="73.031"/>
</g>
<line fill="none" stroke="#000000" stroke-width="0.5" stroke-miterlimit="10" x1="241.238" y1="86.5" x2="274.932" y2="86.5"/>
<line fill="none" stroke="#000000" stroke-width="0.5" stroke-miterlimit="10" x1="241.238" y1="45.207" x2="246.78" y2="45.207"/>
<line fill="none" stroke="#000000" stroke-width="0.5" stroke-miterlimit="10" x1="241.238" y1="57.624" x2="246.78" y2="45.207"/>
<line fill="none" stroke="#000000" stroke-width="0.5" stroke-miterlimit="10" x1="241.238" y1="71.331" x2="246.78" y2="45.034"/>
<line fill="none" stroke="#000000" stroke-width="0.5" stroke-miterlimit="10" x1="241.238" y1="100.167" x2="246.75" y2="62"/>
<line fill="none" stroke="#000000" stroke-width="0.5" stroke-miterlimit="10" x1="159.25" y1="73.142" x2="165" y2="73.142"/>
<line fill="none" stroke="#000000" stroke-width="0.5" stroke-miterlimit="10" x1="159.25" y1="115" x2="165" y2="115"/>
<g>
	<line fill="none" stroke="#000000" stroke-width="0.5" stroke-miterlimit="10" x1="272.31" y1="52.057" x2="275.207" y2="52.057"/>
	<line fill="none" stroke="#000000" stroke-width="0.5" stroke-miterlimit="10" x1="269.535" y1="45.14" x2="272.43" y2="45.14"/>
	
		<line fill="none" stroke="#000000" stroke-width="0.5" stroke-miterlimit="10" x1="269.543" y1="59.307" x2="272.439" y2="59.307"/>
	
		<line fill="none" stroke="#000000" stroke-width="0.5" stroke-miterlimit="10" x1="272.431" y1="44.885" x2="272.431" y2="59.557"/>
</g>
<text transform="matrix(1 0 0 1 275.5107 91)"><tspan x="0" y="0" font-family="'FZKTK--GBK1-0'" font-size="10">正定业</tspan><tspan x="0" y="14" font-family="'FZKTK--GBK1-0'" font-size="10">(专念)</tspan></text>
<g>
	
		<line fill="none" stroke="#000000" stroke-width="0.5" stroke-miterlimit="10" x1="132.91" y1="114.954" x2="135.797" y2="114.954"/>
	<line fill="none" stroke="#000000" stroke-width="0.5" stroke-miterlimit="10" x1="132.91" y1="73.039" x2="135.797" y2="73.039"/>
	
		<line fill="none" stroke="#000000" stroke-width="0.5" stroke-miterlimit="10" x1="130.139" y1="94.125" x2="133.026" y2="94.125"/>
	
		<line fill="none" stroke="#000000" stroke-width="0.5" stroke-miterlimit="10" x1="133.026" y1="72.794" x2="133.026" y2="115.219"/>
</g>
</svg>
