<?xml version="1.0" encoding="utf-8"?>
<!-- Generator: Adobe Illustrator 21.0.0, SVG Export Plug-In . SVG Version: 6.00 Build 0)  -->
<svg version="1.1" baseProfile="tiny" id="圖層_1"
	 xmlns="http://www.w3.org/2000/svg" xmlns:xlink="http://www.w3.org/1999/xlink" x="0px" y="0px" viewBox="0 0 242.5 38.4"
	 overflow="scroll" xml:space="preserve">
<text transform="matrix(1 0 0 1 51.9998 15.5936)" font-family="'KaiTi'" font-size="10px">眾生以彌陀之正覺為往生之因</text>
<text transform="matrix(1 0 0 1 51.9998 29.5936)" font-family="'KaiTi'" font-size="10px">彌陀以眾生之往生為正覺之果</text>
<text transform="matrix(1 0 0 1 -1.621246e-04 15.5936)" font-family="'KaiTi'" font-size="10px">往生正覺</text>
<text transform="matrix(1 0 0 1 -1.621246e-04 29.5936)" font-family="'KaiTi'" font-size="10px">機法一體</text>
<text transform="matrix(1 0 0 1 192.4998 8.5938)" font-family="'KaiTi'" font-size="10px">彼此成一體</text>
<text transform="matrix(1 0 0 1 192.4998 22.5938)" font-family="'KaiTi'" font-size="10px">流同一血液</text>
<text transform="matrix(1 0 0 1 192.4998 36.5938)" font-family="'KaiTi'" font-size="10px">呼同一鼻息</text>
<g>
	<line fill="none" stroke="#000000" stroke-width="0.5" stroke-miterlimit="10" x1="46.2" y1="11.3" x2="46.2" y2="26.4"/>
	<line fill="none" stroke="#000000" stroke-width="0.5" stroke-miterlimit="10" x1="46.2" y1="11.3" x2="49" y2="11.3"/>
	<line fill="none" stroke="#000000" stroke-width="0.5" stroke-miterlimit="10" x1="46.2" y1="26.4" x2="49" y2="26.4"/>
	<line fill="none" stroke="#000000" stroke-width="0.5" stroke-miterlimit="10" x1="46.2" y1="18.8" x2="43.5" y2="18.8"/>
</g>
<g>
	<line fill="none" stroke="#000000" stroke-width="0.5" stroke-miterlimit="10" x1="187" y1="26.4" x2="187" y2="11.3"/>
	<line fill="none" stroke="#000000" stroke-width="0.5" stroke-miterlimit="10" x1="187" y1="26.4" x2="184.2" y2="26.4"/>
	<line fill="none" stroke="#000000" stroke-width="0.5" stroke-miterlimit="10" x1="187" y1="11.3" x2="184.2" y2="11.3"/>
	<line fill="none" stroke="#000000" stroke-width="0.5" stroke-miterlimit="10" x1="187" y1="18.8" x2="189.7" y2="18.8"/>
</g>
</svg>
