<?xml version="1.0" encoding="utf-8"?>
<!-- Generator: Adobe Illustrator 21.0.0, SVG Export Plug-In . SVG Version: 6.00 Build 0)  -->
<svg version="1.1" id="图层_1" xmlns="http://www.w3.org/2000/svg" xmlns:xlink="http://www.w3.org/1999/xlink" x="0px" y="0px"
	 viewBox="0 0 145.9 122.6" style="enable-background:new 0 0 145.9 122.6;" xml:space="preserve">
<style type="text/css">
	.st0{font-family:'KaiTi';}
	.st1{font-size:10px;}
	.st2{fill:none;stroke:#040000;stroke-width:0.5;stroke-miterlimit:10;}
	.st3{font-family:'DFKaiShu-SB-Estd-BF';}
	.st4{fill:none;stroke:#000000;stroke-width:0.5;stroke-miterlimit:10;}
</style>
<text transform="matrix(1 0 0 1 74.125 8.5938)"><tspan x="0" y="0" class="st0 st1">释显要义</tspan><tspan x="0" y="14" class="st0 st1">略述造意</tspan><tspan x="0" y="28" class="st0 st1">日没礼赞</tspan><tspan x="0" y="42" class="st0 st1">初夜礼赞</tspan><tspan x="0" y="56" class="st0 st1">中夜礼赞</tspan><tspan x="0" y="70" class="st0 st1">後夜礼赞</tspan><tspan x="0" y="84" class="st0 st1">晨朝礼赞</tspan><tspan x="0" y="98" class="st0 st1">日中礼赞</tspan><tspan x="0" y="112" class="st0 st1">结归本愿念佛</tspan></text>
<g>
	<line class="st2" x1="65.3" y1="11.3" x2="68.2" y2="11.3"/>
	<line class="st2" x1="68.2" y1="3.9" x2="71.1" y2="3.9"/>
	<line class="st2" x1="68.2" y1="18.8" x2="71.1" y2="18.8"/>
	<line class="st2" x1="68.2" y1="3.7" x2="68.2" y2="18.8"/>
</g>
<g>
	<line class="st2" x1="65.3" y1="67.5" x2="68.2" y2="67.5"/>
	<line class="st2" x1="68.2" y1="32.5" x2="71.1" y2="32.5"/>
	<line class="st2" x1="68.2" y1="102.7" x2="71.1" y2="102.7"/>
	<line class="st2" x1="68.2" y1="32.3" x2="68.2" y2="102.7"/>
</g>
<g>
	<line class="st2" x1="122.9" y1="39.9" x2="120" y2="39.9"/>
	<line class="st2" x1="120" y1="47.3" x2="117.1" y2="47.3"/>
	<line class="st2" x1="120" y1="32.3" x2="117.1" y2="32.3"/>
	<line class="st2" x1="120" y1="47.5" x2="120" y2="32.3"/>
</g>
<g>
	<line class="st2" x1="122.9" y1="67.5" x2="120" y2="67.5"/>
	<line class="st2" x1="120" y1="74.9" x2="117.1" y2="74.9"/>
	<line class="st2" x1="120" y1="59.9" x2="117.1" y2="59.9"/>
	<line class="st2" x1="120" y1="75.1" x2="120" y2="59.9"/>
</g>
<g>
	<line class="st2" x1="122.9" y1="95.1" x2="120" y2="95.1"/>
	<line class="st2" x1="120" y1="102.5" x2="117.1" y2="102.5"/>
	<line class="st2" x1="120" y1="87.6" x2="117.1" y2="87.6"/>
	<line class="st2" x1="120" y1="102.7" x2="120" y2="87.6"/>
</g>
<text transform="matrix(1 0 0 1 125.858 43.5938)"><tspan x="0" y="0" class="st0 st1">经说</tspan><tspan x="0" y="28" class="st0 st1">论说</tspan><tspan x="0" y="56" class="st0 st1">师说</tspan></text>
<text transform="matrix(1 0 0 1 22.5 15.5938)"><tspan x="0" y="0" class="st0 st1">一</tspan><tspan x="10" y="0" class="st3 st1">、</tspan><tspan x="20" y="0" class="st0 st1">前序</tspan><tspan x="0" y="56" class="st0 st1">二</tspan><tspan x="10" y="56" class="st3 st1">、</tspan><tspan x="20" y="56" class="st0 st1">正赞</tspan><tspan x="0" y="105" class="st0 st1">三</tspan><tspan x="10" y="105" class="st3 st1">、</tspan><tspan x="20" y="105" class="st0 st1">後序</tspan></text>
<line class="st4" x1="65.3" y1="117" x2="71.1" y2="117"/>
<g>
	<line class="st2" x1="13.4" y1="64.1" x2="16.3" y2="64.1"/>
	<line class="st2" x1="16.6" y1="11.5" x2="19.5" y2="11.5"/>
	<line class="st2" x1="16.6" y1="117" x2="19.5" y2="117"/>
	<line class="st2" x1="16.6" y1="11.3" x2="16.6" y2="117"/>
</g>
<text transform="matrix(1 0 0 1 0 47.0938)"><tspan x="0" y="0" class="st0 st1">往</tspan><tspan x="0" y="14" class="st0 st1">生</tspan><tspan x="0" y="28" class="st0 st1">礼</tspan><tspan x="0" y="42" class="st0 st1">赞</tspan></text>
</svg>
