<?xml version="1.0" encoding="utf-8"?>
<!-- Generator: Adobe Illustrator 21.0.0, SVG Export Plug-In . SVG Version: 6.00 Build 0)  -->
<svg version="1.1" baseProfile="tiny" id="图层_1"
	 xmlns="http://www.w3.org/2000/svg" xmlns:xlink="http://www.w3.org/1999/xlink" x="0px" y="0px" viewBox="0 0 296.5 80"
	 overflow="scroll" xml:space="preserve">
<text transform="matrix(1 0 0 1 5.149841e-05 56.7798)" font-family="KaiTi" font-size="10px">往生行相</text>
<text transform="matrix(1 0 0 1 48.4226 35.7041)" font-family="KaiTi" font-size="10px">正行</text>
<text transform="matrix(1 0 0 1 48.4226 77.7041)" font-family="KaiTi" font-size="10px">杂行</text>
<text transform="matrix(1 0 0 1 78.6445 8.5938)" font-family="KaiTi" font-size="10px">读</text>
<text transform="matrix(1 0 0 1 108.6445 8.5938)" font-family="KaiTi" font-size="10px">诵</text>
<text transform="matrix(1 0 0 1 78.6445 22.5938)" font-family="KaiTi" font-size="10px">观</text>
<text transform="matrix(1 0 0 1 108.6445 22.5938)" font-family="KaiTi" font-size="10px">察</text>
<text transform="matrix(1 0 0 1 78.6445 36.5938)" font-family="KaiTi" font-size="10px">礼</text>
<text transform="matrix(1 0 0 1 108.6445 36.5938)" font-family="KaiTi" font-size="10px">拜</text>
<text transform="matrix(1 0 0 1 78.6445 50.5938)" font-family="KaiTi" font-size="10px">赞</text>
<text transform="matrix(1 0 0 1 88.6445 50.5938)" font-family="KaiTi" font-size="10px">叹</text>
<text transform="matrix(1 0 0 1 98.6445 50.5938)" font-family="KaiTi" font-size="10px">供</text>
<text transform="matrix(1 0 0 1 108.6445 50.5938)" font-family="KaiTi" font-size="10px">养</text>
<text transform="matrix(1 0 0 1 78.6445 64.5938)" font-family="KaiTi" font-size="10px">称</text>
<text transform="matrix(1 0 0 1 108.6445 64.5938)" font-family="KaiTi" font-size="10px">名</text>
<text transform="matrix(1 0 0 1 128.5284 64.5938)" font-family="KaiTi" font-size="10px">正定业</text>
<text transform="matrix(1 0 0 1 167.5579 39.9566)" font-family="KaiTi" font-size="10px">心</text>
<text transform="matrix(1 0 0 1 180.8079 39.9566)" font-family="KaiTi" font-size="10px">常</text>
<text transform="matrix(1 0 0 1 194.0579 39.9566)" font-family="KaiTi" font-size="10px">亲</text>
<text transform="matrix(1 0 0 1 207.3079 39.9566)" font-family="KaiTi" font-size="10px">近</text>
<text transform="matrix(1 0 0 1 220.5579 39.9566)" font-family="KaiTi" font-size="10px">忆</text>
<text transform="matrix(1 0 0 1 233.8079 39.9566)" font-family="KaiTi" font-size="10px">念</text>
<text transform="matrix(1 0 0 1 167.5579 53.9566)" font-family="KaiTi" font-size="10px">不</text>
<text transform="matrix(1 0 0 1 180.8079 53.9566)" font-family="KaiTi" font-size="10px">断</text>
<text transform="matrix(1 0 0 1 194.0579 53.9566)" font-family="KaiTi" font-size="10px">名</text>
<text transform="matrix(1 0 0 1 207.3079 53.9566)" font-family="KaiTi" font-size="10px">为</text>
<text transform="matrix(1 0 0 1 220.5579 53.9566)" font-family="KaiTi" font-size="10px">无</text>
<text transform="matrix(1 0 0 1 233.8079 53.9566)" font-family="KaiTi" font-size="10px">间</text>
<text transform="matrix(1 0 0 1 243.8079 53.9566)" font-family="KaiTi" font-size="10px">。</text>
<text transform="matrix(1 0 0 1 78.6446 77.704)" font-family="KaiTi" font-size="10px">心常间断,虽可回向得生,众名疏杂之行。</text>
<text transform="matrix(1 0 0 1 256.4573 66.7603)" font-family="KaiTi" font-size="10px">二行得失</text>
<g>
	<line fill="none" stroke="#000000" stroke-width="0.5" stroke-miterlimit="10" x1="72.9" y1="4.7" x2="72.9" y2="61.1"/>
	<line fill="none" stroke="#000000" stroke-width="0.5" stroke-miterlimit="10" x1="72.7" y1="4.9" x2="75.6" y2="4.9"/>
	<line fill="none" stroke="#000000" stroke-width="0.5" stroke-miterlimit="10" x1="72.7" y1="61" x2="75.6" y2="61"/>
	<line fill="none" stroke="#000000" stroke-width="0.5" stroke-miterlimit="10" x1="69.9" y1="32.8" x2="72.8" y2="32.8"/>
</g>
<line fill="none" stroke="#000000" stroke-width="0.5" stroke-miterlimit="10" x1="44.8" y1="32.3" x2="44.8" y2="75.2"/>
<line fill="none" stroke="#000000" stroke-width="0.5" stroke-miterlimit="10" x1="44.6" y1="32.6" x2="47.5" y2="32.6"/>
<line fill="none" stroke="#000000" stroke-width="0.5" stroke-miterlimit="10" x1="44.6" y1="75.2" x2="47.5" y2="75.2"/>
<line fill="none" stroke="#000000" stroke-width="0.5" stroke-miterlimit="10" x1="41.9" y1="53.8" x2="44.8" y2="53.8"/>
<line fill="none" stroke="#000000" stroke-width="0.5" stroke-miterlimit="10" x1="120.8" y1="61.1" x2="126.4" y2="61.1"/>
<text transform="matrix(1 0 0 1 128.5284 29.4521)" font-family="KaiTi" font-size="10px">助</text>
<text transform="matrix(1 0 0 1 148.5284 29.4521)" font-family="KaiTi" font-size="10px">业</text>
<g>
	<line fill="none" stroke="#000000" stroke-width="0.5" stroke-miterlimit="10" x1="120.7" y1="46.8" x2="123.6" y2="46.8"/>
	<line fill="none" stroke="#000000" stroke-width="0.5" stroke-miterlimit="10" x1="120.7" y1="4.8" x2="123.6" y2="4.8"/>
	<line fill="none" stroke="#000000" stroke-width="0.5" stroke-miterlimit="10" x1="123.5" y1="25.9" x2="126.4" y2="25.9"/>
	<line fill="none" stroke="#000000" stroke-width="0.5" stroke-miterlimit="10" x1="123.6" y1="4.6" x2="123.6" y2="47"/>
</g>
<g>
	<line fill="none" stroke="#000000" stroke-width="0.5" stroke-miterlimit="10" x1="160.2" y1="60.9" x2="163.1" y2="60.9"/>
	<line fill="none" stroke="#000000" stroke-width="0.5" stroke-miterlimit="10" x1="160.2" y1="25.9" x2="163.1" y2="25.9"/>
	<line fill="none" stroke="#000000" stroke-width="0.5" stroke-miterlimit="10" x1="162.9" y1="43.5" x2="165.8" y2="43.5"/>
	<line fill="none" stroke="#000000" stroke-width="0.5" stroke-miterlimit="10" x1="163.1" y1="25.7" x2="163.1" y2="61.2"/>
</g>
<line fill="none" stroke="#000000" stroke-width="0.5" stroke-miterlimit="10" x1="69.9" y1="75.2" x2="75.6" y2="75.2"/>
<line fill="none" stroke="#000000" stroke-width="0.5" stroke-miterlimit="10" x1="252.1" y1="62.9" x2="255" y2="62.9"/>
<line fill="none" stroke="#000000" stroke-width="0.5" stroke-miterlimit="10" x1="249.2" y1="50.5" x2="252.1" y2="50.5"/>
<line fill="none" stroke="#000000" stroke-width="0.5" stroke-miterlimit="10" x1="249.2" y1="75.2" x2="252.1" y2="75.2"/>
<line fill="none" stroke="#000000" stroke-width="0.5" stroke-miterlimit="10" x1="252.1" y1="50.2" x2="252.1" y2="75.4"/>
</svg>
