<?xml version="1.0" encoding="utf-8"?>
<!-- Generator: Adobe Illustrator 21.0.0, SVG Export Plug-In . SVG Version: 6.00 Build 0)  -->
<svg version="1.1" id="圖層_1" xmlns="http://www.w3.org/2000/svg" xmlns:xlink="http://www.w3.org/1999/xlink" x="0px" y="0px"
	 viewBox="0 0 303.5 79.5" style="enable-background:new 0 0 303.5 79.5;" xml:space="preserve">
<style type="text/css">
	.st0{font-family:'KaiTi';}
	.st1{font-size:10px;}
	.st2{fill:none;stroke:#000000;stroke-width:0.5;stroke-miterlimit:10;}
</style>
<text transform="matrix(1 0 0 1 4.577637e-05 56.7798)" class="st0 st1">往生行相</text>
<text transform="matrix(1 0 0 1 48.4226 35.7041)" class="st0 st1">正行</text>
<text transform="matrix(1 0 0 1 48.4226 77.7041)" class="st0 st1">雜行</text>
<text transform="matrix(1 0 0 1 78.6445 8.5938)" class="st0 st1">讀</text>
<text transform="matrix(1 0 0 1 108.6445 8.5938)" class="st0 st1">誦</text>
<text transform="matrix(1 0 0 1 78.6445 22.5938)" class="st0 st1">觀</text>
<text transform="matrix(1 0 0 1 108.6445 22.5938)" class="st0 st1">察</text>
<text transform="matrix(1 0 0 1 78.6445 36.5938)" class="st0 st1">禮</text>
<text transform="matrix(1 0 0 1 108.6445 36.5938)" class="st0 st1">拜</text>
<text transform="matrix(1 0 0 1 78.6445 50.5938)" class="st0 st1">讚</text>
<text transform="matrix(1 0 0 1 88.6445 50.5938)" class="st0 st1">歎</text>
<text transform="matrix(1 0 0 1 98.6445 50.5938)" class="st0 st1">供</text>
<text transform="matrix(1 0 0 1 108.6445 50.5938)" class="st0 st1">養</text>
<text transform="matrix(1 0 0 1 78.6445 64.5938)" class="st0 st1">稱</text>
<text transform="matrix(1 0 0 1 108.6445 64.5938)" class="st0 st1">名</text>
<text transform="matrix(1 0 0 1 128.5284 64.5938)" class="st0 st1">正定業</text>
<text transform="matrix(1 0 0 1 167.5579 39.9566)" class="st0 st1">心</text>
<text transform="matrix(1 0 0 1 180.8079 39.9566)" class="st0 st1">常</text>
<text transform="matrix(1 0 0 1 194.0579 39.9566)" class="st0 st1">親</text>
<text transform="matrix(1 0 0 1 207.3079 39.9566)" class="st0 st1">近</text>
<text transform="matrix(1 0 0 1 220.5579 39.9566)" class="st0 st1">憶</text>
<text transform="matrix(1 0 0 1 233.8079 39.9566)" class="st0 st1">念</text>
<text transform="matrix(1 0 0 1 167.5579 53.9566)" class="st0 st1">不</text>
<text transform="matrix(1 0 0 1 180.8079 53.9566)" class="st0 st1">斷</text>
<text transform="matrix(1 0 0 1 194.0579 53.9566)" class="st0 st1">名</text>
<text transform="matrix(1 0 0 1 207.3079 53.9566)" class="st0 st1">為</text>
<text transform="matrix(1 0 0 1 220.5579 53.9566)" class="st0 st1">無</text>
<text transform="matrix(1 0 0 1 233.8079 53.9566)" class="st0 st1">間</text>
<text transform="matrix(1 0 0 1 243.8079 53.9566)" class="st0 st1">。</text>
<text transform="matrix(1 0 0 1 78.6446 77.704)" class="st0 st1">心常間斷,雖可迴向得生,眾名疏雜之行。</text>
<text transform="matrix(1 0 0 1 263.4573 66.7603)" class="st0 st1">二行得失</text>
<g>
	<line class="st2" x1="72.9" y1="4.7" x2="72.9" y2="61.1"/>
	<line class="st2" x1="72.7" y1="4.9" x2="75.6" y2="4.9"/>
	<line class="st2" x1="72.7" y1="61" x2="75.6" y2="61"/>
	<line class="st2" x1="69.9" y1="32.8" x2="72.8" y2="32.8"/>
</g>
<line class="st2" x1="44.8" y1="32.3" x2="44.8" y2="75.2"/>
<line class="st2" x1="44.6" y1="32.6" x2="47.5" y2="32.6"/>
<line class="st2" x1="44.6" y1="75.2" x2="47.5" y2="75.2"/>
<line class="st2" x1="41.9" y1="53.8" x2="44.8" y2="53.8"/>
<line class="st2" x1="120.8" y1="61.1" x2="126.4" y2="61.1"/>
<text transform="matrix(1 0 0 1 128.5284 29.4521)" class="st0 st1">助</text>
<text transform="matrix(1 0 0 1 148.5284 29.4521)" class="st0 st1">業</text>
<g>
	<line class="st2" x1="120.7" y1="46.8" x2="123.6" y2="46.8"/>
	<line class="st2" x1="120.7" y1="4.8" x2="123.6" y2="4.8"/>
	<line class="st2" x1="123.5" y1="25.9" x2="126.4" y2="25.9"/>
	<line class="st2" x1="123.6" y1="4.6" x2="123.6" y2="47"/>
</g>
<g>
	<line class="st2" x1="160.2" y1="60.9" x2="163.1" y2="60.9"/>
	<line class="st2" x1="160.2" y1="25.9" x2="163.1" y2="25.9"/>
	<line class="st2" x1="162.9" y1="43.5" x2="165.8" y2="43.5"/>
	<line class="st2" x1="163.1" y1="25.7" x2="163.1" y2="61.2"/>
</g>
<line class="st2" x1="69.9" y1="75.2" x2="75.6" y2="75.2"/>
<line class="st2" x1="258.1" y1="62.9" x2="261" y2="62.9"/>
<line class="st2" x1="255.2" y1="50.5" x2="258.1" y2="50.5"/>
<line class="st2" x1="255.2" y1="75.2" x2="258.1" y2="75.2"/>
<line class="st2" x1="258.1" y1="50.2" x2="258.1" y2="75.4"/>
</svg>
