<?xml version="1.0" encoding="utf-8"?>
<!-- Generator: Adobe Illustrator 21.0.0, SVG Export Plug-In . SVG Version: 6.00 Build 0)  -->
<svg version="1.1" baseProfile="tiny" id="圖層_1"
	 xmlns="http://www.w3.org/2000/svg" xmlns:xlink="http://www.w3.org/1999/xlink" x="0px" y="0px" viewBox="0 0 208.425 80.674"
	 overflow="scroll" xml:space="preserve">
<text transform="matrix(1 0 0 1 0 57.684)" font-family="KaiTi" font-size="10px">往生行</text>
<text transform="matrix(1 0 0 1 39.7429 36.4082)" font-family="KaiTi" font-size="10px">正行</text>
<text transform="matrix(1 0 0 1 39.7429 50.4082)" font-family="KaiTi" font-size="10px">(專修)</text>
<text transform="matrix(1 0 0 1 39.7429 78.4082)" font-family="KaiTi" font-size="10px">雜行</text>
<text transform="matrix(1 0 0 1 70.4595 36.4088)" font-family="KaiTi" font-size="10px">五種</text>
<text transform="matrix(1 0 0 1 70.4595 78.4088)" font-family="KaiTi" font-size="10px">念余佛、修余行等</text>
<text transform="matrix(1 0 0 1 99.78 8.5938)" font-family="KaiTi" font-size="10px">讀</text>
<text transform="matrix(1 0 0 1 129.5798 8.5938)" font-family="KaiTi" font-size="10px">誦</text>
<text transform="matrix(1 0 0 1 99.78 22.5938)" font-family="KaiTi" font-size="10px">觀</text>
<text transform="matrix(1 0 0 1 129.5798 22.5938)" font-family="KaiTi" font-size="10px">察</text>
<text transform="matrix(1 0 0 1 99.78 36.5938)" font-family="KaiTi" font-size="10px">禮</text>
<text transform="matrix(1 0 0 1 129.5798 36.5938)" font-family="KaiTi" font-size="10px">拜</text>
<text transform="matrix(1 0 0 1 99.78 50.5938)" font-family="KaiTi" font-size="10px">稱</text>
<text transform="matrix(1 0 0 1 129.5798 50.5938)" font-family="KaiTi" font-size="10px">名</text>
<text transform="matrix(1 0 0 1 99.78 64.5938)" font-family="KaiTi" font-size="10px">贊</text>
<text transform="matrix(1 0 0 1 109.78 64.5938)" font-family="KaiTi" font-size="10px">嘆</text>
<text transform="matrix(1 0 0 1 119.78 64.5938)" font-family="KaiTi" font-size="10px">供</text>
<text transform="matrix(1 0 0 1 129.78 64.5938)" font-family="KaiTi" font-size="10px">養</text>
<text transform="matrix(1 0 0 1 150.7955 8.594)" font-family="KaiTi" font-size="10px">前三</text>
<text transform="matrix(1 0 0 1 150.7955 22.594)" font-family="KaiTi" font-size="10px">後一</text>
<text transform="matrix(1 0 0 1 179.8424 15.876)" font-family="KaiTi" font-size="10px">助業</text>
<g>
	<line fill="none" stroke="#000000" stroke-width="0.5" stroke-miterlimit="10" x1="95.248" y1="5.577" x2="95.248" y2="61.965"/>
	<line fill="none" stroke="#000000" stroke-width="0.5" stroke-miterlimit="10" x1="95.019" y1="5.836" x2="97.915" y2="5.836"/>
	<line fill="none" stroke="#000000" stroke-width="0.5" stroke-miterlimit="10" x1="95.019" y1="61.916" x2="97.915" y2="61.916"/>
	<line fill="none" stroke="#000000" stroke-width="0.5" stroke-miterlimit="10" x1="92.271" y1="33.658" x2="95.167" y2="33.658"/>
</g>
<line fill="none" stroke="#000000" stroke-width="0.5" stroke-miterlimit="10" x1="144.153" y1="47.127" x2="177.846" y2="47.127"/>
<line fill="none" stroke="#000000" stroke-width="0.5" stroke-miterlimit="10" x1="144.153" y1="5.833" x2="149.694" y2="5.833"/>
<line fill="none" stroke="#000000" stroke-width="0.5" stroke-miterlimit="10" x1="144.153" y1="18.251" x2="149.694" y2="5.833"/>
<line fill="none" stroke="#000000" stroke-width="0.5" stroke-miterlimit="10" x1="144.153" y1="31.958" x2="149.694" y2="5.661"/>
<line fill="none" stroke="#000000" stroke-width="0.5" stroke-miterlimit="10" x1="144.153" y1="60.793" x2="149.665" y2="22.627"/>
<line fill="none" stroke="#000000" stroke-width="0.5" stroke-miterlimit="10" x1="62.165" y1="33.769" x2="67.915" y2="33.769"/>
<line fill="none" stroke="#000000" stroke-width="0.5" stroke-miterlimit="10" x1="62.165" y1="75.627" x2="67.915" y2="75.627"/>
<g>
	
		<line fill="none" stroke="#000000" stroke-width="0.5" stroke-miterlimit="10" x1="175.225" y1="12.684" x2="178.121" y2="12.684"/>
	<line fill="none" stroke="#000000" stroke-width="0.5" stroke-miterlimit="10" x1="172.449" y1="5.767" x2="175.345" y2="5.767"/>
	
		<line fill="none" stroke="#000000" stroke-width="0.5" stroke-miterlimit="10" x1="172.458" y1="19.934" x2="175.354" y2="19.934"/>
	<line fill="none" stroke="#000000" stroke-width="0.5" stroke-miterlimit="10" x1="175.346" y1="5.512" x2="175.346" y2="20.184"/>
</g>
<text transform="matrix(1 0 0 1 178.4252 51.6269)" font-family="KaiTi" font-size="10px">正定業</text>
<text transform="matrix(1 0 0 1 178.4252 65.627)" font-family="KaiTi" font-size="10px">(專念)</text>
<g>
	<line fill="none" stroke="#000000" stroke-width="0.5" stroke-miterlimit="10" x1="34.406" y1="75.581" x2="37.293" y2="75.581"/>
	<line fill="none" stroke="#000000" stroke-width="0.5" stroke-miterlimit="10" x1="34.406" y1="33.666" x2="37.293" y2="33.666"/>
	<line fill="none" stroke="#000000" stroke-width="0.5" stroke-miterlimit="10" x1="31.635" y1="54.752" x2="34.522" y2="54.752"/>
	<line fill="none" stroke="#000000" stroke-width="0.5" stroke-miterlimit="10" x1="34.522" y1="33.421" x2="34.522" y2="75.846"/>
</g>
</svg>
