<?xml version="1.0" encoding="utf-8"?>
<!-- Generator: Adobe Illustrator 21.0.0, SVG Export Plug-In . SVG Version: 6.00 Build 0)  -->
<svg version="1.1" baseProfile="tiny" id="圖層_1"
	 xmlns="http://www.w3.org/2000/svg" xmlns:xlink="http://www.w3.org/1999/xlink" x="0px" y="0px" viewBox="0 0 246.2 115.4"
	 overflow="scroll" xml:space="preserve">
<text transform="matrix(1 0 0 1 54.5 8.5938)" font-family="'KaiTi'" font-size="10px">眾</text>
<text transform="matrix(1 0 0 1 64.5 8.5938)" font-family="'KaiTi'" font-size="10px">生</text>
<text transform="matrix(1 0 0 1 74.5 8.5938)" font-family="'KaiTi'" font-size="10px">依</text>
<text transform="matrix(1 0 0 1 84.5 8.5938)" font-family="'KaiTi'" font-size="10px">彌</text>
<text transform="matrix(1 0 0 1 94.5 8.5938)" font-family="'KaiTi'" font-size="10px">陀</text>
<text transform="matrix(1 0 0 1 104.5005 8.5938)" font-family="'KaiTi'" font-size="10px">之</text>
<text transform="matrix(1 0 0 1 114.5005 8.5938)" font-family="'KaiTi'" font-size="10px">正</text>
<text transform="matrix(1 0 0 1 124.5005 8.5938)" font-family="'KaiTi'" font-size="10px">覺</text>
<text transform="matrix(1 0 0 1 134.5005 8.5938)" font-family="'KaiTi'" font-size="10px">為</text>
<text transform="matrix(1 0 0 1 144.5005 8.5938)" font-family="'KaiTi'" font-size="10px">往</text>
<text transform="matrix(1 0 0 1 154.5005 8.5938)" font-family="'KaiTi'" font-size="10px">生</text>
<text transform="matrix(1 0 0 1 164.5005 8.5938)" font-family="'KaiTi'" font-size="10px">之</text>
<text transform="matrix(1 0 0 1 174.5005 8.5938)" font-family="'KaiTi'" font-size="10px">因</text>
<text transform="matrix(1 0 0 1 54.5 26.0938)" font-family="'KaiTi'" font-size="10px">彌</text>
<text transform="matrix(1 0 0 1 64.5 26.0938)" font-family="'KaiTi'" font-size="10px">陀</text>
<text transform="matrix(1 0 0 1 74.5 26.0938)" font-family="'KaiTi'" font-size="10px">依</text>
<text transform="matrix(1 0 0 1 84.5 26.0938)" font-family="'KaiTi'" font-size="10px">眾</text>
<text transform="matrix(1 0 0 1 94.5 26.0938)" font-family="'KaiTi'" font-size="10px">生</text>
<text transform="matrix(1 0 0 1 104.5005 26.0938)" font-family="'KaiTi'" font-size="10px">之</text>
<text transform="matrix(1 0 0 1 114.5005 26.0938)" font-family="'KaiTi'" font-size="10px">往</text>
<text transform="matrix(1 0 0 1 124.5005 26.0938)" font-family="'KaiTi'" font-size="10px">生</text>
<text transform="matrix(1 0 0 1 134.5005 26.0938)" font-family="'KaiTi'" font-size="10px">為</text>
<text transform="matrix(1 0 0 1 144.5005 26.0938)" font-family="'KaiTi'" font-size="10px">正</text>
<text transform="matrix(1 0 0 1 154.5005 26.0938)" font-family="'KaiTi'" font-size="10px">覺</text>
<text transform="matrix(1 0 0 1 164.5005 26.0938)" font-family="'KaiTi'" font-size="10px">之</text>
<text transform="matrix(1 0 0 1 174.5005 26.0938)" font-family="'KaiTi'" font-size="10px">果</text>
<text transform="matrix(1 0 0 1 54.5 43.5942)" font-family="'KaiTi'" font-size="10px">彌</text>
<text transform="matrix(1 0 0 1 64.5 43.5942)" font-family="'KaiTi'" font-size="10px">陀</text>
<text transform="matrix(1 0 0 1 74.5 43.5942)" font-family="'KaiTi'" font-size="10px">功</text>
<text transform="matrix(1 0 0 1 84.5 43.5942)" font-family="'KaiTi'" font-size="10px">德</text>
<text transform="matrix(1 0 0 1 94.5 43.5942)" font-family="'DFKaiShu-SB-Estd-BF'" font-size="10px">，</text>
<text transform="matrix(1 0 0 1 104.5005 43.5942)" font-family="'KaiTi'" font-size="10px">入</text>
<text transform="matrix(1 0 0 1 114.5005 43.5942)" font-family="'KaiTi'" font-size="10px">眾</text>
<text transform="matrix(1 0 0 1 124.5005 43.5942)" font-family="'KaiTi'" font-size="10px">生</text>
<text transform="matrix(1 0 0 1 134.5005 43.5942)" font-family="'KaiTi'" font-size="10px">心</text>
<text transform="matrix(1 0 0 1 144.5005 43.5942)" font-family="'KaiTi'" font-size="10px"> </text>
<text transform="matrix(1 0 0 1 154.5005 43.5942)" font-family="'KaiTi'" font-size="10px">佛</text>
<text transform="matrix(1 0 0 1 164.5005 43.5942)" font-family="'KaiTi'" font-size="10px">入</text>
<text transform="matrix(1 0 0 1 174.5005 43.5942)" font-family="'KaiTi'" font-size="10px">我</text>
<text transform="matrix(1 0 0 1 184.5005 43.5942)" font-family="'KaiTi'" font-size="10px">心</text>
<text transform="matrix(1 0 0 1 54.5 61.0942)" font-family="'KaiTi'" font-size="10px">念</text>
<text transform="matrix(1 0 0 1 64.5 61.0942)" font-family="'KaiTi'" font-size="10px">佛</text>
<text transform="matrix(1 0 0 1 74.5 61.0942)" font-family="'KaiTi'" font-size="10px">眾</text>
<text transform="matrix(1 0 0 1 84.5 61.0942)" font-family="'KaiTi'" font-size="10px">生</text>
<text transform="matrix(1 0 0 1 94.5 61.0942)" font-family="'DFKaiShu-SB-Estd-BF'" font-size="10px">，</text>
<text transform="matrix(1 0 0 1 104.5005 61.0942)" font-family="'KaiTi'" font-size="10px">攝</text>
<text transform="matrix(1 0 0 1 114.5005 61.0942)" font-family="'KaiTi'" font-size="10px">取</text>
<text transform="matrix(1 0 0 1 124.5005 61.0942)" font-family="'KaiTi'" font-size="10px">不</text>
<text transform="matrix(1 0 0 1 134.5005 61.0942)" font-family="'KaiTi'" font-size="10px">捨</text>
<text transform="matrix(1 0 0 1 144.5005 61.0942)" font-family="'KaiTi'" font-size="10px"> </text>
<text transform="matrix(1 0 0 1 154.5005 61.0942)" font-family="'KaiTi'" font-size="10px">我</text>
<text transform="matrix(1 0 0 1 164.5005 61.0942)" font-family="'KaiTi'" font-size="10px">入</text>
<text transform="matrix(1 0 0 1 174.5005 61.0942)" font-family="'KaiTi'" font-size="10px">佛</text>
<text transform="matrix(1 0 0 1 184.5005 61.0942)" font-family="'KaiTi'" font-size="10px">心</text>
<text transform="matrix(1 0 0 1 54.5 78.5942)" font-family="'KaiTi'" font-size="10px">眾</text>
<text transform="matrix(1 0 0 1 64.5 78.5942)" font-family="'KaiTi'" font-size="10px">生</text>
<text transform="matrix(1 0 0 1 74.5 78.5942)" font-family="'KaiTi'" font-size="10px">口</text>
<text transform="matrix(1 0 0 1 84.5 78.5942)" font-family="'KaiTi'" font-size="10px">稱</text>
<text transform="matrix(1 0 0 1 94.5 78.5942)" font-family="'KaiTi'" font-size="10px"> </text>
<text transform="matrix(1 0 0 1 104.5005 78.5942)" font-family="'KaiTi'" font-size="10px">佛</text>
<text transform="matrix(1 0 0 1 114.5005 78.5942)" font-family="'KaiTi'" font-size="10px">即</text>
<text transform="matrix(1 0 0 1 124.5005 78.5942)" font-family="'KaiTi'" font-size="10px">聞</text>
<text transform="matrix(1 0 0 1 134.5005 78.5942)" font-family="'KaiTi'" font-size="10px">之</text>
<text transform="matrix(1 0 0 1 54.5 96.0942)" font-family="'KaiTi'" font-size="10px">眾</text>
<text transform="matrix(1 0 0 1 64.5 96.0942)" font-family="'KaiTi'" font-size="10px">生</text>
<text transform="matrix(1 0 0 1 74.5 96.0942)" font-family="'KaiTi'" font-size="10px">身</text>
<text transform="matrix(1 0 0 1 84.5 96.0942)" font-family="'KaiTi'" font-size="10px">禮</text>
<text transform="matrix(1 0 0 1 94.5 96.0942)" font-family="'KaiTi'" font-size="10px"> </text>
<text transform="matrix(1 0 0 1 104.5005 96.0942)" font-family="'KaiTi'" font-size="10px">佛</text>
<text transform="matrix(1 0 0 1 114.5005 96.0942)" font-family="'KaiTi'" font-size="10px">即</text>
<text transform="matrix(1 0 0 1 124.5005 96.0942)" font-family="'KaiTi'" font-size="10px">見</text>
<text transform="matrix(1 0 0 1 134.5005 96.0942)" font-family="'KaiTi'" font-size="10px">之</text>
<text transform="matrix(1 0 0 1 54.5 113.5942)" font-family="'KaiTi'" font-size="10px">眾</text>
<text transform="matrix(1 0 0 1 64.5 113.5942)" font-family="'KaiTi'" font-size="10px">生</text>
<text transform="matrix(1 0 0 1 74.5 113.5942)" font-family="'KaiTi'" font-size="10px">心</text>
<text transform="matrix(1 0 0 1 84.5 113.5942)" font-family="'KaiTi'" font-size="10px">念</text>
<text transform="matrix(1 0 0 1 94.5 113.5942)" font-family="'KaiTi'" font-size="10px"> </text>
<text transform="matrix(1 0 0 1 104.5005 113.5942)" font-family="'KaiTi'" font-size="10px">佛</text>
<text transform="matrix(1 0 0 1 114.5005 113.5942)" font-family="'KaiTi'" font-size="10px">即</text>
<text transform="matrix(1 0 0 1 124.5005 113.5942)" font-family="'KaiTi'" font-size="10px">念</text>
<text transform="matrix(1 0 0 1 134.5005 113.5942)" font-family="'KaiTi'" font-size="10px">之</text>
<text transform="matrix(1 0 0 1 0 12.0939)" font-family="'KaiTi'" font-size="10px">往生正覺</text>
<text transform="matrix(1 0 0 1 0 22.5939)" font-family="'KaiTi'" font-size="10px">機法一體</text>
<text transform="matrix(1 0 0 1 0 47.0934)" font-family="'KaiTi'" font-size="10px">身心功德</text>
<text transform="matrix(1 0 0 1 0 57.5934)" font-family="'KaiTi'" font-size="10px">機法一體</text>
<text transform="matrix(1 0 0 1 0 90.8434)" font-family="'KaiTi'" font-size="10px">彼此三業</text>
<text transform="matrix(1 0 0 1 0 101.3434)" font-family="'KaiTi'" font-size="10px">機法一體</text>
<g>
	<line fill="none" stroke="#000000" stroke-width="0.5" stroke-miterlimit="10" x1="47.5" y1="4.9" x2="47.5" y2="23.6"/>
	<line fill="none" stroke="#000000" stroke-width="0.5" stroke-miterlimit="10" x1="47.5" y1="4.9" x2="51.2" y2="4.9"/>
	<line fill="none" stroke="#000000" stroke-width="0.5" stroke-miterlimit="10" x1="47.5" y1="23.6" x2="51.2" y2="23.6"/>
	<line fill="none" stroke="#000000" stroke-width="0.5" stroke-miterlimit="10" x1="47.6" y1="13.9" x2="43.8" y2="13.9"/>
</g>
<g>
	<line fill="none" stroke="#000000" stroke-width="0.5" stroke-miterlimit="10" x1="48.5" y1="39.9" x2="48.5" y2="58.6"/>
	<line fill="none" stroke="#000000" stroke-width="0.5" stroke-miterlimit="10" x1="48.5" y1="39.9" x2="52.2" y2="39.9"/>
	<line fill="none" stroke="#000000" stroke-width="0.5" stroke-miterlimit="10" x1="48.5" y1="58.6" x2="52.2" y2="58.6"/>
	<line fill="none" stroke="#000000" stroke-width="0.5" stroke-miterlimit="10" x1="48.6" y1="48.9" x2="44.8" y2="48.9"/>
</g>
<g>
	<line fill="none" stroke="#000000" stroke-width="0.5" stroke-miterlimit="10" x1="48.6" y1="75.6" x2="48.6" y2="110.5"/>
	<line fill="none" stroke="#000000" stroke-width="0.5" stroke-miterlimit="10" x1="48.6" y1="75.6" x2="52.3" y2="75.6"/>
	<line fill="none" stroke="#000000" stroke-width="0.5" stroke-miterlimit="10" x1="48.5" y1="110.5" x2="52.2" y2="110.5"/>
	<line fill="none" stroke="#000000" stroke-width="0.5" stroke-miterlimit="10" x1="48.6" y1="92.6" x2="44.8" y2="92.6"/>
</g>
<line fill="none" stroke="#000000" stroke-width="0.5" stroke-miterlimit="10" x1="147" y1="39.9" x2="152.5" y2="39.9"/>
<line fill="none" stroke="#000000" stroke-width="0.5" stroke-miterlimit="10" x1="147" y1="58.6" x2="152.5" y2="58.6"/>
<line fill="none" stroke="#000000" stroke-width="0.5" stroke-miterlimit="10" x1="97.9" y1="75.6" x2="103.4" y2="75.6"/>
<line fill="none" stroke="#000000" stroke-width="0.5" stroke-miterlimit="10" x1="97.4" y1="93" x2="102.9" y2="93"/>
<line fill="none" stroke="#000000" stroke-width="0.5" stroke-miterlimit="10" x1="97.4" y1="110.5" x2="102.9" y2="110.5"/>
<g>
	<line fill="none" stroke="#000000" stroke-width="0.5" stroke-miterlimit="10" x1="190.5" y1="23.6" x2="190.5" y2="4.9"/>
	<line fill="none" stroke="#000000" stroke-width="0.5" stroke-miterlimit="10" x1="190.5" y1="23.6" x2="186.8" y2="23.6"/>
	<line fill="none" stroke="#000000" stroke-width="0.5" stroke-miterlimit="10" x1="190.5" y1="4.9" x2="186.8" y2="4.9"/>
	<line fill="none" stroke="#000000" stroke-width="0.5" stroke-miterlimit="10" x1="190.4" y1="14.5" x2="194.2" y2="14.5"/>
</g>
<g>
	<line fill="none" stroke="#000000" stroke-width="0.5" stroke-miterlimit="10" x1="200.9" y1="58.3" x2="200.9" y2="39.6"/>
	<line fill="none" stroke="#000000" stroke-width="0.5" stroke-miterlimit="10" x1="200.9" y1="58.3" x2="197.2" y2="58.3"/>
	<line fill="none" stroke="#000000" stroke-width="0.5" stroke-miterlimit="10" x1="200.9" y1="39.6" x2="197.2" y2="39.6"/>
	<line fill="none" stroke="#000000" stroke-width="0.5" stroke-miterlimit="10" x1="200.9" y1="49.2" x2="204.7" y2="49.2"/>
</g>
<g>
	<line fill="none" stroke="#000000" stroke-width="0.5" stroke-miterlimit="10" x1="150.8" y1="110.5" x2="150.8" y2="75.6"/>
	<line fill="none" stroke="#000000" stroke-width="0.5" stroke-miterlimit="10" x1="150.8" y1="110.5" x2="147.1" y2="110.5"/>
	<line fill="none" stroke="#000000" stroke-width="0.5" stroke-miterlimit="10" x1="150.8" y1="75.6" x2="147.1" y2="75.6"/>
	<line fill="none" stroke="#000000" stroke-width="0.5" stroke-miterlimit="10" x1="150.8" y1="93" x2="154.6" y2="93"/>
</g>
<text transform="matrix(1 0 0 1 198 17.3442)" font-family="'KaiTi'" font-size="10px">彼此依靠</text>
<text transform="matrix(1 0 0 1 206.2412 52.3438)" font-family="'KaiTi'" font-size="10px">互相融合</text>
<text transform="matrix(1 0 0 1 157.2417 96.0939)" font-family="'KaiTi'" font-size="10px">三業不離</text>
</svg>
