<?xml version="1.0" encoding="utf-8"?>
<!-- Generator: Adobe Illustrator 21.0.0, SVG Export Plug-In . SVG Version: 6.00 Build 0)  -->
<svg version="1.1" baseProfile="tiny" id="图层_1"
	 xmlns="http://www.w3.org/2000/svg" xmlns:xlink="http://www.w3.org/1999/xlink" x="0px" y="0px" viewBox="0 0 228.6 38.4"
	 overflow="scroll" xml:space="preserve">
<text transform="matrix(1 0 0 1 -1.525879e-04 8.5944)" font-family="'KaiTi'" font-size="10px">(</text>
<text transform="matrix(1 0 0 1 4.9998 8.5944)" font-family="'KaiTi'" font-size="10px">1</text>
<text transform="matrix(1 0 0 1 9.9998 8.5944)" font-family="'KaiTi'" font-size="10px">)</text>
<text transform="matrix(1 0 0 1 14.9998 8.5944)" font-family="'KaiTi'" font-size="10px">无</text>
<text transform="matrix(1 0 0 1 24.9998 8.5944)" font-family="'KaiTi'" font-size="10px">三</text>
<text transform="matrix(1 0 0 1 34.9998 8.5944)" font-family="'KaiTi'" font-size="10px">界</text>
<text transform="matrix(1 0 0 1 44.9998 8.5944)" font-family="'KaiTi'" font-size="10px">六</text>
<text transform="matrix(1 0 0 1 54.9998 8.5944)" font-family="'KaiTi'" font-size="10px">道</text>
<text transform="matrix(1 0 0 1 64.9998 8.5944)" font-family="'KaiTi'" font-size="10px">轮</text>
<text transform="matrix(1 0 0 1 74.9998 8.5944)" font-family="'KaiTi'" font-size="10px">回</text>
<text transform="matrix(1 0 0 1 84.9998 8.5944)" font-family="'KaiTi'" font-size="10px">之</text>
<text transform="matrix(1 0 0 1 94.9998 8.5944)" font-family="'KaiTi'" font-size="10px">事</text>
<text transform="matrix(1 0 0 1 104.9998 8.5944)" font-family="'KaiTi'" font-size="10px"> </text>
<text transform="matrix(1 0 0 1 114.9998 8.5944)" font-family="'KaiTi'" font-size="10px">无</text>
<text transform="matrix(1 0 0 1 124.9998 8.5944)" font-family="'KaiTi'" font-size="10px">痛</text>
<text transform="matrix(1 0 0 1 134.9998 8.5944)" font-family="'KaiTi'" font-size="10px">苦</text>
<text transform="matrix(1 0 0 1 144.9998 8.5944)" font-family="'KaiTi'" font-size="10px">境</text>
<text transform="matrix(1 0 0 1 154.9998 8.5944)" font-family="'KaiTi'" font-size="10px">界</text>
<text transform="matrix(1 0 0 1 -1.525879e-04 22.5944)" font-family="'KaiTi'" font-size="10px">(</text>
<text transform="matrix(1 0 0 1 4.9998 22.5944)" font-family="'KaiTi'" font-size="10px">2</text>
<text transform="matrix(1 0 0 1 9.9998 22.5944)" font-family="'KaiTi'" font-size="10px">)</text>
<text transform="matrix(1 0 0 1 14.9998 22.5944)" font-family="'KaiTi'" font-size="10px">无</text>
<text transform="matrix(1 0 0 1 24.9998 22.5944)" font-family="'KaiTi'" font-size="10px">起</text>
<text transform="matrix(1 0 0 1 34.9998 22.5944)" font-family="'KaiTi'" font-size="10px">惑</text>
<text transform="matrix(1 0 0 1 44.9998 22.5944)" font-family="'KaiTi'" font-size="10px">造</text>
<text transform="matrix(1 0 0 1 54.9998 22.5944)" font-family="'KaiTi'" font-size="10px">业</text>
<text transform="matrix(1 0 0 1 64.9998 22.5944)" font-family="'KaiTi'" font-size="10px">受</text>
<text transform="matrix(1 0 0 1 74.9998 22.5944)" font-family="'KaiTi'" font-size="10px">苦</text>
<text transform="matrix(1 0 0 1 84.9998 22.5944)" font-family="'KaiTi'" font-size="10px">之</text>
<text transform="matrix(1 0 0 1 94.9998 22.5944)" font-family="'KaiTi'" font-size="10px">事</text>
<text transform="matrix(1 0 0 1 104.9998 22.5944)" font-family="'KaiTi'" font-size="10px"> </text>
<text transform="matrix(1 0 0 1 114.9998 22.5944)" font-family="'KaiTi'" font-size="10px">无</text>
<text transform="matrix(1 0 0 1 124.9998 22.5944)" font-family="'KaiTi'" font-size="10px">痛</text>
<text transform="matrix(1 0 0 1 134.9998 22.5944)" font-family="'KaiTi'" font-size="10px">苦</text>
<text transform="matrix(1 0 0 1 144.9998 22.5944)" font-family="'KaiTi'" font-size="10px">身</text>
<text transform="matrix(1 0 0 1 154.9998 22.5944)" font-family="'KaiTi'" font-size="10px">心</text>
<text transform="matrix(1 0 0 1 -1.525879e-04 36.5944)" font-family="'KaiTi'" font-size="10px">(</text>
<text transform="matrix(1 0 0 1 4.9998 36.5944)" font-family="'KaiTi'" font-size="10px">3</text>
<text transform="matrix(1 0 0 1 9.9998 36.5944)" font-family="'KaiTi'" font-size="10px">)</text>
<text transform="matrix(1 0 0 1 14.9998 36.5944)" font-family="'KaiTi'" font-size="10px">得</text>
<text transform="matrix(1 0 0 1 24.9998 36.5944)" font-family="'KaiTi'" font-size="10px">永</text>
<text transform="matrix(1 0 0 1 34.9998 36.5944)" font-family="'KaiTi'" font-size="10px">恒</text>
<text transform="matrix(1 0 0 1 44.9998 36.5944)" font-family="'KaiTi'" font-size="10px">自</text>
<text transform="matrix(1 0 0 1 54.9998 36.5944)" font-family="'KaiTi'" font-size="10px">在</text>
<text transform="matrix(1 0 0 1 64.9998 36.5944)" font-family="'KaiTi'" font-size="10px">安</text>
<text transform="matrix(1 0 0 1 74.9998 36.5944)" font-family="'KaiTi'" font-size="10px">乐</text>
<text transform="matrix(1 0 0 1 84.9998 36.5944)" font-family="'KaiTi'" font-size="10px">之</text>
<text transform="matrix(1 0 0 1 94.9998 36.5944)" font-family="'KaiTi'" font-size="10px">命</text>
<text transform="matrix(1 0 0 1 104.9998 36.5944)" font-family="'KaiTi'" font-size="10px"> </text>
<text transform="matrix(1 0 0 1 114.9998 36.5944)" font-family="'KaiTi'" font-size="10px">成</text>
<text transform="matrix(1 0 0 1 124.9998 36.5944)" font-family="'KaiTi'" font-size="10px">佛</text>
<text transform="matrix(1 0 0 1 134.9998 36.5944)" font-family="'KaiTi'" font-size="10px">度</text>
<text transform="matrix(1 0 0 1 144.9998 36.5944)" font-family="'KaiTi'" font-size="10px">众</text>
<text transform="matrix(1 0 0 1 154.9998 36.5944)" font-family="'KaiTi'" font-size="10px">生</text>
<g>
	<line fill="none" stroke="#000000" stroke-width="0.5" stroke-miterlimit="10" x1="171.8" y1="19" x2="171.8" y2="4.7"/>
	<line fill="none" stroke="#000000" stroke-width="0.5" stroke-miterlimit="10" x1="171.8" y1="19" x2="168.1" y2="19"/>
	<line fill="none" stroke="#000000" stroke-width="0.5" stroke-miterlimit="10" x1="171.8" y1="4.7" x2="168.1" y2="4.7"/>
	<line fill="none" stroke="#000000" stroke-width="0.5" stroke-miterlimit="10" x1="171.8" y1="11.9" x2="175.6" y2="11.9"/>
</g>
<line fill="none" stroke="#000000" stroke-width="0.5" stroke-miterlimit="10" x1="106.7" y1="4.7" x2="112.2" y2="4.7"/>
<line fill="none" stroke="#000000" stroke-width="0.5" stroke-miterlimit="10" x1="106.7" y1="19" x2="112.2" y2="19"/>
<line fill="none" stroke="#000000" stroke-width="0.5" stroke-miterlimit="10" x1="106.7" y1="33.3" x2="112.2" y2="33.3"/>
<line fill="none" stroke="#000000" stroke-width="0.5" stroke-miterlimit="10" x1="168.1" y1="33.3" x2="175.6" y2="33.3"/>
<text transform="matrix(1 0 0 1 178.5826 15.5939)" font-family="'KaiTi'" font-size="10px">拔</text>
<text transform="matrix(1 0 0 1 188.5826 15.5939)" font-family="'KaiTi'" font-size="10px">苦</text>
<text transform="matrix(1 0 0 1 198.5826 15.5939)" font-family="'KaiTi'" font-size="10px"> </text>
<text transform="matrix(1 0 0 1 208.5826 15.5939)" font-family="'KaiTi'" font-size="10px">离</text>
<text transform="matrix(1 0 0 1 218.5826 15.5939)" font-family="'KaiTi'" font-size="10px">苦</text>
<text transform="matrix(1 0 0 1 178.5826 36.5944)" font-family="'KaiTi'" font-size="10px">与</text>
<text transform="matrix(1 0 0 1 188.5826 36.5944)" font-family="'KaiTi'" font-size="10px">乐</text>
<text transform="matrix(1 0 0 1 198.5826 36.5944)" font-family="'KaiTi'" font-size="10px"> </text>
<text transform="matrix(1 0 0 1 208.5826 36.5944)" font-family="'KaiTi'" font-size="10px">得</text>
<text transform="matrix(1 0 0 1 218.5826 36.5944)" font-family="'KaiTi'" font-size="10px">乐</text>
<line fill="none" stroke="#000000" stroke-width="0.5" stroke-miterlimit="10" x1="200.8" y1="11.9" x2="206.3" y2="11.9"/>
<line fill="none" stroke="#000000" stroke-width="0.5" stroke-miterlimit="10" x1="200.8" y1="33.3" x2="206.3" y2="33.3"/>
</svg>
