<?xml version="1.0" encoding="utf-8"?>
<!-- Generator: Adobe Illustrator 21.0.0, SVG Export Plug-In . SVG Version: 6.00 Build 0)  -->
<svg version="1.1" baseProfile="tiny" id="图层_1"
	 xmlns="http://www.w3.org/2000/svg" xmlns:xlink="http://www.w3.org/1999/xlink" x="0px" y="0px" viewBox="0 0 242.6 31.6"
	 overflow="scroll" xml:space="preserve">
<text transform="matrix(1 0 0 1 32.6003 8.5937)" font-family="'KaiTi'" font-size="10px">总</text>
<text transform="matrix(1 0 0 1 42.6003 8.5937)" font-family="'DFKaiShu-SB-Estd-BF'" font-size="10px">：</text>
<text transform="matrix(1 0 0 1 52.6003 8.5937)" font-family="'KaiTi'" font-size="10px">一</text>
<text transform="matrix(1 0 0 1 62.6003 8.5937)" font-family="'KaiTi'" font-size="10px">切</text>
<text transform="matrix(1 0 0 1 72.6003 8.5937)" font-family="'KaiTi'" font-size="10px">无</text>
<text transform="matrix(1 0 0 1 82.6003 8.5937)" font-family="'KaiTi'" font-size="10px">明</text>
<text transform="matrix(1 0 0 1 92.6003 8.5937)" font-family="'DFKaiShu-SB-Estd-BF'" font-size="10px">，</text>
<text transform="matrix(1 0 0 1 102.6003 8.5937)" font-family="'KaiTi'" font-size="10px">众</text>
<text transform="matrix(1 0 0 1 112.6003 8.5937)" font-family="'KaiTi'" font-size="10px">生</text>
<text transform="matrix(1 0 0 1 122.6003 8.5937)" font-family="'KaiTi'" font-size="10px">生</text>
<text transform="matrix(1 0 0 1 132.6003 8.5937)" font-family="'KaiTi'" font-size="10px">死</text>
<text transform="matrix(1 0 0 1 142.6003 8.5937)" font-family="'KaiTi'" font-size="10px">之</text>
<text transform="matrix(1 0 0 1 152.6003 8.5937)" font-family="'KaiTi'" font-size="10px">因</text>
<text transform="matrix(1 0 0 1 162.6003 8.5937)" font-family="'KaiTi'" font-size="10px"> </text>
<text transform="matrix(1 0 0 1 172.6003 8.5937)" font-family="'KaiTi'" font-size="10px">业</text>
<text transform="matrix(1 0 0 1 182.6003 8.5937)" font-family="'KaiTi'" font-size="10px">烦</text>
<text transform="matrix(1 0 0 1 192.6003 8.5937)" font-family="'KaiTi'" font-size="10px">恼</text>
<text transform="matrix(1 0 0 1 202.6003 8.5937)" font-family="'KaiTi'" font-size="10px"> </text>
<text transform="matrix(1 0 0 1 212.6003 8.5937)" font-family="'KaiTi'" font-size="10px">痴</text>
<text transform="matrix(1 0 0 1 222.6003 8.5937)" font-family="'KaiTi'" font-size="10px">无</text>
<text transform="matrix(1 0 0 1 232.6003 8.5937)" font-family="'KaiTi'" font-size="10px">明</text>
<text transform="matrix(1 0 0 1 32.6003 29.5937)" font-family="'KaiTi'" font-size="10px">别</text>
<text transform="matrix(1 0 0 1 42.6003 29.5937)" font-family="'DFKaiShu-SB-Estd-BF'" font-size="10px">：</text>
<text transform="matrix(1 0 0 1 52.6003 29.5937)" font-family="'KaiTi'" font-size="10px">疑</text>
<text transform="matrix(1 0 0 1 62.6003 29.5937)" font-family="'KaiTi'" font-size="10px">弥</text>
<text transform="matrix(1 0 0 1 72.6003 29.5937)" font-family="'KaiTi'" font-size="10px">陀</text>
<text transform="matrix(1 0 0 1 82.6003 29.5937)" font-family="'KaiTi'" font-size="10px">本</text>
<text transform="matrix(1 0 0 1 92.6003 29.5937)" font-family="'KaiTi'" font-size="10px">愿</text>
<text transform="matrix(1 0 0 1 102.6003 29.5937)" font-family="'DFKaiShu-SB-Estd-BF'" font-size="10px">，</text>
<text transform="matrix(1 0 0 1 112.6003 29.5937)" font-family="'KaiTi'" font-size="10px">不</text>
<text transform="matrix(1 0 0 1 122.6003 29.5937)" font-family="'KaiTi'" font-size="10px">了</text>
<text transform="matrix(1 0 0 1 132.6003 29.5937)" font-family="'KaiTi'" font-size="10px">佛</text>
<text transform="matrix(1 0 0 1 142.6003 29.5937)" font-family="'KaiTi'" font-size="10px">智</text>
<text transform="matrix(1 0 0 1 152.6003 29.5937)" font-family="'KaiTi'" font-size="10px">之</text>
<text transform="matrix(1 0 0 1 162.6003 29.5937)" font-family="'KaiTi'" font-size="10px">无</text>
<text transform="matrix(1 0 0 1 172.6003 29.5937)" font-family="'KaiTi'" font-size="10px">明</text>
<text transform="matrix(1 0 0 1 182.6003 29.5937)" font-family="'KaiTi'" font-size="10px"> </text>
<text transform="matrix(1 0 0 1 192.6003 29.5937)" font-family="'KaiTi'" font-size="10px">疑</text>
<text transform="matrix(1 0 0 1 202.6003 29.5937)" font-family="'KaiTi'" font-size="10px">无</text>
<text transform="matrix(1 0 0 1 212.6003 29.5937)" font-family="'KaiTi'" font-size="10px">明</text>
<text transform="matrix(1 0 0 1 0 19.2604)" font-family="'KaiTi'" font-size="10px">无明</text>
<g>
	<line fill="none" stroke="#000000" stroke-width="0.5" stroke-miterlimit="10" x1="25.9" y1="5.4" x2="25.9" y2="26.9"/>
	<line fill="none" stroke="#000000" stroke-width="0.5" stroke-miterlimit="10" x1="25.9" y1="5.4" x2="29.7" y2="5.4"/>
	<line fill="none" stroke="#000000" stroke-width="0.5" stroke-miterlimit="10" x1="25.9" y1="26.9" x2="29.7" y2="26.9"/>
	<line fill="none" stroke="#000000" stroke-width="0.5" stroke-miterlimit="10" x1="25.9" y1="16.1" x2="22.2" y2="16.1"/>
</g>
<line fill="none" stroke="#000000" stroke-width="0.5" stroke-miterlimit="10" x1="164.8" y1="5.4" x2="170.3" y2="5.4"/>
<line fill="none" stroke="#000000" stroke-width="0.5" stroke-miterlimit="10" x1="204.5" y1="5.4" x2="210" y2="5.4"/>
<line fill="none" stroke="#000000" stroke-width="0.5" stroke-miterlimit="10" x1="185.2" y1="26" x2="190.7" y2="26"/>
</svg>
