<?xml version="1.0" encoding="utf-8"?>
<!-- Generator: Adobe Illustrator 21.0.0, SVG Export Plug-In . SVG Version: 6.00 Build 0)  -->
<svg version="1.1" id="图层_1" xmlns="http://www.w3.org/2000/svg" xmlns:xlink="http://www.w3.org/1999/xlink" x="0px" y="0px"
	 viewBox="0 0 328.8 389.6" style="enable-background:new 0 0 328.8 389.6;" xml:space="preserve">
<style type="text/css">
	.st0{enable-background:new    ;}
	.st1{font-family:'KaiTi';}
	.st2{font-size:10px;}
	.st3{letter-spacing:5;}
	.st4{fill:none;stroke:#000000;stroke-width:0.5;stroke-miterlimit:10;}
	.st5{fill:none;}
	.st6{letter-spacing:10;}
	.st7{font-family:'DFKaiShu-SB-Estd-BF';}
	.st8{font-size:12px;}
	.st9{letter-spacing:18;}
</style>
<text transform="matrix(1 0 0 1 42.2336 8.5935)" class="st0"><tspan x="0" y="0" class="st1 st2">圣道门</tspan><tspan x="30" y="0" class="st1 st2 st3"> </tspan><tspan x="40" y="0" class="st1 st2">难行道</tspan><tspan x="70" y="0" class="st1 st2 st3"> </tspan><tspan x="80" y="0" class="st1 st2">自力</tspan><tspan x="100" y="0" class="st1 st2 st3"> </tspan><tspan x="110" y="0" class="st1 st2">竖出</tspan><tspan x="130" y="0" class="st1 st2 st3"> </tspan><tspan x="140" y="0" class="st1 st2">通途</tspan><tspan x="160" y="0" class="st1 st2 st3"> </tspan><tspan x="170" y="0" class="st1 st2">修三学断三毒</tspan><tspan x="0" y="14" class="st1 st2 st3">    </tspan><tspan x="40" y="14" class="st1 st2">事难功渐(权假教)</tspan><tspan x="120" y="14" class="st1 st2 st3"> </tspan><tspan x="130" y="14" class="st1 st2">步行</tspan><tspan x="150" y="14" class="st1 st2 st3"> </tspan><tspan x="160" y="14" class="st1 st2">苦</tspan><tspan x="170" y="14" class="st1 st2 st3"> </tspan><tspan x="180" y="14" class="st1 st2">下堕</tspan><tspan x="200" y="14" class="st1 st2 st3"> </tspan><tspan x="210" y="14" class="st1 st2">轮回</tspan><tspan x="0" y="42" class="st1 st2">净土门</tspan><tspan x="30" y="42" class="st1 st2 st3"> </tspan><tspan x="40" y="42" class="st1 st2">易行道</tspan><tspan x="70" y="42" class="st1 st2 st3"> </tspan><tspan x="80" y="42" class="st1 st2">他力</tspan><tspan x="100" y="42" class="st1 st2 st3"> </tspan><tspan x="110" y="42" class="st1 st2">横超</tspan><tspan x="130" y="42" class="st1 st2 st3"> </tspan><tspan x="140" y="42" class="st1 st2">特别</tspan><tspan x="160" y="42" class="st1 st2 st3"> </tspan><tspan x="170" y="42" class="st1 st2">念弥陀生净土</tspan><tspan x="0" y="56" class="st1 st2 st3">    </tspan><tspan x="40" y="56" class="st1 st2">事易功顿(圆顿教)</tspan><tspan x="120" y="56" class="st1 st2 st3"> </tspan><tspan x="130" y="56" class="st1 st2">乘船</tspan><tspan x="150" y="56" class="st1 st2 st3"> </tspan><tspan x="160" y="56" class="st1 st2">乐</tspan><tspan x="170" y="56" class="st1 st2 st3"> </tspan><tspan x="180" y="56" class="st1 st2">往生</tspan><tspan x="200" y="56" class="st1 st2 st3"> </tspan><tspan x="210" y="56" class="st1 st2">成佛</tspan></text>
<g>
	<line class="st4" x1="36.4" y1="4.4" x2="36.4" y2="47.1"/>
	<line class="st4" x1="36.4" y1="4.4" x2="40.1" y2="4.4"/>
	<line class="st4" x1="36.4" y1="47.1" x2="40.1" y2="47.1"/>
	<line class="st4" x1="36.4" y1="26.6" x2="32.6" y2="26.6"/>
</g>
<rect x="18.8" y="20.1" class="st5" width="13.5" height="34.5"/>
<text transform="matrix(1 0 0 1 -4.577637e-05 30.3643)" class="st1 st2">出三界</text>
<line class="st4" x1="74.2" y1="60.9" x2="79.7" y2="60.9"/>
<line class="st4" x1="74.2" y1="4.4" x2="79.7" y2="4.4"/>
<line class="st4" x1="114.2" y1="4.4" x2="119.7" y2="4.4"/>
<line class="st4" x1="144.4" y1="4.4" x2="149.9" y2="4.4"/>
<line class="st4" x1="174.6" y1="4.4" x2="180.1" y2="4.4"/>
<line class="st4" x1="204.5" y1="4.4" x2="210" y2="4.4"/>
<line class="st4" x1="244.8" y1="18.4" x2="250.3" y2="18.4"/>
<line class="st4" x1="215.1" y1="18.4" x2="220.6" y2="18.4"/>
<line class="st4" x1="194.3" y1="18.4" x2="199.8" y2="18.4"/>
<line class="st4" x1="163.7" y1="18.4" x2="169.2" y2="18.4"/>
<line class="st4" x1="73.9" y1="18.4" x2="79.4" y2="18.4"/>
<line class="st4" x1="114.2" y1="47.1" x2="119.7" y2="47.1"/>
<line class="st4" x1="144.4" y1="47.1" x2="149.9" y2="47.1"/>
<line class="st4" x1="174.6" y1="47.1" x2="180.1" y2="47.1"/>
<line class="st4" x1="204.5" y1="47.1" x2="210" y2="47.1"/>
<line class="st4" x1="74.3" y1="47.1" x2="79.8" y2="47.1"/>
<line class="st4" x1="163.7" y1="60.9" x2="169.2" y2="60.9"/>
<line class="st4" x1="194.3" y1="60.9" x2="199.8" y2="60.9"/>
<line class="st4" x1="215.1" y1="60.9" x2="220.6" y2="60.9"/>
<line class="st4" x1="244.8" y1="60.9" x2="250.3" y2="60.9"/>
<text transform="matrix(1 0 0 1 73.6003 100.2944)" class="st1 st2">难行道</text>
<text transform="matrix(1 0 0 1 103.6003 99.9985)" class="st1 st2 st6"> </text>
<text transform="matrix(1 0 0 1 113.6003 100.2944)" class="st1 st2">勤行精进</text>
<text transform="matrix(1 0 0 1 153.6003 99.9985)" class="st1 st2 st6"> </text>
<text transform="matrix(1 0 0 1 163.6003 100.2944)" class="st0"><tspan x="0" y="0" class="st1 st2">诸</tspan><tspan x="10" y="0" class="st7 st2">、</tspan><tspan x="20" y="0" class="st1 st2">久</tspan><tspan x="30" y="0" class="st7 st2">、</tspan><tspan x="40" y="0" class="st1 st2">堕</tspan></text>
<text transform="matrix(1 0 0 1 213.6003 99.9985)" class="st1 st2 st6"> </text>
<text transform="matrix(1 0 0 1 223.6003 100.2944)" class="st1 st2">陆道步行</text>
<text transform="matrix(1 0 0 1 263.6003 99.9985)" class="st1 st2 st6"> </text>
<text transform="matrix(1 0 0 1 273.6003 100.2944)" class="st1 st2">苦</text>
<text transform="matrix(1 0 0 1 73.6003 124.2944)" class="st1 st2">易行道</text>
<text transform="matrix(1 0 0 1 103.6003 123.9985)" class="st1 st2 st6"> </text>
<text transform="matrix(1 0 0 1 113.6003 124.2944)" class="st1 st2">易行疾至</text>
<text transform="matrix(1 0 0 1 153.6003 123.9985)" class="st1 st2 st6"> </text>
<text transform="matrix(1 0 0 1 163.6003 124.2944)" class="st0"><tspan x="0" y="0" class="st1 st2">一</tspan><tspan x="10" y="0" class="st7 st2">、</tspan><tspan x="20" y="0" class="st1 st2">速</tspan><tspan x="30" y="0" class="st7 st2">、</tspan><tspan x="40" y="0" class="st1 st2">必</tspan></text>
<text transform="matrix(1 0 0 1 213.6003 123.9985)" class="st1 st2 st6"> </text>
<text transform="matrix(1 0 0 1 223.6003 124.2944)" class="st1 st2">水道乘船</text>
<text transform="matrix(1 0 0 1 263.6003 123.9985)" class="st1 st2 st6"> </text>
<text transform="matrix(1 0 0 1 273.6003 124.2944)" class="st1 st2">乐</text>
<line class="st4" x1="215" y1="120.6" x2="220.5" y2="120.6"/>
<line class="st4" x1="265.5" y1="120.6" x2="271" y2="120.6"/>
<text transform="matrix(1 0 0 1 -4.577637e-05 111.9612)" class="st1 st2">佛法</text>
<text transform="matrix(1 0 0 1 20 111.6653)" class="st1 st2 st6"> </text>
<text transform="matrix(1 0 0 1 30 111.9612)" class="st1 st2">菩萨道</text>
<text transform="matrix(1 0 0 1 24 111.6505)" class="st1 st8 st9"> </text>
<g>
	<line class="st4" x1="66.9" y1="96.8" x2="66.9" y2="120.6"/>
	<line class="st4" x1="66.9" y1="96.8" x2="70.7" y2="96.8"/>
	<line class="st4" x1="66.9" y1="120.6" x2="70.7" y2="120.6"/>
	<line class="st4" x1="66.9" y1="108.7" x2="63.2" y2="108.7"/>
</g>
<line class="st4" x1="22.3" y1="108.7" x2="27.8" y2="108.7"/>
<line class="st4" x1="105.8" y1="96.8" x2="111.3" y2="96.8"/>
<line class="st4" x1="155.3" y1="96.8" x2="160.8" y2="96.8"/>
<line class="st4" x1="215" y1="96.8" x2="220.5" y2="96.8"/>
<line class="st4" x1="265.5" y1="96.8" x2="271" y2="96.8"/>
<line class="st4" x1="105.8" y1="120.6" x2="111.3" y2="120.6"/>
<line class="st4" x1="154.4" y1="120.6" x2="159.9" y2="120.6"/>
<text transform="matrix(1 0 0 1 33.2336 158.5459)" class="st0"><tspan x="0" y="0" class="st1 st2">难行道</tspan><tspan x="30" y="0" class="st1 st2 st3"> </tspan><tspan x="40" y="0" class="st1 st2">圣道门</tspan><tspan x="70" y="0" class="st1 st2 st3"> </tspan><tspan x="80" y="0" class="st1 st2">自力</tspan><tspan x="100" y="0" class="st1 st2 st3"> </tspan><tspan x="110" y="0" class="st1 st2">圣者</tspan><tspan x="130" y="0" class="st1 st2 st3"> </tspan><tspan x="140" y="0" class="st1 st2">修行(修诸行)</tspan><tspan x="200" y="0" class="st1 st2 st3"> </tspan><tspan x="210" y="0" class="st1 st2">六度</tspan><tspan x="0" y="14" class="st1 st2 st3">    </tspan><tspan x="40" y="14" class="st1 st2">如陆道步行</tspan><tspan x="90" y="14" class="st1 st2 st3"> </tspan><tspan x="100" y="14" class="st1 st2">苦</tspan><tspan x="110" y="14" class="st1 st2 st3"> </tspan><tspan x="120" y="14" class="st1 st2">诸</tspan><tspan x="130" y="14" class="st7 st2">、</tspan><tspan x="140" y="14" class="st1 st2">久</tspan><tspan x="150" y="14" class="st7 st2">、</tspan><tspan x="160" y="14" class="st1 st2">堕</tspan><tspan x="170" y="14" class="st1 st2 st3"> </tspan><tspan x="180" y="14" class="st1 st2">证果不定</tspan><tspan x="0" y="42" class="st1 st2">易行道</tspan><tspan x="30" y="42" class="st1 st2 st3"> </tspan><tspan x="40" y="42" class="st1 st2">净土门</tspan><tspan x="70" y="42" class="st1 st2 st3"> </tspan><tspan x="80" y="42" class="st1 st2">他力</tspan><tspan x="100" y="42" class="st1 st2 st3"> </tspan><tspan x="110" y="42" class="st1 st2">凡夫</tspan><tspan x="130" y="42" class="st1 st2 st3"> </tspan><tspan x="140" y="42" class="st1 st2">信心(信念佛)</tspan><tspan x="200" y="42" class="st1 st2 st3"> </tspan><tspan x="210" y="42" class="st1 st2">救度</tspan><tspan x="0" y="56" class="st1 st2 st3">    </tspan><tspan x="40" y="56" class="st1 st2">如水道乘船</tspan><tspan x="90" y="56" class="st1 st2 st3"> </tspan><tspan x="100" y="56" class="st1 st2">乐</tspan><tspan x="110" y="56" class="st1 st2 st3"> </tspan><tspan x="120" y="56" class="st1 st2">一</tspan><tspan x="130" y="56" class="st7 st2">、</tspan><tspan x="140" y="56" class="st1 st2">速</tspan><tspan x="150" y="56" class="st7 st2">、</tspan><tspan x="160" y="56" class="st1 st2">必</tspan><tspan x="170" y="56" class="st1 st2 st3"> </tspan><tspan x="180" y="56" class="st1 st2">往生决定</tspan></text>
<g>
	<line class="st4" x1="27.4" y1="154.4" x2="27.4" y2="197.1"/>
	<line class="st4" x1="27.4" y1="154.4" x2="31.1" y2="154.4"/>
	<line class="st4" x1="27.4" y1="197.1" x2="31.1" y2="197.1"/>
	<line class="st4" x1="27.4" y1="176.5" x2="23.6" y2="176.5"/>
</g>
<text transform="matrix(1 0 0 1 -4.577637e-05 180.3167)" class="st1 st2">佛法</text>
<line class="st4" x1="65.2" y1="210.8" x2="70.7" y2="210.8"/>
<line class="st4" x1="65.2" y1="154.4" x2="70.7" y2="154.4"/>
<line class="st4" x1="105.2" y1="154.4" x2="110.7" y2="154.4"/>
<line class="st4" x1="135.4" y1="154.4" x2="140.9" y2="154.4"/>
<line class="st4" x1="165.6" y1="154.4" x2="171.1" y2="154.4"/>
<line class="st4" x1="64.9" y1="168.4" x2="70.4" y2="168.4"/>
<line class="st4" x1="105.2" y1="197.1" x2="110.7" y2="197.1"/>
<line class="st4" x1="135.4" y1="197.1" x2="140.9" y2="197.1"/>
<line class="st4" x1="165.6" y1="197.1" x2="171.1" y2="197.1"/>
<line class="st4" x1="65.3" y1="197.1" x2="70.8" y2="197.1"/>
<line class="st4" x1="125.4" y1="168.4" x2="130.9" y2="168.4"/>
<line class="st4" x1="145.5" y1="168.4" x2="151" y2="168.4"/>
<line class="st4" x1="205.3" y1="168.4" x2="210.8" y2="168.4"/>
<line class="st4" x1="125.4" y1="210.8" x2="130.9" y2="210.8"/>
<line class="st4" x1="145.5" y1="210.8" x2="151" y2="210.8"/>
<line class="st4" x1="205.3" y1="210.8" x2="210.8" y2="210.8"/>
<line class="st4" x1="234.8" y1="154.4" x2="240.3" y2="154.4"/>
<line class="st4" x1="234.8" y1="197.1" x2="240.3" y2="197.1"/>
<text transform="matrix(1 0 0 1 0.5334 266.5852)" class="st1 st2">佛法</text>
<g>
	<line class="st4" x1="27.9" y1="240.7" x2="27.9" y2="283.3"/>
	<line class="st4" x1="27.9" y1="240.7" x2="31.6" y2="240.7"/>
	<line class="st4" x1="27.9" y1="283.3" x2="31.6" y2="283.3"/>
	<line class="st4" x1="27.9" y1="262.8" x2="24.1" y2="262.8"/>
</g>
<text transform="matrix(1 0 0 1 33.7668 244.1832)" class="st1 st2">圣道门</text>
<text transform="matrix(1 0 0 1 63.7668 243.8873)" class="st1 st2 st6"> </text>
<text transform="matrix(1 0 0 1 73.7668 244.1832)" class="st1 st2">自力</text>
<text transform="matrix(1 0 0 1 93.7668 243.5972)" class="st7 st2">「</text>
<text transform="matrix(1 0 0 1 103.7668 244.1832)" class="st1 st2">修行</text>
<text transform="matrix(1 0 0 1 123.7668 243.5972)" class="st7 st2">」</text>
<text transform="matrix(1 0 0 1 133.7668 244.1832)" class="st1 st2">之教</text>
<text transform="matrix(1 0 0 1 153.7668 243.5972)" class="st7 st2">，</text>
<text transform="matrix(1 0 0 1 163.7668 244.1832)" class="st1 st2">生生世世於六道中不失人身</text>
<text transform="matrix(1 0 0 1 283.7668 243.5972)" class="st7 st2">，</text>
<text transform="matrix(1 0 0 1 33.7668 257.8873)" class="st1 st2 st6">    </text>
<text transform="matrix(1 0 0 1 73.7668 258.1832)" class="st1 st2">修行六度万行以证果</text>
<text transform="matrix(1 0 0 1 163.7668 257.5972)" class="st7 st2">；</text>
<text transform="matrix(1 0 0 1 173.7668 258.1832)" class="st1 st2">此乃圣者方能</text>
<text transform="matrix(1 0 0 1 233.7668 257.5972)" class="st7 st2">，</text>
<text transform="matrix(1 0 0 1 243.7668 258.1832)" class="st1 st2">故谓之</text>
<text transform="matrix(1 0 0 1 273.7668 257.5972)" class="st7 st2">「</text>
<text transform="matrix(1 0 0 1 283.7668 258.1832)" class="st1 st2">难</text>
<text transform="matrix(1 0 0 1 293.7668 257.5972)" class="st7 st2">」。</text>
<text transform="matrix(1 0 0 1 33.7668 286.1832)" class="st1 st2">净土门</text>
<text transform="matrix(1 0 0 1 63.7668 285.8873)" class="st1 st2 st6"> </text>
<text transform="matrix(1 0 0 1 73.7668 286.1832)" class="st1 st2">他力</text>
<text transform="matrix(1 0 0 1 93.7668 285.5972)" class="st7 st2">「</text>
<text transform="matrix(1 0 0 1 103.7668 286.1832)" class="st1 st2">信心</text>
<text transform="matrix(1 0 0 1 123.7668 285.5972)" class="st7 st2">」</text>
<text transform="matrix(1 0 0 1 133.7668 286.1832)" class="st1 st2">之教</text>
<text transform="matrix(1 0 0 1 153.7668 285.5972)" class="st7 st2">，</text>
<text transform="matrix(1 0 0 1 163.7668 286.1832)" class="st1 st2">今生此时於娑婆界专称佛名</text>
<text transform="matrix(1 0 0 1 283.7668 285.5972)" class="st7 st2">，</text>
<text transform="matrix(1 0 0 1 33.7668 299.8873)" class="st1 st2 st6">    </text>
<text transform="matrix(1 0 0 1 73.7668 300.1832)" class="st1 st2">往生极乐净土以证果</text>
<text transform="matrix(1 0 0 1 163.7668 299.5972)" class="st7 st2">；</text>
<text transform="matrix(1 0 0 1 173.7668 300.1832)" class="st1 st2">此系凡夫所堪</text>
<text transform="matrix(1 0 0 1 233.7668 299.5972)" class="st7 st2">，</text>
<text transform="matrix(1 0 0 1 243.7668 300.1832)" class="st1 st2">故谓之</text>
<text transform="matrix(1 0 0 1 273.7668 299.5972)" class="st7 st2">「</text>
<text transform="matrix(1 0 0 1 283.7668 300.1832)" class="st1 st2">易</text>
<text transform="matrix(1 0 0 1 293.7668 299.5972)" class="st7 st2">」。</text>
<text transform="matrix(1 0 0 1 313.7668 299.8873)" class="st1 st2 st6"> </text>
<line class="st4" x1="65.8" y1="240.7" x2="71.3" y2="240.7"/>
<line class="st4" x1="65.8" y1="283.3" x2="71.3" y2="283.3"/>
<text transform="matrix(1 0 0 1 0.5336 353.1207)" class="st1 st2">佛法</text>
<g>
	<line class="st4" x1="27.9" y1="328.2" x2="27.9" y2="370"/>
	<line class="st4" x1="27.9" y1="328.2" x2="31.6" y2="328.2"/>
	<line class="st4" x1="27.9" y1="370" x2="31.6" y2="370"/>
	<line class="st4" x1="27.9" y1="349.1" x2="24.1" y2="349.1"/>
</g>
<text transform="matrix(1 0 0 1 33.7671 331.7186)" class="st1 st2">圣道门</text>
<text transform="matrix(1 0 0 1 63.7671 331.4227)" class="st1 st2 st6"> </text>
<text transform="matrix(1 0 0 1 73.7671 331.1327)" class="st7 st2">「</text>
<text transform="matrix(1 0 0 1 83.7671 331.7186)" class="st1 st2">修行</text>
<text transform="matrix(1 0 0 1 103.7671 331.1327)" class="st7 st2">」</text>
<text transform="matrix(1 0 0 1 113.7671 331.7186)" class="st1 st2">之教</text>
<text transform="matrix(1 0 0 1 133.7671 331.4227)" class="st7 st2 st6"> </text>
<text transform="matrix(1 0 0 1 143.7671 331.7186)" class="st1 st2">难行道</text>
<text transform="matrix(1 0 0 1 173.7671 331.4227)" class="st1 st2 st6"> </text>
<text transform="matrix(1 0 0 1 183.7671 331.7186)" class="st1 st2">自力</text>
<text transform="matrix(1 0 0 1 203.7671 331.4227)" class="st1 st2 st6"> </text>
<text transform="matrix(1 0 0 1 213.7671 331.7186)" class="st1 st2">苦</text>
<text transform="matrix(1 0 0 1 33.7671 345.4227)" class="st1 st2 st6">    </text>
<text transform="matrix(1 0 0 1 73.7671 345.7186)" class="st1 st2">以修行六度万行为宗</text>
<text transform="matrix(1 0 0 1 33.7671 373.7186)" class="st1 st2">净土门</text>
<text transform="matrix(1 0 0 1 63.7671 373.4227)" class="st1 st2 st6"> </text>
<text transform="matrix(1 0 0 1 73.7671 373.1327)" class="st7 st2">「</text>
<text transform="matrix(1 0 0 1 83.7671 373.7186)" class="st1 st2">信心</text>
<text transform="matrix(1 0 0 1 103.7671 373.1327)" class="st7 st2">」</text>
<text transform="matrix(1 0 0 1 113.7671 373.7186)" class="st1 st2">之教</text>
<text transform="matrix(1 0 0 1 133.7671 373.4227)" class="st7 st2 st6"> </text>
<text transform="matrix(1 0 0 1 143.7671 373.7186)" class="st1 st2">易行道</text>
<text transform="matrix(1 0 0 1 173.7671 373.4227)" class="st1 st2 st6"> </text>
<text transform="matrix(1 0 0 1 183.7671 373.7186)" class="st1 st2">他力</text>
<text transform="matrix(1 0 0 1 203.7671 373.4227)" class="st1 st2 st6"> </text>
<text transform="matrix(1 0 0 1 213.7671 373.7186)" class="st1 st2">乐</text>
<text transform="matrix(1 0 0 1 223.7671 373.4227)" class="st1 st2 st6"> </text>
<text transform="matrix(1 0 0 1 33.7671 387.4227)" class="st1 st2 st6">    </text>
<text transform="matrix(1 0 0 1 73.7671 387.7186)" class="st1 st2">以信受救度称名为宗</text>
<line class="st4" x1="65.8" y1="328.2" x2="71.3" y2="328.2"/>
<line class="st4" x1="65.8" y1="370" x2="71.3" y2="370"/>
<line class="st4" x1="65.7" y1="341.6" x2="71.2" y2="341.6"/>
<line class="st4" x1="136.1" y1="328.2" x2="141.6" y2="328.2"/>
<line class="st4" x1="176.5" y1="328.2" x2="182" y2="328.2"/>
<line class="st4" x1="205.7" y1="328.2" x2="211.2" y2="328.2"/>
<line class="st4" x1="136.1" y1="370" x2="141.6" y2="370"/>
<line class="st4" x1="176.5" y1="370" x2="182" y2="370"/>
<line class="st4" x1="205.7" y1="370" x2="211.2" y2="370"/>
<line class="st4" x1="65.7" y1="384" x2="71.2" y2="384"/>
</svg>
