<?xml version="1.0" encoding="utf-8"?>
<!-- Generator: Adobe Illustrator 21.0.0, SVG Export Plug-In . SVG Version: 6.00 Build 0)  -->
<svg version="1.1" baseProfile="tiny" id="图层_1"
	 xmlns="http://www.w3.org/2000/svg" xmlns:xlink="http://www.w3.org/1999/xlink" x="0px" y="0px" viewBox="0 0 272.2 66.4"
	 overflow="scroll" xml:space="preserve">
<text transform="matrix(1 0 0 1 42.2336 8.5937)" font-family="'KaiTi'" font-size="10px">圣</text>
<text transform="matrix(1 0 0 1 52.2336 8.5937)" font-family="'KaiTi'" font-size="10px">道</text>
<text transform="matrix(1 0 0 1 62.2336 8.5937)" font-family="'KaiTi'" font-size="10px">门</text>
<text transform="matrix(1 0 0 1 72.2336 8.5937)" font-family="'KaiTi'" font-size="10px"> </text>
<text transform="matrix(1 0 0 1 82.2336 8.5937)" font-family="'KaiTi'" font-size="10px">难</text>
<text transform="matrix(1 0 0 1 92.2336 8.5937)" font-family="'KaiTi'" font-size="10px">行</text>
<text transform="matrix(1 0 0 1 102.2336 8.5937)" font-family="'KaiTi'" font-size="10px">道</text>
<text transform="matrix(1 0 0 1 112.2336 8.5937)" font-family="'KaiTi'" font-size="10px"> </text>
<text transform="matrix(1 0 0 1 122.2336 8.5937)" font-family="'KaiTi'" font-size="10px">自</text>
<text transform="matrix(1 0 0 1 132.2336 8.5937)" font-family="'KaiTi'" font-size="10px">力</text>
<text transform="matrix(1 0 0 1 142.2336 8.5937)" font-family="'KaiTi'" font-size="10px"> </text>
<text transform="matrix(1 0 0 1 152.2336 8.5937)" font-family="'KaiTi'" font-size="10px">竖</text>
<text transform="matrix(1 0 0 1 162.2336 8.5937)" font-family="'KaiTi'" font-size="10px">出</text>
<text transform="matrix(1 0 0 1 172.2336 8.5937)" font-family="'KaiTi'" font-size="10px"> </text>
<text transform="matrix(1 0 0 1 182.2336 8.5937)" font-family="'KaiTi'" font-size="10px">通</text>
<text transform="matrix(1 0 0 1 192.2336 8.5937)" font-family="'KaiTi'" font-size="10px">途</text>
<text transform="matrix(1 0 0 1 202.2336 8.5937)" font-family="'KaiTi'" font-size="10px"> </text>
<text transform="matrix(1 0 0 1 212.2336 8.5937)" font-family="'KaiTi'" font-size="10px">修</text>
<text transform="matrix(1 0 0 1 222.2336 8.5937)" font-family="'KaiTi'" font-size="10px">三</text>
<text transform="matrix(1 0 0 1 232.2336 8.5937)" font-family="'KaiTi'" font-size="10px">学</text>
<text transform="matrix(1 0 0 1 242.2336 8.5937)" font-family="'KaiTi'" font-size="10px">断</text>
<text transform="matrix(1 0 0 1 252.2336 8.5937)" font-family="'KaiTi'" font-size="10px">三</text>
<text transform="matrix(1 0 0 1 262.2336 8.5937)" font-family="'KaiTi'" font-size="10px">毒</text>
<text transform="matrix(1 0 0 1 42.2336 22.5937)" font-family="'KaiTi'" font-size="10px"> </text>
<text transform="matrix(1 0 0 1 52.2336 22.5937)" font-family="'KaiTi'" font-size="10px"> </text>
<text transform="matrix(1 0 0 1 62.2336 22.5937)" font-family="'KaiTi'" font-size="10px"> </text>
<text transform="matrix(1 0 0 1 72.2336 22.5937)" font-family="'KaiTi'" font-size="10px"> </text>
<text transform="matrix(1 0 0 1 82.2336 22.5937)" font-family="'KaiTi'" font-size="10px">事</text>
<text transform="matrix(1 0 0 1 92.2336 22.5937)" font-family="'KaiTi'" font-size="10px">难</text>
<text transform="matrix(1 0 0 1 102.2336 22.5937)" font-family="'KaiTi'" font-size="10px">功</text>
<text transform="matrix(1 0 0 1 112.2336 22.5937)" font-family="'KaiTi'" font-size="10px">渐</text>
<text transform="matrix(1 0 0 1 122.2336 22.5937)" font-family="'KaiTi'" font-size="10px">(</text>
<text transform="matrix(1 0 0 1 127.2336 22.5937)" font-family="'KaiTi'" font-size="10px">权</text>
<text transform="matrix(1 0 0 1 137.2336 22.5937)" font-family="'KaiTi'" font-size="10px">假</text>
<text transform="matrix(1 0 0 1 147.2336 22.5937)" font-family="'KaiTi'" font-size="10px">教</text>
<text transform="matrix(1 0 0 1 157.2336 22.5937)" font-family="'KaiTi'" font-size="10px">)</text>
<text transform="matrix(1 0 0 1 162.2336 22.5937)" font-family="'KaiTi'" font-size="10px"> </text>
<text transform="matrix(1 0 0 1 172.2336 22.5937)" font-family="'KaiTi'" font-size="10px">步</text>
<text transform="matrix(1 0 0 1 182.2336 22.5937)" font-family="'KaiTi'" font-size="10px">行</text>
<text transform="matrix(1 0 0 1 192.2336 22.5937)" font-family="'KaiTi'" font-size="10px"> </text>
<text transform="matrix(1 0 0 1 202.2336 22.5937)" font-family="'KaiTi'" font-size="10px">苦</text>
<text transform="matrix(1 0 0 1 212.2336 22.5937)" font-family="'KaiTi'" font-size="10px"> </text>
<text transform="matrix(1 0 0 1 222.2336 22.5937)" font-family="'KaiTi'" font-size="10px">下</text>
<text transform="matrix(1 0 0 1 232.2336 22.5937)" font-family="'KaiTi'" font-size="10px">堕</text>
<text transform="matrix(1 0 0 1 242.2336 22.5937)" font-family="'KaiTi'" font-size="10px"> </text>
<text transform="matrix(1 0 0 1 252.2336 22.5937)" font-family="'KaiTi'" font-size="10px">轮</text>
<text transform="matrix(1 0 0 1 262.2336 22.5937)" font-family="'KaiTi'" font-size="10px">回</text>
<text transform="matrix(1 0 0 1 42.2336 50.5937)" font-family="'KaiTi'" font-size="10px">净</text>
<text transform="matrix(1 0 0 1 52.2336 50.5937)" font-family="'KaiTi'" font-size="10px">土</text>
<text transform="matrix(1 0 0 1 62.2336 50.5937)" font-family="'KaiTi'" font-size="10px">门</text>
<text transform="matrix(1 0 0 1 72.2336 50.5937)" font-family="'KaiTi'" font-size="10px"> </text>
<text transform="matrix(1 0 0 1 82.2336 50.5937)" font-family="'KaiTi'" font-size="10px">易</text>
<text transform="matrix(1 0 0 1 92.2336 50.5937)" font-family="'KaiTi'" font-size="10px">行</text>
<text transform="matrix(1 0 0 1 102.2336 50.5937)" font-family="'KaiTi'" font-size="10px">道</text>
<text transform="matrix(1 0 0 1 112.2336 50.5937)" font-family="'KaiTi'" font-size="10px"> </text>
<text transform="matrix(1 0 0 1 122.2336 50.5937)" font-family="'KaiTi'" font-size="10px">他</text>
<text transform="matrix(1 0 0 1 132.2336 50.5937)" font-family="'KaiTi'" font-size="10px">力</text>
<text transform="matrix(1 0 0 1 142.2336 50.5937)" font-family="'KaiTi'" font-size="10px"> </text>
<text transform="matrix(1 0 0 1 152.2336 50.5937)" font-family="'KaiTi'" font-size="10px">横</text>
<text transform="matrix(1 0 0 1 162.2336 50.5937)" font-family="'KaiTi'" font-size="10px">超</text>
<text transform="matrix(1 0 0 1 172.2336 50.5937)" font-family="'KaiTi'" font-size="10px"> </text>
<text transform="matrix(1 0 0 1 182.2336 50.5937)" font-family="'KaiTi'" font-size="10px">特</text>
<text transform="matrix(1 0 0 1 192.2336 50.5937)" font-family="'KaiTi'" font-size="10px">别</text>
<text transform="matrix(1 0 0 1 202.2336 50.5937)" font-family="'KaiTi'" font-size="10px"> </text>
<text transform="matrix(1 0 0 1 212.2336 50.5937)" font-family="'KaiTi'" font-size="10px">念</text>
<text transform="matrix(1 0 0 1 222.2336 50.5937)" font-family="'KaiTi'" font-size="10px">弥</text>
<text transform="matrix(1 0 0 1 232.2336 50.5937)" font-family="'KaiTi'" font-size="10px">陀</text>
<text transform="matrix(1 0 0 1 242.2336 50.5937)" font-family="'KaiTi'" font-size="10px">生</text>
<text transform="matrix(1 0 0 1 252.2336 50.5937)" font-family="'KaiTi'" font-size="10px">净</text>
<text transform="matrix(1 0 0 1 262.2336 50.5937)" font-family="'KaiTi'" font-size="10px">土</text>
<text transform="matrix(1 0 0 1 42.2336 64.5937)" font-family="'KaiTi'" font-size="10px"> </text>
<text transform="matrix(1 0 0 1 52.2336 64.5937)" font-family="'KaiTi'" font-size="10px"> </text>
<text transform="matrix(1 0 0 1 62.2336 64.5937)" font-family="'KaiTi'" font-size="10px"> </text>
<text transform="matrix(1 0 0 1 72.2336 64.5937)" font-family="'KaiTi'" font-size="10px"> </text>
<text transform="matrix(1 0 0 1 82.2336 64.5937)" font-family="'KaiTi'" font-size="10px">事</text>
<text transform="matrix(1 0 0 1 92.2336 64.5937)" font-family="'KaiTi'" font-size="10px">易</text>
<text transform="matrix(1 0 0 1 102.2336 64.5937)" font-family="'KaiTi'" font-size="10px">功</text>
<text transform="matrix(1 0 0 1 112.2336 64.5937)" font-family="'KaiTi'" font-size="10px">顿</text>
<text transform="matrix(1 0 0 1 122.2336 64.5937)" font-family="'KaiTi'" font-size="10px">(</text>
<text transform="matrix(1 0 0 1 127.2336 64.5937)" font-family="'KaiTi'" font-size="10px">圆</text>
<text transform="matrix(1 0 0 1 137.2336 64.5937)" font-family="'KaiTi'" font-size="10px">顿</text>
<text transform="matrix(1 0 0 1 147.2336 64.5937)" font-family="'KaiTi'" font-size="10px">教</text>
<text transform="matrix(1 0 0 1 157.2336 64.5937)" font-family="'KaiTi'" font-size="10px">)</text>
<text transform="matrix(1 0 0 1 162.2336 64.5937)" font-family="'KaiTi'" font-size="10px"> </text>
<text transform="matrix(1 0 0 1 172.2336 64.5937)" font-family="'KaiTi'" font-size="10px">乘</text>
<text transform="matrix(1 0 0 1 182.2336 64.5937)" font-family="'KaiTi'" font-size="10px">船</text>
<text transform="matrix(1 0 0 1 192.2336 64.5937)" font-family="'KaiTi'" font-size="10px"> </text>
<text transform="matrix(1 0 0 1 202.2336 64.5937)" font-family="'KaiTi'" font-size="10px">乐</text>
<text transform="matrix(1 0 0 1 212.2336 64.5937)" font-family="'KaiTi'" font-size="10px"> </text>
<text transform="matrix(1 0 0 1 222.2336 64.5937)" font-family="'KaiTi'" font-size="10px">往</text>
<text transform="matrix(1 0 0 1 232.2336 64.5937)" font-family="'KaiTi'" font-size="10px">生</text>
<text transform="matrix(1 0 0 1 242.2336 64.5937)" font-family="'KaiTi'" font-size="10px"> </text>
<text transform="matrix(1 0 0 1 252.2336 64.5937)" font-family="'KaiTi'" font-size="10px">成</text>
<text transform="matrix(1 0 0 1 262.2336 64.5937)" font-family="'KaiTi'" font-size="10px">佛</text>
<g>
	<line fill="none" stroke="#000000" stroke-width="0.5" stroke-miterlimit="10" x1="36.4" y1="4.4" x2="36.4" y2="47.1"/>
	<line fill="none" stroke="#000000" stroke-width="0.5" stroke-miterlimit="10" x1="36.4" y1="4.4" x2="40.1" y2="4.4"/>
	<line fill="none" stroke="#000000" stroke-width="0.5" stroke-miterlimit="10" x1="36.4" y1="47.1" x2="40.1" y2="47.1"/>
	<line fill="none" stroke="#000000" stroke-width="0.5" stroke-miterlimit="10" x1="36.4" y1="26.6" x2="32.6" y2="26.6"/>
</g>
<rect x="18.8" y="20.1" fill="none" width="13.5" height="34.5"/>
<text transform="matrix(1 0 0 1 -4.577637e-05 30.3645)" font-family="'KaiTi'" font-size="10px">出三界</text>
<line fill="none" stroke="#000000" stroke-width="0.5" stroke-miterlimit="10" x1="74.2" y1="60.9" x2="79.7" y2="60.9"/>
<line fill="none" stroke="#000000" stroke-width="0.5" stroke-miterlimit="10" x1="74.2" y1="4.4" x2="79.7" y2="4.4"/>
<line fill="none" stroke="#000000" stroke-width="0.5" stroke-miterlimit="10" x1="114.2" y1="4.4" x2="119.7" y2="4.4"/>
<line fill="none" stroke="#000000" stroke-width="0.5" stroke-miterlimit="10" x1="144.4" y1="4.4" x2="149.9" y2="4.4"/>
<line fill="none" stroke="#000000" stroke-width="0.5" stroke-miterlimit="10" x1="174.6" y1="4.4" x2="180.1" y2="4.4"/>
<line fill="none" stroke="#000000" stroke-width="0.5" stroke-miterlimit="10" x1="204.5" y1="4.4" x2="210" y2="4.4"/>
<line fill="none" stroke="#000000" stroke-width="0.5" stroke-miterlimit="10" x1="244.8" y1="18.4" x2="250.3" y2="18.4"/>
<line fill="none" stroke="#000000" stroke-width="0.5" stroke-miterlimit="10" x1="215.1" y1="18.4" x2="220.6" y2="18.4"/>
<line fill="none" stroke="#000000" stroke-width="0.5" stroke-miterlimit="10" x1="194.3" y1="18.4" x2="199.8" y2="18.4"/>
<line fill="none" stroke="#000000" stroke-width="0.5" stroke-miterlimit="10" x1="163.7" y1="18.4" x2="169.2" y2="18.4"/>
<line fill="none" stroke="#000000" stroke-width="0.5" stroke-miterlimit="10" x1="73.9" y1="18.4" x2="79.4" y2="18.4"/>
<line fill="none" stroke="#000000" stroke-width="0.5" stroke-miterlimit="10" x1="114.2" y1="47.1" x2="119.7" y2="47.1"/>
<line fill="none" stroke="#000000" stroke-width="0.5" stroke-miterlimit="10" x1="144.4" y1="47.1" x2="149.9" y2="47.1"/>
<line fill="none" stroke="#000000" stroke-width="0.5" stroke-miterlimit="10" x1="174.6" y1="47.1" x2="180.1" y2="47.1"/>
<line fill="none" stroke="#000000" stroke-width="0.5" stroke-miterlimit="10" x1="204.5" y1="47.1" x2="210" y2="47.1"/>
<line fill="none" stroke="#000000" stroke-width="0.5" stroke-miterlimit="10" x1="74.3" y1="47.1" x2="79.8" y2="47.1"/>
<line fill="none" stroke="#000000" stroke-width="0.5" stroke-miterlimit="10" x1="163.7" y1="60.9" x2="169.2" y2="60.9"/>
<line fill="none" stroke="#000000" stroke-width="0.5" stroke-miterlimit="10" x1="194.3" y1="60.9" x2="199.8" y2="60.9"/>
<line fill="none" stroke="#000000" stroke-width="0.5" stroke-miterlimit="10" x1="215.1" y1="60.9" x2="220.6" y2="60.9"/>
<line fill="none" stroke="#000000" stroke-width="0.5" stroke-miterlimit="10" x1="244.8" y1="60.9" x2="250.3" y2="60.9"/>
</svg>
