<?xml version="1.0" encoding="utf-8"?>
<!-- Generator: Adobe Illustrator 21.0.0, SVG Export Plug-In . SVG Version: 6.00 Build 0)  -->
<svg version="1.1" id="图层_1" xmlns="http://www.w3.org/2000/svg" xmlns:xlink="http://www.w3.org/1999/xlink" x="0px" y="0px"
	 viewBox="0 0 345.7 150.4" style="enable-background:new 0 0 345.7 150.4;" xml:space="preserve">
<style type="text/css">
	.st0{font-family:'KaiTi';}
	.st1{font-size:10px;}
	.st2{font-family:'DFKaiShu-SB-Estd-BF';}
	.st3{fill:none;stroke:#000000;stroke-width:0.5;stroke-miterlimit:10;}
	.st4{letter-spacing:5;}
</style>
<text transform="matrix(1 0 0 1 275.7165 8.5937)"><tspan x="0" y="0" class="st0 st1">一</tspan><tspan x="10" y="0" class="st2 st1">、</tspan><tspan x="20" y="0" class="st0 st1">愿偈大意章</tspan><tspan x="0" y="14" class="st0 st1">二</tspan><tspan x="10" y="14" class="st2 st1">、</tspan><tspan x="20" y="14" class="st0 st1">起观生信章</tspan><tspan x="0" y="28" class="st0 st1">三</tspan><tspan x="10" y="28" class="st2 st1">、</tspan><tspan x="20" y="28" class="st0 st1">观行体相章</tspan><tspan x="0" y="42" class="st0 st1">四</tspan><tspan x="10" y="42" class="st2 st1">、</tspan><tspan x="20" y="42" class="st0 st1">净入愿心章</tspan><tspan x="0" y="56" class="st0 st1">五</tspan><tspan x="10" y="56" class="st2 st1">、</tspan><tspan x="20" y="56" class="st0 st1">善巧摄化章</tspan><tspan x="0" y="70" class="st0 st1">六</tspan><tspan x="10" y="70" class="st2 st1">、</tspan><tspan x="20" y="70" class="st0 st1">离菩提障章</tspan><tspan x="0" y="84" class="st0 st1">七</tspan><tspan x="10" y="84" class="st2 st1">、</tspan><tspan x="20" y="84" class="st0 st1">顺菩提门章</tspan><tspan x="0" y="98" class="st0 st1">八</tspan><tspan x="10" y="98" class="st2 st1">、</tspan><tspan x="20" y="98" class="st0 st1">名义摄对章</tspan><tspan x="0" y="112" class="st0 st1">九</tspan><tspan x="10" y="112" class="st2 st1">、</tspan><tspan x="20" y="112" class="st0 st1">愿事成就章</tspan><tspan x="0" y="133" class="st0 st1">十</tspan><tspan x="10" y="133" class="st2 st1">、</tspan><tspan x="20" y="133" class="st0 st1">利行满足章</tspan></text>
<g>
	<line class="st3" x1="269.2" y1="33.1" x2="269.2" y2="47.3"/>
	<line class="st3" x1="269.2" y1="33.1" x2="273" y2="33.1"/>
	<line class="st3" x1="269.2" y1="47.3" x2="273" y2="47.3"/>
	<line class="st3" x1="269.2" y1="40.2" x2="260.2" y2="40.2"/>
</g>
<g>
	<line class="st3" x1="269.2" y1="61.1" x2="269.2" y2="103.6"/>
	<line class="st3" x1="269.2" y1="61.1" x2="273" y2="61.1"/>
	<line class="st3" x1="269.2" y1="103.6" x2="273" y2="103.6"/>
	<line class="st3" x1="269.2" y1="82.3" x2="260.2" y2="82.3"/>
</g>
<g>
	<line class="st3" x1="260.2" y1="40.2" x2="260.2" y2="82.3"/>
	<line class="st3" x1="260.2" y1="61.1" x2="256.5" y2="61.1"/>
</g>
<text transform="matrix(1 0 0 1 192.5499 22.5938)"><tspan x="0" y="0" class="st0 st1">初总说五念门行</tspan><tspan x="0" y="42" class="st0 st1">次别说观察</tspan><tspan x="50" y="42" class="st2 st1">、</tspan><tspan x="0" y="56" class="st0 st1">回向二行</tspan></text>
<line class="st3" x1="265.4" y1="19.3" x2="272.9" y2="19.3"/>
<g>
	<line class="st3" x1="185.9" y1="19.3" x2="185.9" y2="61.3"/>
	<line class="st3" x1="185.9" y1="19.3" x2="189.7" y2="19.3"/>
	<line class="st3" x1="185.9" y1="61.1" x2="189.7" y2="61.1"/>
	<line class="st3" x1="185.9" y1="40.3" x2="182.2" y2="40.3"/>
</g>
<text transform="matrix(1 0 0 1 140.3 43.5942)"><tspan x="0" y="0" class="st0 st1">初说愿事</tspan><tspan x="0" y="77" class="st0 st1">次说愿事成就</tspan><tspan x="0" y="91" class="st0 st1">初说五功德之果</tspan><tspan x="0" y="105" class="st0 st1">次说菩提之一果</tspan></text>
<g>
	<line class="st3" x1="217.2" y1="145.5" x2="217.2" y2="131.2"/>
	<line class="st3" x1="217.2" y1="145.5" x2="213.4" y2="145.5"/>
	<line class="st3" x1="217.2" y1="131.2" x2="213.4" y2="131.2"/>
	<line class="st3" x1="217.2" y1="138.3" x2="272.9" y2="138.3"/>
</g>
<line class="st3" x1="203.2" y1="116.8" x2="273" y2="116.8"/>
<g>
	<line class="st3" x1="133.5" y1="40.3" x2="133.5" y2="116.8"/>
	<line class="st3" x1="133.5" y1="40.2" x2="137.3" y2="40.2"/>
	<line class="st3" x1="133.5" y1="116.8" x2="137.3" y2="116.8"/>
	<line class="st3" x1="133.5" y1="78.6" x2="129.8" y2="78.6"/>
</g>
<g>
	<line class="st3" x1="133.4" y1="131.2" x2="133.4" y2="145.5"/>
	<line class="st3" x1="133.4" y1="131.2" x2="137.2" y2="131.2"/>
	<line class="st3" x1="133.4" y1="145.5" x2="137.2" y2="145.5"/>
	<line class="st3" x1="133.4" y1="138.3" x2="129.7" y2="138.3"/>
</g>
<text transform="matrix(1 0 0 1 68.55 82.0938)"><tspan x="0" y="0" class="st0 st1">初说往生之因</tspan><tspan x="0" y="59.5" class="st0 st1">次说往生之果</tspan></text>
<g>
	<line class="st3" x1="61.8" y1="78.6" x2="61.8" y2="138.3"/>
	<line class="st3" x1="61.8" y1="78.6" x2="65.6" y2="78.6"/>
	<line class="st3" x1="61.8" y1="138.3" x2="65.6" y2="138.3"/>
	<line class="st3" x1="61.8" y1="108.5" x2="58.1" y2="108.5"/>
</g>
<text transform="matrix(1 0 0 1 7.05 8.5937)"><tspan x="0" y="0" class="st0 st1">初述原偈大义</tspan><tspan x="0" y="96.3" class="st0 st1">次说五念门</tspan><tspan x="0" y="110.3" class="st0 st1">之</tspan><tspan x="10" y="110.3" class="st0 st1 st4"> </tspan><tspan x="20" y="110.3" class="st0 st1">往</tspan><tspan x="30" y="110.3" class="st0 st1 st4"> </tspan><tspan x="40" y="110.3" class="st0 st1">生</tspan></text>
<line class="st3" x1="70.6" y1="4.6" x2="272.9" y2="4.6"/>
<g>
	<line class="st3" x1="0.3" y1="4.6" x2="0.3" y2="108.5"/>
	<line class="st3" x1="0.3" y1="4.6" x2="4.1" y2="4.6"/>
	<line class="st3" x1="0" y1="108.5" x2="3.8" y2="108.5"/>
</g>
</svg>
