<?xml version="1.0" encoding="utf-8"?>
<!-- Generator: Adobe Illustrator 21.0.0, SVG Export Plug-In . SVG Version: 6.00 Build 0)  -->
<svg version="1.1" baseProfile="tiny" id="圖層_1"
	 xmlns="http://www.w3.org/2000/svg" xmlns:xlink="http://www.w3.org/1999/xlink" x="0px" y="0px" viewBox="0 0 232.6 31.6"
	 overflow="scroll" xml:space="preserve">
<text transform="matrix(1 0 0 1 22.6003 8.5937)" font-family="'KaiTi'" font-size="10px">純</text>
<text transform="matrix(1 0 0 1 32.6003 8.5937)" font-family="'KaiTi'" font-size="10px"> </text>
<text transform="matrix(1 0 0 1 42.6003 8.5937)" font-family="'KaiTi'" font-size="10px">不</text>
<text transform="matrix(1 0 0 1 52.6003 8.5937)" font-family="'KaiTi'" font-size="10px">雜</text>
<text transform="matrix(1 0 0 1 62.6003 8.5937)" font-family="'DFKaiShu-SB-Estd-BF'" font-size="10px">，</text>
<text transform="matrix(1 0 0 1 72.6003 8.5937)" font-family="'KaiTi'" font-size="10px">疑</text>
<text transform="matrix(1 0 0 1 82.6003 8.5937)" font-family="'KaiTi'" font-size="10px">蓋</text>
<text transform="matrix(1 0 0 1 92.6003 8.5937)" font-family="'KaiTi'" font-size="10px">無</text>
<text transform="matrix(1 0 0 1 102.6003 8.5937)" font-family="'KaiTi'" font-size="10px">雜</text>
<text transform="matrix(1 0 0 1 112.6003 8.5937)" font-family="'DFKaiShu-SB-Estd-BF'" font-size="10px">，</text>
<text transform="matrix(1 0 0 1 122.6003 8.5937)" font-family="'KaiTi'" font-size="10px">對</text>
<text transform="matrix(1 0 0 1 132.6003 8.5937)" font-family="'KaiTi'" font-size="10px">若</text>
<text transform="matrix(1 0 0 1 142.6003 8.5937)" font-family="'KaiTi'" font-size="10px">存</text>
<text transform="matrix(1 0 0 1 152.6003 8.5937)" font-family="'KaiTi'" font-size="10px">若</text>
<text transform="matrix(1 0 0 1 162.6003 8.5937)" font-family="'KaiTi'" font-size="10px">亡</text>
<text transform="matrix(1 0 0 1 172.6003 8.5937)" font-family="'DFKaiShu-SB-Estd-BF'" font-size="10px">，</text>
<text transform="matrix(1 0 0 1 182.6003 8.5937)" font-family="'KaiTi'" font-size="10px">且</text>
<text transform="matrix(1 0 0 1 192.6003 8.5937)" font-family="'KaiTi'" font-size="10px">信</text>
<text transform="matrix(1 0 0 1 202.6003 8.5937)" font-family="'KaiTi'" font-size="10px">且</text>
<text transform="matrix(1 0 0 1 212.6003 8.5937)" font-family="'KaiTi'" font-size="10px">疑</text>
<text transform="matrix(1 0 0 1 222.6003 8.5937)" font-family="'DFKaiShu-SB-Estd-BF'" font-size="10px">。</text>
<text transform="matrix(1 0 0 1 22.6003 29.5937)" font-family="'KaiTi'" font-size="10px">樸</text>
<text transform="matrix(1 0 0 1 32.6003 29.5937)" font-family="'KaiTi'" font-size="10px"> </text>
<text transform="matrix(1 0 0 1 42.6003 29.5937)" font-family="'KaiTi'" font-size="10px">非</text>
<text transform="matrix(1 0 0 1 52.6003 29.5937)" font-family="'KaiTi'" font-size="10px">常</text>
<text transform="matrix(1 0 0 1 62.6003 29.5937)" font-family="'KaiTi'" font-size="10px">堅</text>
<text transform="matrix(1 0 0 1 72.6003 29.5937)" font-family="'KaiTi'" font-size="10px">厚</text>
<text transform="matrix(1 0 0 1 82.6003 29.5937)" font-family="'DFKaiShu-SB-Estd-BF'" font-size="10px">，</text>
<text transform="matrix(1 0 0 1 92.6003 29.5937)" font-family="'KaiTi'" font-size="10px">對</text>
<text transform="matrix(1 0 0 1 102.6003 29.5937)" font-family="'KaiTi'" font-size="10px">不</text>
<text transform="matrix(1 0 0 1 112.6003 29.5937)" font-family="'KaiTi'" font-size="10px">堅</text>
<text transform="matrix(1 0 0 1 122.6003 29.5937)" font-family="'DFKaiShu-SB-Estd-BF'" font-size="10px">（</text>
<text transform="matrix(1 0 0 1 132.6003 29.5937)" font-family="'KaiTi'" font-size="10px">雖</text>
<text transform="matrix(1 0 0 1 142.6003 29.5937)" font-family="'KaiTi'" font-size="10px">信</text>
<text transform="matrix(1 0 0 1 152.6003 29.5937)" font-family="'KaiTi'" font-size="10px">而</text>
<text transform="matrix(1 0 0 1 162.6003 29.5937)" font-family="'KaiTi'" font-size="10px">不</text>
<text transform="matrix(1 0 0 1 172.6003 29.5937)" font-family="'KaiTi'" font-size="10px">堅</text>
<text transform="matrix(1 0 0 1 182.6003 29.5937)" font-family="'DFKaiShu-SB-Estd-BF'" font-size="10px">）</text>
<text transform="matrix(1 0 0 1 192.6003 29.5937)" font-family="'DFKaiShu-SB-Estd-BF'" font-size="10px">。</text>
<text transform="matrix(1 0 0 1 0 19.2604)" font-family="'KaiTi'" font-size="10px">淳</text>
<g>
	<line fill="none" stroke="#000000" stroke-width="0.5" stroke-miterlimit="10" x1="15.9" y1="5.4" x2="15.9" y2="26.9"/>
	<line fill="none" stroke="#000000" stroke-width="0.5" stroke-miterlimit="10" x1="15.9" y1="5.4" x2="19.7" y2="5.4"/>
	<line fill="none" stroke="#000000" stroke-width="0.5" stroke-miterlimit="10" x1="15.9" y1="26.9" x2="19.7" y2="26.9"/>
	<line fill="none" stroke="#000000" stroke-width="0.5" stroke-miterlimit="10" x1="15.9" y1="16.1" x2="12.2" y2="16.1"/>
</g>
<line fill="none" stroke="#000000" stroke-width="0.5" stroke-miterlimit="10" x1="34.6" y1="5.4" x2="40.1" y2="5.4"/>
<line fill="none" stroke="#000000" stroke-width="0.5" stroke-miterlimit="10" x1="34.6" y1="26.9" x2="40.1" y2="26.9"/>
</svg>
