<?xml version="1.0" encoding="utf-8"?>
<!-- Generator: Adobe Illustrator 16.0.0, SVG Export Plug-In . SVG Version: 6.00 Build 0)  -->
<!DOCTYPE svg PUBLIC "-//W3C//DTD SVG 1.1//EN" "http://www.w3.org/Graphics/SVG/1.1/DTD/svg11.dtd">
<svg version="1.1" id="图层_1" xmlns="http://www.w3.org/2000/svg" xmlns:xlink="http://www.w3.org/1999/xlink" x="0px" y="0px"
	 width="245.799px" height="52.859px" viewBox="0 0 245.799 52.859" enable-background="new 0 0 245.799 52.859"
	 xml:space="preserve">
<g>
	<text transform="matrix(1 0 0 1 0 29.5938)" font-family="'KaiTi'" font-size="10">九品</text>
	<text transform="matrix(1 0 0 1 32.8501 8.5938)"><tspan x="0" y="0" font-family="'KaiTi'" font-size="10" letter-spacing="10">上三品</tspan><tspan x="0" y="14" font-family="'KaiTi'" font-size="10">中上中中品</tspan><tspan x="0" y="28" font-family="'KaiTi'" font-size="10" letter-spacing="10">中下品</tspan><tspan x="0" y="42" font-family="'KaiTi'" font-size="10" letter-spacing="10">下三品</tspan></text>
	<text transform="matrix(1 0 0 1 95.7988 8.5938)"><tspan x="0" y="0" font-family="'KaiTi'" font-size="10">积大乘修行之圣者</tspan><tspan x="0" y="14" font-family="'KaiTi'" font-size="10">积小乘修行之圣者</tspan><tspan x="0" y="28" font-family="'KaiTi'" font-size="10">积世间善根之圣者</tspan><tspan x="0" y="42" font-family="'KaiTi'" font-size="10">始学大乘凡夫，随过轻重分为三品</tspan></text>
	<line fill="none" stroke="#000000" stroke-width="0.5" stroke-miterlimit="10" x1="26.273" y1="47.137" x2="29.16" y2="47.137"/>
	<line fill="none" stroke="#000000" stroke-width="0.5" stroke-miterlimit="10" x1="26.273" y1="5.222" x2="29.16" y2="5.222"/>
	<line fill="none" stroke="#000000" stroke-width="0.5" stroke-miterlimit="10" x1="23.386" y1="26.308" x2="26.273" y2="26.308"/>
	<line fill="none" stroke="#000000" stroke-width="0.5" stroke-miterlimit="10" x1="26.39" y1="4.978" x2="26.39" y2="47.402"/>
	<line fill="none" stroke="#000000" stroke-width="0.5" stroke-miterlimit="10" x1="86.471" y1="4.98" x2="92.14" y2="4.98"/>
	<line fill="none" stroke="#000000" stroke-width="0.5" stroke-miterlimit="10" x1="86.471" y1="33.261" x2="92.14" y2="33.261"/>
	<line fill="none" stroke="#000000" stroke-width="0.5" stroke-miterlimit="10" x1="86.471" y1="19.121" x2="92.14" y2="19.121"/>
	<line fill="none" stroke="#000000" stroke-width="0.5" stroke-miterlimit="10" x1="86.471" y1="47.402" x2="92.14" y2="47.402"/>
</g>
</svg>
