<?xml version="1.0" encoding="utf-8"?>
<!-- Generator: Adobe Illustrator 21.0.0, SVG Export Plug-In . SVG Version: 6.00 Build 0)  -->
<svg version="1.1" id="图层_1" xmlns="http://www.w3.org/2000/svg" xmlns:xlink="http://www.w3.org/1999/xlink" x="0px" y="0px"
	 viewBox="0 0 465 75" style="enable-background:new 0 0 465 75;" xml:space="preserve">
<style type="text/css">
	.st0{stroke:#000000;stroke-width:0.25;stroke-miterlimit:10;}
	.st1{font-family:'DFKaiShu-SB-Estd-BF';}
	.st2{font-size:14px;}
	.st3{fill:none;stroke:#000000;stroke-width:0.5;stroke-miterlimit:10;}
	.st4{fill:none;stroke:#000000;stroke-width:0.25;stroke-miterlimit:10;}
</style>
<g>
	<text transform="matrix(1 0 0 1 3.1516 42.269)" class="st0 st1 st2">净土宗</text>
	<path class="st3" d="M71.9,37.8"/>
	<path class="st3" d="M50.8,37.8"/>
	<line class="st3" x1="56.4" y1="37.8" x2="56.4" y2="9.3"/>
	<line class="st3" x1="56.4" y1="65.3" x2="56.4" y2="36.8"/>
	<line class="st3" x1="56.4" y1="9.3" x2="70.5" y2="9.3"/>
	<line class="st3" x1="56.4" y1="65.3" x2="70.5" y2="65.3"/>
	<text transform="matrix(1 0 0 1 71.8659 13.1029)" class="st0 st1 st2">要</text>
	<text transform="matrix(1 0 0 1 71.8659 68.5856)" class="st0 st1 st2">弘愿门</text>
	<path class="st4" d="M92.7,50.2"/>
	<path class="st4" d="M92.7,25.4"/>
	<path class="st4" d="M99.6,38.2"/>
	<path class="st4" d="M92.7,50"/>
	<path class="st4" d="M86.3,38.5"/>
	<path class="st4" d="M92.6,49.5"/>
	<text transform="matrix(1 0 0 1 99.8661 13.1031)" class="st0 st1 st2">门</text>
	<line class="st3" x1="46.7" y1="36.8" x2="56.4" y2="36.8"/>
	<line class="st3" x1="117.4" y1="9.3" x2="131.5" y2="9.3"/>
	<line class="st3" x1="117.4" y1="65.3" x2="131.5" y2="65.3"/>
	<text transform="matrix(1 0 0 1 132.8659 13.1031)" class="st0 st1 st2">诸行</text>
	<text transform="matrix(1 0 0 1 131.5002 68.5856)" class="st0 st1 st2">念佛往生</text>
	<line class="st3" x1="165.1" y1="9.3" x2="179.2" y2="9.3"/>
	<text transform="matrix(1 0 0 1 181.8335 13.1033)" class="st0 st1 st2">回向自力</text>
	<text transform="matrix(1 0 0 1 206.5326 68.5858)" class="st0 st1 st2">他力</text>
	<line class="st3" x1="189.1" y1="65.3" x2="203.2" y2="65.3"/>
	<line class="st3" x1="240.1" y1="8.8" x2="254.2" y2="8.8"/>
	<line class="st3" x1="240.1" y1="64.8" x2="254.2" y2="64.8"/>
	<text transform="matrix(1 0 0 1 258.5002 13.1027)" class="st0 st1 st2">疏杂之行</text>
	<text transform="matrix(1 0 0 1 258.5004 68.5858)" class="st0 st1 st2">正定之业</text>
	<line class="st3" x1="317.1" y1="8.9" x2="331.2" y2="8.9"/>
	<line class="st3" x1="317.1" y1="64.9" x2="331.2" y2="64.9"/>
	<text transform="matrix(1 0 0 1 335.5326 12.6603)" class="st0 st1 st2">方便</text>
	<text transform="matrix(1 0 0 1 334.1668 68.1429)" class="st0 st1 st2">真实</text>
	<line class="st3" x1="366.1" y1="8.9" x2="380.2" y2="8.9"/>
	<line class="st3" x1="366.1" y1="64.9" x2="380.2" y2="64.9"/>
	<text transform="matrix(1 0 0 1 384.5326 12.6602)" class="st0 st1 st2">随他意</text>
	<text transform="matrix(1 0 0 1 383.1668 68.1427)" class="st0 st1 st2">随自意</text>
	<line class="st3" x1="427.4" y1="8.6" x2="441.5" y2="8.6"/>
	<line class="st3" x1="427.4" y1="64.6" x2="441.5" y2="64.6"/>
	<text transform="matrix(1 0 0 1 445.8659 12.3602)" class="st0 st1 st2">废</text>
	<text transform="matrix(1 0 0 1 444.5002 67.8427)" class="st0 st1 st2">立</text>
</g>
<line class="st3" x1="92.6" y1="20" x2="92.6" y2="49.5"/>
<line class="st3" x1="84.3" y1="40.3" x2="92.6" y2="49.5"/>
<line class="st3" x1="101.7" y1="40.2" x2="92.6" y2="49.5"/>
</svg>
