<?xml version="1.0" encoding="utf-8"?>
<!-- Generator: Adobe Illustrator 21.0.0, SVG Export Plug-In . SVG Version: 6.00 Build 0)  -->
<svg version="1.1" baseProfile="tiny" id="图层_1"
	 xmlns="http://www.w3.org/2000/svg" xmlns:xlink="http://www.w3.org/1999/xlink" x="0px" y="0px" viewBox="0 0 289 38.4"
	 overflow="scroll" xml:space="preserve">
<text transform="matrix(1 0 0 1 39.0358 8.5938)" font-family="'KaiTi'" font-size="10px">要</text>
<text transform="matrix(1 0 0 1 49.0358 8.5938)" font-family="'KaiTi'" font-size="10px"> </text>
<text transform="matrix(1 0 0 1 59.0358 8.5938)" font-family="'KaiTi'" font-size="10px">门</text>
<text transform="matrix(1 0 0 1 69.0358 8.5938)" font-family="'KaiTi'" font-size="10px">—</text>
<text transform="matrix(1 0 0 1 79.0358 8.5938)" font-family="'KaiTi'" font-size="10px">诸</text>
<text transform="matrix(1 0 0 1 89.0358 8.5938)" font-family="'KaiTi'" font-size="10px">行</text>
<text transform="matrix(1 0 0 1 99.0358 8.5938)" font-family="'KaiTi'" font-size="10px">—</text>
<text transform="matrix(1 0 0 1 109.0358 8.5938)" font-family="'KaiTi'" font-size="10px">回</text>
<text transform="matrix(1 0 0 1 119.0358 8.5938)" font-family="'KaiTi'" font-size="10px">向</text>
<text transform="matrix(1 0 0 1 129.0358 8.5938)" font-family="'KaiTi'" font-size="10px">自</text>
<text transform="matrix(1 0 0 1 139.0358 8.5938)" font-family="'KaiTi'" font-size="10px">力</text>
<text transform="matrix(1 0 0 1 149.0358 8.5938)" font-family="'KaiTi'" font-size="10px">—</text>
<text transform="matrix(1 0 0 1 159.0358 8.5938)" font-family="'KaiTi'" font-size="10px">疏</text>
<text transform="matrix(1 0 0 1 169.0358 8.5938)" font-family="'KaiTi'" font-size="10px">杂</text>
<text transform="matrix(1 0 0 1 179.0358 8.5938)" font-family="'KaiTi'" font-size="10px">之</text>
<text transform="matrix(1 0 0 1 189.0358 8.5938)" font-family="'KaiTi'" font-size="10px">行</text>
<text transform="matrix(1 0 0 1 199.0358 8.5938)" font-family="'KaiTi'" font-size="10px">—</text>
<text transform="matrix(1 0 0 1 209.0358 8.5938)" font-family="'KaiTi'" font-size="10px">方</text>
<text transform="matrix(1 0 0 1 219.0358 8.5938)" font-family="'KaiTi'" font-size="10px">便</text>
<text transform="matrix(1 0 0 1 229.0358 8.5938)" font-family="'KaiTi'" font-size="10px">—</text>
<text transform="matrix(1 0 0 1 239.0358 8.5938)" font-family="'KaiTi'" font-size="10px">随</text>
<text transform="matrix(1 0 0 1 249.0358 8.5938)" font-family="'KaiTi'" font-size="10px">他</text>
<text transform="matrix(1 0 0 1 259.0358 8.5938)" font-family="'KaiTi'" font-size="10px">意</text>
<text transform="matrix(1 0 0 1 269.0358 8.5938)" font-family="'KaiTi'" font-size="10px">—</text>
<text transform="matrix(1 0 0 1 279.0358 8.5938)" font-family="'KaiTi'" font-size="10px">废</text>
<text transform="matrix(1 0 0 1 39.0358 36.5938)" font-family="'KaiTi'" font-size="10px">弘</text>
<text transform="matrix(1 0 0 1 49.0358 36.5938)" font-family="'KaiTi'" font-size="10px">愿</text>
<text transform="matrix(1 0 0 1 59.0358 36.5938)" font-family="'KaiTi'" font-size="10px">门</text>
<text transform="matrix(1 0 0 1 69.0358 36.5938)" font-family="'KaiTi'" font-size="10px">—</text>
<text transform="matrix(1 0 0 1 79.0358 36.5938)" font-family="'KaiTi'" font-size="10px">念</text>
<text transform="matrix(1 0 0 1 89.0358 36.5938)" font-family="'KaiTi'" font-size="10px">佛</text>
<text transform="matrix(1 0 0 1 99.0358 36.5938)" font-family="'KaiTi'" font-size="10px">往</text>
<text transform="matrix(1 0 0 1 109.0358 36.5938)" font-family="'KaiTi'" font-size="10px">生</text>
<text transform="matrix(1 0 0 1 119.0358 36.5938)" font-family="'KaiTi'" font-size="10px">—</text>
<text transform="matrix(1 0 0 1 129.0358 36.5938)" font-family="'KaiTi'" font-size="10px">他</text>
<text transform="matrix(1 0 0 1 139.0358 36.5938)" font-family="'KaiTi'" font-size="10px">力</text>
<text transform="matrix(1 0 0 1 149.0358 36.5938)" font-family="'KaiTi'" font-size="10px">—</text>
<text transform="matrix(1 0 0 1 159.0358 36.5938)" font-family="'KaiTi'" font-size="10px">正</text>
<text transform="matrix(1 0 0 1 169.0358 36.5938)" font-family="'KaiTi'" font-size="10px">定</text>
<text transform="matrix(1 0 0 1 179.0358 36.5938)" font-family="'KaiTi'" font-size="10px">之</text>
<text transform="matrix(1 0 0 1 189.0358 36.5938)" font-family="'KaiTi'" font-size="10px">业</text>
<text transform="matrix(1 0 0 1 199.0358 36.5938)" font-family="'KaiTi'" font-size="10px">—</text>
<text transform="matrix(1 0 0 1 209.0358 36.5938)" font-family="'KaiTi'" font-size="10px">真</text>
<text transform="matrix(1 0 0 1 219.0358 36.5938)" font-family="'KaiTi'" font-size="10px">实</text>
<text transform="matrix(1 0 0 1 229.0358 36.5938)" font-family="'KaiTi'" font-size="10px">—</text>
<text transform="matrix(1 0 0 1 239.0358 36.5938)" font-family="'KaiTi'" font-size="10px">随</text>
<text transform="matrix(1 0 0 1 249.0358 36.5938)" font-family="'KaiTi'" font-size="10px">自</text>
<text transform="matrix(1 0 0 1 259.0358 36.5938)" font-family="'KaiTi'" font-size="10px">意</text>
<text transform="matrix(1 0 0 1 269.0358 36.5938)" font-family="'KaiTi'" font-size="10px">—</text>
<text transform="matrix(1 0 0 1 279.0358 36.5938)" font-family="'KaiTi'" font-size="10px">立</text>
<text transform="matrix(1 0 0 1 1.220703e-04 23.3882)" font-family="'KaiTi'" font-size="10px">净土宗</text>
<line fill="none" stroke="#000000" stroke-width="0.5" stroke-miterlimit="10" x1="34.3" y1="4" x2="34.3" y2="34"/>
<line fill="none" stroke="#000000" stroke-width="0.5" stroke-miterlimit="10" x1="34.3" y1="4.2" x2="37.5" y2="4.2"/>
<line fill="none" stroke="#000000" stroke-width="0.5" stroke-miterlimit="10" x1="34.3" y1="33.7" x2="37.5" y2="33.7"/>
<line fill="none" stroke="#000000" stroke-width="0.5" stroke-miterlimit="10" x1="34.3" y1="19.5" x2="31" y2="19.5"/>
<line fill="none" stroke="#000000" stroke-width="0.5" stroke-miterlimit="10" x1="54.1" y1="11.7" x2="54.1" y2="20.7"/>
<g>
	<polygon points="54.1,24.2 52.1,19.2 54.1,20.4 56.2,19.2 	"/>
</g>
</svg>
