<?xml version="1.0" encoding="utf-8"?>
<!-- Generator: Adobe Illustrator 16.0.0, SVG Export Plug-In . SVG Version: 6.00 Build 0)  -->
<!DOCTYPE svg PUBLIC "-//W3C//DTD SVG 1.1//EN" "http://www.w3.org/Graphics/SVG/1.1/DTD/svg11.dtd">
<svg version="1.1" id="图层_1" xmlns="http://www.w3.org/2000/svg" xmlns:xlink="http://www.w3.org/1999/xlink" x="0px" y="0px"
	 width="167.396px" height="24.859px" viewBox="0 0 167.396 24.859" enable-background="new 0 0 167.396 24.859"
	 xml:space="preserve">
<text transform="matrix(1 0 0 1 0 15.5938)" font-family="'FZKTK--GBK1-0'" font-size="10">净宗宗旨</text>
<text transform="matrix(1 0 0 1 47.8662 8.5938)"><tspan x="0" y="0" font-family="'FZKTK--GBK1-0'" font-size="10">方法</tspan><tspan x="0" y="14" font-family="'FZKTK--GBK1-0'" font-size="10">目的</tspan></text>
<text transform="matrix(1 0 0 1 78.3662 8.5938)"><tspan x="0" y="0" font-family="'FZKTK--GBK1-0'" font-size="10">本愿称名</tspan><tspan x="0" y="14" font-family="'FZKTK--GBK1-0'" font-size="10">凡夫入报</tspan></text>
<text transform="matrix(1 0 0 1 127.397 15.5938)" font-family="'FZKTK--GBK1-0'" font-size="10">信而行之</text>
<g>
	<line fill="none" stroke="#000000" stroke-width="0.5" stroke-miterlimit="10" x1="41.312" y1="12.096" x2="44.208" y2="12.096"/>
	<line fill="none" stroke="#000000" stroke-width="0.5" stroke-miterlimit="10" x1="44.083" y1="5.179" x2="46.978" y2="5.179"/>
	<line fill="none" stroke="#000000" stroke-width="0.5" stroke-miterlimit="10" x1="44.091" y1="19.346" x2="46.987" y2="19.346"/>
	<line fill="none" stroke="#000000" stroke-width="0.5" stroke-miterlimit="10" x1="44.208" y1="4.924" x2="44.208" y2="19.596"/>
</g>
<line fill="none" stroke="#000000" stroke-width="0.5" stroke-miterlimit="10" x1="123.12" y1="12.096" x2="126.017" y2="12.096"/>
<line fill="none" stroke="#000000" stroke-width="0.5" stroke-miterlimit="10" x1="120.299" y1="5.179" x2="123.193" y2="5.179"/>
<line fill="none" stroke="#000000" stroke-width="0.5" stroke-miterlimit="10" x1="120.307" y1="19.346" x2="123.203" y2="19.346"/>
<line fill="none" stroke="#000000" stroke-width="0.5" stroke-miterlimit="10" x1="123.199" y1="4.924" x2="123.199" y2="19.596"/>
<line fill="none" stroke="#000000" stroke-width="0.5" stroke-miterlimit="10" x1="70.114" y1="5.179" x2="75.781" y2="5.179"/>
<line fill="none" stroke="#000000" stroke-width="0.5" stroke-miterlimit="10" x1="70.114" y1="19.346" x2="75.781" y2="19.346"/>
</svg>
