<?xml version="1.0" encoding="utf-8"?>
<!-- Generator: Adobe Illustrator 21.0.0, SVG Export Plug-In . SVG Version: 6.00 Build 0)  -->
<svg version="1.1" baseProfile="tiny" id="图层_1"
	 xmlns="http://www.w3.org/2000/svg" xmlns:xlink="http://www.w3.org/1999/xlink" x="0px" y="0px" viewBox="0 0 215 52.9"
	 overflow="scroll" xml:space="preserve">
<text transform="matrix(1 0 0 1 -2.212524e-04 29.5938)" font-family="KaiTi" font-size="10px">九品</text>
<text transform="matrix(1 0 0 1 31.1563 8.5938)" font-family="KaiTi" font-size="10px">上</text>
<text transform="matrix(1 0 0 1 51.1563 8.5938)" font-family="KaiTi" font-size="10px">三</text>
<text transform="matrix(1 0 0 1 71.1563 8.5938)" font-family="KaiTi" font-size="10px">品</text>
<text transform="matrix(1 0 0 1 31.1563 22.5938)" font-family="KaiTi" font-size="10px">中</text>
<text transform="matrix(1 0 0 1 41.1563 22.5938)" font-family="KaiTi" font-size="10px">上</text>
<text transform="matrix(1 0 0 1 51.1563 22.5938)" font-family="KaiTi" font-size="10px">中</text>
<text transform="matrix(1 0 0 1 61.1563 22.5938)" font-family="KaiTi" font-size="10px">中</text>
<text transform="matrix(1 0 0 1 71.1563 22.5938)" font-family="KaiTi" font-size="10px">品</text>
<text transform="matrix(1 0 0 1 31.1563 36.5938)" font-family="KaiTi" font-size="10px">中</text>
<text transform="matrix(1 0 0 1 51.1563 36.5938)" font-family="KaiTi" font-size="10px">下</text>
<text transform="matrix(1 0 0 1 71.1563 36.5938)" font-family="KaiTi" font-size="10px">品</text>
<text transform="matrix(1 0 0 1 31.1563 50.5938)" font-family="KaiTi" font-size="10px">下</text>
<text transform="matrix(1 0 0 1 51.1563 50.5938)" font-family="KaiTi" font-size="10px">三</text>
<text transform="matrix(1 0 0 1 71.1563 50.5938)" font-family="KaiTi" font-size="10px">品</text>
<text transform="matrix(1 0 0 1 94.3887 8.5938)" font-family="KaiTi" font-size="10px">遇</text>
<text transform="matrix(1 0 0 1 104.3887 8.5938)" font-family="KaiTi" font-size="10px">大</text>
<text transform="matrix(1 0 0 1 114.3887 8.5938)" font-family="KaiTi" font-size="10px">乘</text>
<text transform="matrix(1 0 0 1 124.3887 8.5938)" font-family="KaiTi" font-size="10px">教</text>
<text transform="matrix(1 0 0 1 134.3887 8.5938)" font-family="KaiTi" font-size="10px">凡</text>
<text transform="matrix(1 0 0 1 144.3887 8.5938)" font-family="KaiTi" font-size="10px">夫</text>
<text transform="matrix(1 0 0 1 94.3887 22.5938)" font-family="KaiTi" font-size="10px">遇</text>
<text transform="matrix(1 0 0 1 104.3887 22.5938)" font-family="KaiTi" font-size="10px">小</text>
<text transform="matrix(1 0 0 1 114.3887 22.5938)" font-family="KaiTi" font-size="10px">乘</text>
<text transform="matrix(1 0 0 1 124.3887 22.5938)" font-family="KaiTi" font-size="10px">教</text>
<text transform="matrix(1 0 0 1 134.3887 22.5938)" font-family="KaiTi" font-size="10px">凡</text>
<text transform="matrix(1 0 0 1 144.3887 22.5938)" font-family="KaiTi" font-size="10px">夫</text>
<text transform="matrix(1 0 0 1 94.3887 36.5938)" font-family="KaiTi" font-size="10px">遇</text>
<text transform="matrix(1 0 0 1 104.3887 36.5938)" font-family="KaiTi" font-size="10px">世</text>
<text transform="matrix(1 0 0 1 114.3887 36.5938)" font-family="KaiTi" font-size="10px">间</text>
<text transform="matrix(1 0 0 1 124.3887 36.5938)" font-family="KaiTi" font-size="10px">善</text>
<text transform="matrix(1 0 0 1 134.3887 36.5938)" font-family="KaiTi" font-size="10px">凡</text>
<text transform="matrix(1 0 0 1 144.3887 36.5938)" font-family="KaiTi" font-size="10px">夫</text>
<text transform="matrix(1 0 0 1 94.3887 50.5938)" font-family="KaiTi" font-size="10px">遇</text>
<text transform="matrix(1 0 0 1 111.0786 50.5938)" font-family="KaiTi" font-size="10px">恶</text>
<text transform="matrix(1 0 0 1 127.7686 50.5938)" font-family="KaiTi" font-size="10px">凡</text>
<text transform="matrix(1 0 0 1 144.4585 50.5938)" font-family="KaiTi" font-size="10px">夫</text>
<text transform="matrix(1 0 0 1 164.9497 8.5938)" font-family="KaiTi" font-size="10px">遇大</text>
<text transform="matrix(1 0 0 1 164.9497 29.5938)" font-family="KaiTi" font-size="10px">遇小</text>
<text transform="matrix(1 0 0 1 164.9497 50.5938)" font-family="KaiTi" font-size="10px">遇恶</text>
<line fill="none" stroke="#000000" stroke-width="0.5" stroke-miterlimit="10" x1="24.6" y1="47.1" x2="27.5" y2="47.1"/>
<line fill="none" stroke="#000000" stroke-width="0.5" stroke-miterlimit="10" x1="24.6" y1="5.2" x2="27.5" y2="5.2"/>
<line fill="none" stroke="#000000" stroke-width="0.5" stroke-miterlimit="10" x1="21.7" y1="26.3" x2="24.6" y2="26.3"/>
<line fill="none" stroke="#000000" stroke-width="0.5" stroke-miterlimit="10" x1="24.7" y1="5" x2="24.7" y2="47.4"/>
<line fill="none" stroke="#000000" stroke-width="0.5" stroke-miterlimit="10" x1="84.8" y1="5" x2="90.5" y2="5"/>
<line fill="none" stroke="#000000" stroke-width="0.5" stroke-miterlimit="10" x1="157" y1="5" x2="162.6" y2="5"/>
<line fill="none" stroke="#000000" stroke-width="0.5" stroke-miterlimit="10" x1="157" y1="47.1" x2="162.6" y2="47.1"/>
<line fill="none" stroke="#000000" stroke-width="0.5" stroke-miterlimit="10" x1="84.8" y1="18.9" x2="90.5" y2="18.9"/>
<line fill="none" stroke="#000000" stroke-width="0.5" stroke-miterlimit="10" x1="84.8" y1="33.3" x2="90.5" y2="33.3"/>
<line fill="none" stroke="#000000" stroke-width="0.5" stroke-miterlimit="10" x1="84.8" y1="47.4" x2="90.5" y2="47.4"/>
<text transform="matrix(1 0 0 1 195.0417 29.5938)" font-family="KaiTi" font-size="10px">唯凡</text>
<line fill="none" stroke="#000000" stroke-width="0.5" stroke-miterlimit="10" x1="157" y1="18.9" x2="159.8" y2="18.9"/>
<line fill="none" stroke="#000000" stroke-width="0.5" stroke-miterlimit="10" x1="157" y1="33.2" x2="159.8" y2="33.2"/>
<line fill="none" stroke="#000000" stroke-width="0.5" stroke-miterlimit="10" x1="159.8" y1="26" x2="162.7" y2="26"/>
<line fill="none" stroke="#000000" stroke-width="0.5" stroke-miterlimit="10" x1="159.8" y1="18.6" x2="159.8" y2="33.4"/>
<g>
	<line fill="none" stroke="#000000" stroke-width="0.5" stroke-miterlimit="10" x1="186.9" y1="47" x2="189.8" y2="47"/>
	<line fill="none" stroke="#000000" stroke-width="0.5" stroke-miterlimit="10" x1="186.9" y1="5.1" x2="189.8" y2="5.1"/>
	<line fill="none" stroke="#000000" stroke-width="0.5" stroke-miterlimit="10" x1="189.7" y1="26.1" x2="192.6" y2="26.1"/>
	<line fill="none" stroke="#000000" stroke-width="0.5" stroke-miterlimit="10" x1="189.8" y1="4.8" x2="189.8" y2="47.2"/>
</g>
</svg>
