<?xml version="1.0" encoding="utf-8"?>
<!-- Generator: Adobe Illustrator 16.0.0, SVG Export Plug-In . SVG Version: 6.00 Build 0)  -->
<!DOCTYPE svg PUBLIC "-//W3C//DTD SVG 1.1//EN" "http://www.w3.org/Graphics/SVG/1.1/DTD/svg11.dtd">
<svg version="1.1" id="图层_1" xmlns="http://www.w3.org/2000/svg" xmlns:xlink="http://www.w3.org/1999/xlink" x="0px" y="0px"
	 width="218.472px" height="52.859px" viewBox="0 0 218.472 52.859" enable-background="new 0 0 218.472 52.859"
	 xml:space="preserve">
<g>
	<text transform="matrix(1 0 0 1 0 29.5938)" font-family="'FZKTK--GBK1-0'" font-size="10">九品</text>
	<text transform="matrix(1 0 0 1 32.8501 8.5938)"><tspan x="0" y="0" font-family="'FZKTK--GBK1-0'" font-size="10" letter-spacing="10">上三品</tspan><tspan x="0" y="14" font-family="'FZKTK--GBK1-0'" font-size="10">中上中中品</tspan><tspan x="0" y="28" font-family="'FZKTK--GBK1-0'" font-size="10" letter-spacing="10">中下品</tspan><tspan x="0" y="42" font-family="'FZKTK--GBK1-0'" font-size="10" letter-spacing="10">下三品</tspan></text>
	<text transform="matrix(1 0 0 1 96.0825 8.5938)"><tspan x="0" y="0" font-family="'FZKTK--GBK1-0'" font-size="10">遇大乘教凡夫</tspan><tspan x="0" y="14" font-family="'FZKTK--GBK1-0'" font-size="10">遇小乘教凡夫</tspan><tspan x="0" y="28" font-family="'FZKTK--GBK1-0'" font-size="10">遇世间善凡夫</tspan><tspan x="0" y="42" font-family="'FZKTK--GBK1-0'" font-size="10" letter-spacing="6">遇恶凡夫</tspan></text>
	<text transform="matrix(1 0 0 1 166.6436 8.5938)"><tspan x="0" y="0" font-family="'FZKTK--GBK1-0'" font-size="10">遇大</tspan><tspan x="0" y="21" font-family="'FZKTK--GBK1-0'" font-size="10">遇小</tspan><tspan x="0" y="42" font-family="'FZKTK--GBK1-0'" font-size="10">遇恶</tspan></text>
	<line fill="none" stroke="#000000" stroke-width="0.5" stroke-miterlimit="10" x1="26.273" y1="47.137" x2="29.16" y2="47.137"/>
	<line fill="none" stroke="#000000" stroke-width="0.5" stroke-miterlimit="10" x1="26.273" y1="5.222" x2="29.16" y2="5.222"/>
	<line fill="none" stroke="#000000" stroke-width="0.5" stroke-miterlimit="10" x1="23.386" y1="26.309" x2="26.273" y2="26.309"/>
	<line fill="none" stroke="#000000" stroke-width="0.5" stroke-miterlimit="10" x1="26.39" y1="4.978" x2="26.39" y2="47.402"/>
	<line fill="none" stroke="#000000" stroke-width="0.5" stroke-miterlimit="10" x1="86.471" y1="4.98" x2="92.223" y2="4.98"/>
	<line fill="none" stroke="#000000" stroke-width="0.5" stroke-miterlimit="10" x1="158.681" y1="4.98" x2="164.274" y2="4.98"/>
	
		<line fill="none" stroke="#000000" stroke-width="0.5" stroke-miterlimit="10" x1="158.681" y1="47.137" x2="164.262" y2="47.137"/>
	<line fill="none" stroke="#000000" stroke-width="0.5" stroke-miterlimit="10" x1="86.471" y1="18.928" x2="92.223" y2="18.928"/>
	<line fill="none" stroke="#000000" stroke-width="0.5" stroke-miterlimit="10" x1="86.471" y1="33.261" x2="92.223" y2="33.261"/>
	<line fill="none" stroke="#000000" stroke-width="0.5" stroke-miterlimit="10" x1="86.471" y1="47.404" x2="92.223" y2="47.404"/>
	<text transform="matrix(1 0 0 1 198.4717 29.5938)" font-family="'FZKTK--GBK1-0'" font-size="10">唯凡</text>
	<line fill="none" stroke="#000000" stroke-width="0.5" stroke-miterlimit="10" x1="158.681" y1="18.86" x2="161.539" y2="18.86"/>
	
		<line fill="none" stroke="#000000" stroke-width="0.5" stroke-miterlimit="10" x1="158.681" y1="33.193" x2="161.539" y2="33.193"/>
	
		<line fill="none" stroke="#000000" stroke-width="0.5" stroke-miterlimit="10" x1="161.452" y1="25.964" x2="164.362" y2="25.964"/>
	<line fill="none" stroke="#000000" stroke-width="0.5" stroke-miterlimit="10" x1="161.452" y1="18.62" x2="161.452" y2="33.443"/>
	<g>
		
			<line fill="none" stroke="#000000" stroke-width="0.5" stroke-miterlimit="10" x1="188.621" y1="46.972" x2="191.508" y2="46.972"/>
		<line fill="none" stroke="#000000" stroke-width="0.5" stroke-miterlimit="10" x1="188.621" y1="5.056" x2="191.508" y2="5.056"/>
		
			<line fill="none" stroke="#000000" stroke-width="0.5" stroke-miterlimit="10" x1="191.387" y1="26.143" x2="194.274" y2="26.143"/>
		
			<line fill="none" stroke="#000000" stroke-width="0.5" stroke-miterlimit="10" x1="191.504" y1="4.812" x2="191.504" y2="47.237"/>
	</g>
</g>
</svg>
