<?xml version="1.0" encoding="utf-8"?>
<!-- Generator: Adobe Illustrator 21.0.0, SVG Export Plug-In . SVG Version: 6.00 Build 0)  -->
<svg version="1.1" baseProfile="tiny" id="图层_1"
	 xmlns="http://www.w3.org/2000/svg" xmlns:xlink="http://www.w3.org/1999/xlink" x="0px" y="0px" viewBox="0 0 245.8 52.9"
	 overflow="scroll" xml:space="preserve">
<text transform="matrix(1 0 0 1 0 29.5938)" font-family="KaiTi" font-size="10px">九品</text>
<text transform="matrix(1 0 0 1 32.8501 8.5938)" font-family="KaiTi" font-size="10px">上</text>
<text transform="matrix(1 0 0 1 52.8501 8.5938)" font-family="KaiTi" font-size="10px">三</text>
<text transform="matrix(1 0 0 1 72.8501 8.5938)" font-family="KaiTi" font-size="10px">品</text>
<text transform="matrix(1 0 0 1 32.8501 22.5938)" font-family="KaiTi" font-size="10px">中</text>
<text transform="matrix(1 0 0 1 42.8501 22.5938)" font-family="KaiTi" font-size="10px">上</text>
<text transform="matrix(1 0 0 1 52.8501 22.5938)" font-family="KaiTi" font-size="10px">中</text>
<text transform="matrix(1 0 0 1 62.8501 22.5938)" font-family="KaiTi" font-size="10px">中</text>
<text transform="matrix(1 0 0 1 72.8501 22.5938)" font-family="KaiTi" font-size="10px">品</text>
<text transform="matrix(1 0 0 1 32.8501 36.5938)" font-family="KaiTi" font-size="10px">中</text>
<text transform="matrix(1 0 0 1 52.8501 36.5938)" font-family="KaiTi" font-size="10px">下</text>
<text transform="matrix(1 0 0 1 72.8501 36.5938)" font-family="KaiTi" font-size="10px">品</text>
<text transform="matrix(1 0 0 1 32.8501 50.5938)" font-family="KaiTi" font-size="10px">下</text>
<text transform="matrix(1 0 0 1 52.8501 50.5938)" font-family="KaiTi" font-size="10px">三</text>
<text transform="matrix(1 0 0 1 72.8501 50.5938)" font-family="KaiTi" font-size="10px">品</text>
<text transform="matrix(1 0 0 1 95.7989 8.5938)" font-family="KaiTi" font-size="10px">积大乘修行之圣者</text>
<text transform="matrix(1 0 0 1 95.7989 22.5938)" font-family="KaiTi" font-size="10px">积小乘修行之圣者</text>
<text transform="matrix(1 0 0 1 95.7989 36.5938)" font-family="KaiTi" font-size="10px">积世间善根之圣者</text>
<text transform="matrix(1 0 0 1 95.7989 50.5938)" font-family="KaiTi" font-size="10px">始学大乘凡夫，随过轻重分为三品</text>
<line fill="none" stroke="#000000" stroke-width="0.5" stroke-miterlimit="10" x1="26.3" y1="47.1" x2="29.2" y2="47.1"/>
<line fill="none" stroke="#000000" stroke-width="0.5" stroke-miterlimit="10" x1="26.3" y1="5.2" x2="29.2" y2="5.2"/>
<line fill="none" stroke="#000000" stroke-width="0.5" stroke-miterlimit="10" x1="23.4" y1="26.3" x2="26.3" y2="26.3"/>
<line fill="none" stroke="#000000" stroke-width="0.5" stroke-miterlimit="10" x1="26.4" y1="5" x2="26.4" y2="47.4"/>
<line fill="none" stroke="#000000" stroke-width="0.5" stroke-miterlimit="10" x1="86.5" y1="5" x2="92.1" y2="5"/>
<line fill="none" stroke="#000000" stroke-width="0.5" stroke-miterlimit="10" x1="86.5" y1="33.3" x2="92.1" y2="33.3"/>
<line fill="none" stroke="#000000" stroke-width="0.5" stroke-miterlimit="10" x1="86.5" y1="19.1" x2="92.1" y2="19.1"/>
<line fill="none" stroke="#000000" stroke-width="0.5" stroke-miterlimit="10" x1="86.5" y1="47.4" x2="92.1" y2="47.4"/>
</svg>
