<?xml version="1.0" encoding="utf-8"?>
<!-- Generator: Adobe Illustrator 21.0.0, SVG Export Plug-In . SVG Version: 6.00 Build 0)  -->
<svg version="1.1" id="图层_1" xmlns="http://www.w3.org/2000/svg" xmlns:xlink="http://www.w3.org/1999/xlink" x="0px" y="0px"
	 viewBox="0 0 358.1 24.6" style="enable-background:new 0 0 358.1 24.6;" xml:space="preserve">
<style type="text/css">
	.st0{font-family:'KaiTi';}
	.st1{font-size:10px;}
	.st2{font-family:'DFKaiShu-SB-Estd-BF';}
	.st3{fill:none;stroke:#000000;stroke-width:0.5;stroke-miterlimit:10;}
</style>
<text transform="matrix(1 0 0 1 0 8.5942)"><tspan x="0" y="0" class="st0 st1">偈颂</tspan><tspan x="20" y="0" class="st2 st1">：</tspan><tspan x="30" y="0" class="st0 st1">所释</tspan><tspan x="0" y="14" class="st0 st1">长行</tspan><tspan x="20" y="14" class="st2 st1">：</tspan><tspan x="30" y="14" class="st0 st1">能释</tspan></text>
<line class="st3" x1="53" y1="5" x2="60.5" y2="5"/>
<line class="st3" x1="53" y1="19" x2="60.5" y2="19"/>
<text transform="matrix(1 0 0 1 63.5415 8.5942)"><tspan x="0" y="0" class="st0 st1">一心之愿</tspan><tspan x="0" y="14" class="st0 st1">五念之行</tspan></text>
<line class="st3" x1="106.7" y1="5" x2="114.2" y2="5"/>
<line class="st3" x1="106.7" y1="19" x2="114.2" y2="19"/>
<text transform="matrix(1 0 0 1 117.2497 8.5942)"><tspan x="0" y="0" class="st0 st1">自督</tspan><tspan x="0" y="14" class="st0 st1">教他</tspan></text>
<line class="st3" x1="140.2" y1="5" x2="147.7" y2="5"/>
<line class="st3" x1="140.2" y1="19" x2="147.7" y2="19"/>
<text transform="matrix(1 0 0 1 150.7498 8.5942)"><tspan x="0" y="0" class="st0 st1">含五念之行</tspan><tspan x="0" y="14" class="st0 st1">起一心之愿</tspan></text>
<g>
	<line class="st3" x1="207.5" y1="19.3" x2="207.5" y2="5"/>
	<line class="st3" x1="207.5" y1="19.3" x2="203.7" y2="19.3"/>
	<line class="st3" x1="207.5" y1="5" x2="203.7" y2="5"/>
	<line class="st3" x1="207.5" y1="12.1" x2="211.2" y2="12.1"/>
</g>
<text transform="matrix(1 0 0 1 213.1997 15.5942)" class="st0 st1">能所一体</text>
<line class="st3" x1="256.1" y1="12.1" x2="263.6" y2="12.1"/>
<text transform="matrix(1 0 0 1 265.5828 15.5941)" class="st0 st1">愿行具足</text>
<line class="st3" x1="307.6" y1="12.1" x2="315.1" y2="12.1"/>
<text transform="matrix(1 0 0 1 318.0828 15.5939)" class="st0 st1">自利利他</text>
</svg>
