<?xml version="1.0" encoding="utf-8"?>
<!-- Generator: Adobe Illustrator 21.0.0, SVG Export Plug-In . SVG Version: 6.00 Build 0)  -->
<svg version="1.1" baseProfile="tiny" id="圖層_1"
	 xmlns="http://www.w3.org/2000/svg" xmlns:xlink="http://www.w3.org/1999/xlink" x="0px" y="0px" viewBox="0 0 291 38.4"
	 overflow="scroll" xml:space="preserve">
<text transform="matrix(1 0 0 1 41.0358 8.5938)" font-family="'KaiTi'" font-size="10px">要</text>
<text transform="matrix(1 0 0 1 51.0358 8.5938)" font-family="'KaiTi'" font-size="10px"> </text>
<text transform="matrix(1 0 0 1 61.0358 8.5938)" font-family="'KaiTi'" font-size="10px">門</text>
<text transform="matrix(1 0 0 1 81.0358 8.5938)" font-family="'KaiTi'" font-size="10px">諸</text>
<text transform="matrix(1 0 0 1 91.0358 8.5938)" font-family="'KaiTi'" font-size="10px">行</text>
<text transform="matrix(1 0 0 1 111.0358 8.5938)" font-family="'KaiTi'" font-size="10px">迴</text>
<text transform="matrix(1 0 0 1 121.0358 8.5938)" font-family="'KaiTi'" font-size="10px">向</text>
<text transform="matrix(1 0 0 1 131.0358 8.5938)" font-family="'KaiTi'" font-size="10px">自</text>
<text transform="matrix(1 0 0 1 141.0358 8.5938)" font-family="'KaiTi'" font-size="10px">力</text>
<text transform="matrix(1 0 0 1 161.0358 8.5938)" font-family="'KaiTi'" font-size="10px">疏</text>
<text transform="matrix(1 0 0 1 171.0358 8.5938)" font-family="'KaiTi'" font-size="10px">雜</text>
<text transform="matrix(1 0 0 1 181.0358 8.5938)" font-family="'KaiTi'" font-size="10px">之</text>
<text transform="matrix(1 0 0 1 191.0358 8.5938)" font-family="'KaiTi'" font-size="10px">行</text>
<text transform="matrix(1 0 0 1 211.0358 8.5938)" font-family="'KaiTi'" font-size="10px">方</text>
<text transform="matrix(1 0 0 1 221.0358 8.5938)" font-family="'KaiTi'" font-size="10px">便</text>
<text transform="matrix(1 0 0 1 241.0358 8.5938)" font-family="'KaiTi'" font-size="10px">隨</text>
<text transform="matrix(1 0 0 1 251.0358 8.5938)" font-family="'KaiTi'" font-size="10px">他</text>
<text transform="matrix(1 0 0 1 261.0358 8.5938)" font-family="'KaiTi'" font-size="10px">意</text>
<text transform="matrix(1 0 0 1 281.0358 8.5938)" font-family="'KaiTi'" font-size="10px">廢</text>
<text transform="matrix(1 0 0 1 40.0358 36.5938)" font-family="'KaiTi'" font-size="10px">弘</text>
<text transform="matrix(1 0 0 1 51.0358 36.5938)" font-family="'KaiTi'" font-size="10px">願</text>
<text transform="matrix(1 0 0 1 61.0358 36.5938)" font-family="'KaiTi'" font-size="10px">門</text>
<text transform="matrix(1 0 0 1 81.0358 36.5938)" font-family="'KaiTi'" font-size="10px">念</text>
<text transform="matrix(1 0 0 1 91.0358 36.5938)" font-family="'KaiTi'" font-size="10px">佛</text>
<text transform="matrix(1 0 0 1 101.0358 36.5938)" font-family="'KaiTi'" font-size="10px">往</text>
<text transform="matrix(1 0 0 1 111.0358 36.5938)" font-family="'KaiTi'" font-size="10px">生</text>
<text transform="matrix(1 0 0 1 131.0358 36.5938)" font-family="'KaiTi'" font-size="10px">他</text>
<text transform="matrix(1 0 0 1 141.0358 36.5938)" font-family="'KaiTi'" font-size="10px">力</text>
<text transform="matrix(1 0 0 1 161.0358 36.5938)" font-family="'KaiTi'" font-size="10px">正</text>
<text transform="matrix(1 0 0 1 171.0358 36.5938)" font-family="'KaiTi'" font-size="10px">定</text>
<text transform="matrix(1 0 0 1 181.0358 36.5938)" font-family="'KaiTi'" font-size="10px">之</text>
<text transform="matrix(1 0 0 1 191.0358 36.5938)" font-family="'KaiTi'" font-size="10px">業</text>
<text transform="matrix(1 0 0 1 211.0358 36.5938)" font-family="'KaiTi'" font-size="10px">真</text>
<text transform="matrix(1 0 0 1 221.0358 36.5938)" font-family="'KaiTi'" font-size="10px">實</text>
<text transform="matrix(1 0 0 1 241.0358 36.5938)" font-family="'KaiTi'" font-size="10px">隨</text>
<text transform="matrix(1 0 0 1 251.0358 36.5938)" font-family="'KaiTi'" font-size="10px">自</text>
<text transform="matrix(1 0 0 1 261.0358 36.5938)" font-family="'KaiTi'" font-size="10px">意</text>
<text transform="matrix(1 0 0 1 281.0358 36.5938)" font-family="'KaiTi'" font-size="10px">立</text>
<text transform="matrix(1 0 0 1 1.220703e-04 23.3882)" font-family="'KaiTi'" font-size="10px">淨土宗</text>
<line fill="none" stroke="#000000" stroke-width="0.5" stroke-miterlimit="10" x1="35.3" y1="4.8" x2="35.3" y2="33"/>
<line fill="none" stroke="#000000" stroke-width="0.5" stroke-miterlimit="10" x1="35.3" y1="5" x2="38.5" y2="5"/>
<line fill="none" stroke="#000000" stroke-width="0.5" stroke-miterlimit="10" x1="35.3" y1="33" x2="38.5" y2="33"/>
<line fill="none" stroke="#000000" stroke-width="0.5" stroke-miterlimit="10" x1="35.3" y1="19.5" x2="32" y2="19.5"/>
<line fill="none" stroke="#000000" stroke-width="0.5" stroke-miterlimit="10" x1="56.1" y1="11.7" x2="56.1" y2="20.7"/>
<g>
	<polygon points="56.1,24.2 54.1,19.2 56.1,20.4 58.2,19.2 	"/>
</g>
<line fill="none" stroke="#000000" stroke-width="0.5" stroke-miterlimit="10" x1="72.8" y1="5" x2="78.3" y2="5"/>
<line fill="none" stroke="#000000" stroke-width="0.5" stroke-miterlimit="10" x1="103" y1="5" x2="108.5" y2="5"/>
<line fill="none" stroke="#000000" stroke-width="0.5" stroke-miterlimit="10" x1="152.9" y1="5" x2="158.4" y2="5"/>
<line fill="none" stroke="#000000" stroke-width="0.5" stroke-miterlimit="10" x1="203.8" y1="5" x2="209.3" y2="5"/>
<line fill="none" stroke="#000000" stroke-width="0.5" stroke-miterlimit="10" x1="233.3" y1="5" x2="238.8" y2="5"/>
<line fill="none" stroke="#000000" stroke-width="0.5" stroke-miterlimit="10" x1="72.8" y1="33" x2="78.3" y2="33"/>
<line fill="none" stroke="#000000" stroke-width="0.5" stroke-miterlimit="10" x1="123.1" y1="33" x2="128.6" y2="33"/>
<line fill="none" stroke="#000000" stroke-width="0.5" stroke-miterlimit="10" x1="152.9" y1="33" x2="158.4" y2="33"/>
<line fill="none" stroke="#000000" stroke-width="0.5" stroke-miterlimit="10" x1="203.8" y1="33" x2="209.3" y2="33"/>
<line fill="none" stroke="#000000" stroke-width="0.5" stroke-miterlimit="10" x1="233.3" y1="33" x2="238.8" y2="33"/>
<line fill="none" stroke="#000000" stroke-width="0.5" stroke-miterlimit="10" x1="273.3" y1="5" x2="278.8" y2="5"/>
<line fill="none" stroke="#000000" stroke-width="0.5" stroke-miterlimit="10" x1="273.3" y1="33" x2="278.8" y2="33"/>
</svg>
