<?xml version="1.0" encoding="utf-8"?>
<!-- Generator: Adobe Illustrator 21.0.0, SVG Export Plug-In . SVG Version: 6.00 Build 0)  -->
<svg version="1.1" id="图层_1" xmlns="http://www.w3.org/2000/svg" xmlns:xlink="http://www.w3.org/1999/xlink" x="0px" y="0px"
	 viewBox="0 0 249.2 24.8" style="enable-background:new 0 0 249.2 24.8;" xml:space="preserve">
<style type="text/css">
	.st0{font-family:'KaiTi';}
	.st1{font-size:10px;}
	.st2{fill:none;stroke:#000000;stroke-width:0.5;stroke-miterlimit:10;}
</style>
<text transform="matrix(1 0 0 1 0 15.5938)" class="st0 st1">净土宗教相判释</text>
<text transform="matrix(1 0 0 1 82 9)"><tspan x="0" y="0" class="st0 st1">通说</tspan><tspan x="0" y="14" class="st0 st1">别说</tspan></text>
<g>
	<line class="st2" x1="76.2" y1="4.9" x2="76.2" y2="19.2"/>
	<line class="st2" x1="76" y1="4.9" x2="78.9" y2="4.9"/>
	<line class="st2" x1="76" y1="19.2" x2="78.9" y2="19.2"/>
	<line class="st2" x1="73.3" y1="12.1" x2="76.2" y2="12.1"/>
</g>
<line class="st2" x1="104.9" y1="5" x2="110.5" y2="5"/>
<line class="st2" x1="104.9" y1="19.2" x2="110.5" y2="19.2"/>
<text transform="matrix(1 0 0 1 113.4946 8.5938)"><tspan x="0" y="0" class="st0 st1">第一节 教相判释之意义</tspan><tspan x="0" y="14" class="st0 st1">第二节 三师判教</tspan></text>
<line class="st2" x1="220.5" y1="5" x2="226.2" y2="5"/>
<line class="st2" x1="190.5" y1="19.2" x2="226.2" y2="19.2"/>
<text transform="matrix(1 0 0 1 229.1613 9)"><tspan x="0" y="0" class="st0 st1">铺垫</tspan><tspan x="0" y="14" class="st0 st1">主体</tspan></text>
</svg>
