<?xml version="1.0" encoding="utf-8"?>
<!-- Generator: Adobe Illustrator 21.0.0, SVG Export Plug-In . SVG Version: 6.00 Build 0)  -->
<svg version="1.1" id="圖層_1" xmlns="http://www.w3.org/2000/svg" xmlns:xlink="http://www.w3.org/1999/xlink" x="0px" y="0px"
	 viewBox="0 0 341 192.4" style="enable-background:new 0 0 341 192.4;" xml:space="preserve">
<style type="text/css">
	.st0{enable-background:new    ;}
	.st1{font-family:'KaiTi';}
	.st2{font-size:10px;}
	.st3{fill:none;stroke:#000000;stroke-width:0.5;stroke-miterlimit:10;}
	.st4{letter-spacing:5;}
	.st5{font-family:'DFKaiShu-SB-Estd-BF';}
</style>
<text transform="matrix(1 0 0 1 99.0001 8.5937)" class="st0"><tspan x="0" y="0" class="st1 st2">開宗祖師</tspan><tspan x="0" y="14" class="st1 st2">開宗時間</tspan><tspan x="0" y="28" class="st1 st2">開宗祖庭</tspan><tspan x="0" y="56" class="st1 st2">開宗利益</tspan><tspan x="0" y="105" class="st1 st2">開宗傳承</tspan><tspan x="0" y="168" class="st1 st2">諸師解釋不具備上述特點</tspan><tspan x="0" y="182" class="st1 st2">專依善導</tspan></text>
<g>
	<line class="st3" x1="144.3" y1="47.1" x2="144.3" y2="75.3"/>
	<line class="st3" x1="144.1" y1="47.4" x2="147" y2="47.4"/>
	<line class="st3" x1="144.1" y1="75.3" x2="147" y2="75.3"/>
	<line class="st3" x1="141.4" y1="61.2" x2="144.3" y2="61.2"/>
</g>
<text transform="matrix(1 0 0 1 150.0001 8.5936)" class="st0"><tspan x="0" y="0" class="st1 st2">善導大師</tspan><tspan x="0" y="14" class="st1 st2">貞觀十九年到總章元年</tspan><tspan x="0" y="28" class="st1 st2">悟真寺</tspan><tspan x="0" y="42" class="st1 st2">普濟時眾</tspan><tspan x="0" y="56" class="st1 st2">楷定古今</tspan><tspan x="0" y="70" class="st1 st2">垂範未來</tspan><tspan x="0" y="84" class="st1 st2">約</tspan><tspan x="10" y="84" class="st1 st2 st4">  </tspan><tspan x="30" y="84" class="st1 st2">人</tspan><tspan x="0" y="126" class="st1 st2">約</tspan><tspan x="10" y="126" class="st1 st2 st4">  </tspan><tspan x="30" y="126" class="st1 st2">法</tspan></text>
<g>
	<line class="st3" x1="144.3" y1="89" x2="144.3" y2="132"/>
	<line class="st3" x1="144.1" y1="89" x2="147" y2="89"/>
	<line class="st3" x1="144.1" y1="132" x2="147" y2="132"/>
	<line class="st3" x1="141.4" y1="111" x2="144.3" y2="111"/>
</g>
<text transform="matrix(1 0 0 1 201.0001 92.5936)" class="st0"><tspan x="0" y="0" class="st1 st2">龍樹</tspan><tspan x="20" y="0" class="st5 st2">、</tspan><tspan x="30" y="0" class="st1 st2">天親</tspan><tspan x="50" y="0" class="st5 st2">、</tspan><tspan x="60" y="0" class="st1 st2">曇鸞</tspan><tspan x="80" y="0" class="st5 st2">、</tspan><tspan x="90" y="0" class="st1 st2">道綽</tspan><tspan x="110" y="0" class="st5 st2">、</tspan><tspan x="120" y="0" class="st1 st2">善導</tspan><tspan x="0" y="14" class="st1 st2">統一完備的淨土宗教判理論</tspan><tspan x="0" y="28" class="st1 st2">一脈相承的法義師承關係</tspan><tspan x="0" y="42" class="st1 st2">依阿彌陀佛本願為立宗根本</tspan><tspan x="0" y="56" class="st1 st2">不夾雜聖道諸宗理念</tspan><tspan x="0" y="70" class="st1 st2">教行完備</tspan><tspan x="40" y="70" class="st5 st2">，</tspan><tspan x="50" y="70" class="st1 st2">淨土宗規模嚴整</tspan></text>
<g>
	<line class="st3" x1="195.9" y1="103.5" x2="195.9" y2="159.8"/>
	<line class="st3" x1="195.7" y1="103.5" x2="198.6" y2="103.5"/>
	<line class="st3" x1="195.7" y1="159.8" x2="198.6" y2="159.8"/>
	<line class="st3" x1="192.9" y1="132" x2="195.8" y2="132"/>
</g>
<line class="st3" x1="192.5" y1="89" x2="198.6" y2="89"/>
<line class="st3" x1="141.1" y1="33.5" x2="147.1" y2="33.5"/>
<line class="st3" x1="141.3" y1="18.8" x2="147.4" y2="18.8"/>
<line class="st3" x1="141.1" y1="4.1" x2="147.1" y2="4.1"/>
<text transform="matrix(1 0 0 1 49.75 61.0937)"><tspan x="0" y="0" class="st1 st2">正明開宗</tspan><tspan x="0" y="115.5" class="st1 st2">比較顯勝</tspan><tspan x="0" y="129.5" class="st1 st2">總結定論</tspan></text>
<g>
	<line class="st3" x1="94.8" y1="4.1" x2="94.8" y2="110.5"/>
	<line class="st3" x1="94.5" y1="4.3" x2="97.4" y2="4.3"/>
	<line class="st3" x1="94.5" y1="110.5" x2="97.4" y2="110.5"/>
	<line class="st3" x1="91.8" y1="57.3" x2="94.7" y2="57.3"/>
</g>
<line class="st3" x1="91.7" y1="172.8" x2="97.8" y2="172.8"/>
<line class="st3" x1="91.5" y1="187.3" x2="97.5" y2="187.3"/>
<g>
	<line class="st3" x1="45" y1="57" x2="45" y2="187.3"/>
	<line class="st3" x1="44.9" y1="57" x2="47.8" y2="57"/>
	<line class="st3" x1="44.9" y1="187.3" x2="47.8" y2="187.3"/>
	<line class="st3" x1="42.1" y1="122.2" x2="45" y2="122.2"/>
</g>
<text transform="matrix(1 0 0 1 0 125.8436)" class="st1 st2">淨土開宗</text>
</svg>
