<?xml version="1.0" encoding="utf-8"?>
<!-- Generator: Adobe Illustrator 21.0.0, SVG Export Plug-In . SVG Version: 6.00 Build 0)  -->
<svg version="1.1" baseProfile="tiny" id="圖層_1"
	 xmlns="http://www.w3.org/2000/svg" xmlns:xlink="http://www.w3.org/1999/xlink" x="0px" y="0px" viewBox="0 0 167.4 24.9"
	 overflow="scroll" xml:space="preserve">
<text transform="matrix(1 0 0 1 8.010864e-05 15.5938)" font-family="KaiTi" font-size="10px">淨宗宗旨</text>
<text transform="matrix(1 0 0 1 47.8662 8.5937)" font-family="KaiTi" font-size="10px">方法</text>
<text transform="matrix(1 0 0 1 47.8662 22.5937)" font-family="KaiTi" font-size="10px">目的</text>
<text transform="matrix(1 0 0 1 78.3662 8.5938)" font-family="KaiTi" font-size="10px">本願稱名</text>
<text transform="matrix(1 0 0 1 78.3662 22.5938)" font-family="KaiTi" font-size="10px">凡夫入報</text>
<text transform="matrix(1 0 0 1 127.397 15.5938)" font-family="KaiTi" font-size="10px">信而行之</text>
<g>
	<line fill="none" stroke="#000000" stroke-width="0.5" stroke-miterlimit="10" x1="41.3" y1="12.1" x2="44.2" y2="12.1"/>
	<line fill="none" stroke="#000000" stroke-width="0.5" stroke-miterlimit="10" x1="44.1" y1="5.2" x2="47" y2="5.2"/>
	<line fill="none" stroke="#000000" stroke-width="0.5" stroke-miterlimit="10" x1="44.1" y1="19.3" x2="47" y2="19.3"/>
	<line fill="none" stroke="#000000" stroke-width="0.5" stroke-miterlimit="10" x1="44.2" y1="4.9" x2="44.2" y2="19.6"/>
</g>
<line fill="none" stroke="#000000" stroke-width="0.5" stroke-miterlimit="10" x1="123.1" y1="12.1" x2="126" y2="12.1"/>
<line fill="none" stroke="#000000" stroke-width="0.5" stroke-miterlimit="10" x1="120.3" y1="5.2" x2="123.2" y2="5.2"/>
<line fill="none" stroke="#000000" stroke-width="0.5" stroke-miterlimit="10" x1="120.3" y1="19.3" x2="123.2" y2="19.3"/>
<line fill="none" stroke="#000000" stroke-width="0.5" stroke-miterlimit="10" x1="123.2" y1="4.9" x2="123.2" y2="19.6"/>
<line fill="none" stroke="#000000" stroke-width="0.5" stroke-miterlimit="10" x1="70.1" y1="5.2" x2="75.8" y2="5.2"/>
<line fill="none" stroke="#000000" stroke-width="0.5" stroke-miterlimit="10" x1="70.1" y1="19.3" x2="75.8" y2="19.3"/>
</svg>
