<?xml version="1.0" encoding="utf-8"?>
<!-- Generator: Adobe Illustrator 21.0.0, SVG Export Plug-In . SVG Version: 6.00 Build 0)  -->
<svg version="1.1" id="图层_1" xmlns="http://www.w3.org/2000/svg" xmlns:xlink="http://www.w3.org/1999/xlink" x="0px" y="0px"
	 viewBox="0 0 341 192.4" style="enable-background:new 0 0 341 192.4;" xml:space="preserve">
<style type="text/css">
	.st0{enable-background:new    ;}
	.st1{font-family:'KaiTi';}
	.st2{font-size:10px;}
	.st3{fill:none;stroke:#000000;stroke-width:0.5;stroke-miterlimit:10;}
	.st4{letter-spacing:5;}
	.st5{font-family:'DFKaiShu-SB-Estd-BF';}
</style>
<text transform="matrix(1 0 0 1 99.0001 8.5937)" class="st0"><tspan x="0" y="0" class="st1 st2">开宗祖师</tspan><tspan x="0" y="14" class="st1 st2">开宗时间</tspan><tspan x="0" y="28" class="st1 st2">开宗祖庭</tspan><tspan x="0" y="56" class="st1 st2">开宗利益</tspan><tspan x="0" y="105" class="st1 st2">开宗传承</tspan><tspan x="0" y="168" class="st1 st2">诸师解释不具备上述特点</tspan><tspan x="0" y="182" class="st1 st2">专依善导</tspan></text>
<g>
	<line class="st3" x1="144.3" y1="47.1" x2="144.3" y2="75.3"/>
	<line class="st3" x1="144.1" y1="47.4" x2="147" y2="47.4"/>
	<line class="st3" x1="144.1" y1="75.3" x2="147" y2="75.3"/>
	<line class="st3" x1="141.4" y1="61.2" x2="144.3" y2="61.2"/>
</g>
<text transform="matrix(1 0 0 1 150.0001 8.5936)" class="st0"><tspan x="0" y="0" class="st1 st2">善导大师</tspan><tspan x="0" y="14" class="st1 st2">贞观十九年到总章元年</tspan><tspan x="0" y="28" class="st1 st2">悟真寺</tspan><tspan x="0" y="42" class="st1 st2">普济时众</tspan><tspan x="0" y="56" class="st1 st2">楷定古今</tspan><tspan x="0" y="70" class="st1 st2">垂范未来</tspan><tspan x="0" y="84" class="st1 st2">约</tspan><tspan x="10" y="84" class="st1 st2 st4">  </tspan><tspan x="30" y="84" class="st1 st2">人</tspan><tspan x="0" y="126" class="st1 st2">约</tspan><tspan x="10" y="126" class="st1 st2 st4">  </tspan><tspan x="30" y="126" class="st1 st2">法</tspan></text>
<g>
	<line class="st3" x1="144.3" y1="89" x2="144.3" y2="132"/>
	<line class="st3" x1="144.1" y1="89" x2="147" y2="89"/>
	<line class="st3" x1="144.1" y1="132" x2="147" y2="132"/>
	<line class="st3" x1="141.4" y1="111" x2="144.3" y2="111"/>
</g>
<text transform="matrix(1 0 0 1 201.0001 92.5936)" class="st0"><tspan x="0" y="0" class="st1 st2">龙树</tspan><tspan x="20" y="0" class="st5 st2">、</tspan><tspan x="30" y="0" class="st1 st2">天亲</tspan><tspan x="50" y="0" class="st5 st2">、</tspan><tspan x="60" y="0" class="st1 st2">昙鸾</tspan><tspan x="80" y="0" class="st5 st2">、</tspan><tspan x="90" y="0" class="st1 st2">道绰</tspan><tspan x="110" y="0" class="st5 st2">、</tspan><tspan x="120" y="0" class="st1 st2">善导</tspan><tspan x="0" y="14" class="st1 st2">统一完备的净土宗教判理论</tspan><tspan x="0" y="28" class="st1 st2">一脉相承的法义师承关系</tspan><tspan x="0" y="42" class="st1 st2">依阿弥陀佛本愿为立宗根本</tspan><tspan x="0" y="56" class="st1 st2">不夹杂圣道诸宗理念</tspan><tspan x="0" y="70" class="st1 st2">教行完备</tspan><tspan x="40" y="70" class="st5 st2">，</tspan><tspan x="50" y="70" class="st1 st2">净土宗规模严整</tspan></text>
<g>
	<line class="st3" x1="195.9" y1="103.5" x2="195.9" y2="159.8"/>
	<line class="st3" x1="195.7" y1="103.5" x2="198.6" y2="103.5"/>
	<line class="st3" x1="195.7" y1="159.8" x2="198.6" y2="159.8"/>
	<line class="st3" x1="192.9" y1="132" x2="195.8" y2="132"/>
</g>
<line class="st3" x1="192.5" y1="89" x2="198.6" y2="89"/>
<line class="st3" x1="141.1" y1="33.5" x2="147.1" y2="33.5"/>
<line class="st3" x1="141.3" y1="18.8" x2="147.4" y2="18.8"/>
<line class="st3" x1="141.1" y1="4.1" x2="147.1" y2="4.1"/>
<text transform="matrix(1 0 0 1 49.75 61.0937)"><tspan x="0" y="0" class="st1 st2">正明开宗</tspan><tspan x="0" y="115.5" class="st1 st2">比较显胜</tspan><tspan x="0" y="129.5" class="st1 st2">总结定论</tspan></text>
<g>
	<line class="st3" x1="94.8" y1="4.1" x2="94.8" y2="110.5"/>
	<line class="st3" x1="94.5" y1="4.3" x2="97.4" y2="4.3"/>
	<line class="st3" x1="94.5" y1="110.5" x2="97.4" y2="110.5"/>
	<line class="st3" x1="91.8" y1="57.3" x2="94.7" y2="57.3"/>
</g>
<line class="st3" x1="91.7" y1="172.8" x2="97.8" y2="172.8"/>
<line class="st3" x1="91.5" y1="187.3" x2="97.5" y2="187.3"/>
<g>
	<line class="st3" x1="45" y1="57" x2="45" y2="187.3"/>
	<line class="st3" x1="44.9" y1="57" x2="47.8" y2="57"/>
	<line class="st3" x1="44.9" y1="187.3" x2="47.8" y2="187.3"/>
	<line class="st3" x1="42.1" y1="122.2" x2="45" y2="122.2"/>
</g>
<text transform="matrix(1 0 0 1 0 125.8436)" class="st1 st2">净土开宗</text>
</svg>
