<?xml version="1.0" encoding="utf-8"?>
<!-- Generator: Adobe Illustrator 21.0.0, SVG Export Plug-In . SVG Version: 6.00 Build 0)  -->
<svg version="1.1" id="图层_1" xmlns="http://www.w3.org/2000/svg" xmlns:xlink="http://www.w3.org/1999/xlink" x="0px" y="0px"
	 viewBox="0 0 356.5 152" style="enable-background:new 0 0 356.5 152;" xml:space="preserve">
<style type="text/css">
	.st0{font-family:'KaiTi';}
	.st1{font-size:10px;}
	.st2{letter-spacing:5;}
	.st3{fill:none;}
	.st4{fill:none;stroke:#000000;stroke-width:0.5;stroke-miterlimit:10;}
</style>
<text transform="matrix(1 0 0 1 13.717 14.1019)"><tspan x="0" y="0" class="st0 st1">净土三经</tspan><tspan x="0" y="28" class="st0 st1">无量寿经</tspan><tspan x="0" y="63" class="st0 st1">观</tspan><tspan x="10" y="63" class="st0 st1 st2">  </tspan><tspan x="30" y="63" class="st0 st1">经</tspan><tspan x="0" y="112" class="st0 st1">阿弥陀经</tspan></text>
<text transform="matrix(1 0 0 1 73.717 14.1019)"><tspan x="0" y="0" class="st0 st1">地</tspan><tspan x="10" y="0" class="st0 st1 st2">  </tspan><tspan x="30" y="0" class="st0 st1">位</tspan><tspan x="0" y="28" class="st0 st1">正依经典</tspan><tspan x="0" y="63" class="st0 st1">同</tspan><tspan x="10" y="63" class="st0 st1 st2">  </tspan><tspan x="30" y="63" class="st0 st1">上</tspan><tspan x="40" y="63" class="st0 st1 st2"> </tspan><tspan x="0" y="112" class="st0 st1">同</tspan><tspan x="10" y="112" class="st0 st1 st2">  </tspan><tspan x="30" y="112" class="st0 st1">上</tspan></text>
<line class="st3" x1="0" y1="2.3" x2="0.5" y2="84.3"/>
<line class="st4" x1="2.5" y1="0.3" x2="354.8" y2="0.3"/>
<line class="st4" x1="2.5" y1="21.4" x2="354.8" y2="21.4"/>
<line class="st4" x1="2.5" y1="55.6" x2="354.8" y2="55.6"/>
<line class="st4" x1="2.5" y1="151.8" x2="354.8" y2="151.8"/>
<line class="st4" x1="2.5" y1="91.9" x2="354.8" y2="91.9"/>
<line class="st4" x1="178.3" y1="0.3" x2="178.3" y2="151.8"/>
<line class="st4" x1="2.5" y1="0.3" x2="2.5" y2="151.8"/>
<line class="st4" x1="65.5" y1="0.3" x2="65.5" y2="151.8"/>
<line class="st4" x1="121.5" y1="0.3" x2="121.5" y2="151.8"/>
<text transform="matrix(1 0 0 1 129.6336 14.1019)"><tspan x="0" y="0" class="st0 st1">经</tspan><tspan x="10" y="0" class="st0 st1 st2">  </tspan><tspan x="30" y="0" class="st0 st1">体</tspan><tspan x="0" y="28" class="st0 st1">备 名 号</tspan><tspan x="0" y="35" class="st0 st1"> </tspan><tspan x="0" y="63" class="st0 st1">同</tspan><tspan x="10" y="63" class="st0 st1 st2">  </tspan><tspan x="30" y="63" class="st0 st1">上</tspan><tspan x="0" y="112" class="st0 st1">同</tspan><tspan x="10" y="112" class="st0 st1 st2">  </tspan><tspan x="30" y="112" class="st0 st1">上</tspan></text>
<line class="st4" x1="239.6" y1="0.3" x2="239.6" y2="151.8"/>
<text transform="matrix(1 0 0 1 179.467 14.1019)"><tspan x="0" y="0" class="st0 st1 st2"> </tspan><tspan x="10" y="0" class="st0 st1">经</tspan><tspan x="20" y="0" class="st0 st1 st2">  </tspan><tspan x="40" y="0" class="st0 st1">宗</tspan><tspan x="0" y="28" class="st0 st1">专念弥陀佛名</tspan><tspan x="0" y="56" class="st0 st1 st2"> </tspan><tspan x="0" y="63" class="st0 st1 st2"> </tspan><tspan x="10" y="63" class="st0 st1">同</tspan><tspan x="20" y="63" class="st0 st1 st2">  </tspan><tspan x="40" y="63" class="st0 st1">上</tspan><tspan x="0" y="112" class="st0 st1 st2"> </tspan><tspan x="10" y="112" class="st0 st1">同</tspan><tspan x="20" y="112" class="st0 st1 st2">  </tspan><tspan x="40" y="112" class="st0 st1">上</tspan></text>
<line class="st4" x1="302.1" y1="0.3" x2="302.1" y2="151.8"/>
<text transform="matrix(1 0 0 1 240.967 14.1019)"><tspan x="0" y="0" class="st0 st1 st2"> </tspan><tspan x="10" y="0" class="st0 st1">力</tspan><tspan x="20" y="0" class="st0 st1 st2">  </tspan><tspan x="40" y="0" class="st0 st1">用</tspan><tspan x="0" y="28" class="st0 st1">凡夫往生报土</tspan><tspan x="0" y="56" class="st0 st1 st2"> </tspan><tspan x="0" y="63" class="st0 st1 st2"> </tspan><tspan x="10" y="63" class="st0 st1">同</tspan><tspan x="20" y="63" class="st0 st1 st2">  </tspan><tspan x="40" y="63" class="st0 st1">上</tspan><tspan x="0" y="84" class="st0 st1 st2"> </tspan><tspan x="0" y="98" class="st0 st1 st2"> </tspan><tspan x="0" y="112" class="st0 st1 st2"> </tspan><tspan x="10" y="112" class="st0 st1">同</tspan><tspan x="20" y="112" class="st0 st1 st2">  </tspan><tspan x="40" y="112" class="st0 st1">上</tspan></text>
<line class="st4" x1="354.8" y1="0.3" x2="354.8" y2="151.8"/>
<text transform="matrix(1 0 0 1 306.467 14.1019)"><tspan x="0" y="0" class="st0 st1">侧</tspan><tspan x="10" y="0" class="st0 st1 st2">  </tspan><tspan x="30" y="0" class="st0 st1">重</tspan><tspan x="0" y="21" class="st0 st1">往生原理：</tspan><tspan x="0" y="35" class="st0 st1">乘佛愿力</tspan><tspan x="0" y="56" class="st0 st1">往生机类：</tspan><tspan x="0" y="70" class="st0 st1">善恶九品</tspan><tspan x="0" y="91" class="st0 st1">往生方法：</tspan><tspan x="0" y="105" class="st0 st1">专念佛名</tspan><tspan x="0" y="119" class="st0 st1">往生胜益：</tspan><tspan x="0" y="133" class="st0 st1">不退成佛</tspan></text>
</svg>
