<?xml version="1.0" encoding="utf-8"?>
<!-- Generator: Adobe Illustrator 21.0.0, SVG Export Plug-In . SVG Version: 6.00 Build 0)  -->
<svg version="1.1" id="图层_1" xmlns="http://www.w3.org/2000/svg" xmlns:xlink="http://www.w3.org/1999/xlink" x="0px" y="0px"
	 viewBox="0 0 317.5 80.8" style="enable-background:new 0 0 317.5 80.8;" xml:space="preserve">
<style type="text/css">
	.st0{font-family:'KaiTi';}
	.st1{font-size:10px;}
	.st2{font-family:'DFKaiShu-SB-Estd-BF';}
	.st3{fill:none;stroke:#000000;stroke-width:0.5;stroke-miterlimit:10;}
	.st4{letter-spacing:5;}
</style>
<text transform="matrix(1 0 0 1 83 8.5938)"><tspan x="0" y="0" class="st0 st1">净土三经</tspan><tspan x="0" y="14" class="st0 st1">诸经</tspan><tspan x="0" y="28" class="st0 st1">龙树易行品</tspan><tspan x="50" y="28" class="st2 st1">、</tspan><tspan x="60" y="28" class="st0 st1">天亲往生论</tspan><tspan x="0" y="42" class="st0 st1">余论</tspan><tspan x="0" y="56" class="st0 st1">昙鸾</tspan><tspan x="20" y="56" class="st2 st1">、</tspan><tspan x="30" y="56" class="st0 st1">道绰</tspan><tspan x="50" y="56" class="st2 st1">、</tspan><tspan x="60" y="56" class="st0 st1">善导三师之释</tspan><tspan x="0" y="70" class="st0 st1">诸师之释</tspan></text>
<text transform="matrix(1 0 0 1 226 9)"><tspan x="0" y="0" class="st0 st1">正</tspan><tspan x="0" y="14" class="st0 st1">旁</tspan><tspan x="0" y="28" class="st0 st1">正</tspan><tspan x="0" y="42" class="st0 st1">旁</tspan><tspan x="0" y="56" class="st0 st1">正</tspan><tspan x="0" y="70" class="st0 st1">旁</tspan></text>
<line class="st3" x1="125.9" y1="5.1" x2="223.4" y2="5.1"/>
<line class="st3" x1="105.8" y1="19.2" x2="223.4" y2="19.2"/>
<line class="st3" x1="105.8" y1="47.2" x2="223.4" y2="47.2"/>
<line class="st3" x1="125.9" y1="75.2" x2="223.4" y2="75.2"/>
<line class="st3" x1="206.2" y1="62.2" x2="223.4" y2="62.2"/>
<line class="st3" x1="196" y1="33.2" x2="223.4" y2="33.2"/>
<g>
	<line class="st3" x1="77.5" y1="5.1" x2="77.5" y2="19.2"/>
	<line class="st3" x1="77.3" y1="5.1" x2="80.2" y2="5.1"/>
	<line class="st3" x1="77.3" y1="19.2" x2="80.2" y2="19.2"/>
	<line class="st3" x1="74.5" y1="12.2" x2="77.4" y2="12.2"/>
</g>
<g>
	<line class="st3" x1="77.7" y1="33.1" x2="77.7" y2="47.2"/>
	<line class="st3" x1="77.4" y1="33.1" x2="80.3" y2="33.1"/>
	<line class="st3" x1="77.4" y1="47.2" x2="80.3" y2="47.2"/>
	<line class="st3" x1="74.7" y1="40.2" x2="77.6" y2="40.2"/>
</g>
<g>
	<line class="st3" x1="77.8" y1="60.4" x2="77.8" y2="74.6"/>
	<line class="st3" x1="77.6" y1="60.4" x2="80.5" y2="60.4"/>
	<line class="st3" x1="77.6" y1="74.6" x2="80.5" y2="74.6"/>
	<line class="st3" x1="74.9" y1="67.5" x2="77.8" y2="67.5"/>
</g>
<text transform="matrix(1 0 0 1 41.8333 15.5938)"><tspan x="0" y="0" class="st0 st1">佛</tspan><tspan x="10" y="0" class="st0 st1 st4"> </tspan><tspan x="20" y="0" class="st0 st1">经</tspan><tspan x="0" y="28" class="st0 st1">菩萨论</tspan><tspan x="0" y="56" class="st0 st1">人师释</tspan></text>
<text transform="matrix(1 0 0 1 1.640320e-04 44)" class="st0 st1">净土教</text>
<g>
	<line class="st3" x1="36.2" y1="12.2" x2="36.2" y2="67.5"/>
	<line class="st3" x1="35.9" y1="12.2" x2="38.8" y2="12.2"/>
	<line class="st3" x1="35.9" y1="67.5" x2="38.8" y2="67.5"/>
	<line class="st3" x1="33" y1="40.2" x2="35.9" y2="40.2"/>
</g>
<text transform="matrix(1 0 0 1 257.5 29.5938)"><tspan x="0" y="0" class="st0 st1">纯</tspan><tspan x="10" y="0" class="st2 st1">、</tspan><tspan x="20" y="0" class="st0 st1">净土宗</tspan><tspan x="0" y="28" class="st0 st1">杂</tspan><tspan x="10" y="28" class="st2 st1">、</tspan><tspan x="20" y="28" class="st0 st1">圣道诸宗</tspan></text>
<line class="st3" x1="239.2" y1="5.1" x2="254.5" y2="26.8"/>
<line class="st3" x1="239.2" y1="33.2" x2="254.5" y2="26.8"/>
<line class="st3" x1="239.2" y1="62.2" x2="254.5" y2="26.8"/>
<line class="st3" x1="239.2" y1="19.2" x2="254.5" y2="54.4"/>
<line class="st3" x1="239.2" y1="47.2" x2="254.5" y2="54.4"/>
<line class="st3" x1="239.2" y1="75.2" x2="254.5" y2="54.4"/>
</svg>
