<?xml version="1.0" encoding="utf-8"?>
<!-- Generator: Adobe Illustrator 21.0.0, SVG Export Plug-In . SVG Version: 6.00 Build 0)  -->
<svg version="1.1" id="圖層_1" xmlns="http://www.w3.org/2000/svg" xmlns:xlink="http://www.w3.org/1999/xlink" x="0px" y="0px"
	 viewBox="0 0 269.9 219.5" style="enable-background:new 0 0 269.9 219.5;" xml:space="preserve">
<style type="text/css">
	.st0{enable-background:new    ;}
	.st1{font-family:'KaiTi';}
	.st2{font-size:10px;}
	.st3{fill:none;stroke:#000000;stroke-width:0.5;stroke-miterlimit:10;}
	.st4{letter-spacing:5;}
</style>
<text transform="matrix(1 0 0 1 147.7501 8.5937)" class="st0"><tspan x="0" y="0" class="st1 st2">開宗祖師</tspan><tspan x="0" y="14" class="st1 st2">開宗時間</tspan><tspan x="0" y="28" class="st1 st2">開宗祖庭</tspan><tspan x="0" y="42" class="st1 st2">開宗利益</tspan><tspan x="0" y="77" class="st1 st2">開宗傳承</tspan><tspan x="0" y="112" class="st1 st2">專依善導</tspan></text>
<g>
	<line class="st3" x1="193.1" y1="33.1" x2="193.1" y2="61.3"/>
	<line class="st3" x1="192.9" y1="33.4" x2="195.8" y2="33.4"/>
	<line class="st3" x1="192.9" y1="61.3" x2="195.8" y2="61.3"/>
	<line class="st3" x1="190.1" y1="47.2" x2="193" y2="47.2"/>
</g>
<text transform="matrix(1 0 0 1 198.7501 36.5936)" class="st0"><tspan x="0" y="0" class="st1 st2">普濟時眾</tspan><tspan x="0" y="14" class="st1 st2">楷定古今</tspan><tspan x="0" y="28" class="st1 st2">垂範未來</tspan><tspan x="0" y="42" class="st1 st2">約</tspan><tspan x="10" y="42" class="st1 st2 st4">  </tspan><tspan x="30" y="42" class="st1 st2">人</tspan><tspan x="0" y="56" class="st1 st2">約</tspan><tspan x="10" y="56" class="st1 st2 st4">  </tspan><tspan x="30" y="56" class="st1 st2">法</tspan></text>
<g>
	<line class="st3" x1="193.1" y1="76" x2="193.1" y2="90"/>
	<line class="st3" x1="192.9" y1="76" x2="195.8" y2="76"/>
	<line class="st3" x1="192.9" y1="90" x2="195.8" y2="90"/>
	<line class="st3" x1="190.1" y1="83" x2="193" y2="83"/>
</g>
<g>
	<line class="st3" x1="143.1" y1="4.9" x2="143.1" y2="82.2"/>
	<line class="st3" x1="143.1" y1="4.9" x2="146" y2="4.9"/>
	<line class="st3" x1="142.9" y1="82.2" x2="145.8" y2="82.2"/>
	<line class="st3" x1="140.1" y1="43.5" x2="143" y2="43.5"/>
</g>
<text transform="matrix(1 0 0 1 97.5834 47.0936)" class="st0"><tspan x="0" y="0" class="st1 st2">正明開宗</tspan><tspan x="0" y="59.5" class="st1 st2">比較顯勝</tspan><tspan x="0" y="73.5" class="st1 st2">總結定論</tspan></text>
<text transform="matrix(1 0 0 1 97.5833 133.6667)"><tspan x="0" y="0" class="st1 st2">一</tspan><tspan x="0" y="21" class="st1 st2">二</tspan><tspan x="0" y="56" class="st1 st2">三</tspan><tspan x="0" y="84" class="st1 st2">四</tspan></text>
<text transform="matrix(1 0 0 1 118.7502 133.667)"><tspan x="0" y="0" class="st1 st2">概要</tspan><tspan x="0" y="14" class="st1 st2">概括</tspan><tspan x="0" y="28" class="st1 st2">概略</tspan><tspan x="0" y="42" class="st1 st2">論述 第一章</tspan><tspan x="0" y="56" class="st1 st2">論證 二至九章</tspan><tspan x="0" y="70" class="st1 st2">論定 第十章</tspan><tspan x="0" y="84" class="st1 st2">綜合</tspan></text>
<line class="st3" x1="110.7" y1="129.6" x2="116.4" y2="129.6"/>
<g>
	<line class="st3" x1="113.7" y1="143.5" x2="113.7" y2="157.5"/>
	<line class="st3" x1="113.5" y1="143.5" x2="116.4" y2="143.5"/>
	<line class="st3" x1="113.5" y1="157.5" x2="116.4" y2="157.5"/>
	<line class="st3" x1="110.7" y1="150.5" x2="113.6" y2="150.5"/>
</g>
<g>
	<line class="st3" x1="113.9" y1="172.1" x2="113.9" y2="200.3"/>
	<line class="st3" x1="113.6" y1="172.4" x2="116.5" y2="172.4"/>
	<line class="st3" x1="113.6" y1="200.3" x2="116.5" y2="200.3"/>
	<line class="st3" x1="110.9" y1="186.2" x2="113.8" y2="186.2"/>
</g>
<line class="st3" x1="111" y1="213.9" x2="116.7" y2="213.9"/>
<line class="st3" x1="140" y1="117.5" x2="145.7" y2="117.5"/>
<text transform="matrix(1 0 0 1 198.7504 133.6667)"><tspan x="0" y="0" class="st1 st2">依準目的</tspan><tspan x="0" y="14" class="st1 st2">全貌整體</tspan><tspan x="0" y="28" class="st1 st2">不暇細釋</tspan><tspan x="0" y="42" class="st1 st2">總</tspan><tspan x="10" y="42" class="st1 st2 st4">  </tspan><tspan x="30" y="42" class="st1 st2">論</tspan><tspan x="0" y="56" class="st1 st2">分</tspan><tspan x="10" y="56" class="st1 st2 st4">  </tspan><tspan x="30" y="56" class="st1 st2">論</tspan><tspan x="0" y="70" class="st1 st2">結</tspan><tspan x="10" y="70" class="st1 st2 st4">  </tspan><tspan x="30" y="70" class="st1 st2">論</tspan></text>
<line class="st3" x1="141.6" y1="129.6" x2="195.9" y2="129.6"/>
<g>
	<line class="st3" x1="243.9" y1="200.3" x2="243.9" y2="172.1"/>
	<line class="st3" x1="244.2" y1="200.1" x2="241.3" y2="200.1"/>
	<line class="st3" x1="244.2" y1="172.1" x2="241.3" y2="172.1"/>
	<line class="st3" x1="246.9" y1="186.2" x2="244" y2="186.2"/>
</g>
<g>
	<line class="st3" x1="243.8" y1="157.6" x2="243.8" y2="129.4"/>
	<line class="st3" x1="244" y1="157.3" x2="241.1" y2="157.3"/>
	<line class="st3" x1="244" y1="129.4" x2="241.1" y2="129.4"/>
	<line class="st3" x1="246.8" y1="143.5" x2="243.9" y2="143.5"/>
</g>
<text transform="matrix(1 0 0 1 249.9172 147.667)"><tspan x="0" y="0" class="st1 st2">概</tspan><tspan x="0" y="42" class="st1 st2">論</tspan><tspan x="0" y="70" class="st1 st2">概論</tspan></text>
<line class="st3" x1="141.6" y1="213.9" x2="246.8" y2="213.9"/>
<g>
	<line class="st3" x1="92.5" y1="43.5" x2="92.5" y2="117.5"/>
	<line class="st3" x1="92.3" y1="43.8" x2="95.2" y2="43.8"/>
	<line class="st3" x1="92.4" y1="117.5" x2="95.3" y2="117.5"/>
	<line class="st3" x1="89.8" y1="80.5" x2="92.7" y2="80.5"/>
</g>
<g>
	<line class="st3" x1="92.7" y1="129.6" x2="92.7" y2="213.9"/>
	<line class="st3" x1="92.4" y1="129.6" x2="95.3" y2="129.6"/>
	<line class="st3" x1="92.4" y1="213.9" x2="95.3" y2="213.9"/>
	<line class="st3" x1="89.8" y1="172.1" x2="92.7" y2="172.1"/>
</g>
<text transform="matrix(1 0 0 1 46.5001 83.8436)" class="st1 st2">淨土開宗</text>
<text transform="matrix(1 0 0 1 46.4999 175.6667)" class="st1 st2">本書簡介</text>
<line class="st3" x1="38.2" y1="80.3" x2="43.8" y2="80.3"/>
<line class="st3" x1="38.2" y1="172.1" x2="43.8" y2="172.1"/>
<text transform="matrix(1 0 0 1 5.7501 83.8435)" class="st1 st2">淨土宗</text>
<text transform="matrix(1 0 0 1 5.75 175.6664)"><tspan x="0" y="0" class="st1 st2">概</tspan><tspan x="10" y="0" class="st1 st2 st4"> </tspan><tspan x="20" y="0" class="st1 st2">論</tspan></text>
<g>
	<line class="st3" x1="0.3" y1="80.3" x2="0.3" y2="166.8"/>
	<line class="st3" x1="0.3" y1="80.3" x2="3.1" y2="80.3"/>
	<line class="st3" x1="0" y1="166.8" x2="2.9" y2="166.8"/>
</g>
</svg>
