<?xml version="1.0" encoding="utf-8"?>
<!-- Generator: Adobe Illustrator 21.0.0, SVG Export Plug-In . SVG Version: 6.00 Build 0)  -->
<svg version="1.1" id="图层_1" xmlns="http://www.w3.org/2000/svg" xmlns:xlink="http://www.w3.org/1999/xlink" x="0px" y="0px"
	 viewBox="0 0 197.5 108.4" style="enable-background:new 0 0 197.5 108.4;" xml:space="preserve">
<style type="text/css">
	.st0{font-family:'KaiTi';}
	.st1{font-size:10px;}
	.st2{letter-spacing:5;}
	.st3{fill:none;stroke:#000000;stroke-width:0.5;stroke-miterlimit:10;}
	.st4{font-family:'DFKaiShu-SB-Estd-BF';}
</style>
<text transform="matrix(1 0 0 1 86.3335 8.5938)"><tspan x="0" y="0" class="st0 st1">要</tspan><tspan x="10" y="0" class="st0 st1 st2">  </tspan><tspan x="30" y="0" class="st0 st1">门</tspan><tspan x="0" y="14" class="st0 st1">弘</tspan><tspan x="10" y="14" class="st0 st1 st2">  </tspan><tspan x="30" y="14" class="st0 st1">愿</tspan><tspan x="0" y="28" class="st0 st1">观佛为宗</tspan><tspan x="0" y="42" class="st0 st1">念佛为宗</tspan><tspan x="0" y="56" class="st0 st1">杂</tspan><tspan x="10" y="56" class="st0 st1 st2">  </tspan><tspan x="30" y="56" class="st0 st1">行</tspan><tspan x="0" y="70" class="st0 st1">正</tspan><tspan x="10" y="70" class="st0 st1 st2">  </tspan><tspan x="30" y="70" class="st0 st1">行</tspan><tspan x="0" y="84" class="st0 st1">见国愿生</tspan><tspan x="0" y="98" class="st0 st1">见佛悟忍</tspan></text>
<text transform="matrix(1 0 0 1 23.3335 16)"><tspan x="0" y="0" class="st0 st1">要弘二教判</tspan><tspan x="0" y="28" class="st0 st1">念观二宗判</tspan><tspan x="0" y="56" class="st0 st1">正杂二行判</tspan><tspan x="0" y="84" class="st0 st1">见国见佛判</tspan></text>
<g>
	<line class="st3" x1="79.8" y1="5.3" x2="79.8" y2="19.6"/>
	<line class="st3" x1="79.8" y1="5.3" x2="83.6" y2="5.3"/>
	<line class="st3" x1="79.8" y1="19.6" x2="83.6" y2="19.6"/>
	<line class="st3" x1="79.8" y1="12.5" x2="76.1" y2="12.5"/>
</g>
<g>
	<line class="st3" x1="79.7" y1="33" x2="79.7" y2="47.2"/>
	<line class="st3" x1="79.7" y1="33" x2="83.5" y2="33"/>
	<line class="st3" x1="79.7" y1="47.2" x2="83.5" y2="47.2"/>
	<line class="st3" x1="79.7" y1="40.1" x2="76" y2="40.1"/>
</g>
<g>
	<line class="st3" x1="79.7" y1="60.7" x2="79.7" y2="74.9"/>
	<line class="st3" x1="79.7" y1="60.7" x2="83.5" y2="60.7"/>
	<line class="st3" x1="79.7" y1="74.9" x2="83.5" y2="74.9"/>
	<line class="st3" x1="79.7" y1="67.8" x2="76" y2="67.8"/>
</g>
<g>
	<line class="st3" x1="79.6" y1="88.3" x2="79.6" y2="102.6"/>
	<line class="st3" x1="79.6" y1="88.3" x2="83.4" y2="88.3"/>
	<line class="st3" x1="79.6" y1="102.6" x2="83.4" y2="102.6"/>
	<line class="st3" x1="79.6" y1="95.5" x2="75.9" y2="95.5"/>
</g>
<text transform="matrix(1 0 0 1 1.640320e-04 15.5938)"><tspan x="0" y="0" class="st0 st1">教</tspan><tspan x="0" y="28" class="st0 st1">宗</tspan><tspan x="0" y="56" class="st0 st1">行</tspan><tspan x="0" y="84" class="st0 st1">益</tspan></text>
<text transform="matrix(1 0 0 1 157.5002 29.9998)"><tspan x="0" y="0" class="st0 st1">方便</tspan><tspan x="20" y="0" class="st4 st1">(</tspan><tspan x="25" y="0" class="st0 st1">权</tspan><tspan x="35" y="0" class="st4 st1">)</tspan><tspan x="0" y="56" class="st0 st1">真实</tspan><tspan x="20" y="56" class="st4 st1">(</tspan><tspan x="25" y="56" class="st0 st1">实</tspan><tspan x="35" y="56" class="st4 st1">)</tspan></text>
<line class="st3" x1="12.8" y1="12.5" x2="20.3" y2="12.5"/>
<line class="st3" x1="12.8" y1="40.1" x2="20.3" y2="40.1"/>
<line class="st3" x1="12.8" y1="67.8" x2="20.3" y2="67.8"/>
<line class="st3" x1="12.8" y1="95.5" x2="20.3" y2="95.5"/>
<line class="st3" x1="128.7" y1="5.3" x2="155" y2="26"/>
<line class="st3" x1="128.7" y1="33" x2="155" y2="26"/>
<line class="st3" x1="128.7" y1="60.7" x2="155" y2="26"/>
<line class="st3" x1="128.7" y1="88.3" x2="155" y2="26"/>
<line class="st3" x1="128.7" y1="102.6" x2="155" y2="82.5"/>
<line class="st3" x1="128.7" y1="74.9" x2="155" y2="82.5"/>
<line class="st3" x1="128.7" y1="47.2" x2="155" y2="82.5"/>
<line class="st3" x1="128.7" y1="19.6" x2="155" y2="82.5"/>
</svg>
