<?xml version="1.0" encoding="utf-8"?>
<!-- Generator: Adobe Illustrator 21.0.0, SVG Export Plug-In . SVG Version: 6.00 Build 0)  -->
<svg version="1.1" id="图层_1" xmlns="http://www.w3.org/2000/svg" xmlns:xlink="http://www.w3.org/1999/xlink" x="0px" y="0px"
	 viewBox="0 0 131.6 38.4" style="enable-background:new 0 0 131.6 38.4;" xml:space="preserve">
<style type="text/css">
	.st0{font-family:'KaiTi';}
	.st1{font-size:10px;}
	.st2{fill:none;stroke:#040000;stroke-width:0.5;stroke-miterlimit:10;}
</style>
<text transform="matrix(1 0 0 1 30.375 8.5938)"><tspan x="0" y="0" class="st0 st1">所判</tspan><tspan x="0" y="14" class="st0 st1">能判</tspan><tspan x="0" y="28" class="st0 st1">判法</tspan></text>
<g>
	<line class="st2" x1="21.5" y1="18.7" x2="24.4" y2="18.7"/>
	<line class="st2" x1="24.4" y1="4.7" x2="27.3" y2="4.7"/>
	<line class="st2" x1="24.4" y1="33" x2="27.3" y2="33"/>
	<line class="st2" x1="24.4" y1="4.5" x2="24.4" y2="33"/>
</g>
<text transform="matrix(1 0 0 1 0 22.5938)" class="st0 st1">教判</text>
<line class="st2" x1="52.4" y1="4.5" x2="58.2" y2="4.5"/>
<line class="st2" x1="52.4" y1="18.7" x2="58.2" y2="18.7"/>
<text transform="matrix(1 0 0 1 61.183 8.5938)"><tspan x="0" y="0" class="st0 st1">客观要求</tspan><tspan x="0" y="14" class="st0 st1">主观意愿</tspan><tspan x="0" y="28" class="st0 st1">有机整体</tspan></text>
<text transform="matrix(1 0 0 1 111.6496 22.5938)" class="st0 st1">开宗</text>
<line class="st2" x1="52.4" y1="33" x2="58.2" y2="33"/>
<g>
	<line class="st2" x1="109.7" y1="18.7" x2="106.8" y2="18.7"/>
	<line class="st2" x1="106.8" y1="32.8" x2="103.9" y2="32.8"/>
	<line class="st2" x1="106.8" y1="4.5" x2="103.9" y2="4.5"/>
	<line class="st2" x1="106.8" y1="33" x2="106.8" y2="4.5"/>
</g>
</svg>
