<?xml version="1.0" encoding="utf-8"?>
<!-- Generator: Adobe Illustrator 21.0.0, SVG Export Plug-In . SVG Version: 6.00 Build 0)  -->
<svg version="1.1" id="圖層_1" xmlns="http://www.w3.org/2000/svg" xmlns:xlink="http://www.w3.org/1999/xlink" x="0px" y="0px"
	 viewBox="0 0 189.9 38.4" style="enable-background:new 0 0 189.9 38.4;" xml:space="preserve">
<style type="text/css">
	.st0{font-family:'KaiTi';}
	.st1{font-size:10px;}
	.st2{fill:none;stroke:#000000;stroke-width:0.5;stroke-miterlimit:10;}
</style>
<text transform="matrix(1 0 0 1 53.8335 8.5938)"><tspan x="0" y="0" class="st0 st1">往生正覺 機法一體</tspan><tspan x="0" y="14" class="st0 st1">身心功德 機法一體</tspan><tspan x="0" y="28" class="st0 st1">生佛三業 機法一體</tspan></text>
<text transform="matrix(1 0 0 1 149.94 8.5938)"><tspan x="0" y="0" class="st0 st1">彼此相靠</tspan><tspan x="0" y="14" class="st0 st1">互相包容</tspan><tspan x="0" y="28" class="st0 st1">不相捨離</tspan></text>
<text transform="matrix(1 0 0 1 1.640320e-04 22.5938)" class="st0 st1">機法一體</text>
<g>
	<line class="st2" x1="47.1" y1="4.8" x2="47.1" y2="33.6"/>
	<line class="st2" x1="47.1" y1="4.8" x2="50.8" y2="4.8"/>
	<line class="st2" x1="47.1" y1="33.6" x2="50.8" y2="33.6"/>
	<line class="st2" x1="47.2" y1="19.2" x2="43.4" y2="19.2"/>
</g>
<line class="st2" x1="141.4" y1="4.8" x2="146.9" y2="4.8"/>
<line class="st2" x1="141.4" y1="19.2" x2="146.9" y2="19.2"/>
<line class="st2" x1="141.4" y1="33.6" x2="146.9" y2="33.6"/>
</svg>
