<?xml version="1.0" encoding="utf-8"?>
<!-- Generator: Adobe Illustrator 19.1.0, SVG Export Plug-In . SVG Version: 6.00 Build 0)  -->
<svg version="1.1" baseProfile="tiny" id="图层_1"
	 xmlns="http://www.w3.org/2000/svg" xmlns:xlink="http://www.w3.org/1999/xlink" x="0px" y="0px" viewBox="0 0 321.1 41"
	 xml:space="preserve">
<text transform="matrix(1 0 0 1 1.239777e-005 24.3127)" font-family="'FZKTK--GBK1-0'" font-size="12px">极乐涅槃界</text>
<text transform="matrix(1 0 0 1 66.02 10.3127)" font-family="'FZKTK--GBK1-0'" font-size="12px">（1）弥陀涅槃</text>
<text transform="matrix(1 0 0 1 66.02 24.3127)" font-family="'FZKTK--GBK1-0'" font-size="12px">（2）国土涅槃</text>
<text transform="matrix(1 0 0 1 66.02 38.3127)" font-family="'FZKTK--GBK1-0'" font-size="12px">（3）圣众涅槃</text>
<text transform="matrix(1 0 0 1 153.0733 24.3127)" font-family="'FZKTK--GBK1-0'" font-size="12px">依正主伴，同一涅槃，妙境界相</text>
<g>
	<rect x="62" y="20.3" fill="#040000" width="2.6" height="0.5"/>
	<polygon fill="#040000" points="65.1,7 67.8,7 67.8,6.5 64.9,6.5 64.9,6.5 65.1,6.5 	"/>
	<polygon fill="#040000" points="64.9,34.4 64.9,34.5 67.8,34.5 67.8,34 65.1,34 65.1,34.4 	"/>
	<polygon fill="#040000" points="65.1,6.5 64.9,6.5 64.6,6.5 64.6,20.3 64.6,20.8 64.6,34.4 64.9,34.4 65.1,34.4 65.1,34 65.1,7 	
		"/>
</g>
<g>
	<rect x="148.5" y="20.2" fill="#040000" width="2.6" height="0.5"/>
	<polygon fill="#040000" points="148,34 145.4,34 145.4,34.5 148.3,34.5 148.3,34.4 148,34.4 	"/>
	<polygon fill="#040000" points="148.3,6.5 148.3,6.5 145.4,6.5 145.4,7 148,7 148,6.5 	"/>
	<polygon fill="#040000" points="148.5,20.7 148.5,20.2 148.5,6.5 148.3,6.5 148,6.5 148,7 148,34 148,34.4 148.3,34.4 148.5,34.4 	
		"/>
</g>
</svg>
