<?xml version="1.0" encoding="utf-8"?>
<!-- Generator: Adobe Illustrator 21.0.0, SVG Export Plug-In . SVG Version: 6.00 Build 0)  -->
<svg version="1.1" id="圖層_1" xmlns="http://www.w3.org/2000/svg" xmlns:xlink="http://www.w3.org/1999/xlink" x="0px" y="0px"
	 viewBox="0 0 239.3 94.4" style="enable-background:new 0 0 239.3 94.4;" xml:space="preserve">
<style type="text/css">
	.st0{enable-background:new    ;}
	.st1{font-family:'KaiTi';}
	.st2{font-size:10px;}
	.st3{letter-spacing:5;}
	.st4{fill:none;stroke:#000000;stroke-width:0.5;stroke-miterlimit:10;}
</style>
<text transform="matrix(1 0 0 1 64.7498 8.5938)" class="st0"><tspan x="0" y="0" class="st1 st2">淨</tspan><tspan x="10" y="0" class="st1 st2 st3">  </tspan><tspan x="30" y="0" class="st1 st2">土</tspan><tspan x="0" y="28" class="st1 st2">穢</tspan><tspan x="10" y="28" class="st1 st2 st3">  </tspan><tspan x="30" y="28" class="st1 st2">土</tspan><tspan x="0" y="56" class="st1 st2">證悟佛法</tspan><tspan x="0" y="84" class="st1 st2">體悟佛心</tspan></text>
<g>
	<line class="st4" x1="55.8" y1="19" x2="58.7" y2="19"/>
	<line class="st4" x1="58.5" y1="5.4" x2="61.4" y2="5.4"/>
	<line class="st4" x1="58.6" y1="32.9" x2="61.4" y2="32.9"/>
	<line class="st4" x1="58.7" y1="5.1" x2="58.7" y2="33.1"/>
</g>
<g>
	<line class="st4" x1="55.7" y1="75.7" x2="58.6" y2="75.7"/>
	<line class="st4" x1="58.4" y1="62.1" x2="61.3" y2="62.1"/>
	<line class="st4" x1="58.5" y1="89.6" x2="61.3" y2="89.6"/>
	<line class="st4" x1="58.6" y1="61.8" x2="58.6" y2="89.8"/>
</g>
<g>
	<line class="st4" x1="107.9" y1="32.8" x2="110.8" y2="32.8"/>
	<line class="st4" x1="110.6" y1="19.2" x2="113.5" y2="19.2"/>
	<line class="st4" x1="110.7" y1="46.7" x2="113.5" y2="46.7"/>
	<line class="st4" x1="110.8" y1="18.9" x2="110.8" y2="46.9"/>
</g>
<text transform="matrix(1 0 0 1 116.625 22.5938)"><tspan x="0" y="0" class="st1 st2">臨終</tspan><tspan x="0" y="28" class="st1 st2">平生</tspan></text>
<text transform="matrix(1 0 0 1 147.75 36.5938)"><tspan x="0" y="0" class="st1 st2">依念佛三昧</tspan><tspan x="0" y="28" class="st1 st2">依佛力加被</tspan></text>
<g>
	<line class="st4" x1="139.2" y1="46.6" x2="142.1" y2="46.6"/>
	<line class="st4" x1="141.9" y1="33" x2="144.8" y2="33"/>
	<line class="st4" x1="142" y1="60.5" x2="144.8" y2="60.5"/>
	<line class="st4" x1="142.1" y1="32.7" x2="142.1" y2="60.7"/>
</g>
<g>
	<line class="st4" x1="200.7" y1="33" x2="203.6" y2="33"/>
	<line class="st4" x1="203.4" y1="19.4" x2="206.3" y2="19.4"/>
	<line class="st4" x1="203.5" y1="46.9" x2="206.3" y2="46.9"/>
	<line class="st4" x1="203.6" y1="19.1" x2="203.6" y2="47.1"/>
</g>
<text transform="matrix(1 0 0 1 209.2508 22.5938)"><tspan x="0" y="0" class="st1 st2">依觀念</tspan><tspan x="0" y="14" class="st1 st2">依憶念</tspan><tspan x="0" y="28" class="st1 st2">依稱念</tspan></text>
<text transform="matrix(1 0 0 1 32.125 22.5938)"><tspan x="0" y="0" class="st1 st2">眼見</tspan><tspan x="0" y="56" class="st1 st2">心見</tspan></text>
<g>
	<line class="st4" x1="23.4" y1="46.8" x2="26.3" y2="46.8"/>
	<line class="st4" x1="26.1" y1="19.2" x2="29" y2="19.2"/>
	<line class="st4" x1="26.1" y1="75.7" x2="28.9" y2="75.7"/>
	<line class="st4" x1="26.3" y1="19.2" x2="26.3" y2="75.8"/>
</g>
<text transform="matrix(1 0 0 1 0 50.5938)" class="st1 st2">見佛</text>
</svg>
