<?xml version="1.0" encoding="utf-8"?>
<!-- Generator: Adobe Illustrator 21.0.0, SVG Export Plug-In . SVG Version: 6.00 Build 0)  -->
<svg version="1.1" baseProfile="tiny" id="图层_1"
	 xmlns="http://www.w3.org/2000/svg" xmlns:xlink="http://www.w3.org/1999/xlink" x="0px" y="0px" viewBox="0 0 358.7 38.6"
	 overflow="scroll" xml:space="preserve">
<text transform="matrix(1 0 0 1 103.6665 8.5938)" font-family="'KaiTi'" font-size="10px">一</text>
<text transform="matrix(1 0 0 1 113.6665 8.5938)" font-family="'DFKaiShu-SB-Estd-BF'" font-size="10px">、</text>
<text transform="matrix(1 0 0 1 123.6665 8.5938)" font-family="'KaiTi'" font-size="10px">标</text>
<text transform="matrix(1 0 0 1 133.6665 8.5938)" font-family="'KaiTi'" font-size="10px">对</text>
<text transform="matrix(1 0 0 1 143.6665 8.5938)" font-family="'KaiTi'" font-size="10px">象</text>
<text transform="matrix(1 0 0 1 153.6665 8.5938)" font-family="'KaiTi'" font-size="10px"> </text>
<text transform="matrix(1 0 0 1 163.6665 8.5938)" font-family="'KaiTi'" font-size="10px"> </text>
<text transform="matrix(1 0 0 1 168.6665 8.5938)" font-family="'KaiTi'" font-size="10px">他</text>
<text transform="matrix(1 0 0 1 178.6665 8.5938)" font-family="'KaiTi'" font-size="10px">方</text>
<text transform="matrix(1 0 0 1 188.6665 8.5938)" font-family="'KaiTi'" font-size="10px">佛</text>
<text transform="matrix(1 0 0 1 198.6665 8.5938)" font-family="'KaiTi'" font-size="10px">土</text>
<text transform="matrix(1 0 0 1 208.6665 8.5938)" font-family="'KaiTi'" font-size="10px"> </text>
<text transform="matrix(1 0 0 1 218.6665 8.5938)" font-family="'KaiTi'" font-size="10px"> </text>
<text transform="matrix(1 0 0 1 223.6665 8.5938)" font-family="'KaiTi'" font-size="10px">一</text>
<text transform="matrix(1 0 0 1 233.6665 8.5938)" font-family="'KaiTi'" font-size="10px">、</text>
<text transform="matrix(1 0 0 1 243.6665 8.5938)" font-family="'KaiTi'" font-size="10px">明</text>
<text transform="matrix(1 0 0 1 253.6665 8.5938)" font-family="'KaiTi'" font-size="10px">必</text>
<text transform="matrix(1 0 0 1 263.6665 8.5938)" font-family="'KaiTi'" font-size="10px">至</text>
<text transform="matrix(1 0 0 1 273.6665 8.5938)" font-family="'KaiTi'" font-size="10px">补</text>
<text transform="matrix(1 0 0 1 283.6665 8.5938)" font-family="'KaiTi'" font-size="10px">处</text>
<text transform="matrix(1 0 0 1 293.6665 8.5938)" font-family="'KaiTi'" font-size="10px"> </text>
<text transform="matrix(1 0 0 1 303.6665 8.5938)" font-family="'KaiTi'" font-size="10px"> </text>
<text transform="matrix(1 0 0 1 308.6665 8.5938)" font-family="'KaiTi'" font-size="10px">究</text>
<text transform="matrix(1 0 0 1 318.6665 8.5938)" font-family="'KaiTi'" font-size="10px">竟</text>
<text transform="matrix(1 0 0 1 328.6665 8.5938)" font-family="'KaiTi'" font-size="10px">必</text>
<text transform="matrix(1 0 0 1 338.6665 8.5938)" font-family="'KaiTi'" font-size="10px">至</text>
<text transform="matrix(1 0 0 1 348.6665 8.5938)" font-family="'KaiTi'" font-size="10px">下</text>
<text transform="matrix(1 0 0 1 103.6665 22.5938)" font-family="'KaiTi'" font-size="10px">二</text>
<text transform="matrix(1 0 0 1 113.6665 22.5938)" font-family="'DFKaiShu-SB-Estd-BF'" font-size="10px">、</text>
<text transform="matrix(1 0 0 1 123.6665 22.5938)" font-family="'KaiTi'" font-size="10px">明</text>
<text transform="matrix(1 0 0 1 133.6665 22.5938)" font-family="'KaiTi'" font-size="10px">所</text>
<text transform="matrix(1 0 0 1 143.6665 22.5938)" font-family="'KaiTi'" font-size="10px">愿</text>
<text transform="matrix(1 0 0 1 153.6665 22.5938)" font-family="'KaiTi'" font-size="10px"> </text>
<text transform="matrix(1 0 0 1 163.6665 22.5938)" font-family="'KaiTi'" font-size="10px"> </text>
<text transform="matrix(1 0 0 1 168.6665 22.5938)" font-family="'KaiTi'" font-size="10px">究</text>
<text transform="matrix(1 0 0 1 178.6665 22.5938)" font-family="'KaiTi'" font-size="10px">竟</text>
<text transform="matrix(1 0 0 1 188.6665 22.5938)" font-family="'KaiTi'" font-size="10px">必</text>
<text transform="matrix(1 0 0 1 198.6665 22.5938)" font-family="'KaiTi'" font-size="10px">至</text>
<text transform="matrix(1 0 0 1 208.6665 22.5938)" font-family="'KaiTi'" font-size="10px"> </text>
<text transform="matrix(1 0 0 1 218.6665 22.5938)" font-family="'KaiTi'" font-size="10px"> </text>
<text transform="matrix(1 0 0 1 223.6665 22.5938)" font-family="'KaiTi'" font-size="10px">二</text>
<text transform="matrix(1 0 0 1 233.6665 22.5938)" font-family="'KaiTi'" font-size="10px">、</text>
<text transform="matrix(1 0 0 1 243.6665 22.5938)" font-family="'KaiTi'" font-size="10px">明</text>
<text transform="matrix(1 0 0 1 253.6665 22.5938)" font-family="'KaiTi'" font-size="10px">自</text>
<text transform="matrix(1 0 0 1 263.6665 22.5938)" font-family="'KaiTi'" font-size="10px">在</text>
<text transform="matrix(1 0 0 1 273.6665 22.5938)" font-family="'KaiTi'" font-size="10px">所</text>
<text transform="matrix(1 0 0 1 283.6665 22.5938)" font-family="'KaiTi'" font-size="10px">化</text>
<text transform="matrix(1 0 0 1 293.6665 22.5938)" font-family="'KaiTi'" font-size="10px"> </text>
<text transform="matrix(1 0 0 1 303.6665 22.5938)" font-family="'KaiTi'" font-size="10px"> </text>
<text transform="matrix(1 0 0 1 308.6665 22.5938)" font-family="'KaiTi'" font-size="10px">除</text>
<text transform="matrix(1 0 0 1 318.6665 22.5938)" font-family="'KaiTi'" font-size="10px">其</text>
<text transform="matrix(1 0 0 1 328.6665 22.5938)" font-family="'KaiTi'" font-size="10px">本</text>
<text transform="matrix(1 0 0 1 338.6665 22.5938)" font-family="'KaiTi'" font-size="10px">愿</text>
<text transform="matrix(1 0 0 1 348.6665 22.5938)" font-family="'KaiTi'" font-size="10px">下</text>
<text transform="matrix(1 0 0 1 103.6665 36.5938)" font-family="'KaiTi'" font-size="10px">三</text>
<text transform="matrix(1 0 0 1 113.6665 36.5938)" font-family="'DFKaiShu-SB-Estd-BF'" font-size="10px">、</text>
<text transform="matrix(1 0 0 1 123.6665 36.5938)" font-family="'KaiTi'" font-size="10px">结</text>
<text transform="matrix(1 0 0 1 133.6665 36.5938)" font-family="'KaiTi'" font-size="10px">誓</text>
<text transform="matrix(1 0 0 1 143.6665 36.5938)" font-family="'KaiTi'" font-size="10px">约</text>
<text transform="matrix(1 0 0 1 153.6665 36.5938)" font-family="'KaiTi'" font-size="10px"> </text>
<text transform="matrix(1 0 0 1 163.6665 36.5938)" font-family="'KaiTi'" font-size="10px"> </text>
<text transform="matrix(1 0 0 1 168.6665 36.5938)" font-family="'KaiTi'" font-size="10px">若</text>
<text transform="matrix(1 0 0 1 178.6665 36.5938)" font-family="'KaiTi'" font-size="10px">不</text>
<text transform="matrix(1 0 0 1 188.6665 36.5938)" font-family="'KaiTi'" font-size="10px">尔</text>
<text transform="matrix(1 0 0 1 198.6665 36.5938)" font-family="'KaiTi'" font-size="10px">者</text>
<text transform="matrix(1 0 0 1 208.6665 36.5938)" font-family="'KaiTi'" font-size="10px"> </text>
<text transform="matrix(1 0 0 1 218.6665 36.5938)" font-family="'KaiTi'" font-size="10px"> </text>
<text transform="matrix(1 0 0 1 223.6665 36.5938)" font-family="'KaiTi'" font-size="10px">三</text>
<text transform="matrix(1 0 0 1 233.6665 36.5938)" font-family="'KaiTi'" font-size="10px">、</text>
<text transform="matrix(1 0 0 1 243.6665 36.5938)" font-family="'KaiTi'" font-size="10px">明</text>
<text transform="matrix(1 0 0 1 253.6665 36.5938)" font-family="'KaiTi'" font-size="10px">还</text>
<text transform="matrix(1 0 0 1 263.6665 36.5938)" font-family="'KaiTi'" font-size="10px">相</text>
<text transform="matrix(1 0 0 1 273.6665 36.5938)" font-family="'KaiTi'" font-size="10px">得</text>
<text transform="matrix(1 0 0 1 283.6665 36.5938)" font-family="'KaiTi'" font-size="10px">益</text>
<text transform="matrix(1 0 0 1 293.6665 36.5938)" font-family="'KaiTi'" font-size="10px"> </text>
<text transform="matrix(1 0 0 1 303.6665 36.5938)" font-family="'KaiTi'" font-size="10px"> </text>
<text transform="matrix(1 0 0 1 308.6665 36.5938)" font-family="'KaiTi'" font-size="10px">超</text>
<text transform="matrix(1 0 0 1 318.6665 36.5938)" font-family="'KaiTi'" font-size="10px">出</text>
<text transform="matrix(1 0 0 1 328.6665 36.5938)" font-family="'KaiTi'" font-size="10px">常</text>
<text transform="matrix(1 0 0 1 338.6665 36.5938)" font-family="'KaiTi'" font-size="10px">伦</text>
<text transform="matrix(1 0 0 1 348.6665 36.5938)" font-family="'KaiTi'" font-size="10px">下</text>
<line fill="none" stroke="#000000" stroke-width="0.5" stroke-miterlimit="10" x1="157" y1="4.6" x2="165" y2="4.6"/>
<line fill="none" stroke="#000000" stroke-width="0.5" stroke-miterlimit="10" x1="157" y1="19.2" x2="165" y2="19.2"/>
<line fill="none" stroke="#000000" stroke-width="0.5" stroke-miterlimit="10" x1="157" y1="33.8" x2="165" y2="33.8"/>
<g>
	<line fill="none" stroke="#000000" stroke-width="0.5" stroke-miterlimit="10" x1="211.8" y1="19.2" x2="215.9" y2="19.2"/>
	<line fill="none" stroke="#000000" stroke-width="0.5" stroke-miterlimit="10" x1="215.7" y1="4.6" x2="219.8" y2="4.6"/>
	<line fill="none" stroke="#000000" stroke-width="0.5" stroke-miterlimit="10" x1="215.8" y1="33.8" x2="219.8" y2="33.8"/>
	<line fill="none" stroke="#000000" stroke-width="0.5" stroke-miterlimit="10" x1="215.9" y1="4.6" x2="215.9" y2="33.8"/>
</g>
<line fill="none" stroke="#000000" stroke-width="0.5" stroke-miterlimit="10" x1="297.3" y1="4.6" x2="305.3" y2="4.6"/>
<line fill="none" stroke="#000000" stroke-width="0.5" stroke-miterlimit="10" x1="297.3" y1="19.2" x2="305.3" y2="19.2"/>
<line fill="none" stroke="#000000" stroke-width="0.5" stroke-miterlimit="10" x1="297.3" y1="33.8" x2="305.3" y2="33.8"/>
<g>
	<line fill="none" stroke="#000000" stroke-width="0.5" stroke-miterlimit="10" x1="92.9" y1="19.2" x2="97" y2="19.2"/>
	<line fill="none" stroke="#000000" stroke-width="0.5" stroke-miterlimit="10" x1="96.8" y1="4.6" x2="100.9" y2="4.6"/>
	<line fill="none" stroke="#000000" stroke-width="0.5" stroke-miterlimit="10" x1="96.9" y1="33.8" x2="100.9" y2="33.8"/>
	<line fill="none" stroke="#000000" stroke-width="0.5" stroke-miterlimit="10" x1="97" y1="4.6" x2="97" y2="33.8"/>
</g>
<text transform="matrix(1 0 0 1 -1.602173e-04 22.5938)" font-family="'KaiTi'" font-size="10px">解此愿文</text>
<text transform="matrix(1 0 0 1 39.9998 22.5938)" font-family="'DFKaiShu-SB-Estd-BF'" font-size="10px">，</text>
<text transform="matrix(1 0 0 1 49.9998 22.5938)" font-family="'KaiTi'" font-size="10px">大分三段</text>
</svg>
