<?xml version="1.0" encoding="utf-8"?>
<!-- Generator: Adobe Illustrator 16.0.0, SVG Export Plug-In . SVG Version: 6.00 Build 0)  -->
<!DOCTYPE svg PUBLIC "-//W3C//DTD SVG 1.1//EN" "http://www.w3.org/Graphics/SVG/1.1/DTD/svg11.dtd">
<svg version="1.1" id="图层_1" xmlns="http://www.w3.org/2000/svg" xmlns:xlink="http://www.w3.org/1999/xlink" x="0px" y="0px"
	 width="172.891px" height="39.386px" viewBox="0 0 172.891 39.386" enable-background="new 0 0 172.891 39.386"
	 xml:space="preserve">
<text transform="matrix(1 0 0 1 29.8994 8.8438)"><tspan x="0" y="0" font-family="'KaiTi'" font-size="10">常温、常压</tspan><tspan x="0" y="14" font-family="'KaiTi'" font-size="10">炭素</tspan><tspan x="0" y="28" font-family="'KaiTi'" font-size="10">二千度、五万五千气压</tspan></text>
<text transform="matrix(1 0 0 1 162.8911 16.2695)"><tspan x="0" y="0" font-family="'KaiTi'" font-size="10">炭</tspan><tspan x="0" y="14" font-family="'KaiTi'" font-size="10">钻</tspan></text>
<g>
	<text transform="matrix(1 0 0 1 8.126 9.1875)" font-family="'KaiTi'" font-size="10">缘</text>
	<circle fill="none" stroke="#231815" stroke-width="0.5" stroke-miterlimit="10" cx="13.126" cy="6" r="5.75"/>
</g>
<g>
	<text transform="matrix(1 0 0 1 8.1255 36.5732)" font-family="'KaiTi'" font-size="10">缘</text>
	<circle fill="none" stroke="#231815" stroke-width="0.5" stroke-miterlimit="10" cx="13.125" cy="33.386" r="5.75"/>
</g>
<g>
	<text transform="matrix(1 0 0 1 8.1309 22.855)" font-family="'KaiTi'" font-size="10">因</text>
	<circle fill="none" stroke="#231815" stroke-width="0.5" stroke-miterlimit="10" cx="13.126" cy="19.693" r="5.75"/>
</g>
<g>
	<text transform="matrix(1 0 0 1 142.1924 16.1748)" font-family="'KaiTi'" font-size="10">果</text>
	<circle fill="none" stroke="#231815" stroke-width="0.5" stroke-miterlimit="10" cx="147.196" cy="13.019" r="5.75"/>
</g>
<g>
	<text transform="matrix(1 0 0 1 142.1924 29.9414)" font-family="'KaiTi'" font-size="10">果</text>
	<circle fill="none" stroke="#231815" stroke-width="0.5" stroke-miterlimit="10" cx="147.196" cy="26.785" r="5.75"/>
</g>
<g>
	<line fill="none" stroke="#000000" stroke-width="0.5" stroke-miterlimit="10" x1="1.667" y1="5.93" x2="4.563" y2="5.93"/>
	<line fill="none" stroke="#000000" stroke-width="0.5" stroke-miterlimit="10" x1="1.667" y1="33.38" x2="4.563" y2="33.38"/>
	<line fill="none" stroke="#000000" stroke-width="0.5" stroke-miterlimit="10" x1="1.667" y1="5.722" x2="1.667" y2="33.664"/>
</g>
<line fill="none" stroke="#000000" stroke-width="0.5" stroke-miterlimit="10" x1="21.93" y1="5.93" x2="27.597" y2="5.93"/>
<line fill="none" stroke="#000000" stroke-width="0.5" stroke-miterlimit="10" x1="21.93" y1="19.693" x2="27.597" y2="19.693"/>
<line fill="none" stroke="#000000" stroke-width="0.5" stroke-miterlimit="10" x1="21.93" y1="33.38" x2="27.597" y2="33.38"/>
<line fill="none" stroke="#000000" stroke-width="0.5" stroke-miterlimit="10" x1="132.182" y1="33.38" x2="138.121" y2="26.767"/>
<line fill="none" stroke="#000000" stroke-width="0.5" stroke-miterlimit="10" x1="155.625" y1="13.011" x2="161.333" y2="13.011"/>
<line fill="none" stroke="#000000" stroke-width="0.5" stroke-miterlimit="10" x1="155.625" y1="26.802" x2="161.333" y2="26.802"/>
<line fill="none" stroke="#000000" stroke-width="0.5" stroke-miterlimit="10" x1="53.1" y1="19.693" x2="138.121" y2="26.767"/>
<line fill="none" stroke="#000000" stroke-width="0.5" stroke-miterlimit="10" x1="53.1" y1="19.693" x2="138.098" y2="13.011"/>
<line fill="none" stroke="#000000" stroke-width="0.5" stroke-miterlimit="10" x1="82.6" y1="5.722" x2="138.098" y2="13.011"/>
</svg>
