<?xml version="1.0" encoding="utf-8"?>
<!-- Generator: Adobe Illustrator 21.0.0, SVG Export Plug-In . SVG Version: 6.00 Build 0)  -->
<svg version="1.1" id="图层_1" xmlns="http://www.w3.org/2000/svg" xmlns:xlink="http://www.w3.org/1999/xlink" x="0px" y="0px"
	 viewBox="0 0 163.1 52.4" style="enable-background:new 0 0 163.1 52.4;" xml:space="preserve">
<style type="text/css">
	.st0{font-family:'KaiTi';}
	.st1{font-size:10px;}
	.st2{letter-spacing:5;}
	.st3{fill:none;stroke:#000000;stroke-width:0.5;stroke-miterlimit:10;}
</style>
<text transform="matrix(1 0 0 1 93.125 8.5938)"><tspan x="0" y="0" class="st0 st1"> 圣道门诸经</tspan><tspan x="0" y="14" class="st0 st1">《无量寿经》</tspan><tspan x="0" y="28" class="st0 st1">《观无量寿经》</tspan><tspan x="0" y="42" class="st0 st1">《阿弥陀经》</tspan></text>
<text transform="matrix(1 0 0 1 53.125 8.5938)"><tspan x="0" y="0" class="st0 st1">序</tspan><tspan x="10" y="0" class="st0 st1 st2"> </tspan><tspan x="20" y="0" class="st0 st1">分</tspan><tspan x="0" y="21" class="st0 st1">正宗分</tspan><tspan x="0" y="42" class="st0 st1">流通分</tspan></text>
<text transform="matrix(1 0 0 1 0 29.5938)" class="st0 st1">一代诸经</text>
<g>
	<line class="st3" x1="90" y1="18.1" x2="90" y2="33"/>
	<line class="st3" x1="90" y1="18.1" x2="93.8" y2="18.1"/>
	<line class="st3" x1="90" y1="33" x2="93.8" y2="33"/>
	<line class="st3" x1="90" y1="25.8" x2="86.3" y2="25.8"/>
</g>
<line class="st3" x1="86.3" y1="5.1" x2="93.8" y2="5.1"/>
<line class="st3" x1="86.3" y1="47" x2="93.8" y2="47"/>
<g>
	<line class="st3" x1="46.3" y1="5.1" x2="46.3" y2="47.5"/>
	<line class="st3" x1="46.3" y1="5.1" x2="50" y2="5.1"/>
	<line class="st3" x1="46.3" y1="47.5" x2="50" y2="47.5"/>
	<line class="st3" x1="50" y1="25.8" x2="42.5" y2="25.8"/>
</g>
</svg>
