<?xml version="1.0" encoding="utf-8"?>
<!-- Generator: Adobe Illustrator 21.0.0, SVG Export Plug-In . SVG Version: 6.00 Build 0)  -->
<svg version="1.1" baseProfile="tiny" id="圖層_1"
	 xmlns="http://www.w3.org/2000/svg" xmlns:xlink="http://www.w3.org/1999/xlink" x="0px" y="0px" viewBox="0 0 161.3 66.4"
	 overflow="scroll" xml:space="preserve">
<text transform="matrix(1 0 0 1 31.25 8.5938)" font-family="'KaiTi'" font-size="10px">專</text>
<text transform="matrix(1 0 0 1 41.25 8.5938)" font-family="'KaiTi'" font-size="10px">一</text>
<text transform="matrix(1 0 0 1 51.25 8.5938)" font-family="'KaiTi'" font-size="10px">之</text>
<text transform="matrix(1 0 0 1 61.25 8.5938)" font-family="'KaiTi'" font-size="10px">心</text>
<text transform="matrix(1 0 0 1 71.25 8.5938)" font-family="'KaiTi'" font-size="10px"> </text>
<text transform="matrix(1 0 0 1 81.25 8.5938)" font-family="'KaiTi'" font-size="10px">專</text>
<text transform="matrix(1 0 0 1 91.25 8.5938)" font-family="'KaiTi'" font-size="10px">念</text>
<text transform="matrix(1 0 0 1 101.25 8.5938)" font-family="'KaiTi'" font-size="10px">彌</text>
<text transform="matrix(1 0 0 1 111.25 8.5938)" font-family="'KaiTi'" font-size="10px">陀</text>
<text transform="matrix(1 0 0 1 121.25 8.5938)" font-family="'KaiTi'" font-size="10px">無</text>
<text transform="matrix(1 0 0 1 131.25 8.5938)" font-family="'KaiTi'" font-size="10px">間</text>
<text transform="matrix(1 0 0 1 141.25 8.5938)" font-family="'KaiTi'" font-size="10px">相</text>
<text transform="matrix(1 0 0 1 151.25 8.5938)" font-family="'KaiTi'" font-size="10px">續</text>
<text transform="matrix(1 0 0 1 31.25 22.5938)" font-family="'KaiTi'" font-size="10px">無</text>
<text transform="matrix(1 0 0 1 41.25 22.5938)" font-family="'KaiTi'" font-size="10px">二</text>
<text transform="matrix(1 0 0 1 51.25 22.5938)" font-family="'KaiTi'" font-size="10px">之</text>
<text transform="matrix(1 0 0 1 61.25 22.5938)" font-family="'KaiTi'" font-size="10px">心</text>
<text transform="matrix(1 0 0 1 71.25 22.5938)" font-family="'KaiTi'" font-size="10px"> </text>
<text transform="matrix(1 0 0 1 81.25 22.5938)" font-family="'KaiTi'" font-size="10px">不</text>
<text transform="matrix(1 0 0 1 91.25 22.5938)" font-family="'KaiTi'" font-size="10px">念</text>
<text transform="matrix(1 0 0 1 101.25 22.5938)" font-family="'KaiTi'" font-size="10px">諸</text>
<text transform="matrix(1 0 0 1 111.25 22.5938)" font-family="'KaiTi'" font-size="10px">佛</text>
<text transform="matrix(1 0 0 1 121.25 22.5938)" font-family="'KaiTi'" font-size="10px">菩</text>
<text transform="matrix(1 0 0 1 131.25 22.5938)" font-family="'KaiTi'" font-size="10px">薩</text>
<text transform="matrix(1 0 0 1 141.25 22.5938)" font-family="'KaiTi'" font-size="10px">咒</text>
<text transform="matrix(1 0 0 1 151.25 22.5938)" font-family="'KaiTi'" font-size="10px">語</text>
<text transform="matrix(1 0 0 1 31.25 36.5938)" font-family="'KaiTi'" font-size="10px">一</text>
<text transform="matrix(1 0 0 1 41.25 36.5938)" font-family="'KaiTi'" font-size="10px">向</text>
<text transform="matrix(1 0 0 1 51.25 36.5938)" font-family="'KaiTi'" font-size="10px">之</text>
<text transform="matrix(1 0 0 1 61.25 36.5938)" font-family="'KaiTi'" font-size="10px">心</text>
<text transform="matrix(1 0 0 1 71.25 36.5938)" font-family="'KaiTi'" font-size="10px"> </text>
<text transform="matrix(1 0 0 1 81.25 36.5938)" font-family="'KaiTi'" font-size="10px">至</text>
<text transform="matrix(1 0 0 1 91.25 36.5938)" font-family="'KaiTi'" font-size="10px">臨</text>
<text transform="matrix(1 0 0 1 101.25 36.5938)" font-family="'KaiTi'" font-size="10px">終</text>
<text transform="matrix(1 0 0 1 111.25 36.5938)" font-family="'KaiTi'" font-size="10px">任</text>
<text transform="matrix(1 0 0 1 121.25 36.5938)" font-family="'KaiTi'" font-size="10px">何</text>
<text transform="matrix(1 0 0 1 131.25 36.5938)" font-family="'KaiTi'" font-size="10px">皆</text>
<text transform="matrix(1 0 0 1 141.25 36.5938)" font-family="'KaiTi'" font-size="10px">不</text>
<text transform="matrix(1 0 0 1 151.25 36.5938)" font-family="'KaiTi'" font-size="10px">變</text>
<text transform="matrix(1 0 0 1 31.25 50.5938)" font-family="'KaiTi'" font-size="10px">無</text>
<text transform="matrix(1 0 0 1 41.25 50.5938)" font-family="'KaiTi'" font-size="10px">疑</text>
<text transform="matrix(1 0 0 1 51.25 50.5938)" font-family="'KaiTi'" font-size="10px">之</text>
<text transform="matrix(1 0 0 1 61.25 50.5938)" font-family="'KaiTi'" font-size="10px">心</text>
<text transform="matrix(1 0 0 1 71.25 50.5938)" font-family="'KaiTi'" font-size="10px"> </text>
<text transform="matrix(1 0 0 1 81.25 50.5938)" font-family="'KaiTi'" font-size="10px">信</text>
<text transform="matrix(1 0 0 1 91.25 50.5938)" font-family="'KaiTi'" font-size="10px">心</text>
<text transform="matrix(1 0 0 1 101.25 50.5938)" font-family="'KaiTi'" font-size="10px">不</text>
<text transform="matrix(1 0 0 1 111.25 50.5938)" font-family="'KaiTi'" font-size="10px">亂</text>
<text transform="matrix(1 0 0 1 121.25 50.5938)" font-family="'KaiTi'" font-size="10px">不</text>
<text transform="matrix(1 0 0 1 131.25 50.5938)" font-family="'KaiTi'" font-size="10px">雜</text>
<text transform="matrix(1 0 0 1 141.25 50.5938)" font-family="'KaiTi'" font-size="10px">不</text>
<text transform="matrix(1 0 0 1 151.25 50.5938)" font-family="'KaiTi'" font-size="10px">二</text>
<text transform="matrix(1 0 0 1 31.25 64.5938)" font-family="'KaiTi'" font-size="10px">順</text>
<text transform="matrix(1 0 0 1 41.25 64.5938)" font-family="'KaiTi'" font-size="10px">佛</text>
<text transform="matrix(1 0 0 1 51.25 64.5938)" font-family="'KaiTi'" font-size="10px">之</text>
<text transform="matrix(1 0 0 1 61.25 64.5938)" font-family="'KaiTi'" font-size="10px">心</text>
<text transform="matrix(1 0 0 1 71.25 64.5938)" font-family="'KaiTi'" font-size="10px"> </text>
<text transform="matrix(1 0 0 1 81.25 64.5938)" font-family="'KaiTi'" font-size="10px">本</text>
<text transform="matrix(1 0 0 1 91.25 64.5938)" font-family="'KaiTi'" font-size="10px">願</text>
<text transform="matrix(1 0 0 1 101.25 64.5938)" font-family="'KaiTi'" font-size="10px">三</text>
<text transform="matrix(1 0 0 1 111.25 64.5938)" font-family="'KaiTi'" font-size="10px">心</text>
<text transform="matrix(1 0 0 1 121.25 64.5938)" font-family="'KaiTi'" font-size="10px">機</text>
<text transform="matrix(1 0 0 1 131.25 64.5938)" font-family="'KaiTi'" font-size="10px">受</text>
<text transform="matrix(1 0 0 1 141.25 64.5938)" font-family="'KaiTi'" font-size="10px">一</text>
<text transform="matrix(1 0 0 1 151.25 64.5938)" font-family="'KaiTi'" font-size="10px">心</text>
<line fill="none" stroke="#000000" stroke-width="0.5" stroke-miterlimit="10" x1="73.7" y1="4.8" x2="79.3" y2="4.8"/>
<line fill="none" stroke="#000000" stroke-width="0.5" stroke-miterlimit="10" x1="73.7" y1="18.8" x2="79.3" y2="18.8"/>
<line fill="none" stroke="#000000" stroke-width="0.5" stroke-miterlimit="10" x1="73.7" y1="32.8" x2="79.3" y2="32.8"/>
<line fill="none" stroke="#000000" stroke-width="0.5" stroke-miterlimit="10" x1="73.7" y1="46.7" x2="79.3" y2="46.7"/>
<line fill="none" stroke="#000000" stroke-width="0.5" stroke-miterlimit="10" x1="73.7" y1="60.7" x2="79.3" y2="60.7"/>
<g>
	<line fill="none" stroke="#000000" stroke-width="0.5" stroke-miterlimit="10" x1="28.2" y1="4.8" x2="25.3" y2="4.8"/>
	<line fill="none" stroke="#000000" stroke-width="0.5" stroke-miterlimit="10" x1="28.3" y1="60.7" x2="25.4" y2="60.7"/>
	<line fill="none" stroke="#000000" stroke-width="0.5" stroke-miterlimit="10" x1="25.6" y1="32.6" x2="22.6" y2="32.6"/>
	<line fill="none" stroke="#000000" stroke-width="0.5" stroke-miterlimit="10" x1="25.3" y1="60.7" x2="25.3" y2="4.8"/>
</g>
<text transform="matrix(1 0 0 1 0 36.5938)" font-family="'KaiTi'" font-size="10px">一心</text>
</svg>
