<?xml version="1.0" encoding="utf-8"?>
<!-- Generator: Adobe Illustrator 21.0.0, SVG Export Plug-In . SVG Version: 6.00 Build 0)  -->
<svg version="1.1" id="圖層_1" xmlns="http://www.w3.org/2000/svg" xmlns:xlink="http://www.w3.org/1999/xlink" x="0px" y="0px"
	 viewBox="0 0 173.9 52.4" style="enable-background:new 0 0 173.9 52.4;" xml:space="preserve">
<style type="text/css">
	.st0{font-family:'KaiTi';}
	.st1{font-size:10px;}
	.st2{fill:none;stroke:#000000;stroke-width:0.5;stroke-miterlimit:10;}
	.st3{letter-spacing:5;}
</style>
<text transform="matrix(1 0 0 1 42.625 8.5938)"><tspan x="0" y="0" class="st0 st1">雜行(無量權)</tspan><tspan x="0" y="28" class="st0 st1">正行(五種實)</tspan></text>
<g>
	<line class="st2" x1="35.8" y1="4.6" x2="35.8" y2="33.4"/>
	<line class="st2" x1="35.8" y1="4.6" x2="39.6" y2="4.6"/>
	<line class="st2" x1="35.8" y1="33.4" x2="39.6" y2="33.4"/>
	<line class="st2" x1="35.8" y1="19" x2="32.1" y2="19"/>
</g>
<text transform="matrix(1 0 0 1 113.875 22.5938)"><tspan x="0" y="0" class="st0 st1">助</tspan><tspan x="10" y="0" class="st0 st1 st3"> </tspan><tspan x="20" y="0" class="st0 st1">業(四權)</tspan><tspan x="0" y="28" class="st0 st1">正定業(一實)</tspan></text>
<g>
	<g>
		<line class="st2" x1="52.5" y1="12.7" x2="52.5" y2="21.7"/>
		<g>
			<polygon points="52.5,25.2 50.5,20.2 52.5,21.4 54.6,20.2 			"/>
		</g>
	</g>
</g>
<g>
	<line class="st2" x1="107.4" y1="19" x2="107.4" y2="47.8"/>
	<line class="st2" x1="107.4" y1="19" x2="111.2" y2="19"/>
	<line class="st2" x1="107.4" y1="47.8" x2="111.2" y2="47.8"/>
	<line class="st2" x1="107.4" y1="33.4" x2="103.7" y2="33.4"/>
</g>
<g>
	<g>
		<line class="st2" x1="129.3" y1="27.1" x2="129.3" y2="36.1"/>
		<g>
			<polygon points="129.3,39.6 127.3,34.6 129.3,35.8 131.4,34.6 			"/>
		</g>
	</g>
</g>
<text transform="matrix(1 0 0 1 0 22.5938)" class="st0 st1">一切行</text>
</svg>
