<?xml version="1.0" encoding="utf-8"?>
<!-- Generator: Adobe Illustrator 21.0.0, SVG Export Plug-In . SVG Version: 6.00 Build 0)  -->
<svg version="1.1" id="圖層_1" xmlns="http://www.w3.org/2000/svg" xmlns:xlink="http://www.w3.org/1999/xlink" x="0px" y="0px"
	 viewBox="0 0 288.3 87.4" style="enable-background:new 0 0 288.3 87.4;" xml:space="preserve">
<style type="text/css">
	.st0{enable-background:new    ;}
	.st1{font-family:'KaiTi';}
	.st2{font-size:10px;}
	.st3{letter-spacing:5;}
	.st4{fill:none;stroke:#000000;stroke-width:0.5;stroke-miterlimit:10;}
</style>
<text transform="matrix(1 0 0 1 258.3001 50.594)" class="st0"><tspan x="0" y="0" class="st1 st2">仗自力</tspan><tspan x="0" y="14" class="st1 st2">仗佛力</tspan><tspan x="0" y="35" class="st1 st2">仗佛力</tspan></text>
<text transform="matrix(1 0 0 1 226.0501 43.5941)" class="st0"><tspan x="0" y="0" class="st1 st2">諸行</tspan><tspan x="0" y="14" class="st1 st2">念佛</tspan><tspan x="0" y="42" class="st1 st2">念佛</tspan></text>
<text transform="matrix(1 0 0 1 194.0501 36.594)" class="st0"><tspan x="0" y="0" class="st1 st2">十方</tspan><tspan x="0" y="14" class="st1 st2">西方</tspan><tspan x="0" y="49" class="st1 st2">西方</tspan></text>
<text transform="matrix(1 0 0 1 143.0501 29.5941)" class="st0"><tspan x="0" y="0" class="st1 st2">穢土不退</tspan><tspan x="0" y="14" class="st1 st2">淨土不退</tspan><tspan x="0" y="56" class="st1 st2">淨土</tspan></text>
<text transform="matrix(1 0 0 1 111.3001 22.594)" class="st0"><tspan x="0" y="0" class="st1 st2">小乘</tspan><tspan x="0" y="14" class="st1 st2">大乘</tspan><tspan x="0" y="63" class="st1 st2">大乘</tspan></text>
<text transform="matrix(1 0 0 1 69.5501 15.5939)" class="st0"><tspan x="0" y="0" class="st1 st2">世間善</tspan><tspan x="0" y="14" class="st1 st2">出世善</tspan><tspan x="0" y="70" class="st1 st2">出世善</tspan></text>
<text transform="matrix(1 0 0 1 47.3001 8.5942)" class="st0"><tspan x="0" y="0" class="st1 st2">惡</tspan><tspan x="0" y="14" class="st1 st2">善</tspan><tspan x="0" y="77" class="st1 st2">善</tspan></text>
<text transform="matrix(1 0 0 1 5.5501 15.5944)" class="st0"><tspan x="0" y="0" class="st1 st2">一切法</tspan><tspan x="0" y="70" class="st1 st2">安</tspan><tspan x="10" y="70" class="st1 st2 st3"> </tspan><tspan x="20" y="70" class="st1 st2">心</tspan></text>
<g>
	<line class="st4" x1="38.8" y1="12.2" x2="41.6" y2="12.2"/>
	<line class="st4" x1="41.6" y1="5.3" x2="44.5" y2="5.3"/>
	<line class="st4" x1="41.6" y1="19.5" x2="44.5" y2="19.5"/>
	<line class="st4" x1="41.6" y1="5.1" x2="41.6" y2="19.7"/>
</g>
<g>
	<line class="st4" x1="60.3" y1="19.5" x2="63.1" y2="19.5"/>
	<line class="st4" x1="63.1" y1="12.6" x2="66" y2="12.6"/>
	<line class="st4" x1="63.1" y1="26.8" x2="66" y2="26.8"/>
	<line class="st4" x1="63.1" y1="12.4" x2="63.1" y2="27"/>
</g>
<g>
	<line class="st4" x1="103" y1="26.6" x2="105.8" y2="26.6"/>
	<line class="st4" x1="105.8" y1="19.7" x2="108.7" y2="19.7"/>
	<line class="st4" x1="105.8" y1="33.9" x2="108.7" y2="33.9"/>
	<line class="st4" x1="105.8" y1="19.5" x2="105.8" y2="34.1"/>
</g>
<g>
	<line class="st4" x1="133.8" y1="33.7" x2="136.6" y2="33.7"/>
	<line class="st4" x1="136.6" y1="26.8" x2="139.5" y2="26.8"/>
	<line class="st4" x1="136.6" y1="41" x2="139.5" y2="41"/>
	<line class="st4" x1="136.6" y1="26.6" x2="136.6" y2="41.2"/>
</g>
<g>
	<line class="st4" x1="185.5" y1="40.8" x2="188.3" y2="40.8"/>
	<line class="st4" x1="188.3" y1="33.9" x2="191.2" y2="33.9"/>
	<line class="st4" x1="188.3" y1="48.1" x2="191.2" y2="48.1"/>
	<line class="st4" x1="188.3" y1="33.7" x2="188.3" y2="48.3"/>
</g>
<g>
	<line class="st4" x1="216.9" y1="48.1" x2="219.7" y2="48.1"/>
	<line class="st4" x1="219.7" y1="41" x2="222.6" y2="41"/>
	<line class="st4" x1="219.7" y1="55.2" x2="222.6" y2="55.2"/>
	<line class="st4" x1="219.7" y1="40.8" x2="219.7" y2="55.4"/>
</g>
<g>
	<line class="st4" x1="249.3" y1="55.2" x2="252.1" y2="55.2"/>
	<line class="st4" x1="252.1" y1="48.1" x2="255" y2="48.1"/>
	<line class="st4" x1="252.1" y1="62.3" x2="255" y2="62.3"/>
	<line class="st4" x1="252.1" y1="47.9" x2="252.1" y2="62.5"/>
</g>
<line class="st4" x1="249.3" y1="82" x2="255" y2="82"/>
<line class="st4" x1="216.9" y1="82" x2="222.6" y2="82"/>
<line class="st4" x1="165.9" y1="82" x2="189.7" y2="82"/>
<line class="st4" x1="133.7" y1="82" x2="139.4" y2="82"/>
<line class="st4" x1="102.9" y1="82" x2="108.6" y2="82"/>
<line class="st4" x1="60.3" y1="82" x2="66" y2="82"/>
<line class="st4" x1="38.7" y1="82" x2="44.4" y2="82"/>
<g>
	<line class="st4" x1="0.3" y1="12.2" x2="3.1" y2="12.2"/>
	<line class="st4" x1="0.3" y1="82" x2="3.1" y2="82"/>
	<line class="st4" x1="0.3" y1="12.2" x2="0.3" y2="82"/>
</g>
</svg>
