<?xml version="1.0" encoding="utf-8"?>
<!-- Generator: Adobe Illustrator 21.0.0, SVG Export Plug-In . SVG Version: 6.00 Build 0)  -->
<svg version="1.1" id="图层_1" xmlns="http://www.w3.org/2000/svg" xmlns:xlink="http://www.w3.org/1999/xlink" x="0px" y="0px"
	 viewBox="0 0 337.1 220.4" style="enable-background:new 0 0 337.1 220.4;" xml:space="preserve">
<style type="text/css">
	.st0{font-family:'KaiTi';}
	.st1{font-size:10px;}
	.st2{letter-spacing:5;}
	.st3{fill:none;stroke:#000000;stroke-width:0.5;stroke-miterlimit:10;}
</style>
<text transform="matrix(1 0 0 1 165.2502 36.5938)"><tspan x="0" y="0" class="st0 st1">不怀疑</tspan><tspan x="0" y="14" class="st0 st1">不夹杂</tspan><tspan x="0" y="28" class="st0 st1">不间断</tspan><tspan x="0" y="42" class="st0 st1">淳</tspan><tspan x="0" y="56" class="st0 st1">一</tspan><tspan x="0" y="70" class="st0 st1">相续</tspan><tspan x="0" y="84" class="st0 st1">远离我心</tspan><tspan x="40" y="84" class="st0 st1 st2">     </tspan><tspan x="90" y="84" class="st0 st1">(智慧门)</tspan><tspan x="0" y="98" class="st0 st1">远离无安众生心</tspan><tspan x="70" y="98" class="st0 st1 st2">  </tspan><tspan x="90" y="98" class="st0 st1">(慈悲门)</tspan><tspan x="0" y="112" class="st0 st1">远离恭敬供养自身心(方便门)</tspan><tspan x="0" y="126" class="st0 st1">无染清净心</tspan><tspan x="0" y="140" class="st0 st1">安清净心</tspan><tspan x="0" y="154" class="st0 st1">乐清净心</tspan></text>
<g>
	<line class="st3" x1="158.5" y1="32.7" x2="158.5" y2="61.2"/>
	<line class="st3" x1="158.5" y1="32.7" x2="162.3" y2="32.7"/>
	<line class="st3" x1="158.5" y1="61.2" x2="162.3" y2="61.2"/>
	<line class="st3" x1="158.5" y1="47" x2="154.8" y2="47"/>
</g>
<g>
	<line class="st3" x1="158.5" y1="74.7" x2="158.5" y2="103.2"/>
	<line class="st3" x1="158.5" y1="74.7" x2="162.3" y2="74.7"/>
	<line class="st3" x1="158.5" y1="103.2" x2="162.3" y2="103.2"/>
	<line class="st3" x1="158.5" y1="89" x2="154.8" y2="89"/>
</g>
<g>
	<line class="st3" x1="158.4" y1="116.7" x2="158.4" y2="145.2"/>
	<line class="st3" x1="158.4" y1="116.7" x2="162.2" y2="116.7"/>
	<line class="st3" x1="158.4" y1="145.2" x2="162.2" y2="145.2"/>
	<line class="st3" x1="158.4" y1="131" x2="154.7" y2="131"/>
</g>
<g>
	<line class="st3" x1="158.5" y1="158.7" x2="158.5" y2="187.2"/>
	<line class="st3" x1="158.5" y1="158.7" x2="162.3" y2="158.7"/>
	<line class="st3" x1="158.5" y1="187.2" x2="162.3" y2="187.2"/>
	<line class="st3" x1="158.5" y1="173" x2="154.8" y2="173"/>
</g>
<g>
	<line class="st3" x1="300.4" y1="145.2" x2="300.4" y2="116.7"/>
	<line class="st3" x1="300.4" y1="145.2" x2="296.6" y2="145.2"/>
	<line class="st3" x1="300.4" y1="116.7" x2="296.6" y2="116.7"/>
	<line class="st3" x1="300.4" y1="130.9" x2="304.1" y2="130.9"/>
</g>
<g>
	<line class="st3" x1="222" y1="187.3" x2="222" y2="158.8"/>
	<line class="st3" x1="222" y1="187.3" x2="218.2" y2="187.3"/>
	<line class="st3" x1="222" y1="158.8" x2="218.2" y2="158.8"/>
	<line class="st3" x1="222" y1="173" x2="225.7" y2="173"/>
</g>
<text transform="matrix(1 0 0 1 307.0505 134.75)" class="st0 st1">无障心</text>
<text transform="matrix(1 0 0 1 228.3007 176.75)" class="st0 st1">妙乐胜真心</text>
<text transform="matrix(1 0 0 1 132 50.5942)"><tspan x="0" y="0" class="st0 st1">遮诠</tspan><tspan x="0" y="42" class="st0 st1">表诠</tspan><tspan x="0" y="84" class="st0 st1">遮诠</tspan><tspan x="0" y="126" class="st0 st1">表诠</tspan></text>
<text transform="matrix(1 0 0 1 89.5 8.5942)"><tspan x="0" y="0" class="st0 st1">名号</tspan><tspan x="0" y="14" class="st0 st1">愿生</tspan><tspan x="0" y="63" class="st0 st1">信</tspan><tspan x="10" y="63" class="st0 st1 st2"> </tspan><tspan x="20" y="63" class="st0 st1">心</tspan><tspan x="0" y="147" class="st0 st1">大悲心</tspan><tspan x="0" y="196" class="st0 st1">生起五念门</tspan><tspan x="0" y="210" class="st0 st1">速证菩提果</tspan></text>
<g>
	<line class="st3" x1="125.3" y1="46.9" x2="125.3" y2="89"/>
	<line class="st3" x1="125.3" y1="47" x2="129.1" y2="47"/>
	<line class="st3" x1="125.3" y1="88.9" x2="129.1" y2="88.9"/>
	<line class="st3" x1="125.3" y1="68.2" x2="121.6" y2="68.2"/>
</g>
<g>
	<line class="st3" x1="125.2" y1="131" x2="125.2" y2="173"/>
	<line class="st3" x1="125.2" y1="131" x2="129" y2="131"/>
	<line class="st3" x1="125.2" y1="173" x2="129" y2="173"/>
	<line class="st3" x1="125.2" y1="152.3" x2="121.5" y2="152.3"/>
</g>
<line class="st3" x1="80" y1="4.5" x2="87.5" y2="4.5"/>
<line class="st3" x1="80" y1="18.5" x2="87.5" y2="18.5"/>
<line class="st3" x1="80" y1="68.2" x2="87.5" y2="68.2"/>
<line class="st3" x1="80" y1="152.3" x2="87.5" y2="152.3"/>
<line class="st3" x1="80" y1="201.2" x2="87.5" y2="201.2"/>
<line class="st3" x1="80" y1="215.2" x2="87.5" y2="215.2"/>
<text transform="matrix(1 0 0 1 56.5 8.5942)"><tspan x="0" y="0" class="st0 st1">性体</tspan><tspan x="0" y="14" class="st0 st1">宗体</tspan><tspan x="0" y="63" class="st0 st1">自利</tspan><tspan x="0" y="147" class="st0 st1">利他</tspan><tspan x="0" y="196" class="st0 st1">因力</tspan><tspan x="0" y="210" class="st0 st1">果效</tspan></text>
<g>
	<line class="st3" x1="50" y1="4.5" x2="50" y2="18.7"/>
	<line class="st3" x1="50" y1="4.5" x2="53.8" y2="4.5"/>
	<line class="st3" x1="50" y1="18.7" x2="53.8" y2="18.7"/>
	<line class="st3" x1="50" y1="11.6" x2="46.3" y2="11.6"/>
</g>
<g>
	<line class="st3" x1="50" y1="68" x2="50" y2="152"/>
	<line class="st3" x1="50" y1="68" x2="53.8" y2="68"/>
	<line class="st3" x1="50" y1="152" x2="53.8" y2="152"/>
	<line class="st3" x1="50" y1="110" x2="46.3" y2="110"/>
</g>
<g>
	<line class="st3" x1="49.9" y1="200.9" x2="49.9" y2="215.1"/>
	<line class="st3" x1="49.9" y1="200.9" x2="53.7" y2="200.9"/>
	<line class="st3" x1="49.9" y1="215.1" x2="53.7" y2="215.1"/>
	<line class="st3" x1="49.9" y1="208" x2="46.2" y2="208"/>
</g>
<text transform="matrix(1 0 0 1 33.5 15.5938)"><tspan x="0" y="0" class="st0 st1">体</tspan><tspan x="0" y="98" class="st0 st1">相</tspan><tspan x="0" y="196" class="st0 st1">用</tspan></text>
<g>
	<line class="st3" x1="26.5" y1="11.6" x2="26.5" y2="208"/>
	<line class="st3" x1="26.5" y1="11.6" x2="30.3" y2="11.6"/>
	<line class="st3" x1="26.5" y1="208" x2="30.3" y2="208"/>
	<line class="st3" x1="26.5" y1="109.8" x2="22.8" y2="109.8"/>
</g>
<text transform="matrix(1 0 0 1 0 113.5938)" class="st0 st1">一心</text>
</svg>
