<?xml version="1.0" encoding="utf-8"?>
<!-- Generator: Adobe Illustrator 21.0.0, SVG Export Plug-In . SVG Version: 6.00 Build 0)  -->
<svg version="1.1" id="圖層_1" xmlns="http://www.w3.org/2000/svg" xmlns:xlink="http://www.w3.org/1999/xlink" x="0px" y="0px"
	 viewBox="0 0 295.5 38.4" style="enable-background:new 0 0 295.5 38.4;" xml:space="preserve">
<style type="text/css">
	.st0{font-family:'KaiTi';}
	.st1{font-size:10px;}
	.st2{letter-spacing:5;}
	.st3{fill:none;stroke:#000000;stroke-width:0.5;stroke-miterlimit:10;}
</style>
<text transform="matrix(1 0 0 1 32.5 8.5938)"><tspan x="0" y="0" class="st0 st1">國土十七</tspan><tspan x="0" y="14" class="st0 st1">佛</tspan><tspan x="10" y="14" class="st0 st1 st2">  </tspan><tspan x="30" y="14" class="st0 st1">八</tspan><tspan x="0" y="28" class="st0 st1">菩 薩 四</tspan></text>
<g>
	<line class="st3" x1="26.1" y1="18.8" x2="26.1" y2="33"/>
	<line class="st3" x1="26.1" y1="18.8" x2="29.9" y2="18.8"/>
	<line class="st3" x1="26.1" y1="33" x2="29.9" y2="33"/>
	<line class="st3" x1="26.1" y1="25.9" x2="22.4" y2="25.9"/>
</g>
<line class="st3" x1="22.4" y1="5.3" x2="29.9" y2="5.3"/>
<text transform="matrix(1 0 0 1 0 8.5938)"><tspan x="0" y="0" class="st0 st1">依報</tspan><tspan x="0" y="21" class="st0 st1">正報</tspan></text>
<g>
	<line class="st3" x1="78.6" y1="33" x2="78.6" y2="5.2"/>
	<line class="st3" x1="78.6" y1="33" x2="74.8" y2="33"/>
	<line class="st3" x1="78.6" y1="5.3" x2="74.8" y2="5.3"/>
	<line class="st3" x1="78.6" y1="19.1" x2="82.3" y2="19.1"/>
</g>
<text transform="matrix(1 0 0 1 85.325 15.5938)"><tspan x="0" y="0" class="st0 st1">三</tspan><tspan x="10" y="0" class="st0 st1 st2">  </tspan><tspan x="30" y="0" class="st0 st1">嚴</tspan><tspan x="0" y="14" class="st0 st1">二十九種</tspan></text>
<g>
	<line class="st3" x1="131.6" y1="12" x2="131.6" y2="26.2"/>
	<line class="st3" x1="131.6" y1="12" x2="135.4" y2="12"/>
	<line class="st3" x1="131.6" y1="26.2" x2="135.4" y2="26.2"/>
	<line class="st3" x1="131.6" y1="19.1" x2="127.9" y2="19.1"/>
</g>
<text transform="matrix(1 0 0 1 137.8248 15.5938)"><tspan x="0" y="0" class="st0 st1">清</tspan><tspan x="10" y="0" class="st0 st1 st2"> </tspan><tspan x="20" y="0" class="st0 st1">淨</tspan><tspan x="0" y="14" class="st0 st1">不虛作</tspan></text>
<line class="st3" x1="170.5" y1="12" x2="178" y2="12"/>
<line class="st3" x1="170.5" y1="26.2" x2="178" y2="26.2"/>
<text transform="matrix(1 0 0 1 180.0411 15.5938)"><tspan x="0" y="0" class="st0 st1">智德</tspan><tspan x="0" y="14" class="st0 st1">悲德</tspan></text>
<line class="st3" x1="202.2" y1="12" x2="209.7" y2="12"/>
<line class="st3" x1="202.2" y1="26.2" x2="209.7" y2="26.2"/>
<text transform="matrix(1 0 0 1 211.6661 15.5938)"><tspan x="0" y="0" class="st0 st1">自利</tspan><tspan x="0" y="14" class="st0 st1">利他</tspan></text>
<line class="st3" x1="234.2" y1="12" x2="241.7" y2="12"/>
<line class="st3" x1="234.2" y1="26.2" x2="241.7" y2="26.2"/>
<text transform="matrix(1 0 0 1 243.6661 15.5938)"><tspan x="0" y="0" class="st0 st1">體德</tspan><tspan x="0" y="14" class="st0 st1">用德</tspan></text>
<g>
	<line class="st3" x1="269.9" y1="26.2" x2="269.9" y2="12"/>
	<line class="st3" x1="269.9" y1="26.2" x2="266" y2="26.2"/>
	<line class="st3" x1="269.9" y1="12" x2="266.1" y2="12"/>
	<line class="st3" x1="269.9" y1="19.1" x2="273.5" y2="19.1"/>
</g>
<text transform="matrix(1 0 0 1 275.5411 22.5938)" class="st0 st1">名號</text>
</svg>
