<?xml version="1.0" encoding="utf-8"?>
<!-- Generator: Adobe Illustrator 21.0.0, SVG Export Plug-In . SVG Version: 6.00 Build 0)  -->
<svg version="1.1" id="圖層_1" xmlns="http://www.w3.org/2000/svg" xmlns:xlink="http://www.w3.org/1999/xlink" x="0px" y="0px"
	 viewBox="0 0 154.9 87.4" style="enable-background:new 0 0 154.9 87.4;" xml:space="preserve">
<style type="text/css">
	.st0{font-family:'KaiTi';}
	.st1{font-size:10px;}
	.st2{fill:none;stroke:#000000;stroke-width:0.5;stroke-miterlimit:10;}
	.st3{letter-spacing:5;}
</style>
<text transform="matrix(1 0 0 1 114.917 8.5938)"><tspan x="0" y="0" class="st0 st1">佛說三經</tspan><tspan x="0" y="14" class="st0 st1">龍天造論</tspan><tspan x="0" y="28" class="st0 st1">曇鸞奠基</tspan><tspan x="0" y="42" class="st0 st1">道綽續承</tspan><tspan x="0" y="56" class="st0 st1">善導開宗</tspan><tspan x="0" y="70" class="st0 st1">善導地位</tspan></text>
<g>
	<line class="st2" x1="109.4" y1="4.6" x2="109.4" y2="76"/>
	<line class="st2" x1="109.2" y1="4.6" x2="112.1" y2="4.6"/>
	<line class="st2" x1="109.2" y1="76" x2="112.1" y2="76"/>
	<line class="st2" x1="106.4" y1="40.1" x2="109.3" y2="40.1"/>
</g>
<text transform="matrix(1 0 0 1 74.917 29.5938)"><tspan x="0" y="0" class="st0 st1">略</tspan><tspan x="10" y="0" class="st0 st1 st3"> </tspan><tspan x="20" y="0" class="st0 st1">明</tspan><tspan x="0" y="14" class="st0 st1">廣</tspan><tspan x="10" y="14" class="st0 st1 st3"> </tspan><tspan x="20" y="14" class="st0 st1">明</tspan><tspan x="0" y="42" class="st0 st1">諸</tspan><tspan x="10" y="42" class="st0 st1 st3"> </tspan><tspan x="20" y="42" class="st0 st1">宗</tspan><tspan x="0" y="56" class="st0 st1">淨土宗</tspan></text>
<g>
	<line class="st2" x1="70.3" y1="26" x2="70.3" y2="40.3"/>
	<line class="st2" x1="70" y1="26" x2="72.9" y2="26"/>
	<line class="st2" x1="70" y1="40.3" x2="72.9" y2="40.3"/>
	<line class="st2" x1="67.3" y1="33.2" x2="70.2" y2="33.2"/>
</g>
<text transform="matrix(1 0 0 1 4.917 22.5938)"><tspan x="0" y="0" class="st0 st1">印度無淨土宗</tspan><tspan x="0" y="14" class="st0 st1">中國開淨土宗</tspan><tspan x="0" y="56" class="st0 st1">宗 名 來 歷</tspan></text>
<g>
	<line class="st2" x1="70.2" y1="68.8" x2="70.2" y2="83.2"/>
	<line class="st2" x1="69.9" y1="68.8" x2="72.8" y2="68.8"/>
	<line class="st2" x1="69.9" y1="83.2" x2="72.8" y2="83.2"/>
	<line class="st2" x1="62.8" y1="76" x2="70.1" y2="76"/>
</g>
<g>
	<line class="st2" x1="0.3" y1="18.8" x2="0.3" y2="76"/>
	<line class="st2" x1="0" y1="18.8" x2="2.9" y2="18.8"/>
	<line class="st2" x1="0" y1="76" x2="2.9" y2="76"/>
	<line class="st2" x1="0" y1="33.2" x2="2.9" y2="33.2"/>
</g>
</svg>
