<?xml version="1.0" encoding="utf-8"?>
<!-- Generator: Adobe Illustrator 21.0.0, SVG Export Plug-In . SVG Version: 6.00 Build 0)  -->
<svg version="1.1" id="圖層_1" xmlns="http://www.w3.org/2000/svg" xmlns:xlink="http://www.w3.org/1999/xlink" x="0px" y="0px"
	 viewBox="0 0 89 52.4" style="enable-background:new 0 0 89 52.4;" xml:space="preserve">
<style type="text/css">
	.st0{font-family:'KaiTi';}
	.st1{font-size:10px;}
	.st2{fill:none;stroke:#000000;stroke-width:0.5;stroke-miterlimit:10;}
</style>
<text transform="matrix(1 0 0 1 79 8.5938)"><tspan x="0" y="0" class="st0 st1">教</tspan><tspan x="0" y="14" class="st0 st1">宗</tspan><tspan x="0" y="28" class="st0 st1">行</tspan><tspan x="0" y="42" class="st0 st1">益</tspan></text>
<line class="st2" x1="45.4" y1="5.5" x2="76" y2="5.5"/>
<line class="st2" x1="68.5" y1="19.5" x2="76" y2="19.5"/>
<line class="st2" x1="68.5" y1="33.5" x2="76" y2="33.5"/>
<line class="st2" x1="12.5" y1="47.5" x2="76" y2="47.5"/>
<text transform="matrix(1 0 0 1 56 22.5938)"><tspan x="0" y="0" class="st0 st1">綱</tspan><tspan x="0" y="14" class="st0 st1">目</tspan></text>
<text transform="matrix(1 0 0 1 22.1668 8.5938)"><tspan x="0" y="0" class="st0 st1">能詮</tspan><tspan x="0" y="21" class="st0 st1">所詮</tspan></text>
<g>
	<line class="st2" x1="49.1" y1="19.5" x2="49.1" y2="33.7"/>
	<line class="st2" x1="49.1" y1="19.5" x2="52.9" y2="19.5"/>
	<line class="st2" x1="49.1" y1="33.7" x2="52.9" y2="33.7"/>
	<line class="st2" x1="49.1" y1="26.6" x2="45.4" y2="26.6"/>
</g>
<g>
	<line class="st2" x1="16.2" y1="4.9" x2="16.2" y2="26.6"/>
	<line class="st2" x1="16.2" y1="4.9" x2="20" y2="4.9"/>
	<line class="st2" x1="16.2" y1="26.6" x2="20" y2="26.6"/>
	<line class="st2" x1="16.2" y1="15.7" x2="12.5" y2="15.7"/>
</g>
<text transform="matrix(1 0 0 1 1.640320e-04 19.0942)"><tspan x="0" y="0" class="st0 st1">因</tspan><tspan x="0" y="31.5" class="st0 st1">果</tspan></text>
</svg>
