<?xml version="1.0" encoding="utf-8"?>
<!-- Generator: Adobe Illustrator 21.0.0, SVG Export Plug-In . SVG Version: 6.00 Build 0)  -->
<svg version="1.1" id="图层_1" xmlns="http://www.w3.org/2000/svg" xmlns:xlink="http://www.w3.org/1999/xlink" x="0px" y="0px"
	 viewBox="0 0 102 52.4" style="enable-background:new 0 0 102 52.4;" xml:space="preserve">
<style type="text/css">
	.st0{font-family:'KaiTi';}
	.st1{font-size:10px;}
	.st2{fill:none;stroke:#000000;stroke-width:0.5;stroke-miterlimit:10;}
</style>
<text transform="matrix(1 0 0 1 62 8.5938)"><tspan x="0" y="0" class="st0 st1">本愿称名</tspan><tspan x="0" y="14" class="st0 st1">凡夫入报</tspan><tspan x="0" y="28" class="st0 st1">平生业成</tspan><tspan x="0" y="42" class="st0 st1">现生不退</tspan></text>
<text transform="matrix(1 0 0 1 31 22.5938)"><tspan x="0" y="0" class="st0 st1">命终</tspan><tspan x="0" y="21" class="st0 st1">平生</tspan></text>
<text transform="matrix(1 0 0 1 0 8.5938)"><tspan x="0" y="0" class="st0 st1">因行</tspan><tspan x="0" y="24.5" class="st0 st1">果益</tspan></text>
<g>
	<line class="st2" x1="56.7" y1="33" x2="56.7" y2="47.9"/>
	<line class="st2" x1="56.7" y1="33" x2="59.3" y2="33"/>
	<line class="st2" x1="56.7" y1="47.9" x2="59.3" y2="47.9"/>
	<line class="st2" x1="56.7" y1="40.3" x2="53.9" y2="40.3"/>
</g>
<line class="st2" x1="53.9" y1="19" x2="59.4" y2="19"/>
<line class="st2" x1="22.6" y1="5" x2="59.4" y2="5"/>
<g>
	<line class="st2" x1="25.3" y1="19" x2="25.3" y2="40.3"/>
	<line class="st2" x1="25.3" y1="19" x2="28" y2="19"/>
	<line class="st2" x1="25.3" y1="40.3" x2="28" y2="40.3"/>
	<line class="st2" x1="25.3" y1="29.7" x2="22.6" y2="29.7"/>
</g>
</svg>
