<?xml version="1.0" encoding="utf-8"?>
<!-- Generator: Adobe Illustrator 21.0.0, SVG Export Plug-In . SVG Version: 6.00 Build 0)  -->
<svg version="1.1" id="圖層_1" xmlns="http://www.w3.org/2000/svg" xmlns:xlink="http://www.w3.org/1999/xlink" x="0px" y="0px"
	 viewBox="0 0 241.2 24.4" style="enable-background:new 0 0 241.2 24.4;" xml:space="preserve">
<style type="text/css">
	.st0{font-family:'KaiTi';}
	.st1{font-size:10px;}
	.st2{fill:none;stroke:#000000;stroke-width:0.5;stroke-miterlimit:10;}
	.st3{enable-background:new    ;}
	.st4{font-family:'DFKaiShu-SB-Estd-BF';}
</style>
<text transform="matrix(1 0 0 1 30.6204 8.5938)" class="st0 st1">依義理——淨土寓於諸宗</text>
<text transform="matrix(1 0 0 1 30.6204 22.5938)" class="st0 st1">依歸向——諸宗寓於淨土</text>
<text transform="matrix(1 0 0 1 -2.136230e-04 15.9448)" class="st0 st1">寓宗</text>
<g>
	<line class="st2" x1="21.9" y1="12.5" x2="24.8" y2="12.5"/>
	<line class="st2" x1="24.7" y1="5.6" x2="27.6" y2="5.6"/>
	<line class="st2" x1="24.7" y1="19.8" x2="27.6" y2="19.8"/>
	<line class="st2" x1="24.8" y1="5.4" x2="24.8" y2="20"/>
</g>
<g>
	<line class="st2" x1="148.9" y1="12.2" x2="146" y2="12.2"/>
	<line class="st2" x1="146.1" y1="19.1" x2="143.2" y2="19.1"/>
	<line class="st2" x1="146.1" y1="4.9" x2="143.2" y2="4.9"/>
	<line class="st2" x1="146" y1="19.3" x2="146" y2="4.7"/>
</g>
<text transform="matrix(1 0 0 1 151.2365 15.6122)" class="st3"><tspan x="0" y="0" class="st0 st1">淨宗獨立</tspan><tspan x="40" y="0" class="st4 st1">，</tspan><tspan x="50" y="0" class="st0 st1">諸宗共歸</tspan></text>
</svg>
