<?xml version="1.0" encoding="utf-8"?>
<!-- Generator: Adobe Illustrator 21.0.0, SVG Export Plug-In . SVG Version: 6.00 Build 0)  -->
<svg version="1.1" id="圖層_1" xmlns="http://www.w3.org/2000/svg" xmlns:xlink="http://www.w3.org/1999/xlink" x="0px" y="0px"
	 viewBox="0 0 267.1 86.3" style="enable-background:new 0 0 267.1 86.3;" xml:space="preserve">
<style type="text/css">
	.st0{enable-background:new    ;}
	.st1{font-family:'KaiTi';}
	.st2{font-size:10px;}
	.st3{fill:none;stroke:#000000;stroke-width:0.5;stroke-miterlimit:10;}
</style>
<text transform="matrix(1 0 0 1 32.5 8.5938)" class="st0"><tspan x="0" y="0" class="st1 st2">要弘分判</tspan><tspan x="0" y="14" class="st1 st2">要弘廢立</tspan></text>
<g>
	<line class="st3" x1="26.4" y1="4.5" x2="26.4" y2="19"/>
	<line class="st3" x1="26.4" y1="4.5" x2="30.2" y2="4.5"/>
	<line class="st3" x1="26.4" y1="19" x2="30.2" y2="19"/>
	<line class="st3" x1="26.4" y1="11.8" x2="22.7" y2="11.8"/>
</g>
<text transform="matrix(1 0 0 1 6.103516e-05 15.5938)" class="st1 st2">引文</text>
<g>
	<line class="st3" x1="26.4" y1="38.5" x2="26.4" y2="67.2"/>
	<line class="st3" x1="26.4" y1="38.5" x2="30.2" y2="38.5"/>
	<line class="st3" x1="26.4" y1="67.2" x2="30.2" y2="67.2"/>
	<line class="st3" x1="26.4" y1="52.8" x2="22.7" y2="52.8"/>
</g>
<text transform="matrix(1 0 0 1 33.218 42.1992)" class="st0"><tspan x="0" y="0" class="st1 st2">要弘分判</tspan><tspan x="0" y="14" class="st1 st2">要弘廢立</tspan><tspan x="0" y="28" class="st1 st2">要門作用</tspan></text>
<text transform="matrix(1 0 0 1 0.3846 56.1993)" class="st1 st2">釋義</text>
<g>
	<line class="st3" x1="79.2" y1="38.5" x2="79.2" y2="67.2"/>
	<line class="st3" x1="79.2" y1="38.5" x2="83" y2="38.5"/>
	<line class="st3" x1="79.2" y1="67.2" x2="83" y2="67.2"/>
	<line class="st3" x1="79.2" y1="52.8" x2="75.5" y2="52.8"/>
</g>
<text transform="matrix(1 0 0 1 85.9664 42.1993)" class="st0"><tspan x="0" y="0" class="st1 st2">略明</tspan><tspan x="0" y="28" class="st1 st2">詳明</tspan></text>
<g>
	<line class="st3" x1="112" y1="31.2" x2="112" y2="45.8"/>
	<line class="st3" x1="112" y1="31.2" x2="115.8" y2="31.2"/>
	<line class="st3" x1="112" y1="45.8" x2="115.8" y2="45.8"/>
	<line class="st3" x1="112" y1="38.5" x2="108.3" y2="38.5"/>
</g>
<text transform="matrix(1 0 0 1 118.7995 34.4271)" class="st0"><tspan x="0" y="0" class="st1 st2">一轉 聖道入要門</tspan><tspan x="0" y="14" class="st1 st2">再轉 要門入弘願</tspan></text>
<g>
	<line class="st3" x1="112.3" y1="60" x2="112.3" y2="74.5"/>
	<line class="st3" x1="112.3" y1="60" x2="116.1" y2="60"/>
	<line class="st3" x1="112.3" y1="74.5" x2="116.1" y2="74.5"/>
	<line class="st3" x1="112.3" y1="67.2" x2="108.6" y2="67.2"/>
</g>
<text transform="matrix(1 0 0 1 119.1496 63.1771)" class="st0"><tspan x="0" y="0" class="st1 st2">總標二重</tspan><tspan x="0" y="14" class="st1 st2">別釋二重</tspan></text>
<g>
	<line class="st3" x1="165.3" y1="67.2" x2="165.3" y2="81.8"/>
	<line class="st3" x1="165.3" y1="67.2" x2="169.1" y2="67.2"/>
	<line class="st3" x1="165.3" y1="81.8" x2="169.1" y2="81.8"/>
	<line class="st3" x1="165.3" y1="74.5" x2="161.6" y2="74.5"/>
</g>
<text transform="matrix(1 0 0 1 172.1331 70.4271)" class="st0"><tspan x="0" y="0" class="st1 st2">一 聖道行人轉入淨土</tspan><tspan x="0" y="14" class="st1 st2">二 要門行人歸入弘願</tspan></text>
</svg>
