<?xml version="1.0" encoding="utf-8"?>
<!-- Generator: Adobe Illustrator 21.0.0, SVG Export Plug-In . SVG Version: 6.00 Build 0)  -->
<svg version="1.1" id="圖層_1" xmlns="http://www.w3.org/2000/svg" xmlns:xlink="http://www.w3.org/1999/xlink" x="0px" y="0px"
	 viewBox="0 0 239.6 337.4" style="enable-background:new 0 0 239.6 337.4;" xml:space="preserve">
<style type="text/css">
	.st0{font-family:'KaiTi';}
	.st1{font-size:10px;}
	.st2{fill:none;stroke:#000000;stroke-width:0.5;stroke-miterlimit:10;}
	.st3{letter-spacing:5;}
</style>
<text transform="matrix(1 0 0 1 6.043 22.8203)"><tspan x="0" y="0" class="st0 st1">引文</tspan><tspan x="0" y="31.5" class="st0 st1">釋義</tspan></text>
<g>
	<line class="st2" x1="0.4" y1="18.7" x2="0.4" y2="50.3"/>
	<line class="st2" x1="0.1" y1="18.7" x2="3" y2="18.7"/>
	<line class="st2" x1="0" y1="50.3" x2="2.9" y2="50.3"/>
</g>
<g>
	<line class="st2" x1="30.3" y1="18.7" x2="30.3" y2="81.8"/>
	<line class="st2" x1="30.1" y1="18.7" x2="33" y2="18.7"/>
	<line class="st2" x1="30.1" y1="81.8" x2="33" y2="81.8"/>
	<line class="st2" x1="27.4" y1="50.3" x2="30.3" y2="50.3"/>
</g>
<text transform="matrix(1 0 0 1 34.5537 22.8203)"><tspan x="0" y="0" class="st0 st1">釋二藏二教</tspan><tspan x="0" y="63" class="st0 st1">明取判意圖</tspan></text>
<text transform="matrix(1 0 0 1 95.407 8.5938)"><tspan x="0" y="0" class="st0 st1">明二藏</tspan><tspan x="0" y="14" class="st0 st1">明二教</tspan><tspan x="0" y="28" class="st0 st1">明諸宗通用</tspan><tspan x="0" y="63" class="st0 st1">總明</tspan><tspan x="0" y="91" class="st0 st1">別明</tspan></text>
<g>
	<line class="st2" x1="89.7" y1="4.5" x2="89.7" y2="32.9"/>
	<line class="st2" x1="89.5" y1="4.5" x2="92.4" y2="4.5"/>
	<line class="st2" x1="89.5" y1="32.9" x2="92.4" y2="32.9"/>
	<line class="st2" x1="86.8" y1="18.8" x2="89.7" y2="18.8"/>
</g>
<g>
	<line class="st2" x1="89.9" y1="67.6" x2="89.9" y2="96.1"/>
	<line class="st2" x1="89.7" y1="67.6" x2="92.6" y2="67.6"/>
	<line class="st2" x1="89.7" y1="96.1" x2="92.6" y2="96.1"/>
	<line class="st2" x1="86.9" y1="81.9" x2="89.8" y2="81.9"/>
</g>
<g>
	<line class="st2" x1="120.4" y1="53.4" x2="120.4" y2="81.8"/>
	<line class="st2" x1="120.2" y1="53.4" x2="123.1" y2="53.4"/>
	<line class="st2" x1="120.2" y1="81.8" x2="123.1" y2="81.8"/>
	<line class="st2" x1="117.4" y1="67.7" x2="120.3" y2="67.7"/>
</g>
<text transform="matrix(1 0 0 1 125.782 57.5938)"><tspan x="0" y="0" class="st0 st1">判淨土大乘菩薩藏</tspan><tspan x="0" y="14" class="st0 st1">判淨土頓教</tspan><tspan x="0" y="28" class="st0 st1">明言通意別</tspan></text>
<text transform="matrix(1 0 0 1 5.917 175.8203)"><tspan x="0" y="0" class="st0 st1">約菩薩藏</tspan><tspan x="0" y="103.3" class="st0 st1">約 頓 教</tspan></text>
<g>
	<line class="st2" x1="0.3" y1="109.5" x2="0.3" y2="275.8"/>
	<line class="st2" x1="0" y1="109.5" x2="110.5" y2="109.5"/>
	<line class="st2" x1="0" y1="171.9" x2="2.9" y2="171.9"/>
	<line class="st2" x1="0" y1="275.8" x2="2.9" y2="275.8"/>
	<line class="st2" x1="110.5" y1="103.6" x2="110.5" y2="109.5"/>
</g>
<text transform="matrix(1 0 0 1 178.0849 100.5703)"><tspan x="0" y="0" class="st0 st1">通擇機</tspan><tspan x="0" y="14" class="st0 st1">通自力</tspan><tspan x="0" y="28" class="st0 st1">通難行</tspan><tspan x="0" y="42" class="st0 st1">通因地</tspan><tspan x="0" y="56" class="st0 st1">通相對</tspan><tspan x="0" y="98" class="st0 st1">直</tspan><tspan x="10" y="98" class="st0 st1 st3"> </tspan><tspan x="20" y="98" class="st0 st1">述</tspan><tspan x="0" y="147" class="st0 st1">引</tspan><tspan x="10" y="147" class="st0 st1 st3"> </tspan><tspan x="20" y="147" class="st0 st1">釋</tspan></text>
<text transform="matrix(1 0 0 1 56.3349 128.5703)"><tspan x="0" y="0" class="st0 st1">明諸宗通意</tspan><tspan x="0" y="94.5" class="st0 st1">明淨土別意</tspan><tspan x="0" y="129.5" class="st0 st1">釋頓漸義</tspan><tspan x="0" y="171.5" class="st0 st1">判淨土頓</tspan></text>
<g>
	<line class="st2" x1="172.9" y1="96.5" x2="172.9" y2="152.7"/>
	<line class="st2" x1="172.7" y1="96.5" x2="175.6" y2="96.5"/>
	<line class="st2" x1="172.7" y1="152.7" x2="175.6" y2="152.7"/>
	<line class="st2" x1="169.9" y1="124.6" x2="172.8" y2="124.6"/>
</g>
<line class="st2" x1="109.3" y1="124.6" x2="114.8" y2="124.6"/>
<text transform="matrix(1 0 0 1 117.782 128.5703)"><tspan x="0" y="0" class="st0 st1">依行者根機</tspan><tspan x="0" y="94.5" class="st0 st1">依法門利益</tspan></text>
<g>
	<line class="st2" x1="172.8" y1="194.8" x2="172.8" y2="243.7"/>
	<line class="st2" x1="172.6" y1="194.8" x2="175.5" y2="194.8"/>
	<line class="st2" x1="172.6" y1="243.7" x2="175.5" y2="243.7"/>
	<line class="st2" x1="169.9" y1="219.3" x2="172.8" y2="219.3"/>
</g>
<text transform="matrix(1 0 0 1 219.5849 177.5703)"><tspan x="0" y="0" class="st0 st1">機</tspan><tspan x="0" y="14" class="st0 st1">行</tspan><tspan x="0" y="28" class="st0 st1">益</tspan><tspan x="0" y="42" class="st0 st1">結論</tspan><tspan x="0" y="56" class="st0 st1">天親</tspan><tspan x="0" y="70" class="st0 st1">曇鸞</tspan><tspan x="0" y="84" class="st0 st1">善導</tspan></text>
<g>
	<line class="st2" x1="213.7" y1="174.1" x2="213.7" y2="216.7"/>
	<line class="st2" x1="213.4" y1="174.1" x2="216.3" y2="174.1"/>
	<line class="st2" x1="213.4" y1="216.7" x2="216.3" y2="216.7"/>
	<line class="st2" x1="210.7" y1="194.9" x2="213.6" y2="194.9"/>
</g>
<g>
	<line class="st2" x1="213.9" y1="229.5" x2="213.9" y2="258"/>
	<line class="st2" x1="213.7" y1="229.5" x2="216.6" y2="229.5"/>
	<line class="st2" x1="213.7" y1="258" x2="216.6" y2="258"/>
	<line class="st2" x1="210.9" y1="243.8" x2="213.8" y2="243.8"/>
</g>
<line class="st2" x1="109.3" y1="219.3" x2="114.8" y2="219.3"/>
<g>
	<line class="st2" x1="51.7" y1="124.6" x2="51.7" y2="219.3"/>
	<line class="st2" x1="51.4" y1="124.6" x2="54.3" y2="124.6"/>
	<line class="st2" x1="51.7" y1="219.3" x2="54.6" y2="219.3"/>
	<line class="st2" x1="48.5" y1="171.9" x2="51.4" y2="171.9"/>
</g>
<g>
	<line class="st2" x1="51.6" y1="254.6" x2="51.6" y2="297"/>
	<line class="st2" x1="51.4" y1="254.6" x2="54.3" y2="254.6"/>
	<line class="st2" x1="51.7" y1="297" x2="54.6" y2="297"/>
	<line class="st2" x1="48.5" y1="275.8" x2="51.4" y2="275.8"/>
</g>
<g>
	<line class="st2" x1="101.5" y1="268.7" x2="101.5" y2="325.4"/>
	<line class="st2" x1="101.3" y1="268.7" x2="104.2" y2="268.7"/>
	<line class="st2" x1="101.3" y1="325.4" x2="104.2" y2="325.4"/>
	<line class="st2" x1="98.6" y1="297" x2="101.5" y2="297"/>
</g>
<text transform="matrix(1 0 0 1 107.2059 272.5599)"><tspan x="0" y="0" class="st0 st1">直判</tspan><tspan x="0" y="28" class="st0 st1">對判</tspan><tspan x="0" y="56" class="st0 st1">引釋</tspan></text>
<text transform="matrix(1 0 0 1 137.4559 293.5602)"><tspan x="0" y="0" class="st0 st1">諸宗</tspan><tspan x="0" y="14" class="st0 st1">淨土</tspan><tspan x="0" y="28" class="st0 st1">般舟讚一</tspan><tspan x="0" y="42" class="st0 st1">般舟讚二</tspan></text>
<g>
	<line class="st2" x1="132.3" y1="290" x2="132.3" y2="304.3"/>
	<line class="st2" x1="132" y1="290" x2="134.9" y2="290"/>
	<line class="st2" x1="132" y1="304.3" x2="134.9" y2="304.3"/>
	<line class="st2" x1="129.3" y1="297.2" x2="132.2" y2="297.2"/>
</g>
<line class="st2" x1="159.4" y1="290" x2="164.9" y2="290"/>
<line class="st2" x1="159.4" y1="304.3" x2="164.9" y2="304.3"/>
<text transform="matrix(1 0 0 1 168.2682 293.5596)"><tspan x="0" y="0" class="st0 st1">望機成漸</tspan><tspan x="0" y="14" class="st0 st1">頓中之頓</tspan></text>
<g>
	<line class="st2" x1="132.2" y1="318.2" x2="132.2" y2="332.5"/>
	<line class="st2" x1="131.9" y1="318.2" x2="134.8" y2="318.2"/>
	<line class="st2" x1="131.9" y1="332.5" x2="134.8" y2="332.5"/>
	<line class="st2" x1="129.2" y1="325.4" x2="132.1" y2="325.4"/>
</g>
</svg>
