<?xml version="1.0" encoding="utf-8"?>
<!-- Generator: Adobe Illustrator 21.0.0, SVG Export Plug-In . SVG Version: 6.00 Build 0)  -->
<svg version="1.1" id="圖層_1" xmlns="http://www.w3.org/2000/svg" xmlns:xlink="http://www.w3.org/1999/xlink" x="0px" y="0px"
	 viewBox="0 0 170.1 52.4" style="enable-background:new 0 0 170.1 52.4;" xml:space="preserve">
<style type="text/css">
	.st0{font-family:'KaiTi';}
	.st1{font-size:10px;}
	.st2{fill:none;stroke:#000000;stroke-width:0.5;stroke-miterlimit:10;}
</style>
<text transform="matrix(1 0 0 1 80.25 8.5938)"><tspan x="0" y="0" class="st0 st1">五俱意識</tspan><tspan x="0" y="14" class="st0 st1">散亂獨頭</tspan><tspan x="0" y="28" class="st0 st1">夢中獨頭</tspan><tspan x="0" y="42" class="st0 st1">定中獨頭</tspan></text>
<g>
	<line class="st2" x1="71.7" y1="33.1" x2="74.6" y2="33.1"/>
	<line class="st2" x1="74.4" y1="19.5" x2="77.3" y2="19.5"/>
	<line class="st2" x1="74.5" y1="47" x2="77.3" y2="47"/>
	<line class="st2" x1="74.6" y1="19.2" x2="74.6" y2="47.2"/>
</g>
<line class="st2" x1="71.8" y1="5.2" x2="77.4" y2="5.2"/>
<text transform="matrix(1 0 0 1 29.0833 8.5938)"><tspan x="0" y="0" class="st0 st1">明了意識</tspan><tspan x="0" y="28" class="st0 st1">獨頭意識</tspan></text>
<g>
	<line class="st2" x1="22.8" y1="19" x2="25.7" y2="19"/>
	<line class="st2" x1="25.5" y1="4.6" x2="28.4" y2="4.6"/>
	<line class="st2" x1="25.6" y1="33.3" x2="28.4" y2="33.3"/>
	<line class="st2" x1="25.7" y1="4.6" x2="25.7" y2="33.5"/>
</g>
<text transform="matrix(1 0 0 1 1.621246e-04 22.5938)" class="st0 st1">意識</text>
<g>
	<line class="st2" x1="128.1" y1="26.4" x2="125.2" y2="26.4"/>
	<line class="st2" x1="125.4" y1="47" x2="122.5" y2="47"/>
	<line class="st2" x1="125.3" y1="5.2" x2="122.5" y2="5.2"/>
	<line class="st2" x1="125.2" y1="47" x2="125.2" y2="5.2"/>
</g>
<text transform="matrix(1 0 0 1 130.1491 29.5938)" class="st0 st1">四種意識</text>
</svg>
