<?xml version="1.0" encoding="utf-8"?>
<!-- Generator: Adobe Illustrator 21.0.0, SVG Export Plug-In . SVG Version: 6.00 Build 0)  -->
<svg version="1.1" id="圖層_1" xmlns="http://www.w3.org/2000/svg" xmlns:xlink="http://www.w3.org/1999/xlink" x="0px" y="0px"
	 viewBox="0 0 147.1 52.6" style="enable-background:new 0 0 147.1 52.6;" xml:space="preserve">
<style type="text/css">
	.st0{font-family:'KaiTi';}
	.st1{font-size:10px;}
	.st2{font-family:'DFKaiShu-SB-Estd-BF';}
	.st3{fill:none;stroke:#000000;stroke-width:0.5;stroke-miterlimit:10;}
</style>
<text transform="matrix(1 0 0 1 5.4912 8.5938)"><tspan x="0" y="0" class="st0 st1">願我作佛</tspan><tspan x="40" y="0" class="st2 st1">，</tspan><tspan x="50" y="0" class="st0 st1">齊聖法王</tspan><tspan x="0" y="14" class="st0 st1">吾誓得佛</tspan><tspan x="40" y="14" class="st2 st1">，</tspan><tspan x="50" y="14" class="st0 st1">普行此願</tspan><tspan x="0" y="28" class="st0 st1">一切恐懼</tspan><tspan x="40" y="28" class="st2 st1">，</tspan><tspan x="50" y="28" class="st0 st1">為作大安</tspan><tspan x="0" y="42" class="st0 st1">令我作佛</tspan><tspan x="40" y="42" class="st2 st1">，</tspan><tspan x="50" y="42" class="st0 st1">國土第一</tspan></text>
<text transform="matrix(1 0 0 1 107.1162 8.5938)"><tspan x="0" y="0" class="st0 st1">攝法身願</tspan><tspan x="0" y="21" class="st0 st1">攝眾生願</tspan><tspan x="0" y="42" class="st0 st1">攝淨土願</tspan></text>
<g>
	<line class="st3" x1="0.1" y1="4.9" x2="2.9" y2="4.9"/>
	<line class="st3" x1="0.1" y1="47.7" x2="2.9" y2="47.7"/>
	<line class="st3" x1="0.3" y1="4.6" x2="0.3" y2="47.7"/>
</g>
<g>
	<line class="st3" x1="101.3" y1="33.2" x2="101.3" y2="19.1"/>
	<line class="st3" x1="101.4" y1="33.2" x2="98.7" y2="33.2"/>
	<line class="st3" x1="101.4" y1="19.1" x2="98.7" y2="19.1"/>
	<line class="st3" x1="101.3" y1="26.2" x2="104.1" y2="26.2"/>
</g>
<line class="st3" x1="98.6" y1="4.9" x2="104.1" y2="4.9"/>
<line class="st3" x1="98.6" y1="47.7" x2="104.1" y2="47.7"/>
</svg>
