<?xml version="1.0" encoding="utf-8"?>
<!-- Generator: Adobe Illustrator 21.0.0, SVG Export Plug-In . SVG Version: 6.00 Build 0)  -->
<svg version="1.1" id="图层_1" xmlns="http://www.w3.org/2000/svg" xmlns:xlink="http://www.w3.org/1999/xlink" x="0px" y="0px"
	 viewBox="0 0 284.7 66.4" style="enable-background:new 0 0 284.7 66.4;" xml:space="preserve">
<style type="text/css">
	.st0{font-family:'KaiTi';}
	.st1{font-size:10px;}
	.st2{letter-spacing:5;}
	.st3{fill:none;stroke:#000000;stroke-width:0.5;stroke-miterlimit:10;}
</style>
<text transform="matrix(1 0 0 1 96.3335 8.5938)"><tspan x="0" y="0" class="st0 st1">我一心归命</tspan><tspan x="50" y="0" class="st0 st1 st2">  </tspan><tspan x="70" y="0" class="st0 st1">一偈</tspan><tspan x="0" y="14" class="st0 st1">我依修多罗</tspan><tspan x="50" y="14" class="st0 st1 st2">  </tspan><tspan x="70" y="14" class="st0 st1">一偈</tspan><tspan x="0" y="28" class="st0 st1">观彼世界相</tspan><tspan x="50" y="28" class="st0 st1 st2"> </tspan><tspan x="60" y="28" class="st0 st1">廿一偈</tspan><tspan x="0" y="56" class="st0 st1">我作论说偈</tspan><tspan x="50" y="56" class="st0 st1 st2">  </tspan><tspan x="70" y="56" class="st0 st1">一偈</tspan></text>
<text transform="matrix(1 0 0 1 43.0002 22.5938)"><tspan x="0" y="0" class="st0 st1">自己愿生</tspan><tspan x="0" y="42" class="st0 st1">共他愿生</tspan></text>
<g>
	<line class="st3" x1="89.5" y1="4.7" x2="89.5" y2="33.2"/>
	<line class="st3" x1="89.5" y1="4.7" x2="93.3" y2="4.7"/>
	<line class="st3" x1="89.5" y1="33.2" x2="93.3" y2="33.2"/>
	<line class="st3" x1="89.5" y1="19" x2="85.8" y2="19"/>
</g>
<line class="st3" x1="85.8" y1="60.9" x2="93.3" y2="60.9"/>
<text transform="matrix(1 0 0 1 200.8333 22.5938)"><tspan x="0" y="0" class="st0 st1">观国土</tspan><tspan x="0" y="14" class="st0 st1">观</tspan><tspan x="10" y="14" class="st0 st1 st2"> </tspan><tspan x="20" y="14" class="st0 st1">佛</tspan><tspan x="0" y="28" class="st0 st1">观菩萨</tspan></text>
<g>
	<line class="st3" x1="193.2" y1="19" x2="193.2" y2="47.5"/>
	<line class="st3" x1="193.2" y1="19" x2="197" y2="19"/>
	<line class="st3" x1="193.2" y1="47.5" x2="197" y2="47.5"/>
	<line class="st3" x1="193.2" y1="33.2" x2="189.5" y2="33.2"/>
</g>
<text transform="matrix(1 0 0 1 244.6667 22.5938)"><tspan x="0" y="0" class="st0 st1">往生处所</tspan><tspan x="0" y="14" class="st0 st1">往生强缘</tspan><tspan x="0" y="28" class="st0 st1">往生示范</tspan></text>
<line class="st3" x1="234" y1="19" x2="241.5" y2="19"/>
<line class="st3" x1="234" y1="33.2" x2="241.5" y2="33.2"/>
<line class="st3" x1="234" y1="47.5" x2="241.5" y2="47.5"/>
<g>
	<line class="st3" x1="36.2" y1="19" x2="36.2" y2="60.9"/>
	<line class="st3" x1="36.2" y1="19" x2="40" y2="19"/>
	<line class="st3" x1="36.2" y1="60.9" x2="40" y2="60.9"/>
	<line class="st3" x1="36.2" y1="39.9" x2="32.5" y2="39.9"/>
</g>
<text transform="matrix(1 0 0 1 0 43.6667)" class="st0 st1">愿生偈</text>
</svg>
