<?xml version="1.0" encoding="utf-8"?>
<!-- Generator: Adobe Illustrator 21.0.0, SVG Export Plug-In . SVG Version: 6.00 Build 0)  -->
<svg version="1.1" id="图层_1" xmlns="http://www.w3.org/2000/svg" xmlns:xlink="http://www.w3.org/1999/xlink" x="0px" y="0px"
	 viewBox="0 0 290.4 94.4" style="enable-background:new 0 0 290.4 94.4;" xml:space="preserve">
<style type="text/css">
	.st0{font-family:'KaiTi';}
	.st1{font-size:10px;}
	.st2{font-family:'DFKaiShu-SB-Estd-BF';}
	.st3{fill:none;stroke:#000000;stroke-width:0.5;stroke-miterlimit:10;}
</style>
<text transform="matrix(1 0 0 1 114.0752 8.5938)"><tspan x="0" y="0" class="st0 st1">一</tspan><tspan x="10" y="0" class="st2 st1">、</tspan><tspan x="20" y="0" class="st0 st1">举难请易</tspan><tspan x="0" y="14" class="st0 st1">二</tspan><tspan x="10" y="14" class="st2 st1">、</tspan><tspan x="20" y="14" class="st0 st1">呵问许说</tspan><tspan x="0" y="28" class="st0 st1">三</tspan><tspan x="10" y="28" class="st2 st1">、</tspan><tspan x="20" y="28" class="st0 st1">总判二道</tspan><tspan x="0" y="42" class="st0 st1">四</tspan><tspan x="10" y="42" class="st2 st1">、</tspan><tspan x="20" y="42" class="st0 st1">别明易行</tspan></text>
<g>
	<line class="st3" x1="106.9" y1="5" x2="106.9" y2="19.9"/>
	<line class="st3" x1="106.9" y1="5" x2="110.7" y2="5"/>
	<line class="st3" x1="106.9" y1="19.9" x2="110.7" y2="19.9"/>
	<line class="st3" x1="106.9" y1="12.7" x2="103.2" y2="12.7"/>
</g>
<g>
	<line class="st3" x1="106.8" y1="32.5" x2="106.8" y2="47.4"/>
	<line class="st3" x1="106.8" y1="32.5" x2="110.6" y2="32.5"/>
	<line class="st3" x1="106.8" y1="47.4" x2="110.6" y2="47.4"/>
	<line class="st3" x1="106.8" y1="40.2" x2="103.1" y2="40.2"/>
</g>
<text transform="matrix(1 0 0 1 190.4085 8.5939)"><tspan x="0" y="0" class="st0 st1">1 十方十佛章(十佛章)</tspan><tspan x="0" y="14" class="st0 st1">2 十方诸佛章(诸佛章)</tspan><tspan x="0" y="28" class="st0 st1">3 西方一佛章(弥陀章)</tspan><tspan x="0" y="42" class="st0 st1">4 过未八佛章</tspan><tspan x="0" y="56" class="st0 st1">5 东方八佛章</tspan><tspan x="0" y="70" class="st0 st1">6 三世诸佛章</tspan><tspan x="0" y="84" class="st0 st1">7 诸大菩萨章</tspan></text>
<g>
	<line class="st3" x1="182" y1="5" x2="182" y2="88.8"/>
	<line class="st3" x1="182" y1="5" x2="185.8" y2="5"/>
	<line class="st3" x1="182" y1="88.8" x2="185.8" y2="88.8"/>
	<line class="st3" x1="182" y1="47.7" x2="178.3" y2="47.7"/>
</g>
<text transform="matrix(1 0 0 1 59.5002 15.5938)"><tspan x="0" y="0" class="st0 st1">初</tspan><tspan x="10" y="0" class="st2 st1">、</tspan><tspan x="20" y="0" class="st0 st1">序说</tspan><tspan x="0" y="28" class="st0 st1">次</tspan><tspan x="10" y="28" class="st2 st1">、</tspan><tspan x="20" y="28" class="st0 st1">正说</tspan></text>
<g>
	<line class="st3" x1="51.9" y1="12.7" x2="51.9" y2="40.2"/>
	<line class="st3" x1="51.9" y1="12.7" x2="55.7" y2="12.7"/>
	<line class="st3" x1="51.9" y1="40" x2="55.7" y2="40"/>
	<line class="st3" x1="51.9" y1="26" x2="48.2" y2="26"/>
</g>
<text transform="matrix(1 0 0 1 1.831055e-04 22.5938)"><tspan x="0" y="0" class="st0 st1">《易行品》</tspan><tspan x="0" y="14" class="st0 st1">  科  判</tspan></text>
</svg>
