<?xml version="1.0" encoding="utf-8"?>
<!-- Generator: Adobe Illustrator 21.0.0, SVG Export Plug-In . SVG Version: 6.00 Build 0)  -->
<svg version="1.1" baseProfile="tiny" id="圖層_1"
	 xmlns="http://www.w3.org/2000/svg" xmlns:xlink="http://www.w3.org/1999/xlink" x="0px" y="0px" viewBox="0 0 137.601 39.386"
	 overflow="scroll" xml:space="preserve">
<text transform="matrix(1 0 0 1 30.1818 8.8438)" font-family="KaiTi" font-size="10px">攝氏零度</text>
<text transform="matrix(1 0 0 1 30.1818 22.8438)" font-family="KaiTi" font-size="10px">水</text>
<text transform="matrix(1 0 0 1 30.1818 36.8438)" font-family="KaiTi" font-size="10px">攝氏一百度</text>
<text transform="matrix(1 0 0 1 8.4085 9.1875)" font-family="KaiTi" font-size="10px">緣</text>
<circle fill="none" stroke="#231815" stroke-width="0.5" stroke-miterlimit="10" cx="13.408" cy="6" r="5.75"/>
<text transform="matrix(1 0 0 1 8.408 36.5732)" font-family="KaiTi" font-size="10px">緣</text>
<circle fill="none" stroke="#231815" stroke-width="0.5" stroke-miterlimit="10" cx="13.408" cy="33.386" r="5.75"/>
<text transform="matrix(1 0 0 1 8.4134 22.8549)" font-family="KaiTi" font-size="10px">因</text>
<circle fill="none" stroke="#231815" stroke-width="0.5" stroke-miterlimit="10" cx="13.409" cy="19.693" r="5.75"/>
<g>
	<line fill="none" stroke="#000000" stroke-width="0.5" stroke-miterlimit="10" x1="2.05" y1="5.93" x2="4.946" y2="5.93"/>
	<line fill="none" stroke="#000000" stroke-width="0.5" stroke-miterlimit="10" x1="2.05" y1="33.381" x2="4.946" y2="33.381"/>
	<line fill="none" stroke="#000000" stroke-width="0.5" stroke-miterlimit="10" x1="2.05" y1="5.679" x2="2.05" y2="33.633"/>
</g>
<line fill="none" stroke="#000000" stroke-width="0.5" stroke-miterlimit="10" x1="22.213" y1="5.93" x2="27.879" y2="5.93"/>
<line fill="none" stroke="#000000" stroke-width="0.5" stroke-miterlimit="10" x1="22.213" y1="19.693" x2="27.879" y2="19.693"/>
<line fill="none" stroke="#000000" stroke-width="0.5" stroke-miterlimit="10" x1="22.213" y1="33.381" x2="27.879" y2="33.381"/>
<text transform="matrix(1 0 0 1 117.6013 16.2697)" font-family="KaiTi" font-size="10px">冰塊</text>
<text transform="matrix(1 0 0 1 117.6013 30.2697)" font-family="KaiTi" font-size="10px">蒸氣</text>
<text transform="matrix(1 0 0 1 96.9025 16.1748)" font-family="KaiTi" font-size="10px">果</text>
<circle fill="none" stroke="#231815" stroke-width="0.5" stroke-miterlimit="10" cx="101.91" cy="13.019" r="5.75"/>
<text transform="matrix(1 0 0 1 96.9025 29.9416)" font-family="KaiTi" font-size="10px">果</text>
<circle fill="none" stroke="#231815" stroke-width="0.5" stroke-miterlimit="10" cx="101.91" cy="26.785" r="5.75"/>
<line fill="none" stroke="#000000" stroke-width="0.5" stroke-miterlimit="10" x1="110.339" y1="13.011" x2="116.048" y2="13.011"/>
<line fill="none" stroke="#000000" stroke-width="0.5" stroke-miterlimit="10" x1="110.339" y1="26.803" x2="116.048" y2="26.803"/>
<line fill="none" stroke="#231815" stroke-width="0.5" stroke-miterlimit="10" x1="73.248" y1="5.93" x2="92.749" y2="13"/>
<line fill="none" stroke="#231815" stroke-width="0.5" stroke-miterlimit="10" x1="42.624" y1="19.693" x2="92.749" y2="13"/>
<line fill="none" stroke="#231815" stroke-width="0.5" stroke-miterlimit="10" x1="42.624" y1="19.693" x2="92.749" y2="26.785"/>
<line fill="none" stroke="#231815" stroke-width="0.5" stroke-miterlimit="10" x1="81.624" y1="33.381" x2="92.749" y2="26.785"/>
</svg>
