<?xml version="1.0" encoding="utf-8"?>
<!-- Generator: Adobe Illustrator 21.0.0, SVG Export Plug-In . SVG Version: 6.00 Build 0)  -->
<svg version="1.1" baseProfile="tiny" id="圖層_1"
	 xmlns="http://www.w3.org/2000/svg" xmlns:xlink="http://www.w3.org/1999/xlink" x="0px" y="0px" viewBox="0 0 132.266 39.386"
	 overflow="scroll" xml:space="preserve">
<text transform="matrix(1 0 0 1 29.8981 8.8438)" font-family="KaiTi" font-size="10px">普</text>
<text transform="matrix(1 0 0 1 39.8981 8.8438)" font-family="KaiTi" font-size="10px">通</text>
<text transform="matrix(1 0 0 1 49.8981 8.8438)" font-family="KaiTi" font-size="10px">緣</text>
<text transform="matrix(1 0 0 1 29.8981 22.8438)" font-family="KaiTi" font-size="10px">凡</text>
<text transform="matrix(1 0 0 1 49.8981 22.8438)" font-family="KaiTi" font-size="10px">夫</text>
<text transform="matrix(1 0 0 1 29.8981 36.8438)" font-family="KaiTi" font-size="10px">增</text>
<text transform="matrix(1 0 0 1 39.8981 36.8438)" font-family="KaiTi" font-size="10px">上</text>
<text transform="matrix(1 0 0 1 49.8981 36.8438)" font-family="KaiTi" font-size="10px">緣</text>
<text transform="matrix(1 0 0 1 8.1248 9.1875)" font-family="KaiTi" font-size="10px">緣</text>
<circle fill="none" stroke="#231815" stroke-width="0.5" stroke-miterlimit="10" cx="13.125" cy="6" r="5.75"/>
<text transform="matrix(1 0 0 1 8.1243 36.5732)" font-family="KaiTi" font-size="10px">緣</text>
<circle fill="none" stroke="#231815" stroke-width="0.5" stroke-miterlimit="10" cx="13.124" cy="33.386" r="5.75"/>
<text transform="matrix(1 0 0 1 8.1297 22.8549)" font-family="KaiTi" font-size="10px">因</text>
<circle fill="none" stroke="#231815" stroke-width="0.5" stroke-miterlimit="10" cx="13.125" cy="19.693" r="5.75"/>
<g>
	<line fill="none" stroke="#000000" stroke-width="0.5" stroke-miterlimit="10" x1="1.95" y1="5.93" x2="4.846" y2="5.93"/>
	<line fill="none" stroke="#000000" stroke-width="0.5" stroke-miterlimit="10" x1="1.95" y1="33.381" x2="4.846" y2="33.381"/>
	<line fill="none" stroke="#000000" stroke-width="0.5" stroke-miterlimit="10" x1="1.95" y1="5.678" x2="1.95" y2="33.629"/>
</g>
<line fill="none" stroke="#000000" stroke-width="0.5" stroke-miterlimit="10" x1="21.929" y1="5.93" x2="27.595" y2="5.93"/>
<line fill="none" stroke="#000000" stroke-width="0.5" stroke-miterlimit="10" x1="21.929" y1="19.693" x2="27.595" y2="19.693"/>
<line fill="none" stroke="#000000" stroke-width="0.5" stroke-miterlimit="10" x1="21.929" y1="33.381" x2="27.595" y2="33.381"/>
<text transform="matrix(1 0 0 1 92.2665 16.2697)" font-family="KaiTi" font-size="10px">六道凡夫</text>
<text transform="matrix(1 0 0 1 92.2665 30.2697)" font-family="KaiTi" font-size="10px">往生成佛</text>
<text transform="matrix(1 0 0 1 71.5676 16.1748)" font-family="KaiTi" font-size="10px">果</text>
<circle fill="none" stroke="#231815" stroke-width="0.5" stroke-miterlimit="10" cx="76.576" cy="13.019" r="5.751"/>
<text transform="matrix(1 0 0 1 71.5676 29.9416)" font-family="KaiTi" font-size="10px">果</text>
<circle fill="none" stroke="#231815" stroke-width="0.5" stroke-miterlimit="10" cx="76.576" cy="26.785" r="5.751"/>
<line fill="none" stroke="#000000" stroke-width="0.5" stroke-miterlimit="10" x1="85.007" y1="13.011" x2="90.716" y2="13.011"/>
<line fill="none" stroke="#000000" stroke-width="0.5" stroke-miterlimit="10" x1="85.007" y1="26.803" x2="90.716" y2="26.803"/>
<line fill="none" stroke="#000000" stroke-width="0.5" stroke-miterlimit="10" x1="61.982" y1="33.381" x2="67.665" y2="26.803"/>
<line fill="none" stroke="#000000" stroke-width="0.5" stroke-miterlimit="10" x1="61.982" y1="19.693" x2="67.665" y2="26.803"/>
<line fill="none" stroke="#000000" stroke-width="0.5" stroke-miterlimit="10" x1="61.982" y1="19.693" x2="67.649" y2="13.019"/>
<line fill="none" stroke="#000000" stroke-width="0.5" stroke-miterlimit="10" x1="61.982" y1="5.93" x2="67.649" y2="13.019"/>
</svg>
