<?xml version="1.0" encoding="utf-8"?>
<!-- Generator: Adobe Illustrator 21.0.0, SVG Export Plug-In . SVG Version: 6.00 Build 0)  -->
<svg version="1.1" baseProfile="tiny" id="图层_1"
	 xmlns="http://www.w3.org/2000/svg" xmlns:xlink="http://www.w3.org/1999/xlink" x="0px" y="0px" viewBox="0 0 173.174 39.386"
	 overflow="scroll" xml:space="preserve">
<text transform="matrix(1 0 0 1 30.1819 8.8437)" font-family="KaiTi" font-size="10px">常温、常压</text>
<text transform="matrix(1 0 0 1 30.1819 22.8437)" font-family="KaiTi" font-size="10px">炭素</text>
<text transform="matrix(1 0 0 1 30.1819 36.8437)" font-family="KaiTi" font-size="10px">二千度、五万五千气压</text>
<text transform="matrix(1 0 0 1 163.1736 16.2695)" font-family="KaiTi" font-size="10px">炭</text>
<text transform="matrix(1 0 0 1 163.1736 30.2695)" font-family="KaiTi" font-size="10px">钻</text>
<g>
	<text transform="matrix(1 0 0 1 8.4085 9.1875)" font-family="KaiTi" font-size="10px">缘</text>
	<circle fill="none" stroke="#231815" stroke-width="0.5" stroke-miterlimit="10" cx="13.408" cy="6" r="5.75"/>
</g>
<g>
	<text transform="matrix(1 0 0 1 8.408 36.5732)" font-family="KaiTi" font-size="10px">缘</text>
	<circle fill="none" stroke="#231815" stroke-width="0.5" stroke-miterlimit="10" cx="13.408" cy="33.386" r="5.75"/>
</g>
<g>
	<text transform="matrix(1 0 0 1 8.4134 22.8549)" font-family="KaiTi" font-size="10px">因</text>
	<circle fill="none" stroke="#231815" stroke-width="0.5" stroke-miterlimit="10" cx="13.409" cy="19.693" r="5.75"/>
</g>
<g>
	<text transform="matrix(1 0 0 1 142.4749 16.1748)" font-family="KaiTi" font-size="10px">果</text>
	<circle fill="none" stroke="#231815" stroke-width="0.5" stroke-miterlimit="10" cx="147.478" cy="13.019" r="5.75"/>
</g>
<g>
	<text transform="matrix(1 0 0 1 142.4749 29.9414)" font-family="KaiTi" font-size="10px">果</text>
	<circle fill="none" stroke="#231815" stroke-width="0.5" stroke-miterlimit="10" cx="147.478" cy="26.785" r="5.75"/>
</g>
<g>
	<line fill="none" stroke="#000000" stroke-width="0.5" stroke-miterlimit="10" x1="1.95" y1="5.93" x2="4.846" y2="5.93"/>
	<line fill="none" stroke="#000000" stroke-width="0.5" stroke-miterlimit="10" x1="1.95" y1="33.38" x2="4.846" y2="33.38"/>
	<line fill="none" stroke="#000000" stroke-width="0.5" stroke-miterlimit="10" x1="1.95" y1="5.679" x2="1.95" y2="33.631"/>
</g>
<line fill="none" stroke="#000000" stroke-width="0.5" stroke-miterlimit="10" x1="22.213" y1="5.93" x2="27.879" y2="5.93"/>
<line fill="none" stroke="#000000" stroke-width="0.5" stroke-miterlimit="10" x1="22.213" y1="19.693" x2="27.879" y2="19.693"/>
<line fill="none" stroke="#000000" stroke-width="0.5" stroke-miterlimit="10" x1="22.213" y1="33.38" x2="27.879" y2="33.38"/>
<line fill="none" stroke="#000000" stroke-width="0.5" stroke-miterlimit="10" x1="132.464" y1="33.38" x2="138.403" y2="26.767"/>
<line fill="none" stroke="#000000" stroke-width="0.5" stroke-miterlimit="10" x1="155.908" y1="13.011" x2="161.616" y2="13.011"/>
<line fill="none" stroke="#000000" stroke-width="0.5" stroke-miterlimit="10" x1="155.908" y1="26.802" x2="161.616" y2="26.802"/>
<line fill="none" stroke="#000000" stroke-width="0.5" stroke-miterlimit="10" x1="53.383" y1="19.693" x2="138.403" y2="26.767"/>
<line fill="none" stroke="#000000" stroke-width="0.5" stroke-miterlimit="10" x1="53.383" y1="19.693" x2="138.38" y2="13.011"/>
<line fill="none" stroke="#000000" stroke-width="0.5" stroke-miterlimit="10" x1="82.883" y1="5.722" x2="138.38" y2="13.011"/>
</svg>
