<?xml version="1.0" encoding="utf-8"?>
<!-- Generator: Adobe Illustrator 16.0.0, SVG Export Plug-In . SVG Version: 6.00 Build 0)  -->
<!DOCTYPE svg PUBLIC "-//W3C//DTD SVG 1.1//EN" "http://www.w3.org/Graphics/SVG/1.1/DTD/svg11.dtd">
<svg version="1.1" id="图层_1" xmlns="http://www.w3.org/2000/svg" xmlns:xlink="http://www.w3.org/1999/xlink" x="0px" y="0px"
	 width="131.984px" height="39.386px" viewBox="0 0 131.984 39.386" enable-background="new 0 0 131.984 39.386"
	 xml:space="preserve">
<text transform="matrix(1 0 0 1 29.6157 8.8438)"><tspan x="0" y="0" font-family="'FZKTK--GBK1-0'" font-size="10">普通缘</tspan><tspan x="0" y="14" font-family="'FZKTK--GBK1-0'" font-size="10" letter-spacing="10">凡夫</tspan><tspan x="0" y="28" font-family="'FZKTK--GBK1-0'" font-size="10">增上缘</tspan></text>
<text transform="matrix(1 0 0 1 7.8423 9.1875)" font-family="'FZKTK--GBK1-0'" font-size="10">缘</text>
<circle fill="none" stroke="#231815" stroke-width="0.5" stroke-miterlimit="10" cx="12.842" cy="6" r="5.75"/>
<text transform="matrix(1 0 0 1 7.8418 36.5732)" font-family="'FZKTK--GBK1-0'" font-size="10">缘</text>
<circle fill="none" stroke="#231815" stroke-width="0.5" stroke-miterlimit="10" cx="12.842" cy="33.386" r="5.75"/>
<text transform="matrix(1 0 0 1 7.8472 22.8545)" font-family="'FZKTK--GBK1-0'" font-size="10">因</text>
<circle fill="none" stroke="#231815" stroke-width="0.5" stroke-miterlimit="10" cx="12.843" cy="19.693" r="5.75"/>
<g>
	<line fill="none" stroke="#000000" stroke-width="0.5" stroke-miterlimit="10" x1="1.667" y1="5.93" x2="4.563" y2="5.93"/>
	<line fill="none" stroke="#000000" stroke-width="0.5" stroke-miterlimit="10" x1="1.667" y1="33.381" x2="4.563" y2="33.381"/>
	<line fill="none" stroke="#000000" stroke-width="0.5" stroke-miterlimit="10" x1="1.667" y1="5.722" x2="1.667" y2="33.664"/>
</g>
<line fill="none" stroke="#000000" stroke-width="0.5" stroke-miterlimit="10" x1="21.646" y1="5.93" x2="27.313" y2="5.93"/>
<line fill="none" stroke="#000000" stroke-width="0.5" stroke-miterlimit="10" x1="21.646" y1="19.693" x2="27.313" y2="19.693"/>
<line fill="none" stroke="#000000" stroke-width="0.5" stroke-miterlimit="10" x1="21.646" y1="33.381" x2="27.313" y2="33.381"/>
<text transform="matrix(1 0 0 1 91.9839 16.2695)"><tspan x="0" y="0" font-family="'FZKTK--GBK1-0'" font-size="10">六道凡夫</tspan><tspan x="0" y="14" font-family="'FZKTK--GBK1-0'" font-size="10">往生成佛</tspan></text>
<text transform="matrix(1 0 0 1 71.2852 16.1748)" font-family="'FZKTK--GBK1-0'" font-size="10">果</text>
<circle fill="none" stroke="#231815" stroke-width="0.5" stroke-miterlimit="10" cx="76.292" cy="13.019" r="5.752"/>
<text transform="matrix(1 0 0 1 71.2852 29.9414)" font-family="'FZKTK--GBK1-0'" font-size="10">果</text>
<circle fill="none" stroke="#231815" stroke-width="0.5" stroke-miterlimit="10" cx="76.292" cy="26.785" r="5.752"/>
<line fill="none" stroke="#000000" stroke-width="0.5" stroke-miterlimit="10" x1="84.724" y1="13.011" x2="90.433" y2="13.011"/>
<line fill="none" stroke="#000000" stroke-width="0.5" stroke-miterlimit="10" x1="84.724" y1="26.803" x2="90.433" y2="26.803"/>
<line fill="none" stroke="#000000" stroke-width="0.5" stroke-miterlimit="10" x1="61.7" y1="33.381" x2="67.383" y2="26.803"/>
<line fill="none" stroke="#000000" stroke-width="0.5" stroke-miterlimit="10" x1="61.7" y1="19.693" x2="67.383" y2="26.803"/>
<line fill="none" stroke="#000000" stroke-width="0.5" stroke-miterlimit="10" x1="61.7" y1="19.693" x2="67.366" y2="13.019"/>
<line fill="none" stroke="#000000" stroke-width="0.5" stroke-miterlimit="10" x1="61.7" y1="5.93" x2="67.366" y2="13.019"/>
</svg>
