<?xml version="1.0" encoding="utf-8"?>
<!-- Generator: Adobe Illustrator 21.0.0, SVG Export Plug-In . SVG Version: 6.00 Build 0)  -->
<svg version="1.1" id="圖層_1" xmlns="http://www.w3.org/2000/svg" xmlns:xlink="http://www.w3.org/1999/xlink" x="0px" y="0px"
	 viewBox="0 0 216.5 24.4" style="enable-background:new 0 0 216.5 24.4;" xml:space="preserve">
<style type="text/css">
	.st0{font-family:'KaiTi';}
	.st1{font-size:10px;}
	.st2{fill:none;stroke:#040000;stroke-width:0.5;stroke-miterlimit:10;}
</style>
<text transform="matrix(1 0 0 1 30.375 8.5938)"><tspan x="0" y="0" class="st0 st1">定門</tspan><tspan x="0" y="14" class="st0 st1">散門</tspan></text>
<g>
	<line class="st2" x1="21.5" y1="12" x2="24.4" y2="12"/>
	<line class="st2" x1="24.4" y1="4.7" x2="27.3" y2="4.7"/>
	<line class="st2" x1="24.4" y1="19.6" x2="27.3" y2="19.6"/>
	<line class="st2" x1="24.4" y1="4.5" x2="24.4" y2="19.6"/>
</g>
<text transform="matrix(1 0 0 1 0 15.5938)" class="st0 st1">要門</text>
<line class="st2" x1="52.4" y1="4.5" x2="58.2" y2="4.5"/>
<line class="st2" x1="52.4" y1="19.6" x2="58.2" y2="19.6"/>
<text transform="matrix(1 0 0 1 61.183 8.5938)"><tspan x="0" y="0" class="st0 st1">迴定善行 求願往生</tspan><tspan x="0" y="14" class="st0 st1">迴散善行 求願往生</tspan></text>
<g>
	<line class="st2" x1="154.5" y1="12.2" x2="151.6" y2="12.2"/>
	<line class="st2" x1="151.6" y1="19.6" x2="148.7" y2="19.6"/>
	<line class="st2" x1="151.6" y1="4.7" x2="148.7" y2="4.7"/>
	<line class="st2" x1="151.6" y1="19.8" x2="151.6" y2="4.7"/>
</g>
<text transform="matrix(1 0 0 1 156.4752 15.5938)" class="st0 st1">諸行迴願往生</text>
</svg>
