<?xml version="1.0" encoding="utf-8"?>
<!-- Generator: Adobe Illustrator 16.0.0, SVG Export Plug-In . SVG Version: 6.00 Build 0)  -->
<!DOCTYPE svg PUBLIC "-//W3C//DTD SVG 1.1//EN" "http://www.w3.org/Graphics/SVG/1.1/DTD/svg11.dtd">
<svg version="1.1" id="图层_1" xmlns="http://www.w3.org/2000/svg" xmlns:xlink="http://www.w3.org/1999/xlink" x="0px" y="0px"
	 width="264.474px" height="67.093px" viewBox="0 0 264.474 67.093" enable-background="new 0 0 264.474 67.093"
	 xml:space="preserve">
<text transform="matrix(1 0 0 1 0 29.7363)" font-family="'FZKTK--GBK1-0'" font-size="10">二门</text>
<text transform="matrix(1 0 0 1 27.9248 15.3613)"><tspan x="0" y="0" font-family="'FZKTK--GBK1-0'" font-size="10" letter-spacing="10">要门</tspan><tspan x="0" y="28" font-family="'FZKTK--GBK1-0'" font-size="10">弘愿门</tspan></text>
<text transform="matrix(1 0 0 1 69.0259 15.3618)"><tspan x="0" y="0" font-family="'FZKTK--GBK1-0'" font-size="10">二善</tspan><tspan x="0" y="28" font-family="'FZKTK--GBK1-0'" font-size="10">二信</tspan></text>
<text transform="matrix(1 0 0 1 97.459 8.5938)"><tspan x="0" y="0" font-family="'FZKTK--GBK1-0'" font-size="10">定善</tspan><tspan x="0" y="14" font-family="'FZKTK--GBK1-0'" font-size="10">散善</tspan><tspan x="0" y="28" font-family="'FZKTK--GBK1-0'" font-size="10">信机</tspan><tspan x="0" y="42" font-family="'FZKTK--GBK1-0'" font-size="10">信法</tspan></text>
<text transform="matrix(1 0 0 1 127.7168 50.5947)" font-family="'FZKTK--GBK1-0'" font-size="10">二行</text>
<text transform="matrix(1 0 0 1 157.1934 43.4805)"><tspan x="0" y="0" font-family="'FZKTK--GBK1-0'" font-size="10">杂行</tspan><tspan x="0" y="14" font-family="'FZKTK--GBK1-0'" font-size="10">正行</tspan></text>
<text transform="matrix(1 0 0 1 187.7832 43.4805)"><tspan x="0" y="0" font-family="'FZKTK--GBK1-0'" font-size="10">抛</tspan><tspan x="0" y="14" font-family="'FZKTK--GBK1-0'" font-size="10">二业</tspan></text>
<text transform="matrix(1 0 0 1 214.9414 50.8271)"><tspan x="0" y="0" font-family="'FZKTK--GBK1-0'" font-size="10" letter-spacing="10">助业</tspan><tspan x="0" y="14" font-family="'FZKTK--GBK1-0'" font-size="10">正定业</tspan></text>
<text transform="matrix(1 0 0 1 254.4736 50.8271)"><tspan x="0" y="0" font-family="'FZKTK--GBK1-0'" font-size="10">傍</tspan><tspan x="0" y="14" font-family="'FZKTK--GBK1-0'" font-size="10">专</tspan></text>
<line fill="none" stroke="#231815" stroke-width="0.5" stroke-miterlimit="10" x1="246.918" y1="46.856" x2="252.605" y2="46.856"/>
<line fill="none" stroke="#231815" stroke-width="0.5" stroke-miterlimit="10" x1="246.918" y1="61.077" x2="252.605" y2="61.077"/>
<g>
	<line fill="none" stroke="#000000" stroke-width="0.5" stroke-miterlimit="10" x1="149.754" y1="46.891" x2="152.65" y2="46.891"/>
	<line fill="none" stroke="#000000" stroke-width="0.5" stroke-miterlimit="10" x1="152.525" y1="39.974" x2="155.42" y2="39.974"/>
	<line fill="none" stroke="#000000" stroke-width="0.5" stroke-miterlimit="10" x1="152.533" y1="54.141" x2="155.43" y2="54.141"/>
	<line fill="none" stroke="#000000" stroke-width="0.5" stroke-miterlimit="10" x1="152.65" y1="39.719" x2="152.65" y2="54.391"/>
</g>
<g>
	<line fill="none" stroke="#000000" stroke-width="0.5" stroke-miterlimit="10" x1="208.7" y1="53.971" x2="211.597" y2="53.971"/>
	
		<line fill="none" stroke="#000000" stroke-width="0.5" stroke-miterlimit="10" x1="211.472" y1="47.054" x2="214.366" y2="47.054"/>
	
		<line fill="none" stroke="#000000" stroke-width="0.5" stroke-miterlimit="10" x1="211.479" y1="61.221" x2="214.376" y2="61.221"/>
	
		<line fill="none" stroke="#000000" stroke-width="0.5" stroke-miterlimit="10" x1="211.597" y1="46.799" x2="211.597" y2="61.471"/>
</g>
<g>
	<line fill="none" stroke="#000000" stroke-width="0.5" stroke-miterlimit="10" x1="90.376" y1="39.585" x2="93.272" y2="39.585"/>
	<line fill="none" stroke="#000000" stroke-width="0.5" stroke-miterlimit="10" x1="93.147" y1="32.668" x2="96.042" y2="32.668"/>
	<line fill="none" stroke="#000000" stroke-width="0.5" stroke-miterlimit="10" x1="93.155" y1="46.835" x2="96.052" y2="46.835"/>
	<line fill="none" stroke="#000000" stroke-width="0.5" stroke-miterlimit="10" x1="93.272" y1="32.413" x2="93.272" y2="47.085"/>
</g>
<g>
	<line fill="none" stroke="#000000" stroke-width="0.5" stroke-miterlimit="10" x1="90.376" y1="12.408" x2="93.272" y2="12.408"/>
	<line fill="none" stroke="#000000" stroke-width="0.5" stroke-miterlimit="10" x1="93.147" y1="5.491" x2="96.042" y2="5.491"/>
	<line fill="none" stroke="#000000" stroke-width="0.5" stroke-miterlimit="10" x1="93.155" y1="19.658" x2="96.052" y2="19.658"/>
	<line fill="none" stroke="#000000" stroke-width="0.5" stroke-miterlimit="10" x1="93.272" y1="5.236" x2="93.272" y2="19.908"/>
</g>
<line fill="none" stroke="#000000" stroke-width="0.5" stroke-miterlimit="10" x1="179.624" y1="39.895" x2="185.208" y2="39.895"/>
<line fill="none" stroke="#000000" stroke-width="0.5" stroke-miterlimit="10" x1="179.624" y1="54.136" x2="185.208" y2="54.136"/>
<line fill="none" stroke="#000000" stroke-width="0.5" stroke-miterlimit="10" x1="59.814" y1="39.749" x2="65.439" y2="39.749"/>
<line fill="none" stroke="#000000" stroke-width="0.5" stroke-miterlimit="10" x1="120.144" y1="46.856" x2="125.769" y2="46.856"/>
<line fill="none" stroke="#000000" stroke-width="0.5" stroke-miterlimit="10" x1="59.814" y1="12.41" x2="65.439" y2="12.41"/>
<g>
	<line fill="none" stroke="#000000" stroke-width="0.5" stroke-miterlimit="10" x1="20.282" y1="26.022" x2="23.178" y2="26.022"/>
	<line fill="none" stroke="#000000" stroke-width="0.5" stroke-miterlimit="10" x1="23.178" y1="12.261" x2="26.074" y2="12.261"/>
	<line fill="none" stroke="#000000" stroke-width="0.5" stroke-miterlimit="10" x1="23.178" y1="39.71" x2="26.074" y2="39.71"/>
	<line fill="none" stroke="#000000" stroke-width="0.5" stroke-miterlimit="10" x1="23.178" y1="12.053" x2="23.178" y2="39.994"/>
</g>
</svg>
