<?xml version="1.0" encoding="utf-8"?>
<!-- Generator: Adobe Illustrator 16.0.0, SVG Export Plug-In . SVG Version: 6.00 Build 0)  -->
<!DOCTYPE svg PUBLIC "-//W3C//DTD SVG 1.1//EN" "http://www.w3.org/Graphics/SVG/1.1/DTD/svg11.dtd">
<svg version="1.1" id="图层_1" xmlns="http://www.w3.org/2000/svg" xmlns:xlink="http://www.w3.org/1999/xlink" x="0px" y="0px"
	 width="158.992px" height="66.859px" viewBox="0 0 158.992 66.859" enable-background="new 0 0 158.992 66.859"
	 xml:space="preserve">
<g>
	<text transform="matrix(1 0 0 1 0 36.5938)" font-family="'FZKTK--GBK1-0'" font-size="10">二行得失</text>
	<text transform="matrix(1 0 0 1 48.9351 8.5938)"><tspan x="0" y="0" font-family="'FZKTK--GBK1-0'" font-size="10" letter-spacing="15">亲疏对</tspan><tspan x="0" y="14" font-family="'FZKTK--GBK1-0'" font-size="10" letter-spacing="15">近远对</tspan><tspan x="0" y="28" font-family="'FZKTK--GBK1-0'" font-size="10" letter-spacing="2">无间有间对</tspan><tspan x="0" y="42" font-family="'FZKTK--GBK1-0'" font-size="10">不回向回向对</tspan><tspan x="0" y="56" font-family="'FZKTK--GBK1-0'" font-size="10" letter-spacing="15">纯杂对</tspan></text>
	<text transform="matrix(1 0 0 1 118.9922 36.5938)" font-family="'FZKTK--GBK1-0'" font-size="10">五番相对</text>
	<g>
		<line fill="none" stroke="#000000" stroke-width="0.5" stroke-miterlimit="10" x1="43.612" y1="4.869" x2="43.612" y2="61.257"/>
		<line fill="none" stroke="#000000" stroke-width="0.5" stroke-miterlimit="10" x1="43.382" y1="5.127" x2="46.278" y2="5.127"/>
		<line fill="none" stroke="#000000" stroke-width="0.5" stroke-miterlimit="10" x1="43.382" y1="61.208" x2="46.278" y2="61.208"/>
		<line fill="none" stroke="#000000" stroke-width="0.5" stroke-miterlimit="10" x1="40.634" y1="32.95" x2="43.53" y2="32.95"/>
	</g>
	<g>
		
			<line fill="none" stroke="#000000" stroke-width="0.5" stroke-miterlimit="10" x1="113.832" y1="4.869" x2="113.832" y2="61.449"/>
		<line fill="none" stroke="#000000" stroke-width="0.5" stroke-miterlimit="10" x1="110.936" y1="5.127" x2="113.832" y2="5.127"/>
		
			<line fill="none" stroke="#000000" stroke-width="0.5" stroke-miterlimit="10" x1="110.936" y1="61.208" x2="113.832" y2="61.208"/>
		<line fill="none" stroke="#000000" stroke-width="0.5" stroke-miterlimit="10" x1="113.832" y1="32.95" x2="116.728" y2="32.95"/>
	</g>
</g>
</svg>
