<?xml version="1.0" encoding="utf-8"?>
<!-- Generator: Adobe Illustrator 21.0.0, SVG Export Plug-In . SVG Version: 6.00 Build 0)  -->
<svg version="1.1" baseProfile="tiny" id="圖層_1"
	 xmlns="http://www.w3.org/2000/svg" xmlns:xlink="http://www.w3.org/1999/xlink" x="0px" y="0px" viewBox="0 0 264.5 67.1"
	 xml:space="preserve">
<text transform="matrix(1 0 0 1 -3.814697e-05 29.7363)" font-family="KaiTi" font-size="10px">二門</text>
<text transform="matrix(1 0 0 1 27.925 15.3613)" font-family="KaiTi" font-size="10px">要</text>
<text transform="matrix(1 0 0 1 47.925 15.3613)" font-family="KaiTi" font-size="10px">門</text>
<text transform="matrix(1 0 0 1 27.925 43.3613)" font-family="KaiTi" font-size="10px">弘</text>
<text transform="matrix(1 0 0 1 37.925 43.3613)" font-family="KaiTi" font-size="10px">願</text>
<text transform="matrix(1 0 0 1 47.925 43.3613)" font-family="KaiTi" font-size="10px">門</text>
<text transform="matrix(1 0 0 1 69.0259 15.3618)" font-family="KaiTi" font-size="10px">二善</text>
<text transform="matrix(1 0 0 1 69.0259 43.3613)" font-family="KaiTi" font-size="10px">二信</text>
<text transform="matrix(1 0 0 1 97.4589 8.5939)" font-family="KaiTi" font-size="10px">定善</text>
<text transform="matrix(1 0 0 1 97.4589 22.5939)" font-family="KaiTi" font-size="10px">散善</text>
<text transform="matrix(1 0 0 1 97.4589 36.5939)" font-family="KaiTi" font-size="10px">信機</text>
<text transform="matrix(1 0 0 1 97.4589 50.5939)" font-family="KaiTi" font-size="10px">信法</text>
<text transform="matrix(1 0 0 1 127.7172 50.5944)" font-family="KaiTi" font-size="10px">二行</text>
<text transform="matrix(1 0 0 1 157.1934 43.4806)" font-family="KaiTi" font-size="10px">雜行</text>
<text transform="matrix(1 0 0 1 157.1934 57.4806)" font-family="KaiTi" font-size="10px">正行</text>
<text transform="matrix(1 0 0 1 187.7833 43.48)" font-family="KaiTi" font-size="10px">拋</text>
<text transform="matrix(1 0 0 1 187.7833 57.48)" font-family="KaiTi" font-size="10px">二業</text>
<text transform="matrix(1 0 0 1 214.9411 50.8274)" font-family="KaiTi" font-size="10px">助</text>
<text transform="matrix(1 0 0 1 234.9411 50.8274)" font-family="KaiTi" font-size="10px">業</text>
<text transform="matrix(1 0 0 1 214.9411 64.8274)" font-family="KaiTi" font-size="10px">正</text>
<text transform="matrix(1 0 0 1 224.9411 64.8274)" font-family="KaiTi" font-size="10px">定</text>
<text transform="matrix(1 0 0 1 234.9411 64.8274)" font-family="KaiTi" font-size="10px">業</text>
<text transform="matrix(1 0 0 1 254.4732 50.8274)" font-family="KaiTi" font-size="10px">傍</text>
<text transform="matrix(1 0 0 1 254.4732 64.8274)" font-family="KaiTi" font-size="10px">專</text>
<line fill="none" stroke="#231815" stroke-width="0.5" stroke-miterlimit="10" x1="246.9" y1="46.9" x2="252.6" y2="46.9"/>
<line fill="none" stroke="#231815" stroke-width="0.5" stroke-miterlimit="10" x1="246.9" y1="61.1" x2="252.6" y2="61.1"/>
<g>
	<line fill="none" stroke="#000000" stroke-width="0.5" stroke-miterlimit="10" x1="149.8" y1="46.9" x2="152.7" y2="46.9"/>
	<line fill="none" stroke="#000000" stroke-width="0.5" stroke-miterlimit="10" x1="152.5" y1="40" x2="155.4" y2="40"/>
	<line fill="none" stroke="#000000" stroke-width="0.5" stroke-miterlimit="10" x1="152.5" y1="54.1" x2="155.4" y2="54.1"/>
	<line fill="none" stroke="#000000" stroke-width="0.5" stroke-miterlimit="10" x1="152.7" y1="39.7" x2="152.7" y2="54.4"/>
</g>
<g>
	<line fill="none" stroke="#000000" stroke-width="0.5" stroke-miterlimit="10" x1="208.7" y1="54" x2="211.6" y2="54"/>
	<line fill="none" stroke="#000000" stroke-width="0.5" stroke-miterlimit="10" x1="211.5" y1="47.1" x2="214.4" y2="47.1"/>
	<line fill="none" stroke="#000000" stroke-width="0.5" stroke-miterlimit="10" x1="211.5" y1="61.2" x2="214.4" y2="61.2"/>
	<line fill="none" stroke="#000000" stroke-width="0.5" stroke-miterlimit="10" x1="211.6" y1="46.8" x2="211.6" y2="61.5"/>
</g>
<g>
	<line fill="none" stroke="#000000" stroke-width="0.5" stroke-miterlimit="10" x1="90.4" y1="39.6" x2="93.3" y2="39.6"/>
	<line fill="none" stroke="#000000" stroke-width="0.5" stroke-miterlimit="10" x1="93.1" y1="32.7" x2="96" y2="32.7"/>
	<line fill="none" stroke="#000000" stroke-width="0.5" stroke-miterlimit="10" x1="93.2" y1="46.8" x2="96.1" y2="46.8"/>
	<line fill="none" stroke="#000000" stroke-width="0.5" stroke-miterlimit="10" x1="93.3" y1="32.4" x2="93.3" y2="47.1"/>
</g>
<g>
	<line fill="none" stroke="#000000" stroke-width="0.5" stroke-miterlimit="10" x1="90.4" y1="12.4" x2="93.3" y2="12.4"/>
	<line fill="none" stroke="#000000" stroke-width="0.5" stroke-miterlimit="10" x1="93.1" y1="5.5" x2="96" y2="5.5"/>
	<line fill="none" stroke="#000000" stroke-width="0.5" stroke-miterlimit="10" x1="93.2" y1="19.7" x2="96.1" y2="19.7"/>
	<line fill="none" stroke="#000000" stroke-width="0.5" stroke-miterlimit="10" x1="93.3" y1="5.2" x2="93.3" y2="19.9"/>
</g>
<line fill="none" stroke="#000000" stroke-width="0.5" stroke-miterlimit="10" x1="179.6" y1="39.9" x2="185.2" y2="39.9"/>
<line fill="none" stroke="#000000" stroke-width="0.5" stroke-miterlimit="10" x1="179.6" y1="54.1" x2="185.2" y2="54.1"/>
<line fill="none" stroke="#000000" stroke-width="0.5" stroke-miterlimit="10" x1="59.8" y1="39.7" x2="65.4" y2="39.7"/>
<line fill="none" stroke="#000000" stroke-width="0.5" stroke-miterlimit="10" x1="120.1" y1="46.9" x2="125.8" y2="46.9"/>
<line fill="none" stroke="#000000" stroke-width="0.5" stroke-miterlimit="10" x1="59.8" y1="12.4" x2="65.4" y2="12.4"/>
<g>
	<line fill="none" stroke="#000000" stroke-width="0.5" stroke-miterlimit="10" x1="20.3" y1="26" x2="23.2" y2="26"/>
	<line fill="none" stroke="#000000" stroke-width="0.5" stroke-miterlimit="10" x1="23.2" y1="12.3" x2="26.1" y2="12.3"/>
	<line fill="none" stroke="#000000" stroke-width="0.5" stroke-miterlimit="10" x1="23.2" y1="39.7" x2="26.1" y2="39.7"/>
	<line fill="none" stroke="#000000" stroke-width="0.5" stroke-miterlimit="10" x1="23.2" y1="12.1" x2="23.2" y2="40"/>
</g>
</svg>
