<?xml version="1.0" encoding="utf-8"?>
<!-- Generator: Adobe Illustrator 22.0.1, SVG Export Plug-In . SVG Version: 6.00 Build 0)  -->
<svg version="1.1" baseProfile="tiny" id="图层_1"
	 xmlns="http://www.w3.org/2000/svg" xmlns:xlink="http://www.w3.org/1999/xlink" x="0px" y="0px" viewBox="0 0 159 66.9"
	 xml:space="preserve">
<text transform="matrix(1 0 0 1 0 36.5938)" font-family="KaiTi" font-size="10px">二行得失</text>
<text transform="matrix(1 0 0 1 48.9351 8.5937)" font-family="KaiTi" font-size="10px">亲</text>
<text transform="matrix(1 0 0 1 73.9351 8.5937)" font-family="KaiTi" font-size="10px">疏</text>
<text transform="matrix(1 0 0 1 98.9351 8.5937)" font-family="KaiTi" font-size="10px">对</text>
<text transform="matrix(1 0 0 1 48.9351 22.5937)" font-family="KaiTi" font-size="10px">近</text>
<text transform="matrix(1 0 0 1 73.9351 22.5937)" font-family="KaiTi" font-size="10px">远</text>
<text transform="matrix(1 0 0 1 98.9351 22.5937)" font-family="KaiTi" font-size="10px">对</text>
<text transform="matrix(1 0 0 1 48.9351 36.5937)" font-family="KaiTi" font-size="10px">无</text>
<text transform="matrix(1 0 0 1 61.415 36.5937)" font-family="KaiTi" font-size="10px">间</text>
<text transform="matrix(1 0 0 1 73.895 36.5937)" font-family="KaiTi" font-size="10px">有</text>
<text transform="matrix(1 0 0 1 86.375 36.5937)" font-family="KaiTi" font-size="10px">间</text>
<text transform="matrix(1 0 0 1 98.855 36.5937)" font-family="KaiTi" font-size="10px">对</text>
<text transform="matrix(1 0 0 1 48.9351 50.5937)" font-family="KaiTi" font-size="10px">不</text>
<text transform="matrix(1 0 0 1 58.9351 50.5937)" font-family="KaiTi" font-size="10px">回</text>
<text transform="matrix(1 0 0 1 68.9351 50.5937)" font-family="KaiTi" font-size="10px">向</text>
<text transform="matrix(1 0 0 1 78.9351 50.5937)" font-family="KaiTi" font-size="10px">回</text>
<text transform="matrix(1 0 0 1 88.9351 50.5937)" font-family="KaiTi" font-size="10px">向</text>
<text transform="matrix(1 0 0 1 98.9351 50.5937)" font-family="KaiTi" font-size="10px">对</text>
<text transform="matrix(1 0 0 1 48.9351 64.5938)" font-family="KaiTi" font-size="10px">纯</text>
<text transform="matrix(1 0 0 1 73.9351 64.5938)" font-family="KaiTi" font-size="10px">杂</text>
<text transform="matrix(1 0 0 1 98.9351 64.5938)" font-family="KaiTi" font-size="10px">对</text>
<text transform="matrix(1 0 0 1 118.9921 36.5938)" font-family="KaiTi" font-size="10px">五番相对</text>
<g>
	<line fill="none" stroke="#000000" stroke-width="0.5" stroke-miterlimit="10" x1="43.6" y1="4.9" x2="43.6" y2="61.3"/>
	<line fill="none" stroke="#000000" stroke-width="0.5" stroke-miterlimit="10" x1="43.4" y1="5.1" x2="46.3" y2="5.1"/>
	<line fill="none" stroke="#000000" stroke-width="0.5" stroke-miterlimit="10" x1="43.4" y1="61.2" x2="46.3" y2="61.2"/>
	<line fill="none" stroke="#000000" stroke-width="0.5" stroke-miterlimit="10" x1="40.6" y1="32.9" x2="43.5" y2="32.9"/>
</g>
<g>
	<line fill="none" stroke="#000000" stroke-width="0.5" stroke-miterlimit="10" x1="113.8" y1="4.9" x2="113.8" y2="61.4"/>
	<line fill="none" stroke="#000000" stroke-width="0.5" stroke-miterlimit="10" x1="110.9" y1="5.1" x2="113.8" y2="5.1"/>
	<line fill="none" stroke="#000000" stroke-width="0.5" stroke-miterlimit="10" x1="110.9" y1="61.2" x2="113.8" y2="61.2"/>
	<line fill="none" stroke="#000000" stroke-width="0.5" stroke-miterlimit="10" x1="113.8" y1="32.9" x2="116.7" y2="32.9"/>
</g>
</svg>
