<?xml version="1.0" encoding="utf-8"?>
<!-- Generator: Adobe Illustrator 21.0.0, SVG Export Plug-In . SVG Version: 6.00 Build 0)  -->
<svg version="1.1" id="图层_1" xmlns="http://www.w3.org/2000/svg" xmlns:xlink="http://www.w3.org/1999/xlink" x="0px" y="0px"
	 viewBox="0 0 252 66.4" style="enable-background:new 0 0 252 66.4;" xml:space="preserve">
<style type="text/css">
	.st0{font-family:'KaiTi';}
	.st1{font-size:10px;}
	.st2{letter-spacing:5;}
	.st3{font-family:'DFKaiShu-SB-Estd-BF';}
	.st4{fill:none;stroke:#000000;stroke-width:0.5;stroke-miterlimit:10;}
</style>
<text transform="matrix(1 0 0 1 0 22.5938)" class="st0 st1">佛光名</text>
<text transform="matrix(1 0 0 1 40 8.5938)"><tspan x="0" y="0" class="st0 st1">色光</tspan><tspan x="0" y="28" class="st0 st1">心光</tspan></text>
<text transform="matrix(1 0 0 1 71 8.5938)"><tspan x="0" y="0" class="st0 st1">遍照一切</tspan><tspan x="0" y="28" class="st0 st1">唯摄念佛</tspan></text>
<text transform="matrix(1 0 0 1 121 22.5938)"><tspan x="0" y="0" class="st0 st1">平等义</tspan><tspan x="0" y="14" class="st0 st1">本愿义</tspan><tspan x="0" y="28" class="st0 st1">三缘义</tspan></text>
<text transform="matrix(1 0 0 1 161 36.5938)"><tspan x="0" y="0" class="st0 st1">亲</tspan><tspan x="10" y="0" class="st0 st1 st2"> </tspan><tspan x="20" y="0" class="st0 st1">缘</tspan><tspan x="0" y="14" class="st0 st1">近</tspan><tspan x="10" y="14" class="st0 st1 st2"> </tspan><tspan x="20" y="14" class="st0 st1">缘</tspan><tspan x="0" y="28" class="st0 st1">增上缘</tspan></text>
<text transform="matrix(1 0 0 1 202 36.5938)"><tspan x="0" y="0" class="st0 st1">三业</tspan><tspan x="0" y="14" class="st0 st1">平生</tspan><tspan x="20" y="14" class="st3 st1">、</tspan><tspan x="30" y="14" class="st0 st1">临终</tspan><tspan x="0" y="28" class="st0 st1">临终</tspan></text>
<g>
	<line class="st4" x1="34.6" y1="5.4" x2="34.6" y2="33.6"/>
	<line class="st4" x1="34.6" y1="5.4" x2="37.3" y2="5.4"/>
	<line class="st4" x1="34.6" y1="33.6" x2="37.3" y2="33.6"/>
	<line class="st4" x1="34.6" y1="19.5" x2="31.9" y2="19.5"/>
</g>
<line class="st4" x1="62.1" y1="5.4" x2="67.6" y2="5.4"/>
<line class="st4" x1="62.1" y1="33.6" x2="67.6" y2="33.6"/>
<g>
	<line class="st4" x1="116" y1="19.5" x2="116" y2="47.8"/>
	<line class="st4" x1="116" y1="19.5" x2="118.7" y2="19.5"/>
	<line class="st4" x1="116" y1="47.8" x2="118.7" y2="47.8"/>
	<line class="st4" x1="116" y1="33.6" x2="113.2" y2="33.6"/>
</g>
<g>
	<line class="st4" x1="155.3" y1="33.6" x2="155.3" y2="61.9"/>
	<line class="st4" x1="155.3" y1="33.6" x2="158" y2="33.6"/>
	<line class="st4" x1="155.3" y1="61.9" x2="158" y2="61.9"/>
	<line class="st4" x1="155.3" y1="47.8" x2="152.6" y2="47.8"/>
</g>
<line class="st4" x1="193.5" y1="33.6" x2="199" y2="33.6"/>
<line class="st4" x1="193.5" y1="47.8" x2="199" y2="47.8"/>
<line class="st4" x1="193.5" y1="61.9" x2="199" y2="61.9"/>
</svg>
