<?xml version="1.0" encoding="utf-8"?>
<!-- Generator: Adobe Illustrator 21.0.0, SVG Export Plug-In . SVG Version: 6.00 Build 0)  -->
<svg version="1.1" id="图层_1" xmlns="http://www.w3.org/2000/svg" xmlns:xlink="http://www.w3.org/1999/xlink" x="0px" y="0px"
	 viewBox="0 0 302.7 207" style="enable-background:new 0 0 302.7 207;" xml:space="preserve">
<style type="text/css">
	.st0{font-family:'KaiTi';}
	.st1{font-size:10px;}
	.st2{font-family:'DFKaiShu-SB-Estd-BF';}
	.st3{letter-spacing:5;}
	.st4{fill:none;stroke:#000000;stroke-width:0.5;stroke-miterlimit:10;}
</style>
<text transform="matrix(1 0 0 1 109.8335 15.594)"><tspan x="0" y="0" class="st0 st1">定善</tspan><tspan x="20" y="0" class="st2 st1">：</tspan><tspan x="30" y="0" class="st0 st1">息虑凝心之十三定观</tspan><tspan x="0" y="14" class="st0 st1">散善</tspan><tspan x="20" y="14" class="st2 st1">：</tspan><tspan x="30" y="14" class="st0 st1">废恶修善之三福九品</tspan><tspan x="0" y="28" class="st0 st1">大愿</tspan><tspan x="20" y="28" class="st2 st1">：</tspan><tspan x="30" y="28" class="st0 st1">五劫思惟之本愿(为我发)</tspan><tspan x="0" y="42" class="st0 st1">大业</tspan><tspan x="20" y="42" class="st2 st1">：</tspan><tspan x="30" y="42" class="st0 st1">兆载永劫之万行(为我修)</tspan><tspan x="0" y="56" class="st0 st1 st3">   </tspan><tspan x="30" y="56" class="st0 st1">名号无上功德力</tspan><tspan x="0" y="63" class="st0 st1">大力</tspan><tspan x="20" y="63" class="st2 st1">：</tspan><tspan x="30" y="63" class="st2 st1 st3">       </tspan><tspan x="100" y="63" class="st0 st1">(为我成)</tspan><tspan x="0" y="70" class="st2 st1 st3">   </tspan><tspan x="30" y="70" class="st0 st1">光明无碍摄取力</tspan></text>
<g>
	<line class="st4" x1="103.2" y1="39.8" x2="103.2" y2="74.8"/>
	<line class="st4" x1="103.2" y1="39.8" x2="106.9" y2="39.8"/>
	<line class="st4" x1="103.2" y1="74.8" x2="106.9" y2="74.8"/>
	<line class="st4" x1="103.2" y1="57.3" x2="99.4" y2="57.3"/>
</g>
<g>
	<line class="st4" x1="103.2" y1="12" x2="103.2" y2="26.3"/>
	<line class="st4" x1="103.2" y1="12" x2="106.9" y2="12"/>
	<line class="st4" x1="103.2" y1="26.3" x2="106.9" y2="26.3"/>
	<line class="st4" x1="103.2" y1="19.1" x2="99.4" y2="19.1"/>
</g>
<g>
	<line class="st4" x1="255.9" y1="74.8" x2="255.9" y2="39.8"/>
	<line class="st4" x1="256" y1="74.8" x2="252.3" y2="74.8"/>
	<line class="st4" x1="256" y1="39.8" x2="252.3" y2="39.8"/>
	<line class="st4" x1="255.9" y1="57.3" x2="259.7" y2="57.3"/>
</g>
<g>
	<line class="st4" x1="256" y1="26.3" x2="256" y2="12"/>
	<line class="st4" x1="256" y1="26.3" x2="232.6" y2="26.3"/>
	<line class="st4" x1="256" y1="12" x2="232.6" y2="12"/>
	<line class="st4" x1="255.9" y1="19.1" x2="259.7" y2="19.1"/>
</g>
<text transform="matrix(1 0 0 1 262.7085 22.594)"><tspan x="0" y="0" class="st0 st1">自力回向</tspan><tspan x="0" y="38.5" class="st0 st1">他力回向</tspan></text>
<text transform="matrix(1 0 0 1 76.4585 22.594)"><tspan x="0" y="0" class="st0 st1">要门</tspan><tspan x="0" y="38.5" class="st0 st1">弘愿</tspan></text>
<g>
	<line class="st4" x1="69.8" y1="19.1" x2="69.8" y2="57.3"/>
	<line class="st4" x1="69.8" y1="19.1" x2="73.5" y2="19.1"/>
	<line class="st4" x1="69.8" y1="57.3" x2="73.5" y2="57.3"/>
	<line class="st4" x1="69.8" y1="38.2" x2="66" y2="38.2"/>
</g>
<text transform="matrix(1 0 0 1 33.4585 8.594)"><tspan x="0" y="0" class="st0 st1">圣道门</tspan><tspan x="0" y="33.3" class="st0 st1">净土门</tspan></text>
<g>
	<line class="st4" x1="26.8" y1="4.8" x2="26.8" y2="38.2"/>
	<line class="st4" x1="26.8" y1="4.8" x2="30.5" y2="4.8"/>
	<line class="st4" x1="26.8" y1="38.2" x2="30.5" y2="38.2"/>
	<line class="st4" x1="26.8" y1="21.5" x2="23" y2="21.5"/>
</g>
<text transform="matrix(1 0 0 1 3.051758e-05 25.1566)" class="st0 st1">佛法</text>
<text transform="matrix(1 0 0 1 -7.629395e-05 144.498)" class="st0 st1">观经</text>
<text transform="matrix(1 0 0 1 30.3503 119.6654)" class="st0 st1">定善</text>
<text transform="matrix(1 0 0 1 60.429 141.199)" class="st0 st1">上</text>
<text transform="matrix(1 0 0 1 73.929 141.199)" class="st0 st1">三</text>
<text transform="matrix(1 0 0 1 87.429 141.199)" class="st0 st1">品</text>
<text transform="matrix(1 0 0 1 60.429 169.199)" class="st0 st1">中</text>
<text transform="matrix(1 0 0 1 60.429 197.1991)" class="st0 st1">下</text>
<text transform="matrix(1 0 0 1 73.929 197.1991)" class="st0 st1">三</text>
<text transform="matrix(1 0 0 1 87.429 197.1991)" class="st0 st1">品</text>
<text transform="matrix(1 0 0 1 77.7756 155.1986)" class="st0 st1">上品</text>
<text transform="matrix(1 0 0 1 77.7756 169.1986)" class="st0 st1">中品</text>
<text transform="matrix(1 0 0 1 77.7756 183.1987)" class="st0 st1">下品</text>
<text transform="matrix(1 0 0 1 139.0137 190.5984)" class="st0 st1">显(万行随一)</text>
<text transform="matrix(1 0 0 1 139.0137 204.5984)" class="st0 st1">隐(非定非散)</text>
<text transform="matrix(1 0 0 1 212.4251 119.6654)" class="st0 st1">十三定观</text>
<text transform="matrix(1 0 0 1 262.4645 142.8998)" class="st0 st1">方便要门</text>
<text transform="matrix(1 0 0 1 108.9564 141.199)" class="st0 st1">行福</text>
<text transform="matrix(1 0 0 1 108.9564 183.1991)" class="st0 st1">世福</text>
<text transform="matrix(1 0 0 1 108.9564 197.1991)" class="st0 st1">念佛</text>
<text transform="matrix(1 0 0 1 108.9567 162.3662)" class="st0 st1">戒福</text>
<line class="st4" x1="71" y1="166.5" x2="73.9" y2="166.5"/>
<line class="st4" x1="73.9" y1="152.8" x2="76.8" y2="152.8"/>
<line class="st4" x1="73.9" y1="180.2" x2="76.8" y2="180.2"/>
<line class="st4" x1="73.9" y1="152.6" x2="73.9" y2="180.5"/>
<line class="st4" x1="53.1" y1="166.4" x2="56" y2="166.4"/>
<line class="st4" x1="56" y1="138" x2="58.9" y2="138"/>
<line class="st4" x1="56" y1="193.6" x2="58.9" y2="193.6"/>
<line class="st4" x1="56" y1="137.7" x2="56" y2="193.9"/>
<line class="st4" x1="21.9" y1="141.5" x2="24.8" y2="141.5"/>
<line class="st4" x1="24.8" y1="116.7" x2="27.7" y2="116.7"/>
<line class="st4" x1="24.8" y1="166.4" x2="27.7" y2="166.4"/>
<line class="st4" x1="24.8" y1="116.5" x2="24.8" y2="166.7"/>
<line class="st4" x1="100.2" y1="137.7" x2="105.9" y2="137.7"/>
<line class="st4" x1="100.2" y1="180.2" x2="105.9" y2="180.2"/>
<line class="st4" x1="131.3" y1="179.2" x2="203.5" y2="179.2"/>
<line class="st4" x1="131.3" y1="159.3" x2="203.5" y2="159.3"/>
<line class="st4" x1="131.3" y1="137.7" x2="203.5" y2="137.7"/>
<line class="st4" x1="100.2" y1="193.6" x2="105.9" y2="193.6"/>
<line class="st4" x1="197.8" y1="186.8" x2="203.5" y2="186.8"/>
<line class="st4" x1="197.8" y1="201.2" x2="258" y2="201.2"/>
<line class="st4" x1="203.5" y1="162.7" x2="209.3" y2="162.7"/>
<g>
	<line class="st4" x1="103.8" y1="159.3" x2="106.7" y2="159.3"/>
	<line class="st4" x1="101" y1="152.4" x2="103.9" y2="152.4"/>
	<line class="st4" x1="101" y1="166.6" x2="103.9" y2="166.6"/>
	<line class="st4" x1="103.9" y1="152.2" x2="103.9" y2="166.8"/>
</g>
<g>
	<line class="st4" x1="131.3" y1="193.7" x2="134.2" y2="193.7"/>
	<line class="st4" x1="134.2" y1="186.8" x2="137.1" y2="186.8"/>
	<line class="st4" x1="134.2" y1="201" x2="137.1" y2="201"/>
	<line class="st4" x1="134.2" y1="186.5" x2="134.2" y2="201.2"/>
</g>
<line class="st4" x1="203.5" y1="137.5" x2="203.5" y2="187"/>
<text transform="matrix(1 0 0 1 212.4252 165.8455)" class="st0 st1">三福九品</text>
<line class="st4" x1="257.4" y1="139.7" x2="260.3" y2="139.7"/>
<line class="st4" x1="254.5" y1="116.4" x2="257.4" y2="116.4"/>
<line class="st4" x1="254.5" y1="162.5" x2="257.4" y2="162.5"/>
<line class="st4" x1="257.4" y1="116.2" x2="257.4" y2="162.7"/>
<text transform="matrix(1 0 0 1 262.4645 205.1655)" class="st0 st1">真实弘愿</text>
<text transform="matrix(1 0 0 1 30.3503 169.0669)" class="st0 st1">散善</text>
<line class="st4" x1="53.1" y1="116.5" x2="209.3" y2="116.5"/>
</svg>
