<?xml version="1.0" encoding="utf-8"?>
<!-- Generator: Adobe Illustrator 21.0.0, SVG Export Plug-In . SVG Version: 6.00 Build 0)  -->
<svg version="1.1" id="图层_1" xmlns="http://www.w3.org/2000/svg" xmlns:xlink="http://www.w3.org/1999/xlink" x="0px" y="0px"
	 viewBox="0 0 247 167.2" style="enable-background:new 0 0 247 167.2;" xml:space="preserve">
<style type="text/css">
	.st0{enable-background:new    ;}
	.st1{font-family:'KaiTi';}
	.st2{font-size:10px;}
	.st3{letter-spacing:5;}
	.st4{fill:none;stroke:#000000;stroke-width:0.5;stroke-miterlimit:10;}
</style>
<text transform="matrix(1 0 0 1 66.9837 123.3437)" class="st0"><tspan x="0" y="0" class="st1 st2">渐教</tspan><tspan x="20" y="0" class="st1 st2 st3"> </tspan><tspan x="0" y="28" class="st1 st2">顿教</tspan></text>
<text transform="matrix(1 0 0 1 33.75 109.3437)" class="st0"><tspan x="0" y="0" class="st1 st2">小乘</tspan><tspan x="0" y="28" class="st1 st2">大乘</tspan></text>
<g>
	<line class="st4" x1="60.5" y1="119.8" x2="60.5" y2="148.2"/>
	<line class="st4" x1="60.5" y1="119.8" x2="64.3" y2="119.8"/>
	<line class="st4" x1="60.5" y1="148.2" x2="64.3" y2="148.2"/>
	<line class="st4" x1="60.5" y1="134.7" x2="56.8" y2="134.7"/>
</g>
<g>
	<line class="st4" x1="26.9" y1="105" x2="26.9" y2="134.7"/>
	<line class="st4" x1="26.9" y1="105" x2="30.7" y2="105"/>
	<line class="st4" x1="26.9" y1="134.7" x2="30.7" y2="134.7"/>
	<line class="st4" x1="26.9" y1="119.8" x2="23.2" y2="119.8"/>
</g>
<text transform="matrix(1 0 0 1 -4.577637e-05 123.3441)" class="st1 st2">佛法</text>
<text transform="matrix(1 0 0 1 66.9835 29.5933)" class="st0"><tspan x="0" y="0" class="st1 st2">圣道门</tspan><tspan x="30" y="0" class="st1 st2 st3"> </tspan><tspan x="40" y="0" class="st1 st2">依行者心行</tspan><tspan x="90" y="0" class="st1 st2 st3"> </tspan><tspan x="100" y="0" class="st1 st2">菩提心</tspan><tspan x="130" y="0" class="st1 st2 st3"> </tspan><tspan x="140" y="0" class="st1 st2">六度万行</tspan><tspan x="0" y="14" class="st1 st2 st3">    </tspan><tspan x="40" y="14" class="st1 st2">难</tspan><tspan x="50" y="14" class="st1 st2 st3"> </tspan><tspan x="60" y="14" class="st1 st2">自力</tspan><tspan x="80" y="14" class="st1 st2 st3"> </tspan><tspan x="90" y="14" class="st1 st2">因地</tspan><tspan x="110" y="14" class="st1 st2 st3"> </tspan><tspan x="120" y="14" class="st1 st2">历劫证果不定</tspan><tspan x="0" y="42" class="st1 st2">净土门</tspan><tspan x="30" y="42" class="st1 st2 st3"> </tspan><tspan x="40" y="42" class="st1 st2">依法门利益</tspan><tspan x="90" y="42" class="st1 st2 st3"> </tspan><tspan x="100" y="42" class="st1 st2">愿生心</tspan><tspan x="130" y="42" class="st1 st2 st3"> </tspan><tspan x="140" y="42" class="st1 st2">念佛一行</tspan><tspan x="0" y="56" class="st1 st2 st3">    </tspan><tspan x="40" y="56" class="st1 st2">易</tspan><tspan x="50" y="56" class="st1 st2 st3"> </tspan><tspan x="60" y="56" class="st1 st2">他力</tspan><tspan x="80" y="56" class="st1 st2 st3"> </tspan><tspan x="90" y="56" class="st1 st2">果地</tspan><tspan x="110" y="56" class="st1 st2 st3"> </tspan><tspan x="120" y="56" class="st1 st2">一生成佛决定</tspan></text>
<text transform="matrix(1 0 0 1 33.7499 8.5937)" class="st0"><tspan x="0" y="0" class="st1 st2">小乘</tspan><tspan x="0" y="42" class="st1 st2">大乘</tspan></text>
<line class="st4" x1="99" y1="67.9" x2="104.5" y2="67.9"/>
<line class="st4" x1="99" y1="25.4" x2="104.5" y2="25.4"/>
<line class="st4" x1="159.6" y1="67.9" x2="165.1" y2="67.9"/>
<line class="st4" x1="149.5" y1="39.4" x2="155" y2="39.4"/>
<line class="st4" x1="160" y1="25.4" x2="165.5" y2="25.4"/>
<line class="st4" x1="199.4" y1="25.4" x2="204.9" y2="25.4"/>
<line class="st4" x1="179.3" y1="39.4" x2="184.8" y2="39.4"/>
<line class="st4" x1="119.2" y1="39.4" x2="124.7" y2="39.4"/>
<g>
	<line class="st4" x1="60.5" y1="25.4" x2="60.5" y2="67.9"/>
	<line class="st4" x1="60.5" y1="25.4" x2="64.3" y2="25.4"/>
	<line class="st4" x1="60.5" y1="67.9" x2="64.3" y2="67.9"/>
	<line class="st4" x1="60.5" y1="46.7" x2="56.8" y2="46.7"/>
</g>
<line class="st4" x1="199.4" y1="67.9" x2="204.9" y2="67.9"/>
<line class="st4" x1="119.2" y1="81.8" x2="124.7" y2="81.8"/>
<line class="st4" x1="149.5" y1="81.8" x2="155" y2="81.8"/>
<line class="st4" x1="179.3" y1="81.8" x2="184.8" y2="81.8"/>
<g>
	<line class="st4" x1="26.9" y1="4.2" x2="26.9" y2="46.7"/>
	<line class="st4" x1="26.9" y1="4.2" x2="30.7" y2="4.2"/>
	<line class="st4" x1="26.9" y1="46.7" x2="30.7" y2="46.7"/>
	<line class="st4" x1="26.9" y1="25.4" x2="23.2" y2="25.4"/>
</g>
<text transform="matrix(1 0 0 1 -9.155273e-05 29.5941)" class="st1 st2">佛法</text>
<g>
	<line class="st4" x1="93.7" y1="134" x2="93.7" y2="162.5"/>
	<line class="st4" x1="93.7" y1="134" x2="97.5" y2="134"/>
	<line class="st4" x1="93.7" y1="162.5" x2="97.5" y2="162.5"/>
	<line class="st4" x1="93.7" y1="148.2" x2="90" y2="148.2"/>
</g>
<text transform="matrix(1 0 0 1 100.9837 137.3436)" class="st0"><tspan x="0" y="0" class="st1 st2">圣道门</tspan><tspan x="30" y="0" class="st1 st2 st3"> </tspan><tspan x="40" y="0" class="st1 st2">断惑证理</tspan><tspan x="80" y="0" class="st1 st2 st3"> </tspan><tspan x="90" y="0" class="st1 st2">望机成渐</tspan><tspan x="0" y="28" class="st1 st2">净土门</tspan><tspan x="30" y="28" class="st1 st2 st3"> </tspan><tspan x="40" y="28" class="st1 st2">不断得证</tspan><tspan x="80" y="28" class="st1 st2 st3"> </tspan><tspan x="90" y="28" class="st1 st2">顿中之顿</tspan></text>
<line class="st4" x1="133.2" y1="134" x2="138.7" y2="134"/>
<line class="st4" x1="133.2" y1="162.5" x2="138.7" y2="162.5"/>
<line class="st4" x1="183.9" y1="134" x2="189.4" y2="134"/>
<line class="st4" x1="183.9" y1="162.5" x2="189.4" y2="162.5"/>
</svg>
