<?xml version="1.0" encoding="utf-8"?>
<!-- Generator: Adobe Illustrator 21.0.0, SVG Export Plug-In . SVG Version: 6.00 Build 0)  -->
<svg version="1.1" baseProfile="tiny" id="圖層_1"
	 xmlns="http://www.w3.org/2000/svg" xmlns:xlink="http://www.w3.org/1999/xlink" x="0px" y="0px" viewBox="0 0 283.5 85.9"
	 overflow="scroll" xml:space="preserve">
<text transform="matrix(1 0 0 1 0 22.8623)" font-family="KaiTi" font-size="10px">佛法</text>
<text transform="matrix(1 0 0 1 29.5493 8.5938)" font-family="KaiTi" font-size="10px">聖道門</text>
<text transform="matrix(1 0 0 1 68.2476 20.3789)" font-family="KaiTi" font-size="10px">要門</text>
<text transform="matrix(1 0 0 1 68.2476 55.3315)" font-family="KaiTi" font-size="10px">弘願</text>
<text transform="matrix(1 0 0 1 96.9956 13.6309)" font-family="KaiTi" font-size="10px">定</text>
<text transform="matrix(1 0 0 1 106.9956 13.6309)" font-family="KaiTi" font-size="10px">善</text>
<text transform="matrix(1 0 0 1 116.9956 13.6309)" font-family="KaiTi" font-size="10px">：</text>
<text transform="matrix(1 0 0 1 126.9956 13.6309)" font-family="KaiTi" font-size="10px">息</text>
<text transform="matrix(1 0 0 1 138.9253 13.6309)" font-family="KaiTi" font-size="10px">慮</text>
<text transform="matrix(1 0 0 1 150.856 13.6309)" font-family="KaiTi" font-size="10px">凝</text>
<text transform="matrix(1 0 0 1 162.7856 13.6309)" font-family="KaiTi" font-size="10px">心</text>
<text transform="matrix(1 0 0 1 174.7153 13.6309)" font-family="KaiTi" font-size="10px">之</text>
<text transform="matrix(1 0 0 1 186.646 13.6309)" font-family="KaiTi" font-size="10px">十</text>
<text transform="matrix(1 0 0 1 198.5757 13.6309)" font-family="KaiTi" font-size="10px">三</text>
<text transform="matrix(1 0 0 1 210.5054 13.6309)" font-family="KaiTi" font-size="10px">定</text>
<text transform="matrix(1 0 0 1 222.436 13.6309)" font-family="KaiTi" font-size="10px">觀</text>
<text transform="matrix(1 0 0 1 96.9956 27.6309)" font-family="KaiTi" font-size="10px">散</text>
<text transform="matrix(1 0 0 1 106.9956 27.6309)" font-family="KaiTi" font-size="10px">善</text>
<text transform="matrix(1 0 0 1 116.9956 27.6309)" font-family="KaiTi" font-size="10px">：</text>
<text transform="matrix(1 0 0 1 126.9956 27.6309)" font-family="KaiTi" font-size="10px">廢</text>
<text transform="matrix(1 0 0 1 138.9253 27.6309)" font-family="KaiTi" font-size="10px">惡</text>
<text transform="matrix(1 0 0 1 150.856 27.6309)" font-family="KaiTi" font-size="10px">修</text>
<text transform="matrix(1 0 0 1 162.7856 27.6309)" font-family="KaiTi" font-size="10px">善</text>
<text transform="matrix(1 0 0 1 174.7153 27.6309)" font-family="KaiTi" font-size="10px">之</text>
<text transform="matrix(1 0 0 1 186.646 27.6309)" font-family="KaiTi" font-size="10px">三</text>
<text transform="matrix(1 0 0 1 198.5757 27.6309)" font-family="KaiTi" font-size="10px">福</text>
<text transform="matrix(1 0 0 1 210.5054 27.6309)" font-family="KaiTi" font-size="10px">九</text>
<text transform="matrix(1 0 0 1 222.436 27.6309)" font-family="KaiTi" font-size="10px">品</text>
<text transform="matrix(1 0 0 1 96.9956 41.6309)" font-family="KaiTi" font-size="10px">大</text>
<text transform="matrix(1 0 0 1 106.9956 41.6309)" font-family="KaiTi" font-size="10px">願</text>
<text transform="matrix(1 0 0 1 116.9956 41.6309)" font-family="KaiTi" font-size="10px">：</text>
<text transform="matrix(1 0 0 1 126.9956 41.6309)" font-family="KaiTi" font-size="10px">五</text>
<text transform="matrix(1 0 0 1 136.9956 41.6309)" font-family="KaiTi" font-size="10px">劫</text>
<text transform="matrix(1 0 0 1 146.9956 41.6309)" font-family="KaiTi" font-size="10px">思</text>
<text transform="matrix(1 0 0 1 156.9956 41.6309)" font-family="KaiTi" font-size="10px">惟</text>
<text transform="matrix(1 0 0 1 166.9956 41.6309)" font-family="KaiTi" font-size="10px">之</text>
<text transform="matrix(1 0 0 1 176.9956 41.6309)" font-family="KaiTi" font-size="10px">本</text>
<text transform="matrix(1 0 0 1 186.9956 41.6309)" font-family="KaiTi" font-size="10px">願</text>
<text transform="matrix(1 0 0 1 196.9956 41.6309)" font-family="KaiTi" font-size="10px">(</text>
<text transform="matrix(1 0 0 1 200.0034 41.6309)" font-family="KaiTi" font-size="10px">為</text>
<text transform="matrix(1 0 0 1 210.0034 41.6309)" font-family="KaiTi" font-size="10px">我</text>
<text transform="matrix(1 0 0 1 220.0034 41.6309)" font-family="KaiTi" font-size="10px">發</text>
<text transform="matrix(1 0 0 1 230.0034 41.6309)" font-family="KaiTi" font-size="10px">)</text>
<text transform="matrix(1 0 0 1 96.9956 55.6309)" font-family="KaiTi" font-size="10px">大</text>
<text transform="matrix(1 0 0 1 106.9956 55.6309)" font-family="KaiTi" font-size="10px">業</text>
<text transform="matrix(1 0 0 1 116.9956 55.6309)" font-family="KaiTi" font-size="10px">：</text>
<text transform="matrix(1 0 0 1 126.9956 55.6309)" font-family="KaiTi" font-size="10px">兆</text>
<text transform="matrix(1 0 0 1 136.9956 55.6309)" font-family="KaiTi" font-size="10px">載</text>
<text transform="matrix(1 0 0 1 146.9956 55.6309)" font-family="KaiTi" font-size="10px">永</text>
<text transform="matrix(1 0 0 1 156.9956 55.6309)" font-family="KaiTi" font-size="10px">劫</text>
<text transform="matrix(1 0 0 1 166.9956 55.6309)" font-family="KaiTi" font-size="10px">之</text>
<text transform="matrix(1 0 0 1 176.9956 55.6309)" font-family="KaiTi" font-size="10px">萬</text>
<text transform="matrix(1 0 0 1 186.9956 55.6309)" font-family="KaiTi" font-size="10px">行</text>
<text transform="matrix(1 0 0 1 196.9956 55.6309)" font-family="KaiTi" font-size="10px">(</text>
<text transform="matrix(1 0 0 1 200.0034 55.6309)" font-family="KaiTi" font-size="10px">為</text>
<text transform="matrix(1 0 0 1 210.0034 55.6309)" font-family="KaiTi" font-size="10px">我</text>
<text transform="matrix(1 0 0 1 220.0034 55.6309)" font-family="KaiTi" font-size="10px">修</text>
<text transform="matrix(1 0 0 1 230.0034 55.6309)" font-family="KaiTi" font-size="10px">)</text>
<text transform="matrix(1 0 0 1 96.9956 69.6309)" font-family="KaiTi" font-size="10px">大</text>
<text transform="matrix(1 0 0 1 106.9956 69.6309)" font-family="KaiTi" font-size="10px">力</text>
<text transform="matrix(1 0 0 1 116.9956 69.6309)" font-family="KaiTi" font-size="10px">：</text>
<text transform="matrix(1 0 0 1 126.9956 69.6309)" font-family="KaiTi" font-size="10px">名</text>
<text transform="matrix(1 0 0 1 136.9956 69.6309)" font-family="KaiTi" font-size="10px">號</text>
<text transform="matrix(1 0 0 1 146.9956 69.6309)" font-family="KaiTi" font-size="10px">無</text>
<text transform="matrix(1 0 0 1 156.9956 69.6309)" font-family="KaiTi" font-size="10px">上</text>
<text transform="matrix(1 0 0 1 166.9956 69.6309)" font-family="KaiTi" font-size="10px">功</text>
<text transform="matrix(1 0 0 1 176.9956 69.6309)" font-family="KaiTi" font-size="10px">德</text>
<text transform="matrix(1 0 0 1 186.9956 69.6309)" font-family="KaiTi" font-size="10px">力</text>
<text transform="matrix(1 0 0 1 126.9956 83.6309)" font-family="KaiTi" font-size="10px">光</text>
<text transform="matrix(1 0 0 1 136.9956 83.6309)" font-family="KaiTi" font-size="10px">明</text>
<text transform="matrix(1 0 0 1 146.9956 83.6309)" font-family="KaiTi" font-size="10px">無</text>
<text transform="matrix(1 0 0 1 156.9956 83.6309)" font-family="KaiTi" font-size="10px">礙</text>
<text transform="matrix(1 0 0 1 166.9956 83.6309)" font-family="KaiTi" font-size="10px">攝</text>
<text transform="matrix(1 0 0 1 176.9956 83.6309)" font-family="KaiTi" font-size="10px">取</text>
<text transform="matrix(1 0 0 1 186.9956 83.6309)" font-family="KaiTi" font-size="10px">力</text>
<text transform="matrix(1 0 0 1 196.9956 83.6309)" font-family="KaiTi" font-size="10px">(</text>
<text transform="matrix(1 0 0 1 200.0034 83.6309)" font-family="KaiTi" font-size="10px">為</text>
<text transform="matrix(1 0 0 1 210.0034 83.6309)" font-family="KaiTi" font-size="10px">我</text>
<text transform="matrix(1 0 0 1 220.0034 83.6309)" font-family="KaiTi" font-size="10px">成</text>
<text transform="matrix(1 0 0 1 230.0034 83.6309)" font-family="KaiTi" font-size="10px">)</text>
<text transform="matrix(1 0 0 1 243.4653 20.4629)" font-family="KaiTi" font-size="10px">自力迴向</text>
<text transform="matrix(1 0 0 1 243.4653 62.4629)" font-family="KaiTi" font-size="10px">他力迴向</text>
<g>
	<line fill="none" stroke="#000000" stroke-width="0.5" stroke-miterlimit="10" x1="89.5" y1="17.1" x2="92.3" y2="17.1"/>
	<line fill="none" stroke="#000000" stroke-width="0.5" stroke-miterlimit="10" x1="92.3" y1="10.2" x2="95.2" y2="10.2"/>
	<line fill="none" stroke="#000000" stroke-width="0.5" stroke-miterlimit="10" x1="92.3" y1="24.4" x2="95.2" y2="24.4"/>
	<line fill="none" stroke="#000000" stroke-width="0.5" stroke-miterlimit="10" x1="92.3" y1="10" x2="92.3" y2="24.6"/>
</g>
<g>
	<line fill="none" stroke="#000000" stroke-width="0.5" stroke-miterlimit="10" x1="238.2" y1="17.1" x2="241.1" y2="17.1"/>
	<line fill="none" stroke="#000000" stroke-width="0.5" stroke-miterlimit="10" x1="235.5" y1="10.2" x2="238.4" y2="10.2"/>
	<line fill="none" stroke="#000000" stroke-width="0.5" stroke-miterlimit="10" x1="235.5" y1="24.4" x2="238.4" y2="24.4"/>
	<line fill="none" stroke="#000000" stroke-width="0.5" stroke-miterlimit="10" x1="238.4" y1="10" x2="238.4" y2="24.6"/>
</g>
<g>
	<line fill="none" stroke="#000000" stroke-width="0.5" stroke-miterlimit="10" x1="89.5" y1="52" x2="92.3" y2="52"/>
	<line fill="none" stroke="#000000" stroke-width="0.5" stroke-miterlimit="10" x1="92.3" y1="38.2" x2="95.2" y2="38.2"/>
	<line fill="none" stroke="#000000" stroke-width="0.5" stroke-miterlimit="10" x1="92.3" y1="65.7" x2="95.2" y2="65.7"/>
	<line fill="none" stroke="#000000" stroke-width="0.5" stroke-miterlimit="10" x1="92.3" y1="38" x2="92.3" y2="66"/>
</g>
<line fill="none" stroke="#000000" stroke-width="0.5" stroke-miterlimit="10" x1="21.9" y1="19.7" x2="24.8" y2="19.7"/>
<line fill="none" stroke="#000000" stroke-width="0.5" stroke-miterlimit="10" x1="24.8" y1="4.9" x2="27.7" y2="4.9"/>
<line fill="none" stroke="#000000" stroke-width="0.5" stroke-miterlimit="10" x1="24.8" y1="34.6" x2="27.7" y2="34.6"/>
<line fill="none" stroke="#000000" stroke-width="0.5" stroke-miterlimit="10" x1="24.8" y1="4.6" x2="24.8" y2="34.8"/>
<line fill="none" stroke="#000000" stroke-width="0.5" stroke-miterlimit="10" x1="60.3" y1="34.6" x2="63.2" y2="34.6"/>
<line fill="none" stroke="#000000" stroke-width="0.5" stroke-miterlimit="10" x1="63.4" y1="17.1" x2="66.3" y2="17.1"/>
<line fill="none" stroke="#000000" stroke-width="0.5" stroke-miterlimit="10" x1="63.4" y1="52" x2="66.3" y2="52"/>
<line fill="none" stroke="#000000" stroke-width="0.5" stroke-miterlimit="10" x1="63.4" y1="16.9" x2="63.4" y2="52.3"/>
<g>
	<line fill="none" stroke="#000000" stroke-width="0.5" stroke-miterlimit="10" x1="235.5" y1="80.2" x2="238.4" y2="80.2"/>
	<line fill="none" stroke="#000000" stroke-width="0.5" stroke-miterlimit="10" x1="235.5" y1="38.3" x2="238.4" y2="38.3"/>
	<line fill="none" stroke="#000000" stroke-width="0.5" stroke-miterlimit="10" x1="238.2" y1="59.4" x2="241.1" y2="59.4"/>
	<line fill="none" stroke="#000000" stroke-width="0.5" stroke-miterlimit="10" x1="238.4" y1="38" x2="238.4" y2="80.5"/>
</g>
<text transform="matrix(1 0 0 1 29.5493 38.2329)" font-family="KaiTi" font-size="10px">淨土門</text>
<g>
	<line fill="none" stroke="#000000" stroke-width="0.5" stroke-miterlimit="10" x1="44.6" y1="14.3" x2="44.6" y2="22.7"/>
	<g>
		<polygon points="42.8,21.3 44.6,22.1 46.5,21.3 44.6,25.7 		"/>
	</g>
</g>
<g>
	<line fill="none" stroke="#000000" stroke-width="0.5" stroke-miterlimit="10" x1="78.3" y1="27.8" x2="78.3" y2="36.2"/>
	<g>
		<polygon points="76.5,34.8 78.3,35.6 80.2,34.8 78.3,39.2 		"/>
	</g>
</g>
</svg>
