<?xml version="1.0" encoding="utf-8"?>
<!-- Generator: Adobe Illustrator 16.0.0, SVG Export Plug-In . SVG Version: 6.00 Build 0)  -->
<!DOCTYPE svg PUBLIC "-//W3C//DTD SVG 1.1//EN" "http://www.w3.org/Graphics/SVG/1.1/DTD/svg11.dtd">
<svg version="1.1" id="图层_1" xmlns="http://www.w3.org/2000/svg" xmlns:xlink="http://www.w3.org/1999/xlink" x="0px" y="0px"
	 width="283.465px" height="85.896px" viewBox="0 0 283.465 85.896" enable-background="new 0 0 283.465 85.896"
	 xml:space="preserve">
<text transform="matrix(1 0 0 1 0 22.8623)" font-family="'FZKTK--GBK1-0'" font-size="10">佛法</text>
<text transform="matrix(1 0 0 1 29.5493 8.5938)" font-family="'FZKTK--GBK1-0'" font-size="10">圣道门</text>
<text transform="matrix(1 0 0 1 68.2476 20.3789)" font-family="'FZKTK--GBK1-0'" font-size="10">要门</text>
<text transform="matrix(1 0 0 1 68.2476 55.3311)" font-family="'FZKTK--GBK1-0'" font-size="10">弘愿</text>
<text transform="matrix(1 0 0 1 96.9956 13.6309)"><tspan x="0" y="0" font-family="'FZKTK--GBK1-0'" font-size="10">定善：</tspan><tspan x="30" y="0" font-family="'FZKTK--GBK1-0'" font-size="10" letter-spacing="1">息虑凝心之十三定观</tspan><tspan x="0" y="14" font-family="'FZKTK--GBK1-0'" font-size="10">散善：</tspan><tspan x="30" y="14" font-family="'FZKTK--GBK1-0'" font-size="10" letter-spacing="1">废恶修善之三福九品</tspan><tspan x="0" y="28" font-family="'FZKTK--GBK1-0'" font-size="10">大愿：五劫思惟之本愿(为我发)</tspan><tspan x="0" y="42" font-family="'FZKTK--GBK1-0'" font-size="10">大业：兆载永劫之万行(为我修)</tspan><tspan x="0" y="56" font-family="'FZKTK--GBK1-0'" font-size="10">大力：名号无上功德力</tspan><tspan x="30" y="70" font-family="'FZKTK--GBK1-0'" font-size="10">光明无碍摄取力(为我成)</tspan></text>
<text transform="matrix(1 0 0 1 243.4653 20.4629)"><tspan x="0" y="0" font-family="'FZKTK--GBK1-0'" font-size="10">自力回向</tspan><tspan x="0" y="42" font-family="'FZKTK--GBK1-0'" font-size="10">他力回向</tspan></text>
<g>
	<line fill="none" stroke="#000000" stroke-width="0.5" stroke-miterlimit="10" x1="89.452" y1="17.131" x2="92.349" y2="17.131"/>
	<line fill="none" stroke="#000000" stroke-width="0.5" stroke-miterlimit="10" x1="92.349" y1="10.214" x2="95.244" y2="10.214"/>
	<line fill="none" stroke="#000000" stroke-width="0.5" stroke-miterlimit="10" x1="92.349" y1="24.381" x2="95.244" y2="24.381"/>
	<line fill="none" stroke="#000000" stroke-width="0.5" stroke-miterlimit="10" x1="92.349" y1="9.959" x2="92.349" y2="24.631"/>
</g>
<g>
	
		<line fill="none" stroke="#000000" stroke-width="0.5" stroke-miterlimit="10" x1="238.242" y1="17.131" x2="241.138" y2="17.131"/>
	
		<line fill="none" stroke="#000000" stroke-width="0.5" stroke-miterlimit="10" x1="235.466" y1="10.214" x2="238.362" y2="10.214"/>
	
		<line fill="none" stroke="#000000" stroke-width="0.5" stroke-miterlimit="10" x1="235.475" y1="24.381" x2="238.371" y2="24.381"/>
	<line fill="none" stroke="#000000" stroke-width="0.5" stroke-miterlimit="10" x1="238.363" y1="9.959" x2="238.363" y2="24.631"/>
</g>
<g>
	<line fill="none" stroke="#000000" stroke-width="0.5" stroke-miterlimit="10" x1="89.452" y1="51.997" x2="92.348" y2="51.997"/>
	<line fill="none" stroke="#000000" stroke-width="0.5" stroke-miterlimit="10" x1="92.348" y1="38.234" x2="95.244" y2="38.234"/>
	<line fill="none" stroke="#000000" stroke-width="0.5" stroke-miterlimit="10" x1="92.348" y1="65.682" x2="95.244" y2="65.682"/>
	<line fill="none" stroke="#000000" stroke-width="0.5" stroke-miterlimit="10" x1="92.348" y1="38.026" x2="92.348" y2="65.966"/>
</g>
<line fill="none" stroke="#000000" stroke-width="0.5" stroke-miterlimit="10" x1="21.904" y1="19.722" x2="24.799" y2="19.722"/>
<line fill="none" stroke="#000000" stroke-width="0.5" stroke-miterlimit="10" x1="24.799" y1="4.854" x2="27.696" y2="4.854"/>
<line fill="none" stroke="#000000" stroke-width="0.5" stroke-miterlimit="10" x1="24.799" y1="34.578" x2="27.696" y2="34.578"/>
<line fill="none" stroke="#000000" stroke-width="0.5" stroke-miterlimit="10" x1="24.799" y1="4.626" x2="24.799" y2="34.829"/>
<line fill="none" stroke="#000000" stroke-width="0.5" stroke-miterlimit="10" x1="60.329" y1="34.579" x2="63.224" y2="34.579"/>
<line fill="none" stroke="#000000" stroke-width="0.5" stroke-miterlimit="10" x1="63.356" y1="17.131" x2="66.253" y2="17.131"/>
<line fill="none" stroke="#000000" stroke-width="0.5" stroke-miterlimit="10" x1="63.356" y1="51.996" x2="66.253" y2="51.996"/>
<line fill="none" stroke="#000000" stroke-width="0.5" stroke-miterlimit="10" x1="63.356" y1="16.892" x2="63.356" y2="52.251"/>
<g>
	
		<line fill="none" stroke="#000000" stroke-width="0.5" stroke-miterlimit="10" x1="235.479" y1="80.185" x2="238.367" y2="80.185"/>
	
		<line fill="none" stroke="#000000" stroke-width="0.5" stroke-miterlimit="10" x1="235.479" y1="38.269" x2="238.367" y2="38.269"/>
	
		<line fill="none" stroke="#000000" stroke-width="0.5" stroke-miterlimit="10" x1="238.247" y1="59.355" x2="241.133" y2="59.355"/>
	<line fill="none" stroke="#000000" stroke-width="0.5" stroke-miterlimit="10" x1="238.363" y1="38.025" x2="238.363" y2="80.45"/>
</g>
<text transform="matrix(1 0 0 1 29.5493 38.2329)" font-family="'FZKTK--GBK1-0'" font-size="10">净土门</text>
<g>
	<g>
		<line fill="none" stroke="#000000" stroke-width="0.5" stroke-miterlimit="10" x1="44.633" y1="14.262" x2="44.633" y2="22.711"/>
		<g>
			<polygon points="42.781,21.307 44.633,22.094 46.484,21.307 44.633,25.696 			"/>
		</g>
	</g>
</g>
<g>
	<g>
		<line fill="none" stroke="#000000" stroke-width="0.5" stroke-miterlimit="10" x1="78.349" y1="27.809" x2="78.349" y2="36.175"/>
		<g>
			<polygon points="76.498,34.771 78.349,35.557 80.201,34.771 78.349,39.16 			"/>
		</g>
	</g>
</g>
</svg>
