<?xml version="1.0" encoding="utf-8"?>
<!-- Generator: Adobe Illustrator 21.0.0, SVG Export Plug-In . SVG Version: 6.00 Build 0)  -->
<svg version="1.1" id="图层_1" xmlns="http://www.w3.org/2000/svg" xmlns:xlink="http://www.w3.org/1999/xlink" x="0px" y="0px"
	 viewBox="0 0 345.2 85.5" style="enable-background:new 0 0 345.2 85.5;" xml:space="preserve">
<style type="text/css">
	.st0{font-family:'KaiTi';}
	.st1{font-size:10px;}
	.st2{enable-background:new    ;}
	.st3{letter-spacing:5;}
	.st4{fill:none;stroke:#000000;stroke-width:0.5;stroke-miterlimit:10;}
	.st5{font-family:'DFKaiShu-SB-Estd-BF';}
</style>
<text transform="matrix(1 0 0 1 0 22.8621)" class="st0 st1">佛法</text>
<text transform="matrix(1 0 0 1 29.5493 8.5936)" class="st0 st1">圣道门</text>
<text transform="matrix(1 0 0 1 68.2476 20.3787)" class="st0 st1">要门</text>
<text transform="matrix(1 0 0 1 68.2476 55.3313)" class="st0 st1">弘愿</text>
<text transform="matrix(1 0 0 1 97.9956 13.6307)" class="st2"><tspan x="0" y="0" class="st0 st1">定善</tspan><tspan x="0" y="14" class="st0 st1">散善</tspan><tspan x="0" y="28" class="st0 st1">大愿</tspan><tspan x="0" y="42" class="st0 st1">大业</tspan><tspan x="0" y="56" class="st0 st1">大力</tspan></text>
<text transform="matrix(1 0 0 1 130.9956 13.6307)" class="st2"><tspan x="0" y="0" class="st0 st1">息虑凝心</tspan><tspan x="0" y="14" class="st0 st1">废恶修善</tspan><tspan x="0" y="28" class="st0 st1">五劫思惟之本愿(为我发)</tspan><tspan x="0" y="42" class="st0 st1">兆载永劫之万行(为我修)</tspan><tspan x="0" y="56" class="st0 st1">无碍光明摄取力</tspan><tspan x="0" y="63" class="st0 st1 st3">       </tspan><tspan x="70" y="63" class="st0 st1">(为我成)</tspan><tspan x="0" y="70" class="st0 st1">无为无漏名号力</tspan></text>
<g>
	<line class="st4" x1="89.5" y1="17.1" x2="92.3" y2="17.1"/>
	<line class="st4" x1="92.3" y1="10.2" x2="95.2" y2="10.2"/>
	<line class="st4" x1="92.3" y1="24.4" x2="95.2" y2="24.4"/>
	<line class="st4" x1="92.3" y1="10" x2="92.3" y2="24.6"/>
</g>
<g>
	<line class="st4" x1="89.5" y1="52" x2="92.3" y2="52"/>
	<line class="st4" x1="92.3" y1="38.2" x2="95.2" y2="38.2"/>
	<line class="st4" x1="92.3" y1="65.7" x2="95.2" y2="65.7"/>
	<line class="st4" x1="92.3" y1="38" x2="92.3" y2="66"/>
</g>
<line class="st4" x1="21.9" y1="19.7" x2="24.8" y2="19.7"/>
<line class="st4" x1="24.8" y1="4.9" x2="27.7" y2="4.9"/>
<line class="st4" x1="24.8" y1="34.6" x2="27.7" y2="34.6"/>
<line class="st4" x1="24.8" y1="4.6" x2="24.8" y2="34.8"/>
<line class="st4" x1="60.3" y1="34.6" x2="63.2" y2="34.6"/>
<line class="st4" x1="63.4" y1="17.1" x2="66.3" y2="17.1"/>
<line class="st4" x1="63.4" y1="52" x2="66.3" y2="52"/>
<line class="st4" x1="63.4" y1="16.9" x2="63.4" y2="52.3"/>
<text transform="matrix(1 0 0 1 29.5493 38.2327)" class="st0 st1">净土门</text>
<line class="st4" x1="121" y1="10" x2="128.5" y2="10"/>
<line class="st4" x1="121" y1="24.4" x2="128.5" y2="24.4"/>
<line class="st4" x1="121" y1="38.2" x2="128.5" y2="38.2"/>
<line class="st4" x1="121" y1="52" x2="128.5" y2="52"/>
<line class="st4" x1="121" y1="66" x2="128.5" y2="66"/>
<line class="st4" x1="121" y1="66" x2="128.5" y2="80"/>
<g>
	<line class="st4" x1="179.7" y1="17.5" x2="176.9" y2="17.5"/>
	<line class="st4" x1="176.9" y1="24.4" x2="174" y2="24.4"/>
	<line class="st4" x1="176.9" y1="10.2" x2="174" y2="10.2"/>
	<line class="st4" x1="176.9" y1="24.6" x2="176.9" y2="10"/>
</g>
<text transform="matrix(1 0 0 1 181.7333 21.3787)"><tspan x="0" y="0" class="st0 st1">回斯二行</tspan><tspan x="40" y="0" class="st5 st1">，</tspan><tspan x="50" y="0" class="st0 st1">求愿往生</tspan></text>
<line class="st4" x1="274.2" y1="17.5" x2="281.7" y2="17.5"/>
<text transform="matrix(1 0 0 1 284.6623 21.3787)" class="st0 st1">自力回向</text>
<g>
	<line class="st4" x1="247.7" y1="59.7" x2="244.9" y2="59.7"/>
	<line class="st4" x1="244.9" y1="81.5" x2="242" y2="81.5"/>
	<line class="st4" x1="244.9" y1="38.3" x2="242" y2="38.3"/>
	<line class="st4" x1="244.9" y1="81.5" x2="244.9" y2="38"/>
</g>
<text transform="matrix(1 0 0 1 250.7334 56.3313)"><tspan x="0" y="0" class="st0 st1">一向专念</tspan><tspan x="0" y="14" class="st0 st1">佛力得生</tspan></text>
<line class="st4" x1="294.5" y1="59.7" x2="302" y2="59.7"/>
<text transform="matrix(1 0 0 1 305.1623 63.5454)" class="st0 st1">他力回向</text>
</svg>
