<?xml version="1.0" encoding="utf-8"?>
<!-- Generator: Adobe Illustrator 21.0.0, SVG Export Plug-In . SVG Version: 6.00 Build 0)  -->
<svg version="1.1" id="图层_1" xmlns="http://www.w3.org/2000/svg" xmlns:xlink="http://www.w3.org/1999/xlink" x="0px" y="0px"
	 viewBox="0 0 220 70.1" style="enable-background:new 0 0 220 70.1;" xml:space="preserve">
<style type="text/css">
	.st0{font-family:'KaiTi';}
	.st1{font-size:12px;}
	.st2{fill:none;}
	.st3{fill:none;stroke:#000000;stroke-width:0.5;stroke-miterlimit:10;}
</style>
<text transform="matrix(1 0 0 1 34.0358 10.3125)" class="st0 st1">圣道门……………………………搁</text>
<text transform="matrix(1 0 0 1 34.0358 24.7126)" class="st0 st1">　　　　杂行</text>
<text transform="matrix(1 0 0 1 106.0358 24.6979)" class="st0 st1">……………………抛</text>
<text transform="matrix(1 0 0 1 34.0358 39.1125)" class="st0 st1">净土门　　　　助　业…………傍 </text>
<text transform="matrix(1 0 0 1 34.0358 53.5125)" class="st0 st1">　　　　正行</text>
<text transform="matrix(1 0 0 1 34.0358 67.9125)" class="st0 st1">　　　　　　　正定业…………专</text>
<rect y="15.5" class="st2" width="26" height="12.8"/>
<text transform="matrix(1 0 0 1 -0.9999 25.1069)" class="st0 st1">佛法</text>
<g>
	<g>
		<line class="st3" x1="52.3" y1="13.9" x2="52.3" y2="22.9"/>
		<g>
			<polygon points="52.3,26.4 50.3,21.4 52.3,22.6 54.4,21.4 			"/>
		</g>
	</g>
</g>
<g>
	<g>
		<line class="st3" x1="94.5" y1="29.3" x2="94.5" y2="38.3"/>
		<g>
			<polygon points="94.5,41.8 92.5,36.8 94.5,38 96.6,36.8 			"/>
		</g>
	</g>
</g>
<g>
	<g>
		<line class="st3" x1="135.5" y1="42.3" x2="135.5" y2="51.3"/>
		<g>
			<polygon points="135.5,54.8 133.5,49.8 135.5,51 137.6,49.8 			"/>
		</g>
	</g>
</g>
<g>
	<line class="st3" x1="29.3" y1="6.1" x2="29.3" y2="35.3"/>
	<line class="st3" x1="29.3" y1="6.1" x2="32.5" y2="6.1"/>
	<line class="st3" x1="29.3" y1="35.3" x2="32.5" y2="35.3"/>
	<line class="st3" x1="29.3" y1="21.2" x2="26" y2="21.2"/>
</g>
<g>
	<line class="st3" x1="75.3" y1="20.1" x2="75.3" y2="49.3"/>
	<line class="st3" x1="75.3" y1="20.1" x2="78.5" y2="20.1"/>
	<line class="st3" x1="75.3" y1="49.3" x2="78.5" y2="49.3"/>
	<line class="st3" x1="75.3" y1="35.2" x2="72" y2="35.2"/>
</g>
<g>
	<line class="st3" x1="112.3" y1="35.1" x2="112.3" y2="64.3"/>
	<line class="st3" x1="112.3" y1="35.1" x2="115.5" y2="35.1"/>
	<line class="st3" x1="112.3" y1="64.3" x2="115.5" y2="64.3"/>
	<line class="st3" x1="112.3" y1="50.2" x2="109" y2="50.2"/>
</g>
</svg>
