<?xml version="1.0" encoding="utf-8"?>
<!-- Generator: Adobe Illustrator 19.1.0, SVG Export Plug-In . SVG Version: 6.00 Build 0)  -->
<svg version="1.1" baseProfile="tiny" id="图层_1"
	 xmlns="http://www.w3.org/2000/svg" xmlns:xlink="http://www.w3.org/1999/xlink" x="0px" y="0px" viewBox="0 0 323.8 69"
	 xml:space="preserve">
<text transform="matrix(1 0 0 1 1.952648e-004 38.6121)" font-family="'FZKTK--GBK1-0'" font-size="12px">佛法</text>
<text transform="matrix(1 0 0 1 36.7002 17.3121)" font-family="'FZKTK--GBK1-0'" font-size="12px">圣道门</text>
<text transform="matrix(1 0 0 1 36.7002 59.3121)" font-family="'FZKTK--GBK1-0'" font-size="12px">净土门</text>
<text transform="matrix(1 0 0 1 83.7752 10.3124)" font-family="'FZKTK--GBK1-0'" font-size="12px">小乘</text>
<text transform="matrix(1 0 0 1 83.7752 24.3124)" font-family="'FZKTK--GBK1-0'" font-size="12px">大乘</text>
<text transform="matrix(1 0 0 1 83.7752 52.3124)" font-family="'FZKTK--GBK1-0'" font-size="12px">要门</text>
<text transform="matrix(1 0 0 1 83.7752 66.3124)" font-family="'FZKTK--GBK1-0'" font-size="12px">弘愿</text>
<text transform="matrix(1 0 0 1 121.4502 10.3124)" font-family="'FZKTK--GBK1-0'" font-size="12px">四</text>
<text transform="matrix(1 0 0 1 139.5103 10.3124)" font-family="'FZKTK--GBK1-0'" font-size="12px">圣</text>
<text transform="matrix(1 0 0 1 157.5703 10.3124)" font-family="'FZKTK--GBK1-0'" font-size="12px">谛</text>
<text transform="matrix(1 0 0 1 121.4502 24.3124)" font-family="'FZKTK--GBK1-0'" font-size="12px">六</text>
<text transform="matrix(1 0 0 1 133.4502 24.3124)" font-family="'FZKTK--GBK1-0'" font-size="12px">度</text>
<text transform="matrix(1 0 0 1 145.4502 24.3124)" font-family="'FZKTK--GBK1-0'" font-size="12px">万</text>
<text transform="matrix(1 0 0 1 157.4502 24.3124)" font-family="'FZKTK--GBK1-0'" font-size="12px">行</text>
<text transform="matrix(1 0 0 1 121.4502 52.3124)" font-family="'FZKTK--GBK1-0'" font-size="12px">诸</text>
<text transform="matrix(1 0 0 1 133.4502 52.3124)" font-family="'FZKTK--GBK1-0'" font-size="12px">行</text>
<text transform="matrix(1 0 0 1 145.4502 52.3124)" font-family="'FZKTK--GBK1-0'" font-size="12px">回</text>
<text transform="matrix(1 0 0 1 157.4502 52.3124)" font-family="'FZKTK--GBK1-0'" font-size="12px">向</text>
<text transform="matrix(1 0 0 1 121.4502 66.3124)" font-family="'FZKTK--GBK1-0'" font-size="12px">念</text>
<text transform="matrix(1 0 0 1 133.4502 66.3124)" font-family="'FZKTK--GBK1-0'" font-size="12px">佛</text>
<text transform="matrix(1 0 0 1 145.4502 66.3124)" font-family="'FZKTK--GBK1-0'" font-size="12px">往</text>
<text transform="matrix(1 0 0 1 157.4502 66.3124)" font-family="'FZKTK--GBK1-0'" font-size="12px">生</text>
<text transform="matrix(1 0 0 1 186.7669 10.3124)" font-family="'FZKTK--GBK1-0'" font-size="12px">方便</text>
<text transform="matrix(1 0 0 1 186.7669 24.3124)" font-family="'FZKTK--GBK1-0'" font-size="12px">真实</text>
<text transform="matrix(1 0 0 1 186.7669 52.3124)" font-family="'FZKTK--GBK1-0'" font-size="12px">方便</text>
<text transform="matrix(1 0 0 1 186.7669 66.3124)" font-family="'FZKTK--GBK1-0'" font-size="12px">真实</text>
<text transform="matrix(1 0 0 1 223.6839 17.3124)" font-family="'FZKTK--GBK1-0'" font-size="12px">自力</text>
<text transform="matrix(1 0 0 1 223.6839 59.3124)" font-family="'FZKTK--GBK1-0'" font-size="12px">他力</text>
<text transform="matrix(1 0 0 1 261.3673 17.3124)" font-family="'FZKTK--GBK1-0'" font-size="12px">难行</text>
<text transform="matrix(1 0 0 1 261.3673 59.3124)" font-family="'FZKTK--GBK1-0'" font-size="12px">易行</text>
<text transform="matrix(1 0 0 1 299.8503 17.3124)" font-family="'FZKTK--GBK1-0'" font-size="12px">渐教</text>
<text transform="matrix(1 0 0 1 299.8503 59.3124)" font-family="'FZKTK--GBK1-0'" font-size="12px">顿教</text>
<g>
	<line fill="none" stroke="#040000" stroke-width="0.5" stroke-miterlimit="10" x1="74.4" y1="13.2" x2="77.3" y2="13.2"/>
	<line fill="none" stroke="#040000" stroke-width="0.5" stroke-miterlimit="10" x1="77.1" y1="6.3" x2="80" y2="6.3"/>
	<line fill="none" stroke="#040000" stroke-width="0.5" stroke-miterlimit="10" x1="77.2" y1="20.5" x2="80.1" y2="20.5"/>
	<line fill="none" stroke="#040000" stroke-width="0.5" stroke-miterlimit="10" x1="77.3" y1="6.1" x2="77.3" y2="20.7"/>
</g>
<g>
	<line fill="none" stroke="#040000" stroke-width="0.5" stroke-miterlimit="10" x1="220.8" y1="13.3" x2="217.9" y2="13.3"/>
	<line fill="none" stroke="#040000" stroke-width="0.5" stroke-miterlimit="10" x1="218" y1="20.2" x2="215.1" y2="20.2"/>
	<line fill="none" stroke="#040000" stroke-width="0.5" stroke-miterlimit="10" x1="218" y1="6" x2="215.1" y2="6"/>
	<line fill="none" stroke="#040000" stroke-width="0.5" stroke-miterlimit="10" x1="217.9" y1="20.4" x2="217.9" y2="5.8"/>
</g>
<g>
	<line fill="none" stroke="#040000" stroke-width="0.5" stroke-miterlimit="10" x1="220.8" y1="56.1" x2="217.9" y2="56.1"/>
	<line fill="none" stroke="#040000" stroke-width="0.5" stroke-miterlimit="10" x1="218" y1="63" x2="215.1" y2="63"/>
	<line fill="none" stroke="#040000" stroke-width="0.5" stroke-miterlimit="10" x1="218" y1="48.8" x2="215.1" y2="48.8"/>
	<line fill="none" stroke="#040000" stroke-width="0.5" stroke-miterlimit="10" x1="217.9" y1="63.2" x2="217.9" y2="48.6"/>
</g>
<g>
	<line fill="none" stroke="#040000" stroke-width="0.5" stroke-miterlimit="10" x1="74.4" y1="55.7" x2="77.3" y2="55.7"/>
	<line fill="none" stroke="#040000" stroke-width="0.5" stroke-miterlimit="10" x1="77.1" y1="48.8" x2="80" y2="48.8"/>
	<line fill="none" stroke="#040000" stroke-width="0.5" stroke-miterlimit="10" x1="77.2" y1="63" x2="80.1" y2="63"/>
	<line fill="none" stroke="#040000" stroke-width="0.5" stroke-miterlimit="10" x1="77.3" y1="48.6" x2="77.3" y2="63.2"/>
</g>
<line fill="none" stroke="#040000" stroke-width="0.5" stroke-miterlimit="10" x1="110.8" y1="6.3" x2="116.5" y2="6.3"/>
<line fill="none" stroke="#040000" stroke-width="0.5" stroke-miterlimit="10" x1="110.8" y1="20.5" x2="116.5" y2="20.5"/>
<line fill="none" stroke="#040000" stroke-width="0.5" stroke-miterlimit="10" x1="110.8" y1="48.6" x2="116.5" y2="48.6"/>
<line fill="none" stroke="#040000" stroke-width="0.5" stroke-miterlimit="10" x1="110.8" y1="62.7" x2="116.5" y2="62.7"/>
<line fill="none" stroke="#040000" stroke-width="0.5" stroke-miterlimit="10" x1="175.3" y1="6.3" x2="181" y2="6.3"/>
<line fill="none" stroke="#040000" stroke-width="0.5" stroke-miterlimit="10" x1="175.3" y1="20.5" x2="181" y2="20.5"/>
<line fill="none" stroke="#040000" stroke-width="0.5" stroke-miterlimit="10" x1="251.4" y1="13.1" x2="257.2" y2="13.1"/>
<line fill="none" stroke="#040000" stroke-width="0.5" stroke-miterlimit="10" x1="251.4" y1="55.7" x2="257.2" y2="55.7"/>
<line fill="none" stroke="#040000" stroke-width="0.5" stroke-miterlimit="10" x1="289.5" y1="13.1" x2="295.3" y2="13.1"/>
<line fill="none" stroke="#040000" stroke-width="0.5" stroke-miterlimit="10" x1="289.5" y1="55.7" x2="295.3" y2="55.7"/>
<line fill="none" stroke="#040000" stroke-width="0.5" stroke-miterlimit="10" x1="175.3" y1="48.6" x2="181" y2="48.6"/>
<line fill="none" stroke="#040000" stroke-width="0.5" stroke-miterlimit="10" x1="175.3" y1="62.7" x2="181" y2="62.7"/>
<g>
	<line fill="none" stroke="#040000" stroke-width="0.5" stroke-miterlimit="10" x1="30" y1="13.1" x2="30" y2="55.8"/>
	<line fill="none" stroke="#040000" stroke-width="0.5" stroke-miterlimit="10" x1="30" y1="13.1" x2="33.7" y2="13.1"/>
	<line fill="none" stroke="#040000" stroke-width="0.5" stroke-miterlimit="10" x1="30" y1="55.8" x2="33.7" y2="55.8"/>
	<line fill="none" stroke="#040000" stroke-width="0.5" stroke-miterlimit="10" x1="30" y1="35.3" x2="26.2" y2="35.3"/>
</g>
</svg>
