<?xml version="1.0" encoding="utf-8"?>
<!-- Generator: Adobe Illustrator 19.1.0, SVG Export Plug-In . SVG Version: 6.00 Build 0)  -->
<svg version="1.1" baseProfile="tiny" id="图层_1"
	 xmlns="http://www.w3.org/2000/svg" xmlns:xlink="http://www.w3.org/1999/xlink" x="0px" y="0px" viewBox="0 0 554.7 41.1"
	 xml:space="preserve">
<text transform="matrix(1 0 0 1 2.365112e-004 24.4126)" font-family="'FZKTK--GBK1-0'" font-size="12px">佛法</text>
<text transform="matrix(1 0 0 1 34.3002 10.4124)" font-family="'FZKTK--GBK1-0'" font-size="12px">圣道门</text>
<text transform="matrix(1 0 0 1 34.3002 38.4124)" font-family="'FZKTK--GBK1-0'" font-size="12px">净土门</text>
<text transform="matrix(1 0 0 1 82.8669 10.3124)" font-family="'FZKTK--GBK1-0'" font-size="12px">难行道</text>
<text transform="matrix(1 0 0 1 82.8669 38.3124)" font-family="'FZKTK--GBK1-0'" font-size="12px">易行道</text>
<text transform="matrix(1 0 0 1 134.3669 10.3124)" font-family="'FZKTK--GBK1-0'" font-size="12px">自力</text>
<text transform="matrix(1 0 0 1 134.3669 38.3124)" font-family="'FZKTK--GBK1-0'" font-size="12px">他力</text>
<text transform="matrix(1 0 0 1 176.8669 10.3124)" font-family="'FZKTK--GBK1-0'" font-size="12px">圣者</text>
<text transform="matrix(1 0 0 1 176.8669 38.3124)" font-family="'FZKTK--GBK1-0'" font-size="12px">凡夫</text>
<text transform="matrix(1 0 0 1 221.4002 10.3124)" font-family="'FZKTK--GBK1-0'" font-size="12px">修行（修诸行）</text>
<text transform="matrix(1 0 0 1 221.4002 38.3124)" font-family="'FZKTK--GBK1-0'" font-size="12px">信心（信念佛）</text>
<text transform="matrix(1 0 0 1 320.4001 10.3124)" font-family="'FZKTK--GBK1-0'" font-size="12px">如陆道步行</text>
<text transform="matrix(1 0 0 1 320.4001 38.3124)" font-family="'FZKTK--GBK1-0'" font-size="12px">如水道乘船</text>
<text transform="matrix(1 0 0 1 399.0668 10.3124)" font-family="'FZKTK--GBK1-0'" font-size="12px">苦</text>
<text transform="matrix(1 0 0 1 399.0668 38.3124)" font-family="'FZKTK--GBK1-0'" font-size="12px">乐</text>
<text transform="matrix(1 0 0 1 429.5668 10.3124)" font-family="'FZKTK--GBK1-0'" font-size="12px">诸、久、堕</text>
<text transform="matrix(1 0 0 1 429.5668 38.3124)" font-family="'FZKTK--GBK1-0'" font-size="12px">一、速、必</text>
<text transform="matrix(1 0 0 1 506.7335 10.3124)" font-family="'FZKTK--GBK1-0'" font-size="12px">证果不定</text>
<text transform="matrix(1 0 0 1 506.7335 38.3124)" font-family="'FZKTK--GBK1-0'" font-size="12px">往生决定</text>
<g>
	<line fill="none" stroke="#040000" stroke-width="0.5" stroke-miterlimit="10" x1="26.3" y1="20.6" x2="29.2" y2="20.6"/>
	<line fill="none" stroke="#040000" stroke-width="0.5" stroke-miterlimit="10" x1="29.2" y1="6.8" x2="32.1" y2="6.8"/>
	<line fill="none" stroke="#040000" stroke-width="0.5" stroke-miterlimit="10" x1="29.2" y1="34.3" x2="32.1" y2="34.3"/>
	<line fill="none" stroke="#040000" stroke-width="0.5" stroke-miterlimit="10" x1="29.2" y1="6.6" x2="29.2" y2="34.5"/>
</g>
<line fill="none" stroke="#040000" stroke-width="0.5" stroke-miterlimit="10" x1="73.9" y1="6.6" x2="79.6" y2="6.6"/>
<line fill="none" stroke="#040000" stroke-width="0.5" stroke-miterlimit="10" x1="73.9" y1="34.3" x2="79.6" y2="34.3"/>
<line fill="none" stroke="#040000" stroke-width="0.5" stroke-miterlimit="10" x1="122.8" y1="6.6" x2="128.4" y2="6.6"/>
<line fill="none" stroke="#040000" stroke-width="0.5" stroke-miterlimit="10" x1="122.8" y1="34.3" x2="128.4" y2="34.3"/>
<line fill="none" stroke="#040000" stroke-width="0.5" stroke-miterlimit="10" x1="163.9" y1="6.6" x2="169.6" y2="6.6"/>
<line fill="none" stroke="#040000" stroke-width="0.5" stroke-miterlimit="10" x1="163.9" y1="34.3" x2="169.6" y2="34.3"/>
<line fill="none" stroke="#040000" stroke-width="0.5" stroke-miterlimit="10" x1="207.9" y1="6.6" x2="213.6" y2="6.6"/>
<line fill="none" stroke="#040000" stroke-width="0.5" stroke-miterlimit="10" x1="207.9" y1="34.3" x2="213.6" y2="34.3"/>
<line fill="none" stroke="#040000" stroke-width="0.5" stroke-miterlimit="10" x1="306.3" y1="6.6" x2="312" y2="6.6"/>
<line fill="none" stroke="#040000" stroke-width="0.5" stroke-miterlimit="10" x1="306.3" y1="34.3" x2="312" y2="34.3"/>
<line fill="none" stroke="#040000" stroke-width="0.5" stroke-miterlimit="10" x1="386.3" y1="6.6" x2="392" y2="6.6"/>
<line fill="none" stroke="#040000" stroke-width="0.5" stroke-miterlimit="10" x1="386.3" y1="34.3" x2="392" y2="34.3"/>
<line fill="none" stroke="#040000" stroke-width="0.5" stroke-miterlimit="10" x1="415.8" y1="6.6" x2="421.5" y2="6.6"/>
<line fill="none" stroke="#040000" stroke-width="0.5" stroke-miterlimit="10" x1="415.8" y1="34.3" x2="421.5" y2="34.3"/>
<line fill="none" stroke="#040000" stroke-width="0.5" stroke-miterlimit="10" x1="494.7" y1="6.6" x2="500.3" y2="6.6"/>
<line fill="none" stroke="#040000" stroke-width="0.5" stroke-miterlimit="10" x1="494.7" y1="34.3" x2="500.3" y2="34.3"/>
</svg>
