<?xml version="1.0" encoding="utf-8"?>
<!-- Generator: Adobe Illustrator 19.1.0, SVG Export Plug-In . SVG Version: 6.00 Build 0)  -->
<svg version="1.1" baseProfile="tiny" id="图层_1"
	 xmlns="http://www.w3.org/2000/svg" xmlns:xlink="http://www.w3.org/1999/xlink" x="0px" y="0px" viewBox="0 0 387.9 98.7"
	 xml:space="preserve">
<text transform="matrix(1 0 0 1 0 36.4058)" font-family="Kai" font-size="12px">佛法</text>
<text transform="matrix(1 0 0 1 37.5 60.706)" font-family="Kai" font-size="12px">净土门    易行道   他力</text>
<text transform="matrix(1 0 0 1 37.5 10.3123)" font-family="Kai" font-size="12px">圣道门</text>
<text transform="matrix(1 0 0 1 133.1 10.3123)" font-family="Kai" font-size="12px">自力</text>
<text transform="matrix(1 0 0 1 167.1 40.6468)" font-family="Kai" font-size="12px">杂行</text>
<text transform="matrix(1 0 0 1 167.1 82.6468)" font-family="Kai" font-size="12px">正行</text>
<text transform="matrix(1 0 0 1 303.9333 10.4123)" font-family="Kai" font-size="12px">搁</text>
<text transform="matrix(1 0 0 1 303.9333 38.4123)" font-family="Kai" font-size="12px">抛</text>
<text transform="matrix(1 0 0 1 303.9333 66.4123)" font-family="Kai" font-size="12px">傍</text>
<text transform="matrix(1 0 0 1 303.9333 94.4123)" font-family="Kai" font-size="12px">专（本愿称名）</text>
<text transform="matrix(1 0 0 1 85.7 10.3123)" font-family="Kai" font-size="12px">难行道</text>
<g>
	<line fill="none" stroke="#040000" stroke-width="0.5" stroke-miterlimit="10" x1="159.2" y1="57.2" x2="162.1" y2="57.2"/>
	<line fill="none" stroke="#040000" stroke-width="0.5" stroke-miterlimit="10" x1="162.1" y1="36.3" x2="165" y2="36.3"/>
	<line fill="none" stroke="#040000" stroke-width="0.5" stroke-miterlimit="10" x1="162.1" y1="78" x2="165" y2="78"/>
	<line fill="none" stroke="#040000" stroke-width="0.5" stroke-miterlimit="10" x1="162.1" y1="36.1" x2="162.1" y2="78.2"/>
</g>
<line fill="none" stroke="#040000" stroke-width="0.5" stroke-miterlimit="10" x1="28.4" y1="32.1" x2="31.2" y2="32.1"/>
<line fill="none" stroke="#040000" stroke-width="0.5" stroke-miterlimit="10" x1="31.2" y1="6.8" x2="34.1" y2="6.8"/>
<line fill="none" stroke="#040000" stroke-width="0.5" stroke-miterlimit="10" x1="31.2" y1="57.2" x2="34.1" y2="57.2"/>
<line fill="none" stroke="#040000" stroke-width="0.5" stroke-miterlimit="10" x1="31.2" y1="6.6" x2="31.2" y2="57.4"/>
<g>
	<line fill="none" stroke="#040000" stroke-width="0.5" stroke-miterlimit="10" x1="193.9" y1="78.2" x2="196.8" y2="78.2"/>
	<line fill="none" stroke="#040000" stroke-width="0.5" stroke-miterlimit="10" x1="196.8" y1="64.4" x2="199.7" y2="64.4"/>
	<line fill="none" stroke="#040000" stroke-width="0.5" stroke-miterlimit="10" x1="196.8" y1="91.9" x2="199.7" y2="91.9"/>
	<line fill="none" stroke="#040000" stroke-width="0.5" stroke-miterlimit="10" x1="196.8" y1="64.2" x2="196.8" y2="92.2"/>
</g>
<text transform="matrix(1 0 0 1 202.4841 68.0235)" font-family="Kai" font-size="12px">助</text>
<text transform="matrix(1 0 0 1 226.3879 68.0235)" font-family="Kai" font-size="12px">业</text>
<text transform="matrix(1 0 0 1 202.4841 96.0235)" font-family="Kai" font-size="12px">正</text>
<text transform="matrix(1 0 0 1 214.4841 96.0235)" font-family="Kai" font-size="12px">定</text>
<text transform="matrix(1 0 0 1 226.4841 96.0235)" font-family="Kai" font-size="12px">业</text>
<line fill="none" stroke="#040000" stroke-width="0.5" stroke-miterlimit="10" x1="76.3" y1="6.6" x2="82.1" y2="6.6"/>
<line fill="none" stroke="#040000" stroke-width="0.5" stroke-miterlimit="10" x1="76.3" y1="57.1" x2="82.1" y2="57.1"/>
<line fill="none" stroke="#040000" stroke-width="0.5" stroke-miterlimit="10" x1="124.4" y1="6.6" x2="130.1" y2="6.6"/>
<line fill="none" stroke="#040000" stroke-width="0.5" stroke-miterlimit="10" x1="124.4" y1="57.1" x2="130.1" y2="57.1"/>
<g>
	<line fill="none" stroke="#000000" stroke-width="0.5" stroke-miterlimit="10" x1="159.2" y1="6.6" x2="159.7" y2="6.6"/>
	
		<line fill="none" stroke="#000000" stroke-width="0.5" stroke-miterlimit="10" stroke-dasharray="1.0033,1.0033" x1="160.7" y1="6.6" x2="296.6" y2="6.6"/>
	<line fill="none" stroke="#000000" stroke-width="0.5" stroke-miterlimit="10" x1="297.1" y1="6.6" x2="297.6" y2="6.6"/>
</g>
<g>
	<line fill="none" stroke="#000000" stroke-width="0.5" stroke-miterlimit="10" x1="195.4" y1="36.1" x2="195.9" y2="36.1"/>
	
		<line fill="none" stroke="#000000" stroke-width="0.5" stroke-miterlimit="10" stroke-dasharray="1.0028,1.0028" x1="196.9" y1="36.1" x2="296.6" y2="36.1"/>
	<line fill="none" stroke="#000000" stroke-width="0.5" stroke-miterlimit="10" x1="297.1" y1="36.1" x2="297.6" y2="36.1"/>
</g>
<g>
	<line fill="none" stroke="#000000" stroke-width="0.5" stroke-miterlimit="10" x1="241.9" y1="63.7" x2="242.4" y2="63.7"/>
	
		<line fill="none" stroke="#000000" stroke-width="0.5" stroke-miterlimit="10" stroke-dasharray="0.9955,0.9955" x1="243.4" y1="63.7" x2="296.7" y2="63.7"/>
	<line fill="none" stroke="#000000" stroke-width="0.5" stroke-miterlimit="10" x1="297.1" y1="63.7" x2="297.6" y2="63.7"/>
</g>
<g>
	<line fill="none" stroke="#000000" stroke-width="0.5" stroke-miterlimit="10" x1="241.9" y1="91.9" x2="242.4" y2="91.9"/>
	
		<line fill="none" stroke="#000000" stroke-width="0.5" stroke-miterlimit="10" stroke-dasharray="0.9955,0.9955" x1="243.4" y1="91.9" x2="296.7" y2="91.9"/>
	<line fill="none" stroke="#000000" stroke-width="0.5" stroke-miterlimit="10" x1="297.1" y1="91.9" x2="297.6" y2="91.9"/>
</g>
<g>
	
		<line fill="none" stroke="#040000" stroke-width="0.5" stroke-linecap="square" stroke-miterlimit="10" x1="55.5" y1="18.3" x2="55.5" y2="39.3"/>
	<g>
		<polygon fill="#040000" points="53.6,37.9 55.5,38.7 57.4,37.9 55.5,42.3 		"/>
	</g>
</g>
<g>
	
		<line fill="none" stroke="#040000" stroke-width="0.5" stroke-linecap="square" stroke-miterlimit="10" x1="179" y1="48.4" x2="179" y2="62.3"/>
	<g>
		<polygon fill="#040000" points="177.1,60.8 179,61.6 180.9,60.8 179,65.2 		"/>
	</g>
</g>
<g>
	
		<line fill="none" stroke="#040000" stroke-width="0.5" stroke-linecap="square" stroke-miterlimit="10" x1="222" y1="72.6" x2="222" y2="78.9"/>
	<g>
		<polygon fill="#040000" points="220.1,77.5 222,78.2 223.9,77.5 222,81.8 		"/>
	</g>
</g>
</svg>
