<?xml version="1.0" encoding="utf-8"?>
<!-- Generator: Adobe Illustrator 21.1.0, SVG Export Plug-In . SVG Version: 6.00 Build 0)  -->
<svg version="1.1" id="图层_1" xmlns="http://www.w3.org/2000/svg" xmlns:xlink="http://www.w3.org/1999/xlink" x="0px" y="0px"
	 viewBox="0 0 278.1 99.4" style="enable-background:new 0 0 278.1 99.4;" xml:space="preserve">
<style type="text/css">
	.st0{fill:none;}
	.st1{font-family:'SIL-Kai-Reg-Jian';}
	.st2{font-size:12px;}
	.st3{fill:none;stroke:#000000;stroke-width:0.5;stroke-miterlimit:10;}
</style>
<rect x="26.6" y="15.4" class="st0" width="24.6" height="84"/>
<text transform="matrix(1 0 0 1 26.5557 24.3218)" class="st1 st2">圣道门</text>
<text transform="matrix(1 0 0 1 26.5557 79.3218)" class="st1 st2">净土门</text>
<rect x="263" y="36.1" class="st0" width="15.1" height="58.4"/>
<g>
	<line class="st3" x1="20.9" y1="21.4" x2="20.9" y2="75.8"/>
	<line class="st3" x1="20.9" y1="21.4" x2="24.6" y2="21.4"/>
	<line class="st3" x1="20.9" y1="75.8" x2="24.6" y2="75.8"/>
	<line class="st3" x1="20.9" y1="49.6" x2="17.1" y2="49.6"/>
</g>
<rect x="3.3" y="36.3" class="st0" width="13.5" height="34.5"/>
<text transform="matrix(1 0 0 1 3.29 45.1514)" class="st1 st2">佛</text>
<text transform="matrix(1 0 0 1 3.29 59.5514)" class="st1 st2">法</text>
<line class="st3" x1="64.5" y1="21.4" x2="70" y2="21.4"/>
<line class="st3" x1="64.5" y1="75.1" x2="70" y2="75.1"/>
<rect x="73.6" class="st0" width="198" height="39.7"/>
<rect x="73.6" y="10.6" class="st0" width="200" height="33.1"/>
<text transform="matrix(1 0 0 1 73.6001 20.2437)"><tspan x="0" y="0" class="st1 st2">“修行”之教　难行道　自力　苦   </tspan><tspan x="0" y="14.4" class="st1 st2">　以修行六度万行为宗</tspan></text>
<rect x="74.1" y="59.9" class="st0" width="194.3" height="28.9"/>
<text transform="matrix(1 0 0 1 74.0566 69.5166)"><tspan x="0" y="0" class="st1 st2">“信心”之教　易行道　他力　乐   </tspan><tspan x="0" y="14.4" class="st1 st2">　以信愿专称佛名为宗</tspan></text>
<line class="st3" x1="148.5" y1="16.8" x2="154" y2="16.8"/>
<line class="st3" x1="197.4" y1="16.8" x2="202.9" y2="16.8"/>
<line class="st3" x1="232.9" y1="16.8" x2="238.4" y2="16.8"/>
<line class="st3" x1="256.5" y1="16.8" x2="262" y2="16.8"/>
<line class="st3" x1="148.4" y1="65.3" x2="153.9" y2="65.3"/>
<line class="st3" x1="197.4" y1="65.3" x2="202.9" y2="65.3"/>
<line class="st3" x1="232.8" y1="65.3" x2="238.3" y2="65.3"/>
<line class="st3" x1="256.4" y1="65.3" x2="261.9" y2="65.3"/>
</svg>
