<?xml version="1.0" encoding="utf-8"?>
<!-- Generator: Adobe Illustrator 21.0.0, SVG Export Plug-In . SVG Version: 6.00 Build 0)  -->
<svg version="1.1" id="圖層_1" xmlns="http://www.w3.org/2000/svg" xmlns:xlink="http://www.w3.org/1999/xlink" x="0px" y="0px"
	 viewBox="0 0 273.8 24.4" style="enable-background:new 0 0 273.8 24.4;" xml:space="preserve">
<style type="text/css">
	.st0{font-family:'KaiTi';}
	.st1{font-size:10px;}
	.st2{fill:none;stroke:#000000;stroke-width:0.5;stroke-miterlimit:10;}
</style>
<text transform="matrix(1 0 0 1 30.875 8.5938)"><tspan x="0" y="0" class="st0 st1">聖道門</tspan><tspan x="0" y="14" class="st0 st1">淨土門</tspan></text>
<g>
	<line class="st2" x1="26.2" y1="4.5" x2="26.2" y2="18.8"/>
	<line class="st2" x1="26" y1="4.5" x2="28.9" y2="4.5"/>
	<line class="st2" x1="26" y1="18.8" x2="28.9" y2="18.8"/>
	<line class="st2" x1="23.2" y1="11.6" x2="26.1" y2="11.6"/>
</g>
<text transform="matrix(1 0 0 1 7.629395e-06 15.5938)" class="st0 st1">佛法</text>
<line class="st2" x1="63" y1="4.5" x2="68.5" y2="4.5"/>
<text transform="matrix(1 0 0 1 70.875 8.5938)"><tspan x="0" y="0" class="st0 st1">修行之教</tspan><tspan x="0" y="14" class="st0 st1">救度之教</tspan></text>
<line class="st2" x1="63" y1="18.8" x2="68.5" y2="18.8"/>
<line class="st2" x1="113" y1="4.5" x2="118.5" y2="4.5"/>
<line class="st2" x1="113" y1="18.8" x2="118.5" y2="18.8"/>
<text transform="matrix(1 0 0 1 121.5081 8.5938)"><tspan x="0" y="0" class="st0 st1">自力</tspan><tspan x="0" y="14" class="st0 st1">他力</tspan></text>
<line class="st2" x1="143" y1="4.5" x2="148.5" y2="4.5"/>
<line class="st2" x1="143" y1="18.8" x2="148.5" y2="18.8"/>
<text transform="matrix(1 0 0 1 151.5084 8.5938)"><tspan x="0" y="0" class="st0 st1">難行道</tspan><tspan x="0" y="14" class="st0 st1">易行道</tspan></text>
<line class="st2" x1="183.8" y1="4.5" x2="189.3" y2="4.5"/>
<line class="st2" x1="183.8" y1="18.8" x2="189.3" y2="18.8"/>
<text transform="matrix(1 0 0 1 192.2577 8.5938)"><tspan x="0" y="0" class="st0 st1">苦</tspan><tspan x="0" y="14" class="st0 st1">樂</tspan></text>
<line class="st2" x1="205.3" y1="4.5" x2="210.8" y2="4.5"/>
<line class="st2" x1="205.3" y1="18.8" x2="210.8" y2="18.8"/>
<text transform="matrix(1 0 0 1 213.758 8.5938)"><tspan x="0" y="0" class="st0 st1">六度萬行為宗</tspan><tspan x="0" y="14" class="st0 st1">一向專念為宗</tspan></text>
</svg>
