<?xml version="1.0" encoding="utf-8"?>
<!-- Generator: Adobe Illustrator 21.0.0, SVG Export Plug-In . SVG Version: 6.00 Build 0)  -->
<svg version="1.1" baseProfile="tiny" id="圖層_1"
	 xmlns="http://www.w3.org/2000/svg" xmlns:xlink="http://www.w3.org/1999/xlink" x="0px" y="0px" viewBox="0 0 302.7 87.6"
	 xml:space="preserve">
<text transform="matrix(1 0 0 1 109.8335 15.5938)" font-family="'KaiTi'" font-size="10px">定</text>
<text transform="matrix(1 0 0 1 119.8335 15.5938)" font-family="'KaiTi'" font-size="10px">善</text>
<text transform="matrix(1 0 0 1 129.8335 15.5938)" font-family="'DFKaiShu-SB-Estd-BF'" font-size="10px">：</text>
<text transform="matrix(1 0 0 1 139.8335 15.5938)" font-family="'KaiTi'" font-size="10px">息</text>
<text transform="matrix(1 0 0 1 149.8335 15.5938)" font-family="'KaiTi'" font-size="10px">慮</text>
<text transform="matrix(1 0 0 1 159.8335 15.5938)" font-family="'KaiTi'" font-size="10px">凝</text>
<text transform="matrix(1 0 0 1 169.8335 15.5938)" font-family="'KaiTi'" font-size="10px">心</text>
<text transform="matrix(1 0 0 1 179.8335 15.5938)" font-family="'KaiTi'" font-size="10px">之</text>
<text transform="matrix(1 0 0 1 189.8335 15.5938)" font-family="'KaiTi'" font-size="10px">十</text>
<text transform="matrix(1 0 0 1 199.8335 15.5938)" font-family="'KaiTi'" font-size="10px">三</text>
<text transform="matrix(1 0 0 1 209.8335 15.5938)" font-family="'KaiTi'" font-size="10px">定</text>
<text transform="matrix(1 0 0 1 219.8335 15.5938)" font-family="'KaiTi'" font-size="10px">觀</text>
<text transform="matrix(1 0 0 1 109.8335 29.5938)" font-family="'KaiTi'" font-size="10px">散</text>
<text transform="matrix(1 0 0 1 119.8335 29.5938)" font-family="'KaiTi'" font-size="10px">善</text>
<text transform="matrix(1 0 0 1 129.8335 29.5938)" font-family="'DFKaiShu-SB-Estd-BF'" font-size="10px">：</text>
<text transform="matrix(1 0 0 1 139.8335 29.5938)" font-family="'KaiTi'" font-size="10px">廢</text>
<text transform="matrix(1 0 0 1 149.8335 29.5938)" font-family="'KaiTi'" font-size="10px">惡</text>
<text transform="matrix(1 0 0 1 159.8335 29.5938)" font-family="'KaiTi'" font-size="10px">修</text>
<text transform="matrix(1 0 0 1 169.8335 29.5938)" font-family="'KaiTi'" font-size="10px">善</text>
<text transform="matrix(1 0 0 1 179.8335 29.5938)" font-family="'KaiTi'" font-size="10px">之</text>
<text transform="matrix(1 0 0 1 189.8335 29.5938)" font-family="'KaiTi'" font-size="10px">三</text>
<text transform="matrix(1 0 0 1 199.8335 29.5938)" font-family="'KaiTi'" font-size="10px">福</text>
<text transform="matrix(1 0 0 1 209.8335 29.5938)" font-family="'KaiTi'" font-size="10px">九</text>
<text transform="matrix(1 0 0 1 219.8335 29.5938)" font-family="'KaiTi'" font-size="10px">品</text>
<text transform="matrix(1 0 0 1 109.8335 43.5938)" font-family="'KaiTi'" font-size="10px">大</text>
<text transform="matrix(1 0 0 1 119.8335 43.5938)" font-family="'KaiTi'" font-size="10px">願</text>
<text transform="matrix(1 0 0 1 129.8335 43.5938)" font-family="'DFKaiShu-SB-Estd-BF'" font-size="10px">：</text>
<text transform="matrix(1 0 0 1 139.8335 43.5938)" font-family="'KaiTi'" font-size="10px">五</text>
<text transform="matrix(1 0 0 1 149.8335 43.5938)" font-family="'KaiTi'" font-size="10px">劫</text>
<text transform="matrix(1 0 0 1 159.8335 43.5938)" font-family="'KaiTi'" font-size="10px">思</text>
<text transform="matrix(1 0 0 1 169.8335 43.5938)" font-family="'KaiTi'" font-size="10px">惟</text>
<text transform="matrix(1 0 0 1 179.8335 43.5938)" font-family="'KaiTi'" font-size="10px">之</text>
<text transform="matrix(1 0 0 1 189.8335 43.5938)" font-family="'KaiTi'" font-size="10px">本</text>
<text transform="matrix(1 0 0 1 199.8335 43.5938)" font-family="'KaiTi'" font-size="10px">願</text>
<text transform="matrix(1 0 0 1 209.8335 43.5938)" font-family="'KaiTi'" font-size="10px">(</text>
<text transform="matrix(1 0 0 1 214.8335 43.5938)" font-family="'KaiTi'" font-size="10px">為</text>
<text transform="matrix(1 0 0 1 224.8335 43.5938)" font-family="'KaiTi'" font-size="10px">我</text>
<text transform="matrix(1 0 0 1 234.8335 43.5938)" font-family="'KaiTi'" font-size="10px">發</text>
<text transform="matrix(1 0 0 1 244.8335 43.5938)" font-family="'KaiTi'" font-size="10px">)</text>
<text transform="matrix(1 0 0 1 109.8335 57.5938)" font-family="'KaiTi'" font-size="10px">大</text>
<text transform="matrix(1 0 0 1 119.8335 57.5938)" font-family="'KaiTi'" font-size="10px">業</text>
<text transform="matrix(1 0 0 1 129.8335 57.5938)" font-family="'DFKaiShu-SB-Estd-BF'" font-size="10px">：</text>
<text transform="matrix(1 0 0 1 139.8335 57.5938)" font-family="'KaiTi'" font-size="10px">兆</text>
<text transform="matrix(1 0 0 1 149.8335 57.5938)" font-family="'KaiTi'" font-size="10px">載</text>
<text transform="matrix(1 0 0 1 159.8335 57.5938)" font-family="'KaiTi'" font-size="10px">永</text>
<text transform="matrix(1 0 0 1 169.8335 57.5938)" font-family="'KaiTi'" font-size="10px">劫</text>
<text transform="matrix(1 0 0 1 179.8335 57.5938)" font-family="'KaiTi'" font-size="10px">之</text>
<text transform="matrix(1 0 0 1 189.8335 57.5938)" font-family="'KaiTi'" font-size="10px">萬</text>
<text transform="matrix(1 0 0 1 199.8335 57.5938)" font-family="'KaiTi'" font-size="10px">行</text>
<text transform="matrix(1 0 0 1 209.8335 57.5938)" font-family="'KaiTi'" font-size="10px">(</text>
<text transform="matrix(1 0 0 1 214.8335 57.5938)" font-family="'KaiTi'" font-size="10px">為</text>
<text transform="matrix(1 0 0 1 224.8335 57.5938)" font-family="'KaiTi'" font-size="10px">我</text>
<text transform="matrix(1 0 0 1 234.8335 57.5938)" font-family="'KaiTi'" font-size="10px">修</text>
<text transform="matrix(1 0 0 1 244.8335 57.5938)" font-family="'KaiTi'" font-size="10px">)</text>
<text transform="matrix(1 0 0 1 109.8335 71.5938)" font-family="'KaiTi'" font-size="10px"> </text>
<text transform="matrix(1 0 0 1 119.8335 71.5938)" font-family="'KaiTi'" font-size="10px"> </text>
<text transform="matrix(1 0 0 1 129.8335 71.5938)" font-family="'KaiTi'" font-size="10px"> </text>
<text transform="matrix(1 0 0 1 139.8335 71.5938)" font-family="'KaiTi'" font-size="10px">名</text>
<text transform="matrix(1 0 0 1 149.8335 71.5938)" font-family="'KaiTi'" font-size="10px">號</text>
<text transform="matrix(1 0 0 1 159.8335 71.5938)" font-family="'KaiTi'" font-size="10px">無</text>
<text transform="matrix(1 0 0 1 169.8335 71.5938)" font-family="'KaiTi'" font-size="10px">上</text>
<text transform="matrix(1 0 0 1 179.8335 71.5938)" font-family="'KaiTi'" font-size="10px">功</text>
<text transform="matrix(1 0 0 1 189.8335 71.5938)" font-family="'KaiTi'" font-size="10px">德</text>
<text transform="matrix(1 0 0 1 199.8335 71.5938)" font-family="'KaiTi'" font-size="10px">力</text>
<text transform="matrix(1 0 0 1 109.8335 78.5938)" font-family="'KaiTi'" font-size="10px">大</text>
<text transform="matrix(1 0 0 1 119.8335 78.5938)" font-family="'KaiTi'" font-size="10px">力</text>
<text transform="matrix(1 0 0 1 129.8335 78.5938)" font-family="'DFKaiShu-SB-Estd-BF'" font-size="10px">：</text>
<text transform="matrix(1 0 0 1 139.8335 78.5938)" font-family="'DFKaiShu-SB-Estd-BF'" font-size="10px"> </text>
<text transform="matrix(1 0 0 1 149.8335 78.5938)" font-family="'DFKaiShu-SB-Estd-BF'" font-size="10px"> </text>
<text transform="matrix(1 0 0 1 159.8335 78.5938)" font-family="'DFKaiShu-SB-Estd-BF'" font-size="10px"> </text>
<text transform="matrix(1 0 0 1 169.8335 78.5938)" font-family="'DFKaiShu-SB-Estd-BF'" font-size="10px"> </text>
<text transform="matrix(1 0 0 1 179.8335 78.5938)" font-family="'DFKaiShu-SB-Estd-BF'" font-size="10px"> </text>
<text transform="matrix(1 0 0 1 189.8335 78.5938)" font-family="'DFKaiShu-SB-Estd-BF'" font-size="10px"> </text>
<text transform="matrix(1 0 0 1 199.8335 78.5938)" font-family="'DFKaiShu-SB-Estd-BF'" font-size="10px"> </text>
<text transform="matrix(1 0 0 1 209.8335 78.5938)" font-family="'KaiTi'" font-size="10px">(</text>
<text transform="matrix(1 0 0 1 214.8335 78.5938)" font-family="'KaiTi'" font-size="10px">為</text>
<text transform="matrix(1 0 0 1 224.8335 78.5938)" font-family="'KaiTi'" font-size="10px">我</text>
<text transform="matrix(1 0 0 1 234.8335 78.5938)" font-family="'KaiTi'" font-size="10px">成</text>
<text transform="matrix(1 0 0 1 244.8335 78.5938)" font-family="'KaiTi'" font-size="10px">)</text>
<text transform="matrix(1 0 0 1 109.8335 85.5938)" font-family="'DFKaiShu-SB-Estd-BF'" font-size="10px"> </text>
<text transform="matrix(1 0 0 1 119.8335 85.5938)" font-family="'DFKaiShu-SB-Estd-BF'" font-size="10px"> </text>
<text transform="matrix(1 0 0 1 129.8335 85.5938)" font-family="'DFKaiShu-SB-Estd-BF'" font-size="10px"> </text>
<text transform="matrix(1 0 0 1 139.8335 85.5938)" font-family="'KaiTi'" font-size="10px">光</text>
<text transform="matrix(1 0 0 1 149.8335 85.5938)" font-family="'KaiTi'" font-size="10px">明</text>
<text transform="matrix(1 0 0 1 159.8335 85.5938)" font-family="'KaiTi'" font-size="10px">無</text>
<text transform="matrix(1 0 0 1 169.8335 85.5938)" font-family="'KaiTi'" font-size="10px">礙</text>
<text transform="matrix(1 0 0 1 179.8335 85.5938)" font-family="'KaiTi'" font-size="10px">攝</text>
<text transform="matrix(1 0 0 1 189.8335 85.5938)" font-family="'KaiTi'" font-size="10px">取</text>
<text transform="matrix(1 0 0 1 199.8335 85.5938)" font-family="'KaiTi'" font-size="10px">力</text>
<g>
	<line fill="none" stroke="#000000" stroke-width="0.5" stroke-miterlimit="10" x1="103.2" y1="39.8" x2="103.2" y2="74.8"/>
	<line fill="none" stroke="#000000" stroke-width="0.5" stroke-miterlimit="10" x1="103.2" y1="39.8" x2="106.9" y2="39.8"/>
	<line fill="none" stroke="#000000" stroke-width="0.5" stroke-miterlimit="10" x1="103.2" y1="74.8" x2="106.9" y2="74.8"/>
	<line fill="none" stroke="#000000" stroke-width="0.5" stroke-miterlimit="10" x1="103.2" y1="57.3" x2="99.4" y2="57.3"/>
</g>
<g>
	<line fill="none" stroke="#000000" stroke-width="0.5" stroke-miterlimit="10" x1="103.2" y1="12" x2="103.2" y2="26.3"/>
	<line fill="none" stroke="#000000" stroke-width="0.5" stroke-miterlimit="10" x1="103.2" y1="12" x2="106.9" y2="12"/>
	<line fill="none" stroke="#000000" stroke-width="0.5" stroke-miterlimit="10" x1="103.2" y1="26.3" x2="106.9" y2="26.3"/>
	<line fill="none" stroke="#000000" stroke-width="0.5" stroke-miterlimit="10" x1="103.2" y1="19.1" x2="99.4" y2="19.1"/>
</g>
<g>
	<line fill="none" stroke="#000000" stroke-width="0.5" stroke-miterlimit="10" x1="255.9" y1="74.8" x2="255.9" y2="39.8"/>
	<line fill="none" stroke="#000000" stroke-width="0.5" stroke-miterlimit="10" x1="256" y1="74.8" x2="252.3" y2="74.8"/>
	<line fill="none" stroke="#000000" stroke-width="0.5" stroke-miterlimit="10" x1="256" y1="39.8" x2="252.3" y2="39.8"/>
	<line fill="none" stroke="#000000" stroke-width="0.5" stroke-miterlimit="10" x1="255.9" y1="57.3" x2="259.7" y2="57.3"/>
</g>
<g>
	<line fill="none" stroke="#000000" stroke-width="0.5" stroke-miterlimit="10" x1="256" y1="26.3" x2="256" y2="12"/>
	<line fill="none" stroke="#000000" stroke-width="0.5" stroke-miterlimit="10" x1="256" y1="26.3" x2="232.6" y2="26.3"/>
	<line fill="none" stroke="#000000" stroke-width="0.5" stroke-miterlimit="10" x1="256" y1="12" x2="232.6" y2="12"/>
	<line fill="none" stroke="#000000" stroke-width="0.5" stroke-miterlimit="10" x1="255.9" y1="19.1" x2="259.7" y2="19.1"/>
</g>
<text transform="matrix(1 0 0 1 262.7085 22.5938)" font-family="'KaiTi'" font-size="10px">自力迴向</text>
<text transform="matrix(1 0 0 1 262.7085 61.0938)" font-family="'KaiTi'" font-size="10px">他力迴向</text>
<text transform="matrix(1 0 0 1 76.4585 22.5938)" font-family="'KaiTi'" font-size="10px">要門</text>
<text transform="matrix(1 0 0 1 76.4585 61.0938)" font-family="'KaiTi'" font-size="10px">弘願</text>
<g>
	<line fill="none" stroke="#000000" stroke-width="0.5" stroke-miterlimit="10" x1="69.8" y1="19.1" x2="69.8" y2="57.3"/>
	<line fill="none" stroke="#000000" stroke-width="0.5" stroke-miterlimit="10" x1="69.8" y1="19.1" x2="73.5" y2="19.1"/>
	<line fill="none" stroke="#000000" stroke-width="0.5" stroke-miterlimit="10" x1="69.8" y1="57.3" x2="73.5" y2="57.3"/>
	<line fill="none" stroke="#000000" stroke-width="0.5" stroke-miterlimit="10" x1="69.8" y1="38.2" x2="66" y2="38.2"/>
</g>
<text transform="matrix(1 0 0 1 33.4585 8.5938)" font-family="'KaiTi'" font-size="10px">聖道門</text>
<text transform="matrix(1 0 0 1 33.4585 41.8438)" font-family="'KaiTi'" font-size="10px">淨土門</text>
<g>
	<line fill="none" stroke="#000000" stroke-width="0.5" stroke-miterlimit="10" x1="26.8" y1="4.8" x2="26.8" y2="38.2"/>
	<line fill="none" stroke="#000000" stroke-width="0.5" stroke-miterlimit="10" x1="26.8" y1="4.8" x2="30.5" y2="4.8"/>
	<line fill="none" stroke="#000000" stroke-width="0.5" stroke-miterlimit="10" x1="26.8" y1="38.2" x2="30.5" y2="38.2"/>
	<line fill="none" stroke="#000000" stroke-width="0.5" stroke-miterlimit="10" x1="26.8" y1="21.5" x2="23" y2="21.5"/>
</g>
<text transform="matrix(1 0 0 1 2.288818e-05 25.1564)" font-family="'KaiTi'" font-size="10px">佛法</text>
<g>
	<g>
		<line fill="none" stroke="#000000" stroke-width="0.5" stroke-miterlimit="10" x1="48.2" y1="15.5" x2="48.2" y2="24.5"/>
		<g>
			<polygon points="48.2,28 46.2,23 48.2,24.2 50.3,23 			"/>
		</g>
	</g>
</g>
<g>
	<g>
		<line fill="none" stroke="#000000" stroke-width="0.5" stroke-miterlimit="10" x1="86.4" y1="32" x2="86.4" y2="41"/>
		<g>
			<polygon points="86.4,44.5 84.4,39.5 86.4,40.7 88.5,39.5 			"/>
		</g>
	</g>
</g>
</svg>
