<?xml version="1.0" encoding="utf-8"?>
<!-- Generator: Adobe Illustrator 21.0.0, SVG Export Plug-In . SVG Version: 6.00 Build 0)  -->
<svg version="1.1" id="图层_1" xmlns="http://www.w3.org/2000/svg" xmlns:xlink="http://www.w3.org/1999/xlink" x="0px" y="0px"
	 viewBox="0 0 231 66.4" style="enable-background:new 0 0 231 66.4;" xml:space="preserve">
<style type="text/css">
	.st0{enable-background:new    ;}
	.st1{font-family:'KaiTi';}
	.st2{font-size:10px;}
	.st3{letter-spacing:5;}
	.st4{fill:none;stroke:#000000;stroke-width:0.5;stroke-miterlimit:10;}
</style>
<text transform="matrix(1 0 0 1 66.9837 22.5937)" class="st0"><tspan x="0" y="0" class="st1 st2">渐教</tspan><tspan x="20" y="0" class="st1 st2 st3"> </tspan><tspan x="0" y="28" class="st1 st2">顿教</tspan></text>
<text transform="matrix(1 0 0 1 33.75 8.5937)" class="st0"><tspan x="0" y="0" class="st1 st2">小乘</tspan><tspan x="0" y="28" class="st1 st2">大乘</tspan></text>
<g>
	<line class="st4" x1="60.5" y1="19.1" x2="60.5" y2="47.5"/>
	<line class="st4" x1="60.5" y1="19.1" x2="64.3" y2="19.1"/>
	<line class="st4" x1="60.5" y1="47.5" x2="64.3" y2="47.5"/>
	<line class="st4" x1="60.5" y1="33.9" x2="56.8" y2="33.9"/>
</g>
<g>
	<line class="st4" x1="26.9" y1="4.2" x2="26.9" y2="33.9"/>
	<line class="st4" x1="26.9" y1="4.2" x2="30.7" y2="4.2"/>
	<line class="st4" x1="26.9" y1="33.9" x2="30.7" y2="33.9"/>
	<line class="st4" x1="26.9" y1="19.1" x2="23.2" y2="19.1"/>
</g>
<text transform="matrix(1 0 0 1 -4.577637e-05 22.5941)" class="st1 st2">佛法</text>
<g>
	<line class="st4" x1="93.7" y1="33.3" x2="93.7" y2="61.7"/>
	<line class="st4" x1="93.7" y1="33.3" x2="97.5" y2="33.3"/>
	<line class="st4" x1="93.7" y1="61.7" x2="97.5" y2="61.7"/>
	<line class="st4" x1="93.7" y1="47.5" x2="90" y2="47.5"/>
</g>
<text transform="matrix(1 0 0 1 100.9837 36.5936)" class="st0"><tspan x="0" y="0" class="st1 st2">圣道门</tspan><tspan x="30" y="0" class="st1 st2 st3"> </tspan><tspan x="40" y="0" class="st1 st2">断惑证理</tspan><tspan x="80" y="0" class="st1 st2 st3"> </tspan><tspan x="90" y="0" class="st1 st2">望机成渐</tspan><tspan x="0" y="28" class="st1 st2">净土门</tspan><tspan x="30" y="28" class="st1 st2 st3"> </tspan><tspan x="40" y="28" class="st1 st2">不断得证</tspan><tspan x="80" y="28" class="st1 st2 st3"> </tspan><tspan x="90" y="28" class="st1 st2">顿中之顿</tspan></text>
<line class="st4" x1="133.2" y1="33.3" x2="138.7" y2="33.3"/>
<line class="st4" x1="133.2" y1="61.7" x2="138.7" y2="61.7"/>
<line class="st4" x1="183.9" y1="33.3" x2="189.4" y2="33.3"/>
<line class="st4" x1="183.9" y1="61.7" x2="189.4" y2="61.7"/>
</svg>
