<?xml version="1.0" encoding="utf-8"?>
<!-- Generator: Adobe Illustrator 21.0.0, SVG Export Plug-In . SVG Version: 6.00 Build 0)  -->
<svg version="1.1" id="图层_1" xmlns="http://www.w3.org/2000/svg" xmlns:xlink="http://www.w3.org/1999/xlink" x="0px" y="0px"
	 viewBox="0 0 245.8 24.8" style="enable-background:new 0 0 245.8 24.8;" xml:space="preserve">
<style type="text/css">
	.st0{font-family:'KaiTi';}
	.st1{font-size:10px;}
	.st2{fill:none;stroke:#000000;stroke-width:0.5;stroke-miterlimit:10;}
</style>
<text transform="matrix(1 0 0 1 0 15.5938)" class="st0 st1">佛法</text>
<text transform="matrix(1 0 0 1 32 9)"><tspan x="0" y="0" class="st0 st1">难行道</tspan><tspan x="0" y="14" class="st0 st1">易行道</tspan></text>
<g>
	<line class="st2" x1="26.2" y1="4.9" x2="26.2" y2="19.2"/>
	<line class="st2" x1="26" y1="4.9" x2="28.9" y2="4.9"/>
	<line class="st2" x1="26" y1="19.2" x2="28.9" y2="19.2"/>
	<line class="st2" x1="23.3" y1="12.1" x2="26.2" y2="12.1"/>
</g>
<line class="st2" x1="64.9" y1="5" x2="70.5" y2="5"/>
<line class="st2" x1="64.9" y1="19.2" x2="70.5" y2="19.2"/>
<text transform="matrix(1 0 0 1 73 9)"><tspan x="0" y="0" class="st0 st1">圣者</tspan><tspan x="0" y="14" class="st0 st1">凡夫</tspan></text>
<line class="st2" x1="95.4" y1="5" x2="101" y2="5"/>
<line class="st2" x1="95.4" y1="19.2" x2="101" y2="19.2"/>
<text transform="matrix(1 0 0 1 103.9946 8.5938)"><tspan x="0" y="0" class="st0 st1">自力修行</tspan><tspan x="0" y="14" class="st0 st1">他力救度</tspan></text>
<line class="st2" x1="146.9" y1="5" x2="152.5" y2="5"/>
<line class="st2" x1="146.9" y1="19.2" x2="152.5" y2="19.2"/>
<text transform="matrix(1 0 0 1 154.9946 8.5938)"><tspan x="0" y="0" class="st0 st1">六度万行</tspan><tspan x="0" y="14" class="st0 st1">称名一行</tspan></text>
<line class="st2" x1="197.2" y1="5" x2="202.8" y2="5"/>
<line class="st2" x1="197.2" y1="19.2" x2="202.8" y2="19.2"/>
<text transform="matrix(1 0 0 1 205.8053 9)"><tspan x="0" y="0" class="st0 st1">证果不定</tspan><tspan x="0" y="14" class="st0 st1">往生决定</tspan></text>
</svg>
