<?xml version="1.0" encoding="utf-8"?>
<!-- Generator: Adobe Illustrator 21.0.0, SVG Export Plug-In . SVG Version: 6.00 Build 0)  -->
<svg version="1.1" baseProfile="tiny" id="圖層_1"
	 xmlns="http://www.w3.org/2000/svg" xmlns:xlink="http://www.w3.org/1999/xlink" x="0px" y="0px" viewBox="0 0 263.2 66.6"
	 overflow="scroll" xml:space="preserve">
<text transform="matrix(1 0 0 1 33.2336 8.5937)" font-family="'KaiTi'" font-size="10px">難</text>
<text transform="matrix(1 0 0 1 43.2336 8.5937)" font-family="'KaiTi'" font-size="10px">行</text>
<text transform="matrix(1 0 0 1 53.2336 8.5937)" font-family="'KaiTi'" font-size="10px">道</text>
<text transform="matrix(1 0 0 1 63.2336 8.5937)" font-family="'KaiTi'" font-size="10px"> </text>
<text transform="matrix(1 0 0 1 73.2336 8.5937)" font-family="'KaiTi'" font-size="10px">聖</text>
<text transform="matrix(1 0 0 1 83.2336 8.5937)" font-family="'KaiTi'" font-size="10px">道</text>
<text transform="matrix(1 0 0 1 93.2336 8.5937)" font-family="'KaiTi'" font-size="10px">門</text>
<text transform="matrix(1 0 0 1 103.2336 8.5937)" font-family="'KaiTi'" font-size="10px"> </text>
<text transform="matrix(1 0 0 1 113.2336 8.5937)" font-family="'KaiTi'" font-size="10px">自</text>
<text transform="matrix(1 0 0 1 123.2336 8.5937)" font-family="'KaiTi'" font-size="10px">力</text>
<text transform="matrix(1 0 0 1 133.2336 8.5937)" font-family="'KaiTi'" font-size="10px"> </text>
<text transform="matrix(1 0 0 1 143.2336 8.5937)" font-family="'KaiTi'" font-size="10px">聖</text>
<text transform="matrix(1 0 0 1 153.2336 8.5937)" font-family="'KaiTi'" font-size="10px">者</text>
<text transform="matrix(1 0 0 1 163.2336 8.5937)" font-family="'KaiTi'" font-size="10px"> </text>
<text transform="matrix(1 0 0 1 173.2336 8.5937)" font-family="'KaiTi'" font-size="10px">修</text>
<text transform="matrix(1 0 0 1 183.2336 8.5937)" font-family="'KaiTi'" font-size="10px">行</text>
<text transform="matrix(1 0 0 1 193.2336 8.5937)" font-family="'KaiTi'" font-size="10px">(</text>
<text transform="matrix(1 0 0 1 198.2336 8.5937)" font-family="'KaiTi'" font-size="10px">修</text>
<text transform="matrix(1 0 0 1 208.2336 8.5937)" font-family="'KaiTi'" font-size="10px">諸</text>
<text transform="matrix(1 0 0 1 218.2336 8.5937)" font-family="'KaiTi'" font-size="10px">行</text>
<text transform="matrix(1 0 0 1 228.2336 8.5937)" font-family="'KaiTi'" font-size="10px">)</text>
<text transform="matrix(1 0 0 1 233.2336 8.5937)" font-family="'KaiTi'" font-size="10px"> </text>
<text transform="matrix(1 0 0 1 243.2336 8.5937)" font-family="'KaiTi'" font-size="10px">六</text>
<text transform="matrix(1 0 0 1 253.2336 8.5937)" font-family="'KaiTi'" font-size="10px">度</text>
<text transform="matrix(1 0 0 1 33.2336 22.5937)" font-family="'KaiTi'" font-size="10px"> </text>
<text transform="matrix(1 0 0 1 43.2336 22.5937)" font-family="'KaiTi'" font-size="10px"> </text>
<text transform="matrix(1 0 0 1 53.2336 22.5937)" font-family="'KaiTi'" font-size="10px"> </text>
<text transform="matrix(1 0 0 1 63.2336 22.5937)" font-family="'KaiTi'" font-size="10px"> </text>
<text transform="matrix(1 0 0 1 73.2336 22.5937)" font-family="'KaiTi'" font-size="10px">如</text>
<text transform="matrix(1 0 0 1 83.2336 22.5937)" font-family="'KaiTi'" font-size="10px">陸</text>
<text transform="matrix(1 0 0 1 93.2336 22.5937)" font-family="'KaiTi'" font-size="10px">道</text>
<text transform="matrix(1 0 0 1 103.2336 22.5937)" font-family="'KaiTi'" font-size="10px">步</text>
<text transform="matrix(1 0 0 1 113.2336 22.5937)" font-family="'KaiTi'" font-size="10px">行</text>
<text transform="matrix(1 0 0 1 123.2336 22.5937)" font-family="'KaiTi'" font-size="10px"> </text>
<text transform="matrix(1 0 0 1 133.2336 22.5937)" font-family="'KaiTi'" font-size="10px">苦</text>
<text transform="matrix(1 0 0 1 143.2336 22.5937)" font-family="'KaiTi'" font-size="10px"> </text>
<text transform="matrix(1 0 0 1 153.2336 22.5937)" font-family="'KaiTi'" font-size="10px">諸</text>
<text transform="matrix(1 0 0 1 163.2336 22.5937)" font-family="'DFKaiShu-SB-Estd-BF'" font-size="10px">、</text>
<text transform="matrix(1 0 0 1 173.2336 22.5937)" font-family="'KaiTi'" font-size="10px">久</text>
<text transform="matrix(1 0 0 1 183.2336 22.5937)" font-family="'DFKaiShu-SB-Estd-BF'" font-size="10px">、</text>
<text transform="matrix(1 0 0 1 193.2336 22.5937)" font-family="'KaiTi'" font-size="10px">墮</text>
<text transform="matrix(1 0 0 1 203.2336 22.5937)" font-family="'KaiTi'" font-size="10px"> </text>
<text transform="matrix(1 0 0 1 213.2336 22.5937)" font-family="'KaiTi'" font-size="10px">證</text>
<text transform="matrix(1 0 0 1 223.2336 22.5937)" font-family="'KaiTi'" font-size="10px">果</text>
<text transform="matrix(1 0 0 1 233.2336 22.5937)" font-family="'KaiTi'" font-size="10px">不</text>
<text transform="matrix(1 0 0 1 243.2336 22.5937)" font-family="'KaiTi'" font-size="10px">定</text>
<text transform="matrix(1 0 0 1 33.2336 50.5937)" font-family="'KaiTi'" font-size="10px">易</text>
<text transform="matrix(1 0 0 1 43.2336 50.5937)" font-family="'KaiTi'" font-size="10px">行</text>
<text transform="matrix(1 0 0 1 53.2336 50.5937)" font-family="'KaiTi'" font-size="10px">道</text>
<text transform="matrix(1 0 0 1 63.2336 50.5937)" font-family="'KaiTi'" font-size="10px"> </text>
<text transform="matrix(1 0 0 1 73.2336 50.5937)" font-family="'KaiTi'" font-size="10px">淨</text>
<text transform="matrix(1 0 0 1 83.2336 50.5937)" font-family="'KaiTi'" font-size="10px">土</text>
<text transform="matrix(1 0 0 1 93.2336 50.5937)" font-family="'KaiTi'" font-size="10px">門</text>
<text transform="matrix(1 0 0 1 103.2336 50.5937)" font-family="'KaiTi'" font-size="10px"> </text>
<text transform="matrix(1 0 0 1 113.2336 50.5937)" font-family="'KaiTi'" font-size="10px">他</text>
<text transform="matrix(1 0 0 1 123.2336 50.5937)" font-family="'KaiTi'" font-size="10px">力</text>
<text transform="matrix(1 0 0 1 133.2336 50.5937)" font-family="'KaiTi'" font-size="10px"> </text>
<text transform="matrix(1 0 0 1 143.2336 50.5937)" font-family="'KaiTi'" font-size="10px">凡</text>
<text transform="matrix(1 0 0 1 153.2336 50.5937)" font-family="'KaiTi'" font-size="10px">夫</text>
<text transform="matrix(1 0 0 1 163.2336 50.5937)" font-family="'KaiTi'" font-size="10px"> </text>
<text transform="matrix(1 0 0 1 173.2336 50.5937)" font-family="'KaiTi'" font-size="10px">信</text>
<text transform="matrix(1 0 0 1 183.2336 50.5937)" font-family="'KaiTi'" font-size="10px">心</text>
<text transform="matrix(1 0 0 1 193.2336 50.5937)" font-family="'KaiTi'" font-size="10px">(</text>
<text transform="matrix(1 0 0 1 198.2336 50.5937)" font-family="'KaiTi'" font-size="10px">信</text>
<text transform="matrix(1 0 0 1 208.2336 50.5937)" font-family="'KaiTi'" font-size="10px">念</text>
<text transform="matrix(1 0 0 1 218.2336 50.5937)" font-family="'KaiTi'" font-size="10px">佛</text>
<text transform="matrix(1 0 0 1 228.2336 50.5937)" font-family="'KaiTi'" font-size="10px">)</text>
<text transform="matrix(1 0 0 1 233.2336 50.5937)" font-family="'KaiTi'" font-size="10px"> </text>
<text transform="matrix(1 0 0 1 243.2336 50.5937)" font-family="'KaiTi'" font-size="10px">救</text>
<text transform="matrix(1 0 0 1 253.2336 50.5937)" font-family="'KaiTi'" font-size="10px">度</text>
<text transform="matrix(1 0 0 1 33.2336 64.5937)" font-family="'KaiTi'" font-size="10px"> </text>
<text transform="matrix(1 0 0 1 43.2336 64.5937)" font-family="'KaiTi'" font-size="10px"> </text>
<text transform="matrix(1 0 0 1 53.2336 64.5937)" font-family="'KaiTi'" font-size="10px"> </text>
<text transform="matrix(1 0 0 1 63.2336 64.5937)" font-family="'KaiTi'" font-size="10px"> </text>
<text transform="matrix(1 0 0 1 73.2336 64.5937)" font-family="'KaiTi'" font-size="10px">如</text>
<text transform="matrix(1 0 0 1 83.2336 64.5937)" font-family="'KaiTi'" font-size="10px">水</text>
<text transform="matrix(1 0 0 1 93.2336 64.5937)" font-family="'KaiTi'" font-size="10px">道</text>
<text transform="matrix(1 0 0 1 103.2336 64.5937)" font-family="'KaiTi'" font-size="10px">乘</text>
<text transform="matrix(1 0 0 1 113.2336 64.5937)" font-family="'KaiTi'" font-size="10px">船</text>
<text transform="matrix(1 0 0 1 123.2336 64.5937)" font-family="'KaiTi'" font-size="10px"> </text>
<text transform="matrix(1 0 0 1 133.2336 64.5937)" font-family="'KaiTi'" font-size="10px">樂</text>
<text transform="matrix(1 0 0 1 143.2336 64.5937)" font-family="'KaiTi'" font-size="10px"> </text>
<text transform="matrix(1 0 0 1 153.2336 64.5937)" font-family="'KaiTi'" font-size="10px">一</text>
<text transform="matrix(1 0 0 1 163.2336 64.5937)" font-family="'DFKaiShu-SB-Estd-BF'" font-size="10px">、</text>
<text transform="matrix(1 0 0 1 173.2336 64.5937)" font-family="'KaiTi'" font-size="10px">速</text>
<text transform="matrix(1 0 0 1 183.2336 64.5937)" font-family="'DFKaiShu-SB-Estd-BF'" font-size="10px">、</text>
<text transform="matrix(1 0 0 1 193.2336 64.5937)" font-family="'KaiTi'" font-size="10px">必</text>
<text transform="matrix(1 0 0 1 203.2336 64.5937)" font-family="'KaiTi'" font-size="10px"> </text>
<text transform="matrix(1 0 0 1 213.2336 64.5937)" font-family="'KaiTi'" font-size="10px">往</text>
<text transform="matrix(1 0 0 1 223.2336 64.5937)" font-family="'KaiTi'" font-size="10px">生</text>
<text transform="matrix(1 0 0 1 233.2336 64.5937)" font-family="'KaiTi'" font-size="10px">決</text>
<text transform="matrix(1 0 0 1 243.2336 64.5937)" font-family="'KaiTi'" font-size="10px">定</text>
<g>
	<line fill="none" stroke="#000000" stroke-width="0.5" stroke-miterlimit="10" x1="27.4" y1="4.4" x2="27.4" y2="47.1"/>
	<line fill="none" stroke="#000000" stroke-width="0.5" stroke-miterlimit="10" x1="27.4" y1="4.4" x2="31.1" y2="4.4"/>
	<line fill="none" stroke="#000000" stroke-width="0.5" stroke-miterlimit="10" x1="27.4" y1="47.1" x2="31.1" y2="47.1"/>
	<line fill="none" stroke="#000000" stroke-width="0.5" stroke-miterlimit="10" x1="27.4" y1="26.6" x2="23.6" y2="26.6"/>
</g>
<text transform="matrix(1 0 0 1 -4.577637e-05 30.3645)" font-family="'KaiTi'" font-size="10px">佛法</text>
<line fill="none" stroke="#000000" stroke-width="0.5" stroke-miterlimit="10" x1="65.2" y1="60.9" x2="70.7" y2="60.9"/>
<line fill="none" stroke="#000000" stroke-width="0.5" stroke-miterlimit="10" x1="65.2" y1="4.4" x2="70.7" y2="4.4"/>
<line fill="none" stroke="#000000" stroke-width="0.5" stroke-miterlimit="10" x1="105.2" y1="4.4" x2="110.7" y2="4.4"/>
<line fill="none" stroke="#000000" stroke-width="0.5" stroke-miterlimit="10" x1="135.4" y1="4.4" x2="140.9" y2="4.4"/>
<line fill="none" stroke="#000000" stroke-width="0.5" stroke-miterlimit="10" x1="165.6" y1="4.4" x2="171.1" y2="4.4"/>
<line fill="none" stroke="#000000" stroke-width="0.5" stroke-miterlimit="10" x1="234.3" y1="4.4" x2="239.8" y2="4.4"/>
<line fill="none" stroke="#000000" stroke-width="0.5" stroke-miterlimit="10" x1="64.9" y1="18.4" x2="70.4" y2="18.4"/>
<line fill="none" stroke="#000000" stroke-width="0.5" stroke-miterlimit="10" x1="105.2" y1="47.1" x2="110.7" y2="47.1"/>
<line fill="none" stroke="#000000" stroke-width="0.5" stroke-miterlimit="10" x1="135.4" y1="47.1" x2="140.9" y2="47.1"/>
<line fill="none" stroke="#000000" stroke-width="0.5" stroke-miterlimit="10" x1="165.6" y1="47.1" x2="171.1" y2="47.1"/>
<line fill="none" stroke="#000000" stroke-width="0.5" stroke-miterlimit="10" x1="65.3" y1="47.1" x2="70.8" y2="47.1"/>
<line fill="none" stroke="#000000" stroke-width="0.5" stroke-miterlimit="10" x1="125.4" y1="18.4" x2="130.9" y2="18.4"/>
<line fill="none" stroke="#000000" stroke-width="0.5" stroke-miterlimit="10" x1="145.5" y1="18.4" x2="151" y2="18.4"/>
<line fill="none" stroke="#000000" stroke-width="0.5" stroke-miterlimit="10" x1="205.3" y1="18.4" x2="210.8" y2="18.4"/>
<line fill="none" stroke="#000000" stroke-width="0.5" stroke-miterlimit="10" x1="125.4" y1="60.9" x2="130.9" y2="60.9"/>
<line fill="none" stroke="#000000" stroke-width="0.5" stroke-miterlimit="10" x1="145.5" y1="60.9" x2="151" y2="60.9"/>
<line fill="none" stroke="#000000" stroke-width="0.5" stroke-miterlimit="10" x1="205.3" y1="60.9" x2="210.8" y2="60.9"/>
<line fill="none" stroke="#000000" stroke-width="0.5" stroke-miterlimit="10" x1="234.3" y1="47.1" x2="239.8" y2="47.1"/>
</svg>
