<?xml version="1.0" encoding="utf-8"?>
<!-- Generator: Adobe Illustrator 21.1.0, SVG Export Plug-In . SVG Version: 6.00 Build 0)  -->
<svg version="1.1" id="图层_1" xmlns="http://www.w3.org/2000/svg" xmlns:xlink="http://www.w3.org/1999/xlink" x="0px" y="0px"
	 viewBox="0 0 269.1 83.9" style="enable-background:new 0 0 269.1 83.9;" xml:space="preserve">
<style type="text/css">
	.st0{font-family:'KaiTi';}
	.st1{font-size:12px;}
	.st2{fill:none;}
	.st3{fill:none;stroke:#000000;stroke-width:0.5;stroke-miterlimit:10;}
</style>
<text transform="matrix(1 0 0 1 34.0358 9.5977)"><tspan x="0" y="0" class="st0 st1">难行道—自力—圣道门………………………………搁</tspan><tspan x="0" y="14.4" class="st0 st1">　　　　　　　　　　　杂行</tspan><tspan x="156" y="14.4" class="st0 st1">……………………</tspan><tspan x="221.3" y="14.4" class="st0 st1">抛</tspan><tspan x="0" y="28.8" class="st0 st1">易行道—他力—净土门　　　　助　业……傍 </tspan><tspan x="0" y="43.2" class="st0 st1">　　　　　　　　　　　正行</tspan><tspan x="0" y="57.6" class="st0 st1">　　　　　　　　　　　　　　正定业……专</tspan><tspan x="0" y="72" class="st0 st1">　　　　　　　　　　　　　　 (本愿名号)</tspan></text>
<rect y="14.8" class="st2" width="26" height="12.8"/>
<text transform="matrix(1 0 0 1 1.183244e-04 24.4067)" class="st0 st1">佛法</text>
<g>
	<g>
		<line class="st3" x1="136.5" y1="13.6" x2="136.5" y2="22.6"/>
		<g>
			<polygon points="136.5,26.1 134.5,21.1 136.5,22.3 138.6,21.1 			"/>
		</g>
	</g>
</g>
<g>
	<g>
		<line class="st3" x1="178.5" y1="28.6" x2="178.5" y2="37.6"/>
		<g>
			<polygon points="178.5,41.1 176.5,36.1 178.5,37.3 180.6,36.1 			"/>
		</g>
	</g>
</g>
<g>
	<g>
		<line class="st3" x1="219.5" y1="41.6" x2="219.5" y2="50.6"/>
		<g>
			<polygon points="219.5,54.1 217.5,49.1 219.5,50.3 221.6,49.1 			"/>
		</g>
	</g>
</g>
<g>
	<line class="st3" x1="29.3" y1="5.4" x2="29.3" y2="34.6"/>
	<line class="st3" x1="29.3" y1="5.4" x2="32.5" y2="5.4"/>
	<line class="st3" x1="29.3" y1="34.6" x2="32.5" y2="34.6"/>
	<line class="st3" x1="29.3" y1="20.5" x2="26" y2="20.5"/>
</g>
<g>
	<line class="st3" x1="160.3" y1="19.4" x2="160.3" y2="48.6"/>
	<line class="st3" x1="160.3" y1="19.4" x2="163.5" y2="19.4"/>
	<line class="st3" x1="160.3" y1="48.6" x2="163.5" y2="48.6"/>
	<line class="st3" x1="160.3" y1="34.5" x2="157" y2="34.5"/>
</g>
<g>
	<line class="st3" x1="196.3" y1="34.4" x2="196.3" y2="63.6"/>
	<line class="st3" x1="196.3" y1="34.4" x2="199.5" y2="34.4"/>
	<line class="st3" x1="196.3" y1="63.6" x2="199.5" y2="63.6"/>
	<line class="st3" x1="196.3" y1="49.5" x2="193" y2="49.5"/>
</g>
</svg>
