<?xml version="1.0" encoding="utf-8"?>
<!-- Generator: Adobe Illustrator 21.1.0, SVG Export Plug-In . SVG Version: 6.00 Build 0)  -->
<svg version="1.1" baseProfile="tiny" id="圖層_1"
	 xmlns="http://www.w3.org/2000/svg" xmlns:xlink="http://www.w3.org/1999/xlink" x="0px" y="0px" viewBox="0 0 343.1 93.5"
	 xml:space="preserve">
<g>
	<line fill="none" stroke="#040000" stroke-width="0.5" stroke-miterlimit="10" x1="86.3" y1="17.5" x2="89.2" y2="17.5"/>
	<line fill="none" stroke="#040000" stroke-width="0.5" stroke-miterlimit="10" x1="89.2" y1="3.7" x2="92.1" y2="3.7"/>
	<line fill="none" stroke="#040000" stroke-width="0.5" stroke-miterlimit="10" x1="89.2" y1="31.2" x2="92.1" y2="31.2"/>
	<line fill="none" stroke="#040000" stroke-width="0.5" stroke-miterlimit="10" x1="89.2" y1="3.5" x2="89.2" y2="31.4"/>
</g>
<g>
	<line fill="none" stroke="#040000" stroke-width="0.5" stroke-miterlimit="10" x1="271.7" y1="17.4" x2="268.8" y2="17.4"/>
	<line fill="none" stroke="#040000" stroke-width="0.5" stroke-miterlimit="10" x1="268.8" y1="31.1" x2="265.9" y2="31.1"/>
	<line fill="none" stroke="#040000" stroke-width="0.5" stroke-miterlimit="10" x1="268.8" y1="3.7" x2="265.9" y2="3.7"/>
	<line fill="none" stroke="#040000" stroke-width="0.5" stroke-miterlimit="10" x1="268.8" y1="31.4" x2="268.8" y2="3.5"/>
</g>
<line fill="none" stroke="#040000" stroke-width="0.5" stroke-miterlimit="10" x1="161.9" y1="4.3" x2="167.7" y2="4.3"/>
<line fill="none" stroke="#040000" stroke-width="0.5" stroke-miterlimit="10" x1="161.9" y1="28.9" x2="167.7" y2="28.9"/>
<line fill="none" stroke="#040000" stroke-width="0.5" stroke-miterlimit="10" x1="161.9" y1="80.3" x2="167.7" y2="80.3"/>
<g>
	<line fill="none" stroke="#040000" stroke-width="0.5" stroke-miterlimit="10" x1="301.1" y1="80.5" x2="301.1" y2="17.1"/>
	<line fill="none" stroke="#040000" stroke-width="0.5" stroke-miterlimit="10" x1="301.4" y1="80.2" x2="298.5" y2="80.2"/>
	<line fill="none" stroke="#040000" stroke-width="0.5" stroke-miterlimit="10" x1="301.4" y1="17.3" x2="298.5" y2="17.3"/>
	<line fill="none" stroke="#040000" stroke-width="0.5" stroke-miterlimit="10" x1="304.1" y1="48.8" x2="301.2" y2="48.8"/>
</g>
<line fill="none" stroke="#040000" stroke-width="0.5" stroke-miterlimit="10" x1="86.3" y1="80.3" x2="92.1" y2="80.3"/>
<g>
	<line fill="none" stroke="#040000" stroke-width="0.5" stroke-miterlimit="10" x1="27.9" y1="17.1" x2="27.9" y2="80.5"/>
	<line fill="none" stroke="#040000" stroke-width="0.5" stroke-miterlimit="10" x1="27.7" y1="17.4" x2="30.6" y2="17.4"/>
	<line fill="none" stroke="#040000" stroke-width="0.5" stroke-miterlimit="10" x1="27.7" y1="80.3" x2="30.6" y2="80.3"/>
	<line fill="none" stroke="#040000" stroke-width="0.5" stroke-miterlimit="10" x1="24.9" y1="48.8" x2="27.8" y2="48.8"/>
</g>
<line fill="none" stroke="#040000" stroke-width="0.5" stroke-miterlimit="10" x1="226.3" y1="80.2" x2="271.7" y2="80.2"/>
<text transform="matrix(1 0 0 1 33.3856 21.2062)" font-family="KaiTi" font-size="10px">生</text>
<text transform="matrix(1 0 0 1 46.7157 21.2062)" font-family="KaiTi" font-size="10px">彼</text>
<text transform="matrix(1 0 0 1 60.0457 21.2062)" font-family="KaiTi" font-size="10px">淨</text>
<text transform="matrix(1 0 0 1 73.3758 21.2062)" font-family="KaiTi" font-size="10px">土</text>
<text transform="matrix(1 0 0 1 33.3856 49.2062)" font-family="KaiTi" font-size="10px">及</text>
<text transform="matrix(1 0 0 1 33.3856 77.2062)" font-family="KaiTi" font-size="10px">彼</text>
<text transform="matrix(1 0 0 1 43.3856 77.2062)" font-family="KaiTi" font-size="10px">菩</text>
<text transform="matrix(1 0 0 1 53.3856 77.2062)" font-family="KaiTi" font-size="10px">薩</text>
<text transform="matrix(1 0 0 1 63.3856 77.2062)" font-family="KaiTi" font-size="10px">人</text>
<text transform="matrix(1 0 0 1 73.3856 77.2062)" font-family="KaiTi" font-size="10px">天</text>
<text transform="matrix(1 0 0 1 33.3856 91.2062)" font-family="KaiTi" font-size="10px">所</text>
<text transform="matrix(1 0 0 1 43.3856 91.2062)" font-family="KaiTi" font-size="10px">起</text>
<text transform="matrix(1 0 0 1 53.3856 91.2062)" font-family="KaiTi" font-size="10px">諸</text>
<text transform="matrix(1 0 0 1 63.3856 91.2062)" font-family="KaiTi" font-size="10px">行</text>
<text transform="matrix(1 0 0 1 1.630783e-04 51.8314)" font-family="KaiTi" font-size="10px">凡是</text>
<text transform="matrix(1 0 0 1 90.6708 7.9979)" font-family="KaiTi" font-size="10px">（五念門）</text>
<text transform="matrix(1 0 0 1 90.6708 31.9979)" font-family="KaiTi" font-size="10px">（五果門前四）</text>
<text transform="matrix(1 0 0 1 170.4587 8.05)" font-family="KaiTi" font-size="10px">第十八願 （往生因）</text>
<text transform="matrix(1 0 0 1 170.4587 32.05)" font-family="KaiTi" font-size="10px">第十一願 （往生果）</text>
<text transform="matrix(1 0 0 1 90.6707 84.1703)" font-family="KaiTi" font-size="10px">（</text>
<text transform="matrix(1 0 0 1 100.6707 84.1703)" font-family="KaiTi" font-size="10px">五</text>
<text transform="matrix(1 0 0 1 110.6707 84.1703)" font-family="KaiTi" font-size="10px">果</text>
<text transform="matrix(1 0 0 1 120.6707 84.1703)" font-family="KaiTi" font-size="10px">門</text>
<text transform="matrix(1 0 0 1 130.6707 84.1703)" font-family="KaiTi" font-size="10px">後</text>
<text transform="matrix(1 0 0 1 140.6707 84.1703)" font-family="KaiTi" font-size="10px">一</text>
<text transform="matrix(1 0 0 1 150.6707 84.1703)" font-family="KaiTi" font-size="10px">）</text>
<text transform="matrix(1 0 0 1 160.6707 84.1703)" font-family="KaiTi" font-size="10px"> </text>
<text transform="matrix(1 0 0 1 170.6707 84.1703)" font-family="KaiTi" font-size="10px">第</text>
<text transform="matrix(1 0 0 1 180.6707 84.1703)" font-family="KaiTi" font-size="10px">二</text>
<text transform="matrix(1 0 0 1 190.6707 84.1703)" font-family="KaiTi" font-size="10px">十</text>
<text transform="matrix(1 0 0 1 200.6707 84.1703)" font-family="KaiTi" font-size="10px">二</text>
<text transform="matrix(1 0 0 1 210.6707 84.1703)" font-family="KaiTi" font-size="10px">願</text>
<text transform="matrix(1 0 0 1 220.6707 84.1703)" font-family="KaiTi" font-size="10px"> </text>
<text transform="matrix(1 0 0 1 224.0057 84.1703)" font-family="KaiTi" font-size="10px"> </text>
<text transform="matrix(1 0 0 1 234.0057 84.1703)" font-family="KaiTi" font-size="10px"> </text>
<text transform="matrix(1 0 0 1 244.0057 84.1703)" font-family="KaiTi" font-size="10px"> </text>
<text transform="matrix(1 0 0 1 254.0057 84.1703)" font-family="KaiTi" font-size="10px"> </text>
<text transform="matrix(1 0 0 1 264.0057 84.1703)" font-family="KaiTi" font-size="10px"> </text>
<text transform="matrix(1 0 0 1 274.0057 84.1703)" font-family="KaiTi" font-size="10px">還</text>
<text transform="matrix(1 0 0 1 284.0057 84.1703)" font-family="KaiTi" font-size="10px">相</text>
<text transform="matrix(1 0 0 1 273.0844 21.2061)" font-family="KaiTi" font-size="10px">往相</text>
<text transform="matrix(1 0 0 1 308.0996 44.9841)" font-family="KaiTi" font-size="10px">本願力</text>
<text transform="matrix(1 0 0 1 303.0996 56.9841)" font-family="KaiTi" font-size="10px">（他力）</text>
</svg>
