<?xml version="1.0" encoding="utf-8"?>
<!-- Generator: Adobe Illustrator 21.0.0, SVG Export Plug-In . SVG Version: 6.00 Build 0)  -->
<svg version="1.1" id="圖層_1" xmlns="http://www.w3.org/2000/svg" xmlns:xlink="http://www.w3.org/1999/xlink" x="0px" y="0px"
	 viewBox="0 0 122.6 55.9" style="enable-background:new 0 0 122.6 55.9;" xml:space="preserve">
<style type="text/css">
	.st0{font-family:'KaiTi';}
	.st1{font-size:10px;}
	.st2{fill:none;stroke:#040000;stroke-width:0.5;stroke-miterlimit:10;}
</style>
<text transform="matrix(1 0 0 1 31.5 8.5938)"><tspan x="0" y="0" class="st0 st1">安心</tspan><tspan x="0" y="14" class="st0 st1">起行</tspan></text>
<g>
	<line class="st2" x1="22.6" y1="12" x2="25.5" y2="12"/>
	<line class="st2" x1="25.5" y1="4.7" x2="28.4" y2="4.7"/>
	<line class="st2" x1="25.5" y1="19.6" x2="28.4" y2="19.6"/>
	<line class="st2" x1="25.5" y1="4.5" x2="25.5" y2="19.6"/>
</g>
<line class="st2" x1="59.6" y1="4.7" x2="54" y2="4.7"/>
<line class="st2" x1="59.6" y1="19.6" x2="54" y2="19.6"/>
<text transform="matrix(1 0 0 1 62.625 8.5938)"><tspan x="0" y="0" class="st0 st1">信受彌陀救度</tspan><tspan x="0" y="14" class="st0 st1">專稱彌陀佛名</tspan></text>
<text transform="matrix(1 0 0 1 0 15.5938)" class="st0 st1">方法</text>
<text transform="matrix(1 0 0 1 31.4999 40.0938)"><tspan x="0" y="0" class="st0 st1">自利</tspan><tspan x="0" y="14" class="st0 st1">利他</tspan></text>
<g>
	<line class="st2" x1="22.6" y1="43.5" x2="25.5" y2="43.5"/>
	<line class="st2" x1="25.5" y1="36.2" x2="28.4" y2="36.2"/>
	<line class="st2" x1="25.5" y1="51.1" x2="28.4" y2="51.1"/>
	<line class="st2" x1="25.5" y1="36" x2="25.5" y2="51.1"/>
</g>
<line class="st2" x1="59.6" y1="36.2" x2="54" y2="36.2"/>
<line class="st2" x1="59.6" y1="51.1" x2="54" y2="51.1"/>
<text transform="matrix(1 0 0 1 62.6248 40.0938)"><tspan x="0" y="0" class="st0 st1">願生彌陀淨土</tspan><tspan x="0" y="14" class="st0 st1">廣度十方眾生</tspan></text>
<text transform="matrix(1 0 0 1 -1.144409e-04 47.0938)" class="st0 st1">目的</text>
</svg>
