<?xml version="1.0" encoding="utf-8"?>
<!-- Generator: Adobe Illustrator 21.0.0, SVG Export Plug-In . SVG Version: 6.00 Build 0)  -->
<svg version="1.1" baseProfile="tiny" id="圖層_1"
	 xmlns="http://www.w3.org/2000/svg" xmlns:xlink="http://www.w3.org/1999/xlink" x="0px" y="0px" viewBox="0 0 156.3 59.4"
	 overflow="scroll" xml:space="preserve">
<text transform="matrix(1 0 0 1 34.25 8.5938)" font-family="'KaiTi'" font-size="10px">聖覺</text>
<text transform="matrix(1 0 0 1 34.25 22.5938)" font-family="'KaiTi'" font-size="10px">聖光</text>
<text transform="matrix(1 0 0 1 34.25 36.5938)" font-family="'KaiTi'" font-size="10px">證空</text>
<text transform="matrix(1 0 0 1 34.25 50.5938)" font-family="'KaiTi'" font-size="10px">親鸞</text>
<text transform="matrix(1 0 0 1 66.75 22.5938)" font-family="'KaiTi'" font-size="10px">聖達</text>
<text transform="matrix(1 0 0 1 66.75 36.5938)" font-family="'KaiTi'" font-size="10px">圓空</text>
<text transform="matrix(1 0 0 1 66.75 50.5938)" font-family="'KaiTi'" font-size="10px">觀鏡</text>
<text transform="matrix(1 0 0 1 103.25 22.5938)" font-family="'KaiTi'" font-size="10px">一遍</text>
<text transform="matrix(1 0 0 1 103.25 36.5938)" font-family="'KaiTi'" font-size="10px">顯意</text>
<text transform="matrix(1 0 0 1 103.25 50.5938)" font-family="'KaiTi'" font-size="10px">彰空</text>
<text transform="matrix(1 0 0 1 136.25 43.5938)" font-family="'KaiTi'" font-size="10px">覺如</text>
<text transform="matrix(1 0 0 1 136.25 57.5938)" font-family="'KaiTi'" font-size="10px">存覺</text>
<g>
	<line fill="none" stroke="#000000" stroke-width="0.5" stroke-miterlimit="10" x1="126.4" y1="47.1" x2="129.3" y2="47.1"/>
	<line fill="none" stroke="#000000" stroke-width="0.5" stroke-miterlimit="10" x1="129.3" y1="40.2" x2="132.1" y2="40.2"/>
	<line fill="none" stroke="#000000" stroke-width="0.5" stroke-miterlimit="10" x1="129.3" y1="54.4" x2="132.1" y2="54.4"/>
	<line fill="none" stroke="#000000" stroke-width="0.5" stroke-miterlimit="10" x1="129.3" y1="40" x2="129.3" y2="54.6"/>
</g>
<g>
	<line fill="none" stroke="#000000" stroke-width="0.5" stroke-miterlimit="10" x1="57.8" y1="33.1" x2="60.6" y2="33.1"/>
	<line fill="none" stroke="#000000" stroke-width="0.5" stroke-miterlimit="10" x1="60.6" y1="19.3" x2="63.5" y2="19.3"/>
	<line fill="none" stroke="#000000" stroke-width="0.5" stroke-miterlimit="10" x1="60.6" y1="46.8" x2="63.5" y2="46.8"/>
	<line fill="none" stroke="#000000" stroke-width="0.5" stroke-miterlimit="10" x1="60.6" y1="19.1" x2="60.6" y2="47.1"/>
</g>
<text transform="matrix(1 0 0 1 0 29.5938)" font-family="'KaiTi'" font-size="10px">法然</text>
<g>
	<line fill="none" stroke="#000000" stroke-width="0.5" stroke-miterlimit="10" x1="30.1" y1="4.6" x2="27.2" y2="4.6"/>
	<line fill="none" stroke="#000000" stroke-width="0.5" stroke-miterlimit="10" x1="30.1" y1="46.5" x2="27.2" y2="46.5"/>
	<line fill="none" stroke="#000000" stroke-width="0.5" stroke-miterlimit="10" x1="27.4" y1="25.4" x2="24.5" y2="25.4"/>
	<line fill="none" stroke="#000000" stroke-width="0.5" stroke-miterlimit="10" x1="27.2" y1="46.8" x2="27.2" y2="4.3"/>
</g>
<line fill="none" stroke="#000000" stroke-width="0.5" stroke-miterlimit="10" x1="89.8" y1="19.3" x2="99.2" y2="19.3"/>
<line fill="none" stroke="#000000" stroke-width="0.5" stroke-miterlimit="10" x1="89.8" y1="33.1" x2="99.2" y2="33.1"/>
<line fill="none" stroke="#000000" stroke-width="0.5" stroke-miterlimit="10" x1="89.8" y1="47.1" x2="99.2" y2="47.1"/>
<line fill="none" stroke="#000000" stroke-width="0.5" stroke-miterlimit="10" x1="89.8" y1="19.3" x2="99.2" y2="33.1"/>
<line fill="none" stroke="#000000" stroke-width="0.5" stroke-miterlimit="10" x1="89.8" y1="33.1" x2="99.2" y2="47.1"/>
</svg>
