<?xml version="1.0" encoding="utf-8"?>
<!-- Generator: Adobe Illustrator 16.0.0, SVG Export Plug-In . SVG Version: 6.00 Build 0)  -->
<!DOCTYPE svg PUBLIC "-//W3C//DTD SVG 1.1//EN" "http://www.w3.org/Graphics/SVG/1.1/DTD/svg11.dtd">
<svg version="1.1" id="图层_1" xmlns="http://www.w3.org/2000/svg" xmlns:xlink="http://www.w3.org/1999/xlink" x="0px" y="0px"
	 width="242.024px" height="150.86px" viewBox="0 0 242.024 150.86" enable-background="new 0 0 242.024 150.86"
	 xml:space="preserve">
<g>
	<g>
		<line fill="none" stroke="#000000" stroke-width="0.5" stroke-miterlimit="10" x1="21.633" y1="19.596" x2="24.529" y2="19.596"/>
		<line fill="none" stroke="#000000" stroke-width="0.5" stroke-miterlimit="10" x1="24.529" y1="5.833" x2="27.425" y2="5.833"/>
		<line fill="none" stroke="#000000" stroke-width="0.5" stroke-miterlimit="10" x1="24.529" y1="33.284" x2="27.425" y2="33.284"/>
		<line fill="none" stroke="#000000" stroke-width="0.5" stroke-miterlimit="10" x1="24.529" y1="5.625" x2="24.529" y2="33.568"/>
	</g>
	<g>
		
			<line fill="none" stroke="#000000" stroke-width="0.5" stroke-miterlimit="10" x1="144.721" y1="19.596" x2="147.617" y2="19.596"/>
		<line fill="none" stroke="#000000" stroke-width="0.5" stroke-miterlimit="10" x1="141.825" y1="5.833" x2="144.72" y2="5.833"/>
		
			<line fill="none" stroke="#000000" stroke-width="0.5" stroke-miterlimit="10" x1="141.825" y1="33.284" x2="144.72" y2="33.284"/>
		<line fill="none" stroke="#000000" stroke-width="0.5" stroke-miterlimit="10" x1="144.72" y1="5.625" x2="144.72" y2="33.502"/>
	</g>
	<g>
		
			<line fill="none" stroke="#000000" stroke-width="0.5" stroke-miterlimit="10" x1="144.721" y1="75.898" x2="147.617" y2="75.898"/>
		
			<line fill="none" stroke="#000000" stroke-width="0.5" stroke-miterlimit="10" x1="141.825" y1="62.135" x2="144.72" y2="62.135"/>
		
			<line fill="none" stroke="#000000" stroke-width="0.5" stroke-miterlimit="10" x1="141.825" y1="89.585" x2="144.72" y2="89.585"/>
		<line fill="none" stroke="#000000" stroke-width="0.5" stroke-miterlimit="10" x1="144.72" y1="61.927" x2="144.72" y2="89.804"/>
	</g>
	<g>
		
			<line fill="none" stroke="#000000" stroke-width="0.5" stroke-miterlimit="10" x1="144.721" y1="131.23" x2="147.617" y2="131.23"/>
		
			<line fill="none" stroke="#000000" stroke-width="0.5" stroke-miterlimit="10" x1="141.825" y1="117.467" x2="144.72" y2="117.467"/>
		
			<line fill="none" stroke="#000000" stroke-width="0.5" stroke-miterlimit="10" x1="141.825" y1="144.917" x2="144.72" y2="144.917"/>
		
			<line fill="none" stroke="#000000" stroke-width="0.5" stroke-miterlimit="10" x1="144.72" y1="117.259" x2="144.72" y2="145.136"/>
	</g>
	<text transform="matrix(1 0 0 1 28.9785 8.5938)"><tspan x="0" y="0" font-family="'FZKTK--GBK1-0'" font-size="10">上上品</tspan><tspan x="0" y="14" font-family="'FZKTK--GBK1-0'" font-size="10">上中品</tspan><tspan x="0" y="28" font-family="'FZKTK--GBK1-0'" font-size="10">上下品</tspan><tspan x="0" y="56" font-family="'FZKTK--GBK1-0'" font-size="10">中上品</tspan><tspan x="0" y="70" font-family="'FZKTK--GBK1-0'" font-size="10">中中品</tspan><tspan x="0" y="84" font-family="'FZKTK--GBK1-0'" font-size="10">中下品</tspan><tspan x="0" y="112" font-family="'FZKTK--GBK1-0'" font-size="10">下上品</tspan><tspan x="0" y="126" font-family="'FZKTK--GBK1-0'" font-size="10">下中品</tspan><tspan x="0" y="140" font-family="'FZKTK--GBK1-0'" font-size="10">下下品</tspan></text>
	<text transform="matrix(1 0 0 1 0 22.9497)"><tspan x="0" y="0" font-family="'FZKTK--GBK1-0'" font-size="10">上辈</tspan><tspan x="0" y="56" font-family="'FZKTK--GBK1-0'" font-size="10">中辈</tspan><tspan x="0" y="112" font-family="'FZKTK--GBK1-0'" font-size="10">下辈</tspan></text>
	<text transform="matrix(1 0 0 1 69.3208 8.5938)"><tspan x="0" y="0" font-family="'FZKTK--GBK1-0'" font-size="10">大乘上善凡夫人</tspan><tspan x="0" y="14" font-family="'FZKTK--GBK1-0'" font-size="10">大乘次善凡夫人</tspan><tspan x="0" y="28" font-family="'FZKTK--GBK1-0'" font-size="10">大乘下善凡夫人</tspan><tspan x="0" y="56" font-family="'FZKTK--GBK1-0'" font-size="10">小乘上善凡夫人</tspan><tspan x="0" y="70" font-family="'FZKTK--GBK1-0'" font-size="10">小乘次善凡夫人</tspan><tspan x="0" y="84" font-family="'FZKTK--GBK1-0'" font-size="10">世间上福凡夫人</tspan><tspan x="0" y="112" font-family="'FZKTK--GBK1-0'" font-size="10">十恶轻罪凡夫人</tspan><tspan x="0" y="126" font-family="'FZKTK--GBK1-0'" font-size="10">破戒次罪凡夫人</tspan><tspan x="0" y="140" font-family="'FZKTK--GBK1-0'" font-size="10">逆恶重罪凡夫人</tspan></text>
	<text transform="matrix(1 0 0 1 149.895 22.9497)"><tspan x="0" y="0" font-family="'FZKTK--GBK1-0'" font-size="10">大乘凡夫</tspan><tspan x="0" y="56" font-family="'FZKTK--GBK1-0'" font-size="10">小乘凡夫</tspan><tspan x="0" y="112" font-family="'FZKTK--GBK1-0'" font-size="10">遇恶凡夫</tspan></text>
	<text transform="matrix(1 0 0 1 202.0239 78.9497)" font-family="'FZKTK--GBK1-0'" font-size="10">九品唯凡</text>
	<g>
		<line fill="none" stroke="#000000" stroke-width="0.5" stroke-miterlimit="10" x1="60.978" y1="5.625" x2="66.762" y2="5.625"/>
		<line fill="none" stroke="#000000" stroke-width="0.5" stroke-miterlimit="10" x1="60.978" y1="19.596" x2="66.596" y2="19.596"/>
		<line fill="none" stroke="#000000" stroke-width="0.5" stroke-miterlimit="10" x1="60.978" y1="33.284" x2="66.679" y2="33.284"/>
	</g>
	<g>
		<line fill="none" stroke="#000000" stroke-width="0.5" stroke-miterlimit="10" x1="60.978" y1="62.188" x2="66.762" y2="62.188"/>
		<line fill="none" stroke="#000000" stroke-width="0.5" stroke-miterlimit="10" x1="60.978" y1="76.159" x2="66.596" y2="76.159"/>
		<line fill="none" stroke="#000000" stroke-width="0.5" stroke-miterlimit="10" x1="60.978" y1="89.846" x2="66.679" y2="89.846"/>
	</g>
	<g>
		
			<line fill="none" stroke="#000000" stroke-width="0.5" stroke-miterlimit="10" x1="60.978" y1="117.369" x2="66.762" y2="117.369"/>
		
			<line fill="none" stroke="#000000" stroke-width="0.5" stroke-miterlimit="10" x1="60.978" y1="131.339" x2="66.596" y2="131.339"/>
		
			<line fill="none" stroke="#000000" stroke-width="0.5" stroke-miterlimit="10" x1="60.978" y1="145.027" x2="66.679" y2="145.027"/>
	</g>
	<g>
		<line fill="none" stroke="#000000" stroke-width="0.5" stroke-miterlimit="10" x1="21.633" y1="75.866" x2="24.529" y2="75.866"/>
		<line fill="none" stroke="#000000" stroke-width="0.5" stroke-miterlimit="10" x1="24.529" y1="62.103" x2="27.425" y2="62.103"/>
		<line fill="none" stroke="#000000" stroke-width="0.5" stroke-miterlimit="10" x1="24.529" y1="89.553" x2="27.425" y2="89.553"/>
		<line fill="none" stroke="#000000" stroke-width="0.5" stroke-miterlimit="10" x1="24.529" y1="61.895" x2="24.529" y2="89.837"/>
	</g>
	<g>
		
			<line fill="none" stroke="#000000" stroke-width="0.5" stroke-miterlimit="10" x1="21.633" y1="131.198" x2="24.529" y2="131.198"/>
		
			<line fill="none" stroke="#000000" stroke-width="0.5" stroke-miterlimit="10" x1="24.529" y1="117.435" x2="27.425" y2="117.435"/>
		
			<line fill="none" stroke="#000000" stroke-width="0.5" stroke-miterlimit="10" x1="24.529" y1="144.885" x2="27.425" y2="144.885"/>
		
			<line fill="none" stroke="#000000" stroke-width="0.5" stroke-miterlimit="10" x1="24.529" y1="117.227" x2="24.529" y2="145.169"/>
	</g>
	<g>
		
			<line fill="none" stroke="#000000" stroke-width="0.5" stroke-miterlimit="10" x1="192.568" y1="131.23" x2="195.455" y2="131.23"/>
		
			<line fill="none" stroke="#000000" stroke-width="0.5" stroke-miterlimit="10" x1="192.568" y1="19.564" x2="195.455" y2="19.564"/>
		
			<line fill="none" stroke="#000000" stroke-width="0.5" stroke-miterlimit="10" x1="195.333" y1="76.017" x2="198.221" y2="76.017"/>
		
			<line fill="none" stroke="#000000" stroke-width="0.5" stroke-miterlimit="10" x1="195.451" y1="19.331" x2="195.451" y2="131.456"/>
	</g>
</g>
</svg>
