<?xml version="1.0" encoding="utf-8"?>
<!-- Generator: Adobe Illustrator 21.0.0, SVG Export Plug-In . SVG Version: 6.00 Build 0)  -->
<svg version="1.1" baseProfile="tiny" id="图层_1"
	 xmlns="http://www.w3.org/2000/svg" xmlns:xlink="http://www.w3.org/1999/xlink" x="0px" y="0px" viewBox="0 0 328.5 38.4"
	 overflow="scroll" xml:space="preserve">
<g>
	<text transform="matrix(1 0 0 1 58.5417 8.5936)" font-family="'KaiTi'" font-size="10px">慧远(净影 523-592)：《观经义疏》二卷、《大经义疏》二卷</text>
	<text transform="matrix(1 0 0 1 58.5417 22.5936)" font-family="'KaiTi'" font-size="10px">智者(天台 538-597)：《观经疏》二卷、《弥陀经义记》一卷</text>
	<text transform="matrix(1 0 0 1 58.5417 36.5936)" font-family="'KaiTi'" font-size="10px">吉藏(嘉祥 549-623)：《观经义疏》二卷、《大经义疏》一卷</text>
	<path fill="none" stroke="#000000" stroke-width="0.25" stroke-miterlimit="10" d="M79.4,20.9"/>
	<path fill="none" stroke="#000000" stroke-width="0.25" stroke-miterlimit="10" d="M86.3,33.7"/>
	<path fill="none" stroke="#000000" stroke-width="0.25" stroke-miterlimit="10" d="M73,34"/>
</g>
<text transform="matrix(1 0 0 1 2.288818e-05 15.3435)" font-family="'KaiTi'" font-size="10px"> </text>
<text transform="matrix(1 0 0 1 5 15.3435)" font-family="'KaiTi'" font-size="10px"> </text>
<text transform="matrix(1 0 0 1 10 15.3435)" font-family="'KaiTi'" font-size="10px">善</text>
<text transform="matrix(1 0 0 1 20 15.3435)" font-family="'KaiTi'" font-size="10px"> </text>
<text transform="matrix(1 0 0 1 30 15.3435)" font-family="'KaiTi'" font-size="10px">导</text>
<text transform="matrix(1 0 0 1 2.288818e-05 29.3435)" font-family="'KaiTi'" font-size="10px">(</text>
<text transform="matrix(1 0 0 1 5 29.3435)" font-family="'KaiTi'" font-size="10px">6</text>
<text transform="matrix(1 0 0 1 10 29.3435)" font-family="'KaiTi'" font-size="10px">1</text>
<text transform="matrix(1 0 0 1 15 29.3435)" font-family="'KaiTi'" font-size="10px">3</text>
<text transform="matrix(1 0 0 1 20 29.3435)" font-family="'KaiTi'" font-size="10px">–</text>
<text transform="matrix(1 0 0 1 30 29.3435)" font-family="'KaiTi'" font-size="10px">6</text>
<text transform="matrix(1 0 0 1 35 29.3435)" font-family="'KaiTi'" font-size="10px">8</text>
<text transform="matrix(1 0 0 1 40 29.3435)" font-family="'KaiTi'" font-size="10px">1</text>
<text transform="matrix(1 0 0 1 45 29.3435)" font-family="'KaiTi'" font-size="10px">)</text>
<g>
	<line fill="none" stroke="#000000" stroke-width="0.5" stroke-miterlimit="10" x1="49.4" y1="18.3" x2="55.1" y2="18.3"/>
	<line fill="none" stroke="#000000" stroke-width="0.5" stroke-miterlimit="10" x1="52.2" y1="4.8" x2="55.1" y2="4.8"/>
	<line fill="none" stroke="#000000" stroke-width="0.5" stroke-miterlimit="10" x1="52.2" y1="32.2" x2="55.1" y2="32.2"/>
	<line fill="none" stroke="#000000" stroke-width="0.5" stroke-miterlimit="10" x1="52.3" y1="4.5" x2="52.3" y2="32.5"/>
</g>
</svg>
