<?xml version="1.0" encoding="utf-8"?>
<!-- Generator: Adobe Illustrator 21.0.0, SVG Export Plug-In . SVG Version: 6.00 Build 0)  -->
<svg version="1.1" baseProfile="tiny" id="圖層_1"
	 xmlns="http://www.w3.org/2000/svg" xmlns:xlink="http://www.w3.org/1999/xlink" x="0px" y="0px" viewBox="0 0 340.8 80.4"
	 overflow="scroll" xml:space="preserve">
<text transform="matrix(1 0 0 1 137.866 8.5938)" font-family="'KaiTi'" font-size="10px">第十二光明無量願</text>
<text transform="matrix(1 0 0 1 137.866 22.5938)" font-family="'KaiTi'" font-size="10px">第十三壽命無量願</text>
<text transform="matrix(1 0 0 1 137.866 36.5938)" font-family="'KaiTi'" font-size="10px">第十七諸佛稱揚願</text>
<text transform="matrix(1 0 0 1 137.866 50.5938)" font-family="'KaiTi'" font-size="10px">第三十一國土清淨願</text>
<text transform="matrix(1 0 0 1 137.866 64.5938)" font-family="'KaiTi'" font-size="10px">第三十二國土嚴飾願</text>
<g>
	<line fill="none" stroke="#000000" stroke-width="0.5" stroke-miterlimit="10" x1="128.8" y1="19.1" x2="131.7" y2="19.1"/>
	<line fill="none" stroke="#000000" stroke-width="0.5" stroke-miterlimit="10" x1="131.5" y1="5.5" x2="134.4" y2="5.5"/>
	<line fill="none" stroke="#000000" stroke-width="0.5" stroke-miterlimit="10" x1="131.6" y1="33" x2="134.4" y2="33"/>
	<line fill="none" stroke="#000000" stroke-width="0.5" stroke-miterlimit="10" x1="131.7" y1="5.2" x2="131.7" y2="33.2"/>
</g>
<g>
	<line fill="none" stroke="#000000" stroke-width="0.5" stroke-miterlimit="10" x1="128.8" y1="53.1" x2="131.7" y2="53.1"/>
	<line fill="none" stroke="#000000" stroke-width="0.5" stroke-miterlimit="10" x1="131.5" y1="46.2" x2="134.4" y2="46.2"/>
	<line fill="none" stroke="#000000" stroke-width="0.5" stroke-miterlimit="10" x1="131.6" y1="60.3" x2="134.4" y2="60.3"/>
	<line fill="none" stroke="#000000" stroke-width="0.5" stroke-miterlimit="10" x1="131.7" y1="45.9" x2="131.7" y2="60.6"/>
</g>
<text transform="matrix(1 0 0 1 42.5002 8.5938)" font-family="'KaiTi'" font-size="10px">(</text>
<text transform="matrix(1 0 0 1 47.5002 8.5938)" font-family="'KaiTi'" font-size="10px">淨</text>
<text transform="matrix(1 0 0 1 57.5002 8.5938)" font-family="'KaiTi'" font-size="10px"> </text>
<text transform="matrix(1 0 0 1 67.5002 8.5938)" font-family="'KaiTi'" font-size="10px">影</text>
<text transform="matrix(1 0 0 1 77.5002 8.5938)" font-family="'KaiTi'" font-size="10px">)</text>
<text transform="matrix(1 0 0 1 42.5002 22.5938)" font-family="'KaiTi'" font-size="10px">攝</text>
<text transform="matrix(1 0 0 1 52.5002 22.5938)" font-family="'KaiTi'" font-size="10px">法</text>
<text transform="matrix(1 0 0 1 62.5002 22.5938)" font-family="'KaiTi'" font-size="10px">身</text>
<text transform="matrix(1 0 0 1 72.5002 22.5938)" font-family="'KaiTi'" font-size="10px">願</text>
<text transform="matrix(1 0 0 1 82.5002 22.5938)" font-family="'KaiTi'" font-size="10px"> </text>
<text transform="matrix(1 0 0 1 92.5002 22.5938)" font-family="'KaiTi'" font-size="10px"> </text>
<text transform="matrix(1 0 0 1 105.5002 22.5938)" font-family="'KaiTi'" font-size="10px">三</text>
<text transform="matrix(1 0 0 1 42.5002 57.5938)" font-family="'KaiTi'" font-size="10px">攝</text>
<text transform="matrix(1 0 0 1 52.5002 57.5938)" font-family="'KaiTi'" font-size="10px">淨</text>
<text transform="matrix(1 0 0 1 62.5002 57.5938)" font-family="'KaiTi'" font-size="10px">土</text>
<text transform="matrix(1 0 0 1 72.5002 57.5938)" font-family="'KaiTi'" font-size="10px">願</text>
<text transform="matrix(1 0 0 1 82.5002 57.5938)" font-family="'KaiTi'" font-size="10px"> </text>
<text transform="matrix(1 0 0 1 92.5002 57.5938)" font-family="'KaiTi'" font-size="10px"> </text>
<text transform="matrix(1 0 0 1 105.5002 57.5938)" font-family="'KaiTi'" font-size="10px">二</text>
<text transform="matrix(1 0 0 1 42.5002 78.5942)" font-family="'KaiTi'" font-size="10px">攝</text>
<text transform="matrix(1 0 0 1 52.5002 78.5942)" font-family="'KaiTi'" font-size="10px">眾</text>
<text transform="matrix(1 0 0 1 62.5002 78.5942)" font-family="'KaiTi'" font-size="10px">生</text>
<text transform="matrix(1 0 0 1 72.5002 78.5942)" font-family="'KaiTi'" font-size="10px">願</text>
<text transform="matrix(1 0 0 1 82.5002 78.5942)" font-family="'KaiTi'" font-size="10px"> </text>
<text transform="matrix(1 0 0 1 95.5002 78.5942)" font-family="'KaiTi'" font-size="10px">四</text>
<text transform="matrix(1 0 0 1 105.5002 78.5942)" font-family="'KaiTi'" font-size="10px">十</text>
<text transform="matrix(1 0 0 1 115.5002 78.5942)" font-family="'KaiTi'" font-size="10px">三</text>
<text transform="matrix(1 0 0 1 127.5002 78.5942)" font-family="'KaiTi'" font-size="10px"> </text>
<text transform="matrix(1 0 0 1 132.5002 78.5942)" font-family="'KaiTi'" font-size="10px"> </text>
<text transform="matrix(1 0 0 1 137.5002 78.5942)" font-family="'KaiTi'" font-size="10px">其</text>
<text transform="matrix(1 0 0 1 147.5002 78.5942)" font-family="'KaiTi'" font-size="10px">他</text>
<text transform="matrix(1 0 0 1 157.5002 78.5942)" font-family="'KaiTi'" font-size="10px">之</text>
<text transform="matrix(1 0 0 1 167.4997 78.5942)" font-family="'KaiTi'" font-size="10px">四</text>
<text transform="matrix(1 0 0 1 177.4997 78.5942)" font-family="'KaiTi'" font-size="10px">十</text>
<text transform="matrix(1 0 0 1 187.4997 78.5942)" font-family="'KaiTi'" font-size="10px">三</text>
<text transform="matrix(1 0 0 1 197.4997 78.5942)" font-family="'KaiTi'" font-size="10px">願</text>
<line fill="none" stroke="#000000" stroke-width="0.5" stroke-miterlimit="10" x1="33.4" y1="46.2" x2="36.3" y2="46.2"/>
<line fill="none" stroke="#000000" stroke-width="0.5" stroke-miterlimit="10" x1="35.9" y1="19.5" x2="38.8" y2="19.5"/>
<line fill="none" stroke="#000000" stroke-width="0.5" stroke-miterlimit="10" x1="36" y1="74.5" x2="38.9" y2="74.5"/>
<line fill="none" stroke="#000000" stroke-width="0.5" stroke-miterlimit="10" x1="36" y1="19.2" x2="36" y2="74.5"/>
<text transform="matrix(1 0 0 1 0 29.625)" font-family="'KaiTi'" font-size="10px">四</text>
<text transform="matrix(1 0 0 1 0 43.625)" font-family="'KaiTi'" font-size="10px">十</text>
<text transform="matrix(1 0 0 1 0 50.625)" font-family="'KaiTi'" font-size="10px"> </text>
<text transform="matrix(1 0 0 1 5 50.625)" font-family="'KaiTi'" font-size="10px"> </text>
<text transform="matrix(1 0 0 1 10 50.625)" font-family="'KaiTi'" font-size="10px"> </text>
<text transform="matrix(1 0 0 1 20 50.625)" font-family="'KaiTi'" font-size="10px">三</text>
<text transform="matrix(1 0 0 1 0 57.625)" font-family="'KaiTi'" font-size="10px">八</text>
<text transform="matrix(1 0 0 1 0 71.625)" font-family="'KaiTi'" font-size="10px">願</text>
<line fill="none" stroke="#000000" stroke-width="0.5" stroke-miterlimit="10" x1="129.3" y1="74.5" x2="134.9" y2="74.5"/>
<line fill="none" stroke="#000000" stroke-width="0.5" stroke-miterlimit="10" x1="11.1" y1="46.2" x2="16.8" y2="46.2"/>
<line fill="none" stroke="#000000" stroke-width="0.5" stroke-miterlimit="10" x1="86.4" y1="53.1" x2="92.1" y2="53.1"/>
<line fill="none" stroke="#000000" stroke-width="0.5" stroke-miterlimit="10" x1="86.4" y1="19.1" x2="92.1" y2="19.1"/>
<line fill="none" stroke="#000000" stroke-width="0.5" stroke-miterlimit="10" x1="86.4" y1="73.9" x2="92.1" y2="73.9"/>
<line fill="none" stroke="#000000" stroke-width="0.5" stroke-miterlimit="10" x1="235.9" y1="40.4" x2="238.8" y2="40.4"/>
<line fill="none" stroke="#000000" stroke-width="0.5" stroke-miterlimit="10" x1="233" y1="5.5" x2="235.9" y2="5.5"/>
<line fill="none" stroke="#000000" stroke-width="0.5" stroke-miterlimit="10" x1="233.1" y1="74.5" x2="236" y2="74.5"/>
<line fill="none" stroke="#000000" stroke-width="0.5" stroke-miterlimit="10" x1="235.8" y1="5.2" x2="235.9" y2="74.5"/>
<text transform="matrix(1 0 0 1 240.8333 29.8333)" font-family="'KaiTi'" font-size="10px"> </text>
<text transform="matrix(1 0 0 1 250.8333 29.8333)" font-family="'KaiTi'" font-size="10px"> </text>
<text transform="matrix(1 0 0 1 255.8333 29.8333)" font-family="'KaiTi'" font-size="10px">(</text>
<text transform="matrix(1 0 0 1 260.8333 29.8333)" font-family="'KaiTi'" font-size="10px">善</text>
<text transform="matrix(1 0 0 1 270.8333 29.8333)" font-family="'KaiTi'" font-size="10px"> </text>
<text transform="matrix(1 0 0 1 280.8333 29.8333)" font-family="'KaiTi'" font-size="10px">導</text>
<text transform="matrix(1 0 0 1 290.8333 29.8333)" font-family="'KaiTi'" font-size="10px">)</text>
<text transform="matrix(1 0 0 1 240.8333 43.8333)" font-family="'KaiTi'" font-size="10px">一</text>
<text transform="matrix(1 0 0 1 250.8333 43.8333)" font-family="'KaiTi'" font-size="10px">一</text>
<text transform="matrix(1 0 0 1 260.8333 43.8333)" font-family="'KaiTi'" font-size="10px">誓</text>
<text transform="matrix(1 0 0 1 270.8333 43.8333)" font-family="'KaiTi'" font-size="10px">願</text>
<text transform="matrix(1 0 0 1 280.8333 43.8333)" font-family="'KaiTi'" font-size="10px">為</text>
<text transform="matrix(1 0 0 1 290.8333 43.8333)" font-family="'KaiTi'" font-size="10px">眾</text>
<text transform="matrix(1 0 0 1 300.8333 43.8333)" font-family="'KaiTi'" font-size="10px">生</text>
<text transform="matrix(1 0 0 1 240.8333 57.8333)" font-family="'KaiTi'" font-size="10px">(</text>
<text transform="matrix(1 0 0 1 245.8333 57.8333)" font-family="'KaiTi'" font-size="10px">願</text>
<text transform="matrix(1 0 0 1 255.8333 57.8333)" font-family="'KaiTi'" font-size="10px">願</text>
<text transform="matrix(1 0 0 1 265.8333 57.8333)" font-family="'KaiTi'" font-size="10px">三</text>
<text transform="matrix(1 0 0 1 275.8333 57.8333)" font-family="'KaiTi'" font-size="10px">攝</text>
<text transform="matrix(1 0 0 1 285.8333 57.8333)" font-family="'KaiTi'" font-size="10px">—</text>
<text transform="matrix(1 0 0 1 295.8333 57.8333)" font-family="'KaiTi'" font-size="10px">影</text>
<text transform="matrix(1 0 0 1 305.8333 57.8333)" font-family="'KaiTi'" font-size="10px">略</text>
<text transform="matrix(1 0 0 1 315.8333 57.8333)" font-family="'KaiTi'" font-size="10px">互</text>
<text transform="matrix(1 0 0 1 325.8333 57.8333)" font-family="'KaiTi'" font-size="10px">顯</text>
<text transform="matrix(1 0 0 1 335.8333 57.8333)" font-family="'KaiTi'" font-size="10px">)</text>
</svg>
