<?xml version="1.0" encoding="utf-8"?>
<!-- Generator: Adobe Illustrator 21.0.0, SVG Export Plug-In . SVG Version: 6.00 Build 0)  -->
<svg version="1.1" id="图层_1" xmlns="http://www.w3.org/2000/svg" xmlns:xlink="http://www.w3.org/1999/xlink" x="0px" y="0px"
	 viewBox="0 0 209.4 66.4" style="enable-background:new 0 0 209.4 66.4;" xml:space="preserve">
<style type="text/css">
	.st0{font-family:'KaiTi';}
	.st1{font-size:10px;}
	.st2{fill:none;stroke:#000000;stroke-width:0.5;stroke-miterlimit:10;}
</style>
<text transform="matrix(1 0 0 1 119.9003 8.5938)"><tspan x="0" y="0" class="st0 st1">昙鸾大师 约行</tspan><tspan x="0" y="14" class="st0 st1">道绰大师 约证</tspan><tspan x="0" y="28" class="st0 st1">善导大师 约教</tspan><tspan x="0" y="56" class="st0 st1">圣净二门判</tspan></text>
<text transform="matrix(1 0 0 1 68.1669 22.5938)"><tspan x="0" y="0" class="st0 st1">各自特点</tspan><tspan x="0" y="28" class="st0 st1">综合的功效</tspan><tspan x="0" y="42" class="st0 st1">正用教相</tspan></text>
<line class="st2" x1="111.4" y1="60.8" x2="116.9" y2="60.8"/>
<g>
	<line class="st2" x1="63.5" y1="19.3" x2="63.5" y2="60.8"/>
	<line class="st2" x1="63.5" y1="19.4" x2="66.2" y2="19.4"/>
	<line class="st2" x1="63.5" y1="60.8" x2="66.2" y2="60.8"/>
	<line class="st2" x1="63.5" y1="40.1" x2="60.7" y2="40.1"/>
</g>
<text transform="matrix(1 0 0 1 2.441406e-04 43.5938)" class="st0 st1">三师教判总结</text>
<g>
	<line class="st2" x1="114.3" y1="5.6" x2="114.3" y2="33.2"/>
	<line class="st2" x1="114.2" y1="5.6" x2="116.9" y2="5.6"/>
	<line class="st2" x1="114.2" y1="33.2" x2="116.9" y2="33.2"/>
	<line class="st2" x1="114.3" y1="19.3" x2="111.4" y2="19.3"/>
</g>
<line class="st2" x1="120.9" y1="46.9" x2="126.4" y2="46.9"/>
<text transform="matrix(1 0 0 1 129.3503 50.75)" class="st0 st1">净土成为独立宗派</text>
</svg>
