<?xml version="1.0" encoding="utf-8"?>
<!-- Generator: Adobe Illustrator 21.0.0, SVG Export Plug-In . SVG Version: 6.00 Build 0)  -->
<svg version="1.1" id="圖層_1" xmlns="http://www.w3.org/2000/svg" xmlns:xlink="http://www.w3.org/1999/xlink" x="0px" y="0px"
	 viewBox="0 0 259.8 108.4" style="enable-background:new 0 0 259.8 108.4;" xml:space="preserve">
<style type="text/css">
	.st0{enable-background:new    ;}
	.st1{font-family:'KaiTi';}
	.st2{font-size:10px;}
	.st3{letter-spacing:5;}
	.st4{fill:none;stroke:#000000;stroke-width:0.5;stroke-miterlimit:10;}
</style>
<text transform="matrix(1 0 0 1 155.3336 8.5937)" class="st0"><tspan x="0" y="0" class="st1 st2">難行</tspan><tspan x="0" y="14" class="st1 st2">易行</tspan><tspan x="0" y="28" class="st1 st2">聖道</tspan><tspan x="0" y="42" class="st1 st2">淨土</tspan><tspan x="0" y="63" class="st1 st2">二藏</tspan><tspan x="0" y="91" class="st1 st2">二教</tspan></text>
<text transform="matrix(1 0 0 1 190.3336 64.5936)" class="st0"><tspan x="0" y="0" class="st1 st2">聲聞藏</tspan><tspan x="0" y="14" class="st1 st2">菩薩藏</tspan><tspan x="0" y="28" class="st1 st2">漸</tspan><tspan x="10" y="28" class="st1 st2 st3"> </tspan><tspan x="20" y="28" class="st1 st2">教</tspan><tspan x="0" y="42" class="st1 st2">頓</tspan><tspan x="10" y="42" class="st1 st2 st3"> </tspan><tspan x="20" y="42" class="st1 st2">教</tspan></text>
<text transform="matrix(1 0 0 1 52.0002 15.5935)" class="st0"><tspan x="0" y="0" class="st1 st2">曇鸞大師難易二道判</tspan><tspan x="0" y="28" class="st1 st2">道綽大師聖淨二門判</tspan><tspan x="0" y="70" class="st1 st2">善導大師二藏二教判</tspan></text>
<g>
	<line class="st4" x1="148.5" y1="4" x2="148.5" y2="18.5"/>
	<line class="st4" x1="148.5" y1="4" x2="152.3" y2="4"/>
	<line class="st4" x1="148.5" y1="18.5" x2="152.3" y2="18.5"/>
	<line class="st4" x1="148.5" y1="11.3" x2="144.8" y2="11.3"/>
</g>
<g>
	<line class="st4" x1="148.5" y1="32.5" x2="148.5" y2="47"/>
	<line class="st4" x1="148.5" y1="32.5" x2="152.3" y2="32.5"/>
	<line class="st4" x1="148.5" y1="47" x2="152.3" y2="47"/>
	<line class="st4" x1="148.5" y1="39.7" x2="144.8" y2="39.7"/>
</g>
<g>
	<line class="st4" x1="148.5" y1="68.2" x2="148.5" y2="96.2"/>
	<line class="st4" x1="148.5" y1="68.2" x2="152.3" y2="68.2"/>
	<line class="st4" x1="148.5" y1="96.2" x2="152.3" y2="96.2"/>
	<line class="st4" x1="148.5" y1="82.2" x2="144.8" y2="82.2"/>
</g>
<g>
	<line class="st4" x1="182.3" y1="60.9" x2="182.3" y2="75.4"/>
	<line class="st4" x1="182.3" y1="60.9" x2="186.1" y2="60.9"/>
	<line class="st4" x1="182.3" y1="75.4" x2="186.1" y2="75.4"/>
	<line class="st4" x1="182.3" y1="68.2" x2="178.6" y2="68.2"/>
</g>
<g>
	<line class="st4" x1="182.3" y1="88.9" x2="182.3" y2="103.4"/>
	<line class="st4" x1="182.3" y1="88.9" x2="186.1" y2="88.9"/>
	<line class="st4" x1="182.3" y1="103.4" x2="186.1" y2="103.4"/>
	<line class="st4" x1="182.3" y1="96.2" x2="178.6" y2="96.2"/>
</g>
<g>
	<line class="st4" x1="46.3" y1="11.3" x2="46.3" y2="82.2"/>
	<line class="st4" x1="46.3" y1="11.3" x2="50.1" y2="11.3"/>
	<line class="st4" x1="46.3" y1="82.2" x2="50.1" y2="82.2"/>
	<line class="st4" x1="46.3" y1="46.7" x2="42.6" y2="46.7"/>
</g>
<text transform="matrix(1 0 0 1 2.288818e-04 50.5939)" class="st1 st2">三師教判</text>
<text transform="matrix(1 0 0 1 189.8015 43.8438)" class="st1 st2">淨土宗正用教判</text>
<g>
	<line class="st4" x1="182.6" y1="47" x2="182.6" y2="32.5"/>
	<line class="st4" x1="182.6" y1="47" x2="178.8" y2="47"/>
	<line class="st4" x1="182.6" y1="32.5" x2="178.8" y2="32.5"/>
	<line class="st4" x1="182.6" y1="39.7" x2="186.3" y2="39.7"/>
</g>
</svg>
