<?xml version="1.0" encoding="utf-8"?>
<!-- Generator: Adobe Illustrator 21.0.0, SVG Export Plug-In . SVG Version: 6.00 Build 0)  -->
<svg version="1.1" id="圖層_1" xmlns="http://www.w3.org/2000/svg" xmlns:xlink="http://www.w3.org/1999/xlink" x="0px" y="0px"
	 viewBox="0 0 200 52.4" style="enable-background:new 0 0 200 52.4;" xml:space="preserve">
<style type="text/css">
	.st0{font-family:'KaiTi';}
	.st1{font-size:10px;}
	.st2{fill:none;stroke:#000000;stroke-width:0.5;stroke-miterlimit:10;}
</style>
<text transform="matrix(1 0 0 1 110.0002 8.5938)"><tspan x="0" y="0" class="st0 st1">曇鸞大師難易二道判</tspan><tspan x="0" y="14" class="st0 st1">道綽大師聖淨二門判</tspan><tspan x="0" y="28" class="st0 st1">善導大師二藏二教判</tspan><tspan x="0" y="42" class="st0 st1">善導大師要弘二門判</tspan></text>
<g>
	<line class="st2" x1="104.3" y1="5.1" x2="104.3" y2="33.1"/>
	<line class="st2" x1="104.1" y1="5.1" x2="107" y2="5.1"/>
	<line class="st2" x1="104.1" y1="33.1" x2="107" y2="33.1"/>
	<line class="st2" x1="101.3" y1="19.1" x2="104.2" y2="19.1"/>
</g>
<line class="st2" x1="101.5" y1="46.4" x2="107.1" y2="46.4"/>
<text transform="matrix(1 0 0 1 49.1667 22.5938)"><tspan x="0" y="0" class="st0 st1">總判一代教</tspan><tspan x="0" y="28" class="st0 st1">別判淨土教</tspan></text>
<g>
	<line class="st2" x1="44.5" y1="19.1" x2="44.5" y2="46.4"/>
	<line class="st2" x1="44.3" y1="19.1" x2="47.2" y2="19.1"/>
	<line class="st2" x1="44.3" y1="46.4" x2="47.2" y2="46.4"/>
	<line class="st2" x1="41.5" y1="32.8" x2="44.4" y2="32.8"/>
</g>
<text transform="matrix(1 0 0 1 -1.640320e-04 36.5938)" class="st0 st1">三師教判</text>
</svg>
