<?xml version="1.0" encoding="utf-8"?>
<!-- Generator: Adobe Illustrator 21.0.0, SVG Export Plug-In . SVG Version: 6.00 Build 0)  -->
<svg version="1.1" id="图层_1" xmlns="http://www.w3.org/2000/svg" xmlns:xlink="http://www.w3.org/1999/xlink" x="0px" y="0px"
	 viewBox="0 0 287.7 166.9" style="enable-background:new 0 0 287.7 166.9;" xml:space="preserve">
<style type="text/css">
	.st0{enable-background:new    ;}
	.st1{font-family:'KaiTi';}
	.st2{font-size:10px;}
	.st3{letter-spacing:5;}
	.st4{fill:none;stroke:#000000;stroke-width:0.5;stroke-miterlimit:10;}
</style>
<text transform="matrix(1 0 0 1 156.0831 8.5937)" class="st0"><tspan x="0" y="0" class="st1 st2">难行</tspan><tspan x="0" y="14" class="st1 st2">易行</tspan><tspan x="0" y="28" class="st1 st2">圣道</tspan><tspan x="0" y="42" class="st1 st2">净土</tspan><tspan x="0" y="63" class="st1 st2">二藏</tspan><tspan x="0" y="91" class="st1 st2">二教</tspan></text>
<text transform="matrix(1 0 0 1 191.0831 64.5936)" class="st0"><tspan x="0" y="0" class="st1 st2">声闻藏</tspan><tspan x="0" y="14" class="st1 st2">菩萨藏</tspan><tspan x="0" y="28" class="st1 st2">渐</tspan><tspan x="10" y="28" class="st1 st2 st3"> </tspan><tspan x="20" y="28" class="st1 st2">教</tspan><tspan x="0" y="42" class="st1 st2">顿</tspan><tspan x="10" y="42" class="st1 st2 st3"> </tspan><tspan x="20" y="42" class="st1 st2">教</tspan></text>
<text transform="matrix(1 0 0 1 52.7497 15.5935)" class="st0"><tspan x="0" y="0" class="st1 st2">昙鸾大师难易二道判</tspan><tspan x="0" y="28" class="st1 st2">道绰大师圣净二门判</tspan><tspan x="0" y="70" class="st1 st2">善导大师二藏二教判</tspan></text>
<g>
	<line class="st4" x1="149.3" y1="4" x2="149.3" y2="18.5"/>
	<line class="st4" x1="149.3" y1="4" x2="153.1" y2="4"/>
	<line class="st4" x1="149.3" y1="18.5" x2="153.1" y2="18.5"/>
	<line class="st4" x1="149.3" y1="11.3" x2="145.6" y2="11.3"/>
</g>
<g>
	<line class="st4" x1="149.2" y1="32.5" x2="149.2" y2="47"/>
	<line class="st4" x1="149.2" y1="32.5" x2="153" y2="32.5"/>
	<line class="st4" x1="149.2" y1="47" x2="153" y2="47"/>
	<line class="st4" x1="149.2" y1="39.7" x2="145.5" y2="39.7"/>
</g>
<g>
	<line class="st4" x1="149.2" y1="68.2" x2="149.2" y2="96.2"/>
	<line class="st4" x1="149.2" y1="68.2" x2="153" y2="68.2"/>
	<line class="st4" x1="149.2" y1="96.2" x2="153" y2="96.2"/>
	<line class="st4" x1="149.2" y1="82.2" x2="145.5" y2="82.2"/>
</g>
<g>
	<line class="st4" x1="183.1" y1="60.9" x2="183.1" y2="75.4"/>
	<line class="st4" x1="183.1" y1="60.9" x2="186.9" y2="60.9"/>
	<line class="st4" x1="183.1" y1="75.4" x2="186.9" y2="75.4"/>
	<line class="st4" x1="183.1" y1="68.2" x2="179.4" y2="68.2"/>
</g>
<g>
	<line class="st4" x1="183" y1="88.9" x2="183" y2="103.4"/>
	<line class="st4" x1="183" y1="88.9" x2="186.8" y2="88.9"/>
	<line class="st4" x1="183" y1="103.4" x2="186.8" y2="103.4"/>
	<line class="st4" x1="183" y1="96.2" x2="179.3" y2="96.2"/>
</g>
<g>
	<line class="st4" x1="47.1" y1="11.3" x2="47.1" y2="82.2"/>
	<line class="st4" x1="47.1" y1="11.3" x2="50.9" y2="11.3"/>
	<line class="st4" x1="47.1" y1="82.2" x2="50.9" y2="82.2"/>
	<line class="st4" x1="47.1" y1="46.7" x2="43.4" y2="46.7"/>
</g>
<text transform="matrix(1 0 0 1 0.7497 50.5939)" class="st1 st2">三师教判</text>
<g>
	<line class="st4" x1="227.7" y1="103.4" x2="227.7" y2="18.5"/>
	<line class="st4" x1="227.8" y1="103.4" x2="224" y2="103.4"/>
	<line class="st4" x1="227.8" y1="18.5" x2="179.4" y2="18.5"/>
	<line class="st4" x1="179.3" y1="47" x2="227.7" y2="47"/>
	<line class="st4" x1="231.6" y1="54" x2="227.8" y2="54"/>
</g>
<text transform="matrix(1 0 0 1 234.551 57.5938)" class="st1 st2">正用净土</text>
<text transform="matrix(1 0 0 1 52.75 137.0935)" class="st0"><tspan x="0" y="0" class="st1 st2">昙鸾大师难易二道判</tspan><tspan x="0" y="14" class="st1 st2">道绰大师圣净二门判</tspan><tspan x="0" y="28" class="st1 st2">善导大师二藏二教判</tspan></text>
<text transform="matrix(1 0 0 1 156.083 137.0933)" class="st0"><tspan x="0" y="0" class="st1 st2">约教教相</tspan><tspan x="0" y="14" class="st1 st2">约行教相</tspan><tspan x="0" y="28" class="st1 st2">约证教相</tspan></text>
<text transform="matrix(1 0 0 1 209.583 137.0938)" class="st0"><tspan x="0" y="0" class="st1 st2">能诠</tspan><tspan x="0" y="14" class="st1 st2">所诠</tspan></text>
<line class="st4" x1="145.5" y1="133" x2="153" y2="133"/>
<line class="st4" x1="145.5" y1="147.3" x2="153" y2="147.3"/>
<line class="st4" x1="145.5" y1="161.5" x2="153" y2="161.5"/>
<line class="st4" x1="198.9" y1="133" x2="206.4" y2="133"/>
<line class="st4" x1="198.9" y1="147.3" x2="206.4" y2="147.3"/>
<text transform="matrix(1 0 0 1 244.083 144.0933)" class="st0"><tspan x="0" y="0" class="st1 st2">能证</tspan><tspan x="0" y="21" class="st1 st2">所证</tspan></text>
<g>
	<line class="st4" x1="237.6" y1="147.5" x2="237.6" y2="133"/>
	<line class="st4" x1="237.6" y1="147.5" x2="233.8" y2="147.5"/>
	<line class="st4" x1="237.6" y1="133" x2="233.8" y2="133"/>
	<line class="st4" x1="237.6" y1="140.3" x2="241.3" y2="140.3"/>
</g>
<line class="st4" x1="198.9" y1="161.5" x2="241.3" y2="161.5"/>
<text transform="matrix(1 0 0 1 277.6861 144.0933)" class="st0"><tspan x="0" y="0" class="st1 st2">因</tspan><tspan x="0" y="21" class="st1 st2">果</tspan></text>
<line class="st4" x1="267.9" y1="161.5" x2="275.4" y2="161.5"/>
<line class="st4" x1="267.9" y1="140.3" x2="275.4" y2="140.3"/>
<text transform="matrix(1 0 0 1 -3.051758e-05 151.0928)" class="st1 st2">三师教判</text>
<g>
	<line class="st4" x1="46" y1="133" x2="46" y2="161.5"/>
	<line class="st4" x1="46" y1="133" x2="49.8" y2="133"/>
	<line class="st4" x1="46" y1="161.5" x2="49.8" y2="161.5"/>
	<line class="st4" x1="46.1" y1="147.3" x2="42.4" y2="147.3"/>
</g>
</svg>
