<?xml version="1.0" encoding="utf-8"?>
<!-- Generator: Adobe Illustrator 21.0.0, SVG Export Plug-In . SVG Version: 6.00 Build 0)  -->
<svg version="1.1" id="圖層_1" xmlns="http://www.w3.org/2000/svg" xmlns:xlink="http://www.w3.org/1999/xlink" x="0px" y="0px"
	 viewBox="0 0 247.7 38.4" style="enable-background:new 0 0 247.7 38.4;" xml:space="preserve">
<style type="text/css">
	.st0{enable-background:new    ;}
	.st1{font-family:'KaiTi';}
	.st2{font-size:10px;}
	.st3{fill:none;stroke:#000000;stroke-width:0.5;stroke-miterlimit:10;}
</style>
<text transform="matrix(1 0 0 1 52.75 8.5945)" class="st0"><tspan x="0" y="0" class="st1 st2">二藏二教判</tspan><tspan x="0" y="14" class="st1 st2">難易二道判</tspan><tspan x="0" y="28" class="st1 st2">聖淨二門判</tspan></text>
<text transform="matrix(1 0 0 1 116.083 8.5942)" class="st0"><tspan x="0" y="0" class="st1 st2">約教教相</tspan><tspan x="0" y="14" class="st1 st2">約行教相</tspan><tspan x="0" y="28" class="st1 st2">約證教相</tspan></text>
<text transform="matrix(1 0 0 1 169.583 8.5947)" class="st0"><tspan x="0" y="0" class="st1 st2">能詮</tspan><tspan x="0" y="14" class="st1 st2">所詮</tspan></text>
<line class="st3" x1="105.5" y1="4.5" x2="113" y2="4.5"/>
<line class="st3" x1="105.5" y1="18.8" x2="113" y2="18.8"/>
<line class="st3" x1="105.5" y1="33" x2="113" y2="33"/>
<line class="st3" x1="158.9" y1="4.5" x2="166.4" y2="4.5"/>
<line class="st3" x1="158.9" y1="18.8" x2="166.4" y2="18.8"/>
<text transform="matrix(1 0 0 1 204.083 15.5942)" class="st0"><tspan x="0" y="0" class="st1 st2">能證</tspan><tspan x="0" y="21" class="st1 st2">所證</tspan></text>
<g>
	<line class="st3" x1="197.6" y1="19" x2="197.6" y2="4.5"/>
	<line class="st3" x1="197.6" y1="19" x2="193.8" y2="19"/>
	<line class="st3" x1="197.6" y1="4.5" x2="193.8" y2="4.5"/>
	<line class="st3" x1="197.6" y1="11.8" x2="201.3" y2="11.8"/>
</g>
<line class="st3" x1="158.9" y1="33" x2="201.3" y2="33"/>
<text transform="matrix(1 0 0 1 237.6861 15.5942)" class="st0"><tspan x="0" y="0" class="st1 st2">因</tspan><tspan x="0" y="21" class="st1 st2">果</tspan></text>
<line class="st3" x1="227.9" y1="33" x2="235.4" y2="33"/>
<line class="st3" x1="227.9" y1="11.8" x2="235.4" y2="11.8"/>
<text transform="matrix(1 0 0 1 -3.051758e-05 22.5938)" class="st1 st2">三師教判</text>
<g>
	<line class="st3" x1="46" y1="4.5" x2="46" y2="33"/>
	<line class="st3" x1="46" y1="4.5" x2="49.8" y2="4.5"/>
	<line class="st3" x1="46" y1="33" x2="49.8" y2="33"/>
	<line class="st3" x1="46.1" y1="18.8" x2="42.4" y2="18.8"/>
</g>
</svg>
