<?xml version="1.0" encoding="utf-8"?>
<!-- Generator: Adobe Illustrator 21.0.0, SVG Export Plug-In . SVG Version: 6.00 Build 0)  -->
<svg version="1.1" id="圖層_1" xmlns="http://www.w3.org/2000/svg" xmlns:xlink="http://www.w3.org/1999/xlink" x="0px" y="0px"
	 viewBox="0 0 254.2 80.4" style="enable-background:new 0 0 254.2 80.4;" xml:space="preserve">
<style type="text/css">
	.st0{enable-background:new    ;}
	.st1{font-family:'KaiTi';}
	.st2{font-size:10px;}
	.st3{font-family:'DFKaiShu-SB-Estd-BF';}
	.st4{fill:none;stroke:#000000;stroke-width:0.5;stroke-miterlimit:10;}
</style>
<text transform="matrix(1 0 0 1 94.199 8.5938)" class="st0"><tspan x="0" y="0" class="st1 st2">第十二</tspan><tspan x="30" y="0" class="st3 st2">、</tspan><tspan x="40" y="0" class="st1 st2">光明無量願</tspan></text>
<text transform="matrix(1 0 0 1 94.199 22.5938)" class="st0"><tspan x="0" y="0" class="st1 st2">第十三</tspan><tspan x="30" y="0" class="st3 st2">、</tspan><tspan x="40" y="0" class="st1 st2">壽命無量願</tspan></text>
<text transform="matrix(1 0 0 1 94.199 36.5938)" class="st0"><tspan x="0" y="0" class="st1 st2">第十七</tspan><tspan x="30" y="0" class="st3 st2">、</tspan><tspan x="40" y="0" class="st1 st2">諸佛稱揚願</tspan></text>
<text transform="matrix(1 0 0 1 94.199 50.5938)" class="st0"><tspan x="0" y="0" class="st1 st2">第三十一</tspan><tspan x="40" y="0" class="st3 st2">、</tspan><tspan x="50" y="0" class="st1 st2">國土清淨願(徹見十方願)</tspan></text>
<text transform="matrix(1 0 0 1 94.199 64.5938)" class="st0"><tspan x="0" y="0" class="st1 st2">第三十二</tspan><tspan x="40" y="0" class="st3 st2">、</tspan><tspan x="50" y="0" class="st1 st2">國土嚴飾願</tspan></text>
<g>
	<line class="st4" x1="85.1" y1="19.1" x2="88" y2="19.1"/>
	<line class="st4" x1="87.8" y1="5.5" x2="90.7" y2="5.5"/>
	<line class="st4" x1="87.9" y1="33" x2="90.7" y2="33"/>
	<line class="st4" x1="88" y1="5.2" x2="88" y2="33.2"/>
</g>
<g>
	<line class="st4" x1="85.1" y1="53.1" x2="88" y2="53.1"/>
	<line class="st4" x1="87.8" y1="46.2" x2="90.7" y2="46.2"/>
	<line class="st4" x1="87.9" y1="60.3" x2="90.7" y2="60.3"/>
	<line class="st4" x1="88" y1="45.9" x2="88" y2="60.6"/>
</g>
<text transform="matrix(1 0 0 1 41.8332 22.5938)" class="st1 st2">攝</text>
<text transform="matrix(1 0 0 1 51.8332 22.5938)" class="st1 st2">法</text>
<text transform="matrix(1 0 0 1 61.8332 22.5938)" class="st1 st2">身</text>
<text transform="matrix(1 0 0 1 71.8332 22.5938)" class="st1 st2">願</text>
<text transform="matrix(1 0 0 1 41.8332 57.5938)" class="st1 st2">攝</text>
<text transform="matrix(1 0 0 1 51.8332 57.5938)" class="st1 st2">淨</text>
<text transform="matrix(1 0 0 1 61.8332 57.5938)" class="st1 st2">土</text>
<text transform="matrix(1 0 0 1 71.8332 57.5938)" class="st1 st2">願</text>
<text transform="matrix(1 0 0 1 41.8332 78.5942)" class="st1 st2">攝</text>
<text transform="matrix(1 0 0 1 51.8332 78.5942)" class="st1 st2">眾</text>
<text transform="matrix(1 0 0 1 61.8332 78.5942)" class="st1 st2">生</text>
<text transform="matrix(1 0 0 1 71.8332 78.5942)" class="st1 st2">願</text>
<text transform="matrix(1 0 0 1 83.8332 78.5942)" class="st1 st2"> </text>
<text transform="matrix(1 0 0 1 88.8332 78.5942)" class="st1 st2"> </text>
<text transform="matrix(1 0 0 1 93.8332 78.5942)" class="st1 st2">其他之四十三願</text>
<line class="st4" x1="85.6" y1="74.5" x2="91.2" y2="74.5"/>
<g>
	<line class="st4" x1="33.1" y1="47.2" x2="36" y2="47.2"/>
	<line class="st4" x1="35.8" y1="19.3" x2="38.7" y2="19.3"/>
	<line class="st4" x1="35.8" y1="75.3" x2="38.6" y2="75.3"/>
	<line class="st4" x1="36" y1="19" x2="36" y2="75.3"/>
</g>
<text transform="matrix(1 0 0 1 -1.373291e-04 50.5939)" class="st1 st2">三大願</text>
</svg>
