<?xml version="1.0" encoding="utf-8"?>
<!-- Generator: Adobe Illustrator 21.0.0, SVG Export Plug-In . SVG Version: 6.00 Build 0)  -->
<svg version="1.1" id="圖層_1" xmlns="http://www.w3.org/2000/svg" xmlns:xlink="http://www.w3.org/1999/xlink" x="0px" y="0px"
	 viewBox="0 0 155 38.4" style="enable-background:new 0 0 155 38.4;" xml:space="preserve">
<style type="text/css">
	.st0{enable-background:new    ;}
	.st1{font-family:'KaiTi';}
	.st2{font-size:10px;}
	.st3{font-family:'DFKaiShu-SB-Estd-BF';}
	.st4{fill:none;stroke:#000000;stroke-width:0.5;stroke-miterlimit:10;}
</style>
<text transform="matrix(1 0 0 1 42.4999 8.5938)" class="st0"><tspan x="0" y="0" class="st1 st2">一</tspan><tspan x="10" y="0" class="st3 st2">、</tspan><tspan x="20" y="0" class="st1 st2">超六道</tspan><tspan x="0" y="14" class="st1 st2">二</tspan><tspan x="10" y="14" class="st3 st2">、</tspan><tspan x="20" y="14" class="st1 st2">超二乘</tspan><tspan x="0" y="28" class="st1 st2">三</tspan><tspan x="10" y="28" class="st3 st2">、</tspan><tspan x="20" y="28" class="st1 st2">超諸地</tspan></text>
<g>
	<line class="st4" x1="35.7" y1="5.6" x2="35.7" y2="33.5"/>
	<line class="st4" x1="35.7" y1="5.6" x2="39.5" y2="5.6"/>
	<line class="st4" x1="35.7" y1="33.5" x2="39.5" y2="33.5"/>
	<line class="st4" x1="35.7" y1="19.5" x2="32" y2="19.5"/>
</g>
<text transform="matrix(1 0 0 1 -1.220703e-04 22.5938)" class="st1 st2">三橫超</text>
<g>
	<line class="st4" x1="98.8" y1="33.5" x2="98.8" y2="5.6"/>
	<line class="st4" x1="98.8" y1="33.5" x2="95" y2="33.5"/>
	<line class="st4" x1="98.8" y1="5.6" x2="95" y2="5.6"/>
	<line class="st4" x1="98.8" y1="19.5" x2="102.5" y2="19.5"/>
</g>
<text transform="matrix(1 0 0 1 104.9999 22.5938)" class="st1 st2">速證大涅槃</text>
</svg>
