<?xml version="1.0" encoding="utf-8"?>
<!-- Generator: Adobe Illustrator 21.0.0, SVG Export Plug-In . SVG Version: 6.00 Build 0)  -->
<svg version="1.1" id="图层_1" xmlns="http://www.w3.org/2000/svg" xmlns:xlink="http://www.w3.org/1999/xlink" x="0px" y="0px"
	 viewBox="0 0 215.5 38.6" style="enable-background:new 0 0 215.5 38.6;" xml:space="preserve">
<style type="text/css">
	.st0{font-family:'KaiTi';}
	.st1{font-size:10px;}
	.st2{font-family:'DFKaiShu-SB-Estd-BF';}
	.st3{fill:none;stroke:#000000;stroke-width:0.5;stroke-miterlimit:10;}
</style>
<text transform="matrix(1 0 0 1 72 8.5938)"><tspan x="0" y="0" class="st0 st1">往生正觉</tspan><tspan x="40" y="0" class="st2 st1">，</tspan><tspan x="50" y="0" class="st0 st1">机法一体</tspan><tspan x="0" y="14" class="st0 st1">身心功德</tspan><tspan x="40" y="14" class="st2 st1">，</tspan><tspan x="50" y="14" class="st0 st1">机法一体</tspan><tspan x="0" y="28" class="st0 st1">生佛三业</tspan><tspan x="40" y="28" class="st2 st1">，</tspan><tspan x="50" y="28" class="st0 st1">机法一体</tspan></text>
<text transform="matrix(1 0 0 1 0 22.5938)" class="st0 st1">三种机法一体</text>
<g>
	<line class="st3" x1="65.7" y1="5" x2="65.7" y2="34"/>
	<line class="st3" x1="65.7" y1="5" x2="68.4" y2="5"/>
	<line class="st3" x1="65.7" y1="34" x2="68.4" y2="34"/>
	<line class="st3" x1="65.7" y1="19.5" x2="62.9" y2="19.5"/>
</g>
<text transform="matrix(1 0 0 1 175.5 8.5938)"><tspan x="0" y="0" class="st0 st1">彼此相靠</tspan><tspan x="0" y="14" class="st0 st1">互相容融</tspan><tspan x="0" y="28" class="st0 st1">不相舍离</tspan></text>
<line class="st3" x1="165.9" y1="5" x2="171.4" y2="5"/>
<line class="st3" x1="165.9" y1="19.5" x2="171.4" y2="19.5"/>
<line class="st3" x1="165.9" y1="34" x2="171.4" y2="34"/>
</svg>
