<?xml version="1.0" encoding="utf-8"?>
<!-- Generator: Adobe Illustrator 21.0.0, SVG Export Plug-In . SVG Version: 6.00 Build 0)  -->
<svg version="1.1" id="图层_1" xmlns="http://www.w3.org/2000/svg" xmlns:xlink="http://www.w3.org/1999/xlink" x="0px" y="0px"
	 viewBox="0 0 128.7 45.4" style="enable-background:new 0 0 128.7 45.4;" xml:space="preserve">
<style type="text/css">
	.st0{enable-background:new    ;}
	.st1{font-family:'KaiTi';}
	.st2{font-size:10px;}
	.st3{fill:none;stroke:#000000;stroke-width:0.5;stroke-miterlimit:10;}
</style>
<text transform="matrix(1 0 0 1 64.9999 8.5938)" class="st0"><tspan x="0" y="0" class="st1 st2">愿超</tspan><tspan x="0" y="14" class="st1 st2">行超</tspan><tspan x="0" y="35" class="st1 st2">名超</tspan></text>
<g>
	<line class="st3" x1="58.2" y1="5.3" x2="58.2" y2="19.9"/>
	<line class="st3" x1="58.2" y1="5.3" x2="62" y2="5.3"/>
	<line class="st3" x1="58.2" y1="19.9" x2="62" y2="19.9"/>
	<line class="st3" x1="58.2" y1="12.6" x2="54.5" y2="12.6"/>
</g>
<line class="st3" x1="88.2" y1="5.6" x2="95.7" y2="5.6"/>
<line class="st3" x1="88.2" y1="19.9" x2="95.7" y2="19.9"/>
<line class="st3" x1="88.2" y1="40.5" x2="95.7" y2="40.5"/>
<text transform="matrix(1 0 0 1 98.6664 8.5938)" class="st0"><tspan x="0" y="0" class="st1 st2">第一首</tspan><tspan x="0" y="14" class="st1 st2">第二首</tspan><tspan x="0" y="35" class="st1 st2">第三首</tspan></text>
<line class="st3" x1="54.4" y1="40.5" x2="61.9" y2="40.5"/>
<text transform="matrix(1 0 0 1 31.4999 15.5938)" class="st0"><tspan x="0" y="0" class="st1 st2">因超</tspan><tspan x="0" y="28" class="st1 st2">果超</tspan></text>
<g>
	<line class="st3" x1="25.7" y1="12.6" x2="25.7" y2="40.5"/>
	<line class="st3" x1="25.7" y1="12.6" x2="29.5" y2="12.6"/>
	<line class="st3" x1="25.7" y1="40.5" x2="29.5" y2="40.5"/>
	<line class="st3" x1="25.7" y1="26.5" x2="22" y2="26.5"/>
</g>
<text transform="matrix(1 0 0 1 -1.220703e-04 29.5938)" class="st1 st2">三超</text>
</svg>
