<?xml version="1.0" encoding="utf-8"?>
<!-- Generator: Adobe Illustrator 21.0.0, SVG Export Plug-In . SVG Version: 6.00 Build 0)  -->
<svg version="1.1" id="图层_1" xmlns="http://www.w3.org/2000/svg" xmlns:xlink="http://www.w3.org/1999/xlink" x="0px" y="0px"
	 viewBox="0 0 268.6 38.4" style="enable-background:new 0 0 268.6 38.4;" xml:space="preserve">
<style type="text/css">
	.st0{enable-background:new    ;}
	.st1{font-family:'KaiTi';}
	.st2{font-size:10px;}
	.st3{letter-spacing:5;}
	.st4{fill:none;stroke:#000000;stroke-width:0.5;stroke-miterlimit:10;}
</style>
<text transform="matrix(1 0 0 1 52.75 8.5945)" class="st0"><tspan x="0" y="0" class="st1 st2">第一重</tspan><tspan x="0" y="14" class="st1 st2">第二重</tspan><tspan x="0" y="28" class="st1 st2">第三重</tspan></text>
<text transform="matrix(1 0 0 1 95.083 8.5942)" class="st0"><tspan x="0" y="0" class="st1 st2">在</tspan><tspan x="10" y="0" class="st1 st2 st3"> </tspan><tspan x="20" y="0" class="st1 st2">心</tspan><tspan x="0" y="14" class="st1 st2">在</tspan><tspan x="10" y="14" class="st1 st2 st3"> </tspan><tspan x="20" y="14" class="st1 st2">缘</tspan><tspan x="0" y="28" class="st1 st2">在决定</tspan></text>
<line class="st4" x1="85.5" y1="4.5" x2="93" y2="4.5"/>
<line class="st4" x1="85.5" y1="18.8" x2="93" y2="18.8"/>
<line class="st4" x1="85.5" y1="33" x2="93" y2="33"/>
<text transform="matrix(1 0 0 1 -3.051758e-05 22.5938)" class="st1 st2">三重定业</text>
<g>
	<line class="st4" x1="46" y1="4.5" x2="46" y2="33"/>
	<line class="st4" x1="46" y1="4.5" x2="49.8" y2="4.5"/>
	<line class="st4" x1="46" y1="33" x2="49.8" y2="33"/>
	<line class="st4" x1="46.1" y1="18.8" x2="42.4" y2="18.8"/>
</g>
<line class="st4" x1="127.5" y1="4.5" x2="135" y2="4.5"/>
<line class="st4" x1="127.5" y1="18.8" x2="135" y2="18.8"/>
<line class="st4" x1="127.5" y1="33" x2="135" y2="33"/>
<text transform="matrix(1 0 0 1 137.9828 8.5939)" class="st0"><tspan x="0" y="0" class="st1 st2">即南无义</tspan><tspan x="0" y="14" class="st1 st2">即阿弥陀佛义</tspan><tspan x="0" y="28" class="st1 st2">即南无阿弥陀佛义</tspan></text>
<g>
	<line class="st4" x1="224.9" y1="33.3" x2="224.9" y2="4.8"/>
	<line class="st4" x1="224.9" y1="33.3" x2="221.1" y2="33.3"/>
	<line class="st4" x1="225" y1="4.8" x2="179.7" y2="4.8"/>
	<line class="st4" x1="200.3" y1="19" x2="228.6" y2="19"/>
</g>
<text transform="matrix(1 0 0 1 228.6005 22.5938)" class="st1 st2">正定之业</text>
</svg>
