<?xml version="1.0" encoding="utf-8"?>
<!-- Generator: Adobe Illustrator 21.0.0, SVG Export Plug-In . SVG Version: 6.00 Build 0)  -->
<svg version="1.1" baseProfile="tiny" id="图层_1"
	 xmlns="http://www.w3.org/2000/svg" xmlns:xlink="http://www.w3.org/1999/xlink" x="0px" y="0px" viewBox="0 0 240.8 150.9"
	 overflow="scroll" xml:space="preserve">
<g>
	<line fill="none" stroke="#000000" stroke-width="0.5" stroke-miterlimit="10" x1="21.6" y1="19.6" x2="24.5" y2="19.6"/>
	<line fill="none" stroke="#000000" stroke-width="0.5" stroke-miterlimit="10" x1="24.5" y1="5.8" x2="27.4" y2="5.8"/>
	<line fill="none" stroke="#000000" stroke-width="0.5" stroke-miterlimit="10" x1="24.5" y1="33.3" x2="27.4" y2="33.3"/>
	<line fill="none" stroke="#000000" stroke-width="0.5" stroke-miterlimit="10" x1="24.5" y1="5.6" x2="24.5" y2="33.6"/>
</g>
<g>
	<line fill="none" stroke="#000000" stroke-width="0.5" stroke-miterlimit="10" x1="144.7" y1="19.6" x2="147.6" y2="19.6"/>
	<line fill="none" stroke="#000000" stroke-width="0.5" stroke-miterlimit="10" x1="141.8" y1="5.8" x2="144.7" y2="5.8"/>
	<line fill="none" stroke="#000000" stroke-width="0.5" stroke-miterlimit="10" x1="141.8" y1="33.3" x2="144.7" y2="33.3"/>
	<line fill="none" stroke="#000000" stroke-width="0.5" stroke-miterlimit="10" x1="144.7" y1="5.6" x2="144.7" y2="33.5"/>
</g>
<g>
	<line fill="none" stroke="#000000" stroke-width="0.5" stroke-miterlimit="10" x1="144.7" y1="75.9" x2="147.6" y2="75.9"/>
	<line fill="none" stroke="#000000" stroke-width="0.5" stroke-miterlimit="10" x1="141.8" y1="62.1" x2="144.7" y2="62.1"/>
	<line fill="none" stroke="#000000" stroke-width="0.5" stroke-miterlimit="10" x1="141.8" y1="89.6" x2="144.7" y2="89.6"/>
	<line fill="none" stroke="#000000" stroke-width="0.5" stroke-miterlimit="10" x1="144.7" y1="61.9" x2="144.7" y2="89.8"/>
</g>
<g>
	<line fill="none" stroke="#000000" stroke-width="0.5" stroke-miterlimit="10" x1="144.7" y1="131.2" x2="147.6" y2="131.2"/>
	<line fill="none" stroke="#000000" stroke-width="0.5" stroke-miterlimit="10" x1="141.8" y1="117.5" x2="144.7" y2="117.5"/>
	<line fill="none" stroke="#000000" stroke-width="0.5" stroke-miterlimit="10" x1="141.8" y1="144.9" x2="144.7" y2="144.9"/>
	<line fill="none" stroke="#000000" stroke-width="0.5" stroke-miterlimit="10" x1="144.7" y1="117.3" x2="144.7" y2="145.1"/>
</g>
<text transform="matrix(1 0 0 1 28.9785 8.5938)" font-family="KaiTi" font-size="10px">上上品</text>
<text transform="matrix(1 0 0 1 28.9785 22.5938)" font-family="KaiTi" font-size="10px">上中品</text>
<text transform="matrix(1 0 0 1 28.9785 36.5938)" font-family="KaiTi" font-size="10px">上下品</text>
<text transform="matrix(1 0 0 1 28.9785 64.5938)" font-family="KaiTi" font-size="10px">中上品</text>
<text transform="matrix(1 0 0 1 28.9785 78.5938)" font-family="KaiTi" font-size="10px">中中品</text>
<text transform="matrix(1 0 0 1 28.9785 92.5938)" font-family="KaiTi" font-size="10px">中下品</text>
<text transform="matrix(1 0 0 1 28.9785 120.5938)" font-family="KaiTi" font-size="10px">下上品</text>
<text transform="matrix(1 0 0 1 28.9785 134.5938)" font-family="KaiTi" font-size="10px">下中品</text>
<text transform="matrix(1 0 0 1 28.9785 148.5938)" font-family="KaiTi" font-size="10px">下下品</text>
<text transform="matrix(1 0 0 1 0 22.9502)" font-family="KaiTi" font-size="10px">上辈</text>
<text transform="matrix(1 0 0 1 0 78.9502)" font-family="KaiTi" font-size="10px">中辈</text>
<text transform="matrix(1 0 0 1 0 134.9502)" font-family="KaiTi" font-size="10px">下辈</text>
<text transform="matrix(1 0 0 1 69.3209 8.5938)" font-family="KaiTi" font-size="10px">大乘上善凡夫人</text>
<text transform="matrix(1 0 0 1 69.3209 22.5938)" font-family="KaiTi" font-size="10px">大乘次善凡夫人</text>
<text transform="matrix(1 0 0 1 69.3209 36.5938)" font-family="KaiTi" font-size="10px">大乘下善凡夫人</text>
<text transform="matrix(1 0 0 1 69.3209 64.5938)" font-family="KaiTi" font-size="10px">小乘上善凡夫人</text>
<text transform="matrix(1 0 0 1 69.3209 78.5938)" font-family="KaiTi" font-size="10px">小乘次善凡夫人</text>
<text transform="matrix(1 0 0 1 69.3209 92.5938)" font-family="KaiTi" font-size="10px">世间上福凡夫人</text>
<text transform="matrix(1 0 0 1 69.3209 120.5938)" font-family="KaiTi" font-size="10px">十恶轻罪凡夫人</text>
<text transform="matrix(1 0 0 1 69.3209 134.5938)" font-family="KaiTi" font-size="10px">破戒次罪凡夫人</text>
<text transform="matrix(1 0 0 1 69.3209 148.5938)" font-family="KaiTi" font-size="10px">逆恶重罪凡夫人</text>
<text transform="matrix(1 0 0 1 149.8951 22.9502)" font-family="KaiTi" font-size="10px">大乘凡夫</text>
<text transform="matrix(1 0 0 1 149.8951 78.9502)" font-family="KaiTi" font-size="10px">小乘凡夫</text>
<text transform="matrix(1 0 0 1 149.8951 134.9502)" font-family="KaiTi" font-size="10px">遇恶凡夫</text>
<text transform="matrix(1 0 0 1 200.7835 78.9502)" font-family="KaiTi" font-size="10px">九品唯凡</text>
<g>
	<line fill="none" stroke="#000000" stroke-width="0.5" stroke-miterlimit="10" x1="61" y1="5.6" x2="66.8" y2="5.6"/>
	<line fill="none" stroke="#000000" stroke-width="0.5" stroke-miterlimit="10" x1="61" y1="19.6" x2="66.6" y2="19.6"/>
	<line fill="none" stroke="#000000" stroke-width="0.5" stroke-miterlimit="10" x1="61" y1="33.3" x2="66.7" y2="33.3"/>
</g>
<g>
	<line fill="none" stroke="#000000" stroke-width="0.5" stroke-miterlimit="10" x1="61" y1="62.2" x2="66.8" y2="62.2"/>
	<line fill="none" stroke="#000000" stroke-width="0.5" stroke-miterlimit="10" x1="61" y1="76.2" x2="66.6" y2="76.2"/>
	<line fill="none" stroke="#000000" stroke-width="0.5" stroke-miterlimit="10" x1="61" y1="89.8" x2="66.7" y2="89.8"/>
</g>
<g>
	<line fill="none" stroke="#000000" stroke-width="0.5" stroke-miterlimit="10" x1="61" y1="117.4" x2="66.8" y2="117.4"/>
	<line fill="none" stroke="#000000" stroke-width="0.5" stroke-miterlimit="10" x1="61" y1="131.3" x2="66.6" y2="131.3"/>
	<line fill="none" stroke="#000000" stroke-width="0.5" stroke-miterlimit="10" x1="61" y1="145" x2="66.7" y2="145"/>
</g>
<g>
	<line fill="none" stroke="#000000" stroke-width="0.5" stroke-miterlimit="10" x1="21.6" y1="75.9" x2="24.5" y2="75.9"/>
	<line fill="none" stroke="#000000" stroke-width="0.5" stroke-miterlimit="10" x1="24.5" y1="62.1" x2="27.4" y2="62.1"/>
	<line fill="none" stroke="#000000" stroke-width="0.5" stroke-miterlimit="10" x1="24.5" y1="89.6" x2="27.4" y2="89.6"/>
	<line fill="none" stroke="#000000" stroke-width="0.5" stroke-miterlimit="10" x1="24.5" y1="61.9" x2="24.5" y2="89.8"/>
</g>
<g>
	<line fill="none" stroke="#000000" stroke-width="0.5" stroke-miterlimit="10" x1="21.6" y1="131.2" x2="24.5" y2="131.2"/>
	<line fill="none" stroke="#000000" stroke-width="0.5" stroke-miterlimit="10" x1="24.5" y1="117.4" x2="27.4" y2="117.4"/>
	<line fill="none" stroke="#000000" stroke-width="0.5" stroke-miterlimit="10" x1="24.5" y1="144.9" x2="27.4" y2="144.9"/>
	<line fill="none" stroke="#000000" stroke-width="0.5" stroke-miterlimit="10" x1="24.5" y1="117.2" x2="24.5" y2="145.2"/>
</g>
<g>
	<line fill="none" stroke="#000000" stroke-width="0.5" stroke-miterlimit="10" x1="192.6" y1="131.2" x2="195.5" y2="131.2"/>
	<line fill="none" stroke="#000000" stroke-width="0.5" stroke-miterlimit="10" x1="192.6" y1="19.6" x2="195.5" y2="19.6"/>
	<line fill="none" stroke="#000000" stroke-width="0.5" stroke-miterlimit="10" x1="195.3" y1="76" x2="198.2" y2="76"/>
	<line fill="none" stroke="#000000" stroke-width="0.5" stroke-miterlimit="10" x1="195.5" y1="19.3" x2="195.5" y2="131.5"/>
</g>
</svg>
