<?xml version="1.0" encoding="utf-8"?>
<!-- Generator: Adobe Illustrator 19.1.0, SVG Export Plug-In . SVG Version: 6.00 Build 0)  -->
<svg version="1.1" baseProfile="tiny" id="图层_1"
	 xmlns="http://www.w3.org/2000/svg" xmlns:xlink="http://www.w3.org/1999/xlink" x="0px" y="0px" viewBox="0 0 407.8 167"
	 xml:space="preserve">
<text transform="matrix(1 0 0 1 -1.602173e-004 105.2263)" font-family="'FZKTK--GBK1-0'" font-size="12px">十二光佛</text>
<text transform="matrix(1 0 0 1 58.679 47.6563)" font-family="'FZKTK--GBK1-0'" font-size="12px">直显</text>
<text transform="matrix(1 0 0 1 92.894 16.8864)" font-family="'FZKTK--GBK1-0'" font-size="12px">体</text>
<text transform="matrix(1 0 0 1 113.3138 10.3128)" font-family="'FZKTK--GBK1-0'" font-size="12px">竖</text>
<text transform="matrix(1 0 0 1 113.3138 24.3128)" font-family="'FZKTK--GBK1-0'" font-size="12px">横</text>
<text transform="matrix(1 0 0 1 113.3138 38.3128)" font-family="'FZKTK--GBK1-0'" font-size="12px">总</text>
<text transform="matrix(1 0 0 1 135.4738 93.753)" font-family="'FZKTK--GBK1-0'" font-size="12px">相待</text>
<text transform="matrix(1 0 0 1 170.341 65.8564)" font-family="'FZKTK--GBK1-0'" font-size="12px">遍照</text>
<text transform="matrix(1 0 0 1 170.341 121.8564)" font-family="'FZKTK--GBK1-0'" font-size="12px">常恒</text>
<text transform="matrix(1 0 0 1 204.5945 52.1897)" font-family="'FZKTK--GBK1-0'" font-size="12px">对诸佛</text>
<text transform="matrix(1 0 0 1 204.5945 80.1897)" font-family="'FZKTK--GBK1-0'" font-size="12px">对众生</text>
<text transform="matrix(1 0 0 1 251.094 66.0164)" font-family="'FZKTK--GBK1-0'" font-size="12px">灭果</text>
<text transform="matrix(1 0 0 1 251.094 94.0164)" font-family="'FZKTK--GBK1-0'" font-size="12px">断因</text>
<text transform="matrix(1 0 0 1 285.374 79.8463)" font-family="'FZKTK--GBK1-0'" font-size="12px">断贪</text>
<text transform="matrix(1 0 0 1 285.374 93.8463)" font-family="'FZKTK--GBK1-0'" font-size="12px">断瞋</text>
<text transform="matrix(1 0 0 1 285.374 107.8463)" font-family="'FZKTK--GBK1-0'" font-size="12px">断痴</text>
<g>
	<text transform="matrix(1 0 0 1 323.7202 10.3127)" font-family="'FZKTK--GBK1-0'" font-size="12px">一</text>
	<text transform="matrix(1 0 0 1 323.7202 24.3127)" font-family="'FZKTK--GBK1-0'" font-size="12px">二</text>
	<text transform="matrix(1 0 0 1 323.7202 38.3127)" font-family="'FZKTK--GBK1-0'" font-size="12px">三</text>
	<text transform="matrix(1 0 0 1 323.7202 52.3127)" font-family="'FZKTK--GBK1-0'" font-size="12px">四</text>
	<text transform="matrix(1 0 0 1 323.7202 66.3127)" font-family="'FZKTK--GBK1-0'" font-size="12px">五</text>
	<text transform="matrix(1 0 0 1 323.7202 80.3127)" font-family="'FZKTK--GBK1-0'" font-size="12px">六</text>
	<text transform="matrix(1 0 0 1 323.7202 94.3127)" font-family="'FZKTK--GBK1-0'" font-size="12px">七</text>
	<text transform="matrix(1 0 0 1 323.7202 108.3127)" font-family="'FZKTK--GBK1-0'" font-size="12px">八</text>
	<text transform="matrix(1 0 0 1 323.7202 122.3127)" font-family="'FZKTK--GBK1-0'" font-size="12px">九</text>
	<text transform="matrix(1 0 0 1 323.7202 136.3127)" font-family="'FZKTK--GBK1-0'" font-size="12px">十</text>
	<text transform="matrix(1 0 0 1 323.7202 150.3127)" font-family="'FZKTK--GBK1-0'" font-size="12px">十一</text>
	<text transform="matrix(1 0 0 1 323.7202 164.3127)" font-family="'FZKTK--GBK1-0'" font-size="12px">十二</text>
	<text transform="matrix(1 0 0 1 347.8272 10.3127)" font-family="'FZKTK--GBK1-0'" font-size="12px">无量光佛</text>
	<text transform="matrix(1 0 0 1 347.8272 24.3127)" font-family="'FZKTK--GBK1-0'" font-size="12px">无边光佛</text>
	<text transform="matrix(1 0 0 1 347.8272 38.3127)" font-family="'FZKTK--GBK1-0'" font-size="12px">无碍光佛</text>
	<text transform="matrix(1 0 0 1 347.8272 52.3127)" font-family="'FZKTK--GBK1-0'" font-size="12px">无对光佛</text>
	<text transform="matrix(1 0 0 1 347.8272 66.3127)" font-family="'FZKTK--GBK1-0'" font-size="12px">炎王光佛</text>
	<text transform="matrix(1 0 0 1 347.8272 80.3127)" font-family="'FZKTK--GBK1-0'" font-size="12px">清净光佛</text>
	<text transform="matrix(1 0 0 1 347.8272 94.3127)" font-family="'FZKTK--GBK1-0'" font-size="12px">欢喜光佛</text>
	<text transform="matrix(1 0 0 1 347.8272 108.3127)" font-family="'FZKTK--GBK1-0'" font-size="12px">智慧光佛</text>
	<text transform="matrix(1 0 0 1 347.8272 122.3127)" font-family="'FZKTK--GBK1-0'" font-size="12px">不断光佛</text>
	<text transform="matrix(1 0 0 1 347.8272 136.3127)" font-family="'FZKTK--GBK1-0'" font-size="12px">难思光佛</text>
	<text transform="matrix(1 0 0 1 347.8272 150.3127)" font-family="'FZKTK--GBK1-0'" font-size="12px">无称光佛</text>
	<text transform="matrix(1 0 0 1 347.8272 164.3127)" font-family="'FZKTK--GBK1-0'" font-size="12px">超日月光佛</text>
</g>
<line fill="none" stroke="#000000" stroke-width="0.5" stroke-miterlimit="10" x1="313.1" y1="75.9" x2="318.7" y2="75.9"/>
<line fill="none" stroke="#000000" stroke-width="0.5" stroke-miterlimit="10" x1="313.1" y1="89.9" x2="318.7" y2="89.9"/>
<line fill="none" stroke="#000000" stroke-width="0.5" stroke-miterlimit="10" x1="313.1" y1="104" x2="318.7" y2="104"/>
<g>
	<line fill="none" stroke="#040000" stroke-width="0.5" stroke-miterlimit="10" x1="282.9" y1="103.6" x2="280" y2="103.6"/>
	<line fill="none" stroke="#040000" stroke-width="0.5" stroke-miterlimit="10" x1="282.9" y1="75.7" x2="280" y2="75.7"/>
	<line fill="none" stroke="#040000" stroke-width="0.5" stroke-miterlimit="10" x1="280" y1="103.9" x2="280" y2="75.4"/>
	<line fill="none" stroke="#040000" stroke-width="0.5" stroke-miterlimit="10" x1="279.9" y1="89.7" x2="277" y2="89.7"/>
</g>
<g>
	<line fill="none" stroke="#040000" stroke-width="0.5" stroke-miterlimit="10" x1="248.6" y1="89.8" x2="245.7" y2="89.8"/>
	<line fill="none" stroke="#040000" stroke-width="0.5" stroke-miterlimit="10" x1="248.6" y1="61.9" x2="245.7" y2="61.9"/>
	<line fill="none" stroke="#040000" stroke-width="0.5" stroke-miterlimit="10" x1="245.7" y1="90.1" x2="245.7" y2="61.6"/>
	<line fill="none" stroke="#040000" stroke-width="0.5" stroke-miterlimit="10" x1="245.7" y1="75.8" x2="242.8" y2="75.8"/>
</g>
<g>
	<line fill="none" stroke="#040000" stroke-width="0.5" stroke-miterlimit="10" x1="202.2" y1="75.5" x2="199.3" y2="75.5"/>
	<line fill="none" stroke="#040000" stroke-width="0.5" stroke-miterlimit="10" x1="202.2" y1="47.6" x2="199.3" y2="47.6"/>
	<line fill="none" stroke="#040000" stroke-width="0.5" stroke-miterlimit="10" x1="199.3" y1="75.8" x2="199.3" y2="47.3"/>
	<line fill="none" stroke="#040000" stroke-width="0.5" stroke-miterlimit="10" x1="199.3" y1="61.5" x2="196.4" y2="61.5"/>
</g>
<line fill="none" stroke="#000000" stroke-width="0.5" stroke-miterlimit="10" x1="277" y1="61.7" x2="318.7" y2="61.7"/>
<line fill="none" stroke="#040000" stroke-width="0.5" stroke-miterlimit="10" x1="242.8" y1="47.7" x2="318.7" y2="47.7"/>
<line fill="none" stroke="#040000" stroke-width="0.5" stroke-miterlimit="10" x1="196.4" y1="117.7" x2="318.7" y2="117.7"/>
<g>
	<line fill="none" stroke="#040000" stroke-width="0.5" stroke-miterlimit="10" x1="167.4" y1="117.8" x2="164.5" y2="117.8"/>
	<line fill="none" stroke="#040000" stroke-width="0.5" stroke-miterlimit="10" x1="167.4" y1="61.9" x2="164.5" y2="61.9"/>
	<line fill="none" stroke="#040000" stroke-width="0.5" stroke-miterlimit="10" x1="164.4" y1="89.8" x2="161.5" y2="89.8"/>
	<line fill="none" stroke="#040000" stroke-width="0.5" stroke-miterlimit="10" x1="164.5" y1="118" x2="164.5" y2="61.6"/>
</g>
<line fill="none" stroke="#040000" stroke-width="0.5" stroke-miterlimit="10" x1="90.6" y1="74" x2="87.7" y2="74"/>
<line fill="none" stroke="#040000" stroke-width="0.5" stroke-miterlimit="10" x1="90.6" y1="12.5" x2="87.7" y2="12.5"/>
<line fill="none" stroke="#040000" stroke-width="0.5" stroke-miterlimit="10" x1="87.6" y1="43.2" x2="84.7" y2="43.2"/>
<line fill="none" stroke="#040000" stroke-width="0.5" stroke-miterlimit="10" x1="87.7" y1="74.2" x2="87.7" y2="12.3"/>
<line fill="none" stroke="#040000" stroke-width="0.5" stroke-miterlimit="10" x1="318.7" y1="146" x2="315.9" y2="146"/>
<line fill="none" stroke="#040000" stroke-width="0.5" stroke-miterlimit="10" x1="318.7" y1="131.7" x2="315.8" y2="131.7"/>
<line fill="none" stroke="#040000" stroke-width="0.5" stroke-miterlimit="10" x1="315.8" y1="138.9" x2="161.5" y2="138.9"/>
<line fill="none" stroke="#040000" stroke-width="0.5" stroke-miterlimit="10" x1="315.9" y1="146.2" x2="315.9" y2="131.6"/>
<text transform="matrix(1 0 0 1 135.474 142.6193)" font-family="'FZKTK--GBK1-0'" font-size="12px">绝对</text>
<g>
	<line fill="none" stroke="#040000" stroke-width="0.5" stroke-miterlimit="10" x1="132.8" y1="138.9" x2="129.9" y2="138.9"/>
	<line fill="none" stroke="#040000" stroke-width="0.5" stroke-miterlimit="10" x1="132.8" y1="89.8" x2="129.9" y2="89.8"/>
	<line fill="none" stroke="#040000" stroke-width="0.5" stroke-miterlimit="10" x1="129.9" y1="114.4" x2="127" y2="114.4"/>
	<line fill="none" stroke="#040000" stroke-width="0.5" stroke-miterlimit="10" x1="129.9" y1="139.2" x2="129.9" y2="89.6"/>
</g>
<line fill="none" stroke="#040000" stroke-width="0.5" stroke-miterlimit="10" x1="127" y1="5.8" x2="318.7" y2="5.8"/>
<line fill="none" stroke="#040000" stroke-width="0.5" stroke-miterlimit="10" x1="127" y1="19.8" x2="318.7" y2="19.8"/>
<line fill="none" stroke="#040000" stroke-width="0.5" stroke-miterlimit="10" x1="127" y1="33.8" x2="318.7" y2="33.8"/>
<text transform="matrix(1 0 0 1 113.3135 118.3027)" font-family="'FZKTK--GBK1-0'" font-size="12px">别</text>
<g>
	<line fill="none" stroke="#040000" stroke-width="0.5" stroke-miterlimit="10" x1="112" y1="19.9" x2="109.1" y2="19.9"/>
	<line fill="none" stroke="#040000" stroke-width="0.5" stroke-miterlimit="10" x1="112" y1="5.7" x2="109.1" y2="5.7"/>
	<line fill="none" stroke="#040000" stroke-width="0.5" stroke-miterlimit="10" x1="109" y1="12.8" x2="106.1" y2="12.8"/>
	<line fill="none" stroke="#040000" stroke-width="0.5" stroke-miterlimit="10" x1="109.1" y1="20.2" x2="109.1" y2="5.5"/>
</g>
<line fill="none" stroke="#040000" stroke-width="0.5" stroke-miterlimit="10" x1="112" y1="114.4" x2="109.1" y2="114.4"/>
<line fill="none" stroke="#040000" stroke-width="0.5" stroke-miterlimit="10" x1="111.9" y1="33.6" x2="109.1" y2="33.6"/>
<line fill="none" stroke="#040000" stroke-width="0.5" stroke-miterlimit="10" x1="109" y1="74" x2="106.1" y2="74"/>
<line fill="none" stroke="#040000" stroke-width="0.5" stroke-miterlimit="10" x1="109.1" y1="114.8" x2="109.1" y2="33.5"/>
<text transform="matrix(1 0 0 1 92.894 78.1963)" font-family="'FZKTK--GBK1-0'" font-size="12px">用</text>
<text transform="matrix(1 0 0 1 58.6788 163.5767)" font-family="'FZKTK--GBK1-0'" font-size="12px">比显</text>
<line fill="none" stroke="#040000" stroke-width="0.5" stroke-miterlimit="10" x1="84.7" y1="159.7" x2="318.7" y2="159.7"/>
<g>
	<line fill="none" stroke="#040000" stroke-width="0.5" stroke-miterlimit="10" x1="55.9" y1="159.7" x2="53" y2="159.7"/>
	<line fill="none" stroke="#040000" stroke-width="0.5" stroke-miterlimit="10" x1="55.9" y1="43.2" x2="53" y2="43.2"/>
	<line fill="none" stroke="#040000" stroke-width="0.5" stroke-miterlimit="10" x1="52.9" y1="101.5" x2="50" y2="101.5"/>
	<line fill="none" stroke="#040000" stroke-width="0.5" stroke-miterlimit="10" x1="53" y1="160" x2="53" y2="43"/>
</g>
</svg>
