<?xml version="1.0" encoding="utf-8"?>
<!-- Generator: Adobe Illustrator 19.1.0, SVG Export Plug-In . SVG Version: 6.00 Build 0)  -->
<svg version="1.1" baseProfile="tiny" id="图层_1"
	 xmlns="http://www.w3.org/2000/svg" xmlns:xlink="http://www.w3.org/1999/xlink" x="0px" y="0px" viewBox="0 0 354.7 167"
	 xml:space="preserve">
<text transform="matrix(1 0 0 1 1.029968e-004 132.7925)" font-family="'FZKTK--GBK1-0'" font-size="12px">十二光佛</text>
<text transform="matrix(1 0 0 1 57.7037 102.5642)" font-family="'FZKTK--GBK1-0'" font-size="12px">直叹</text>
<text transform="matrix(1 0 0 1 93.3702 62.4795)" font-family="'FZKTK--GBK1-0'" font-size="12px">约所赞法体</text>
<text transform="matrix(1 0 0 1 166.3598 17.3612)" font-family="'FZKTK--GBK1-0'" font-size="12px">体</text>
<text transform="matrix(1 0 0 1 188.5183 10.3122)" font-family="'FZKTK--GBK1-0'" font-size="12px">约竖</text>
<text transform="matrix(1 0 0 1 188.5183 24.3122)" font-family="'FZKTK--GBK1-0'" font-size="12px">约横</text>
<text transform="matrix(1 0 0 1 221.6869 38.1791)" font-family="'FZKTK--GBK1-0'" font-size="12px">自在德</text>
<text transform="matrix(1 0 0 1 221.6869 52.1791)" font-family="'FZKTK--GBK1-0'" font-size="12px">最上德</text>
<text transform="matrix(1 0 0 1 270.4525 10.3121)" font-family="'FZKTK--GBK1-0'" font-size="12px">一</text>
<text transform="matrix(1 0 0 1 270.4525 24.3121)" font-family="'FZKTK--GBK1-0'" font-size="12px">二</text>
<text transform="matrix(1 0 0 1 270.4525 38.3121)" font-family="'FZKTK--GBK1-0'" font-size="12px">三</text>
<text transform="matrix(1 0 0 1 270.4525 52.3121)" font-family="'FZKTK--GBK1-0'" font-size="12px">四</text>
<text transform="matrix(1 0 0 1 270.4525 66.3121)" font-family="'FZKTK--GBK1-0'" font-size="12px">五</text>
<text transform="matrix(1 0 0 1 270.4525 80.3121)" font-family="'FZKTK--GBK1-0'" font-size="12px">六</text>
<text transform="matrix(1 0 0 1 270.4525 94.3121)" font-family="'FZKTK--GBK1-0'" font-size="12px">七</text>
<text transform="matrix(1 0 0 1 270.4525 108.3121)" font-family="'FZKTK--GBK1-0'" font-size="12px">八</text>
<text transform="matrix(1 0 0 1 270.4525 122.3121)" font-family="'FZKTK--GBK1-0'" font-size="12px">九</text>
<text transform="matrix(1 0 0 1 270.4525 136.3121)" font-family="'FZKTK--GBK1-0'" font-size="12px">十</text>
<text transform="matrix(1 0 0 1 270.4525 150.3121)" font-family="'FZKTK--GBK1-0'" font-size="12px">十一</text>
<text transform="matrix(1 0 0 1 270.4525 164.3121)" font-family="'FZKTK--GBK1-0'" font-size="12px">十二</text>
<text transform="matrix(1 0 0 1 294.6931 10.3124)" font-family="'FZKTK--GBK1-0'" font-size="12px">无量光佛</text>
<text transform="matrix(1 0 0 1 294.6931 24.3124)" font-family="'FZKTK--GBK1-0'" font-size="12px">无边光佛</text>
<text transform="matrix(1 0 0 1 294.6931 38.3124)" font-family="'FZKTK--GBK1-0'" font-size="12px">无碍光佛</text>
<text transform="matrix(1 0 0 1 294.6931 52.3124)" font-family="'FZKTK--GBK1-0'" font-size="12px">无对光佛</text>
<text transform="matrix(1 0 0 1 294.6931 66.3119)" font-family="'FZKTK--GBK1-0'" font-size="12px">炎王光佛</text>
<text transform="matrix(1 0 0 1 294.6931 80.3119)" font-family="'FZKTK--GBK1-0'" font-size="12px">清净光佛</text>
<text transform="matrix(1 0 0 1 294.6931 94.3119)" font-family="'FZKTK--GBK1-0'" font-size="12px">欢喜光佛</text>
<text transform="matrix(1 0 0 1 294.6931 108.3119)" font-family="'FZKTK--GBK1-0'" font-size="12px">智慧光佛</text>
<text transform="matrix(1 0 0 1 294.6931 122.3119)" font-family="'FZKTK--GBK1-0'" font-size="12px">不断光佛</text>
<text transform="matrix(1 0 0 1 294.6931 136.3119)" font-family="'FZKTK--GBK1-0'" font-size="12px">难思光佛</text>
<text transform="matrix(1 0 0 1 294.6931 150.3119)" font-family="'FZKTK--GBK1-0'" font-size="12px">无称光佛</text>
<text transform="matrix(1 0 0 1 294.6931 164.3119)" font-family="'FZKTK--GBK1-0'" font-size="12px">超日月光佛</text>
<line fill="none" stroke="#040000" stroke-width="0.5" stroke-miterlimit="10" x1="261" y1="34.2" x2="266.7" y2="34.2"/>
<line fill="none" stroke="#040000" stroke-width="0.5" stroke-miterlimit="10" x1="261" y1="48.3" x2="266.7" y2="48.3"/>
<text transform="matrix(1 0 0 1 188.5181 94.2476)" font-family="'FZKTK--GBK1-0'" font-size="12px">对治三毒</text>
<text transform="matrix(1 0 0 1 188.5181 122.2476)" font-family="'FZKTK--GBK1-0'" font-size="12px">照益常恒</text>
<text transform="matrix(1 0 0 1 188.5181 136.2476)" font-family="'FZKTK--GBK1-0'" font-size="12px">心行处灭</text>
<text transform="matrix(1 0 0 1 188.5181 150.2476)" font-family="'FZKTK--GBK1-0'" font-size="12px">言语道断</text>
<text transform="matrix(1 0 0 1 188.5184 44.7662)" font-family="'FZKTK--GBK1-0'" font-size="12px">遮情</text>
<g>
	<line fill="none" stroke="#040000" stroke-width="0.5" stroke-miterlimit="10" x1="220" y1="48.4" x2="217.1" y2="48.4"/>
	<line fill="none" stroke="#040000" stroke-width="0.5" stroke-miterlimit="10" x1="220" y1="34.2" x2="217.1" y2="34.2"/>
	<line fill="none" stroke="#040000" stroke-width="0.5" stroke-miterlimit="10" x1="217" y1="41.3" x2="214.1" y2="41.3"/>
	<line fill="none" stroke="#040000" stroke-width="0.5" stroke-miterlimit="10" x1="217.1" y1="48.6" x2="217.1" y2="34"/>
</g>
<g>
	<line fill="none" stroke="#040000" stroke-width="0.5" stroke-miterlimit="10" x1="186.2" y1="20.4" x2="183.3" y2="20.4"/>
	<line fill="none" stroke="#040000" stroke-width="0.5" stroke-miterlimit="10" x1="186.2" y1="6.2" x2="183.3" y2="6.2"/>
	<line fill="none" stroke="#040000" stroke-width="0.5" stroke-miterlimit="10" x1="183.3" y1="13.3" x2="180.4" y2="13.3"/>
	<line fill="none" stroke="#040000" stroke-width="0.5" stroke-miterlimit="10" x1="183.3" y1="20.6" x2="183.3" y2="6"/>
</g>
<line fill="none" stroke="#040000" stroke-width="0.5" stroke-miterlimit="10" x1="186.2" y1="62" x2="183.3" y2="62"/>
<line fill="none" stroke="#040000" stroke-width="0.5" stroke-miterlimit="10" x1="186.2" y1="41.1" x2="183.3" y2="41.1"/>
<line fill="none" stroke="#040000" stroke-width="0.5" stroke-miterlimit="10" x1="183.3" y1="51.5" x2="180.4" y2="51.5"/>
<line fill="none" stroke="#040000" stroke-width="0.5" stroke-miterlimit="10" x1="183.3" y1="104.1" x2="180.4" y2="104.1"/>
<line fill="none" stroke="#040000" stroke-width="0.5" stroke-miterlimit="10" x1="183.3" y1="62.2" x2="183.3" y2="40.8"/>
<line fill="none" stroke="#040000" stroke-width="0.5" stroke-miterlimit="10" x1="186.1" y1="146.2" x2="183.2" y2="146.2"/>
<line fill="none" stroke="#040000" stroke-width="0.5" stroke-miterlimit="10" x1="186.1" y1="132" x2="183.2" y2="132"/>
<line fill="none" stroke="#040000" stroke-width="0.5" stroke-miterlimit="10" x1="183.1" y1="139.1" x2="156.3" y2="139.1"/>
<line fill="none" stroke="#040000" stroke-width="0.5" stroke-miterlimit="10" x1="183.2" y1="146.4" x2="183.2" y2="131.7"/>
<g>
	<line fill="none" stroke="#040000" stroke-width="0.5" stroke-miterlimit="10" x1="266.7" y1="104.1" x2="263.8" y2="104.1"/>
	<line fill="none" stroke="#040000" stroke-width="0.5" stroke-miterlimit="10" x1="266.6" y1="76.1" x2="263.7" y2="76.1"/>
	<line fill="none" stroke="#040000" stroke-width="0.5" stroke-miterlimit="10" x1="263.7" y1="90.1" x2="239" y2="90.1"/>
	<line fill="none" stroke="#040000" stroke-width="0.5" stroke-miterlimit="10" x1="263.8" y1="104.3" x2="263.8" y2="75.9"/>
</g>
<line fill="none" stroke="#040000" stroke-width="0.5" stroke-miterlimit="10" x1="186.2" y1="118" x2="183.3" y2="118"/>
<line fill="none" stroke="#040000" stroke-width="0.5" stroke-miterlimit="10" x1="186.2" y1="90.1" x2="183.3" y2="90.1"/>
<line fill="none" stroke="#040000" stroke-width="0.5" stroke-miterlimit="10" x1="183.3" y1="118.3" x2="183.3" y2="89.8"/>
<text transform="matrix(1 0 0 1 188.5835 66.0875)" font-family="'FZKTK--GBK1-0'" font-size="12px">表显</text>
<line fill="none" stroke="#040000" stroke-width="0.5" stroke-miterlimit="10" x1="214.1" y1="6.6" x2="266.7" y2="6.6"/>
<line fill="none" stroke="#040000" stroke-width="0.5" stroke-miterlimit="10" x1="214.1" y1="20.6" x2="266.7" y2="20.6"/>
<line fill="none" stroke="#040000" stroke-width="0.5" stroke-miterlimit="10" x1="214.1" y1="62.2" x2="266.7" y2="62.2"/>
<line fill="none" stroke="#040000" stroke-width="0.5" stroke-miterlimit="10" x1="239" y1="118.1" x2="266.6" y2="118.1"/>
<line fill="none" stroke="#040000" stroke-width="0.5" stroke-miterlimit="10" x1="239" y1="132.2" x2="266.6" y2="132.2"/>
<line fill="none" stroke="#040000" stroke-width="0.5" stroke-miterlimit="10" x1="239" y1="146" x2="266.6" y2="146"/>
<line fill="none" stroke="#040000" stroke-width="0.5" stroke-miterlimit="10" x1="83.1" y1="160.2" x2="266.6" y2="160.2"/>
<text transform="matrix(1 0 0 1 166.3602 55.2801)" font-family="'FZKTK--GBK1-0'" font-size="12px">德</text>
<text transform="matrix(1 0 0 1 166.3602 107.9925)" font-family="'FZKTK--GBK1-0'" font-size="12px">用</text>
<g>
	<line fill="none" stroke="#040000" stroke-width="0.5" stroke-miterlimit="10" x1="162.2" y1="104.1" x2="159.3" y2="104.1"/>
	<line fill="none" stroke="#040000" stroke-width="0.5" stroke-miterlimit="10" x1="162.2" y1="13.2" x2="159.3" y2="13.2"/>
	<line fill="none" stroke="#040000" stroke-width="0.5" stroke-miterlimit="10" x1="159.2" y1="58.6" x2="156.3" y2="58.6"/>
	<line fill="none" stroke="#040000" stroke-width="0.5" stroke-miterlimit="10" x1="159.3" y1="104.3" x2="159.3" y2="13"/>
</g>
<g>
	<line fill="none" stroke="#040000" stroke-width="0.5" stroke-miterlimit="10" x1="89" y1="139.1" x2="86.1" y2="139.1"/>
	<line fill="none" stroke="#040000" stroke-width="0.5" stroke-miterlimit="10" x1="89" y1="58.6" x2="86.1" y2="58.6"/>
	<line fill="none" stroke="#040000" stroke-width="0.5" stroke-miterlimit="10" x1="86" y1="98.8" x2="83.1" y2="98.8"/>
	<line fill="none" stroke="#040000" stroke-width="0.5" stroke-miterlimit="10" x1="86.1" y1="139.4" x2="86.1" y2="58.3"/>
</g>
<g>
	<line fill="none" stroke="#040000" stroke-width="0.5" stroke-miterlimit="10" x1="56" y1="160" x2="53.1" y2="160"/>
	<line fill="none" stroke="#040000" stroke-width="0.5" stroke-miterlimit="10" x1="56" y1="98.7" x2="53.1" y2="98.7"/>
	<line fill="none" stroke="#040000" stroke-width="0.5" stroke-miterlimit="10" x1="53" y1="129.3" x2="50.1" y2="129.3"/>
	<line fill="none" stroke="#040000" stroke-width="0.5" stroke-miterlimit="10" x1="53.1" y1="160.2" x2="53.1" y2="98.4"/>
</g>
<text transform="matrix(1 0 0 1 93.3704 142.8017)" font-family="'FZKTK--GBK1-0'" font-size="12px">约能赞心言</text>
<text transform="matrix(1 0 0 1 57.7033 164.1625)" font-family="'FZKTK--GBK1-0'" font-size="12px">对赞</text>
</svg>
