<?xml version="1.0" encoding="utf-8"?>
<!-- Generator: Adobe Illustrator 19.1.0, SVG Export Plug-In . SVG Version: 6.00 Build 0)  -->
<svg version="1.1" baseProfile="tiny" id="图层_1"
	 xmlns="http://www.w3.org/2000/svg" xmlns:xlink="http://www.w3.org/1999/xlink" x="0px" y="0px" viewBox="0 0 340.7 167"
	 xml:space="preserve">
<text transform="matrix(1 0 0 1 2.059937e-004 93.8166)" font-family="'FZKTK--GBK1-0'" font-size="12px">十二光佛</text>
<text transform="matrix(1 0 0 1 60.9352 23.5395)" font-family="'FZKTK--GBK1-0'" font-size="12px">显光明体德</text>
<text transform="matrix(1 0 0 1 133.7504 93.8166)" font-family="'FZKTK--GBK1-0'" font-size="12px">横益十方</text>
<text transform="matrix(1 0 0 1 133.7504 121.8166)" font-family="'FZKTK--GBK1-0'" font-size="12px">竖利三世</text>
<text transform="matrix(1 0 0 1 192.4737 10.3127)" font-family="'FZKTK--GBK1-0'" font-size="12px">算数不及</text>
<text transform="matrix(1 0 0 1 192.4737 24.3127)" font-family="'FZKTK--GBK1-0'" font-size="12px">无机不照</text>
<text transform="matrix(1 0 0 1 192.4737 38.3127)" font-family="'FZKTK--GBK1-0'" font-size="12px">人法不障</text>
<text transform="matrix(1 0 0 1 192.4737 52.3127)" font-family="'FZKTK--GBK1-0'" font-size="12px">对诸佛光</text>
<text transform="matrix(1 0 0 1 192.4737 66.3127)" font-family="'FZKTK--GBK1-0'" font-size="12px">绝诸佛光</text>
<text transform="matrix(1 0 0 1 192.4737 80.3127)" font-family="'FZKTK--GBK1-0'" font-size="12px">灭除贪罪</text>
<text transform="matrix(1 0 0 1 192.4737 94.3127)" font-family="'FZKTK--GBK1-0'" font-size="12px">灭除瞋罪</text>
<text transform="matrix(1 0 0 1 192.4737 108.3127)" font-family="'FZKTK--GBK1-0'" font-size="12px">灭除痴罪</text>
<text transform="matrix(1 0 0 1 192.4737 122.3127)" font-family="'FZKTK--GBK1-0'" font-size="12px">三世恒照</text>
<text transform="matrix(1 0 0 1 192.4737 136.3127)" font-family="'FZKTK--GBK1-0'" font-size="12px">心行处灭</text>
<text transform="matrix(1 0 0 1 192.4737 150.3127)" font-family="'FZKTK--GBK1-0'" font-size="12px">言语道断</text>
<g>
	<text transform="matrix(1 0 0 1 256.6065 10.3123)" font-family="'FZKTK--GBK1-0'" font-size="12px">一</text>
	<text transform="matrix(1 0 0 1 256.6065 24.3123)" font-family="'FZKTK--GBK1-0'" font-size="12px">二</text>
	<text transform="matrix(1 0 0 1 256.6065 38.3123)" font-family="'FZKTK--GBK1-0'" font-size="12px">三</text>
	<text transform="matrix(1 0 0 1 256.6065 52.3123)" font-family="'FZKTK--GBK1-0'" font-size="12px">四</text>
	<text transform="matrix(1 0 0 1 256.6065 66.3123)" font-family="'FZKTK--GBK1-0'" font-size="12px">五</text>
	<text transform="matrix(1 0 0 1 256.6065 80.3123)" font-family="'FZKTK--GBK1-0'" font-size="12px">六</text>
	<text transform="matrix(1 0 0 1 256.6065 94.3123)" font-family="'FZKTK--GBK1-0'" font-size="12px">七</text>
	<text transform="matrix(1 0 0 1 256.6065 108.3123)" font-family="'FZKTK--GBK1-0'" font-size="12px">八</text>
	<text transform="matrix(1 0 0 1 256.6065 122.3123)" font-family="'FZKTK--GBK1-0'" font-size="12px">九</text>
	<text transform="matrix(1 0 0 1 256.6065 136.3123)" font-family="'FZKTK--GBK1-0'" font-size="12px">十</text>
	<text transform="matrix(1 0 0 1 256.6065 150.3123)" font-family="'FZKTK--GBK1-0'" font-size="12px">十一</text>
	<text transform="matrix(1 0 0 1 256.6065 164.3123)" font-family="'FZKTK--GBK1-0'" font-size="12px">十二</text>
	<text transform="matrix(1 0 0 1 280.7135 10.3123)" font-family="'FZKTK--GBK1-0'" font-size="12px">无量光佛</text>
	<text transform="matrix(1 0 0 1 280.7135 24.3123)" font-family="'FZKTK--GBK1-0'" font-size="12px">无边光佛</text>
	<text transform="matrix(1 0 0 1 280.7135 38.3123)" font-family="'FZKTK--GBK1-0'" font-size="12px">无碍光佛</text>
	<text transform="matrix(1 0 0 1 280.7135 52.3123)" font-family="'FZKTK--GBK1-0'" font-size="12px">无对光佛</text>
	<text transform="matrix(1 0 0 1 280.7135 66.3123)" font-family="'FZKTK--GBK1-0'" font-size="12px">炎王光佛</text>
	<text transform="matrix(1 0 0 1 280.7135 80.3123)" font-family="'FZKTK--GBK1-0'" font-size="12px">清净光佛</text>
	<text transform="matrix(1 0 0 1 280.7135 94.3123)" font-family="'FZKTK--GBK1-0'" font-size="12px">欢喜光佛</text>
	<text transform="matrix(1 0 0 1 280.7135 108.3123)" font-family="'FZKTK--GBK1-0'" font-size="12px">智慧光佛</text>
	<text transform="matrix(1 0 0 1 280.7135 122.3123)" font-family="'FZKTK--GBK1-0'" font-size="12px">不断光佛</text>
	<text transform="matrix(1 0 0 1 280.7135 136.3123)" font-family="'FZKTK--GBK1-0'" font-size="12px">难思光佛</text>
	<text transform="matrix(1 0 0 1 280.7135 150.3123)" font-family="'FZKTK--GBK1-0'" font-size="12px">无称光佛</text>
	<text transform="matrix(1 0 0 1 280.7135 164.3123)" font-family="'FZKTK--GBK1-0'" font-size="12px">超日月光佛</text>
</g>
<line fill="none" stroke="#000000" stroke-width="0.5" stroke-miterlimit="10" x1="244.7" y1="5.9" x2="250.4" y2="5.9"/>
<line fill="none" stroke="#000000" stroke-width="0.5" stroke-miterlimit="10" x1="244.7" y1="19.9" x2="250.4" y2="19.9"/>
<line fill="none" stroke="#000000" stroke-width="0.5" stroke-miterlimit="10" x1="244.7" y1="33.9" x2="250.4" y2="33.9"/>
<line fill="none" stroke="#000000" stroke-width="0.5" stroke-miterlimit="10" x1="244.7" y1="48" x2="250.4" y2="48"/>
<line fill="none" stroke="#000000" stroke-width="0.5" stroke-miterlimit="10" x1="244.7" y1="62" x2="250.4" y2="62"/>
<line fill="none" stroke="#000000" stroke-width="0.5" stroke-miterlimit="10" x1="244.7" y1="76" x2="250.4" y2="76"/>
<line fill="none" stroke="#000000" stroke-width="0.5" stroke-miterlimit="10" x1="244.7" y1="89.9" x2="250.4" y2="89.9"/>
<line fill="none" stroke="#000000" stroke-width="0.5" stroke-miterlimit="10" x1="244.7" y1="103.9" x2="250.4" y2="103.9"/>
<line fill="none" stroke="#000000" stroke-width="0.5" stroke-miterlimit="10" x1="244.7" y1="117.9" x2="250.4" y2="117.9"/>
<line fill="none" stroke="#000000" stroke-width="0.5" stroke-miterlimit="10" x1="244.7" y1="131.9" x2="250.4" y2="131.9"/>
<line fill="none" stroke="#000000" stroke-width="0.5" stroke-miterlimit="10" x1="244.7" y1="145.8" x2="250.4" y2="145.8"/>
<line fill="none" stroke="#040000" stroke-width="0.5" stroke-miterlimit="10" x1="189.8" y1="33.6" x2="186.9" y2="33.6"/>
<line fill="none" stroke="#040000" stroke-width="0.5" stroke-miterlimit="10" x1="189.8" y1="5.6" x2="186.9" y2="5.6"/>
<line fill="none" stroke="#040000" stroke-width="0.5" stroke-miterlimit="10" x1="186.8" y1="19.6" x2="123.9" y2="19.6"/>
<line fill="none" stroke="#040000" stroke-width="0.5" stroke-miterlimit="10" x1="186.9" y1="33.8" x2="186.9" y2="5.4"/>
<line fill="none" stroke="#040000" stroke-width="0.5" stroke-miterlimit="10" x1="189.8" y1="103.8" x2="186.9" y2="103.8"/>
<line fill="none" stroke="#040000" stroke-width="0.5" stroke-miterlimit="10" x1="189.8" y1="75.8" x2="186.9" y2="75.8"/>
<line fill="none" stroke="#040000" stroke-width="0.5" stroke-miterlimit="10" x1="186.9" y1="104" x2="186.9" y2="75.6"/>
<line fill="none" stroke="#040000" stroke-width="0.5" stroke-miterlimit="10" x1="186.8" y1="89.8" x2="183.9" y2="89.8"/>
<line fill="none" stroke="#040000" stroke-width="0.5" stroke-miterlimit="10" x1="189.7" y1="61.9" x2="186.8" y2="61.9"/>
<line fill="none" stroke="#040000" stroke-width="0.5" stroke-miterlimit="10" x1="189.7" y1="47.7" x2="186.8" y2="47.7"/>
<line fill="none" stroke="#040000" stroke-width="0.5" stroke-miterlimit="10" x1="186.7" y1="54.8" x2="123.9" y2="54.8"/>
<line fill="none" stroke="#040000" stroke-width="0.5" stroke-miterlimit="10" x1="186.8" y1="62.2" x2="186.8" y2="47.5"/>
<line fill="none" stroke="#040000" stroke-width="0.5" stroke-miterlimit="10" x1="189.7" y1="146.1" x2="186.8" y2="146.1"/>
<line fill="none" stroke="#040000" stroke-width="0.5" stroke-miterlimit="10" x1="189.7" y1="131.9" x2="186.8" y2="131.9"/>
<line fill="none" stroke="#040000" stroke-width="0.5" stroke-miterlimit="10" x1="186.7" y1="139" x2="123.9" y2="139"/>
<line fill="none" stroke="#040000" stroke-width="0.5" stroke-miterlimit="10" x1="250.4" y1="159.7" x2="123.9" y2="159.7"/>
<line fill="none" stroke="#040000" stroke-width="0.5" stroke-miterlimit="10" x1="186.8" y1="146.3" x2="186.8" y2="131.7"/>
<line fill="none" stroke="#040000" stroke-width="0.5" stroke-miterlimit="10" x1="184.1" y1="117.9" x2="189.7" y2="117.9"/>
<line fill="none" stroke="#040000" stroke-width="0.5" stroke-miterlimit="10" x1="123.9" y1="89.9" x2="129.6" y2="89.9"/>
<line fill="none" stroke="#040000" stroke-width="0.5" stroke-miterlimit="10" x1="123.9" y1="118" x2="129.6" y2="118"/>
<text transform="matrix(1 0 0 1 60.9354 58.646)" font-family="'FZKTK--GBK1-0'" font-size="12px">对他显胜德</text>
<text transform="matrix(1 0 0 1 60.9347 93.8166)" font-family="'FZKTK--GBK1-0'" font-size="12px">化他灭惑德</text>
<text transform="matrix(1 0 0 1 60.9347 121.8166)" font-family="'FZKTK--GBK1-0'" font-size="12px">常恒不断德</text>
<text transform="matrix(1 0 0 1 60.9352 142.8044)" font-family="'FZKTK--GBK1-0'" font-size="12px">难思难议德</text>
<text transform="matrix(1 0 0 1 60.9354 163.386)" font-family="'FZKTK--GBK1-0'" font-size="12px">超日月光德</text>
<line fill="none" stroke="#040000" stroke-width="0.5" stroke-miterlimit="10" x1="57.5" y1="159.7" x2="54.6" y2="159.7"/>
<line fill="none" stroke="#040000" stroke-width="0.5" stroke-miterlimit="10" x1="57.5" y1="19.9" x2="54.6" y2="19.9"/>
<line fill="none" stroke="#040000" stroke-width="0.5" stroke-miterlimit="10" x1="54.5" y1="89.8" x2="51.6" y2="89.8"/>
<line fill="none" stroke="#040000" stroke-width="0.5" stroke-miterlimit="10" x1="54.6" y1="159.9" x2="54.6" y2="19.7"/>
</svg>
