<?xml version="1.0" encoding="utf-8"?>
<!-- Generator: Adobe Illustrator 19.1.0, SVG Export Plug-In . SVG Version: 6.00 Build 0)  -->
<svg version="1.1" baseProfile="tiny" id="图层_1"
	 xmlns="http://www.w3.org/2000/svg" xmlns:xlink="http://www.w3.org/1999/xlink" x="0px" y="0px" viewBox="0 0 288.8 167"
	 xml:space="preserve">
<text transform="matrix(1 0 0 1 3.051758e-005 73.1725)" font-family="'FZKTK--GBK1-0'" font-size="12px">十二光佛</text>
<text transform="matrix(1 0 0 1 58.9871 31.5525)" font-family="'FZKTK--GBK1-0'" font-size="12px">直显</text>
<text transform="matrix(1 0 0 1 58.9871 115.5525)" font-family="'FZKTK--GBK1-0'" font-size="12px">对显</text>
<text transform="matrix(1 0 0 1 93.6233 16.9992)" font-family="'FZKTK--GBK1-0'" font-size="12px">无限德能</text>
<text transform="matrix(1 0 0 1 93.6233 44.9992)" font-family="'FZKTK--GBK1-0'" font-size="12px">离言绝虑</text>
<text transform="matrix(1 0 0 1 93.6233 86.9992)" font-family="'FZKTK--GBK1-0'" font-size="12px">对他显胜</text>
<text transform="matrix(1 0 0 1 93.6233 142.9992)" font-family="'FZKTK--GBK1-0'" font-size="12px">利益众生</text>
<text transform="matrix(1 0 0 1 151.6133 10.3125)" font-family="'FZKTK--GBK1-0'" font-size="12px">无</text>
<text transform="matrix(1 0 0 1 167.5977 10.3125)" font-family="'FZKTK--GBK1-0'" font-size="12px">量</text>
<text transform="matrix(1 0 0 1 183.5811 10.3125)" font-family="'FZKTK--GBK1-0'" font-size="12px">光</text>
<text transform="matrix(1 0 0 1 199.5655 10.3125)" font-family="'FZKTK--GBK1-0'" font-size="12px">佛</text>
<text transform="matrix(1 0 0 1 151.6133 24.3125)" font-family="'FZKTK--GBK1-0'" font-size="12px">无</text>
<text transform="matrix(1 0 0 1 167.5977 24.3125)" font-family="'FZKTK--GBK1-0'" font-size="12px">边</text>
<text transform="matrix(1 0 0 1 183.5811 24.3125)" font-family="'FZKTK--GBK1-0'" font-size="12px">光</text>
<text transform="matrix(1 0 0 1 199.5655 24.3125)" font-family="'FZKTK--GBK1-0'" font-size="12px">佛</text>
<text transform="matrix(1 0 0 1 151.6133 38.3125)" font-family="'FZKTK--GBK1-0'" font-size="12px">难</text>
<text transform="matrix(1 0 0 1 167.5977 38.3125)" font-family="'FZKTK--GBK1-0'" font-size="12px">思</text>
<text transform="matrix(1 0 0 1 183.5811 38.3125)" font-family="'FZKTK--GBK1-0'" font-size="12px">光</text>
<text transform="matrix(1 0 0 1 199.5655 38.3125)" font-family="'FZKTK--GBK1-0'" font-size="12px">佛</text>
<text transform="matrix(1 0 0 1 151.6133 52.3125)" font-family="'FZKTK--GBK1-0'" font-size="12px">无</text>
<text transform="matrix(1 0 0 1 167.5977 52.3125)" font-family="'FZKTK--GBK1-0'" font-size="12px">称</text>
<text transform="matrix(1 0 0 1 183.5811 52.3125)" font-family="'FZKTK--GBK1-0'" font-size="12px">光</text>
<text transform="matrix(1 0 0 1 199.5655 52.3125)" font-family="'FZKTK--GBK1-0'" font-size="12px">佛</text>
<text transform="matrix(1 0 0 1 151.6133 66.3125)" font-family="'FZKTK--GBK1-0'" font-size="12px">无</text>
<text transform="matrix(1 0 0 1 167.5977 66.3125)" font-family="'FZKTK--GBK1-0'" font-size="12px">碍</text>
<text transform="matrix(1 0 0 1 183.5811 66.3125)" font-family="'FZKTK--GBK1-0'" font-size="12px">光</text>
<text transform="matrix(1 0 0 1 199.5655 66.3125)" font-family="'FZKTK--GBK1-0'" font-size="12px">佛</text>
<text transform="matrix(1 0 0 1 151.6133 80.3125)" font-family="'FZKTK--GBK1-0'" font-size="12px">无</text>
<text transform="matrix(1 0 0 1 167.5977 80.3125)" font-family="'FZKTK--GBK1-0'" font-size="12px">对</text>
<text transform="matrix(1 0 0 1 183.5811 80.3125)" font-family="'FZKTK--GBK1-0'" font-size="12px">光</text>
<text transform="matrix(1 0 0 1 199.5655 80.3125)" font-family="'FZKTK--GBK1-0'" font-size="12px">佛</text>
<text transform="matrix(1 0 0 1 151.6133 94.3125)" font-family="'FZKTK--GBK1-0'" font-size="12px">炎</text>
<text transform="matrix(1 0 0 1 167.5977 94.3125)" font-family="'FZKTK--GBK1-0'" font-size="12px">王</text>
<text transform="matrix(1 0 0 1 183.5811 94.3125)" font-family="'FZKTK--GBK1-0'" font-size="12px">光</text>
<text transform="matrix(1 0 0 1 199.5655 94.3125)" font-family="'FZKTK--GBK1-0'" font-size="12px">佛</text>
<text transform="matrix(1 0 0 1 151.6133 108.3125)" font-family="'FZKTK--GBK1-0'" font-size="12px">超</text>
<text transform="matrix(1 0 0 1 163.6133 108.3125)" font-family="'FZKTK--GBK1-0'" font-size="12px">日</text>
<text transform="matrix(1 0 0 1 175.6133 108.3125)" font-family="'FZKTK--GBK1-0'" font-size="12px">月</text>
<text transform="matrix(1 0 0 1 187.6133 108.3125)" font-family="'FZKTK--GBK1-0'" font-size="12px">光</text>
<text transform="matrix(1 0 0 1 199.6133 108.3125)" font-family="'FZKTK--GBK1-0'" font-size="12px">佛</text>
<text transform="matrix(1 0 0 1 151.6133 122.3125)" font-family="'FZKTK--GBK1-0'" font-size="12px">清</text>
<text transform="matrix(1 0 0 1 167.5977 122.3125)" font-family="'FZKTK--GBK1-0'" font-size="12px">净</text>
<text transform="matrix(1 0 0 1 183.5811 122.3125)" font-family="'FZKTK--GBK1-0'" font-size="12px">光</text>
<text transform="matrix(1 0 0 1 199.5655 122.3125)" font-family="'FZKTK--GBK1-0'" font-size="12px">佛</text>
<text transform="matrix(1 0 0 1 151.6133 136.3125)" font-family="'FZKTK--GBK1-0'" font-size="12px">欢</text>
<text transform="matrix(1 0 0 1 167.5977 136.3125)" font-family="'FZKTK--GBK1-0'" font-size="12px">喜</text>
<text transform="matrix(1 0 0 1 183.5811 136.3125)" font-family="'FZKTK--GBK1-0'" font-size="12px">光</text>
<text transform="matrix(1 0 0 1 199.5655 136.3125)" font-family="'FZKTK--GBK1-0'" font-size="12px">佛</text>
<text transform="matrix(1 0 0 1 151.6133 150.3125)" font-family="'FZKTK--GBK1-0'" font-size="12px">智</text>
<text transform="matrix(1 0 0 1 167.5977 150.3125)" font-family="'FZKTK--GBK1-0'" font-size="12px">慧</text>
<text transform="matrix(1 0 0 1 183.5811 150.3125)" font-family="'FZKTK--GBK1-0'" font-size="12px">光</text>
<text transform="matrix(1 0 0 1 199.5655 150.3125)" font-family="'FZKTK--GBK1-0'" font-size="12px">佛</text>
<text transform="matrix(1 0 0 1 151.6133 164.3125)" font-family="'FZKTK--GBK1-0'" font-size="12px">不</text>
<text transform="matrix(1 0 0 1 167.5977 164.3125)" font-family="'FZKTK--GBK1-0'" font-size="12px">断</text>
<text transform="matrix(1 0 0 1 183.5811 164.3125)" font-family="'FZKTK--GBK1-0'" font-size="12px">光</text>
<text transform="matrix(1 0 0 1 199.5655 164.3125)" font-family="'FZKTK--GBK1-0'" font-size="12px">佛</text>
<text transform="matrix(1 0 0 1 228.8474 10.3125)" font-family="'FZKTK--GBK1-0'" font-size="12px">彻穷三世</text>
<text transform="matrix(1 0 0 1 228.8474 24.3125)" font-family="'FZKTK--GBK1-0'" font-size="12px">遍满十方</text>
<text transform="matrix(1 0 0 1 228.8474 38.3125)" font-family="'FZKTK--GBK1-0'" font-size="12px">本来绝虑</text>
<text transform="matrix(1 0 0 1 228.8474 52.3125)" font-family="'FZKTK--GBK1-0'" font-size="12px">本来绝言</text>
<text transform="matrix(1 0 0 1 228.8474 66.3125)" font-family="'FZKTK--GBK1-0'" font-size="12px">对烦恼恶业</text>
<text transform="matrix(1 0 0 1 228.8474 80.3125)" font-family="'FZKTK--GBK1-0'" font-size="12px">对诸佛光</text>
<text transform="matrix(1 0 0 1 228.8474 94.3125)" font-family="'FZKTK--GBK1-0'" font-size="12px">对一切光</text>
<text transform="matrix(1 0 0 1 228.8474 108.3125)" font-family="'FZKTK--GBK1-0'" font-size="12px">对日月光</text>
<text transform="matrix(1 0 0 1 228.8474 122.3125)" font-family="'FZKTK--GBK1-0'" font-size="12px">除众生罪垢</text>
<text transform="matrix(1 0 0 1 228.8474 136.3125)" font-family="'FZKTK--GBK1-0'" font-size="12px">使众生法喜</text>
<text transform="matrix(1 0 0 1 228.8474 150.3125)" font-family="'FZKTK--GBK1-0'" font-size="12px">破众生无明</text>
<text transform="matrix(1 0 0 1 228.8474 164.3125)" font-family="'FZKTK--GBK1-0'" font-size="12px">令念佛不断</text>
<line fill="none" stroke="#000000" stroke-width="0.5" stroke-miterlimit="10" x1="217.2" y1="5.6" x2="223" y2="5.6"/>
<line fill="none" stroke="#000000" stroke-width="0.5" stroke-miterlimit="10" x1="217.2" y1="19.6" x2="223" y2="19.6"/>
<line fill="none" stroke="#000000" stroke-width="0.5" stroke-miterlimit="10" x1="217.2" y1="33.7" x2="223" y2="33.7"/>
<line fill="none" stroke="#000000" stroke-width="0.5" stroke-miterlimit="10" x1="217.2" y1="47.6" x2="223" y2="47.6"/>
<line fill="none" stroke="#000000" stroke-width="0.5" stroke-miterlimit="10" x1="217.2" y1="61.7" x2="223" y2="61.7"/>
<line fill="none" stroke="#000000" stroke-width="0.5" stroke-miterlimit="10" x1="217.2" y1="75.7" x2="223" y2="75.7"/>
<line fill="none" stroke="#000000" stroke-width="0.5" stroke-miterlimit="10" x1="217.2" y1="89.5" x2="223" y2="89.5"/>
<line fill="none" stroke="#000000" stroke-width="0.5" stroke-miterlimit="10" x1="217.2" y1="103.5" x2="223" y2="103.5"/>
<line fill="none" stroke="#000000" stroke-width="0.5" stroke-miterlimit="10" x1="217.2" y1="117.6" x2="223" y2="117.6"/>
<line fill="none" stroke="#000000" stroke-width="0.5" stroke-miterlimit="10" x1="217.2" y1="131.5" x2="223" y2="131.5"/>
<line fill="none" stroke="#000000" stroke-width="0.5" stroke-miterlimit="10" x1="217.2" y1="145.5" x2="223" y2="145.5"/>
<line fill="none" stroke="#000000" stroke-width="0.5" stroke-miterlimit="10" x1="217.2" y1="159.6" x2="223" y2="159.6"/>
<g>
	<line fill="none" stroke="#040000" stroke-width="0.5" stroke-miterlimit="10" x1="149.3" y1="19.7" x2="146.4" y2="19.7"/>
	<line fill="none" stroke="#040000" stroke-width="0.5" stroke-miterlimit="10" x1="149.3" y1="5.6" x2="146.4" y2="5.6"/>
	<line fill="none" stroke="#040000" stroke-width="0.5" stroke-miterlimit="10" x1="146.3" y1="12.6" x2="143.4" y2="12.6"/>
	<line fill="none" stroke="#040000" stroke-width="0.5" stroke-miterlimit="10" x1="146.4" y1="20" x2="146.4" y2="5.3"/>
</g>
<g>
	<line fill="none" stroke="#040000" stroke-width="0.5" stroke-miterlimit="10" x1="149.3" y1="48.1" x2="146.4" y2="48.1"/>
	<line fill="none" stroke="#040000" stroke-width="0.5" stroke-miterlimit="10" x1="149.3" y1="33.9" x2="146.4" y2="33.9"/>
	<line fill="none" stroke="#040000" stroke-width="0.5" stroke-miterlimit="10" x1="146.3" y1="41" x2="143.4" y2="41"/>
	<line fill="none" stroke="#040000" stroke-width="0.5" stroke-miterlimit="10" x1="146.4" y1="48.3" x2="146.4" y2="33.7"/>
</g>
<g>
	<line fill="none" stroke="#040000" stroke-width="0.5" stroke-miterlimit="10" x1="149.3" y1="103.6" x2="146.4" y2="103.6"/>
	<line fill="none" stroke="#040000" stroke-width="0.5" stroke-miterlimit="10" x1="149.3" y1="61.7" x2="146.4" y2="61.7"/>
	<line fill="none" stroke="#040000" stroke-width="0.5" stroke-miterlimit="10" x1="146.3" y1="82.6" x2="143.4" y2="82.6"/>
	<line fill="none" stroke="#040000" stroke-width="0.5" stroke-miterlimit="10" x1="146.4" y1="103.8" x2="146.4" y2="61.5"/>
</g>
<g>
	<line fill="none" stroke="#040000" stroke-width="0.5" stroke-miterlimit="10" x1="91" y1="138.7" x2="88.1" y2="138.7"/>
	<line fill="none" stroke="#040000" stroke-width="0.5" stroke-miterlimit="10" x1="91" y1="82.6" x2="88.1" y2="82.6"/>
	<line fill="none" stroke="#040000" stroke-width="0.5" stroke-miterlimit="10" x1="88" y1="110.6" x2="85.1" y2="110.6"/>
	<line fill="none" stroke="#040000" stroke-width="0.5" stroke-miterlimit="10" x1="88.1" y1="138.9" x2="88.1" y2="82.4"/>
</g>
<line fill="none" stroke="#040000" stroke-width="0.5" stroke-miterlimit="10" x1="56.2" y1="110.7" x2="53.3" y2="110.7"/>
<line fill="none" stroke="#040000" stroke-width="0.5" stroke-miterlimit="10" x1="56.7" y1="27.3" x2="53.8" y2="27.3"/>
<line fill="none" stroke="#040000" stroke-width="0.5" stroke-miterlimit="10" x1="53.8" y1="69" x2="50.9" y2="69"/>
<line fill="none" stroke="#040000" stroke-width="0.5" stroke-miterlimit="10" x1="53.8" y1="110.9" x2="53.8" y2="27.1"/>
<g>
	<line fill="none" stroke="#040000" stroke-width="0.5" stroke-miterlimit="10" x1="91" y1="41" x2="88.1" y2="41"/>
	<line fill="none" stroke="#040000" stroke-width="0.5" stroke-miterlimit="10" x1="91" y1="13.1" x2="88.1" y2="13.1"/>
	<line fill="none" stroke="#040000" stroke-width="0.5" stroke-miterlimit="10" x1="88" y1="27.1" x2="85.1" y2="27.1"/>
	<line fill="none" stroke="#040000" stroke-width="0.5" stroke-miterlimit="10" x1="88.1" y1="41.2" x2="88.1" y2="12.9"/>
</g>
<g>
	<line fill="none" stroke="#040000" stroke-width="0.5" stroke-miterlimit="10" x1="149.3" y1="159.6" x2="146.4" y2="159.6"/>
	<line fill="none" stroke="#040000" stroke-width="0.5" stroke-miterlimit="10" x1="149.3" y1="117.8" x2="146.4" y2="117.8"/>
	<line fill="none" stroke="#040000" stroke-width="0.5" stroke-miterlimit="10" x1="146.3" y1="138.7" x2="143.4" y2="138.7"/>
	<line fill="none" stroke="#040000" stroke-width="0.5" stroke-miterlimit="10" x1="146.4" y1="159.9" x2="146.4" y2="117.6"/>
</g>
</svg>
