<?xml version="1.0" encoding="utf-8"?>
<!-- Generator: Adobe Illustrator 21.0.0, SVG Export Plug-In . SVG Version: 6.00 Build 0)  -->
<svg version="1.1" id="图层_1" xmlns="http://www.w3.org/2000/svg" xmlns:xlink="http://www.w3.org/1999/xlink" x="0px" y="0px"
	 viewBox="0 0 298.1 52.6" style="enable-background:new 0 0 298.1 52.6;" xml:space="preserve">
<style type="text/css">
	.st0{font-family:'KaiTi';}
	.st1{font-size:10px;}
	.st2{font-family:'DFKaiShu-SB-Estd-BF';}
	.st3{fill:none;stroke:#000000;stroke-width:0.5;stroke-miterlimit:10;}
</style>
<text transform="matrix(1 0 0 1 155.375 8.5938)"><tspan x="0" y="0" class="st0 st1"> </tspan><tspan x="0" y="14" class="st0 st1">第六</tspan><tspan x="20" y="14" class="st2 st1">、</tspan><tspan x="30" y="14" class="st0 st1">七</tspan><tspan x="40" y="14" class="st2 st1">、</tspan><tspan x="50" y="14" class="st0 st1">八品</tspan><tspan x="0" y="28" class="st0 st1">第九品(易行品)</tspan></text>
<text transform="matrix(1 0 0 1 23.375 8.5938)"><tspan x="0" y="0" class="st0 st1">第一序品</tspan><tspan x="0" y="21" class="st0 st1">第二</tspan><tspan x="20" y="21" class="st2 st1">~</tspan><tspan x="25" y="21" class="st0 st1">二七品</tspan><tspan x="0" y="42" class="st0 st1">第二八</tspan><tspan x="30" y="42" class="st2 st1">~</tspan><tspan x="35" y="42" class="st0 st1">三五品</tspan></text>
<text transform="matrix(1 0 0 1 0 15.5938)"><tspan x="0" y="0" class="st0 st1">十</tspan><tspan x="0" y="14" class="st0 st1">住</tspan><tspan x="0" y="28" class="st0 st1">论</tspan></text>
<g>
	<line class="st3" x1="149.1" y1="18.9" x2="149.1" y2="33.8"/>
	<line class="st3" x1="149.1" y1="18.9" x2="152.9" y2="18.9"/>
	<line class="st3" x1="149.1" y1="33.8" x2="152.9" y2="33.8"/>
	<line class="st3" x1="149.1" y1="26.6" x2="145.4" y2="26.6"/>
</g>
<path class="st3" d="M64,5.1"/>
<path class="st3" d="M56.5,5.1"/>
<line class="st3" x1="91.8" y1="47.5" x2="99.3" y2="47.5"/>
<g>
	<line class="st3" x1="16.5" y1="5.1" x2="16.5" y2="47.5"/>
	<line class="st3" x1="16.5" y1="5.1" x2="20.3" y2="5.1"/>
	<line class="st3" x1="16.5" y1="47.5" x2="20.3" y2="47.5"/>
	<line class="st3" x1="20.3" y1="25.8" x2="12.8" y2="25.8"/>
</g>
<line class="st3" x1="227.9" y1="18.9" x2="235.4" y2="18.9"/>
<text transform="matrix(1 0 0 1 102.25 29.5938)"><tspan x="0" y="0" class="st0 st1">解释初地</tspan><tspan x="0" y="21" class="st0 st1">解释二地</tspan></text>
<line class="st3" x1="227.9" y1="33.8" x2="235.4" y2="33.8"/>
<text transform="matrix(1 0 0 1 238.125 8.5938)"><tspan x="0" y="0" class="st0 st1"> </tspan><tspan x="0" y="14" class="st0 st1">说明难行内容</tspan><tspan x="0" y="28" class="st0 st1">专说易行内容</tspan></text>
<line class="st3" x1="91.8" y1="25.8" x2="99.3" y2="25.8"/>
</svg>
