<?xml version="1.0" encoding="utf-8"?>
<!-- Generator: Adobe Illustrator 19.1.0, SVG Export Plug-In . SVG Version: 6.00 Build 0)  -->
<svg version="1.1" baseProfile="tiny" id="图层_1"
	 xmlns="http://www.w3.org/2000/svg" xmlns:xlink="http://www.w3.org/1999/xlink" x="0px" y="0px" viewBox="0 0 345.2 167"
	 xml:space="preserve">
<text transform="matrix(1 0 0 1 59.7024 16.6329)" font-family="'FZKTK--GBK1-0'" font-size="12px">体德</text>
<text transform="matrix(1 0 0 1 94.9346 38.3126)" font-family="'FZKTK--GBK1-0'" font-size="12px">总德</text>
<text transform="matrix(1 0 0 1 164.3735 10.3127)" font-family="'FZKTK--GBK1-0'" font-size="12px">一</text>
<text transform="matrix(1 0 0 1 164.3735 24.3127)" font-family="'FZKTK--GBK1-0'" font-size="12px">二</text>
<text transform="matrix(1 0 0 1 164.3735 38.3127)" font-family="'FZKTK--GBK1-0'" font-size="12px">三</text>
<text transform="matrix(1 0 0 1 164.3735 52.3127)" font-family="'FZKTK--GBK1-0'" font-size="12px">四</text>
<text transform="matrix(1 0 0 1 164.3735 66.3127)" font-family="'FZKTK--GBK1-0'" font-size="12px">五</text>
<text transform="matrix(1 0 0 1 164.3735 80.3127)" font-family="'FZKTK--GBK1-0'" font-size="12px">六</text>
<text transform="matrix(1 0 0 1 164.3735 94.3127)" font-family="'FZKTK--GBK1-0'" font-size="12px">七</text>
<text transform="matrix(1 0 0 1 164.3735 108.3127)" font-family="'FZKTK--GBK1-0'" font-size="12px">八</text>
<text transform="matrix(1 0 0 1 164.3735 122.3127)" font-family="'FZKTK--GBK1-0'" font-size="12px">九</text>
<text transform="matrix(1 0 0 1 164.3735 136.3127)" font-family="'FZKTK--GBK1-0'" font-size="12px">十</text>
<text transform="matrix(1 0 0 1 164.3735 150.3127)" font-family="'FZKTK--GBK1-0'" font-size="12px">十一</text>
<text transform="matrix(1 0 0 1 164.3735 164.3127)" font-family="'FZKTK--GBK1-0'" font-size="12px">十二</text>
<text transform="matrix(1 0 0 1 189.2135 10.3127)" font-family="'FZKTK--GBK1-0'" font-size="12px">无量光佛（时间性、穷三世）</text>
<text transform="matrix(1 0 0 1 189.2135 24.3127)" font-family="'FZKTK--GBK1-0'" font-size="12px">无边光佛（空间性、遍十方）</text>
<text transform="matrix(1 0 0 1 189.2135 38.3127)" font-family="'FZKTK--GBK1-0'" font-size="12px">无碍光佛（无碍性、救众生）</text>
<text transform="matrix(1 0 0 1 189.2135 52.3127)" font-family="'FZKTK--GBK1-0'" font-size="12px">无对光佛（相对性、灭苦因）</text>
<text transform="matrix(1 0 0 1 189.2135 66.3127)" font-family="'FZKTK--GBK1-0'" font-size="12px">炎王光佛（绝对性、灭苦果）</text>
<text transform="matrix(1 0 0 1 189.2135 80.3127)" font-family="'FZKTK--GBK1-0'" font-size="12px">清净光佛（灭贪罪、成清净）</text>
<text transform="matrix(1 0 0 1 189.2135 94.3127)" font-family="'FZKTK--GBK1-0'" font-size="12px">欢喜光佛（灭瞋罪、成忍辱）</text>
<text transform="matrix(1 0 0 1 189.2135 108.3127)" font-family="'FZKTK--GBK1-0'" font-size="12px">智慧光佛（灭痴罪、成智慧）</text>
<text transform="matrix(1 0 0 1 189.2135 122.3127)" font-family="'FZKTK--GBK1-0'" font-size="12px">不断光佛（恒常性、不断常）</text>
<text transform="matrix(1 0 0 1 189.2135 136.3127)" font-family="'FZKTK--GBK1-0'" font-size="12px">难思光佛（叵思性、离心缘）</text>
<text transform="matrix(1 0 0 1 189.2135 150.3127)" font-family="'FZKTK--GBK1-0'" font-size="12px">无称光佛（叵说性、离言说）</text>
<text transform="matrix(1 0 0 1 189.2135 164.3127)" font-family="'FZKTK--GBK1-0'" font-size="12px">超日月光佛（超绝性）</text>
<text transform="matrix(1 0 0 1 129.9865 59.1791)" font-family="'FZKTK--GBK1-0'" font-size="12px">灭德</text>
<text transform="matrix(1 0 0 1 129.9865 115.1791)" font-family="'FZKTK--GBK1-0'" font-size="12px">成德 </text>
<g>
	<line fill="none" stroke="#040000" stroke-width="0.5" stroke-miterlimit="10" x1="161.8" y1="20.2" x2="158.9" y2="20.2"/>
	<line fill="none" stroke="#040000" stroke-width="0.5" stroke-miterlimit="10" x1="161.8" y1="6.1" x2="158.9" y2="6.1"/>
	<line fill="none" stroke="#040000" stroke-width="0.5" stroke-miterlimit="10" x1="158.9" y1="20.5" x2="158.9" y2="5.8"/>
</g>
<g>
	<line fill="none" stroke="#040000" stroke-width="0.5" stroke-miterlimit="10" x1="161.8" y1="62.1" x2="158.9" y2="62.1"/>
	<line fill="none" stroke="#040000" stroke-width="0.5" stroke-miterlimit="10" x1="161.8" y1="47.9" x2="158.9" y2="47.9"/>
	<line fill="none" stroke="#040000" stroke-width="0.5" stroke-miterlimit="10" x1="158.8" y1="55" x2="155.9" y2="55"/>
	<line fill="none" stroke="#040000" stroke-width="0.5" stroke-miterlimit="10" x1="158.9" y1="62.4" x2="158.9" y2="47.7"/>
</g>
<g>
	<line fill="none" stroke="#040000" stroke-width="0.5" stroke-miterlimit="10" x1="161.8" y1="146" x2="158.9" y2="146"/>
	<line fill="none" stroke="#040000" stroke-width="0.5" stroke-miterlimit="10" x1="161.8" y1="75.3" x2="158.9" y2="75.3"/>
	<line fill="none" stroke="#040000" stroke-width="0.5" stroke-miterlimit="10" x1="158.8" y1="111.1" x2="155.9" y2="111.1"/>
	<line fill="none" stroke="#040000" stroke-width="0.5" stroke-miterlimit="10" x1="158.9" y1="146.2" x2="158.9" y2="75.1"/>
</g>
<g>
	<line fill="none" stroke="#040000" stroke-width="0.5" stroke-miterlimit="10" x1="56.8" y1="160.3" x2="53.9" y2="160.3"/>
	<line fill="none" stroke="#040000" stroke-width="0.5" stroke-miterlimit="10" x1="56.8" y1="13.1" x2="53.9" y2="13.1"/>
	<line fill="none" stroke="#040000" stroke-width="0.5" stroke-miterlimit="10" x1="53.8" y1="86.7" x2="50.9" y2="86.7"/>
	<line fill="none" stroke="#040000" stroke-width="0.5" stroke-miterlimit="10" x1="53.9" y1="160.5" x2="53.9" y2="12.9"/>
</g>
<g>
	<line fill="none" stroke="#040000" stroke-width="0.5" stroke-miterlimit="10" x1="127.5" y1="111.1" x2="124.6" y2="111.1"/>
	<line fill="none" stroke="#040000" stroke-width="0.5" stroke-miterlimit="10" x1="127.5" y1="55" x2="124.6" y2="55"/>
	<line fill="none" stroke="#040000" stroke-width="0.5" stroke-miterlimit="10" x1="124.5" y1="83.3" x2="121.6" y2="83.3"/>
	<line fill="none" stroke="#040000" stroke-width="0.5" stroke-miterlimit="10" x1="124.6" y1="111.3" x2="124.6" y2="54.8"/>
</g>
<g>
	<line fill="none" stroke="#040000" stroke-width="0.5" stroke-miterlimit="10" x1="92" y1="83.3" x2="89.1" y2="83.3"/>
	<line fill="none" stroke="#040000" stroke-width="0.5" stroke-miterlimit="10" x1="92" y1="34.4" x2="89.1" y2="34.4"/>
	<line fill="none" stroke="#040000" stroke-width="0.5" stroke-miterlimit="10" x1="89" y1="58.9" x2="86.1" y2="58.9"/>
	<line fill="none" stroke="#040000" stroke-width="0.5" stroke-miterlimit="10" x1="89.1" y1="83.5" x2="89.1" y2="34.1"/>
</g>
<line fill="none" stroke="#040000" stroke-width="0.5" stroke-miterlimit="10" x1="86.1" y1="13.1" x2="158.9" y2="13.1"/>
<line fill="none" stroke="#040000" stroke-width="0.5" stroke-miterlimit="10" x1="86.1" y1="160.5" x2="161.8" y2="160.5"/>
<line fill="none" stroke="#040000" stroke-width="0.5" stroke-miterlimit="10" x1="121.6" y1="34.4" x2="161.8" y2="34.4"/>
<text transform="matrix(1 0 0 1 94.9346 86.8791)" font-family="'FZKTK--GBK1-0'" font-size="12px">别德</text>
<text transform="matrix(1 0 0 1 59.7023 62.1016)" font-family="'FZKTK--GBK1-0'" font-size="12px">用德</text>
<text transform="matrix(1 0 0 1 59.7025 164.2894)" font-family="'FZKTK--GBK1-0'" font-size="12px">譬喻</text>
<text transform="matrix(1 0 0 1 3.051758e-005 90.2465)" font-family="'FZKTK--GBK1-0'" font-size="12px">十二光佛</text>
</svg>
