<?xml version="1.0" encoding="utf-8"?>
<!-- Generator: Adobe Illustrator 19.1.0, SVG Export Plug-In . SVG Version: 6.00 Build 0)  -->
<svg version="1.1" baseProfile="tiny" id="图层_1"
	 xmlns="http://www.w3.org/2000/svg" xmlns:xlink="http://www.w3.org/1999/xlink" x="0px" y="0px" viewBox="0 0 343 167"
	 xml:space="preserve">
<g>
	<text transform="matrix(1 0 0 1 258.9263 10.3123)" font-family="'FZKTK--GBK1-0'" font-size="12px">一</text>
	<text transform="matrix(1 0 0 1 258.9263 24.3123)" font-family="'FZKTK--GBK1-0'" font-size="12px">二</text>
	<text transform="matrix(1 0 0 1 258.9263 38.3123)" font-family="'FZKTK--GBK1-0'" font-size="12px">三</text>
	<text transform="matrix(1 0 0 1 258.9263 52.3123)" font-family="'FZKTK--GBK1-0'" font-size="12px">四</text>
	<text transform="matrix(1 0 0 1 258.9263 66.3123)" font-family="'FZKTK--GBK1-0'" font-size="12px">五</text>
	<text transform="matrix(1 0 0 1 258.9263 80.3123)" font-family="'FZKTK--GBK1-0'" font-size="12px">六</text>
	<text transform="matrix(1 0 0 1 258.9263 94.3123)" font-family="'FZKTK--GBK1-0'" font-size="12px">七</text>
	<text transform="matrix(1 0 0 1 258.9263 108.3123)" font-family="'FZKTK--GBK1-0'" font-size="12px">八</text>
	<text transform="matrix(1 0 0 1 258.9263 122.3123)" font-family="'FZKTK--GBK1-0'" font-size="12px">九</text>
	<text transform="matrix(1 0 0 1 258.9263 136.3123)" font-family="'FZKTK--GBK1-0'" font-size="12px">十</text>
	<text transform="matrix(1 0 0 1 258.9263 150.3123)" font-family="'FZKTK--GBK1-0'" font-size="12px">十一</text>
	<text transform="matrix(1 0 0 1 258.9263 164.3123)" font-family="'FZKTK--GBK1-0'" font-size="12px">十二</text>
	<text transform="matrix(1 0 0 1 283.0333 10.3123)" font-family="'FZKTK--GBK1-0'" font-size="12px">无量光佛</text>
	<text transform="matrix(1 0 0 1 283.0333 24.3123)" font-family="'FZKTK--GBK1-0'" font-size="12px">无边光佛</text>
	<text transform="matrix(1 0 0 1 283.0333 38.3123)" font-family="'FZKTK--GBK1-0'" font-size="12px">无碍光佛</text>
	<text transform="matrix(1 0 0 1 283.0333 52.3123)" font-family="'FZKTK--GBK1-0'" font-size="12px">无对光佛</text>
	<text transform="matrix(1 0 0 1 283.0333 66.3123)" font-family="'FZKTK--GBK1-0'" font-size="12px">炎王光佛</text>
	<text transform="matrix(1 0 0 1 283.0333 80.3123)" font-family="'FZKTK--GBK1-0'" font-size="12px">清净光佛</text>
	<text transform="matrix(1 0 0 1 283.0333 94.3123)" font-family="'FZKTK--GBK1-0'" font-size="12px">欢喜光佛</text>
	<text transform="matrix(1 0 0 1 283.0333 108.3123)" font-family="'FZKTK--GBK1-0'" font-size="12px">智慧光佛</text>
	<text transform="matrix(1 0 0 1 283.0333 122.3123)" font-family="'FZKTK--GBK1-0'" font-size="12px">不断光佛</text>
	<text transform="matrix(1 0 0 1 283.0333 136.3123)" font-family="'FZKTK--GBK1-0'" font-size="12px">难思光佛</text>
	<text transform="matrix(1 0 0 1 283.0333 150.3123)" font-family="'FZKTK--GBK1-0'" font-size="12px">无称光佛</text>
	<text transform="matrix(1 0 0 1 283.0333 164.3123)" font-family="'FZKTK--GBK1-0'" font-size="12px">超日月光佛</text>
</g>
<text transform="matrix(1 0 0 1 2.136230e-004 75.1832)" font-family="'FZKTK--GBK1-0'" font-size="12px">十二光佛</text>
<text transform="matrix(1 0 0 1 81.8328 116.9111)" font-family="'FZKTK--GBK1-0'" font-size="12px">约法</text>
<text transform="matrix(1 0 0 1 117.2503 90.5465)" font-family="'FZKTK--GBK1-0'" font-size="12px">表德</text>
<text transform="matrix(1 0 0 1 151.9336 58.9723)" font-family="'FZKTK--GBK1-0'" font-size="12px">横</text>
<text transform="matrix(1 0 0 1 174.5266 37.5993)" font-family="'FZKTK--GBK1-0'" font-size="12px">体德</text>
<text transform="matrix(1 0 0 1 174.5266 79.5993)" font-family="'FZKTK--GBK1-0'" font-size="12px">用德</text>
<text transform="matrix(1 0 0 1 209.0204 23.606)" font-family="'FZKTK--GBK1-0'" font-size="12px">广大德</text>
<text transform="matrix(1 0 0 1 209.0204 37.606)" font-family="'FZKTK--GBK1-0'" font-size="12px">自在德</text>
<text transform="matrix(1 0 0 1 209.0204 51.606)" font-family="'FZKTK--GBK1-0'" font-size="12px">无比德</text>
<text transform="matrix(1 0 0 1 209.0204 65.606)" font-family="'FZKTK--GBK1-0'" font-size="12px">惠三途</text>
<text transform="matrix(1 0 0 1 209.0204 93.606)" font-family="'FZKTK--GBK1-0'" font-size="12px">惠人天</text>
<line fill="none" stroke="#000000" stroke-width="0.5" stroke-miterlimit="10" x1="248.3" y1="19.9" x2="253.9" y2="19.9"/>
<line fill="none" stroke="#000000" stroke-width="0.5" stroke-miterlimit="10" x1="248.3" y1="33.9" x2="253.9" y2="33.9"/>
<line fill="none" stroke="#000000" stroke-width="0.5" stroke-miterlimit="10" x1="248.3" y1="48" x2="253.9" y2="48"/>
<line fill="none" stroke="#000000" stroke-width="0.5" stroke-miterlimit="10" x1="248.3" y1="61.9" x2="253.9" y2="61.9"/>
<g>
	<line fill="none" stroke="#040000" stroke-width="0.5" stroke-miterlimit="10" x1="206.7" y1="47.7" x2="203.8" y2="47.7"/>
	<line fill="none" stroke="#040000" stroke-width="0.5" stroke-miterlimit="10" x1="206.7" y1="19.8" x2="203.8" y2="19.8"/>
	<line fill="none" stroke="#040000" stroke-width="0.5" stroke-miterlimit="10" x1="203.8" y1="48" x2="203.8" y2="19.5"/>
	<line fill="none" stroke="#040000" stroke-width="0.5" stroke-miterlimit="10" x1="203.7" y1="33.7" x2="200.8" y2="33.7"/>
</g>
<g>
	<line fill="none" stroke="#040000" stroke-width="0.5" stroke-miterlimit="10" x1="206.7" y1="89.8" x2="203.8" y2="89.8"/>
	<line fill="none" stroke="#040000" stroke-width="0.5" stroke-miterlimit="10" x1="206.7" y1="61.9" x2="203.8" y2="61.9"/>
	<line fill="none" stroke="#040000" stroke-width="0.5" stroke-miterlimit="10" x1="203.8" y1="90.1" x2="203.8" y2="61.6"/>
	<line fill="none" stroke="#040000" stroke-width="0.5" stroke-miterlimit="10" x1="203.7" y1="75.8" x2="200.8" y2="75.8"/>
</g>
<g>
	<line fill="none" stroke="#040000" stroke-width="0.5" stroke-miterlimit="10" x1="254" y1="103.8" x2="251.1" y2="103.8"/>
	<line fill="none" stroke="#040000" stroke-width="0.5" stroke-miterlimit="10" x1="254" y1="75.8" x2="251.1" y2="75.8"/>
	<line fill="none" stroke="#040000" stroke-width="0.5" stroke-miterlimit="10" x1="251.1" y1="104" x2="251.1" y2="75.6"/>
	<line fill="none" stroke="#040000" stroke-width="0.5" stroke-miterlimit="10" x1="251.1" y1="89.8" x2="248.2" y2="89.8"/>
</g>
<g>
	<line fill="none" stroke="#040000" stroke-width="0.5" stroke-miterlimit="10" x1="172.1" y1="75.7" x2="169.2" y2="75.7"/>
	<line fill="none" stroke="#040000" stroke-width="0.5" stroke-miterlimit="10" x1="172" y1="33.8" x2="169.1" y2="33.8"/>
	<line fill="none" stroke="#040000" stroke-width="0.5" stroke-miterlimit="10" x1="169.1" y1="54.7" x2="166.2" y2="54.7"/>
	<line fill="none" stroke="#040000" stroke-width="0.5" stroke-miterlimit="10" x1="169.2" y1="75.9" x2="169.2" y2="33.6"/>
</g>
<text transform="matrix(1 0 0 1 151.9336 121.7393)" font-family="'FZKTK--GBK1-0'" font-size="12px">竖</text>
<line fill="none" stroke="#040000" stroke-width="0.5" stroke-miterlimit="10" x1="166.2" y1="117.9" x2="254" y2="117.9"/>
<line fill="none" stroke="#040000" stroke-width="0.5" stroke-miterlimit="10" x1="254" y1="146.2" x2="251.1" y2="146.2"/>
<line fill="none" stroke="#040000" stroke-width="0.5" stroke-miterlimit="10" x1="254" y1="132" x2="251.1" y2="132"/>
<line fill="none" stroke="#040000" stroke-width="0.5" stroke-miterlimit="10" x1="251" y1="139.1" x2="142.8" y2="139.1"/>
<line fill="none" stroke="#040000" stroke-width="0.5" stroke-miterlimit="10" x1="251.1" y1="146.4" x2="251.1" y2="131.8"/>
<g>
	<line fill="none" stroke="#040000" stroke-width="0.5" stroke-miterlimit="10" x1="149" y1="117.9" x2="146.1" y2="117.9"/>
	<line fill="none" stroke="#040000" stroke-width="0.5" stroke-miterlimit="10" x1="149" y1="54.8" x2="146.1" y2="54.8"/>
	<line fill="none" stroke="#040000" stroke-width="0.5" stroke-miterlimit="10" x1="146" y1="86.4" x2="143.1" y2="86.4"/>
	<line fill="none" stroke="#040000" stroke-width="0.5" stroke-miterlimit="10" x1="146.1" y1="118.2" x2="146.1" y2="54.5"/>
</g>
<text transform="matrix(1 0 0 1 117.2503 143.6108)" font-family="'FZKTK--GBK1-0'" font-size="12px">遮情</text>
<g>
	<line fill="none" stroke="#040000" stroke-width="0.5" stroke-miterlimit="10" x1="114.2" y1="139.1" x2="111.3" y2="139.1"/>
	<line fill="none" stroke="#040000" stroke-width="0.5" stroke-miterlimit="10" x1="114.2" y1="86.6" x2="111.3" y2="86.6"/>
	<line fill="none" stroke="#040000" stroke-width="0.5" stroke-miterlimit="10" x1="111.3" y1="112.8" x2="108.4" y2="112.8"/>
	<line fill="none" stroke="#040000" stroke-width="0.5" stroke-miterlimit="10" x1="111.3" y1="139.4" x2="111.3" y2="86.3"/>
</g>
<text transform="matrix(1 0 0 1 81.8328 162.806)" font-family="'FZKTK--GBK1-0'" font-size="12px">譬喻</text>
<line fill="none" stroke="#040000" stroke-width="0.5" stroke-miterlimit="10" x1="108.4" y1="159.6" x2="254" y2="159.6"/>
<line fill="none" stroke="#040000" stroke-width="0.5" stroke-miterlimit="10" x1="77.9" y1="159.6" x2="75" y2="159.6"/>
<line fill="none" stroke="#040000" stroke-width="0.5" stroke-miterlimit="10" x1="77.8" y1="112.7" x2="75" y2="112.7"/>
<line fill="none" stroke="#040000" stroke-width="0.5" stroke-miterlimit="10" x1="74.9" y1="136.3" x2="72" y2="136.3"/>
<line fill="none" stroke="#040000" stroke-width="0.5" stroke-miterlimit="10" x1="75" y1="159.9" x2="75" y2="112.5"/>
<text transform="matrix(1 0 0 1 58.5343 10.3125)" font-family="'FZKTK--GBK1-0'" font-size="12px">总</text>
<text transform="matrix(1 0 0 1 58.5343 140.2994)" font-family="'FZKTK--GBK1-0'" font-size="12px">别</text>
<line fill="none" stroke="#040000" stroke-width="0.5" stroke-miterlimit="10" x1="73.4" y1="5.9" x2="254" y2="5.9"/>
<line fill="none" stroke="#040000" stroke-width="0.5" stroke-miterlimit="10" x1="56.3" y1="136.1" x2="53.4" y2="136.1"/>
<line fill="none" stroke="#040000" stroke-width="0.5" stroke-miterlimit="10" x1="56.5" y1="5.9" x2="53.6" y2="5.9"/>
<line fill="none" stroke="#040000" stroke-width="0.5" stroke-miterlimit="10" x1="53.5" y1="71" x2="50.6" y2="71"/>
<line fill="none" stroke="#040000" stroke-width="0.5" stroke-miterlimit="10" x1="53.6" y1="136.4" x2="53.6" y2="5.6"/>
</svg>
