<?xml version="1.0" encoding="utf-8"?>
<!-- Generator: Adobe Illustrator 19.1.0, SVG Export Plug-In . SVG Version: 6.00 Build 0)  -->
<svg version="1.1" baseProfile="tiny" id="图层_1"
	 xmlns="http://www.w3.org/2000/svg" xmlns:xlink="http://www.w3.org/1999/xlink" x="0px" y="0px" viewBox="0 0 319.7 167"
	 xml:space="preserve">
<g>
	<text transform="matrix(1 0 0 1 235.6324 10.3124)" font-family="'FZKTK--GBK1-0'" font-size="12px">一</text>
	<text transform="matrix(1 0 0 1 235.6324 24.3124)" font-family="'FZKTK--GBK1-0'" font-size="12px">二</text>
	<text transform="matrix(1 0 0 1 235.6324 38.3124)" font-family="'FZKTK--GBK1-0'" font-size="12px">三</text>
	<text transform="matrix(1 0 0 1 235.6324 52.3124)" font-family="'FZKTK--GBK1-0'" font-size="12px">四</text>
	<text transform="matrix(1 0 0 1 235.6324 66.3124)" font-family="'FZKTK--GBK1-0'" font-size="12px">五</text>
	<text transform="matrix(1 0 0 1 235.6324 80.3124)" font-family="'FZKTK--GBK1-0'" font-size="12px">六</text>
	<text transform="matrix(1 0 0 1 235.6324 94.3124)" font-family="'FZKTK--GBK1-0'" font-size="12px">七</text>
	<text transform="matrix(1 0 0 1 235.6324 108.3124)" font-family="'FZKTK--GBK1-0'" font-size="12px">八</text>
	<text transform="matrix(1 0 0 1 235.6324 122.3124)" font-family="'FZKTK--GBK1-0'" font-size="12px">九</text>
	<text transform="matrix(1 0 0 1 235.6324 136.3123)" font-family="'FZKTK--GBK1-0'" font-size="12px">十</text>
	<text transform="matrix(1 0 0 1 235.6324 150.3123)" font-family="'FZKTK--GBK1-0'" font-size="12px">十一</text>
	<text transform="matrix(1 0 0 1 235.6324 164.3123)" font-family="'FZKTK--GBK1-0'" font-size="12px">十二</text>
	<text transform="matrix(1 0 0 1 259.7393 10.3123)" font-family="'FZKTK--GBK1-0'" font-size="12px">无量光佛</text>
	<text transform="matrix(1 0 0 1 259.7393 24.3123)" font-family="'FZKTK--GBK1-0'" font-size="12px">无边光佛</text>
	<text transform="matrix(1 0 0 1 259.7393 38.3123)" font-family="'FZKTK--GBK1-0'" font-size="12px">无碍光佛</text>
	<text transform="matrix(1 0 0 1 259.7393 52.3123)" font-family="'FZKTK--GBK1-0'" font-size="12px">无对光佛</text>
	<text transform="matrix(1 0 0 1 259.7393 66.3123)" font-family="'FZKTK--GBK1-0'" font-size="12px">炎王光佛</text>
	<text transform="matrix(1 0 0 1 259.7393 80.3123)" font-family="'FZKTK--GBK1-0'" font-size="12px">清净光佛</text>
	<text transform="matrix(1 0 0 1 259.7393 94.3123)" font-family="'FZKTK--GBK1-0'" font-size="12px">欢喜光佛</text>
	<text transform="matrix(1 0 0 1 259.7393 108.3123)" font-family="'FZKTK--GBK1-0'" font-size="12px">智慧光佛</text>
	<text transform="matrix(1 0 0 1 259.7393 122.3123)" font-family="'FZKTK--GBK1-0'" font-size="12px">不断光佛</text>
	<text transform="matrix(1 0 0 1 259.7393 136.3123)" font-family="'FZKTK--GBK1-0'" font-size="12px">难思光佛</text>
	<text transform="matrix(1 0 0 1 259.7393 150.3123)" font-family="'FZKTK--GBK1-0'" font-size="12px">无称光佛</text>
	<text transform="matrix(1 0 0 1 259.7393 164.3123)" font-family="'FZKTK--GBK1-0'" font-size="12px">超日月光佛</text>
</g>
<text transform="matrix(1 0 0 1 -1.068115e-004 140.4291)" font-family="'FZKTK--GBK1-0'" font-size="12px">十二光佛</text>
<text transform="matrix(1 0 0 1 58.306 116.7993)" font-family="'FZKTK--GBK1-0'" font-size="12px">法说</text>
<text transform="matrix(1 0 0 1 92.4058 91.0084)" font-family="'FZKTK--GBK1-0'" font-size="12px">表德</text>
<text transform="matrix(1 0 0 1 150.2187 27.6002)" font-family="'FZKTK--GBK1-0'" font-size="12px">体</text>
<text transform="matrix(1 0 0 1 171.1463 17.8325)" font-family="'FZKTK--GBK1-0'" font-size="12px">别</text>
<text transform="matrix(1 0 0 1 193.4464 10.3123)" font-family="'FZKTK--GBK1-0'" font-size="12px">时间</text>
<text transform="matrix(1 0 0 1 193.4464 24.3123)" font-family="'FZKTK--GBK1-0'" font-size="12px">空间</text>
<text transform="matrix(1 0 0 1 193.4464 52.3123)" font-family="'FZKTK--GBK1-0'" font-size="12px">相对</text>
<text transform="matrix(1 0 0 1 193.4464 66.3123)" font-family="'FZKTK--GBK1-0'" font-size="12px">绝对</text>
<text transform="matrix(1 0 0 1 193.4464 80.3123)" font-family="'FZKTK--GBK1-0'" font-size="12px">治贪</text>
<text transform="matrix(1 0 0 1 193.4464 94.3123)" font-family="'FZKTK--GBK1-0'" font-size="12px">治瞋</text>
<text transform="matrix(1 0 0 1 193.4464 108.3123)" font-family="'FZKTK--GBK1-0'" font-size="12px">治痴</text>
<line fill="none" stroke="#000000" stroke-width="0.5" stroke-miterlimit="10" x1="222.6" y1="5.9" x2="228.3" y2="5.9"/>
<line fill="none" stroke="#000000" stroke-width="0.5" stroke-miterlimit="10" x1="222.6" y1="19.9" x2="228.3" y2="19.9"/>
<line fill="none" stroke="#000000" stroke-width="0.5" stroke-miterlimit="10" x1="185" y1="33.9" x2="228.3" y2="33.9"/>
<line fill="none" stroke="#000000" stroke-width="0.5" stroke-miterlimit="10" x1="222.6" y1="48" x2="228.3" y2="48"/>
<line fill="none" stroke="#000000" stroke-width="0.5" stroke-miterlimit="10" x1="222.6" y1="62" x2="228.3" y2="62"/>
<line fill="none" stroke="#000000" stroke-width="0.5" stroke-miterlimit="10" x1="222.6" y1="76" x2="228.3" y2="76"/>
<line fill="none" stroke="#000000" stroke-width="0.5" stroke-miterlimit="10" x1="222.6" y1="89.8" x2="228.3" y2="89.8"/>
<line fill="none" stroke="#000000" stroke-width="0.5" stroke-miterlimit="10" x1="222.6" y1="103.8" x2="228.3" y2="103.8"/>
<line fill="none" stroke="#000000" stroke-width="0.5" stroke-miterlimit="10" x1="141.9" y1="117.9" x2="228.3" y2="117.9"/>
<line fill="none" stroke="#000000" stroke-width="0.5" stroke-miterlimit="10" x1="84.1" y1="159.6" x2="228.3" y2="159.6"/>
<line fill="none" stroke="#040000" stroke-width="0.5" stroke-miterlimit="10" x1="228.3" y1="146.2" x2="225.4" y2="146.2"/>
<line fill="none" stroke="#040000" stroke-width="0.5" stroke-miterlimit="10" x1="228.3" y1="132" x2="225.4" y2="132"/>
<line fill="none" stroke="#040000" stroke-width="0.5" stroke-miterlimit="10" x1="225.3" y1="139.1" x2="118.9" y2="139.1"/>
<line fill="none" stroke="#040000" stroke-width="0.5" stroke-miterlimit="10" x1="225.4" y1="146.4" x2="225.4" y2="131.8"/>
<g>
	<line fill="none" stroke="#040000" stroke-width="0.5" stroke-miterlimit="10" x1="190.9" y1="20.2" x2="188" y2="20.2"/>
	<line fill="none" stroke="#040000" stroke-width="0.5" stroke-miterlimit="10" x1="190.9" y1="6" x2="188" y2="6"/>
	<line fill="none" stroke="#040000" stroke-width="0.5" stroke-miterlimit="10" x1="187.9" y1="13.1" x2="185" y2="13.1"/>
	<line fill="none" stroke="#040000" stroke-width="0.5" stroke-miterlimit="10" x1="188" y1="20.4" x2="188" y2="5.7"/>
</g>
<g>
	<line fill="none" stroke="#040000" stroke-width="0.5" stroke-miterlimit="10" x1="169.6" y1="33.9" x2="166.7" y2="33.9"/>
	<line fill="none" stroke="#040000" stroke-width="0.5" stroke-miterlimit="10" x1="169.4" y1="13" x2="166.5" y2="13"/>
	<line fill="none" stroke="#040000" stroke-width="0.5" stroke-miterlimit="10" x1="166.6" y1="23.4" x2="163.7" y2="23.4"/>
	<line fill="none" stroke="#040000" stroke-width="0.5" stroke-miterlimit="10" x1="166.7" y1="34.1" x2="166.7" y2="12.7"/>
</g>
<line fill="none" stroke="#040000" stroke-width="0.5" stroke-miterlimit="10" x1="190.9" y1="61.9" x2="188" y2="61.9"/>
<line fill="none" stroke="#040000" stroke-width="0.5" stroke-miterlimit="10" x1="190.9" y1="47.8" x2="188" y2="47.8"/>
<line fill="none" stroke="#040000" stroke-width="0.5" stroke-miterlimit="10" x1="187.9" y1="54.8" x2="163.7" y2="54.8"/>
<line fill="none" stroke="#040000" stroke-width="0.5" stroke-miterlimit="10" x1="188" y1="62.2" x2="188" y2="47.5"/>
<line fill="none" stroke="#040000" stroke-width="0.5" stroke-miterlimit="10" x1="190.8" y1="103.8" x2="187.9" y2="103.8"/>
<line fill="none" stroke="#040000" stroke-width="0.5" stroke-miterlimit="10" x1="190.8" y1="75.8" x2="187.9" y2="75.8"/>
<line fill="none" stroke="#040000" stroke-width="0.5" stroke-miterlimit="10" x1="187.9" y1="104" x2="187.9" y2="75.6"/>
<line fill="none" stroke="#040000" stroke-width="0.5" stroke-miterlimit="10" x1="187.9" y1="89.8" x2="163.7" y2="89.8"/>
<text transform="matrix(1 0 0 1 171.1463 36.646)" font-family="'FZKTK--GBK1-0'" font-size="12px">总</text>
<text transform="matrix(1 0 0 1 150.2188 58.7052)" font-family="'FZKTK--GBK1-0'" font-size="12px">相</text>
<text transform="matrix(1 0 0 1 150.219 94.0587)" font-family="'FZKTK--GBK1-0'" font-size="12px">用</text>
<g>
	<line fill="none" stroke="#040000" stroke-width="0.5" stroke-miterlimit="10" x1="147.8" y1="89.8" x2="144.9" y2="89.8"/>
	<line fill="none" stroke="#040000" stroke-width="0.5" stroke-miterlimit="10" x1="147.8" y1="23.4" x2="144.9" y2="23.4"/>
	<line fill="none" stroke="#040000" stroke-width="0.5" stroke-miterlimit="10" x1="144.8" y1="56.6" x2="141.9" y2="56.6"/>
	<line fill="none" stroke="#040000" stroke-width="0.5" stroke-miterlimit="10" x1="144.9" y1="90.1" x2="144.9" y2="23.2"/>
</g>
<g>
	<line fill="none" stroke="#040000" stroke-width="0.5" stroke-miterlimit="10" x1="124.8" y1="117.9" x2="121.9" y2="117.9"/>
	<line fill="none" stroke="#040000" stroke-width="0.5" stroke-miterlimit="10" x1="124.8" y1="56.6" x2="121.9" y2="56.6"/>
	<line fill="none" stroke="#040000" stroke-width="0.5" stroke-miterlimit="10" x1="121.8" y1="87.2" x2="118.9" y2="87.2"/>
	<line fill="none" stroke="#040000" stroke-width="0.5" stroke-miterlimit="10" x1="121.9" y1="118.1" x2="121.9" y2="56.3"/>
</g>
<g>
	<line fill="none" stroke="#040000" stroke-width="0.5" stroke-miterlimit="10" x1="90" y1="139.1" x2="87.1" y2="139.1"/>
	<line fill="none" stroke="#040000" stroke-width="0.5" stroke-miterlimit="10" x1="90" y1="87.3" x2="87.1" y2="87.3"/>
	<line fill="none" stroke="#040000" stroke-width="0.5" stroke-miterlimit="10" x1="87" y1="113.2" x2="84.1" y2="113.2"/>
	<line fill="none" stroke="#040000" stroke-width="0.5" stroke-miterlimit="10" x1="87.1" y1="139.4" x2="87.1" y2="87.1"/>
</g>
<line fill="none" stroke="#040000" stroke-width="0.5" stroke-miterlimit="10" x1="55.6" y1="159.6" x2="52.7" y2="159.6"/>
<line fill="none" stroke="#040000" stroke-width="0.5" stroke-miterlimit="10" x1="55.5" y1="113.2" x2="52.6" y2="113.2"/>
<line fill="none" stroke="#040000" stroke-width="0.5" stroke-miterlimit="10" x1="52.6" y1="136.4" x2="49.7" y2="136.4"/>
<line fill="none" stroke="#040000" stroke-width="0.5" stroke-miterlimit="10" x1="52.7" y1="159.9" x2="52.7" y2="113"/>
<g>
	<text transform="matrix(1 0 0 1 127.6361 60.977)" font-family="'FZKTK--GBK1-0'" font-size="12px">横</text>
	<text transform="matrix(1 0 0 1 127.6361 121.1627)" font-family="'FZKTK--GBK1-0'" font-size="12px">竖</text>
</g>
<text transform="matrix(1 0 0 1 92.4063 142.4118)" font-family="'FZKTK--GBK1-0'" font-size="12px">遮情</text>
<text transform="matrix(1 0 0 1 58.306 163.2461)" font-family="'FZKTK--GBK1-0'" font-size="12px">譬说</text>
</svg>
