<?xml version="1.0" encoding="utf-8"?>
<!-- Generator: Adobe Illustrator 21.0.0, SVG Export Plug-In . SVG Version: 6.00 Build 0)  -->
<svg version="1.1" baseProfile="tiny" id="图层_1"
	 xmlns="http://www.w3.org/2000/svg" xmlns:xlink="http://www.w3.org/1999/xlink" x="0px" y="0px" viewBox="0 0 381 45.8"
	 overflow="scroll" xml:space="preserve">
<text transform="matrix(1 0 0 1 24.5 8.5938)" font-family="'KaiTi'" font-size="10px">有</text>
<text transform="matrix(1 0 0 1 34.5 8.5938)" font-family="'KaiTi'" font-size="10px">漏</text>
<text transform="matrix(1 0 0 1 44.5 8.5938)" font-family="'KaiTi'" font-size="10px">(</text>
<text transform="matrix(1 0 0 1 49.5 8.5938)" font-family="'KaiTi'" font-size="10px">有</text>
<text transform="matrix(1 0 0 1 59.5 8.5938)" font-family="'KaiTi'" font-size="10px">为</text>
<text transform="matrix(1 0 0 1 69.5 8.5938)" font-family="'KaiTi'" font-size="10px">)</text>
<text transform="matrix(1 0 0 1 74.5 8.5938)" font-family="'KaiTi'" font-size="10px"> </text>
<text transform="matrix(1 0 0 1 84.5 8.5938)" font-family="'KaiTi'" font-size="10px">不</text>
<text transform="matrix(1 0 0 1 94.5 8.5938)" font-family="'KaiTi'" font-size="10px">顺</text>
<text transform="matrix(1 0 0 1 104.5 8.5938)" font-family="'KaiTi'" font-size="10px">法</text>
<text transform="matrix(1 0 0 1 114.5 8.5938)" font-family="'KaiTi'" font-size="10px">性</text>
<text transform="matrix(1 0 0 1 124.5 8.5938)" font-family="'KaiTi'" font-size="10px">有</text>
<text transform="matrix(1 0 0 1 134.5 8.5938)" font-family="'KaiTi'" font-size="10px">造</text>
<text transform="matrix(1 0 0 1 144.5 8.5938)" font-family="'KaiTi'" font-size="10px">作</text>
<text transform="matrix(1 0 0 1 154.5 8.5938)" font-family="'KaiTi'" font-size="10px"> </text>
<text transform="matrix(1 0 0 1 164.5 8.5938)" font-family="'KaiTi'" font-size="10px">漏</text>
<text transform="matrix(1 0 0 1 174.5 8.5938)" font-family="'KaiTi'" font-size="10px">贪</text>
<text transform="matrix(1 0 0 1 184.5 8.5938)" font-family="'KaiTi'" font-size="10px">瞋</text>
<text transform="matrix(1 0 0 1 194.5 8.5938)" font-family="'KaiTi'" font-size="10px">痴</text>
<text transform="matrix(1 0 0 1 204.5 8.5938)" font-family="'KaiTi'" font-size="10px"> </text>
<text transform="matrix(1 0 0 1 214.5 8.5938)" font-family="'KaiTi'" font-size="10px">颠</text>
<text transform="matrix(1 0 0 1 224.5 8.5938)" font-family="'KaiTi'" font-size="10px">倒</text>
<text transform="matrix(1 0 0 1 234.5 8.5938)" font-family="'DFKaiShu-SB-Estd-BF'" font-size="10px">、</text>
<text transform="matrix(1 0 0 1 244.5 8.5938)" font-family="'KaiTi'" font-size="10px">虚</text>
<text transform="matrix(1 0 0 1 254.5 8.5938)" font-family="'KaiTi'" font-size="10px">伪</text>
<text transform="matrix(1 0 0 1 264.5 8.5938)" font-family="'KaiTi'" font-size="10px"> </text>
<text transform="matrix(1 0 0 1 274.5 8.5938)" font-family="'KaiTi'" font-size="10px">不</text>
<text transform="matrix(1 0 0 1 284.5 8.5938)" font-family="'KaiTi'" font-size="10px">实</text>
<text transform="matrix(1 0 0 1 294.5 8.5938)" font-family="'KaiTi'" font-size="10px">功</text>
<text transform="matrix(1 0 0 1 304.5 8.5938)" font-family="'KaiTi'" font-size="10px">德</text>
<text transform="matrix(1 0 0 1 24.5 36.5938)" font-family="'KaiTi'" font-size="10px">无</text>
<text transform="matrix(1 0 0 1 34.5 36.5938)" font-family="'KaiTi'" font-size="10px">漏</text>
<text transform="matrix(1 0 0 1 44.5 36.5938)" font-family="'KaiTi'" font-size="10px">(</text>
<text transform="matrix(1 0 0 1 49.5 36.5938)" font-family="'KaiTi'" font-size="10px">无</text>
<text transform="matrix(1 0 0 1 59.5 36.5938)" font-family="'KaiTi'" font-size="10px">为</text>
<text transform="matrix(1 0 0 1 69.5 36.5938)" font-family="'KaiTi'" font-size="10px">)</text>
<text transform="matrix(1 0 0 1 74.5 36.5938)" font-family="'KaiTi'" font-size="10px"> </text>
<text transform="matrix(1 0 0 1 84.5 36.5938)" font-family="'KaiTi'" font-size="10px">随</text>
<text transform="matrix(1 0 0 1 94.5 36.5938)" font-family="'KaiTi'" font-size="10px">顺</text>
<text transform="matrix(1 0 0 1 104.5 36.5938)" font-family="'KaiTi'" font-size="10px">法</text>
<text transform="matrix(1 0 0 1 114.5 36.5938)" font-family="'KaiTi'" font-size="10px">性</text>
<text transform="matrix(1 0 0 1 124.5 36.5938)" font-family="'KaiTi'" font-size="10px">无</text>
<text transform="matrix(1 0 0 1 134.5 36.5938)" font-family="'KaiTi'" font-size="10px">造</text>
<text transform="matrix(1 0 0 1 144.5 36.5938)" font-family="'KaiTi'" font-size="10px">作</text>
<text transform="matrix(1 0 0 1 154.5 36.5938)" font-family="'KaiTi'" font-size="10px"> </text>
<text transform="matrix(1 0 0 1 164.5 36.5938)" font-family="'KaiTi'" font-size="10px">弥</text>
<text transform="matrix(1 0 0 1 174.5 36.5938)" font-family="'KaiTi'" font-size="10px">陀</text>
<text transform="matrix(1 0 0 1 184.5 36.5938)" font-family="'KaiTi'" font-size="10px">名</text>
<text transform="matrix(1 0 0 1 194.5 36.5938)" font-family="'KaiTi'" font-size="10px">号</text>
<text transform="matrix(1 0 0 1 217.6667 30)" font-family="'KaiTi'" font-size="10px">法</text>
<text transform="matrix(1 0 0 1 227.6667 30)" font-family="'KaiTi'" font-size="10px"> </text>
<text transform="matrix(1 0 0 1 237.6671 30)" font-family="'KaiTi'" font-size="10px">度</text>
<text transform="matrix(1 0 0 1 247.6671 30)" font-family="'KaiTi'" font-size="10px">生</text>
<text transform="matrix(1 0 0 1 257.6671 30)" font-family="'KaiTi'" font-size="10px">法</text>
<text transform="matrix(1 0 0 1 267.6671 30)" font-family="'KaiTi'" font-size="10px">体</text>
<text transform="matrix(1 0 0 1 277.6671 30)" font-family="'KaiTi'" font-size="10px"> </text>
<text transform="matrix(1 0 0 1 287.6671 30)" font-family="'KaiTi'" font-size="10px">名</text>
<text transform="matrix(1 0 0 1 297.6671 30)" font-family="'KaiTi'" font-size="10px">号</text>
<text transform="matrix(1 0 0 1 307.6671 30)" font-family="'KaiTi'" font-size="10px">独</text>
<text transform="matrix(1 0 0 1 317.6671 30)" font-family="'KaiTi'" font-size="10px">运</text>
<text transform="matrix(1 0 0 1 217.6667 44)" font-family="'KaiTi'" font-size="10px">机</text>
<text transform="matrix(1 0 0 1 227.6667 44)" font-family="'KaiTi'" font-size="10px"> </text>
<text transform="matrix(1 0 0 1 237.6671 44)" font-family="'KaiTi'" font-size="10px">往</text>
<text transform="matrix(1 0 0 1 247.6671 44)" font-family="'KaiTi'" font-size="10px">生</text>
<text transform="matrix(1 0 0 1 257.6671 44)" font-family="'KaiTi'" font-size="10px">法</text>
<text transform="matrix(1 0 0 1 267.6671 44)" font-family="'KaiTi'" font-size="10px">体</text>
<text transform="matrix(1 0 0 1 277.6671 44)" font-family="'KaiTi'" font-size="10px"> </text>
<text transform="matrix(1 0 0 1 287.6671 44)" font-family="'KaiTi'" font-size="10px">称</text>
<text transform="matrix(1 0 0 1 297.6671 44)" font-family="'KaiTi'" font-size="10px">名</text>
<text transform="matrix(1 0 0 1 307.6671 44)" font-family="'KaiTi'" font-size="10px">读</text>
<text transform="matrix(1 0 0 1 317.6671 44)" font-family="'KaiTi'" font-size="10px">达</text>
<g>
	<line fill="none" stroke="#000000" stroke-width="0.5" stroke-miterlimit="10" x1="17.3" y1="4.6" x2="17.3" y2="33.4"/>
	<line fill="none" stroke="#000000" stroke-width="0.5" stroke-miterlimit="10" x1="17.3" y1="4.6" x2="21" y2="4.6"/>
	<line fill="none" stroke="#000000" stroke-width="0.5" stroke-miterlimit="10" x1="17.3" y1="33.4" x2="21" y2="33.4"/>
	<line fill="none" stroke="#000000" stroke-width="0.5" stroke-miterlimit="10" x1="17.4" y1="19" x2="13.6" y2="19"/>
</g>
<line fill="none" stroke="#000000" stroke-width="0.5" stroke-miterlimit="10" x1="76.4" y1="4.6" x2="81.9" y2="4.6"/>
<line fill="none" stroke="#000000" stroke-width="0.5" stroke-miterlimit="10" x1="76.4" y1="33.4" x2="81.9" y2="33.4"/>
<line fill="none" stroke="#000000" stroke-width="0.5" stroke-miterlimit="10" x1="156.4" y1="4.6" x2="161.9" y2="4.6"/>
<line fill="none" stroke="#000000" stroke-width="0.5" stroke-miterlimit="10" x1="156.4" y1="33.4" x2="161.9" y2="33.4"/>
<line fill="none" stroke="#000000" stroke-width="0.5" stroke-miterlimit="10" x1="206.9" y1="4.6" x2="212.4" y2="4.6"/>
<g>
	<line fill="none" stroke="#000000" stroke-width="0.5" stroke-miterlimit="10" x1="210.7" y1="26.3" x2="210.7" y2="40.6"/>
	<line fill="none" stroke="#000000" stroke-width="0.5" stroke-miterlimit="10" x1="210.7" y1="26.3" x2="214.4" y2="26.3"/>
	<line fill="none" stroke="#000000" stroke-width="0.5" stroke-miterlimit="10" x1="210.7" y1="40.6" x2="214.4" y2="40.6"/>
	<line fill="none" stroke="#000000" stroke-width="0.5" stroke-miterlimit="10" x1="210.7" y1="33.4" x2="206.9" y2="33.4"/>
</g>
<line fill="none" stroke="#000000" stroke-width="0.5" stroke-miterlimit="10" x1="230.2" y1="26.3" x2="235.7" y2="26.3"/>
<line fill="none" stroke="#000000" stroke-width="0.5" stroke-miterlimit="10" x1="230.2" y1="40.6" x2="235.7" y2="40.6"/>
<line fill="none" stroke="#000000" stroke-width="0.5" stroke-miterlimit="10" x1="280.6" y1="26.3" x2="286.1" y2="26.3"/>
<line fill="none" stroke="#000000" stroke-width="0.5" stroke-miterlimit="10" x1="280.6" y1="40.6" x2="286.1" y2="40.6"/>
<line fill="none" stroke="#000000" stroke-width="0.5" stroke-miterlimit="10" x1="267.1" y1="4.6" x2="272.6" y2="4.6"/>
<g>
	<line fill="none" stroke="#000000" stroke-width="0.5" stroke-miterlimit="10" x1="334.6" y1="40.6" x2="334.6" y2="26.3"/>
	<line fill="none" stroke="#000000" stroke-width="0.5" stroke-miterlimit="10" x1="334.6" y1="40.6" x2="330.9" y2="40.6"/>
	<line fill="none" stroke="#000000" stroke-width="0.5" stroke-miterlimit="10" x1="334.6" y1="26.3" x2="330.9" y2="26.3"/>
	<line fill="none" stroke="#000000" stroke-width="0.5" stroke-miterlimit="10" x1="334.6" y1="33.4" x2="338.4" y2="33.4"/>
</g>
<text transform="matrix(1 0 0 1 340.9998 30.001)" font-family="'KaiTi'" font-size="10px">不断烦恼</text>
<text transform="matrix(1 0 0 1 340.9998 44.001)" font-family="'KaiTi'" font-size="10px">得涅盘分</text>
<text transform="matrix(1 0 0 1 0 23.0005)" font-family="'KaiTi'" font-size="10px">善</text>
</svg>
