<?xml version="1.0" encoding="utf-8"?>
<!-- Generator: Adobe Illustrator 21.0.0, SVG Export Plug-In . SVG Version: 6.00 Build 0)  -->
<svg version="1.1" id="圖層_1" xmlns="http://www.w3.org/2000/svg" xmlns:xlink="http://www.w3.org/1999/xlink" x="0px" y="0px"
	 viewBox="0 0 329.5 38.6" style="enable-background:new 0 0 329.5 38.6;" xml:space="preserve">
<style type="text/css">
	.st0{enable-background:new    ;}
	.st1{font-family:'KaiTi';}
	.st2{font-size:10px;}
	.st3{font-family:'DFKaiShu-SB-Estd-BF';}
	.st4{fill:none;stroke:#000000;stroke-width:0.25;stroke-miterlimit:10;}
	.st5{letter-spacing:5;}
	.st6{fill:none;stroke:#000000;stroke-width:0.5;stroke-miterlimit:10;}
</style>
<g>
	<text transform="matrix(1 0 0 1 59.5417 8.5936)" class="st0"><tspan x="0" y="0" class="st1 st2">慧遠(淨影 523-592)</tspan><tspan x="90" y="0" class="st3 st2">：</tspan><tspan x="100" y="0" class="st1 st2">《觀經義疏》二卷</tspan><tspan x="180" y="0" class="st3 st2">、</tspan><tspan x="190" y="0" class="st1 st2">《大經義疏》二卷</tspan></text>
	<text transform="matrix(1 0 0 1 59.5417 22.5936)" class="st0"><tspan x="0" y="0" class="st1 st2">智者(天臺 538-597)</tspan><tspan x="90" y="0" class="st3 st2">：</tspan><tspan x="100" y="0" class="st1 st2">《觀經疏》二卷</tspan><tspan x="170" y="0" class="st3 st2">、</tspan><tspan x="180" y="0" class="st1 st2">《彌陀經義記》一卷</tspan></text>
	<text transform="matrix(1 0 0 1 59.5417 36.5936)" class="st0"><tspan x="0" y="0" class="st1 st2">吉藏(嘉祥 549-623)</tspan><tspan x="90" y="0" class="st3 st2">：</tspan><tspan x="100" y="0" class="st1 st2">《觀經義疏》二卷</tspan><tspan x="180" y="0" class="st3 st2">、</tspan><tspan x="190" y="0" class="st1 st2">《大經義疏》一卷</tspan></text>
	<path class="st4" d="M80.4,20.9"/>
	<path class="st4" d="M87.3,33.7"/>
	<path class="st4" d="M74,34"/>
</g>
<text transform="matrix(1 0 0 1 1.525879e-05 15.3435)" class="st1 st2"> </text>
<text transform="matrix(1 0 0 1 5 15.3435)" class="st1 st2"> </text>
<text transform="matrix(1 0 0 1 10 15.3435)" class="st1 st2">善</text>
<text transform="matrix(1 0 0 1 20 15.3435)" class="st1 st2 st5"> </text>
<text transform="matrix(1 0 0 1 30 15.3435)" class="st1 st2">導</text>
<text transform="matrix(1 0 0 1 1.525879e-05 29.3435)" class="st1 st2">(</text>
<text transform="matrix(1 0 0 1 5 29.3435)" class="st1 st2">6</text>
<text transform="matrix(1 0 0 1 10 29.3435)" class="st1 st2">1</text>
<text transform="matrix(1 0 0 1 15 29.3435)" class="st1 st2">3</text>
<text transform="matrix(1 0 0 1 20 29.3435)" class="st1 st2">–</text>
<text transform="matrix(1 0 0 1 30 29.3435)" class="st1 st2">6</text>
<text transform="matrix(1 0 0 1 35 29.3435)" class="st1 st2">8</text>
<text transform="matrix(1 0 0 1 40 29.3435)" class="st1 st2">1</text>
<text transform="matrix(1 0 0 1 45 29.3435)" class="st1 st2">)</text>
<g>
	<line class="st6" x1="50.4" y1="18.3" x2="56.1" y2="18.3"/>
	<line class="st6" x1="53.2" y1="4.8" x2="56.1" y2="4.8"/>
	<line class="st6" x1="53.2" y1="32.2" x2="56.1" y2="32.2"/>
	<line class="st6" x1="53.3" y1="4.5" x2="53.3" y2="32.5"/>
</g>
</svg>
