<?xml version="1.0" encoding="utf-8"?>
<!-- Generator: Adobe Illustrator 21.0.0, SVG Export Plug-In . SVG Version: 6.00 Build 0)  -->
<svg version="1.1" id="圖層_1" xmlns="http://www.w3.org/2000/svg" xmlns:xlink="http://www.w3.org/1999/xlink" x="0px" y="0px"
	 viewBox="0 0 500 100" style="enable-background:new 0 0 500 100;" xml:space="preserve">
<style type="text/css">
	.st0{stroke:#000000;stroke-width:0.25;stroke-miterlimit:10;}
	.st1{font-family:'DFKaiShu-SB-Estd-BF';}
	.st2{font-size:14px;}
	.st3{fill:none;stroke:#000000;stroke-width:0.5;stroke-miterlimit:10;}
	.st4{fill:none;stroke:#000000;stroke-width:0.25;stroke-miterlimit:10;}
</style>
<g>
	<text transform="matrix(1 0 0 1 320 240)" style="font-family:'AdobeMingStd-Light-B5pc-H'; font-size:12px;">ShanDao-Juan.svg</text>
	<text transform="matrix(1 0 0 1 12.0326 73.5696)" class="st0 st1 st2">(613-681)</text>
	<line class="st3" x1="72.8" y1="52.3" x2="93.9" y2="52.3"/>
	<line class="st3" x1="78.4" y1="52.3" x2="78.4" y2="23.8"/>
	<line class="st3" x1="78.4" y1="79.8" x2="78.4" y2="51.3"/>
	<line class="st3" x1="78.4" y1="23.8" x2="92.5" y2="23.8"/>
	<line class="st3" x1="78.4" y1="79.8" x2="92.5" y2="79.8"/>
	<text transform="matrix(1 0 0 1 93.8659 27.6029)" class="st0 st1 st2">慧遠(淨影 523-592)：《觀經義疏》二卷、《大經義疏》二卷</text>
	<text transform="matrix(1 0 0 1 93.8659 83.0856)" class="st0 st1 st2">吉藏(嘉祥 549-623)：《觀經義疏》二卷、《大經義疏》一卷</text>
	<path class="st4" d="M114.7,64.7"/>
	<path class="st4" d="M114.7,39.9"/>
	<path class="st4" d="M121.6,52.7"/>
	<path class="st4" d="M114.7,64.5"/>
	<path class="st4" d="M108.3,53"/>
	<path class="st4" d="M114.6,64"/>
	<text transform="matrix(1 0 0 1 93.866 56.7692)" class="st0 st1 st2">智者(天臺 538-597)：《觀經疏》二卷、《彌陀經義記》一卷</text>
	<text transform="matrix(1 0 0 1 320 240)" style="font-family:'AdobeMingStd-Light-B5pc-H'; font-size:12px;">ShanDao-Juan.svg</text>
	<text transform="matrix(1 0 0 1 21.5325 56.7695)" class="st0 st1 st2">善</text>
	<text transform="matrix(1 0 0 1 46.7827 56.7691)" class="st0 st1 st2">導</text>
</g>
</svg>
