<?xml version="1.0" encoding="utf-8"?>
<!-- Generator: Adobe Illustrator 21.0.0, SVG Export Plug-In . SVG Version: 6.00 Build 0)  -->
<svg version="1.1" id="圖層_1" xmlns="http://www.w3.org/2000/svg" xmlns:xlink="http://www.w3.org/1999/xlink" x="0px" y="0px"
	 viewBox="0 0 253.8 94.4" style="enable-background:new 0 0 253.8 94.4;" xml:space="preserve">
<style type="text/css">
	.st0{font-family:'KaiTi';}
	.st1{font-size:10px;}
	.st2{letter-spacing:5;}
	.st3{fill:none;stroke:#000000;stroke-width:0.5;stroke-miterlimit:10;}
	.st4{font-family:'DFKaiShu-SB-Estd-BF';}
</style>
<text transform="matrix(1 0 0 1 41.6665 8.5938)"><tspan x="0" y="0" class="st0 st1">不增</tspan><tspan x="20" y="0" class="st0 st1 st2"> </tspan><tspan x="30" y="0" class="st0 st1">不增加眾生往生條件</tspan><tspan x="0" y="14" class="st0 st1">不減</tspan><tspan x="20" y="14" class="st0 st1 st2"> </tspan><tspan x="30" y="14" class="st0 st1">不減損彌陀救度功能</tspan><tspan x="0" y="28" class="st0 st1">不偏</tspan><tspan x="20" y="28" class="st0 st1 st2"> </tspan><tspan x="30" y="28" class="st0 st1">不偏離淨土三經</tspan><tspan x="0" y="42" class="st0 st1 st2">   </tspan><tspan x="30" y="42" class="st0 st1">不偏離彌陀本願</tspan><tspan x="0" y="56" class="st0 st1 st2">   </tspan><tspan x="30" y="56" class="st0 st1">不偏離釋尊本懷</tspan><tspan x="0" y="70" class="st0 st1 st2">   </tspan><tspan x="30" y="70" class="st0 st1">不偏離凡夫根機</tspan><tspan x="0" y="84" class="st0 st1">不雜</tspan><tspan x="20" y="84" class="st0 st1 st2"> </tspan><tspan x="30" y="84" class="st0 st1">不夾雜聖道自力修行</tspan></text>
<g>
	<line class="st3" x1="36.2" y1="4.7" x2="36.2" y2="89.6"/>
	<line class="st3" x1="36" y1="4.7" x2="38.9" y2="4.7"/>
	<line class="st3" x1="36" y1="89.8" x2="38.9" y2="89.8"/>
	<line class="st3" x1="33.2" y1="47.1" x2="36.1" y2="47.1"/>
</g>
<g>
	<line class="st3" x1="167.9" y1="89.7" x2="167.9" y2="4.8"/>
	<line class="st3" x1="168.1" y1="89.7" x2="165.2" y2="89.7"/>
	<line class="st3" x1="168.1" y1="4.6" x2="165.2" y2="4.6"/>
	<line class="st3" x1="170.8" y1="47.3" x2="167.9" y2="47.3"/>
</g>
<text transform="matrix(1 0 0 1 -1.640320e-04 50.5938)" class="st0 st1">善導釋</text>
<text transform="matrix(1 0 0 1 173.8333 43.5938)"><tspan x="0" y="0" class="st0 st1">純淨土</tspan><tspan x="30" y="0" class="st4 st1">，</tspan><tspan x="40" y="0" class="st0 st1">以淨土</tspan><tspan x="0" y="14" class="st0 st1">立宗</tspan><tspan x="20" y="14" class="st4 st1">，</tspan><tspan x="30" y="14" class="st0 st1">是淨土宗</tspan><tspan x="70" y="14" class="st4 st1">。</tspan></text>
</svg>
