<?xml version="1.0" encoding="utf-8"?>
<!-- Generator: Adobe Illustrator 21.0.0, SVG Export Plug-In . SVG Version: 6.00 Build 0)  -->
<svg version="1.1" id="圖層_1" xmlns="http://www.w3.org/2000/svg" xmlns:xlink="http://www.w3.org/1999/xlink" x="0px" y="0px"
	 viewBox="0 0 342.8 80.4" style="enable-background:new 0 0 342.8 80.4;" xml:space="preserve">
<style type="text/css">
	.st0{font-family:'KaiTi';}
	.st1{font-size:10px;}
	.st2{fill:none;stroke:#000000;stroke-width:0.5;stroke-miterlimit:10;}
	.st3{letter-spacing:10;}
</style>
<text transform="matrix(1 0 0 1 138.866 8.5938)" class="st0 st1">第十二光明無量願</text>
<text transform="matrix(1 0 0 1 138.866 22.5938)" class="st0 st1">第十三壽命無量願</text>
<text transform="matrix(1 0 0 1 138.866 36.5938)" class="st0 st1">第十七諸佛稱揚願</text>
<text transform="matrix(1 0 0 1 138.866 50.5938)" class="st0 st1">第三十一國土清淨願</text>
<text transform="matrix(1 0 0 1 138.866 64.5938)" class="st0 st1">第三十二國土嚴飾願</text>
<g>
	<line class="st2" x1="129.8" y1="19.1" x2="132.7" y2="19.1"/>
	<line class="st2" x1="132.5" y1="5.5" x2="135.4" y2="5.5"/>
	<line class="st2" x1="132.6" y1="33" x2="135.4" y2="33"/>
	<line class="st2" x1="132.7" y1="5.2" x2="132.7" y2="33.2"/>
</g>
<g>
	<line class="st2" x1="129.8" y1="53.1" x2="132.7" y2="53.1"/>
	<line class="st2" x1="132.5" y1="46.2" x2="135.4" y2="46.2"/>
	<line class="st2" x1="132.6" y1="60.3" x2="135.4" y2="60.3"/>
	<line class="st2" x1="132.7" y1="45.9" x2="132.7" y2="60.6"/>
</g>
<text transform="matrix(1 0 0 1 58.5002 8.5938)" class="st0 st1 st3"> </text>
<text transform="matrix(1 0 0 1 43.5002 22.5938)" class="st0 st1">攝</text>
<text transform="matrix(1 0 0 1 53.5002 22.5938)" class="st0 st1">法</text>
<text transform="matrix(1 0 0 1 63.5002 22.5938)" class="st0 st1">身</text>
<text transform="matrix(1 0 0 1 73.5002 22.5938)" class="st0 st1">願</text>
<text transform="matrix(1 0 0 1 83.5002 22.5938)" class="st0 st1 st3"> </text>
<text transform="matrix(1 0 0 1 93.5002 22.5938)" class="st0 st1 st3"> </text>
<text transform="matrix(1 0 0 1 106.5002 22.5938)" class="st0 st1">三</text>
<text transform="matrix(1 0 0 1 43.5002 57.5938)" class="st0 st1">攝</text>
<text transform="matrix(1 0 0 1 53.5002 57.5938)" class="st0 st1">淨</text>
<text transform="matrix(1 0 0 1 63.5002 57.5938)" class="st0 st1">土</text>
<text transform="matrix(1 0 0 1 73.5002 57.5938)" class="st0 st1">願</text>
<text transform="matrix(1 0 0 1 83.5002 57.5938)" class="st0 st1 st3"> </text>
<text transform="matrix(1 0 0 1 93.5002 57.5938)" class="st0 st1 st3"> </text>
<text transform="matrix(1 0 0 1 106.5002 57.5938)" class="st0 st1">二</text>
<text transform="matrix(1 0 0 1 43.5002 78.5942)" class="st0 st1">攝</text>
<text transform="matrix(1 0 0 1 53.5002 78.5942)" class="st0 st1">眾</text>
<text transform="matrix(1 0 0 1 63.5002 78.5942)" class="st0 st1">生</text>
<text transform="matrix(1 0 0 1 73.5002 78.5942)" class="st0 st1">願</text>
<text transform="matrix(1 0 0 1 83.5002 78.5942)" class="st0 st1 st3"> </text>
<text transform="matrix(1 0 0 1 96.5002 78.5942)" class="st0 st1">四</text>
<text transform="matrix(1 0 0 1 106.5002 78.5942)" class="st0 st1">十</text>
<text transform="matrix(1 0 0 1 116.5002 78.5942)" class="st0 st1">三</text>
<text transform="matrix(1 0 0 1 128.5002 78.5942)" class="st0 st1"> </text>
<text transform="matrix(1 0 0 1 133.5002 78.5942)" class="st0 st1"> </text>
<text transform="matrix(1 0 0 1 138.5002 78.5942)" class="st0 st1">其</text>
<text transform="matrix(1 0 0 1 148.5002 78.5942)" class="st0 st1">他</text>
<text transform="matrix(1 0 0 1 158.5002 78.5942)" class="st0 st1">之</text>
<text transform="matrix(1 0 0 1 168.4997 78.5942)" class="st0 st1">四</text>
<text transform="matrix(1 0 0 1 178.4997 78.5942)" class="st0 st1">十</text>
<text transform="matrix(1 0 0 1 188.4997 78.5942)" class="st0 st1">三</text>
<text transform="matrix(1 0 0 1 198.4997 78.5942)" class="st0 st1">願</text>
<line class="st2" x1="34.4" y1="46.2" x2="37.3" y2="46.2"/>
<line class="st2" x1="36.9" y1="19.5" x2="39.8" y2="19.5"/>
<line class="st2" x1="37" y1="74.5" x2="39.9" y2="74.5"/>
<line class="st2" x1="37" y1="19.2" x2="37" y2="74.5"/>
<text transform="matrix(1 0 0 1 0 27.625)" class="st0 st1">四</text>
<text transform="matrix(1 0 0 1 0 41.625)" class="st0 st1">十</text>
<text transform="matrix(1 0 0 1 1 50.625)" class="st0 st1"> </text>
<text transform="matrix(1 0 0 1 6 50.625)" class="st0 st1"> </text>
<text transform="matrix(1 0 0 1 11 50.625)" class="st0 st1 st3"> </text>
<text transform="matrix(1 0 0 1 21 50.625)" class="st0 st1">三</text>
<text transform="matrix(1 0 0 1 0 55.625)" class="st0 st1">八</text>
<text transform="matrix(1 0 0 1 0 69.625)" class="st0 st1">願</text>
<line class="st2" x1="130.3" y1="74.5" x2="135.9" y2="74.5"/>
<line class="st2" x1="12.1" y1="46.2" x2="17.8" y2="46.2"/>
<line class="st2" x1="87.4" y1="53.1" x2="93.1" y2="53.1"/>
<line class="st2" x1="87.4" y1="19.1" x2="93.1" y2="19.1"/>
<line class="st2" x1="87.4" y1="73.9" x2="93.1" y2="73.9"/>
<line class="st2" x1="236.9" y1="40.4" x2="239.8" y2="40.4"/>
<line class="st2" x1="234" y1="5.5" x2="236.9" y2="5.5"/>
<line class="st2" x1="234.1" y1="74.5" x2="237" y2="74.5"/>
<line class="st2" x1="236.8" y1="5.2" x2="236.9" y2="74.5"/>
<text transform="matrix(1 0 0 1 242.8333 37.8333)" class="st0 st1">一</text>
<text transform="matrix(1 0 0 1 252.8333 37.8333)" class="st0 st1">一</text>
<text transform="matrix(1 0 0 1 262.8333 37.8333)" class="st0 st1">誓</text>
<text transform="matrix(1 0 0 1 272.8333 37.8333)" class="st0 st1">願</text>
<text transform="matrix(1 0 0 1 282.8333 37.8333)" class="st0 st1">為</text>
<text transform="matrix(1 0 0 1 292.8333 37.8333)" class="st0 st1">眾</text>
<text transform="matrix(1 0 0 1 302.8333 37.8333)" class="st0 st1">生</text>
<text transform="matrix(1 0 0 1 242.8333 51.8333)" class="st0 st1">(</text>
<text transform="matrix(1 0 0 1 247.8333 51.8333)" class="st0 st1">願</text>
<text transform="matrix(1 0 0 1 257.8333 51.8333)" class="st0 st1">願</text>
<text transform="matrix(1 0 0 1 267.8333 51.8333)" class="st0 st1">三</text>
<text transform="matrix(1 0 0 1 277.8333 51.8333)" class="st0 st1">攝</text>
<text transform="matrix(1 0 0 1 287.8333 51.8333)" class="st0 st1">—</text>
<text transform="matrix(1 0 0 1 297.8333 51.8333)" class="st0 st1">影</text>
<text transform="matrix(1 0 0 1 307.8333 51.8333)" class="st0 st1">略</text>
<text transform="matrix(1 0 0 1 317.8333 51.8333)" class="st0 st1">互</text>
<text transform="matrix(1 0 0 1 327.8333 51.8333)" class="st0 st1">顯</text>
<text transform="matrix(1 0 0 1 337.8333 51.8333)" class="st0 st1">)</text>
</svg>
