<?xml version="1.0" encoding="utf-8"?>
<!-- Generator: Adobe Illustrator 21.0.0, SVG Export Plug-In . SVG Version: 6.00 Build 0)  -->
<svg version="1.1" id="圖層_1" xmlns="http://www.w3.org/2000/svg" xmlns:xlink="http://www.w3.org/1999/xlink" x="0px" y="0px"
	 viewBox="0 0 229 37.8" style="enable-background:new 0 0 229 37.8;" xml:space="preserve">
<style type="text/css">
	.st0{enable-background:new    ;}
	.st1{font-family:'KaiTi';}
	.st2{font-size:10px;}
	.st3{fill:none;stroke:#000000;stroke-width:0.5;stroke-miterlimit:10;}
</style>
<text transform="matrix(1 0 0 1 53.0002 8.5937)" class="st0"><tspan x="0" y="0" class="st1 st2">第十八願</tspan><tspan x="0" y="14" class="st1 st2">餘四十七願</tspan></text>
<g>
	<line class="st3" x1="46.3" y1="5.4" x2="46.3" y2="20"/>
	<line class="st3" x1="46.3" y1="5.4" x2="50.1" y2="5.4"/>
	<line class="st3" x1="46.3" y1="20.2" x2="50.1" y2="20.2"/>
	<line class="st3" x1="46.3" y1="12.3" x2="42.6" y2="12.3"/>
</g>
<line class="st3" x1="96.1" y1="5.4" x2="101.6" y2="5.4"/>
<line class="st3" x1="106.1" y1="19.4" x2="111.6" y2="19.4"/>
<text transform="matrix(1 0 0 1 0 16)" class="st1 st2">四十八願</text>
<text transform="matrix(1 0 0 1 105 9)" class="st1 st2">生因本願</text>
<line class="st3" x1="148.1" y1="5.4" x2="153.6" y2="5.4"/>
<text transform="matrix(1 0 0 1 157 9)" class="st1 st2">念佛往生</text>
<text transform="matrix(1 0 0 1 115 23)" class="st1 st2">欣慕願</text>
<line class="st3" x1="148.1" y1="19.4" x2="153.6" y2="19.4"/>
<text transform="matrix(1 0 0 1 157 23)" class="st1 st2">欣極樂</text>
<line class="st3" x1="190.1" y1="19.4" x2="195.6" y2="19.4"/>
<text transform="matrix(1 0 0 1 199 23)" class="st1 st2">念佛名</text>
<line class="st3" x1="106.1" y1="32.4" x2="111.6" y2="32.4"/>
<text transform="matrix(1 0 0 1 115 36)" class="st1 st2">唯明專念名號得生</text>
</svg>
