<?xml version="1.0" encoding="utf-8"?>
<!-- Generator: Adobe Illustrator 21.0.0, SVG Export Plug-In . SVG Version: 6.00 Build 0)  -->
<svg version="1.1" id="圖層_1" xmlns="http://www.w3.org/2000/svg" xmlns:xlink="http://www.w3.org/1999/xlink" x="0px" y="0px"
	 viewBox="0 0 550 160" style="enable-background:new 0 0 550 160;" xml:space="preserve">
<style type="text/css">
	.st0{fill:none;stroke:#000000;stroke-width:0.5;stroke-miterlimit:10;}
	.st1{font-family:'DFKaiShu-SB-Estd-BF';}
	.st2{font-size:14px;}
	.st3{fill:none;stroke:#000000;stroke-width:0.25;stroke-miterlimit:10;}
</style>
<line class="st0" x1="18.5" y1="93.5" x2="39.6" y2="93.5"/>
<path class="st0" d="M71.2,65.2"/>
<path class="st0" d="M71.2,93.7"/>
<line class="st0" x1="71.2" y1="148.8" x2="71.2" y2="93.4"/>
<text transform="matrix(1 0 0 1 87.699 42.416)" class="st1 st2">攝法身願</text>
<text transform="matrix(1 0 0 1 87.699 42.416)" class="st3 st1 st2">攝法身願</text>
<path class="st3" d="M177.7,121"/>
<path class="st3" d="M177.7,96.2"/>
<path class="st3" d="M184.6,109"/>
<path class="st3" d="M177.7,120.8"/>
<path class="st3" d="M171.3,114.8"/>
<path class="st3" d="M177.6,120.3"/>
<text transform="matrix(1 0 0 1 2.9133 68.8082)" class="st1 st2">四</text>
<text transform="matrix(1 0 0 1 2.9133 68.8082)" class="st3 st1 st2">四</text>
<text transform="matrix(1 0 0 1 2.9133 85.6082)" class="st1 st2">十</text>
<text transform="matrix(1 0 0 1 2.9133 85.6082)" class="st3 st1 st2">十</text>
<text transform="matrix(1 0 0 1 2.9133 102.4082)" class="st1 st2">八</text>
<text transform="matrix(1 0 0 1 2.9133 102.4082)" class="st3 st1 st2">八</text>
<text transform="matrix(1 0 0 1 2.9133 119.2082)" class="st1 st2">願</text>
<text transform="matrix(1 0 0 1 2.9133 119.2082)" class="st3 st1 st2">願</text>
<text transform="matrix(1 0 0 1 42.2467 98.0619)" class="st1 st2">三</text>
<text transform="matrix(1 0 0 1 42.2467 98.0619)" class="st3 st1 st2">三</text>
<line class="st0" x1="62.6" y1="93.5" x2="71.2" y2="93.5"/>
<line class="st0" x1="223.3" y1="38.4" x2="223.3" y2="9.9"/>
<line class="st0" x1="223.3" y1="66.6" x2="223.3" y2="38.1"/>
<line class="st0" x1="214.8" y1="38.2" x2="223.3" y2="38.2"/>
<text transform="matrix(1 0 0 1 87.6988 110.6347)" class="st1 st2">攝淨土願</text>
<text transform="matrix(1 0 0 1 87.6988 110.6347)" class="st3 st1 st2">攝淨土願</text>
<text transform="matrix(1 0 0 1 87.6989 153.1362)" class="st1 st2">攝眾生願</text>
<text transform="matrix(1 0 0 1 87.6989 153.1362)" class="st3 st1 st2">攝眾生願</text>
<line class="st0" x1="223.3" y1="120.2" x2="223.3" y2="91.7"/>
<line class="st0" x1="214.7" y1="106" x2="223.3" y2="106"/>
<line class="st0" x1="71.2" y1="93.7" x2="71.2" y2="38.3"/>
<line class="st0" x1="71.2" y1="38.4" x2="79.7" y2="38.4"/>
<line class="st0" x1="71" y1="148.8" x2="79.5" y2="148.8"/>
<line class="st0" x1="147.6" y1="38.4" x2="168.7" y2="38.4"/>
<text transform="matrix(1 0 0 1 185.8667 42.5718)" class="st1 st2">三</text>
<text transform="matrix(1 0 0 1 185.8667 42.5718)" class="st3 st1 st2">三</text>
<line class="st0" x1="146.5" y1="106" x2="167.6" y2="106"/>
<text transform="matrix(1 0 0 1 184.5996 110.6345)" class="st1 st2">二</text>
<text transform="matrix(1 0 0 1 184.5996 110.6345)" class="st3 st1 st2">二</text>
<line class="st0" x1="145" y1="148.7" x2="166.1" y2="148.7"/>
<text transform="matrix(1 0 0 1 169.5831 153.136)" class="st1 st2">四十三</text>
<text transform="matrix(1 0 0 1 169.5831 153.136)" class="st3 st1 st2">四十三</text>
<line class="st0" x1="223.2" y1="9.9" x2="231.7" y2="9.9"/>
<line class="st0" x1="223.2" y1="66.6" x2="231.7" y2="66.6"/>
<line class="st0" x1="223.1" y1="91.7" x2="231.7" y2="91.7"/>
<line class="st0" x1="223.1" y1="119.9" x2="231.7" y2="119.9"/>
<text transform="matrix(1 0 0 1 239.699 14.666)" class="st1 st2">第十二光明無量願</text>
<text transform="matrix(1 0 0 1 239.699 14.666)" class="st3 st1 st2">第十二光明無量願</text>
<text transform="matrix(1 0 0 1 239.6988 42.5718)" class="st1 st2">第十三壽命無量願</text>
<text transform="matrix(1 0 0 1 239.6988 42.5718)" class="st3 st1 st2">第十三壽命無量願</text>
<text transform="matrix(1 0 0 1 239.6988 69.8951)" class="st1 st2">第十七諸佛稱揚願</text>
<text transform="matrix(1 0 0 1 239.6988 69.8951)" class="st3 st1 st2">第十七諸佛稱揚願</text>
<text transform="matrix(1 0 0 1 239.6989 96.162)" class="st1 st2">第三十一國土清淨願</text>
<text transform="matrix(1 0 0 1 239.6989 96.162)" class="st3 st1 st2">第三十一國土清淨願</text>
<text transform="matrix(1 0 0 1 239.699 124.662)" class="st1 st2">第三十二國土嚴飾願</text>
<text transform="matrix(1 0 0 1 239.699 124.662)" class="st3 st1 st2">第三十二國土嚴飾願</text>
<line class="st0" x1="214.8" y1="148.7" x2="235.9" y2="148.7"/>
<text transform="matrix(1 0 0 1 239.6985 153.1359)" class="st1 st2">其他之四十三願</text>
<text transform="matrix(1 0 0 1 239.6985 153.1359)" class="st3 st1 st2">其他之四十三願</text>
<line class="st0" x1="378" y1="9.9" x2="386.5" y2="9.9"/>
<line class="st0" x1="386.5" y1="148.7" x2="386.5" y2="9.9"/>
<line class="st0" x1="378" y1="148.7" x2="386.5" y2="148.7"/>
<line class="st0" x1="386.5" y1="79.3" x2="395" y2="79.3"/>
<g>
	<text transform="matrix(1 0 0 1 399.8162 86.1069)" class="st1 st2">一一誓願為眾生</text>
	<text transform="matrix(1 0 0 1 399.8162 86.1069)" class="st3 st1 st2">一一誓願為眾生</text>
	<g>
		<text transform="matrix(1 0 0 1 483.6918 106.5374)" class="st1 st2">影略互顯)</text>
		<text transform="matrix(1 0 0 1 483.6918 106.5374)" class="st3 st1 st2">影略互顯)</text>
		<text transform="matrix(1 0 0 1 395.0251 106.5374)" class="st1 st2">(願願三攝</text>
		<text transform="matrix(1 0 0 1 395.0251 106.5374)" class="st3 st1 st2">(願願三攝</text>
		<line class="st0" x1="460.6" y1="102" x2="481.7" y2="102"/>
	</g>
	<text transform="matrix(1 0 0 1 420.0248 64.5376)" class="st1 st2">(善導)</text>
	<text transform="matrix(1 0 0 1 420.0248 64.5376)" class="st3 st1 st2">(善導)</text>
</g>
<text transform="matrix(1 0 0 1 94.6668 16.1501)" class="st1 st2">(淨影)</text>
<text transform="matrix(1 0 0 1 94.6668 16.1501)" class="st3 st1 st2">(淨影)</text>
</svg>
