<?xml version="1.0" encoding="utf-8"?>
<!-- Generator: Adobe Illustrator 21.0.0, SVG Export Plug-In . SVG Version: 6.00 Build 0)  -->
<svg version="1.1" id="圖層_1" xmlns="http://www.w3.org/2000/svg" xmlns:xlink="http://www.w3.org/1999/xlink" x="0px" y="0px"
	 viewBox="0 0 156.9 52.4" style="enable-background:new 0 0 156.9 52.4;" xml:space="preserve">
<style type="text/css">
	.st0{font-family:'KaiTi';}
	.st1{font-size:10px;}
	.st2{fill:none;stroke:#000000;stroke-width:0.5;stroke-miterlimit:10;}
</style>
<text transform="matrix(1 0 0 1 106.875 8.5938)"><tspan x="0" y="0" class="st0 st1">世尊我一心</tspan><tspan x="0" y="14" class="st0 st1">觀彼世界相</tspan><tspan x="0" y="28" class="st0 st1">觀佛本願力</tspan><tspan x="0" y="42" class="st0 st1">我作論說偈</tspan></text>
<g>
	<line class="st2" x1="100" y1="19.2" x2="100" y2="33.5"/>
	<line class="st2" x1="100" y1="19.2" x2="103.8" y2="19.2"/>
	<line class="st2" x1="100" y1="33.5" x2="103.8" y2="33.5"/>
	<line class="st2" x1="100" y1="26.4" x2="96.3" y2="26.4"/>
</g>
<line class="st2" x1="96.3" y1="5.3" x2="103.8" y2="5.3"/>
<text transform="matrix(1 0 0 1 74.375 8.5938)"><tspan x="0" y="0" class="st0 st1">行門</tspan><tspan x="0" y="21" class="st0 st1">解門</tspan></text>
<g>
	<line class="st2" x1="67.6" y1="5.3" x2="67.6" y2="26.4"/>
	<line class="st2" x1="67.6" y1="5.3" x2="71.4" y2="5.3"/>
	<line class="st2" x1="67.6" y1="26.4" x2="71.4" y2="26.4"/>
	<line class="st2" x1="67.6" y1="15.8" x2="63.9" y2="15.8"/>
</g>
<line class="st2" x1="63.9" y1="47.4" x2="103.8" y2="47.4"/>
<text transform="matrix(1 0 0 1 41.75 19.0938)"><tspan x="0" y="0" class="st0 st1">自利</tspan><tspan x="0" y="31.5" class="st0 st1">利他</tspan></text>
<g>
	<line class="st2" x1="36.3" y1="15.8" x2="36.3" y2="47.4"/>
	<line class="st2" x1="36.3" y1="15.8" x2="40.1" y2="15.8"/>
	<line class="st2" x1="36.3" y1="47.4" x2="40.1" y2="47.4"/>
	<line class="st2" x1="36.3" y1="31.6" x2="32.6" y2="31.6"/>
</g>
<text transform="matrix(1 0 0 1 0 36.5938)" class="st0 st1">四要偈</text>
</svg>
