<?xml version="1.0" encoding="utf-8"?>
<!-- Generator: Adobe Illustrator 21.0.0, SVG Export Plug-In . SVG Version: 6.00 Build 0)  -->
<svg version="1.1" id="图层_1" xmlns="http://www.w3.org/2000/svg" xmlns:xlink="http://www.w3.org/1999/xlink" x="0px" y="0px"
	 viewBox="0 0 288.5 94.4" style="enable-background:new 0 0 288.5 94.4;" xml:space="preserve">
<style type="text/css">
	.st0{font-family:'KaiTi';}
	.st1{font-size:10px;}
	.st2{fill:none;stroke:#000000;stroke-width:0.5;stroke-miterlimit:10;}
	.st3{letter-spacing:5;}
</style>
<text transform="matrix(1 0 0 1 168.5003 22.5938)"><tspan x="0" y="0" class="st0 st1">声闻 四 谛 法 三生六十劫</tspan><tspan x="0" y="14" class="st0 st1">缘觉 十二因缘 四生百劫</tspan><tspan x="0" y="28" class="st0 st1">菩萨 六度万行 三只百大劫</tspan></text>
<text transform="matrix(1 0 0 1 137.792 8.5938)"><tspan x="0" y="0" class="st0 st1">分齐</tspan><tspan x="0" y="14" class="st0 st1">次第</tspan><tspan x="0" y="28" class="st0 st1">时劫</tspan></text>
<g>
	<line class="st2" x1="132.1" y1="4.5" x2="132.1" y2="32.9"/>
	<line class="st2" x1="131.9" y1="4.5" x2="134.8" y2="4.5"/>
	<line class="st2" x1="131.9" y1="32.9" x2="134.8" y2="32.9"/>
	<line class="st2" x1="129.1" y1="18.8" x2="132" y2="18.8"/>
</g>
<text transform="matrix(1 0 0 1 54.792 8.5938)"><tspan x="0" y="0" class="st0 st1">总</tspan><tspan x="10" y="0" class="st0 st1 st3"> </tspan><tspan x="20" y="0" class="st0 st1">释</tspan><tspan x="0" y="14" class="st0 st1">别</tspan><tspan x="10" y="14" class="st0 st1 st3"> </tspan><tspan x="20" y="14" class="st0 st1">释</tspan></text>
<g>
	<line class="st2" x1="50.1" y1="4.5" x2="50.1" y2="18.8"/>
	<line class="st2" x1="49.9" y1="4.5" x2="52.8" y2="4.5"/>
	<line class="st2" x1="49.9" y1="18.8" x2="52.8" y2="18.8"/>
	<line class="st2" x1="47.1" y1="11.6" x2="50" y2="11.6"/>
</g>
<text transform="matrix(1 0 0 1 4.917 15.5938)"><tspan x="0" y="0" class="st0 st1">圣净二门</tspan><tspan x="0" y="35" class="st0 st1">圣净比较</tspan><tspan x="0" y="56" class="st0 st1">舍圣归净</tspan><tspan x="0" y="77" class="st0 st1">圣净与难易</tspan></text>
<g>
	<line class="st2" x1="91.1" y1="18.7" x2="91.1" y2="61.8"/>
	<line class="st2" x1="90.8" y1="18.8" x2="93.7" y2="18.8"/>
	<line class="st2" x1="90.8" y1="61.8" x2="93.7" y2="61.8"/>
	<line class="st2" x1="88.1" y1="18.8" x2="91" y2="18.8"/>
</g>
<g>
	<line class="st2" x1="0.3" y1="11.6" x2="0.3" y2="89.8"/>
	<line class="st2" x1="0" y1="11.6" x2="2.9" y2="11.6"/>
	<line class="st2" x1="0" y1="47.1" x2="2.9" y2="47.1"/>
	<line class="st2" x1="0" y1="89.8" x2="2.9" y2="89.8"/>
	<line class="st2" x1="0.3" y1="68.2" x2="3.1" y2="68.2"/>
</g>
<g>
	<line class="st2" x1="162.8" y1="18.7" x2="162.8" y2="47.2"/>
	<line class="st2" x1="162.6" y1="18.7" x2="165.5" y2="18.7"/>
	<line class="st2" x1="162.6" y1="47.2" x2="165.5" y2="47.2"/>
	<line class="st2" x1="159.9" y1="33" x2="162.8" y2="33"/>
</g>
<text transform="matrix(1 0 0 1 96.718 22.5938)"><tspan x="0" y="0" class="st0 st1">圣道门</tspan><tspan x="0" y="42" class="st0 st1">净土门</tspan></text>
</svg>
