<?xml version="1.0" encoding="utf-8"?>
<!-- Generator: Adobe Illustrator 21.0.0, SVG Export Plug-In . SVG Version: 6.00 Build 0)  -->
<svg version="1.1" id="图层_1" xmlns="http://www.w3.org/2000/svg" xmlns:xlink="http://www.w3.org/1999/xlink" x="0px" y="0px"
	 viewBox="0 0 263.6 151.3" style="enable-background:new 0 0 263.6 151.3;" xml:space="preserve">
<style type="text/css">
	.st0{fill:none;stroke:#040000;stroke-width:0.5;stroke-miterlimit:10;}
	.st1{fill:none;stroke:#040000;stroke-width:0.5;stroke-miterlimit:10;stroke-dasharray:4.1137,4.1137;}
	.st2{fill:none;stroke:#040000;stroke-width:0.5;stroke-miterlimit:10;stroke-dasharray:4.1137,4.1137,4.1137,4.1137;}
	.st3{font-family:'KaiTi';}
	.st4{font-size:10px;}
	.st5{fill:none;stroke:#040000;stroke-width:0.5;stroke-miterlimit:10;stroke-dasharray:4.5083,6.7625,4.5083,4.5083;}
	.st6{fill:none;stroke:#000000;stroke-width:0.5;stroke-miterlimit:10;}
	.st7{fill:#FFFFFF;}
</style>
<line class="st0" x1="31.4" y1="17.1" x2="181.8" y2="17.1"/>
<g>
	<g>
		<line class="st0" x1="53.3" y1="16.9" x2="53.3" y2="20.9"/>
		<line class="st1" x1="53.3" y1="25" x2="53.3" y2="31.2"/>
		<line class="st2" x1="53.3" y1="33.3" x2="53.3" y2="47.7"/>
		<line class="st0" x1="53.3" y1="49.7" x2="53.3" y2="53.7"/>
	</g>
</g>
<path class="st0" d="M134.3,53.8c3.4,0,6,3.2,6,7.4"/>
<path class="st0" d="M153.7,35.3c3.4,0,6,3.2,6,7.4"/>
<text transform="matrix(1 0 0 1 0 31.9374)"><tspan x="0" y="0" class="st3 st4"> 圣道</tspan><tspan x="0" y="14" class="st3 st4">(诸经)</tspan></text>
<line class="st0" x1="31.4" y1="53.7" x2="134.3" y2="53.7"/>
<g>
	<g>
		<line class="st0" x1="73.8" y1="16.9" x2="73.8" y2="22.9"/>
		<line class="st5" x1="73.8" y1="27.4" x2="73.8" y2="45.5"/>
		<line class="st0" x1="73.8" y1="47.7" x2="73.8" y2="53.7"/>
	</g>
</g>
<line class="st0" x1="92.6" y1="17.1" x2="92.6" y2="24.6"/>
<line class="st0" x1="92.6" y1="28.6" x2="92.6" y2="42"/>
<line class="st0" x1="92.6" y1="46.2" x2="92.6" y2="53.7"/>
<line class="st0" x1="111.4" y1="17.1" x2="111.4" y2="32.8"/>
<line class="st0" x1="111.4" y1="38" x2="111.4" y2="53.7"/>
<g>
	<g>
		<line class="st6" x1="33" y1="35.3" x2="42.4" y2="35.3"/>
		<g>
			<polygon points="45.9,35.3 40.9,37.3 42.1,35.3 40.9,33.2 			"/>
		</g>
	</g>
</g>
<g>
	<g>
		<line class="st6" x1="139.4" y1="35.3" x2="153.7" y2="35.3"/>
	</g>
</g>
<g>
	<g>
		<line class="st6" x1="159.7" y1="42.7" x2="159.7" y2="55.3"/>
		<g>
			<polygon points="159.7,58.8 157.7,53.8 159.7,55 161.8,53.8 			"/>
		</g>
	</g>
</g>
<text transform="matrix(1 0 0 1 154.625 71.2188)"><tspan x="0" y="0" class="st3 st4">要</tspan><tspan x="0" y="14" class="st3 st4">门</tspan></text>
<text transform="matrix(1 0 0 1 165.5 71.2188)"><tspan x="0" y="0" class="st3 st4">观</tspan><tspan x="0" y="14" class="st3 st4">经</tspan></text>
<text transform="matrix(4.489659e-11 -1 1 4.489659e-11 173.6251 93)" class="st3 st4">(</text>
<text transform="matrix(4.489659e-11 -1 1 4.489659e-11 173.6251 61.1445)" class="st3 st4">)</text>
<path class="st0" d="M181.8,17.2c3.4,0,6,3.2,6,7.4"/>
<line class="st0" x1="187.8" y1="23.2" x2="187.8" y2="111.1"/>
<g>
	<g>
		<line class="st6" x1="159.7" y1="90.8" x2="159.7" y2="103.4"/>
		<g>
			<polygon points="159.7,106.9 157.7,101.9 159.7,103.1 161.8,101.9 			"/>
		</g>
	</g>
</g>
<line class="st0" x1="140.3" y1="61.1" x2="140.3" y2="111.1"/>
<line class="st0" x1="31.4" y1="111.1" x2="173.6" y2="111.1"/>
<line class="st6" x1="187.7" y1="111.1" x2="254.5" y2="111.1"/>
<g>
	<g>
		<line class="st6" x1="181.3" y1="121.7" x2="190.7" y2="121.7"/>
		<g>
			<polygon points="194.2,121.7 189.2,123.7 190.4,121.7 189.2,119.6 			"/>
		</g>
	</g>
</g>
<line class="st6" x1="181.3" y1="104.4" x2="181.3" y2="121.7"/>
<text transform="matrix(1 0 0 1 0 135.4371)"><tspan x="0" y="0" class="st3 st4"> 弘愿</tspan><tspan x="0" y="14" class="st3 st4">(大经)</tspan></text>
<text transform="matrix(1 0 0 1 181.2915 135.4372)"><tspan x="0" y="0" class="st3 st4"> 弘愿</tspan><tspan x="0" y="14" class="st3 st4">(大经)</tspan></text>
<g>
	<g>
		<line class="st6" x1="34.2" y1="137.5" x2="72.6" y2="137.5"/>
		<g>
			<polygon points="76.1,137.5 71.1,139.5 72.3,137.5 71.1,135.4 			"/>
		</g>
	</g>
</g>
<g>
	<g>
		<line class="st6" x1="212.6" y1="137.6" x2="251" y2="137.6"/>
		<g>
			<polygon points="254.5,137.6 249.5,139.6 250.7,137.6 249.5,135.5 			"/>
		</g>
	</g>
</g>
<text transform="matrix(1 0 0 1 47.75 8.5938)" class="st7 st3 st4">1</text>
<circle class="st7" cx="53.4" cy="6.2" r="5"/>
<text transform="matrix(1 0 0 1 51.25 13.3438)" class="st3 st4">1</text>
<text transform="matrix(1 0 0 1 71.125 13.3438)" class="st3 st4">2</text>
<text transform="matrix(1 0 0 1 90 13.3438)" class="st3 st4">3</text>
<text transform="matrix(1 0 0 1 108.25 13.3438)" class="st3 st4">4</text>
<text transform="matrix(1 0 0 1 185.9998 13.3438)" class="st3 st4">5</text>
<text transform="matrix(1 0 0 1 165.5 51.3438)" class="st3 st4">6</text>
<text transform="matrix(1 0 0 1 154.625 121.6708)" class="st3 st4">7</text>
<text transform="matrix(1 0 0 1 199.5 121.6708)" class="st3 st4">8</text>
<text transform="matrix(1 0 0 1 258.625 141.0938)" class="st3 st4">9</text>
</svg>
