<?xml version="1.0" encoding="utf-8"?>
<!-- Generator: Adobe Illustrator 21.0.0, SVG Export Plug-In . SVG Version: 6.00 Build 0)  -->
<svg version="1.1" id="圖層_1" xmlns="http://www.w3.org/2000/svg" xmlns:xlink="http://www.w3.org/1999/xlink" x="0px" y="0px"
	 viewBox="0 0 152.4 80.4" style="enable-background:new 0 0 152.4 80.4;" xml:space="preserve">
<style type="text/css">
	.st0{enable-background:new    ;}
	.st1{font-family:'KaiTi';}
	.st2{font-size:10px;}
	.st3{font-family:'DFKaiShu-SB-Estd-BF';}
	.st4{fill:none;stroke:#000000;stroke-width:0.5;stroke-miterlimit:10;}
</style>
<text transform="matrix(1 0 0 1 52.366 8.5938)" class="st0"><tspan x="0" y="0" class="st1 st2">第十二</tspan><tspan x="30" y="0" class="st3 st2">、</tspan><tspan x="40" y="0" class="st1 st2">光明無量願</tspan></text>
<text transform="matrix(1 0 0 1 52.366 22.5938)" class="st0"><tspan x="0" y="0" class="st1 st2">第十三</tspan><tspan x="30" y="0" class="st3 st2">、</tspan><tspan x="40" y="0" class="st1 st2">壽命無量願</tspan></text>
<text transform="matrix(1 0 0 1 52.366 36.5938)" class="st0"><tspan x="0" y="0" class="st1 st2">第十七</tspan><tspan x="30" y="0" class="st3 st2">、</tspan><tspan x="40" y="0" class="st1 st2">諸佛稱揚願</tspan></text>
<text transform="matrix(1 0 0 1 52.366 50.5938)" class="st0"><tspan x="0" y="0" class="st1 st2">第三十一</tspan><tspan x="40" y="0" class="st3 st2">、</tspan><tspan x="50" y="0" class="st1 st2">國土清淨願</tspan></text>
<text transform="matrix(1 0 0 1 52.366 64.5938)" class="st0"><tspan x="0" y="0" class="st1 st2">第三十二</tspan><tspan x="40" y="0" class="st3 st2">、</tspan><tspan x="50" y="0" class="st1 st2">國土嚴飾願</tspan></text>
<g>
	<line class="st4" x1="43.3" y1="19.1" x2="46.2" y2="19.1"/>
	<line class="st4" x1="46" y1="5.5" x2="48.9" y2="5.5"/>
	<line class="st4" x1="46.1" y1="33" x2="48.9" y2="33"/>
	<line class="st4" x1="46.2" y1="5.2" x2="46.2" y2="33.2"/>
</g>
<g>
	<line class="st4" x1="43.3" y1="53.1" x2="46.2" y2="53.1"/>
	<line class="st4" x1="46" y1="46.2" x2="48.9" y2="46.2"/>
	<line class="st4" x1="46.1" y1="60.3" x2="48.9" y2="60.3"/>
	<line class="st4" x1="46.2" y1="45.9" x2="46.2" y2="60.6"/>
</g>
<text transform="matrix(1 0 0 1 1.983643e-04 22.5938)" class="st1 st2">攝</text>
<text transform="matrix(1 0 0 1 10.0002 22.5938)" class="st1 st2">法</text>
<text transform="matrix(1 0 0 1 20.0002 22.5938)" class="st1 st2">身</text>
<text transform="matrix(1 0 0 1 30.0002 22.5938)" class="st1 st2">願</text>
<text transform="matrix(1 0 0 1 1.983643e-04 57.5938)" class="st1 st2">攝</text>
<text transform="matrix(1 0 0 1 10.0002 57.5938)" class="st1 st2">淨</text>
<text transform="matrix(1 0 0 1 20.0002 57.5938)" class="st1 st2">土</text>
<text transform="matrix(1 0 0 1 30.0002 57.5938)" class="st1 st2">願</text>
<text transform="matrix(1 0 0 1 1.983643e-04 78.5942)" class="st1 st2">攝</text>
<text transform="matrix(1 0 0 1 10.0002 78.5942)" class="st1 st2">眾</text>
<text transform="matrix(1 0 0 1 20.0002 78.5942)" class="st1 st2">生</text>
<text transform="matrix(1 0 0 1 30.0002 78.5942)" class="st1 st2">願</text>
<text transform="matrix(1 0 0 1 42.0002 78.5942)" class="st1 st2"> </text>
<text transform="matrix(1 0 0 1 47.0002 78.5942)" class="st1 st2"> </text>
<text transform="matrix(1 0 0 1 52.0002 78.5942)" class="st1 st2">外</text>
<text transform="matrix(1 0 0 1 62.0002 78.5942)" class="st1 st2">之</text>
<text transform="matrix(1 0 0 1 71.9997 78.5942)" class="st1 st2">四</text>
<text transform="matrix(1 0 0 1 81.9997 78.5942)" class="st1 st2">十</text>
<text transform="matrix(1 0 0 1 91.9997 78.5942)" class="st1 st2">三</text>
<text transform="matrix(1 0 0 1 101.9997 78.5942)" class="st1 st2">願</text>
<line class="st4" x1="43.8" y1="74.5" x2="49.4" y2="74.5"/>
</svg>
