<?xml version="1.0" encoding="utf-8"?>
<!-- Generator: Adobe Illustrator 21.0.0, SVG Export Plug-In . SVG Version: 6.00 Build 0)  -->
<svg version="1.1" id="圖層_1" xmlns="http://www.w3.org/2000/svg" xmlns:xlink="http://www.w3.org/1999/xlink" x="0px" y="0px"
	 viewBox="0 0 225 38.4" style="enable-background:new 0 0 225 38.4;" xml:space="preserve">
<style type="text/css">
	.st0{enable-background:new    ;}
	.st1{font-family:'KaiTi';}
	.st2{font-size:10px;}
	.st3{fill:none;stroke:#000000;stroke-width:0.5;stroke-miterlimit:10;}
</style>
<text transform="matrix(1 0 0 1 111.0002 8.5937)" class="st0"><tspan x="0" y="0" class="st1 st2">第十八願</tspan><tspan x="0" y="14" class="st1 st2">第十九願</tspan><tspan x="0" y="28" class="st1 st2">第二十願</tspan></text>
<text transform="matrix(1 0 0 1 163.0002 8.5937)" class="st0"><tspan x="0" y="0" class="st1 st2">順次往生</tspan><tspan x="0" y="14" class="st1 st2">順次往生</tspan><tspan x="0" y="28" class="st1 st2">順後往生</tspan></text>
<line class="st3" x1="154.1" y1="4.4" x2="159.6" y2="4.4"/>
<text transform="matrix(1 0 0 1 51.0002 15.5937)" class="st0"><tspan x="0" y="0" class="st1 st2">當機</tspan><tspan x="0" y="21" class="st1 st2">結緣</tspan></text>
<line class="st3" x1="154.1" y1="19.5" x2="159.6" y2="19.5"/>
<g>
	<line class="st3" x1="76.3" y1="4.4" x2="76.3" y2="19"/>
	<line class="st3" x1="76.3" y1="4.4" x2="79" y2="4.4"/>
	<line class="st3" x1="76.3" y1="19.2" x2="79" y2="19.2"/>
	<line class="st3" x1="76.3" y1="11.3" x2="73" y2="11.3"/>
</g>
<line class="st3" x1="154.1" y1="33.5" x2="160" y2="33.5"/>
<line class="st3" x1="206.1" y1="4.4" x2="211.6" y2="4.4"/>
<line class="st3" x1="73.1" y1="33.5" x2="109" y2="33.5"/>
<g>
	<line class="st3" x1="45.3" y1="11.4" x2="45.3" y2="33"/>
	<line class="st3" x1="45.3" y1="11.4" x2="48" y2="11.4"/>
	<line class="st3" x1="45.3" y1="33.2" x2="48" y2="33.2"/>
	<line class="st3" x1="45.3" y1="22.3" x2="42" y2="22.3"/>
</g>
<text transform="matrix(1 0 0 1 0 26.5)" class="st1 st2">攝生三願</text>
<text transform="matrix(1 0 0 1 215.0002 8.5937)" class="st0"><tspan x="0" y="0" class="st1 st2">體</tspan><tspan x="0" y="21" class="st1 st2">用</tspan></text>
<g>
	<line class="st3" x1="209.1" y1="33" x2="209.1" y2="19"/>
	<line class="st3" x1="209.1" y1="32.9" x2="205.3" y2="32.9"/>
	<line class="st3" x1="209.1" y1="19.1" x2="205.3" y2="19.1"/>
	<line class="st3" x1="209.1" y1="26" x2="212.8" y2="26"/>
</g>
<text transform="matrix(1 0 0 1 81.0002 8.5937)" class="st0"><tspan x="0" y="0" class="st1 st2">真實</tspan><tspan x="0" y="14" class="st1 st2">方便</tspan></text>
<line class="st3" x1="103.1" y1="4.4" x2="108.6" y2="4.4"/>
<line class="st3" x1="103.1" y1="19.3" x2="108.6" y2="19.3"/>
</svg>
