<?xml version="1.0" encoding="utf-8"?>
<!-- Generator: Adobe Illustrator 21.0.0, SVG Export Plug-In . SVG Version: 6.00 Build 0)  -->
<svg version="1.1" id="圖層_1" xmlns="http://www.w3.org/2000/svg" xmlns:xlink="http://www.w3.org/1999/xlink" x="0px" y="0px"
	 viewBox="0 0 199.3 136.4" style="enable-background:new 0 0 199.3 136.4;" xml:space="preserve">
<style type="text/css">
	.st0{font-family:'KaiTi';}
	.st1{font-size:10px;}
	.st2{fill:none;stroke:#000000;stroke-width:0.5;stroke-miterlimit:10;}
</style>
<text transform="matrix(1 0 0 1 99.5837 8.5938)"><tspan x="0" y="0" class="st0 st1">名義</tspan><tspan x="0" y="14" class="st0 st1">略稱</tspan><tspan x="0" y="28" class="st0 st1">定義</tspan><tspan x="0" y="42" class="st0 st1">目的</tspan><tspan x="0" y="84" class="st0 st1">印度</tspan><tspan x="0" y="98" class="st0 st1">中國</tspan><tspan x="0" y="112" class="st0 st1">推動諸宗成立</tspan></text>
<g>
	<line class="st2" x1="94.1" y1="4.5" x2="94.1" y2="18.8"/>
	<line class="st2" x1="93.9" y1="4.5" x2="96.8" y2="4.5"/>
	<line class="st2" x1="93.9" y1="18.8" x2="96.8" y2="18.8"/>
	<line class="st2" x1="91.2" y1="11.7" x2="94.1" y2="11.7"/>
</g>
<g>
	<line class="st2" x1="94.3" y1="32.5" x2="94.3" y2="46.8"/>
	<line class="st2" x1="94.1" y1="32.5" x2="97" y2="32.5"/>
	<line class="st2" x1="94.1" y1="46.8" x2="97" y2="46.8"/>
	<line class="st2" x1="91.3" y1="39.7" x2="94.2" y2="39.7"/>
</g>
<line class="st2" x1="91.5" y1="88.4" x2="97.1" y2="88.4"/>
<line class="st2" x1="91.5" y1="102.8" x2="97.1" y2="102.8"/>
<line class="st2" x1="91.5" y1="117.1" x2="97.1" y2="117.1"/>
<text transform="matrix(1 0 0 1 68.417 15.5938)"><tspan x="0" y="0" class="st0 st1">總釋</tspan><tspan x="0" y="28" class="st0 st1">別釋</tspan><tspan x="0" y="49" class="st0 st1">佛理出入難明</tspan><tspan x="0" y="63" class="st0 st1">欲明佛陀真意</tspan><tspan x="0" y="77" class="st0 st1">發端</tspan><tspan x="0" y="91" class="st0 st1">繁榮</tspan><tspan x="0" y="105" class="st0 st1">結果</tspan></text>
<line class="st2" x1="130.7" y1="60.8" x2="136.3" y2="60.8"/>
<line class="st2" x1="130.7" y1="74.9" x2="136.3" y2="74.9"/>
<line class="st2" x1="121.5" y1="46.8" x2="136.3" y2="46.8"/>
<line class="st2" x1="121.5" y1="32.5" x2="136.3" y2="32.5"/>
<line class="st2" x1="121.5" y1="88.4" x2="136.3" y2="88.4"/>
<line class="st2" x1="121.5" y1="102.8" x2="136.3" y2="102.8"/>
<text transform="matrix(1 0 0 1 139.3279 36.5938)"><tspan x="0" y="0" class="st0 st1">佛教分類體系</tspan><tspan x="0" y="14" class="st0 st1">以明佛陀真意</tspan><tspan x="0" y="28" class="st0 st1">客觀</tspan><tspan x="0" y="42" class="st0 st1">主觀</tspan><tspan x="0" y="56" class="st0 st1">佛經</tspan><tspan x="0" y="70" class="st0 st1">祖釋</tspan></text>
<g>
	<line class="st2" x1="62.8" y1="11.7" x2="62.8" y2="39.7"/>
	<line class="st2" x1="62.5" y1="11.7" x2="65.4" y2="11.7"/>
	<line class="st2" x1="62.5" y1="39.7" x2="65.4" y2="39.7"/>
	<line class="st2" x1="59.8" y1="25.7" x2="62.7" y2="25.7"/>
</g>
<g>
	<line class="st2" x1="63" y1="60.6" x2="63" y2="74.9"/>
	<line class="st2" x1="62.8" y1="60.6" x2="65.6" y2="60.6"/>
	<line class="st2" x1="62.8" y1="74.9" x2="65.6" y2="74.9"/>
	<line class="st2" x1="60" y1="67.8" x2="62.9" y2="67.8"/>
</g>
<g>
	<line class="st2" x1="63.1" y1="88.4" x2="63.1" y2="116.4"/>
	<line class="st2" x1="62.8" y1="88.4" x2="65.7" y2="88.4"/>
	<line class="st2" x1="62.8" y1="116.4" x2="65.7" y2="116.4"/>
	<line class="st2" x1="60.1" y1="102.4" x2="63" y2="102.4"/>
</g>
<text transform="matrix(1 0 0 1 37.5838 29.5938)"><tspan x="0" y="0" class="st0 st1">釋義</tspan><tspan x="0" y="42" class="st0 st1">因由</tspan><tspan x="0" y="77" class="st0 st1">歷程</tspan><tspan x="0" y="105" class="st0 st1">立宗宣示</tspan></text>
<line class="st2" x1="28.3" y1="25.7" x2="34" y2="25.7"/>
<line class="st2" x1="28.3" y1="67.8" x2="34" y2="67.8"/>
<line class="st2" x1="28.3" y1="102.8" x2="34" y2="102.8"/>
<line class="st2" x1="28.3" y1="130.9" x2="34" y2="130.9"/>
<text transform="matrix(1 0 0 1 5.917 29.5938)"><tspan x="0" y="0" class="st0 st1">是何</tspan><tspan x="0" y="42" class="st0 st1">為何</tspan><tspan x="0" y="77" class="st0 st1">如何</tspan><tspan x="0" y="105" class="st0 st1">結論</tspan></text>
<g>
	<line class="st2" x1="0.3" y1="25.7" x2="0.3" y2="130.9"/>
	<line class="st2" x1="0" y1="25.7" x2="2.9" y2="25.7"/>
	<line class="st2" x1="0" y1="130.9" x2="2.9" y2="130.9"/>
</g>
</svg>
