<?xml version="1.0" encoding="utf-8"?>
<!-- Generator: Adobe Illustrator 21.0.0, SVG Export Plug-In . SVG Version: 6.00 Build 0)  -->
<svg version="1.1" baseProfile="tiny" id="圖層_1"
	 xmlns="http://www.w3.org/2000/svg" xmlns:xlink="http://www.w3.org/1999/xlink" x="0px" y="0px" viewBox="0 0 271.4 24.6"
	 overflow="scroll" xml:space="preserve">
<text transform="matrix(1 0 0 1 51.4165 8.5942)" font-family="'KaiTi'" font-size="10px">阿</text>
<text transform="matrix(1 0 0 1 61.4165 8.5942)" font-family="'KaiTi'" font-size="10px">彌</text>
<text transform="matrix(1 0 0 1 71.4165 8.5942)" font-family="'KaiTi'" font-size="10px">陀</text>
<text transform="matrix(1 0 0 1 81.4165 8.5942)" font-family="'KaiTi'" font-size="10px">佛</text>
<text transform="matrix(1 0 0 1 91.4165 8.5942)" font-family="'KaiTi'" font-size="10px">是</text>
<text transform="matrix(1 0 0 1 101.4165 8.5942)" font-family="'KaiTi'" font-size="10px">法</text>
<text transform="matrix(1 0 0 1 111.4165 8.5942)" font-family="'KaiTi'" font-size="10px">界</text>
<text transform="matrix(1 0 0 1 121.4165 8.5942)" font-family="'KaiTi'" font-size="10px">身</text>
<text transform="matrix(1 0 0 1 131.4165 8.5942)" font-family="'DFKaiShu-SB-Estd-BF'" font-size="10px">，</text>
<text transform="matrix(1 0 0 1 141.4165 8.5942)" font-family="'KaiTi'" font-size="10px">入</text>
<text transform="matrix(1 0 0 1 151.4165 8.5942)" font-family="'KaiTi'" font-size="10px">一</text>
<text transform="matrix(1 0 0 1 161.4165 8.5942)" font-family="'KaiTi'" font-size="10px">切</text>
<text transform="matrix(1 0 0 1 171.4165 8.5942)" font-family="'KaiTi'" font-size="10px">眾</text>
<text transform="matrix(1 0 0 1 181.4165 8.5942)" font-family="'KaiTi'" font-size="10px">生</text>
<text transform="matrix(1 0 0 1 191.4165 8.5942)" font-family="'KaiTi'" font-size="10px">心</text>
<text transform="matrix(1 0 0 1 201.4165 8.5942)" font-family="'KaiTi'" font-size="10px">中</text>
<text transform="matrix(1 0 0 1 211.4165 8.5942)" font-family="'KaiTi'" font-size="10px">想</text>
<text transform="matrix(1 0 0 1 221.4165 8.5942)" font-family="'KaiTi'" font-size="10px"> </text>
<text transform="matrix(1 0 0 1 231.4165 8.5942)" font-family="'KaiTi'" font-size="10px">佛</text>
<text transform="matrix(1 0 0 1 241.4165 8.5942)" font-family="'KaiTi'" font-size="10px">入</text>
<text transform="matrix(1 0 0 1 251.4165 8.5942)" font-family="'KaiTi'" font-size="10px">我</text>
<text transform="matrix(1 0 0 1 261.4165 8.5942)" font-family="'KaiTi'" font-size="10px">心</text>
<text transform="matrix(1 0 0 1 51.4165 22.5942)" font-family="'KaiTi'" font-size="10px">光</text>
<text transform="matrix(1 0 0 1 61.4165 22.5942)" font-family="'KaiTi'" font-size="10px">明</text>
<text transform="matrix(1 0 0 1 71.4165 22.5942)" font-family="'KaiTi'" font-size="10px">遍</text>
<text transform="matrix(1 0 0 1 81.4165 22.5942)" font-family="'KaiTi'" font-size="10px">照</text>
<text transform="matrix(1 0 0 1 91.4165 22.5942)" font-family="'KaiTi'" font-size="10px">十</text>
<text transform="matrix(1 0 0 1 101.4165 22.5942)" font-family="'KaiTi'" font-size="10px">方</text>
<text transform="matrix(1 0 0 1 111.4165 22.5942)" font-family="'KaiTi'" font-size="10px">世</text>
<text transform="matrix(1 0 0 1 121.4165 22.5942)" font-family="'KaiTi'" font-size="10px">界</text>
<text transform="matrix(1 0 0 1 131.4165 22.5942)" font-family="'DFKaiShu-SB-Estd-BF'" font-size="10px">，</text>
<text transform="matrix(1 0 0 1 141.4165 22.5942)" font-family="'KaiTi'" font-size="10px">念</text>
<text transform="matrix(1 0 0 1 151.4165 22.5942)" font-family="'KaiTi'" font-size="10px">佛</text>
<text transform="matrix(1 0 0 1 161.4165 22.5942)" font-family="'KaiTi'" font-size="10px">眾</text>
<text transform="matrix(1 0 0 1 171.4165 22.5942)" font-family="'KaiTi'" font-size="10px">生</text>
<text transform="matrix(1 0 0 1 181.4165 22.5942)" font-family="'KaiTi'" font-size="10px">攝</text>
<text transform="matrix(1 0 0 1 191.4165 22.5942)" font-family="'KaiTi'" font-size="10px">取</text>
<text transform="matrix(1 0 0 1 201.4165 22.5942)" font-family="'KaiTi'" font-size="10px">不</text>
<text transform="matrix(1 0 0 1 211.4165 22.5942)" font-family="'KaiTi'" font-size="10px">捨</text>
<text transform="matrix(1 0 0 1 221.4165 22.5942)" font-family="'KaiTi'" font-size="10px"> </text>
<text transform="matrix(1 0 0 1 231.4165 22.5942)" font-family="'KaiTi'" font-size="10px">我</text>
<text transform="matrix(1 0 0 1 241.4165 22.5942)" font-family="'KaiTi'" font-size="10px">入</text>
<text transform="matrix(1 0 0 1 251.4165 22.5942)" font-family="'KaiTi'" font-size="10px">佛</text>
<text transform="matrix(1 0 0 1 261.4165 22.5942)" font-family="'KaiTi'" font-size="10px">心</text>
<text transform="matrix(1 0 0 1 -1.602173e-04 8.5939)" font-family="'KaiTi'" font-size="10px">色心功德</text>
<text transform="matrix(1 0 0 1 -1.602173e-04 22.5939)" font-family="'KaiTi'" font-size="10px">機法一體</text>
<g>
	<line fill="none" stroke="#000000" stroke-width="0.5" stroke-miterlimit="10" x1="45.4" y1="4.6" x2="45.4" y2="19.8"/>
	<line fill="none" stroke="#000000" stroke-width="0.5" stroke-miterlimit="10" x1="45.4" y1="4.6" x2="48.2" y2="4.6"/>
	<line fill="none" stroke="#000000" stroke-width="0.5" stroke-miterlimit="10" x1="45.4" y1="19.8" x2="48.2" y2="19.8"/>
	<line fill="none" stroke="#000000" stroke-width="0.5" stroke-miterlimit="10" x1="45.4" y1="12.2" x2="42.7" y2="12.2"/>
</g>
<line fill="none" stroke="#000000" stroke-width="0.5" stroke-miterlimit="10" x1="223.5" y1="4.6" x2="229" y2="4.6"/>
<line fill="none" stroke="#000000" stroke-width="0.5" stroke-miterlimit="10" x1="223.5" y1="19.8" x2="229" y2="19.8"/>
</svg>
