<?xml version="1.0" encoding="utf-8"?>
<!-- Generator: Adobe Illustrator 21.0.0, SVG Export Plug-In . SVG Version: 6.00 Build 0)  -->
<svg version="1.1" id="图层_1" xmlns="http://www.w3.org/2000/svg" xmlns:xlink="http://www.w3.org/1999/xlink" x="0px" y="0px"
	 viewBox="0 0 325 80.4" style="enable-background:new 0 0 325 80.4;" xml:space="preserve">
<style type="text/css">
	.st0{enable-background:new    ;}
	.st1{font-family:'KaiTi';}
	.st2{font-size:10px;}
	.st3{font-family:'DFKaiShu-SB-Estd-BF';}
	.st4{letter-spacing:5;}
	.st5{fill:none;}
	.st6{fill:none;stroke:#000000;stroke-width:0.5;stroke-miterlimit:10;}
</style>
<text transform="matrix(1 0 0 1 1.831055e-04 8.5937)" class="st0"><tspan x="0" y="0" class="st1 st2">设我得佛</tspan><tspan x="40" y="0" class="st3 st2">，</tspan><tspan x="50" y="0" class="st1 st2">十方众生</tspan><tspan x="90" y="0" class="st3 st2">，</tspan><tspan x="0" y="14" class="st1 st2">闻我名号</tspan><tspan x="40" y="14" class="st3 st2">，</tspan><tspan x="50" y="14" class="st1 st2">系念我国</tspan><tspan x="90" y="14" class="st3 st2">，</tspan><tspan x="100" y="14" class="st1 st2">植诸德本</tspan><tspan x="140" y="14" class="st1 st2 st4">  </tspan><tspan x="160" y="14" class="st1 st2">第一生</tspan><tspan x="190" y="14" class="st3 st2">，</tspan><tspan x="200" y="14" class="st1 st2">结缘下种</tspan><tspan x="240" y="14" class="st1 st2 st4">  </tspan><tspan x="260" y="14" class="st1 st2">过去</tspan><tspan x="280" y="14" class="st1 st2 st4">  </tspan><tspan x="300" y="14" class="st1 st2">现在</tspan><tspan x="0" y="28" class="st1 st2">至心回向</tspan><tspan x="40" y="28" class="st3 st2">，</tspan><tspan x="50" y="28" class="st1 st2">欲生我国</tspan><tspan x="90" y="28" class="st1 st2 st4">       </tspan><tspan x="160" y="28" class="st1 st2">第二生</tspan><tspan x="190" y="28" class="st3 st2">，</tspan><tspan x="200" y="28" class="st1 st2">缘种成熟</tspan><tspan x="240" y="28" class="st1 st2 st4">  </tspan><tspan x="260" y="28" class="st1 st2">现在</tspan><tspan x="280" y="28" class="st1 st2 st4">  </tspan><tspan x="300" y="28" class="st1 st2">未来</tspan><tspan x="0" y="42" class="st1 st2">不果遂者</tspan><tspan x="40" y="42" class="st3 st2">，</tspan><tspan x="50" y="42" class="st1 st2">不取正觉</tspan><tspan x="90" y="42" class="st1 st2 st4">       </tspan><tspan x="160" y="42" class="st1 st2">第三生</tspan><tspan x="190" y="42" class="st3 st2">，</tspan><tspan x="200" y="42" class="st1 st2">达成往生</tspan><tspan x="240" y="42" class="st1 st2 st4">  </tspan><tspan x="260" y="42" class="st1 st2">未来</tspan><tspan x="280" y="42" class="st1 st2 st4">  </tspan><tspan x="300" y="42" class="st1 st2">未来</tspan><tspan x="0" y="70" class="st1 st2 st4">                         </tspan><tspan x="250" y="70" class="st1 st2"> 过现门  现未门</tspan></text>
<line class="st5" x1="270" y1="56" x2="270" y2="68"/>
<line class="st5" x1="270" y1="58" x2="270" y2="70"/>
<line class="st6" x1="270.3" y1="54" x2="270.3" y2="68"/>
<line class="st6" x1="309.5" y1="54" x2="309.5" y2="68"/>
<line class="st6" x1="142" y1="18.4" x2="157" y2="18.4"/>
<line class="st6" x1="93" y1="32.4" x2="157" y2="32.4"/>
<line class="st6" x1="93" y1="46.4" x2="157" y2="46.4"/>
</svg>
