<?xml version="1.0" encoding="utf-8"?>
<!-- Generator: Adobe Illustrator 21.0.0, SVG Export Plug-In . SVG Version: 6.00 Build 0)  -->
<svg version="1.1" baseProfile="tiny" id="图层_1"
	 xmlns="http://www.w3.org/2000/svg" xmlns:xlink="http://www.w3.org/1999/xlink" x="0px" y="0px" viewBox="0 0 109.7 136.4"
	 overflow="scroll" xml:space="preserve">
<text transform="matrix(1 0 0 1 1.621246e-04 22.5939)" font-family="'KaiTi'" font-size="10px">设我得佛</text>
<text transform="matrix(1 0 0 1 1.621246e-04 36.5939)" font-family="'KaiTi'" font-size="10px">十方众生</text>
<text transform="matrix(1 0 0 1 1.621246e-04 50.5939)" font-family="'KaiTi'" font-size="10px">至心信乐</text>
<text transform="matrix(1 0 0 1 1.621246e-04 64.5939)" font-family="'KaiTi'" font-size="10px">欲生我国</text>
<text transform="matrix(1 0 0 1 1.621246e-04 78.5939)" font-family="'KaiTi'" font-size="10px">乃至十念</text>
<text transform="matrix(1 0 0 1 1.621246e-04 92.5939)" font-family="'KaiTi'" font-size="10px">若不生者</text>
<text transform="matrix(1 0 0 1 1.621246e-04 106.5939)" font-family="'KaiTi'" font-size="10px">不取正觉</text>
<text transform="matrix(1 0 0 1 1.621246e-04 120.5939)" font-family="'KaiTi'" font-size="10px">唯除五逆</text>
<text transform="matrix(1 0 0 1 1.621246e-04 134.5939)" font-family="'KaiTi'" font-size="10px">诽谤正法</text>
<text transform="matrix(1 0 0 1 69.6668 8.5941)" font-family="'KaiTi'" font-size="10px">诸有众生</text>
<text transform="matrix(1 0 0 1 69.6668 22.5941)" font-family="'KaiTi'" font-size="10px">闻其名号</text>
<text transform="matrix(1 0 0 1 69.6668 36.5941)" font-family="'KaiTi'" font-size="10px">信心欢喜</text>
<text transform="matrix(1 0 0 1 69.6668 50.5941)" font-family="'KaiTi'" font-size="10px">乃至一念</text>
<text transform="matrix(1 0 0 1 69.6668 64.5941)" font-family="'KaiTi'" font-size="10px">至心回向</text>
<text transform="matrix(1 0 0 1 69.6668 78.5941)" font-family="'KaiTi'" font-size="10px">愿生彼国</text>
<text transform="matrix(1 0 0 1 69.6668 92.5941)" font-family="'KaiTi'" font-size="10px">即得往生</text>
<text transform="matrix(1 0 0 1 69.6668 106.5941)" font-family="'KaiTi'" font-size="10px">住不退转</text>
<text transform="matrix(1 0 0 1 69.6668 120.5941)" font-family="'KaiTi'" font-size="10px">唯除五逆</text>
<text transform="matrix(1 0 0 1 69.6668 134.5941)" font-family="'KaiTi'" font-size="10px">诽谤正法</text>
<line fill="none" stroke="#000000" stroke-width="0.5" stroke-miterlimit="10" x1="66.7" y1="18.6" x2="43.2" y2="18.6"/>
<line fill="none" stroke="#000000" stroke-width="0.5" stroke-miterlimit="10" x1="66.7" y1="88.6" x2="43.2" y2="88.6"/>
<line fill="none" stroke="#000000" stroke-width="0.5" stroke-miterlimit="10" x1="66.7" y1="102.8" x2="43.2" y2="102.8"/>
<line fill="none" stroke="#000000" stroke-width="0.5" stroke-miterlimit="10" x1="66.7" y1="116.9" x2="43.2" y2="116.9"/>
<line fill="none" stroke="#000000" stroke-width="0.5" stroke-miterlimit="10" x1="66.7" y1="131.1" x2="43.2" y2="131.1"/>
<line fill="none" stroke="#000000" stroke-width="0.5" stroke-miterlimit="10" x1="43.2" y1="32.5" x2="66.7" y2="5.6"/>
<line fill="none" stroke="#000000" stroke-width="0.5" stroke-miterlimit="10" x1="43.2" y1="46.6" x2="66.7" y2="33.3"/>
<line fill="none" stroke="#000000" stroke-width="0.5" stroke-miterlimit="10" x1="43.2" y1="46.6" x2="66.7" y2="60.9"/>
<line fill="none" stroke="#000000" stroke-width="0.5" stroke-miterlimit="10" x1="43.2" y1="60.4" x2="66.7" y2="74.8"/>
<line fill="none" stroke="#000000" stroke-width="0.5" stroke-miterlimit="10" x1="43.2" y1="74.6" x2="66.7" y2="47.8"/>
</svg>
