<?xml version="1.0" encoding="utf-8"?>
<!-- Generator: Adobe Illustrator 21.0.0, SVG Export Plug-In . SVG Version: 6.00 Build 0)  -->
<svg version="1.1" id="圖層_1" xmlns="http://www.w3.org/2000/svg" xmlns:xlink="http://www.w3.org/1999/xlink" x="0px" y="0px"
	 viewBox="0 0 223.4 52.6" style="enable-background:new 0 0 223.4 52.6;" xml:space="preserve">
<style type="text/css">
	.st0{enable-background:new    ;}
	.st1{font-family:'KaiTi';}
	.st2{font-size:10px;}
	.st3{fill:none;stroke:#000000;stroke-width:0.5;stroke-miterlimit:10;}
	.st4{font-family:'DFKaiShu-SB-Estd-BF';}
</style>
<text transform="matrix(1 0 0 1 -1.220703e-04 8.594)" class="st0"><tspan x="0" y="0" class="st1 st2">釋迦本懷</tspan><tspan x="0" y="14" class="st1 st2">彌陀成佛因果</tspan><tspan x="0" y="28" class="st1 st2">眾生往生因果</tspan><tspan x="0" y="42" class="st1 st2">講釋迦佛的慇勤勸喻</tspan></text>
<line class="st3" x1="42.9" y1="4.4" x2="100.4" y2="4.4"/>
<line class="st3" x1="61.9" y1="18.7" x2="100.4" y2="18.7"/>
<line class="st3" x1="61.9" y1="33.1" x2="100.4" y2="33.1"/>
<line class="st3" x1="92.9" y1="47.1" x2="100.4" y2="47.1"/>
<text transform="matrix(1 0 0 1 103.4497 8.594)"><tspan x="0" y="0" class="st1 st2">第一點</tspan><tspan x="0" y="14" class="st1 st2">第二</tspan><tspan x="20" y="14" class="st4 st2">、</tspan><tspan x="30" y="14" class="st1 st2">第三點</tspan><tspan x="0" y="28" class="st1 st2">第四</tspan><tspan x="20" y="28" class="st4 st2">、</tspan><tspan x="30" y="28" class="st1 st2">第五</tspan><tspan x="50" y="28" class="st4 st2">、</tspan><tspan x="60" y="28" class="st1 st2">第六點</tspan><tspan x="0" y="42" class="st1 st2">第七</tspan><tspan x="20" y="42" class="st4 st2">、</tspan><tspan x="30" y="42" class="st1 st2">第八</tspan><tspan x="50" y="42" class="st4 st2">、</tspan><tspan x="60" y="42" class="st1 st2">第九</tspan><tspan x="80" y="42" class="st4 st2">、</tspan><tspan x="90" y="42" class="st1 st2">第十點</tspan></text>
</svg>
