<?xml version="1.0" encoding="utf-8"?>
<!-- Generator: Adobe Illustrator 21.0.0, SVG Export Plug-In . SVG Version: 6.00 Build 0)  -->
<svg version="1.1" baseProfile="tiny" id="图层_1"
	 xmlns="http://www.w3.org/2000/svg" xmlns:xlink="http://www.w3.org/1999/xlink" x="0px" y="0px" viewBox="0 0 300.5 52.4"
	 overflow="scroll" xml:space="preserve">
<text transform="matrix(1 0 0 1 30.5002 8.5939)" font-family="'KaiTi'" font-size="10px">第</text>
<text transform="matrix(1 0 0 1 40.5002 8.5939)" font-family="'KaiTi'" font-size="10px">十</text>
<text transform="matrix(1 0 0 1 50.5002 8.5939)" font-family="'KaiTi'" font-size="10px">八</text>
<text transform="matrix(1 0 0 1 60.5002 8.5939)" font-family="'KaiTi'" font-size="10px">愿</text>
<text transform="matrix(1 0 0 1 70.5002 8.5939)" font-family="'KaiTi'" font-size="10px"> </text>
<text transform="matrix(1 0 0 1 80.5002 8.5939)" font-family="'KaiTi'" font-size="10px">十</text>
<text transform="matrix(1 0 0 1 90.5002 8.5939)" font-family="'KaiTi'" font-size="10px">念</text>
<text transform="matrix(1 0 0 1 100.5002 8.5939)" font-family="'KaiTi'" font-size="10px">念</text>
<text transform="matrix(1 0 0 1 110.5002 8.5939)" font-family="'KaiTi'" font-size="10px">佛</text>
<text transform="matrix(1 0 0 1 120.5002 8.5939)" font-family="'KaiTi'" font-size="10px"> </text>
<text transform="matrix(1 0 0 1 130.5002 8.5939)" font-family="'KaiTi'" font-size="10px">五</text>
<text transform="matrix(1 0 0 1 140.5002 8.5939)" font-family="'KaiTi'" font-size="10px">念</text>
<text transform="matrix(1 0 0 1 150.5002 8.5939)" font-family="'KaiTi'" font-size="10px">门</text>
<text transform="matrix(1 0 0 1 160.5002 8.5939)" font-family="'KaiTi'" font-size="10px"> </text>
<text transform="matrix(1 0 0 1 170.5002 8.5939)" font-family="'KaiTi'" font-size="10px"> </text>
<text transform="matrix(1 0 0 1 180.5002 8.5939)" font-family="'KaiTi'" font-size="10px"> </text>
<text transform="matrix(1 0 0 1 190.5002 8.5939)" font-family="'KaiTi'" font-size="10px"> </text>
<text transform="matrix(1 0 0 1 200.5002 8.5939)" font-family="'KaiTi'" font-size="10px"> </text>
<text transform="matrix(1 0 0 1 210.5002 8.5939)" font-family="'KaiTi'" font-size="10px"> </text>
<text transform="matrix(1 0 0 1 220.5002 8.5939)" font-family="'KaiTi'" font-size="10px"> </text>
<text transform="matrix(1 0 0 1 230.5002 8.5939)" font-family="'KaiTi'" font-size="10px"> </text>
<text transform="matrix(1 0 0 1 240.5002 8.5939)" font-family="'KaiTi'" font-size="10px"> </text>
<text transform="matrix(1 0 0 1 250.5002 8.5939)" font-family="'KaiTi'" font-size="10px"> </text>
<text transform="matrix(1 0 0 1 260.5002 8.5939)" font-family="'KaiTi'" font-size="10px">行</text>
<text transform="matrix(1 0 0 1 30.5002 15.5939)" font-family="'KaiTi'" font-size="10px"> </text>
<text transform="matrix(1 0 0 1 40.5002 15.5939)" font-family="'KaiTi'" font-size="10px"> </text>
<text transform="matrix(1 0 0 1 50.5002 15.5939)" font-family="'KaiTi'" font-size="10px"> </text>
<text transform="matrix(1 0 0 1 60.5002 15.5939)" font-family="'KaiTi'" font-size="10px"> </text>
<text transform="matrix(1 0 0 1 70.5002 15.5939)" font-family="'KaiTi'" font-size="10px"> </text>
<text transform="matrix(1 0 0 1 80.5002 15.5939)" font-family="'KaiTi'" font-size="10px"> </text>
<text transform="matrix(1 0 0 1 90.5002 15.5939)" font-family="'KaiTi'" font-size="10px"> </text>
<text transform="matrix(1 0 0 1 100.5002 15.5939)" font-family="'KaiTi'" font-size="10px"> </text>
<text transform="matrix(1 0 0 1 110.5002 15.5939)" font-family="'KaiTi'" font-size="10px"> </text>
<text transform="matrix(1 0 0 1 120.5002 15.5939)" font-family="'KaiTi'" font-size="10px"> </text>
<text transform="matrix(1 0 0 1 130.5002 15.5939)" font-family="'KaiTi'" font-size="10px"> </text>
<text transform="matrix(1 0 0 1 140.5002 15.5939)" font-family="'KaiTi'" font-size="10px"> </text>
<text transform="matrix(1 0 0 1 150.5002 15.5939)" font-family="'KaiTi'" font-size="10px"> </text>
<text transform="matrix(1 0 0 1 160.5002 15.5939)" font-family="'KaiTi'" font-size="10px"> </text>
<text transform="matrix(1 0 0 1 170.5002 15.5939)" font-family="'KaiTi'" font-size="10px"> </text>
<text transform="matrix(1 0 0 1 180.5002 15.5939)" font-family="'KaiTi'" font-size="10px"> </text>
<text transform="matrix(1 0 0 1 190.5002 15.5939)" font-family="'KaiTi'" font-size="10px"> </text>
<text transform="matrix(1 0 0 1 200.5002 15.5939)" font-family="'KaiTi'" font-size="10px"> </text>
<text transform="matrix(1 0 0 1 210.5002 15.5939)" font-family="'KaiTi'" font-size="10px"> </text>
<text transform="matrix(1 0 0 1 220.5002 15.5939)" font-family="'KaiTi'" font-size="10px"> </text>
<text transform="matrix(1 0 0 1 230.5002 15.5939)" font-family="'KaiTi'" font-size="10px"> </text>
<text transform="matrix(1 0 0 1 240.5002 15.5939)" font-family="'KaiTi'" font-size="10px"> </text>
<text transform="matrix(1 0 0 1 250.5002 15.5939)" font-family="'KaiTi'" font-size="10px"> </text>
<text transform="matrix(1 0 0 1 260.5002 15.5939)" font-family="'KaiTi'" font-size="10px"> </text>
<text transform="matrix(1 0 0 1 270.5002 15.5939)" font-family="'KaiTi'" font-size="10px"> </text>
<text transform="matrix(1 0 0 1 280.5002 15.5939)" font-family="'KaiTi'" font-size="10px">当</text>
<text transform="matrix(1 0 0 1 290.5002 15.5939)" font-family="'KaiTi'" font-size="10px">生</text>
<text transform="matrix(1 0 0 1 30.5002 22.5939)" font-family="'KaiTi'" font-size="10px"> </text>
<text transform="matrix(1 0 0 1 40.5002 22.5939)" font-family="'KaiTi'" font-size="10px"> </text>
<text transform="matrix(1 0 0 1 50.5002 22.5939)" font-family="'KaiTi'" font-size="10px"> </text>
<text transform="matrix(1 0 0 1 60.5002 22.5939)" font-family="'KaiTi'" font-size="10px"> </text>
<text transform="matrix(1 0 0 1 70.5002 22.5939)" font-family="'KaiTi'" font-size="10px"> </text>
<text transform="matrix(1 0 0 1 80.5002 22.5939)" font-family="'KaiTi'" font-size="10px">正</text>
<text transform="matrix(1 0 0 1 90.5002 22.5939)" font-family="'KaiTi'" font-size="10px"> </text>
<text transform="matrix(1 0 0 1 95.5002 22.5939)" font-family="'KaiTi'" font-size="10px">定</text>
<text transform="matrix(1 0 0 1 105.5002 22.5939)" font-family="'KaiTi'" font-size="10px"> </text>
<text transform="matrix(1 0 0 1 110.5002 22.5939)" font-family="'KaiTi'" font-size="10px">聚</text>
<text transform="matrix(1 0 0 1 120.5002 22.5939)" font-family="'KaiTi'" font-size="10px"> </text>
<text transform="matrix(1 0 0 1 130.5002 22.5939)" font-family="'KaiTi'" font-size="10px">近</text>
<text transform="matrix(1 0 0 1 140.5002 22.5939)" font-family="'KaiTi'" font-size="10px">门</text>
<text transform="matrix(1 0 0 1 150.5002 22.5939)" font-family="'DFKaiShu-SB-Estd-BF'" font-size="10px">、</text>
<text transform="matrix(1 0 0 1 160.5002 22.5939)" font-family="'KaiTi'" font-size="10px">大</text>
<text transform="matrix(1 0 0 1 170.5002 22.5939)" font-family="'KaiTi'" font-size="10px">会</text>
<text transform="matrix(1 0 0 1 180.5002 22.5939)" font-family="'KaiTi'" font-size="10px">众</text>
<text transform="matrix(1 0 0 1 190.5002 22.5939)" font-family="'KaiTi'" font-size="10px">门</text>
<text transform="matrix(1 0 0 1 30.5002 29.5939)" font-family="'KaiTi'" font-size="10px">第</text>
<text transform="matrix(1 0 0 1 40.5002 29.5939)" font-family="'KaiTi'" font-size="10px">十</text>
<text transform="matrix(1 0 0 1 50.5002 29.5939)" font-family="'KaiTi'" font-size="10px">一</text>
<text transform="matrix(1 0 0 1 60.5002 29.5939)" font-family="'KaiTi'" font-size="10px">愿</text>
<text transform="matrix(1 0 0 1 70.5002 29.5939)" font-family="'KaiTi'" font-size="10px"> </text>
<text transform="matrix(1 0 0 1 80.5002 29.5939)" font-family="'KaiTi'" font-size="10px"> </text>
<text transform="matrix(1 0 0 1 90.5002 29.5939)" font-family="'KaiTi'" font-size="10px"> </text>
<text transform="matrix(1 0 0 1 100.5002 29.5939)" font-family="'KaiTi'" font-size="10px"> </text>
<text transform="matrix(1 0 0 1 110.5002 29.5939)" font-family="'KaiTi'" font-size="10px"> </text>
<text transform="matrix(1 0 0 1 120.5002 29.5939)" font-family="'KaiTi'" font-size="10px"> </text>
<text transform="matrix(1 0 0 1 130.5002 29.5939)" font-family="'KaiTi'" font-size="10px"> </text>
<text transform="matrix(1 0 0 1 140.5002 29.5939)" font-family="'KaiTi'" font-size="10px"> </text>
<text transform="matrix(1 0 0 1 150.5002 29.5939)" font-family="'KaiTi'" font-size="10px"> </text>
<text transform="matrix(1 0 0 1 160.5002 29.5939)" font-family="'KaiTi'" font-size="10px"> </text>
<text transform="matrix(1 0 0 1 170.5002 29.5939)" font-family="'KaiTi'" font-size="10px"> </text>
<text transform="matrix(1 0 0 1 180.5002 29.5939)" font-family="'KaiTi'" font-size="10px"> </text>
<text transform="matrix(1 0 0 1 190.5002 29.5939)" font-family="'KaiTi'" font-size="10px"> </text>
<text transform="matrix(1 0 0 1 200.5002 29.5939)" font-family="'KaiTi'" font-size="10px"> </text>
<text transform="matrix(1 0 0 1 210.5002 29.5939)" font-family="'KaiTi'" font-size="10px"> </text>
<text transform="matrix(1 0 0 1 220.5002 29.5939)" font-family="'KaiTi'" font-size="10px"> </text>
<text transform="matrix(1 0 0 1 230.5002 29.5939)" font-family="'KaiTi'" font-size="10px"> </text>
<text transform="matrix(1 0 0 1 240.5002 29.5939)" font-family="'KaiTi'" font-size="10px"> </text>
<text transform="matrix(1 0 0 1 250.5002 29.5939)" font-family="'KaiTi'" font-size="10px"> </text>
<text transform="matrix(1 0 0 1 260.5002 29.5939)" font-family="'KaiTi'" font-size="10px"> </text>
<text transform="matrix(1 0 0 1 270.5002 29.5939)" font-family="'KaiTi'" font-size="10px"> </text>
<text transform="matrix(1 0 0 1 280.5002 29.5939)" font-family="'KaiTi'" font-size="10px">信</text>
<text transform="matrix(1 0 0 1 290.5002 29.5939)" font-family="'KaiTi'" font-size="10px">心</text>
<text transform="matrix(1 0 0 1 30.5002 36.5939)" font-family="'KaiTi'" font-size="10px"> </text>
<text transform="matrix(1 0 0 1 40.5002 36.5939)" font-family="'KaiTi'" font-size="10px"> </text>
<text transform="matrix(1 0 0 1 50.5002 36.5939)" font-family="'KaiTi'" font-size="10px"> </text>
<text transform="matrix(1 0 0 1 60.5002 36.5939)" font-family="'KaiTi'" font-size="10px"> </text>
<text transform="matrix(1 0 0 1 70.5002 36.5939)" font-family="'KaiTi'" font-size="10px"> </text>
<text transform="matrix(1 0 0 1 80.5002 36.5939)" font-family="'KaiTi'" font-size="10px">灭</text>
<text transform="matrix(1 0 0 1 90.5002 36.5939)" font-family="'KaiTi'" font-size="10px"> </text>
<text transform="matrix(1 0 0 1 100.5002 36.5939)" font-family="'KaiTi'" font-size="10px"> </text>
<text transform="matrix(1 0 0 1 110.5002 36.5939)" font-family="'KaiTi'" font-size="10px">度</text>
<text transform="matrix(1 0 0 1 120.5002 36.5939)" font-family="'KaiTi'" font-size="10px"> </text>
<text transform="matrix(1 0 0 1 130.5002 36.5939)" font-family="'KaiTi'" font-size="10px">宅</text>
<text transform="matrix(1 0 0 1 140.5002 36.5939)" font-family="'KaiTi'" font-size="10px"> </text>
<text transform="matrix(1 0 0 1 150.5002 36.5939)" font-family="'KaiTi'" font-size="10px">门</text>
<text transform="matrix(1 0 0 1 160.5002 36.5939)" font-family="'DFKaiShu-SB-Estd-BF'" font-size="10px">、</text>
<text transform="matrix(1 0 0 1 170.5002 36.5939)" font-family="'KaiTi'" font-size="10px">屋</text>
<text transform="matrix(1 0 0 1 180.5002 36.5939)" font-family="'KaiTi'" font-size="10px"> </text>
<text transform="matrix(1 0 0 1 190.5002 36.5939)" font-family="'KaiTi'" font-size="10px">门</text>
<text transform="matrix(1 0 0 1 200.5002 36.5939)" font-family="'KaiTi'" font-size="10px"> </text>
<text transform="matrix(1 0 0 1 210.5002 36.5939)" font-family="'KaiTi'" font-size="10px">五</text>
<text transform="matrix(1 0 0 1 220.5002 36.5939)" font-family="'KaiTi'" font-size="10px">功</text>
<text transform="matrix(1 0 0 1 230.5002 36.5939)" font-family="'KaiTi'" font-size="10px">德</text>
<text transform="matrix(1 0 0 1 240.5002 36.5939)" font-family="'KaiTi'" font-size="10px">门</text>
<text transform="matrix(1 0 0 1 250.5002 36.5939)" font-family="'KaiTi'" font-size="10px"> </text>
<text transform="matrix(1 0 0 1 260.5002 36.5939)" font-family="'KaiTi'" font-size="10px">证</text>
<text transform="matrix(1 0 0 1 30.5002 50.5939)" font-family="'KaiTi'" font-size="10px">第</text>
<text transform="matrix(1 0 0 1 40.5002 50.5939)" font-family="'KaiTi'" font-size="10px">二</text>
<text transform="matrix(1 0 0 1 50.5002 50.5939)" font-family="'KaiTi'" font-size="10px">二</text>
<text transform="matrix(1 0 0 1 60.5002 50.5939)" font-family="'KaiTi'" font-size="10px">愿</text>
<text transform="matrix(1 0 0 1 70.5002 50.5939)" font-family="'KaiTi'" font-size="10px"> </text>
<text transform="matrix(1 0 0 1 80.5002 50.5939)" font-family="'KaiTi'" font-size="10px">还</text>
<text transform="matrix(1 0 0 1 90.5002 50.5939)" font-family="'KaiTi'" font-size="10px">来</text>
<text transform="matrix(1 0 0 1 100.5002 50.5939)" font-family="'KaiTi'" font-size="10px">度</text>
<text transform="matrix(1 0 0 1 110.5002 50.5939)" font-family="'KaiTi'" font-size="10px">人</text>
<text transform="matrix(1 0 0 1 120.5002 50.5939)" font-family="'KaiTi'" font-size="10px"> </text>
<text transform="matrix(1 0 0 1 130.5002 50.5939)" font-family="'KaiTi'" font-size="10px">园</text>
<text transform="matrix(1 0 0 1 140.5002 50.5939)" font-family="'KaiTi'" font-size="10px">林</text>
<text transform="matrix(1 0 0 1 150.5002 50.5939)" font-family="'KaiTi'" font-size="10px">游</text>
<text transform="matrix(1 0 0 1 160.5002 50.5939)" font-family="'KaiTi'" font-size="10px">戏</text>
<text transform="matrix(1 0 0 1 170.5002 50.5939)" font-family="'KaiTi'" font-size="10px">地</text>
<text transform="matrix(1 0 0 1 180.5002 50.5939)" font-family="'KaiTi'" font-size="10px">门</text>
<g>
	<line fill="none" stroke="#000000" stroke-width="0.5" stroke-miterlimit="10" x1="25.7" y1="4.7" x2="25.7" y2="47.2"/>
	<line fill="none" stroke="#000000" stroke-width="0.5" stroke-miterlimit="10" x1="25.7" y1="4.7" x2="28.5" y2="4.7"/>
	<line fill="none" stroke="#000000" stroke-width="0.5" stroke-miterlimit="10" x1="25.7" y1="47.2" x2="28.5" y2="47.2"/>
	<line fill="none" stroke="#000000" stroke-width="0.5" stroke-miterlimit="10" x1="25.7" y1="26.4" x2="23" y2="26.4"/>
</g>
<line fill="none" stroke="#000000" stroke-width="0.5" stroke-miterlimit="10" x1="72.5" y1="4.7" x2="78" y2="4.7"/>
<line fill="none" stroke="#000000" stroke-width="0.5" stroke-miterlimit="10" x1="72.5" y1="47.2" x2="78" y2="47.2"/>
<g>
	<line fill="none" stroke="#000000" stroke-width="0.5" stroke-miterlimit="10" x1="75.3" y1="19.1" x2="75.3" y2="33.3"/>
	<line fill="none" stroke="#000000" stroke-width="0.5" stroke-miterlimit="10" x1="75.3" y1="19.1" x2="78" y2="19.1"/>
	<line fill="none" stroke="#000000" stroke-width="0.5" stroke-miterlimit="10" x1="75.3" y1="33.3" x2="78" y2="33.3"/>
	<line fill="none" stroke="#000000" stroke-width="0.5" stroke-miterlimit="10" x1="75.3" y1="26.4" x2="72.5" y2="26.4"/>
</g>
<line fill="none" stroke="#000000" stroke-width="0.5" stroke-miterlimit="10" x1="122.8" y1="4.7" x2="128.3" y2="4.7"/>
<line fill="none" stroke="#000000" stroke-width="0.5" stroke-miterlimit="10" x1="122.8" y1="19.1" x2="128.3" y2="19.1"/>
<line fill="none" stroke="#000000" stroke-width="0.5" stroke-miterlimit="10" x1="122.8" y1="33.3" x2="128.3" y2="33.3"/>
<line fill="none" stroke="#000000" stroke-width="0.5" stroke-miterlimit="10" x1="122.8" y1="47.2" x2="128.3" y2="47.2"/>
<g>
	<line fill="none" stroke="#000000" stroke-width="0.5" stroke-miterlimit="10" x1="205" y1="47.2" x2="205" y2="19.1"/>
	<line fill="none" stroke="#000000" stroke-width="0.5" stroke-miterlimit="10" x1="205" y1="47.2" x2="191.5" y2="47.2"/>
	<line fill="none" stroke="#000000" stroke-width="0.5" stroke-miterlimit="10" x1="205" y1="19.1" x2="202.3" y2="19.1"/>
	<line fill="none" stroke="#000000" stroke-width="0.5" stroke-miterlimit="10" x1="205" y1="33.1" x2="207.8" y2="33.1"/>
</g>
<line fill="none" stroke="#000000" stroke-width="0.5" stroke-miterlimit="10" x1="252.6" y1="33.1" x2="258.1" y2="33.1"/>
<line fill="none" stroke="#000000" stroke-width="0.5" stroke-miterlimit="10" x1="161.6" y1="4.7" x2="258.1" y2="4.7"/>
<g>
	<line fill="none" stroke="#000000" stroke-width="0.5" stroke-miterlimit="10" x1="275.5" y1="33.3" x2="275.5" y2="5.2"/>
	<line fill="none" stroke="#000000" stroke-width="0.5" stroke-miterlimit="10" x1="275.5" y1="33.3" x2="272.7" y2="33.3"/>
	<line fill="none" stroke="#000000" stroke-width="0.5" stroke-miterlimit="10" x1="275.5" y1="5.2" x2="272.7" y2="5.2"/>
	<line fill="none" stroke="#000000" stroke-width="0.5" stroke-miterlimit="10" x1="275.5" y1="19.2" x2="278.2" y2="19.2"/>
</g>
<text transform="matrix(1 0 0 1 0 22.5944)" font-family="'KaiTi'" font-size="10px">他力</text>
<text transform="matrix(1 0 0 1 0 36.5939)" font-family="'KaiTi'" font-size="10px">可乘</text>
</svg>
