<?xml version="1.0" encoding="utf-8"?>
<!-- Generator: Adobe Illustrator 21.0.0, SVG Export Plug-In . SVG Version: 6.00 Build 0)  -->
<svg version="1.1" id="圖層_1" xmlns="http://www.w3.org/2000/svg" xmlns:xlink="http://www.w3.org/1999/xlink" x="0px" y="0px"
	 viewBox="0 0 331.4 58.8" style="enable-background:new 0 0 331.4 58.8;" xml:space="preserve">
<style type="text/css">
	.st0{font-family:'KaiTi';}
	.st1{font-size:10px;}
	.st2{font-family:'DFKaiShu-SB-Estd-BF';}
	.st3{fill:none;stroke:#040000;stroke-width:0.5;stroke-miterlimit:10;}
	.st4{fill:none;stroke:#000000;stroke-width:0.5;stroke-miterlimit:10;}
</style>
<text transform="matrix(1 0 0 1 131.375 8.5938)"><tspan x="0" y="0" class="st0 st1">不具三心</tspan><tspan x="40" y="0" class="st2 st1">，</tspan><tspan x="50" y="0" class="st0 st1">雜毒虛假</tspan><tspan x="90" y="0" class="st2 st1">，</tspan><tspan x="100" y="0" class="st0 st1">不乘佛願</tspan><tspan x="140" y="0" class="st2 st1">，</tspan><tspan x="150" y="0" class="st0 st1">不得往生</tspan><tspan x="190" y="0" class="st2 st1">。</tspan><tspan x="0" y="14" class="st0 st1">具足三心</tspan><tspan x="40" y="14" class="st2 st1">，</tspan><tspan x="50" y="14" class="st0 st1">一心歸佛</tspan><tspan x="90" y="14" class="st2 st1">，</tspan><tspan x="100" y="14" class="st0 st1">乘佛願力</tspan><tspan x="140" y="14" class="st2 st1">，</tspan><tspan x="150" y="14" class="st0 st1">即得往生</tspan><tspan x="190" y="14" class="st2 st1">。</tspan></text>
<g>
	<line class="st3" x1="122.5" y1="12" x2="125.4" y2="12"/>
	<line class="st3" x1="125.4" y1="4.7" x2="128.3" y2="4.7"/>
	<line class="st3" x1="125.4" y1="19.6" x2="128.3" y2="19.6"/>
	<line class="st3" x1="125.4" y1="4.5" x2="125.4" y2="19.6"/>
</g>
<text transform="matrix(1 0 0 1 0 8.5938)"><tspan x="0" y="0" class="st0 st1">修定散二行</tspan><tspan x="0" y="14" class="st0 st1">欲斷惑證真</tspan></text>
<g>
	<g>
		<line class="st4" x1="39" y1="53.2" x2="77.4" y2="53.2"/>
		<g>
			<polygon points="80.9,53.2 75.9,55.2 77.1,53.2 75.9,51.1 			"/>
		</g>
	</g>
</g>
<text transform="matrix(1 0 0 1 69 8.5938)"><tspan x="0" y="0" class="st0 st1">迴定散二行</tspan><tspan x="0" y="14" class="st0 st1"> 求願往生</tspan><tspan x="0" y="28" class="st0 st1"> </tspan></text>
<text transform="matrix(1 0 0 1 39 48)" class="st0 st1">迴轉趨向</text>
<g>
	<g>
		<line class="st4" x1="53" y1="12.2" x2="62.4" y2="12.2"/>
		<g>
			<polygon points="65.9,12.2 60.9,14.2 62.1,12.2 60.9,10.1 			"/>
		</g>
	</g>
</g>
<text transform="matrix(1 0 0 1 11 57)" class="st0 st1">聖 道</text>
<text transform="matrix(1 0 0 1 83.9167 57)" class="st0 st1">要 門 </text>
<g>
	<g>
		<line class="st4" x1="111.5" y1="53.2" x2="149.9" y2="53.2"/>
		<g>
			<polygon points="153.4,53.2 148.4,55.2 149.6,53.2 148.4,51.1 			"/>
		</g>
	</g>
</g>
<text transform="matrix(1 0 0 1 156.4168 57)" class="st0 st1">弘 願</text>
</svg>
