<?xml version="1.0" encoding="utf-8"?>
<!-- Generator: Adobe Illustrator 21.0.0, SVG Export Plug-In . SVG Version: 6.00 Build 0)  -->
<svg version="1.1" id="圖層_1" xmlns="http://www.w3.org/2000/svg" xmlns:xlink="http://www.w3.org/1999/xlink" x="0px" y="0px"
	 viewBox="0 0 171.4 24.4" style="enable-background:new 0 0 171.4 24.4;" xml:space="preserve">
<style type="text/css">
	.st0{font-family:'KaiTi';}
	.st1{font-size:10px;}
	.st2{letter-spacing:5;}
	.st3{fill:none;stroke:#000000;stroke-width:0.5;stroke-miterlimit:10;}
</style>
<text transform="matrix(1 0 0 1 21.3587 8.5938)" class="st0 st1">真</text>
<text transform="matrix(1 0 0 1 31.3587 8.5938)" class="st0 st1">心</text>
<text transform="matrix(1 0 0 1 41.3587 8.5938)" class="st0 st1">—</text>
<text transform="matrix(1 0 0 1 51.3587 8.5938)" class="st0 st1">攝</text>
<text transform="matrix(1 0 0 1 61.3587 8.5938)" class="st0 st1">緣</text>
<text transform="matrix(1 0 0 1 71.3587 8.5938)" class="st0 st1">從</text>
<text transform="matrix(1 0 0 1 81.3587 8.5938)" class="st0 st1">本</text>
<text transform="matrix(1 0 0 1 91.3587 8.5938)" class="st0 st1 st2"> </text>
<text transform="matrix(1 0 0 1 101.3587 8.5938)" class="st0 st1">心</text>
<text transform="matrix(1 0 0 1 111.3587 8.5938)" class="st0 st1">外</text>
<text transform="matrix(1 0 0 1 121.3587 8.5938)" class="st0 st1">無</text>
<text transform="matrix(1 0 0 1 131.3587 8.5938)" class="st0 st1">法</text>
<text transform="matrix(1 0 0 1 141.3587 8.5938)" class="st0 st1 st2"> </text>
<text transform="matrix(1 0 0 1 151.3587 8.5938)" class="st0 st1">上</text>
<text transform="matrix(1 0 0 1 161.3587 8.5938)" class="st0 st1">根</text>
<text transform="matrix(1 0 0 1 21.3587 22.5938)" class="st0 st1">妄</text>
<text transform="matrix(1 0 0 1 31.3587 22.5938)" class="st0 st1">心</text>
<text transform="matrix(1 0 0 1 41.3587 22.5938)" class="st0 st1">—</text>
<text transform="matrix(1 0 0 1 51.3587 22.5938)" class="st0 st1">二</text>
<text transform="matrix(1 0 0 1 61.3587 22.5938)" class="st0 st1">諦</text>
<text transform="matrix(1 0 0 1 71.3587 22.5938)" class="st0 st1">明</text>
<text transform="matrix(1 0 0 1 81.3587 22.5938)" class="st0 st1">義</text>
<text transform="matrix(1 0 0 1 91.3587 22.5938)" class="st0 st1 st2"> </text>
<text transform="matrix(1 0 0 1 101.3587 22.5938)" class="st0 st1">心</text>
<text transform="matrix(1 0 0 1 111.3587 22.5938)" class="st0 st1">外</text>
<text transform="matrix(1 0 0 1 121.3587 22.5938)" class="st0 st1">有</text>
<text transform="matrix(1 0 0 1 131.3587 22.5938)" class="st0 st1">法</text>
<text transform="matrix(1 0 0 1 141.3587 22.5938)" class="st0 st1 st2"> </text>
<text transform="matrix(1 0 0 1 151.3587 22.5938)" class="st0 st1">中</text>
<text transform="matrix(1 0 0 1 161.3587 22.5938)" class="st0 st1">下</text>
<text transform="matrix(1 0 0 1 -1.525879e-04 15.9451)" class="st0 st1">心</text>
<g>
	<line class="st3" x1="12.6" y1="12.5" x2="15.5" y2="12.5"/>
	<line class="st3" x1="15.4" y1="5.6" x2="18.3" y2="5.6"/>
	<line class="st3" x1="15.4" y1="19.8" x2="18.3" y2="19.8"/>
	<line class="st3" x1="15.5" y1="5.4" x2="15.5" y2="20"/>
</g>
</svg>
