<?xml version="1.0" encoding="utf-8"?>
<!-- Generator: Adobe Illustrator 21.0.0, SVG Export Plug-In . SVG Version: 6.00 Build 0)  -->
<svg version="1.1" baseProfile="tiny" id="圖層_1"
	 xmlns="http://www.w3.org/2000/svg" xmlns:xlink="http://www.w3.org/1999/xlink" x="0px" y="0px" viewBox="0 0 344.2 66.6"
	 overflow="scroll" xml:space="preserve">
<text transform="matrix(1 0 0 1 124.2084 8.5936)" font-family="'KaiTi'" font-size="10px">業障消除</text>
<text transform="matrix(1 0 0 1 164.2084 8.5936)" font-family="'DFKaiShu-SB-Estd-BF'" font-size="10px">、</text>
<text transform="matrix(1 0 0 1 174.2084 8.5936)" font-family="'KaiTi'" font-size="10px">福慧增長(滅罪)</text>
<text transform="matrix(1 0 0 1 124.2084 22.5936)" font-family="'KaiTi'" font-size="10px">彌陀光攝</text>
<text transform="matrix(1 0 0 1 164.2084 22.5936)" font-family="'DFKaiShu-SB-Estd-BF'" font-size="10px">、</text>
<text transform="matrix(1 0 0 1 174.2084 22.5936)" font-family="'KaiTi'" font-size="10px">諸佛護念</text>
<text transform="matrix(1 0 0 1 214.2084 22.5936)" font-family="'DFKaiShu-SB-Estd-BF'" font-size="10px">、</text>
<text transform="matrix(1 0 0 1 224.2084 22.5936)" font-family="'KaiTi'" font-size="10px">菩薩相隨</text>
<text transform="matrix(1 0 0 1 264.2084 22.5936)" font-family="'DFKaiShu-SB-Estd-BF'" font-size="10px">、</text>
<text transform="matrix(1 0 0 1 274.2084 22.5936)" font-family="'KaiTi'" font-size="10px">天神守衛(護念)</text>
<text transform="matrix(1 0 0 1 124.2084 36.5936)" font-family="'KaiTi'" font-size="10px">佛與聖眾</text>
<text transform="matrix(1 0 0 1 164.2084 36.5936)" font-family="'DFKaiShu-SB-Estd-BF'" font-size="10px">，</text>
<text transform="matrix(1 0 0 1 174.2084 36.5936)" font-family="'KaiTi'" font-size="10px">蓮臺來迎(見佛)</text>
<text transform="matrix(1 0 0 1 124.2084 50.5936)" font-family="'KaiTi'" font-size="10px">蒙佛加祐</text>
<text transform="matrix(1 0 0 1 164.2084 50.5936)" font-family="'DFKaiShu-SB-Estd-BF'" font-size="10px">，</text>
<text transform="matrix(1 0 0 1 174.2084 50.5936)" font-family="'KaiTi'" font-size="10px">正念往生(攝生)</text>
<text transform="matrix(1 0 0 1 91.7085 15.5936)" font-family="'KaiTi'" font-size="10px">平生</text>
<text transform="matrix(1 0 0 1 91.7085 43.5936)" font-family="'KaiTi'" font-size="10px">臨終</text>
<g>
	<line fill="none" stroke="#000000" stroke-width="0.5" stroke-miterlimit="10" x1="115.4" y1="11.6" x2="118.2" y2="11.6"/>
	<line fill="none" stroke="#000000" stroke-width="0.5" stroke-miterlimit="10" x1="118.2" y1="4.7" x2="121.1" y2="4.7"/>
	<line fill="none" stroke="#000000" stroke-width="0.5" stroke-miterlimit="10" x1="118.2" y1="18.9" x2="121.1" y2="18.9"/>
	<line fill="none" stroke="#000000" stroke-width="0.5" stroke-miterlimit="10" x1="118.2" y1="4.5" x2="118.2" y2="19.1"/>
</g>
<g>
	<line fill="none" stroke="#000000" stroke-width="0.5" stroke-miterlimit="10" x1="115.4" y1="40.1" x2="118.2" y2="40.1"/>
	<line fill="none" stroke="#000000" stroke-width="0.5" stroke-miterlimit="10" x1="118.2" y1="33.2" x2="121.1" y2="33.2"/>
	<line fill="none" stroke="#000000" stroke-width="0.5" stroke-miterlimit="10" x1="118.2" y1="47.4" x2="121.1" y2="47.4"/>
	<line fill="none" stroke="#000000" stroke-width="0.5" stroke-miterlimit="10" x1="118.2" y1="33" x2="118.2" y2="47.6"/>
</g>
<g>
	<line fill="none" stroke="#000000" stroke-width="0.5" stroke-miterlimit="10" x1="83.1" y1="26.2" x2="85.9" y2="26.2"/>
	<line fill="none" stroke="#000000" stroke-width="0.5" stroke-miterlimit="10" x1="85.9" y1="11.8" x2="88.8" y2="11.8"/>
	<line fill="none" stroke="#000000" stroke-width="0.5" stroke-miterlimit="10" x1="85.9" y1="40.1" x2="88.8" y2="40.1"/>
	<line fill="none" stroke="#000000" stroke-width="0.5" stroke-miterlimit="10" x1="85.9" y1="11.8" x2="85.9" y2="40.1"/>
</g>
<text transform="matrix(1 0 0 1 32.3752 29.5936)" font-family="'KaiTi'" font-size="10px">現</text>
<text transform="matrix(1 0 0 1 42.3752 29.5936)" font-family="'KaiTi'" font-size="10px">益</text>
<text transform="matrix(1 0 0 1 52.3752 29.5936)" font-family="'KaiTi'" font-size="10px">(</text>
<text transform="matrix(1 0 0 1 57.3752 29.5936)" font-family="'KaiTi'" font-size="10px">此</text>
<text transform="matrix(1 0 0 1 67.3752 29.5936)" font-family="'KaiTi'" font-size="10px">土</text>
<text transform="matrix(1 0 0 1 77.3752 29.5936)" font-family="'KaiTi'" font-size="10px">)</text>
<text transform="matrix(1 0 0 1 32.3752 64.5936)" font-family="'KaiTi'" font-size="10px">當</text>
<text transform="matrix(1 0 0 1 42.3752 64.5936)" font-family="'KaiTi'" font-size="10px">益</text>
<text transform="matrix(1 0 0 1 52.3752 64.5936)" font-family="'KaiTi'" font-size="10px">(</text>
<text transform="matrix(1 0 0 1 57.3752 64.5936)" font-family="'KaiTi'" font-size="10px">彼</text>
<text transform="matrix(1 0 0 1 67.3752 64.5936)" font-family="'KaiTi'" font-size="10px">土</text>
<text transform="matrix(1 0 0 1 77.3752 64.5936)" font-family="'KaiTi'" font-size="10px">)</text>
<text transform="matrix(1 0 0 1 82.3752 64.5936)" font-family="'KaiTi'" font-size="10px"> </text>
<text transform="matrix(1 0 0 1 92.3752 64.5936)" font-family="'KaiTi'" font-size="10px">速</text>
<text transform="matrix(1 0 0 1 102.3752 64.5936)" font-family="'KaiTi'" font-size="10px">成</text>
<text transform="matrix(1 0 0 1 112.3752 64.5936)" font-family="'KaiTi'" font-size="10px">佛</text>
<text transform="matrix(1 0 0 1 122.3752 64.5936)" font-family="'KaiTi'" font-size="10px">道</text>
<text transform="matrix(1 0 0 1 132.3752 64.5936)" font-family="'DFKaiShu-SB-Estd-BF'" font-size="10px">，</text>
<text transform="matrix(1 0 0 1 142.3752 64.5936)" font-family="'KaiTi'" font-size="10px">廣</text>
<text transform="matrix(1 0 0 1 152.3752 64.5936)" font-family="'KaiTi'" font-size="10px">度</text>
<text transform="matrix(1 0 0 1 162.3752 64.5936)" font-family="'KaiTi'" font-size="10px">眾</text>
<text transform="matrix(1 0 0 1 172.3752 64.5936)" font-family="'KaiTi'" font-size="10px">生</text>
<text transform="matrix(1 0 0 1 182.3752 64.5936)" font-family="'KaiTi'" font-size="10px">(</text>
<text transform="matrix(1 0 0 1 187.3756 64.5936)" font-family="'KaiTi'" font-size="10px">成</text>
<text transform="matrix(1 0 0 1 197.3756 64.5936)" font-family="'KaiTi'" font-size="10px">佛</text>
<text transform="matrix(1 0 0 1 207.3756 64.5936)" font-family="'KaiTi'" font-size="10px"> </text>
<text transform="matrix(1 0 0 1 217.3756 64.5936)" font-family="'KaiTi'" font-size="10px">與</text>
<text transform="matrix(1 0 0 1 227.3756 64.5936)" font-family="'KaiTi'" font-size="10px">彌</text>
<text transform="matrix(1 0 0 1 237.3756 64.5936)" font-family="'KaiTi'" font-size="10px">陀</text>
<text transform="matrix(1 0 0 1 247.3756 64.5936)" font-family="'KaiTi'" font-size="10px">同</text>
<text transform="matrix(1 0 0 1 257.3756 64.5936)" font-family="'KaiTi'" font-size="10px">證</text>
<text transform="matrix(1 0 0 1 267.3756 64.5936)" font-family="'KaiTi'" font-size="10px">無</text>
<text transform="matrix(1 0 0 1 277.3756 64.5936)" font-family="'KaiTi'" font-size="10px">量</text>
<text transform="matrix(1 0 0 1 287.3756 64.5936)" font-family="'KaiTi'" font-size="10px">光</text>
<text transform="matrix(1 0 0 1 297.3756 64.5936)" font-family="'KaiTi'" font-size="10px">壽</text>
<text transform="matrix(1 0 0 1 307.3756 64.5936)" font-family="'KaiTi'" font-size="10px">)</text>
<g>
	<line fill="none" stroke="#000000" stroke-width="0.5" stroke-miterlimit="10" x1="23.8" y1="43.9" x2="26.6" y2="43.9"/>
	<line fill="none" stroke="#000000" stroke-width="0.5" stroke-miterlimit="10" x1="26.6" y1="26.2" x2="29.5" y2="26.2"/>
	<line fill="none" stroke="#000000" stroke-width="0.5" stroke-miterlimit="10" x1="26.6" y1="61.7" x2="29.5" y2="61.7"/>
	<line fill="none" stroke="#000000" stroke-width="0.5" stroke-miterlimit="10" x1="26.6" y1="26.2" x2="26.6" y2="61.7"/>
</g>
<line fill="none" stroke="#000000" stroke-width="0.5" stroke-miterlimit="10" x1="83.9" y1="61.7" x2="89.4" y2="61.7"/>
<line fill="none" stroke="#000000" stroke-width="0.5" stroke-miterlimit="10" x1="210" y1="61.7" x2="215.5" y2="61.7"/>
<text transform="matrix(1 0 0 1 0 40.0936)" font-family="'KaiTi'" font-size="10px">現當</text>
<text transform="matrix(1 0 0 1 0 54.0936)" font-family="'KaiTi'" font-size="10px">二益</text>
</svg>
