<?xml version="1.0" encoding="utf-8"?>
<!-- Generator: Adobe Illustrator 21.0.0, SVG Export Plug-In . SVG Version: 6.00 Build 0)  -->
<svg version="1.1" baseProfile="tiny" id="圖層_1"
	 xmlns="http://www.w3.org/2000/svg" xmlns:xlink="http://www.w3.org/1999/xlink" x="0px" y="0px" viewBox="0 0 156 206.4"
	 overflow="scroll" xml:space="preserve">
<text transform="matrix(1 0 0 1 53.4999 8.594)" font-family="'KaiTi'" font-size="10px">一</text>
<text transform="matrix(1 0 0 1 63.4999 8.594)" font-family="'DFKaiShu-SB-Estd-BF'" font-size="10px">、</text>
<text transform="matrix(1 0 0 1 73.4999 8.594)" font-family="'KaiTi'" font-size="10px">彌陀住頂</text>
<text transform="matrix(1 0 0 1 53.4999 22.5935)" font-family="'KaiTi'" font-size="10px">二</text>
<text transform="matrix(1 0 0 1 63.4999 22.5935)" font-family="'DFKaiShu-SB-Estd-BF'" font-size="10px">、</text>
<text transform="matrix(1 0 0 1 73.4999 22.5935)" font-family="'KaiTi'" font-size="10px">佛光護身</text>
<text transform="matrix(1 0 0 1 53.4999 36.5935)" font-family="'KaiTi'" font-size="10px">三</text>
<text transform="matrix(1 0 0 1 63.4999 36.5935)" font-family="'DFKaiShu-SB-Estd-BF'" font-size="10px">、</text>
<text transform="matrix(1 0 0 1 73.4999 36.5935)" font-family="'KaiTi'" font-size="10px">諸佛護念</text>
<text transform="matrix(1 0 0 1 53.4999 50.5935)" font-family="'KaiTi'" font-size="10px">四</text>
<text transform="matrix(1 0 0 1 63.4999 50.5935)" font-family="'DFKaiShu-SB-Estd-BF'" font-size="10px">、</text>
<text transform="matrix(1 0 0 1 73.4999 50.5935)" font-family="'KaiTi'" font-size="10px">菩薩相隨</text>
<text transform="matrix(1 0 0 1 53.4999 64.5935)" font-family="'KaiTi'" font-size="10px">五</text>
<text transform="matrix(1 0 0 1 63.4999 64.5935)" font-family="'DFKaiShu-SB-Estd-BF'" font-size="10px">、</text>
<text transform="matrix(1 0 0 1 73.4999 64.5935)" font-family="'KaiTi'" font-size="10px">冥眾護持</text>
<text transform="matrix(1 0 0 1 53.4999 78.5935)" font-family="'KaiTi'" font-size="10px">六</text>
<text transform="matrix(1 0 0 1 63.4999 78.5935)" font-family="'DFKaiShu-SB-Estd-BF'" font-size="10px">、</text>
<text transform="matrix(1 0 0 1 73.4999 78.5935)" font-family="'KaiTi'" font-size="10px">消除罪障</text>
<text transform="matrix(1 0 0 1 53.4999 92.5935)" font-family="'KaiTi'" font-size="10px">七</text>
<text transform="matrix(1 0 0 1 63.4999 92.5935)" font-family="'DFKaiShu-SB-Estd-BF'" font-size="10px">、</text>
<text transform="matrix(1 0 0 1 73.4999 92.5935)" font-family="'KaiTi'" font-size="10px">增長福慧</text>
<text transform="matrix(1 0 0 1 53.4999 106.5935)" font-family="'KaiTi'" font-size="10px">八</text>
<text transform="matrix(1 0 0 1 63.4999 106.5935)" font-family="'DFKaiShu-SB-Estd-BF'" font-size="10px">、</text>
<text transform="matrix(1 0 0 1 73.4999 106.5935)" font-family="'KaiTi'" font-size="10px">離諸厄難</text>
<text transform="matrix(1 0 0 1 53.4999 120.5935)" font-family="'KaiTi'" font-size="10px">九</text>
<text transform="matrix(1 0 0 1 63.4999 120.5935)" font-family="'DFKaiShu-SB-Estd-BF'" font-size="10px">、</text>
<text transform="matrix(1 0 0 1 73.4999 120.5935)" font-family="'KaiTi'" font-size="10px">能得壽康</text>
<text transform="matrix(1 0 0 1 53.4999 134.5935)" font-family="'KaiTi'" font-size="10px">十</text>
<text transform="matrix(1 0 0 1 63.4999 134.5935)" font-family="'DFKaiShu-SB-Estd-BF'" font-size="10px">、</text>
<text transform="matrix(1 0 0 1 73.4999 134.5935)" font-family="'KaiTi'" font-size="10px">將獲善終</text>
<text transform="matrix(1 0 0 1 53.4999 148.5935)" font-family="'KaiTi'" font-size="10px">十一</text>
<text transform="matrix(1 0 0 1 73.4999 148.5935)" font-family="'DFKaiShu-SB-Estd-BF'" font-size="10px">、</text>
<text transform="matrix(1 0 0 1 83.4999 148.5935)" font-family="'KaiTi'" font-size="10px">入正定聚</text>
<text transform="matrix(1 0 0 1 53.4999 162.5935)" font-family="'KaiTi'" font-size="10px">十二</text>
<text transform="matrix(1 0 0 1 73.4999 162.5935)" font-family="'DFKaiShu-SB-Estd-BF'" font-size="10px">、</text>
<text transform="matrix(1 0 0 1 83.4999 162.5935)" font-family="'KaiTi'" font-size="10px">斷除輪迴</text>
<text transform="matrix(1 0 0 1 53.4999 176.5935)" font-family="'KaiTi'" font-size="10px">十三</text>
<text transform="matrix(1 0 0 1 73.4999 176.5935)" font-family="'DFKaiShu-SB-Estd-BF'" font-size="10px">、</text>
<text transform="matrix(1 0 0 1 83.4999 176.5935)" font-family="'KaiTi'" font-size="10px">往生淨土</text>
<text transform="matrix(1 0 0 1 53.4999 190.5935)" font-family="'KaiTi'" font-size="10px">十四</text>
<text transform="matrix(1 0 0 1 73.4999 190.5935)" font-family="'DFKaiShu-SB-Estd-BF'" font-size="10px">、</text>
<text transform="matrix(1 0 0 1 83.4999 190.5935)" font-family="'KaiTi'" font-size="10px">成就佛果</text>
<text transform="matrix(1 0 0 1 53.4999 204.5935)" font-family="'KaiTi'" font-size="10px">十五</text>
<text transform="matrix(1 0 0 1 73.4999 204.5935)" font-family="'DFKaiShu-SB-Estd-BF'" font-size="10px">、</text>
<text transform="matrix(1 0 0 1 83.4999 204.5935)" font-family="'KaiTi'" font-size="10px">廣度眾生</text>
<g>
	<line fill="none" stroke="#000000" stroke-width="0.5" stroke-miterlimit="10" x1="46.5" y1="5.2" x2="46.5" y2="201.6"/>
	<line fill="none" stroke="#000000" stroke-width="0.5" stroke-miterlimit="10" x1="46.5" y1="5.2" x2="50.2" y2="5.2"/>
	<line fill="none" stroke="#000000" stroke-width="0.5" stroke-miterlimit="10" x1="46.5" y1="201.6" x2="50.2" y2="201.6"/>
	<line fill="none" stroke="#000000" stroke-width="0.5" stroke-miterlimit="10" x1="46.6" y1="103.4" x2="42.8" y2="103.4"/>
</g>
<text transform="matrix(1 0 0 1 0 106.594)" font-family="'KaiTi'" font-size="10px">現當二益</text>
<g>
	<line fill="none" stroke="#000000" stroke-width="0.5" stroke-miterlimit="10" x1="130.1" y1="145.1" x2="130.1" y2="5.2"/>
	<line fill="none" stroke="#000000" stroke-width="0.5" stroke-miterlimit="10" x1="130.1" y1="145.1" x2="126.4" y2="145.1"/>
	<line fill="none" stroke="#000000" stroke-width="0.5" stroke-miterlimit="10" x1="129.7" y1="5.2" x2="115.7" y2="5.2"/>
	<line fill="none" stroke="#000000" stroke-width="0.5" stroke-miterlimit="10" x1="130" y1="75.1" x2="133.8" y2="75.1"/>
</g>
<g>
	<line fill="none" stroke="#000000" stroke-width="0.5" stroke-miterlimit="10" x1="130" y1="201.6" x2="130" y2="158.1"/>
	<line fill="none" stroke="#000000" stroke-width="0.5" stroke-miterlimit="10" x1="130.1" y1="201.6" x2="126.4" y2="201.6"/>
	<line fill="none" stroke="#000000" stroke-width="0.5" stroke-miterlimit="10" x1="130.1" y1="158.1" x2="126.4" y2="158.1"/>
	<line fill="none" stroke="#000000" stroke-width="0.5" stroke-miterlimit="10" x1="130" y1="179.8" x2="133.8" y2="179.8"/>
</g>
<text transform="matrix(1 0 0 1 136 78.594)" font-family="'KaiTi'" font-size="10px">現益</text>
<text transform="matrix(1 0 0 1 136 183.594)" font-family="'KaiTi'" font-size="10px">當益</text>
</svg>
