<?xml version="1.0" encoding="utf-8"?>
<!-- Generator: Adobe Illustrator 21.0.0, SVG Export Plug-In . SVG Version: 6.00 Build 0)  -->
<svg version="1.1" id="图层_1" xmlns="http://www.w3.org/2000/svg" xmlns:xlink="http://www.w3.org/1999/xlink" x="0px" y="0px"
	 viewBox="0 0 133.2 38.4" style="enable-background:new 0 0 133.2 38.4;" xml:space="preserve">
<style type="text/css">
	.st0{fill:none;stroke:#000000;stroke-width:0.5;stroke-miterlimit:10;}
	.st1{enable-background:new    ;}
	.st2{font-family:'KaiTi';}
	.st3{font-size:10px;}
</style>
<g>
	<line class="st0" x1="0.3" y1="4.4" x2="0.3" y2="33.1"/>
	<line class="st0" x1="0.3" y1="4.4" x2="4" y2="4.4"/>
	<line class="st0" x1="0.3" y1="33.1" x2="4" y2="33.1"/>
	<line class="st0" x1="4.3" y1="18.7" x2="0.5" y2="18.7"/>
</g>
<text transform="matrix(1 0 0 1 6.4667 8.594)" class="st1"><tspan x="0" y="0" class="st2 st3">何故依</tspan><tspan x="0" y="14" class="st2 st3">何所依</tspan><tspan x="0" y="28" class="st2 st3">云何依</tspan></text>
<line class="st0" x1="39.4" y1="4.4" x2="46.9" y2="4.4"/>
<line class="st0" x1="39.4" y1="18.7" x2="46.9" y2="18.7"/>
<line class="st0" x1="39.4" y1="33.1" x2="46.9" y2="33.1"/>
<text transform="matrix(1 0 0 1 49.9164 8.5938)" class="st1"><tspan x="0" y="0" class="st2 st3">教相判释</tspan><tspan x="0" y="14" class="st2 st3">正依经典</tspan><tspan x="0" y="28" class="st2 st3">相承论释</tspan></text>
<line class="st0" x1="92.7" y1="4.3" x2="100.2" y2="4.3"/>
<line class="st0" x1="92.7" y1="18.7" x2="100.2" y2="18.7"/>
<line class="st0" x1="92.7" y1="33.1" x2="100.2" y2="33.1"/>
<text transform="matrix(1 0 0 1 103.1664 8.5938)" class="st1"><tspan x="0" y="0" class="st2 st3">为什麽</tspan><tspan x="0" y="14" class="st2 st3">是什麽</tspan><tspan x="0" y="28" class="st2 st3">怎麽样</tspan></text>
</svg>
