<?xml version="1.0" encoding="utf-8"?>
<!-- Generator: Adobe Illustrator 16.0.0, SVG Export Plug-In . SVG Version: 6.00 Build 0)  -->
<!DOCTYPE svg PUBLIC "-//W3C//DTD SVG 1.1//EN" "http://www.w3.org/Graphics/SVG/1.1/DTD/svg11.dtd">
<svg version="1.1" id="图层_1" xmlns="http://www.w3.org/2000/svg" xmlns:xlink="http://www.w3.org/1999/xlink" x="0px" y="0px"
	 width="252.295px" height="39.009px" viewBox="0 0 252.295 39.009" enable-background="new 0 0 252.295 39.009"
	 xml:space="preserve">
<text transform="matrix(1 0 0 1 0 24.5781)" font-family="'KaiTi'" font-size="10">六字三义</text>
<text transform="matrix(1 0 0 1 48.4624 36.7432)" font-family="'KaiTi'" font-size="10">阿弥陀佛</text>
<text transform="matrix(1 0 0 1 100.5933 8.5938)"><tspan x="0" y="0" font-family="'KaiTi'" font-size="10" letter-spacing="20">归命</tspan><tspan x="0" y="14" font-family="'KaiTi'" font-size="10">发愿回向</tspan><tspan x="0" y="28" font-family="'KaiTi'" font-size="10">即是其行</tspan></text>
<text transform="matrix(1 0 0 1 152.8916 8.5938)"><tspan x="0" y="0" font-family="'KaiTi'" font-size="10">信</tspan><tspan x="0" y="14" font-family="'KaiTi'" font-size="10">愿</tspan><tspan x="0" y="28" font-family="'KaiTi'" font-size="10">行</tspan></text>
<g>
	<line fill="none" stroke="#000000" stroke-width="0.5" stroke-miterlimit="10" x1="40.938" y1="21.49" x2="43.833" y2="21.49"/>
	<line fill="none" stroke="#000000" stroke-width="0.5" stroke-miterlimit="10" x1="43.833" y1="10.161" x2="46.729" y2="10.161"/>
	<line fill="none" stroke="#000000" stroke-width="0.5" stroke-miterlimit="10" x1="43.833" y1="33.192" x2="46.729" y2="33.192"/>
	<line fill="none" stroke="#000000" stroke-width="0.5" stroke-miterlimit="10" x1="43.833" y1="9.905" x2="43.833" y2="33.476"/>
</g>
<line fill="none" stroke="#000000" stroke-width="0.5" stroke-miterlimit="10" x1="91.107" y1="11.827" x2="94.003" y2="11.827"/>
<line fill="none" stroke="#000000" stroke-width="0.5" stroke-miterlimit="10" x1="94.003" y1="4.911" x2="96.899" y2="4.911"/>
<line fill="none" stroke="#000000" stroke-width="0.5" stroke-miterlimit="10" x1="94.003" y1="19.077" x2="96.899" y2="19.077"/>
<line fill="none" stroke="#000000" stroke-width="0.5" stroke-miterlimit="10" x1="94.003" y1="4.655" x2="94.003" y2="19.327"/>
<line fill="none" stroke="#000000" stroke-width="0.5" stroke-miterlimit="10" x1="91.107" y1="33.475" x2="96.897" y2="33.475"/>
<line fill="none" stroke="#000000" stroke-width="0.5" stroke-miterlimit="10" x1="143.982" y1="33.475" x2="149.749" y2="33.475"/>
<line fill="none" stroke="#000000" stroke-width="0.5" stroke-miterlimit="10" x1="143.982" y1="5.173" x2="149.769" y2="5.173"/>
<line fill="none" stroke="#000000" stroke-width="0.5" stroke-miterlimit="10" x1="143.982" y1="19.077" x2="149.769" y2="19.077"/>
<line fill="none" stroke="#000000" stroke-width="0.5" stroke-miterlimit="10" x1="204.911" y1="14.664" x2="210.705" y2="14.664"/>
<line fill="none" stroke="#000000" stroke-width="0.5" stroke-miterlimit="10" x1="204.911" y1="28.831" x2="210.705" y2="28.831"/>
<text transform="matrix(1 0 0 1 48.4624 14.4028)" font-family="'KaiTi'" font-size="10" letter-spacing="20">南无</text>
<text transform="matrix(1 0 0 1 173.479 17.9941)"><tspan x="0" y="0" font-family="'KaiTi'" font-size="10">机法门</tspan><tspan x="0" y="14" font-family="'KaiTi'" font-size="10">愿行门</tspan></text>
<text transform="matrix(1 0 0 1 212.2954 17.9941)"><tspan x="0" y="0" font-family="'KaiTi'" font-size="10">机法一体</tspan><tspan x="0" y="14" font-family="'KaiTi'" font-size="10">愿行具足</tspan></text>
<line fill="none" stroke="#000000" stroke-width="0.5" stroke-miterlimit="10" x1="164.749" y1="5.173" x2="170.515" y2="14.577"/>
<line fill="none" stroke="#000000" stroke-width="0.5" stroke-miterlimit="10" x1="164.749" y1="33.521" x2="170.515" y2="14.577"/>
<line fill="none" stroke="#000000" stroke-width="0.5" stroke-miterlimit="10" x1="164.749" y1="19.327" x2="170.582" y2="28.749"/>
<line fill="none" stroke="#000000" stroke-width="0.5" stroke-miterlimit="10" x1="164.749" y1="33.475" x2="170.457" y2="28.577"/>
</svg>
