<?xml version="1.0" encoding="utf-8"?>
<!-- Generator: Adobe Illustrator 16.0.0, SVG Export Plug-In . SVG Version: 6.00 Build 0)  -->
<!DOCTYPE svg PUBLIC "-//W3C//DTD SVG 1.1//EN" "http://www.w3.org/Graphics/SVG/1.1/DTD/svg11.dtd">
<svg version="1.1" id="图层_1" xmlns="http://www.w3.org/2000/svg" xmlns:xlink="http://www.w3.org/1999/xlink" x="0px" y="0px"
	 width="245.243px" height="39.009px" viewBox="0 0 245.243 39.009" enable-background="new 0 0 245.243 39.009"
	 xml:space="preserve">
<g>
	<text transform="matrix(1 0 0 1 0 24.5781)" font-family="'FZKTK--GBK1-0'" font-size="10">六字三义</text>
	<text transform="matrix(1 0 0 1 50.73 36.7432)" font-family="'FZKTK--GBK1-0'" font-size="10">阿弥陀佛</text>
	<text transform="matrix(1 0 0 1 102.8608 8.5938)"><tspan x="0" y="0" font-family="'FZKTK--GBK1-0'" font-size="10" letter-spacing="20">归命</tspan><tspan x="0" y="14" font-family="'FZKTK--GBK1-0'" font-size="10">发愿回向</tspan><tspan x="0" y="28" font-family="'FZKTK--GBK1-0'" font-size="10">即是其行</tspan></text>
	<text transform="matrix(1 0 0 1 155.1592 8.5938)"><tspan x="0" y="0" font-family="'FZKTK--GBK1-0'" font-size="10">信</tspan><tspan x="0" y="14" font-family="'FZKTK--GBK1-0'" font-size="10">愿</tspan><tspan x="0" y="28" font-family="'FZKTK--GBK1-0'" font-size="10">行</tspan></text>
	<text transform="matrix(1 0 0 1 175.2427 22.5938)" font-family="'FZKTK--GBK1-0'" font-size="10">往生净土三资粮</text>
	<g>
		<line fill="none" stroke="#000000" stroke-width="0.5" stroke-miterlimit="10" x1="41.787" y1="21.49" x2="44.683" y2="21.49"/>
		<line fill="none" stroke="#000000" stroke-width="0.5" stroke-miterlimit="10" x1="44.683" y1="10.161" x2="47.579" y2="10.161"/>
		<line fill="none" stroke="#000000" stroke-width="0.5" stroke-miterlimit="10" x1="44.683" y1="33.192" x2="47.579" y2="33.192"/>
		<line fill="none" stroke="#000000" stroke-width="0.5" stroke-miterlimit="10" x1="44.683" y1="9.905" x2="44.683" y2="33.476"/>
	</g>
	<line fill="none" stroke="#000000" stroke-width="0.5" stroke-miterlimit="10" x1="93.375" y1="11.827" x2="96.271" y2="11.827"/>
	<line fill="none" stroke="#000000" stroke-width="0.5" stroke-miterlimit="10" x1="96.271" y1="4.911" x2="99.167" y2="4.911"/>
	<line fill="none" stroke="#000000" stroke-width="0.5" stroke-miterlimit="10" x1="96.271" y1="19.077" x2="99.167" y2="19.077"/>
	<line fill="none" stroke="#000000" stroke-width="0.5" stroke-miterlimit="10" x1="96.271" y1="4.655" x2="96.271" y2="19.327"/>
	<line fill="none" stroke="#000000" stroke-width="0.5" stroke-miterlimit="10" x1="93.375" y1="33.475" x2="99.165" y2="33.475"/>
	<line fill="none" stroke="#000000" stroke-width="0.5" stroke-miterlimit="10" x1="146.25" y1="33.475" x2="152.016" y2="33.475"/>
	<line fill="none" stroke="#000000" stroke-width="0.5" stroke-miterlimit="10" x1="146.25" y1="5.173" x2="152.037" y2="5.173"/>
	<line fill="none" stroke="#000000" stroke-width="0.5" stroke-miterlimit="10" x1="146.25" y1="19.077" x2="152.037" y2="19.077"/>
	<text transform="matrix(1 0 0 1 50.73 14.4028)" font-family="'FZKTK--GBK1-0'" font-size="10" letter-spacing="20">南无</text>
	<g>
		
			<line fill="none" stroke="#000000" stroke-width="0.5" stroke-miterlimit="10" x1="170.601" y1="19.359" x2="173.496" y2="19.359"/>
		<line fill="none" stroke="#000000" stroke-width="0.5" stroke-miterlimit="10" x1="167.704" y1="5.597" x2="170.6" y2="5.597"/>
		<line fill="none" stroke="#000000" stroke-width="0.5" stroke-miterlimit="10" x1="167.704" y1="33.047" x2="170.6" y2="33.047"/>
		<line fill="none" stroke="#000000" stroke-width="0.5" stroke-miterlimit="10" x1="170.6" y1="5.389" x2="170.6" y2="33.266"/>
	</g>
</g>
</svg>
