<?xml version="1.0" encoding="utf-8"?>
<!-- Generator: Adobe Illustrator 21.0.0, SVG Export Plug-In . SVG Version: 6.00 Build 0)  -->
<svg version="1.1" id="圖層_1" xmlns="http://www.w3.org/2000/svg" xmlns:xlink="http://www.w3.org/1999/xlink" x="0px" y="0px"
	 viewBox="0 0 210.6 146.6" style="enable-background:new 0 0 210.6 146.6;" xml:space="preserve">
<style type="text/css">
	.st0{enable-background:new    ;}
	.st1{font-family:'KaiTi';}
	.st2{font-size:10px;}
	.st3{fill:none;stroke:#000000;stroke-width:0.5;stroke-miterlimit:10;}
	.st4{font-family:'DFKaiShu-SB-Estd-BF';}
</style>
<text transform="matrix(1 0 0 1 32.5 8.5938)" class="st0"><tspan x="0" y="0" class="st1 st2">有念佛</tspan><tspan x="0" y="14" class="st1 st2">未念佛有信願</tspan></text>
<line class="st3" x1="64.8" y1="4.5" x2="101.9" y2="4.5"/>
<line class="st3" x1="94.8" y1="18.8" x2="102.3" y2="18.8"/>
<g>
	<line class="st3" x1="26.4" y1="4.5" x2="26.4" y2="19"/>
	<line class="st3" x1="26.4" y1="4.5" x2="30.2" y2="4.5"/>
	<line class="st3" x1="26.4" y1="19" x2="30.2" y2="19"/>
	<line class="st3" x1="26.4" y1="11.8" x2="22.7" y2="11.8"/>
</g>
<text transform="matrix(1 0 0 1 104.5 8.5938)" class="st0"><tspan x="0" y="0" class="st1 st2">決定往生淨土</tspan><tspan x="0" y="14" class="st1 st2">決定往生淨土</tspan></text>
<text transform="matrix(1 0 0 1 6.103516e-05 15.5938)" class="st1 st2">臨終</text>
<text transform="matrix(1 0 0 1 0.9996 46.7377)" class="st0"><tspan x="0" y="0" class="st1 st2">平</tspan><tspan x="0" y="10.5" class="st1 st2">生</tspan><tspan x="0" y="21" class="st1 st2">未</tspan><tspan x="0" y="31.5" class="st1 st2">念</tspan><tspan x="0" y="42" class="st1 st2">佛</tspan><tspan x="0" y="52.5" class="st1 st2">無</tspan><tspan x="0" y="63" class="st1 st2">信</tspan><tspan x="0" y="73.5" class="st1 st2">願</tspan><tspan x="0" y="80.5" class="st4 st2">，</tspan><tspan x="0" y="87.5" class="st1 st2">臨</tspan><tspan x="0" y="98" class="st1 st2">終</tspan></text>
<g>
	<line class="st3" x1="18.3" y1="64.1" x2="18.3" y2="126.7"/>
	<line class="st3" x1="18.3" y1="64.1" x2="22.1" y2="64.1"/>
	<line class="st3" x1="18.3" y1="126.5" x2="22.1" y2="126.5"/>
	<line class="st3" x1="18.3" y1="95.4" x2="14.6" y2="95.4"/>
</g>
<text transform="matrix(1 0 0 1 25.133 67.5815)" class="st0"><tspan x="0" y="0" class="st1 st2">得助念</tspan><tspan x="0" y="63" class="st1 st2">未得助念</tspan></text>
<g>
	<line class="st3" x1="61.7" y1="43.2" x2="61.7" y2="84.9"/>
	<line class="st3" x1="61.7" y1="43.2" x2="65.5" y2="43.2"/>
	<line class="st3" x1="61.7" y1="84.9" x2="65.5" y2="84.9"/>
	<line class="st3" x1="61.7" y1="64.1" x2="58" y2="64.1"/>
</g>
<text transform="matrix(1 0 0 1 68.5497 46.5818)" class="st0"><tspan x="0" y="0" class="st1 st2">瑞相</tspan><tspan x="0" y="14" class="st1 st2">常相</tspan><tspan x="0" y="42" class="st1 st2">惡相</tspan></text>
<line class="st3" x1="91.1" y1="43.2" x2="98.6" y2="43.2"/>
<line class="st3" x1="91.1" y1="57.4" x2="98.6" y2="57.4"/>
<text transform="matrix(1 0 0 1 100.6242 46.5818)" class="st0"><tspan x="0" y="0" class="st1 st2">大概率往生</tspan><tspan x="50" y="0" class="st4 st2">，</tspan><tspan x="60" y="0" class="st1 st2">小概率人天</tspan><tspan x="0" y="14" class="st1 st2">大概率往生</tspan><tspan x="50" y="14" class="st4 st2">，</tspan><tspan x="60" y="14" class="st1 st2">小概率人天</tspan><tspan x="0" y="28" class="st1 st2">或淨土(如中陰身得度)</tspan><tspan x="0" y="42" class="st1 st2">或人天(如中陰身得度)</tspan><tspan x="0" y="56" class="st1 st2">或惡道(由業障如常)</tspan></text>
<g>
	<line class="st3" x1="94.8" y1="70.6" x2="94.8" y2="99.4"/>
	<line class="st3" x1="94.8" y1="70.6" x2="98.6" y2="70.6"/>
	<line class="st3" x1="94.8" y1="99.4" x2="98.6" y2="99.4"/>
	<line class="st3" x1="94.8" y1="84.9" x2="91.1" y2="84.9"/>
</g>
<g>
	<line class="st3" x1="71.6" y1="112.4" x2="71.6" y2="141.1"/>
	<line class="st3" x1="71.6" y1="112.4" x2="75.4" y2="112.4"/>
	<line class="st3" x1="71.6" y1="141.1" x2="75.4" y2="141.1"/>
	<line class="st3" x1="71.6" y1="126.7" x2="67.9" y2="126.7"/>
</g>
<text transform="matrix(1 0 0 1 77.7997 116.5818)" class="st0"><tspan x="0" y="0" class="st1 st2">瑞相</tspan><tspan x="0" y="14" class="st1 st2">常相</tspan><tspan x="0" y="28" class="st1 st2">惡相</tspan></text>
<line class="st3" x1="101.1" y1="112.4" x2="108.6" y2="112.4"/>
<line class="st3" x1="101.1" y1="126.5" x2="108.6" y2="126.5"/>
<line class="st3" x1="101.1" y1="141.1" x2="108.6" y2="141.1"/>
<text transform="matrix(1 0 0 1 111.7163 116.5821)" class="st0"><tspan x="0" y="0" class="st1 st2">生人天</tspan><tspan x="0" y="14" class="st1 st2">定下惡道</tspan><tspan x="0" y="28" class="st1 st2">定下惡道</tspan></text>
</svg>
