<?xml version="1.0" encoding="utf-8"?>
<!-- Generator: Adobe Illustrator 21.0.0, SVG Export Plug-In . SVG Version: 6.00 Build 0)  -->
<svg version="1.1" id="图层_1" xmlns="http://www.w3.org/2000/svg" xmlns:xlink="http://www.w3.org/1999/xlink" x="0px" y="0px"
	 viewBox="0 0 484 223.4" style="enable-background:new 0 0 484 223.4;" xml:space="preserve">
<style type="text/css">
	.st0{fill:none;stroke:#000000;stroke-width:0.5;stroke-miterlimit:10;}
	.st1{font-family:'KaiTi';}
	.st2{font-size:10px;}
	.st3{letter-spacing:5;}
</style>
<line class="st0" x1="0.3" y1="0.3" x2="483.8" y2="0.3"/>
<line class="st0" x1="0.3" y1="27.3" x2="483.8" y2="27.3"/>
<line class="st0" x1="0.3" y1="0.1" x2="0.3" y2="223.1"/>
<text transform="matrix(1 0 0 1 2.3836 38.0417)"><tspan x="0" y="0" class="st1 st2">初</tspan><tspan x="10" y="0" class="st1 st2 st3"> </tspan><tspan x="20" y="0" class="st1 st2">祖</tspan></text>
<line class="st0" x1="34.3" y1="0.1" x2="34.3" y2="223.1"/>
<line class="st0" x1="0.3" y1="42.4" x2="483.8" y2="42.4"/>
<text transform="matrix(1 0 0 1 36.467 18.2581)" class="st1 st2">乐邦文类</text>
<line class="st0" x1="79.2" y1="0.1" x2="79.2" y2="223.1"/>
<text transform="matrix(1 0 0 1 81.8003 18.2581)" class="st1 st2">佛祖统纪</text>
<line class="st0" x1="124.2" y1="0.1" x2="124.2" y2="223.1"/>
<text transform="matrix(1 0 0 1 126.5668 13.0081)"><tspan x="0" y="0" class="st1 st2">净    土</tspan><tspan x="0" y="10.5" class="st1 st2">指 归 集</tspan></text>
<line class="st0" x1="169.1" y1="0.1" x2="169.1" y2="223.1"/>
<text transform="matrix(1 0 0 1 171.2248 13.0081)"><tspan x="0" y="0" class="st1 st2">生 无 生</tspan><tspan x="0" y="10.5" class="st1 st2">论</tspan><tspan x="10" y="10.5" class="st1 st2 st3">  </tspan><tspan x="30" y="10.5" class="st1 st2">注</tspan></text>
<line class="st0" x1="214.1" y1="0.1" x2="214.1" y2="223.1"/>
<text transform="matrix(1 0 0 1 215.8835 13.0081)"><tspan x="0" y="0" class="st1 st2">生 无 生</tspan><tspan x="0" y="10.5" class="st1 st2">亲 闻 记</tspan></text>
<line class="st0" x1="259" y1="0.1" x2="259" y2="223.1"/>
<text transform="matrix(1 0 0 1 259.8061 18.2578)" class="st1 st2">西舫汇徵</text>
<line class="st0" x1="304" y1="0.1" x2="304" y2="223.1"/>
<text transform="matrix(1 0 0 1 304.817 13.0077)"><tspan x="0" y="0" class="st1 st2">莲宗九祖</tspan><tspan x="0" y="10.5" class="st1 st2">传</tspan><tspan x="10" y="10.5" class="st1 st2 st3">  </tspan><tspan x="30" y="10.5" class="st1 st2">略</tspan></text>
<line class="st0" x1="348.9" y1="0.1" x2="348.9" y2="223.1"/>
<text transform="matrix(1 0 0 1 351.2873 18.2575)" class="st1 st2">十宗略说</text>
<line class="st0" x1="393.9" y1="0.1" x2="393.9" y2="223.1"/>
<line class="st0" x1="438.8" y1="0.1" x2="438.8" y2="223.1"/>
<text transform="matrix(1 0 0 1 394.7502 13.008)"><tspan x="0" y="0" class="st1 st2">莲宗十二</tspan><tspan x="0" y="10.5" class="st1 st2">祖 赞 颂</tspan></text>
<text transform="matrix(1 0 0 1 440.2502 13.0075)"><tspan x="0" y="0" class="st1 st2">灵 岩 山</tspan><tspan x="0" y="3.5" class="st1 st2"> </tspan><tspan x="0" y="10.5" class="st1 st2">念诵仪规</tspan></text>
<line class="st0" x1="483.8" y1="0.1" x2="483.8" y2="223.1"/>
<text transform="matrix(1 0 0 1 42.0503 38.0415)"><tspan x="0" y="0" class="st1 st2">慧</tspan><tspan x="10" y="0" class="st1 st2 st3"> </tspan><tspan x="20" y="0" class="st1 st2">远</tspan></text>
<text transform="matrix(1 0 0 1 87.0503 38.0418)"><tspan x="0" y="0" class="st1 st2">慧</tspan><tspan x="10" y="0" class="st1 st2 st3"> </tspan><tspan x="20" y="0" class="st1 st2">远</tspan></text>
<text transform="matrix(1 0 0 1 132.3836 38.0417)"><tspan x="0" y="0" class="st1 st2">慧</tspan><tspan x="10" y="0" class="st1 st2 st3"> </tspan><tspan x="20" y="0" class="st1 st2">远</tspan></text>
<text transform="matrix(1 0 0 1 177.3836 38.0417)"><tspan x="0" y="0" class="st1 st2">慧</tspan><tspan x="10" y="0" class="st1 st2 st3"> </tspan><tspan x="20" y="0" class="st1 st2">远</tspan></text>
<text transform="matrix(1 0 0 1 222.717 38.0417)"><tspan x="0" y="0" class="st1 st2">慧</tspan><tspan x="10" y="0" class="st1 st2 st3"> </tspan><tspan x="20" y="0" class="st1 st2">远</tspan></text>
<text transform="matrix(1 0 0 1 266.3836 38.042)"><tspan x="0" y="0" class="st1 st2">慧</tspan><tspan x="10" y="0" class="st1 st2 st3"> </tspan><tspan x="20" y="0" class="st1 st2">远</tspan></text>
<text transform="matrix(1 0 0 1 310.75 38.0417)"><tspan x="0" y="0" class="st1 st2">慧</tspan><tspan x="10" y="0" class="st1 st2 st3"> </tspan><tspan x="20" y="0" class="st1 st2">远</tspan></text>
<text transform="matrix(1 0 0 1 356.0503 38.0417)"><tspan x="0" y="0" class="st1 st2">慧</tspan><tspan x="10" y="0" class="st1 st2 st3"> </tspan><tspan x="20" y="0" class="st1 st2">远</tspan></text>
<text transform="matrix(1 0 0 1 401.717 38.0417)"><tspan x="0" y="0" class="st1 st2">慧</tspan><tspan x="10" y="0" class="st1 st2 st3"> </tspan><tspan x="20" y="0" class="st1 st2">远</tspan></text>
<text transform="matrix(1 0 0 1 447.0503 38.0417)"><tspan x="0" y="0" class="st1 st2">慧</tspan><tspan x="10" y="0" class="st1 st2 st3"> </tspan><tspan x="20" y="0" class="st1 st2">远</tspan></text>
<line class="st0" x1="0.3" y1="57.5" x2="483.8" y2="57.5"/>
<text transform="matrix(1 0 0 1 2.3835 54.0417)"><tspan x="0" y="0" class="st1 st2">二</tspan><tspan x="10" y="0" class="st1 st2 st3"> </tspan><tspan x="20" y="0" class="st1 st2">祖</tspan></text>
<line class="st0" x1="0.3" y1="72.5" x2="483.8" y2="72.5"/>
<line class="st0" x1="0.3" y1="87.6" x2="483.8" y2="87.6"/>
<text transform="matrix(1 0 0 1 2.3838 69.0417)"><tspan x="0" y="0" class="st1 st2">三</tspan><tspan x="10" y="0" class="st1 st2 st3"> </tspan><tspan x="20" y="0" class="st1 st2">祖</tspan></text>
<text transform="matrix(1 0 0 1 2.3837 84.375)"><tspan x="0" y="0" class="st1 st2">四</tspan><tspan x="10" y="0" class="st1 st2 st3"> </tspan><tspan x="20" y="0" class="st1 st2">祖</tspan></text>
<line class="st0" x1="0.3" y1="102.6" x2="483.8" y2="102.6"/>
<text transform="matrix(1 0 0 1 2.3837 98.8335)"><tspan x="0" y="0" class="st1 st2">五</tspan><tspan x="10" y="0" class="st1 st2 st3"> </tspan><tspan x="20" y="0" class="st1 st2">祖</tspan></text>
<line class="st0" x1="0.3" y1="117.7" x2="483.8" y2="117.7"/>
<text transform="matrix(1 0 0 1 2.3837 114.4403)"><tspan x="0" y="0" class="st1 st2">六</tspan><tspan x="10" y="0" class="st1 st2 st3"> </tspan><tspan x="20" y="0" class="st1 st2">祖</tspan></text>
<line class="st0" x1="0.3" y1="132.7" x2="483.8" y2="132.7"/>
<text transform="matrix(1 0 0 1 2.3837 129.7971)"><tspan x="0" y="0" class="st1 st2">七</tspan><tspan x="10" y="0" class="st1 st2 st3"> </tspan><tspan x="20" y="0" class="st1 st2">祖</tspan></text>
<line class="st0" x1="0.3" y1="147.8" x2="483.8" y2="147.8"/>
<text transform="matrix(1 0 0 1 2.3837 143.6457)"><tspan x="0" y="0" class="st1 st2">八</tspan><tspan x="10" y="0" class="st1 st2 st3"> </tspan><tspan x="20" y="0" class="st1 st2">祖</tspan></text>
<line class="st0" x1="0.3" y1="162.9" x2="483.8" y2="162.9"/>
<text transform="matrix(1 0 0 1 2.3837 158.8902)"><tspan x="0" y="0" class="st1 st2">九</tspan><tspan x="10" y="0" class="st1 st2 st3"> </tspan><tspan x="20" y="0" class="st1 st2">祖</tspan></text>
<line class="st0" x1="0.3" y1="177.9" x2="483.8" y2="177.9"/>
<text transform="matrix(1 0 0 1 2.3837 174.2533)"><tspan x="0" y="0" class="st1 st2">十</tspan><tspan x="10" y="0" class="st1 st2 st3"> </tspan><tspan x="20" y="0" class="st1 st2">祖</tspan></text>
<line class="st0" x1="0.3" y1="193" x2="483.8" y2="193"/>
<text transform="matrix(1 0 0 1 2.3837 189.979)" class="st1 st2">十一祖</text>
<line class="st0" x1="0.3" y1="208" x2="483.8" y2="208"/>
<text transform="matrix(1 0 0 1 2.3837 204.3123)" class="st1 st2">十二祖</text>
<line class="st0" x1="0.3" y1="223.1" x2="483.8" y2="223.1"/>
<text transform="matrix(1 0 0 1 2.3837 219.6457)" class="st1 st2">十三祖</text>
<text transform="matrix(1 0 0 1 42.0503 54.0418)"><tspan x="0" y="0" class="st1 st2">善</tspan><tspan x="10" y="0" class="st1 st2 st3"> </tspan><tspan x="20" y="0" class="st1 st2">导</tspan></text>
<text transform="matrix(1 0 0 1 87.0503 54.0417)"><tspan x="0" y="0" class="st1 st2">善</tspan><tspan x="10" y="0" class="st1 st2 st3"> </tspan><tspan x="20" y="0" class="st1 st2">导</tspan></text>
<text transform="matrix(1 0 0 1 132.3839 54.0415)"><tspan x="0" y="0" class="st1 st2">善</tspan><tspan x="10" y="0" class="st1 st2 st3"> </tspan><tspan x="20" y="0" class="st1 st2">导</tspan></text>
<text transform="matrix(1 0 0 1 177.3837 54.0415)"><tspan x="0" y="0" class="st1 st2">善</tspan><tspan x="10" y="0" class="st1 st2 st3"> </tspan><tspan x="20" y="0" class="st1 st2">导</tspan></text>
<text transform="matrix(1 0 0 1 222.717 54.0415)"><tspan x="0" y="0" class="st1 st2">善</tspan><tspan x="10" y="0" class="st1 st2 st3"> </tspan><tspan x="20" y="0" class="st1 st2">导</tspan></text>
<text transform="matrix(1 0 0 1 266.3837 54.0418)"><tspan x="0" y="0" class="st1 st2">善</tspan><tspan x="10" y="0" class="st1 st2 st3"> </tspan><tspan x="20" y="0" class="st1 st2">导</tspan></text>
<text transform="matrix(1 0 0 1 310.7495 54.0418)"><tspan x="0" y="0" class="st1 st2">善</tspan><tspan x="10" y="0" class="st1 st2 st3"> </tspan><tspan x="20" y="0" class="st1 st2">导</tspan></text>
<text transform="matrix(1 0 0 1 401.717 54.0418)"><tspan x="0" y="0" class="st1 st2">善</tspan><tspan x="10" y="0" class="st1 st2 st3"> </tspan><tspan x="20" y="0" class="st1 st2">导</tspan></text>
<text transform="matrix(1 0 0 1 447.0498 54.0415)"><tspan x="0" y="0" class="st1 st2">善</tspan><tspan x="10" y="0" class="st1 st2 st3"> </tspan><tspan x="20" y="0" class="st1 st2">导</tspan></text>
<text transform="matrix(1 0 0 1 356.0498 54.0418)"><tspan x="0" y="0" class="st1 st2">昙</tspan><tspan x="10" y="0" class="st1 st2 st3"> </tspan><tspan x="20" y="0" class="st1 st2">鸾</tspan></text>
<text transform="matrix(1 0 0 1 42.0503 69.0417)"><tspan x="0" y="0" class="st1 st2">法</tspan><tspan x="10" y="0" class="st1 st2 st3"> </tspan><tspan x="20" y="0" class="st1 st2">照</tspan></text>
<text transform="matrix(1 0 0 1 87.0503 69.0417)"><tspan x="0" y="0" class="st1 st2">承</tspan><tspan x="10" y="0" class="st1 st2 st3"> </tspan><tspan x="20" y="0" class="st1 st2">远</tspan></text>
<text transform="matrix(1 0 0 1 42.0504 84.3748)"><tspan x="0" y="0" class="st1 st2">少</tspan><tspan x="10" y="0" class="st1 st2 st3"> </tspan><tspan x="20" y="0" class="st1 st2">康</tspan></text>
<text transform="matrix(1 0 0 1 42.0503 98.8333)"><tspan x="0" y="0" class="st1 st2">省</tspan><tspan x="10" y="0" class="st1 st2 st3"> </tspan><tspan x="20" y="0" class="st1 st2">常</tspan></text>
<text transform="matrix(1 0 0 1 42.0504 114.4401)"><tspan x="0" y="0" class="st1 st2">宗</tspan><tspan x="10" y="0" class="st1 st2 st3"> </tspan><tspan x="20" y="0" class="st1 st2">赜</tspan></text>
<text transform="matrix(1 0 0 1 87.0503 84.3748)"><tspan x="0" y="0" class="st1 st2">法</tspan><tspan x="10" y="0" class="st1 st2 st3"> </tspan><tspan x="20" y="0" class="st1 st2">照</tspan></text>
<text transform="matrix(1 0 0 1 87.0504 98.8335)"><tspan x="0" y="0" class="st1 st2">少</tspan><tspan x="10" y="0" class="st1 st2 st3"> </tspan><tspan x="20" y="0" class="st1 st2">康</tspan></text>
<text transform="matrix(1 0 0 1 87.0504 114.4401)"><tspan x="0" y="0" class="st1 st2">延</tspan><tspan x="10" y="0" class="st1 st2 st3"> </tspan><tspan x="20" y="0" class="st1 st2">寿</tspan></text>
<text transform="matrix(1 0 0 1 87.0504 129.7971)"><tspan x="0" y="0" class="st1 st2">省</tspan><tspan x="10" y="0" class="st1 st2 st3"> </tspan><tspan x="20" y="0" class="st1 st2">常</tspan></text>
<text transform="matrix(1 0 0 1 132.3839 69.0415)"><tspan x="0" y="0" class="st1 st2">承</tspan><tspan x="10" y="0" class="st1 st2 st3"> </tspan><tspan x="20" y="0" class="st1 st2">远</tspan></text>
<text transform="matrix(1 0 0 1 177.3837 69.0415)"><tspan x="0" y="0" class="st1 st2">承</tspan><tspan x="10" y="0" class="st1 st2 st3"> </tspan><tspan x="20" y="0" class="st1 st2">远</tspan></text>
<text transform="matrix(1 0 0 1 222.717 69.0415)"><tspan x="0" y="0" class="st1 st2">承</tspan><tspan x="10" y="0" class="st1 st2 st3"> </tspan><tspan x="20" y="0" class="st1 st2">远</tspan></text>
<text transform="matrix(1 0 0 1 266.3837 69.0415)"><tspan x="0" y="0" class="st1 st2">承</tspan><tspan x="10" y="0" class="st1 st2 st3"> </tspan><tspan x="20" y="0" class="st1 st2">远</tspan></text>
<text transform="matrix(1 0 0 1 310.7501 69.0415)"><tspan x="0" y="0" class="st1 st2">承</tspan><tspan x="10" y="0" class="st1 st2 st3"> </tspan><tspan x="20" y="0" class="st1 st2">远</tspan></text>
<text transform="matrix(1 0 0 1 401.717 69.0415)"><tspan x="0" y="0" class="st1 st2">承</tspan><tspan x="10" y="0" class="st1 st2 st3"> </tspan><tspan x="20" y="0" class="st1 st2">远</tspan></text>
<text transform="matrix(1 0 0 1 447.0504 69.0415)"><tspan x="0" y="0" class="st1 st2">承</tspan><tspan x="10" y="0" class="st1 st2 st3"> </tspan><tspan x="20" y="0" class="st1 st2">远</tspan></text>
<text transform="matrix(1 0 0 1 356.0504 69.0413)"><tspan x="0" y="0" class="st1 st2">道</tspan><tspan x="10" y="0" class="st1 st2 st3"> </tspan><tspan x="20" y="0" class="st1 st2">绰</tspan></text>
<text transform="matrix(1 0 0 1 356.0504 84.375)"><tspan x="0" y="0" class="st1 st2">善</tspan><tspan x="10" y="0" class="st1 st2 st3"> </tspan><tspan x="20" y="0" class="st1 st2">导</tspan></text>
<text transform="matrix(1 0 0 1 356.0504 98.8332)"><tspan x="0" y="0" class="st1 st2">延</tspan><tspan x="10" y="0" class="st1 st2 st3"> </tspan><tspan x="20" y="0" class="st1 st2">寿</tspan></text>
<text transform="matrix(1 0 0 1 356.0505 114.44)"><tspan x="0" y="0" class="st1 st2">莲</tspan><tspan x="10" y="0" class="st1 st2 st3"> </tspan><tspan x="20" y="0" class="st1 st2">池</tspan></text>
<text transform="matrix(1 0 0 1 132.3837 84.375)"><tspan x="0" y="0" class="st1 st2">法</tspan><tspan x="10" y="0" class="st1 st2 st3"> </tspan><tspan x="20" y="0" class="st1 st2">照</tspan></text>
<text transform="matrix(1 0 0 1 177.3837 84.3748)"><tspan x="0" y="0" class="st1 st2">法</tspan><tspan x="10" y="0" class="st1 st2 st3"> </tspan><tspan x="20" y="0" class="st1 st2">照</tspan></text>
<text transform="matrix(1 0 0 1 222.717 84.375)"><tspan x="0" y="0" class="st1 st2">法</tspan><tspan x="10" y="0" class="st1 st2 st3"> </tspan><tspan x="20" y="0" class="st1 st2">照</tspan></text>
<text transform="matrix(1 0 0 1 266.3838 84.3748)"><tspan x="0" y="0" class="st1 st2">法</tspan><tspan x="10" y="0" class="st1 st2 st3"> </tspan><tspan x="20" y="0" class="st1 st2">照</tspan></text>
<text transform="matrix(1 0 0 1 310.7496 84.3748)"><tspan x="0" y="0" class="st1 st2">法</tspan><tspan x="10" y="0" class="st1 st2 st3"> </tspan><tspan x="20" y="0" class="st1 st2">照</tspan></text>
<text transform="matrix(1 0 0 1 401.717 84.375)"><tspan x="0" y="0" class="st1 st2">法</tspan><tspan x="10" y="0" class="st1 st2 st3"> </tspan><tspan x="20" y="0" class="st1 st2">照</tspan></text>
<text transform="matrix(1 0 0 1 447.0504 84.375)"><tspan x="0" y="0" class="st1 st2">法</tspan><tspan x="10" y="0" class="st1 st2 st3"> </tspan><tspan x="20" y="0" class="st1 st2">照</tspan></text>
<text transform="matrix(1 0 0 1 132.3837 98.8336)"><tspan x="0" y="0" class="st1 st2">少</tspan><tspan x="10" y="0" class="st1 st2 st3"> </tspan><tspan x="20" y="0" class="st1 st2">康</tspan></text>
<text transform="matrix(1 0 0 1 177.3837 98.8333)"><tspan x="0" y="0" class="st1 st2">少</tspan><tspan x="10" y="0" class="st1 st2 st3"> </tspan><tspan x="20" y="0" class="st1 st2">康</tspan></text>
<text transform="matrix(1 0 0 1 222.7171 98.8333)"><tspan x="0" y="0" class="st1 st2">少</tspan><tspan x="10" y="0" class="st1 st2 st3"> </tspan><tspan x="20" y="0" class="st1 st2">康</tspan></text>
<text transform="matrix(1 0 0 1 266.3838 98.8338)"><tspan x="0" y="0" class="st1 st2">少</tspan><tspan x="10" y="0" class="st1 st2 st3"> </tspan><tspan x="20" y="0" class="st1 st2">康</tspan></text>
<text transform="matrix(1 0 0 1 310.7496 98.834)"><tspan x="0" y="0" class="st1 st2">少</tspan><tspan x="10" y="0" class="st1 st2 st3"> </tspan><tspan x="20" y="0" class="st1 st2">康</tspan></text>
<text transform="matrix(1 0 0 1 401.7171 98.8333)"><tspan x="0" y="0" class="st1 st2">少</tspan><tspan x="10" y="0" class="st1 st2 st3"> </tspan><tspan x="20" y="0" class="st1 st2">康</tspan></text>
<text transform="matrix(1 0 0 1 447.0499 98.8335)"><tspan x="0" y="0" class="st1 st2">少</tspan><tspan x="10" y="0" class="st1 st2 st3"> </tspan><tspan x="20" y="0" class="st1 st2">康</tspan></text>
<text transform="matrix(1 0 0 1 132.384 114.4401)"><tspan x="0" y="0" class="st1 st2">延</tspan><tspan x="10" y="0" class="st1 st2 st3"> </tspan><tspan x="20" y="0" class="st1 st2">寿</tspan></text>
<text transform="matrix(1 0 0 1 177.3837 114.4398)"><tspan x="0" y="0" class="st1 st2">延</tspan><tspan x="10" y="0" class="st1 st2 st3"> </tspan><tspan x="20" y="0" class="st1 st2">寿</tspan></text>
<text transform="matrix(1 0 0 1 222.717 114.4397)"><tspan x="0" y="0" class="st1 st2">延</tspan><tspan x="10" y="0" class="st1 st2 st3"> </tspan><tspan x="20" y="0" class="st1 st2">寿</tspan></text>
<text transform="matrix(1 0 0 1 266.3837 114.4395)"><tspan x="0" y="0" class="st1 st2">延</tspan><tspan x="10" y="0" class="st1 st2 st3"> </tspan><tspan x="20" y="0" class="st1 st2">寿</tspan></text>
<text transform="matrix(1 0 0 1 310.7501 114.4401)"><tspan x="0" y="0" class="st1 st2">延</tspan><tspan x="10" y="0" class="st1 st2 st3"> </tspan><tspan x="20" y="0" class="st1 st2">寿</tspan></text>
<text transform="matrix(1 0 0 1 401.7171 114.4401)"><tspan x="0" y="0" class="st1 st2">延</tspan><tspan x="10" y="0" class="st1 st2 st3"> </tspan><tspan x="20" y="0" class="st1 st2">寿</tspan></text>
<text transform="matrix(1 0 0 1 447.0504 114.4394)"><tspan x="0" y="0" class="st1 st2">延</tspan><tspan x="10" y="0" class="st1 st2 st3"> </tspan><tspan x="20" y="0" class="st1 st2">寿</tspan></text>
<text transform="matrix(1 0 0 1 132.384 129.797)"><tspan x="0" y="0" class="st1 st2">省</tspan><tspan x="10" y="0" class="st1 st2 st3"> </tspan><tspan x="20" y="0" class="st1 st2">常</tspan></text>
<text transform="matrix(1 0 0 1 177.3837 129.797)"><tspan x="0" y="0" class="st1 st2">省</tspan><tspan x="10" y="0" class="st1 st2 st3"> </tspan><tspan x="20" y="0" class="st1 st2">常</tspan></text>
<text transform="matrix(1 0 0 1 222.717 129.7969)"><tspan x="0" y="0" class="st1 st2">省</tspan><tspan x="10" y="0" class="st1 st2 st3"> </tspan><tspan x="20" y="0" class="st1 st2">常</tspan></text>
<text transform="matrix(1 0 0 1 266.3837 129.7971)"><tspan x="0" y="0" class="st1 st2">省</tspan><tspan x="10" y="0" class="st1 st2 st3"> </tspan><tspan x="20" y="0" class="st1 st2">常</tspan></text>
<text transform="matrix(1 0 0 1 310.7496 129.7968)"><tspan x="0" y="0" class="st1 st2">省</tspan><tspan x="10" y="0" class="st1 st2 st3"> </tspan><tspan x="20" y="0" class="st1 st2">常</tspan></text>
<text transform="matrix(1 0 0 1 447.0502 129.797)"><tspan x="0" y="0" class="st1 st2">省</tspan><tspan x="10" y="0" class="st1 st2 st3"> </tspan><tspan x="20" y="0" class="st1 st2">常</tspan></text>
<text transform="matrix(1 0 0 1 401.717 129.7967)"><tspan x="0" y="0" class="st1 st2">省</tspan><tspan x="10" y="0" class="st1 st2 st3"> </tspan><tspan x="20" y="0" class="st1 st2">常</tspan></text>
<text transform="matrix(1 0 0 1 132.3841 143.6455)"><tspan x="0" y="0" class="st1 st2">宗</tspan><tspan x="10" y="0" class="st1 st2 st3"> </tspan><tspan x="20" y="0" class="st1 st2">赜</tspan></text>
<text transform="matrix(1 0 0 1 177.3837 143.6455)"><tspan x="0" y="0" class="st1 st2">宗</tspan><tspan x="10" y="0" class="st1 st2 st3"> </tspan><tspan x="20" y="0" class="st1 st2">赜</tspan></text>
<text transform="matrix(1 0 0 1 266.3839 143.6454)"><tspan x="0" y="0" class="st1 st2">宗</tspan><tspan x="10" y="0" class="st1 st2 st3"> </tspan><tspan x="20" y="0" class="st1 st2">赜</tspan></text>
<text transform="matrix(1 0 0 1 310.7503 143.6456)"><tspan x="0" y="0" class="st1 st2">莲</tspan><tspan x="10" y="0" class="st1 st2 st3"> </tspan><tspan x="20" y="0" class="st1 st2">池</tspan></text>
<text transform="matrix(1 0 0 1 401.7172 143.6459)"><tspan x="0" y="0" class="st1 st2">莲</tspan><tspan x="10" y="0" class="st1 st2 st3"> </tspan><tspan x="20" y="0" class="st1 st2">池</tspan></text>
<text transform="matrix(1 0 0 1 447.0507 143.6456)"><tspan x="0" y="0" class="st1 st2">莲</tspan><tspan x="10" y="0" class="st1 st2 st3"> </tspan><tspan x="20" y="0" class="st1 st2">池</tspan></text>
<text transform="matrix(1 0 0 1 266.3839 158.8904)"><tspan x="0" y="0" class="st1 st2">莲</tspan><tspan x="10" y="0" class="st1 st2 st3"> </tspan><tspan x="20" y="0" class="st1 st2">池</tspan></text>
<text transform="matrix(1 0 0 1 310.7505 158.8906)"><tspan x="0" y="0" class="st1 st2">省</tspan><tspan x="10" y="0" class="st1 st2 st3"> </tspan><tspan x="20" y="0" class="st1 st2">庵</tspan></text>
<text transform="matrix(1 0 0 1 401.7174 158.8904)"><tspan x="0" y="0" class="st1 st2">蕅</tspan><tspan x="10" y="0" class="st1 st2 st3"> </tspan><tspan x="20" y="0" class="st1 st2">益</tspan></text>
<text transform="matrix(1 0 0 1 447.0499 158.8905)"><tspan x="0" y="0" class="st1 st2">蕅</tspan><tspan x="10" y="0" class="st1 st2 st3"> </tspan><tspan x="20" y="0" class="st1 st2">益</tspan></text>
<text transform="matrix(1 0 0 1 401.7173 174.2533)"><tspan x="0" y="0" class="st1 st2">行</tspan><tspan x="10" y="0" class="st1 st2 st3"> </tspan><tspan x="20" y="0" class="st1 st2">策</tspan></text>
<text transform="matrix(1 0 0 1 447.0498 174.2534)"><tspan x="0" y="0" class="st1 st2">行</tspan><tspan x="10" y="0" class="st1 st2 st3"> </tspan><tspan x="20" y="0" class="st1 st2">策</tspan></text>
<text transform="matrix(1 0 0 1 401.717 189.9791)"><tspan x="0" y="0" class="st1 st2">省</tspan><tspan x="10" y="0" class="st1 st2 st3"> </tspan><tspan x="20" y="0" class="st1 st2">庵</tspan></text>
<text transform="matrix(1 0 0 1 447.0499 189.9793)"><tspan x="0" y="0" class="st1 st2">省</tspan><tspan x="10" y="0" class="st1 st2 st3"> </tspan><tspan x="20" y="0" class="st1 st2">庵</tspan></text>
<text transform="matrix(1 0 0 1 401.717 204.3125)"><tspan x="0" y="0" class="st1 st2">彻</tspan><tspan x="10" y="0" class="st1 st2 st3"> </tspan><tspan x="20" y="0" class="st1 st2">悟</tspan></text>
<text transform="matrix(1 0 0 1 447.0509 204.3125)"><tspan x="0" y="0" class="st1 st2">彻</tspan><tspan x="10" y="0" class="st1 st2 st3"> </tspan><tspan x="20" y="0" class="st1 st2">悟</tspan></text>
<text transform="matrix(1 0 0 1 447.0511 219.6458)"><tspan x="0" y="0" class="st1 st2">印</tspan><tspan x="10" y="0" class="st1 st2 st3"> </tspan><tspan x="20" y="0" class="st1 st2">光</tspan></text>
</svg>
