<?xml version="1.0" encoding="utf-8"?>
<!-- Generator: Adobe Illustrator 21.0.0, SVG Export Plug-In . SVG Version: 6.00 Build 0)  -->
<svg version="1.1" baseProfile="tiny" id="圖層_1"
	 xmlns="http://www.w3.org/2000/svg" xmlns:xlink="http://www.w3.org/1999/xlink" x="0px" y="0px" viewBox="0 0 252.3 39"
	 overflow="scroll" xml:space="preserve">
<text transform="matrix(1 0 0 1 1.525879e-04 24.5781)" font-family="KaiTi" font-size="10px">六字三義</text>
<text transform="matrix(1 0 0 1 48.4624 36.7432)" font-family="KaiTi" font-size="10px">阿彌陀佛</text>
<text transform="matrix(1 0 0 1 100.5933 8.5937)" font-family="KaiTi" font-size="10px">歸</text>
<text transform="matrix(1 0 0 1 130.5933 8.5937)" font-family="KaiTi" font-size="10px">命</text>
<text transform="matrix(1 0 0 1 100.5933 22.5937)" font-family="KaiTi" font-size="10px">發</text>
<text transform="matrix(1 0 0 1 110.5933 22.5937)" font-family="KaiTi" font-size="10px">願</text>
<text transform="matrix(1 0 0 1 120.5933 22.5937)" font-family="KaiTi" font-size="10px">回</text>
<text transform="matrix(1 0 0 1 130.5933 22.5937)" font-family="KaiTi" font-size="10px">向</text>
<text transform="matrix(1 0 0 1 100.5933 36.5938)" font-family="KaiTi" font-size="10px">即</text>
<text transform="matrix(1 0 0 1 110.5933 36.5938)" font-family="KaiTi" font-size="10px">是</text>
<text transform="matrix(1 0 0 1 120.5933 36.5938)" font-family="KaiTi" font-size="10px">其</text>
<text transform="matrix(1 0 0 1 130.5933 36.5938)" font-family="KaiTi" font-size="10px">行</text>
<text transform="matrix(1 0 0 1 152.8916 8.5937)" font-family="KaiTi" font-size="10px">信</text>
<text transform="matrix(1 0 0 1 152.8916 22.5937)" font-family="KaiTi" font-size="10px">願</text>
<text transform="matrix(1 0 0 1 152.8916 36.5938)" font-family="KaiTi" font-size="10px">行</text>
<g>
	<line fill="none" stroke="#000000" stroke-width="0.5" stroke-miterlimit="10" x1="40.9" y1="21.5" x2="43.8" y2="21.5"/>
	<line fill="none" stroke="#000000" stroke-width="0.5" stroke-miterlimit="10" x1="43.8" y1="10.2" x2="46.7" y2="10.2"/>
	<line fill="none" stroke="#000000" stroke-width="0.5" stroke-miterlimit="10" x1="43.8" y1="33.2" x2="46.7" y2="33.2"/>
	<line fill="none" stroke="#000000" stroke-width="0.5" stroke-miterlimit="10" x1="43.8" y1="9.9" x2="43.8" y2="33.5"/>
</g>
<line fill="none" stroke="#000000" stroke-width="0.5" stroke-miterlimit="10" x1="91.1" y1="11.8" x2="94" y2="11.8"/>
<line fill="none" stroke="#000000" stroke-width="0.5" stroke-miterlimit="10" x1="94" y1="4.9" x2="96.9" y2="4.9"/>
<line fill="none" stroke="#000000" stroke-width="0.5" stroke-miterlimit="10" x1="94" y1="19.1" x2="96.9" y2="19.1"/>
<line fill="none" stroke="#000000" stroke-width="0.5" stroke-miterlimit="10" x1="94" y1="4.7" x2="94" y2="19.3"/>
<line fill="none" stroke="#000000" stroke-width="0.5" stroke-miterlimit="10" x1="91.1" y1="33.5" x2="96.9" y2="33.5"/>
<line fill="none" stroke="#000000" stroke-width="0.5" stroke-miterlimit="10" x1="144" y1="33.5" x2="149.7" y2="33.5"/>
<line fill="none" stroke="#000000" stroke-width="0.5" stroke-miterlimit="10" x1="144" y1="5.2" x2="149.8" y2="5.2"/>
<line fill="none" stroke="#000000" stroke-width="0.5" stroke-miterlimit="10" x1="144" y1="19.1" x2="149.8" y2="19.1"/>
<line fill="none" stroke="#000000" stroke-width="0.5" stroke-miterlimit="10" x1="204.9" y1="14.7" x2="210.7" y2="14.7"/>
<line fill="none" stroke="#000000" stroke-width="0.5" stroke-miterlimit="10" x1="204.9" y1="28.8" x2="210.7" y2="28.8"/>
<text transform="matrix(1 0 0 1 48.4624 14.4028)" font-family="KaiTi" font-size="10px">南</text>
<text transform="matrix(1 0 0 1 78.4624 14.4028)" font-family="KaiTi" font-size="10px">無</text>
<text transform="matrix(1 0 0 1 173.4791 17.9943)" font-family="KaiTi" font-size="10px">機法門</text>
<text transform="matrix(1 0 0 1 173.4791 31.9943)" font-family="KaiTi" font-size="10px">願行門</text>
<text transform="matrix(1 0 0 1 212.295 17.9943)" font-family="KaiTi" font-size="10px">機法一體</text>
<text transform="matrix(1 0 0 1 212.295 31.9943)" font-family="KaiTi" font-size="10px">願行具足</text>
<line fill="none" stroke="#000000" stroke-width="0.5" stroke-miterlimit="10" x1="164.7" y1="5.2" x2="170.5" y2="14.6"/>
<line fill="none" stroke="#000000" stroke-width="0.5" stroke-miterlimit="10" x1="164.7" y1="33.5" x2="170.5" y2="14.6"/>
<line fill="none" stroke="#000000" stroke-width="0.5" stroke-miterlimit="10" x1="164.7" y1="19.3" x2="170.6" y2="28.7"/>
<line fill="none" stroke="#000000" stroke-width="0.5" stroke-miterlimit="10" x1="164.7" y1="33.5" x2="170.5" y2="28.6"/>
</svg>
