<?xml version="1.0" encoding="utf-8"?>
<!-- Generator: Adobe Illustrator 21.0.0, SVG Export Plug-In . SVG Version: 6.00 Build 0)  -->
<svg version="1.1" id="圖層_1" xmlns="http://www.w3.org/2000/svg" xmlns:xlink="http://www.w3.org/1999/xlink" x="0px" y="0px"
	 viewBox="0 0 165.3 166.1" style="enable-background:new 0 0 165.3 166.1;" xml:space="preserve">
<style type="text/css">
	.st0{enable-background:new    ;}
	.st1{font-family:'KaiTi';}
	.st2{font-size:10px;}
	.st3{fill:none;stroke:#000000;stroke-width:0.5;stroke-miterlimit:10;}
	.st4{letter-spacing:5;}
	.st5{fill:none;}
</style>
<text transform="matrix(1 0 0 1 1.3001 8.594)" class="st0"><tspan x="0" y="0" class="st1 st2">六度萬行</tspan><tspan x="0" y="12" class="st1 st2">此土成佛</tspan><tspan x="0" y="48" class="st1 st2"> 聖道門</tspan></text>
<text transform="matrix(1 0 0 1 61.6001 8.5938)" class="st0"><tspan x="0" y="0" class="st1 st2">六度萬行</tspan><tspan x="0" y="14" class="st1 st2">願生淨土</tspan><tspan x="0" y="42" class="st1 st2">淨 土 門</tspan><tspan x="0" y="56" class="st1 st2">（要門）</tspan></text>
<g>
	<line class="st3" x1="21.3" y1="27.8" x2="21.3" y2="36.2"/>
	<g>
		<polygon points="19.5,34.8 21.3,35.6 23.2,34.8 21.3,39.2 		"/>
	</g>
</g>
<text transform="matrix(1 0 0 1 124.1001 8.5939)" class="st0"><tspan x="0" y="0" class="st1 st2">願生淨土</tspan><tspan x="0" y="14" class="st1 st2">一向專念</tspan><tspan x="0" y="49" class="st1 st2"> 弘</tspan><tspan x="15" y="49" class="st1 st2 st4"> </tspan><tspan x="25" y="49" class="st1 st2">願</tspan></text>
<g>
	<line class="st3" x1="144.8" y1="29.1" x2="144.8" y2="37.5"/>
	<g>
		<polygon points="143,36.1 144.8,36.9 146.7,36.1 144.8,40.5 		"/>
	</g>
</g>
<g>
	<line class="st3" x1="46" y1="11.8" x2="54.4" y2="11.8"/>
	<g>
		<polygon points="53,13.6 53.8,11.8 53,9.9 57.4,11.8 		"/>
	</g>
</g>
<g>
	<line class="st3" x1="107.3" y1="11.8" x2="115.7" y2="11.8"/>
	<g>
		<polygon points="114.3,13.6 115.1,11.8 114.3,9.9 118.7,11.8 		"/>
	</g>
</g>
<g>
	<line class="st3" x1="44.5" y1="53.6" x2="52.9" y2="53.6"/>
	<g>
		<polygon points="51.5,55.4 52.3,53.6 51.5,51.7 55.9,53.6 		"/>
	</g>
</g>
<g>
	<line class="st3" x1="107.6" y1="53.6" x2="116" y2="53.6"/>
	<g>
		<polygon points="114.6,55.4 115.4,53.6 114.6,51.7 119,53.6 		"/>
	</g>
</g>
<text transform="matrix(1 0 0 1 57.3003 96.0005)"><tspan x="0" y="0" class="st1 st2">行</tspan><tspan x="10" y="0" class="st1 st2 st4">  </tspan><tspan x="30" y="0" class="st1 st2">法</tspan><tspan x="0" y="21" class="st1 st2">六度萬行</tspan><tspan x="0" y="42" class="st1 st2">六度萬行</tspan><tspan x="0" y="63" class="st1 st2">一向專念</tspan></text>
<text transform="matrix(1 0 0 1 119.3003 96.0005)"><tspan x="0" y="0" class="st1 st2">目</tspan><tspan x="10" y="0" class="st1 st2 st4">  </tspan><tspan x="30" y="0" class="st1 st2">標</tspan><tspan x="0" y="21" class="st1 st2">此土成佛</tspan><tspan x="0" y="42" class="st1 st2">願生淨土</tspan><tspan x="0" y="63" class="st1 st2">願生淨土</tspan></text>
<text transform="matrix(1 0 0 1 8.2999 117.0005)"><tspan x="0" y="0" class="st1 st2">聖道門</tspan><tspan x="0" y="21" class="st1 st2">要</tspan><tspan x="10" y="21" class="st1 st2 st4"> </tspan><tspan x="20" y="21" class="st1 st2">門</tspan><tspan x="0" y="42" class="st1 st2">弘</tspan><tspan x="10" y="42" class="st1 st2 st4"> </tspan><tspan x="20" y="42" class="st1 st2">願</tspan></text>
<line class="st5" x1="43.6" y1="84.1" x2="44.1" y2="166.1"/>
<line class="st3" x1="0.3" y1="82.1" x2="165.1" y2="82.1"/>
<line class="st3" x1="0.3" y1="103.3" x2="165.1" y2="103.3"/>
<line class="st3" x1="0.3" y1="123.5" x2="165.1" y2="123.5"/>
<line class="st3" x1="0.3" y1="144.6" x2="165.1" y2="144.6"/>
<line class="st3" x1="0.3" y1="165.8" x2="165.1" y2="165.8"/>
<line class="st3" x1="0.3" y1="82.1" x2="0.3" y2="165.8"/>
<line class="st3" x1="46.1" y1="81.6" x2="46.1" y2="165.3"/>
<line class="st3" x1="109.1" y1="81.6" x2="109.1" y2="165.3"/>
<line class="st3" x1="165.1" y1="82.1" x2="165.1" y2="165.8"/>
</svg>
