<?xml version="1.0" encoding="utf-8"?>
<!-- Generator: Adobe Illustrator 21.0.0, SVG Export Plug-In . SVG Version: 6.00 Build 0)  -->
<svg version="1.1" baseProfile="tiny" id="图层_1"
	 xmlns="http://www.w3.org/2000/svg" xmlns:xlink="http://www.w3.org/1999/xlink" x="0px" y="0px" viewBox="0 0 245.2 39"
	 overflow="scroll" xml:space="preserve">
<text transform="matrix(1 0 0 1 0 24.5781)" font-family="KaiTi" font-size="10px">六字三义</text>
<text transform="matrix(1 0 0 1 50.73 36.7432)" font-family="KaiTi" font-size="10px">阿弥陀佛</text>
<text transform="matrix(1 0 0 1 102.8608 8.5937)" font-family="KaiTi" font-size="10px">归</text>
<text transform="matrix(1 0 0 1 132.8608 8.5937)" font-family="KaiTi" font-size="10px">命</text>
<text transform="matrix(1 0 0 1 102.8608 22.5937)" font-family="KaiTi" font-size="10px">发</text>
<text transform="matrix(1 0 0 1 112.8608 22.5937)" font-family="KaiTi" font-size="10px">愿</text>
<text transform="matrix(1 0 0 1 122.8608 22.5937)" font-family="KaiTi" font-size="10px">回</text>
<text transform="matrix(1 0 0 1 132.8608 22.5937)" font-family="KaiTi" font-size="10px">向</text>
<text transform="matrix(1 0 0 1 102.8608 36.5938)" font-family="KaiTi" font-size="10px">即</text>
<text transform="matrix(1 0 0 1 112.8608 36.5938)" font-family="KaiTi" font-size="10px">是</text>
<text transform="matrix(1 0 0 1 122.8608 36.5938)" font-family="KaiTi" font-size="10px">其</text>
<text transform="matrix(1 0 0 1 132.8608 36.5938)" font-family="KaiTi" font-size="10px">行</text>
<text transform="matrix(1 0 0 1 155.159 8.5937)" font-family="KaiTi" font-size="10px">信</text>
<text transform="matrix(1 0 0 1 155.159 22.5937)" font-family="KaiTi" font-size="10px">愿</text>
<text transform="matrix(1 0 0 1 155.159 36.5938)" font-family="KaiTi" font-size="10px">行</text>
<text transform="matrix(1 0 0 1 175.2425 22.5937)" font-family="KaiTi" font-size="10px">往生净土三资粮</text>
<g>
	<line fill="none" stroke="#000000" stroke-width="0.5" stroke-miterlimit="10" x1="41.8" y1="21.5" x2="44.7" y2="21.5"/>
	<line fill="none" stroke="#000000" stroke-width="0.5" stroke-miterlimit="10" x1="44.7" y1="10.2" x2="47.6" y2="10.2"/>
	<line fill="none" stroke="#000000" stroke-width="0.5" stroke-miterlimit="10" x1="44.7" y1="33.2" x2="47.6" y2="33.2"/>
	<line fill="none" stroke="#000000" stroke-width="0.5" stroke-miterlimit="10" x1="44.7" y1="9.9" x2="44.7" y2="33.5"/>
</g>
<line fill="none" stroke="#000000" stroke-width="0.5" stroke-miterlimit="10" x1="93.4" y1="11.8" x2="96.3" y2="11.8"/>
<line fill="none" stroke="#000000" stroke-width="0.5" stroke-miterlimit="10" x1="96.3" y1="4.9" x2="99.2" y2="4.9"/>
<line fill="none" stroke="#000000" stroke-width="0.5" stroke-miterlimit="10" x1="96.3" y1="19.1" x2="99.2" y2="19.1"/>
<line fill="none" stroke="#000000" stroke-width="0.5" stroke-miterlimit="10" x1="96.3" y1="4.7" x2="96.3" y2="19.3"/>
<line fill="none" stroke="#000000" stroke-width="0.5" stroke-miterlimit="10" x1="93.4" y1="33.5" x2="99.2" y2="33.5"/>
<line fill="none" stroke="#000000" stroke-width="0.5" stroke-miterlimit="10" x1="146.2" y1="33.5" x2="152" y2="33.5"/>
<line fill="none" stroke="#000000" stroke-width="0.5" stroke-miterlimit="10" x1="146.2" y1="5.2" x2="152" y2="5.2"/>
<line fill="none" stroke="#000000" stroke-width="0.5" stroke-miterlimit="10" x1="146.2" y1="19.1" x2="152" y2="19.1"/>
<text transform="matrix(1 0 0 1 50.73 14.4028)" font-family="KaiTi" font-size="10px">南</text>
<text transform="matrix(1 0 0 1 80.73 14.4028)" font-family="KaiTi" font-size="10px">无</text>
<g>
	<line fill="none" stroke="#000000" stroke-width="0.5" stroke-miterlimit="10" x1="170.6" y1="19.4" x2="173.5" y2="19.4"/>
	<line fill="none" stroke="#000000" stroke-width="0.5" stroke-miterlimit="10" x1="167.7" y1="5.6" x2="170.6" y2="5.6"/>
	<line fill="none" stroke="#000000" stroke-width="0.5" stroke-miterlimit="10" x1="167.7" y1="33" x2="170.6" y2="33"/>
	<line fill="none" stroke="#000000" stroke-width="0.5" stroke-miterlimit="10" x1="170.6" y1="5.4" x2="170.6" y2="33.3"/>
</g>
</svg>
