<?xml version="1.0" encoding="utf-8"?>
<!-- Generator: Adobe Illustrator 21.0.0, SVG Export Plug-In . SVG Version: 6.00 Build 0)  -->
<svg version="1.1" id="图层_1" xmlns="http://www.w3.org/2000/svg" xmlns:xlink="http://www.w3.org/1999/xlink" x="0px" y="0px"
	 viewBox="0 0 99.8 38.8" style="enable-background:new 0 0 99.8 38.8;" xml:space="preserve">
<style type="text/css">
	.st0{font-family:'KaiTi';}
	.st1{font-size:10px;}
	.st2{fill:none;stroke:#000000;stroke-width:0.5;stroke-miterlimit:10;}
</style>
<text transform="matrix(1 0 0 1 59.75 22.5938)"><tspan x="0" y="0" class="st0 st1">宗因</tspan><tspan x="0" y="14" class="st0 st1">宗果</tspan></text>
<text transform="matrix(1 0 0 1 89.75 9)"><tspan x="0" y="0" class="st0 st1">教</tspan><tspan x="0" y="14" class="st0 st1">行</tspan><tspan x="0" y="28" class="st0 st1">证</tspan></text>
<line class="st2" x1="52.1" y1="4.9" x2="87.3" y2="4.9"/>
<line class="st2" x1="81.7" y1="19.2" x2="87.3" y2="19.2"/>
<line class="st2" x1="81.7" y1="33.4" x2="87.3" y2="33.4"/>
<g>
	<line class="st2" x1="55.1" y1="19.1" x2="55.1" y2="33.4"/>
	<line class="st2" x1="54.9" y1="19.1" x2="57.8" y2="19.1"/>
	<line class="st2" x1="54.9" y1="33.4" x2="57.8" y2="33.4"/>
	<line class="st2" x1="52.1" y1="26.3" x2="55" y2="26.3"/>
</g>
<text transform="matrix(1 0 0 1 29.25 8.5938)"><tspan x="0" y="0" class="st0 st1">能立</tspan><tspan x="0" y="21" class="st0 st1">所立</tspan></text>
<g>
	<line class="st2" x1="24.6" y1="4.9" x2="24.6" y2="26.3"/>
	<line class="st2" x1="24.4" y1="4.9" x2="27.3" y2="4.9"/>
	<line class="st2" x1="24.4" y1="26.3" x2="27.3" y2="26.3"/>
	<line class="st2" x1="21.5" y1="15.6" x2="24.4" y2="15.6"/>
</g>
<text transform="matrix(1 0 0 1 0 19.5)" class="st0 st1">立宗</text>
</svg>
