<?xml version="1.0" encoding="utf-8"?>
<!-- Generator: Adobe Illustrator 21.0.0, SVG Export Plug-In . SVG Version: 6.00 Build 0)  -->
<svg version="1.1" id="圖層_1" xmlns="http://www.w3.org/2000/svg" xmlns:xlink="http://www.w3.org/1999/xlink" x="0px" y="0px"
	 viewBox="0 0 182.6 39" style="enable-background:new 0 0 182.6 39;" xml:space="preserve">
<style type="text/css">
	.st0{font-family:'KaiTi';}
	.st1{font-size:10px;}
	.st2{fill:none;stroke:#000000;stroke-width:0.5;stroke-miterlimit:10;}
</style>
<text transform="matrix(1 0 0 1 61 8.7813)"><tspan x="0" y="0" class="st0 st1">教相判釋</tspan><tspan x="0" y="14" class="st0 st1">正依經典</tspan><tspan x="0" y="28" class="st0 st1">相承論釋</tspan></text>
<text transform="matrix(1 0 0 1 112 9.1875)"><tspan x="0" y="0" class="st0 st1">道理</tspan><tspan x="0" y="14" class="st0 st1">經據</tspan><tspan x="0" y="28" class="st0 st1">祖據</tspan></text>
<text transform="matrix(1 0 0 1 0 23.1875)" class="st0 st1">立宗三要素</text>
<line class="st2" x1="103.9" y1="5.1" x2="109.6" y2="5.1"/>
<line class="st2" x1="103.9" y1="19.3" x2="109.6" y2="19.3"/>
<line class="st2" x1="103.9" y1="33.6" x2="109.6" y2="33.6"/>
<g>
	<line class="st2" x1="55.3" y1="5.2" x2="55.3" y2="33.6"/>
	<line class="st2" x1="55.1" y1="5.2" x2="58" y2="5.2"/>
	<line class="st2" x1="55.1" y1="33.6" x2="58" y2="33.6"/>
	<line class="st2" x1="52.4" y1="19.4" x2="55.3" y2="19.4"/>
</g>
<g>
	<line class="st2" x1="136.8" y1="33.6" x2="136.8" y2="19.3"/>
	<line class="st2" x1="137" y1="33.6" x2="134.1" y2="33.6"/>
	<line class="st2" x1="137" y1="19.3" x2="134.1" y2="19.3"/>
	<line class="st2" x1="139.8" y1="26.5" x2="136.9" y2="26.5"/>
</g>
<text transform="matrix(1 0 0 1 141 8.5938)"><tspan x="0" y="0" class="st0 st1">理</tspan><tspan x="0" y="21" class="st0 st1">法</tspan></text>
<line class="st2" x1="133.9" y1="5.1" x2="139.6" y2="5.1"/>
<line class="st2" x1="153.9" y1="5.1" x2="159.6" y2="5.1"/>
<line class="st2" x1="153.9" y1="26.5" x2="159.6" y2="26.5"/>
<text transform="matrix(1 0 0 1 162.5779 8.7813)"><tspan x="0" y="0" class="st0 st1">合理</tspan><tspan x="0" y="21" class="st0 st1">合法</tspan></text>
</svg>
