<?xml version="1.0" encoding="utf-8"?>
<!-- Generator: Adobe Illustrator 16.0.0, SVG Export Plug-In . SVG Version: 6.00 Build 0)  -->
<!DOCTYPE svg PUBLIC "-//W3C//DTD SVG 1.1//EN" "http://www.w3.org/Graphics/SVG/1.1/DTD/svg11.dtd">
<svg version="1.1" id="图层_1" xmlns="http://www.w3.org/2000/svg" xmlns:xlink="http://www.w3.org/1999/xlink" x="0px" y="0px"
	 width="287.716px" height="53.625px" viewBox="0 0 287.716 53.625" enable-background="new 0 0 287.716 53.625"
	 xml:space="preserve">
<g>
	<text transform="matrix(1 0 0 1 0 26.0537)" font-family="'KaiTi'" font-size="10">大判门</text>
	<text transform="matrix(1 0 0 1 39.6675 26.0537)" font-family="'KaiTi'" font-size="10">往生行</text>
	<text transform="matrix(1 0 0 1 30.4175 51.3594)" font-family="'KaiTi'" font-size="10">祈祷现世</text>
	<text transform="matrix(1 0 0 1 79.5669 15.4429)" font-family="'KaiTi'" font-size="10">专修…正行</text>
	<text transform="matrix(1 0 0 1 138.7007 8.5938)"><tspan x="0" y="0" font-family="'KaiTi'" font-size="10">正定业</tspan><tspan x="0" y="14" font-family="'KaiTi'" font-size="10" letter-spacing="10">助业</tspan></text>
	<text transform="matrix(1 0 0 1 178.1514 22.7095)"><tspan x="0" y="0" font-family="'KaiTi'" font-size="10">助正兼行</tspan><tspan x="0" y="14" font-family="'KaiTi'" font-size="10">正杂兼行</tspan><tspan x="0" y="28" font-family="'KaiTi'" font-size="10">专名祈现</tspan></text>
	<text transform="matrix(1 0 0 1 228.3999 8.5938)"><tspan x="0" y="0" font-family="'KaiTi'" font-size="10">专修</tspan><tspan x="0" y="28" font-family="'KaiTi'" font-size="10">杂修</tspan></text>
	<text transform="matrix(1 0 0 1 257.7163 22.7095)" font-family="'KaiTi'" font-size="10">细判门</text>
	<line fill="none" stroke="#000000" stroke-width="0.5" stroke-miterlimit="10" x1="31.477" y1="22.709" x2="37.123" y2="22.709"/>
	<g>
		
			<line fill="none" stroke="#000000" stroke-width="0.5" stroke-miterlimit="10" x1="131.607" y1="12.046" x2="134.504" y2="12.046"/>
		<line fill="none" stroke="#000000" stroke-width="0.5" stroke-miterlimit="10" x1="134.379" y1="5.129" x2="137.274" y2="5.129"/>
		
			<line fill="none" stroke="#000000" stroke-width="0.5" stroke-miterlimit="10" x1="134.388" y1="19.296" x2="137.283" y2="19.296"/>
		
			<line fill="none" stroke="#000000" stroke-width="0.5" stroke-miterlimit="10" x1="134.504" y1="4.874" x2="134.504" y2="19.546"/>
	</g>
	<text transform="matrix(1 0 0 1 79.5669 36.7588)" font-family="'KaiTi'" font-size="10">杂修…杂行</text>
	
		<line fill="none" stroke="#000000" stroke-width="0.5" stroke-miterlimit="10" x1="170.692" y1="19.296" x2="176.317" y2="19.296"/>
	
		<line fill="none" stroke="#000000" stroke-width="0.5" stroke-miterlimit="10" x1="131.607" y1="33.193" x2="176.317" y2="33.193"/>
	<g>
		
			<line fill="none" stroke="#000000" stroke-width="0.5" stroke-miterlimit="10" x1="223.367" y1="33.194" x2="226.265" y2="33.194"/>
		
			<line fill="none" stroke="#000000" stroke-width="0.5" stroke-miterlimit="10" x1="220.466" y1="19.431" x2="223.367" y2="19.431"/>
		
			<line fill="none" stroke="#000000" stroke-width="0.5" stroke-miterlimit="10" x1="220.466" y1="46.878" x2="223.367" y2="46.878"/>
		
			<line fill="none" stroke="#000000" stroke-width="0.5" stroke-miterlimit="10" x1="223.367" y1="19.188" x2="223.367" y2="47.125"/>
	</g>
	<g>
		<line fill="none" stroke="#000000" stroke-width="0.5" stroke-miterlimit="10" x1="253.452" y1="18.88" x2="256.35" y2="18.88"/>
		<line fill="none" stroke="#000000" stroke-width="0.5" stroke-miterlimit="10" x1="250.55" y1="5.118" x2="253.452" y2="5.118"/>
		
			<line fill="none" stroke="#000000" stroke-width="0.5" stroke-miterlimit="10" x1="250.55" y1="32.565" x2="253.452" y2="32.565"/>
		
			<line fill="none" stroke="#000000" stroke-width="0.5" stroke-miterlimit="10" x1="253.452" y1="4.874" x2="253.452" y2="32.812"/>
	</g>
	<line fill="none" stroke="#000000" stroke-width="0.5" stroke-miterlimit="10" x1="71.671" y1="22.609" x2="74.567" y2="22.609"/>
	<line fill="none" stroke="#000000" stroke-width="0.5" stroke-miterlimit="10" x1="74.567" y1="12.046" x2="77.463" y2="12.046"/>
	<line fill="none" stroke="#000000" stroke-width="0.5" stroke-miterlimit="10" x1="74.567" y1="33.193" x2="77.463" y2="33.193"/>
	<line fill="none" stroke="#000000" stroke-width="0.5" stroke-miterlimit="10" x1="74.567" y1="11.797" x2="74.567" y2="33.438"/>
	<line fill="none" stroke="#000000" stroke-width="0.5" stroke-miterlimit="10" x1="71.671" y1="48.109" x2="176.317" y2="48.109"/>
	<line fill="none" stroke="#000000" stroke-width="0.5" stroke-miterlimit="10" x1="170.692" y1="4.874" x2="226.261" y2="4.874"/>
</g>
</svg>
