<?xml version="1.0" encoding="utf-8"?>
<!-- Generator: Adobe Illustrator 21.1.0, SVG Export Plug-In . SVG Version: 6.00 Build 0)  -->
<svg version="1.1" id="图层_1" xmlns="http://www.w3.org/2000/svg" xmlns:xlink="http://www.w3.org/1999/xlink" x="0px" y="0px"
	 viewBox="0 0 291.7 95.4" style="enable-background:new 0 0 291.7 95.4;" xml:space="preserve">
<style type="text/css">
	.st0{fill:none;}
	.st1{font-family:'SIL-Kai-Reg-Jian';}
	.st2{font-size:12px;}
	.st3{fill:none;stroke:#000000;stroke-width:0.5;stroke-miterlimit:10;}
	.st4{fill:none;stroke:#000000;stroke-width:0.5;stroke-miterlimit:10;stroke-dasharray:0.8571,0.8571;}
	.st5{fill:none;stroke:#000000;stroke-width:0.5;stroke-miterlimit:10;stroke-dasharray:0.5,0.5;}
	.st6{fill:none;stroke:#000000;stroke-width:0.5;stroke-miterlimit:10;stroke-dasharray:1,1;}
	.st7{fill:none;stroke:#000000;stroke-width:0.5;stroke-miterlimit:10;stroke-dasharray:1;}
</style>
<rect x="51" y="22" class="st0" width="63.8" height="55.4"/>
<text transform="matrix(1 0 0 1 50.9595 31.6411)"><tspan x="0" y="0" class="st1 st2">专修　正行</tspan><tspan x="0" y="38.8" class="st1 st2">杂修　杂行</tspan></text>
<rect x="123" y="0" class="st0" width="145.8" height="93.4"/>
<text transform="matrix(1 0 0 1 122.9595 9.5977)"><tspan x="0" y="0" class="st1 st2">正定业　　　　　　　专修</tspan><tspan x="0" y="40.8" class="st1 st2">助　业　　助正兼行</tspan><tspan x="0" y="61.2" class="st1 st2">　　　　　正杂兼行　杂修</tspan><tspan x="0" y="81.6" class="st1 st2">　　　　　专名祈现</tspan></text>
<rect x="0" y="26.1" class="st0" width="13.7" height="46.3"/>
<text transform="matrix(1 0 0 1 0 35.731)"><tspan x="0" y="0" class="st1 st2">大</tspan><tspan x="0" y="14.4" class="st1 st2">判</tspan><tspan x="0" y="28.8" class="st1 st2">门</tspan></text>
<rect x="27" y="26.1" class="st0" width="13.7" height="46.3"/>
<text transform="matrix(1 0 0 1 27 35.731)"><tspan x="0" y="0" class="st1 st2">往</tspan><tspan x="0" y="14.4" class="st1 st2">生</tspan><tspan x="0" y="28.8" class="st1 st2">行</tspan></text>
<line class="st3" x1="16.2" y1="46.9" x2="23.2" y2="46.9"/>
<g>
	<g>
		<line class="st3" x1="77.7" y1="27.9" x2="78.2" y2="27.9"/>
		<line class="st4" x1="79.1" y1="27.9" x2="83.8" y2="27.9"/>
		<line class="st3" x1="84.2" y1="27.9" x2="84.7" y2="27.9"/>
	</g>
</g>
<g>
	<g>
		<line class="st3" x1="77.7" y1="66.9" x2="78" y2="66.9"/>
		<line class="st5" x1="78.5" y1="66.9" x2="84.2" y2="66.9"/>
		<line class="st3" x1="84.5" y1="66.9" x2="84.7" y2="66.9"/>
	</g>
</g>
<g>
	<line class="st3" x1="44.1" y1="26.7" x2="44.1" y2="67.9"/>
	<line class="st3" x1="44.1" y1="26.7" x2="47.9" y2="26.7"/>
	<line class="st3" x1="44.1" y1="67.9" x2="47.9" y2="67.9"/>
	<line class="st3" x1="44.1" y1="47" x2="40.4" y2="47"/>
</g>
<g>
	<line class="st3" x1="117.1" y1="8.7" x2="117.1" y2="46.4"/>
	<line class="st3" x1="117.1" y1="8.7" x2="120.9" y2="8.7"/>
	<line class="st3" x1="117.1" y1="46.4" x2="120.9" y2="46.4"/>
	<line class="st3" x1="117.1" y1="27.3" x2="113.4" y2="27.3"/>
</g>
<g>
	<g>
		<line class="st3" x1="162.2" y1="5.9" x2="162.7" y2="5.9"/>
		<line class="st6" x1="163.7" y1="5.9" x2="239.2" y2="5.9"/>
		<line class="st3" x1="239.7" y1="5.9" x2="240.2" y2="5.9"/>
	</g>
</g>
<line class="st7" x1="164.2" y1="46.9" x2="181.2" y2="46.9"/>
<line class="st7" x1="117.2" y1="66.9" x2="181.2" y2="66.9"/>
<line class="st7" x1="181.7" y1="87.4" x2="69.2" y2="87.4"/>
<rect x="20.4" y="81.3" class="st0" width="50.3" height="14.1"/>
<text transform="matrix(1 0 0 1 20.4146 90.8521)" class="st1 st2">祈祷现世</text>
<g>
	<line class="st3" x1="236.1" y1="85.4" x2="236.1" y2="47.7"/>
	<line class="st3" x1="236.1" y1="85.4" x2="232.4" y2="85.4"/>
	<line class="st3" x1="236.1" y1="47.7" x2="232.4" y2="47.7"/>
	<line class="st3" x1="236.1" y1="66.8" x2="239.9" y2="66.8"/>
</g>
<rect x="278" y="15.1" class="st0" width="13.7" height="46.3"/>
<text transform="matrix(1 0 0 1 278 24.731)"><tspan x="0" y="0" class="st1 st2">细</tspan><tspan x="0" y="14.4" class="st1 st2">判</tspan><tspan x="0" y="28.8" class="st1 st2">门</tspan></text>
<g>
	<line class="st3" x1="272.1" y1="67.4" x2="272.1" y2="5.7"/>
	<line class="st3" x1="272.1" y1="67.4" x2="268.4" y2="67.4"/>
	<line class="st3" x1="272.1" y1="5.7" x2="268.4" y2="5.7"/>
	<line class="st3" x1="272.1" y1="37" x2="275.9" y2="37"/>
</g>
<line class="st7" x1="162.2" y1="5.9" x2="181.7" y2="46.4"/>
<line class="st7" x1="162.2" y1="5.9" x2="181.7" y2="66.4"/>
<line class="st7" x1="162.2" y1="5.9" x2="182.2" y2="87.9"/>
</svg>
