<?xml version="1.0" encoding="utf-8"?>
<!-- Generator: Adobe Illustrator 21.0.0, SVG Export Plug-In . SVG Version: 6.00 Build 0)  -->
<svg version="1.1" id="图层_1" xmlns="http://www.w3.org/2000/svg" xmlns:xlink="http://www.w3.org/1999/xlink" x="0px" y="0px"
	 viewBox="0 0 232 80.4" style="enable-background:new 0 0 232 80.4;" xml:space="preserve">
<style type="text/css">
	.st0{font-family:'KaiTi';}
	.st1{font-size:10px;}
	.st2{letter-spacing:5;}
	.st3{fill:none;stroke:#040000;stroke-width:0.5;stroke-miterlimit:10;}
</style>
<text transform="matrix(1 0 0 1 169 8.5938)"><tspan x="0" y="0" class="st0 st1">声闻藏</tspan><tspan x="0" y="14" class="st0 st1">菩萨藏</tspan><tspan x="0" y="28" class="st0 st1">渐</tspan><tspan x="10" y="28" class="st0 st1 st2"> </tspan><tspan x="20" y="28" class="st0 st1">教</tspan><tspan x="0" y="42" class="st0 st1">顿</tspan><tspan x="10" y="42" class="st0 st1 st2"> </tspan><tspan x="20" y="42" class="st0 st1">教</tspan></text>
<g>
	<line class="st3" x1="160.4" y1="11.4" x2="163.3" y2="11.4"/>
	<line class="st3" x1="163.3" y1="4.1" x2="166.2" y2="4.1"/>
	<line class="st3" x1="163.3" y1="19" x2="166.2" y2="19"/>
	<line class="st3" x1="163.3" y1="3.8" x2="163.3" y2="19"/>
</g>
<g>
	<line class="st3" x1="160.4" y1="39.9" x2="163.3" y2="39.9"/>
	<line class="st3" x1="163.3" y1="32.5" x2="166.2" y2="32.5"/>
	<line class="st3" x1="163.3" y1="47.4" x2="166.2" y2="47.4"/>
	<line class="st3" x1="163.3" y1="32.3" x2="163.3" y2="47.4"/>
</g>
<text transform="matrix(1 0 0 1 137 15.5938)"><tspan x="0" y="0" class="st0 st1">二藏</tspan><tspan x="0" y="28" class="st0 st1">二教</tspan><tspan x="0" y="49" class="st0 st1">要门</tspan><tspan x="0" y="63" class="st0 st1">弘愿</tspan></text>
<g>
	<line class="st3" x1="128.2" y1="25.6" x2="131.1" y2="25.6"/>
	<line class="st3" x1="131.1" y1="11.4" x2="134" y2="11.4"/>
	<line class="st3" x1="131.1" y1="39.9" x2="134" y2="39.9"/>
	<line class="st3" x1="131.1" y1="11.4" x2="131.1" y2="39.9"/>
</g>
<g>
	<line class="st3" x1="128.2" y1="67.9" x2="131.1" y2="67.9"/>
	<line class="st3" x1="131.1" y1="60.5" x2="134" y2="60.5"/>
	<line class="st3" x1="131.1" y1="75.4" x2="134" y2="75.4"/>
	<line class="st3" x1="131.1" y1="60.3" x2="131.1" y2="75.4"/>
</g>
<text transform="matrix(1 0 0 1 50.875 29.5938)"><tspan x="0" y="0" class="st0 st1">通判 二藏二教判</tspan><tspan x="0" y="42" class="st0 st1">别判 要弘二门判</tspan></text>
<g>
	<line class="st3" x1="42.1" y1="46.8" x2="45" y2="46.8"/>
	<line class="st3" x1="45" y1="25.6" x2="47.9" y2="25.6"/>
	<line class="st3" x1="45" y1="67.9" x2="47.9" y2="67.9"/>
	<line class="st3" x1="45" y1="25.6" x2="45" y2="67.9"/>
</g>
<text transform="matrix(1 0 0 1 0 50.5)" class="st0 st1">大师教判</text>
<g>
	<line class="st3" x1="210" y1="47.4" x2="202.4" y2="47.4"/>
	<line class="st3" x1="207.1" y1="75.4" x2="160.4" y2="75.4"/>
	<line class="st3" x1="207.1" y1="19" x2="202.4" y2="19"/>
	<line class="st3" x1="207.1" y1="75.4" x2="207.1" y2="19"/>
</g>
<text transform="matrix(1 0 0 1 212.0251 50.625)" class="st0 st1">开宗</text>
</svg>
