<?xml version="1.0" encoding="utf-8"?>
<!-- Generator: Adobe Illustrator 22.0.1, SVG Export Plug-In . SVG Version: 6.00 Build 0)  -->
<svg version="1.1" baseProfile="tiny" id="圖層_1"
	 xmlns="http://www.w3.org/2000/svg" xmlns:xlink="http://www.w3.org/1999/xlink" x="0px" y="0px" viewBox="0 0 287.7 53.6"
	 xml:space="preserve">
<text transform="matrix(1 0 0 1 -3.623962e-05 26.0537)" font-family="KaiTi" font-size="10px">大判門</text>
<text transform="matrix(1 0 0 1 39.6673 26.0537)" font-family="KaiTi" font-size="10px">往生行</text>
<text transform="matrix(1 0 0 1 30.4174 51.3594)" font-family="KaiTi" font-size="10px">祈禱現世</text>
<text transform="matrix(1 0 0 1 79.5669 15.4429)" font-family="KaiTi" font-size="10px">專修…正行</text>
<text transform="matrix(1 0 0 1 138.7008 8.5936)" font-family="KaiTi" font-size="10px">正</text>
<text transform="matrix(1 0 0 1 148.7008 8.5936)" font-family="KaiTi" font-size="10px">定</text>
<text transform="matrix(1 0 0 1 158.7008 8.5936)" font-family="KaiTi" font-size="10px">業</text>
<text transform="matrix(1 0 0 1 138.7008 22.5936)" font-family="KaiTi" font-size="10px">助</text>
<text transform="matrix(1 0 0 1 158.7008 22.5936)" font-family="KaiTi" font-size="10px">業</text>
<text transform="matrix(1 0 0 1 178.1516 22.7095)" font-family="KaiTi" font-size="10px">助正兼行</text>
<text transform="matrix(1 0 0 1 178.1516 36.7095)" font-family="KaiTi" font-size="10px">正雜兼行</text>
<text transform="matrix(1 0 0 1 178.1516 50.7095)" font-family="KaiTi" font-size="10px">專名祈現</text>
<text transform="matrix(1 0 0 1 228.3999 8.5937)" font-family="KaiTi" font-size="10px">專修</text>
<text transform="matrix(1 0 0 1 228.3999 36.5937)" font-family="KaiTi" font-size="10px">雜修</text>
<text transform="matrix(1 0 0 1 257.7165 22.7095)" font-family="KaiTi" font-size="10px">細判門</text>
<line fill="none" stroke="#000000" stroke-width="0.5" stroke-miterlimit="10" x1="31.5" y1="22.7" x2="37.1" y2="22.7"/>
<g>
	<line fill="none" stroke="#000000" stroke-width="0.5" stroke-miterlimit="10" x1="131.6" y1="12" x2="134.5" y2="12"/>
	<line fill="none" stroke="#000000" stroke-width="0.5" stroke-miterlimit="10" x1="134.4" y1="5.1" x2="137.3" y2="5.1"/>
	<line fill="none" stroke="#000000" stroke-width="0.5" stroke-miterlimit="10" x1="134.4" y1="19.3" x2="137.3" y2="19.3"/>
	<line fill="none" stroke="#000000" stroke-width="0.5" stroke-miterlimit="10" x1="134.5" y1="4.9" x2="134.5" y2="19.5"/>
</g>
<text transform="matrix(1 0 0 1 79.5669 36.759)" font-family="KaiTi" font-size="10px">雜修…雜行</text>
<line fill="none" stroke="#000000" stroke-width="0.5" stroke-miterlimit="10" x1="170.7" y1="19.3" x2="176.3" y2="19.3"/>
<line fill="none" stroke="#000000" stroke-width="0.5" stroke-miterlimit="10" x1="131.6" y1="33.2" x2="176.3" y2="33.2"/>
<g>
	<line fill="none" stroke="#000000" stroke-width="0.5" stroke-miterlimit="10" x1="223.4" y1="33.2" x2="226.3" y2="33.2"/>
	<line fill="none" stroke="#000000" stroke-width="0.5" stroke-miterlimit="10" x1="220.5" y1="19.4" x2="223.4" y2="19.4"/>
	<line fill="none" stroke="#000000" stroke-width="0.5" stroke-miterlimit="10" x1="220.5" y1="46.9" x2="223.4" y2="46.9"/>
	<line fill="none" stroke="#000000" stroke-width="0.5" stroke-miterlimit="10" x1="223.4" y1="19.2" x2="223.4" y2="47.1"/>
</g>
<g>
	<line fill="none" stroke="#000000" stroke-width="0.5" stroke-miterlimit="10" x1="253.5" y1="18.9" x2="256.4" y2="18.9"/>
	<line fill="none" stroke="#000000" stroke-width="0.5" stroke-miterlimit="10" x1="250.6" y1="5.1" x2="253.5" y2="5.1"/>
	<line fill="none" stroke="#000000" stroke-width="0.5" stroke-miterlimit="10" x1="250.6" y1="32.6" x2="253.5" y2="32.6"/>
	<line fill="none" stroke="#000000" stroke-width="0.5" stroke-miterlimit="10" x1="253.5" y1="4.9" x2="253.5" y2="32.8"/>
</g>
<line fill="none" stroke="#000000" stroke-width="0.5" stroke-miterlimit="10" x1="71.7" y1="22.6" x2="74.6" y2="22.6"/>
<line fill="none" stroke="#000000" stroke-width="0.5" stroke-miterlimit="10" x1="74.6" y1="12" x2="77.5" y2="12"/>
<line fill="none" stroke="#000000" stroke-width="0.5" stroke-miterlimit="10" x1="74.6" y1="33.2" x2="77.5" y2="33.2"/>
<line fill="none" stroke="#000000" stroke-width="0.5" stroke-miterlimit="10" x1="74.6" y1="11.8" x2="74.6" y2="33.4"/>
<line fill="none" stroke="#000000" stroke-width="0.5" stroke-miterlimit="10" x1="71.7" y1="48.1" x2="176.3" y2="48.1"/>
<line fill="none" stroke="#000000" stroke-width="0.5" stroke-miterlimit="10" x1="170.7" y1="4.9" x2="226.3" y2="4.9"/>
</svg>
