<?xml version="1.0" encoding="utf-8"?>
<!-- Generator: Adobe Illustrator 21.0.0, SVG Export Plug-In . SVG Version: 6.00 Build 0)  -->
<svg version="1.1" id="圖層_1" xmlns="http://www.w3.org/2000/svg" xmlns:xlink="http://www.w3.org/1999/xlink" x="0px" y="0px"
	 viewBox="0 0 288.2 52.4" style="enable-background:new 0 0 288.2 52.4;" xml:space="preserve">
<style type="text/css">
	.st0{font-family:'KaiTi';}
	.st1{font-size:10px;}
	.st2{letter-spacing:5;}
	.st3{fill:none;stroke:#000000;stroke-width:0.5;stroke-miterlimit:10;}
</style>
<text transform="matrix(1 0 0 1 23.1665 13.9897)"><tspan x="0" y="0" class="st0 st1">大願 </tspan><tspan x="25" y="0" class="st0 st1 st2"> </tspan><tspan x="35" y="0" class="st0 st1">彌陀因地五劫思惟四十八願(為我發)</tspan><tspan x="0" y="14" class="st0 st1">大業 </tspan><tspan x="25" y="14" class="st0 st1 st2"> </tspan><tspan x="35" y="14" class="st0 st1">彌陀因地兆載永劫六度萬行(為我修)</tspan><tspan x="0" y="28" class="st0 st1">大力</tspan><tspan x="20" y="28" class="st0 st1 st2"> </tspan><tspan x="30" y="28" class="st0 st1"> 彌陀果地光明名號度生能力(為我成)</tspan></text>
<text transform="matrix(1 0 0 1 -1.659393e-04 8.5941)"><tspan x="0" y="0" class="st0 st1">大</tspan><tspan x="0" y="14" class="st0 st1">願</tspan><tspan x="0" y="28" class="st0 st1">業</tspan><tspan x="0" y="42" class="st0 st1">力</tspan></text>
<g>
	<line class="st3" x1="16.9" y1="10.4" x2="16.9" y2="39.4"/>
	<line class="st3" x1="16.9" y1="10.4" x2="19.6" y2="10.4"/>
	<line class="st3" x1="16.9" y1="39.4" x2="19.6" y2="39.4"/>
	<line class="st3" x1="16.9" y1="24.9" x2="14.1" y2="24.9"/>
</g>
<line class="st3" x1="46.1" y1="10.4" x2="54.5" y2="10.4"/>
<line class="st3" x1="46.1" y1="24.9" x2="54.5" y2="24.9"/>
<line class="st3" x1="46.1" y1="39.4" x2="54.5" y2="39.4"/>
<g>
	<line class="st3" x1="222.3" y1="39.4" x2="222.3" y2="10.4"/>
	<line class="st3" x1="222.4" y1="39.4" x2="219.7" y2="39.4"/>
	<line class="st3" x1="222.4" y1="10.4" x2="219.7" y2="10.4"/>
	<line class="st3" x1="222.3" y1="24.9" x2="225.1" y2="24.9"/>
</g>
<text transform="matrix(1 0 0 1 228.1665 22.5939)"><tspan x="0" y="0" class="st0 st1">南無阿彌陀佛</tspan><tspan x="0" y="14" class="st0 st1"> (他力迴向)</tspan></text>
</svg>
