<?xml version="1.0" encoding="utf-8"?>
<!-- Generator: Adobe Illustrator 21.0.0, SVG Export Plug-In . SVG Version: 6.00 Build 0)  -->
<svg version="1.1" id="圖層_1" xmlns="http://www.w3.org/2000/svg" xmlns:xlink="http://www.w3.org/1999/xlink" x="0px" y="0px"
	 viewBox="0 0 390.8 142.8" style="enable-background:new 0 0 390.8 142.8;" xml:space="preserve">
<style type="text/css">
	.st0{fill:none;stroke:#040000;stroke-width:0.5;stroke-miterlimit:10;}
	.st1{fill:none;}
	.st2{font-family:'KaiTi';}
	.st3{font-size:12px;}
	.st4{letter-spacing:6;}
</style>
<g>
	<g>
		<path d="M56.5,5c0,0.5-0.3,0.8-0.8,0.8S54.9,5.5,54.9,5s0.3-0.8,0.8-0.8S56.4,4.5,56.5,5z"/>
		<path d="M56.5,61c0,0.5-0.3,0.8-0.8,0.8s-0.8-0.3-0.8-0.8s0.3-0.8,0.8-0.8S56.4,60.5,56.5,61z"/>
		<path d="M56.5,117c0,0.5-0.3,0.8-0.8,0.8s-0.8-0.3-0.8-0.8s0.3-0.8,0.8-0.8S56.4,116.5,56.5,117z"/>
	</g>
</g>
<line class="st0" x1="43.6" y1="61" x2="46.5" y2="61"/>
<line class="st0" x1="46.5" y1="5" x2="49.4" y2="5"/>
<line class="st0" x1="46.5" y1="117" x2="49.4" y2="117"/>
<line class="st0" x1="46.5" y1="4.8" x2="46.5" y2="117.3"/>
<rect x="60.8" y="0.1" class="st1" width="330" height="142.7"/>
<text transform="matrix(1 0 0 1 60.8333 10.4292)" class="st2 st3">設</text>
<text transform="matrix(1 0 0 1 72.8333 10.4292)" class="st2 st3">我</text>
<text transform="matrix(1 0 0 1 84.8333 10.4292)" class="st2 st3">得</text>
<text transform="matrix(1 0 0 1 96.8333 10.4292)" class="st2 st3">佛</text>
<text transform="matrix(1 0 0 1 108.8333 10.4292)" class="st2 st3">，</text>
<text transform="matrix(1 0 0 1 120.8333 10.4292)" class="st2 st3">十</text>
<text transform="matrix(1 0 0 1 132.8333 10.4292)" class="st2 st3">方</text>
<text transform="matrix(1 0 0 1 144.8333 10.4292)" class="st2 st3">眾</text>
<text transform="matrix(1 0 0 1 156.8333 10.4292)" class="st2 st3">生</text>
<text transform="matrix(1 0 0 1 168.8333 10.4292)" class="st2 st3">，</text>
<text transform="matrix(1 0 0 1 180.8333 10.4292)" class="st2 st3">至</text>
<text transform="matrix(1 0 0 1 192.8333 10.4292)" class="st2 st3">心</text>
<text transform="matrix(1 0 0 1 204.8333 10.4292)" class="st2 st3">信</text>
<text transform="matrix(1 0 0 1 216.8333 10.4292)" class="st2 st3">樂</text>
<text transform="matrix(1 0 0 1 228.8333 10.4292)" class="st2 st3">，</text>
<text transform="matrix(1 0 0 1 240.8333 10.4292)" class="st2 st3">欲</text>
<text transform="matrix(1 0 0 1 252.8333 10.4292)" class="st2 st3">生</text>
<text transform="matrix(1 0 0 1 264.8333 10.4292)" class="st2 st3">我</text>
<text transform="matrix(1 0 0 1 276.8333 10.4292)" class="st2 st3">國</text>
<text transform="matrix(1 0 0 1 288.8333 10.4292)" class="st2 st3">，</text>
<text transform="matrix(1 0 0 1 60.8333 24.8291)" class="st2 st3">乃</text>
<text transform="matrix(1 0 0 1 72.8333 24.8291)" class="st2 st3">至</text>
<text transform="matrix(1 0 0 1 84.8333 24.8291)" class="st2 st3">十</text>
<text transform="matrix(1 0 0 1 96.8333 24.8291)" class="st2 st3">念</text>
<text transform="matrix(1 0 0 1 108.8333 24.8291)" class="st2 st3">；</text>
<text transform="matrix(1 0 0 1 120.8333 24.8291)" class="st2 st3">若</text>
<text transform="matrix(1 0 0 1 132.8333 24.8291)" class="st2 st3">不</text>
<text transform="matrix(1 0 0 1 144.8333 24.8291)" class="st2 st3">生</text>
<text transform="matrix(1 0 0 1 156.8333 24.8291)" class="st2 st3">者</text>
<text transform="matrix(1 0 0 1 168.8333 24.8291)" class="st2 st3">，</text>
<text transform="matrix(1 0 0 1 180.8333 24.8291)" class="st2 st3">不</text>
<text transform="matrix(1 0 0 1 192.8333 24.8291)" class="st2 st3">取</text>
<text transform="matrix(1 0 0 1 204.8333 24.8291)" class="st2 st3">正</text>
<text transform="matrix(1 0 0 1 216.8333 24.8291)" class="st2 st3">覺</text>
<text transform="matrix(1 0 0 1 228.8333 24.8291)" class="st2 st3">。</text>
<text transform="matrix(1 0 0 1 60.8333 39.229)" class="st2 st3">唯</text>
<text transform="matrix(1 0 0 1 72.8333 39.229)" class="st2 st3">除</text>
<text transform="matrix(1 0 0 1 84.8333 39.229)" class="st2 st3">五</text>
<text transform="matrix(1 0 0 1 96.8333 39.229)" class="st2 st3">逆</text>
<text transform="matrix(1 0 0 1 108.8333 39.229)" class="st2 st3">，</text>
<text transform="matrix(1 0 0 1 120.8333 39.229)" class="st2 st3">誹</text>
<text transform="matrix(1 0 0 1 132.8333 39.229)" class="st2 st3">謗</text>
<text transform="matrix(1 0 0 1 144.8333 39.229)" class="st2 st3">正</text>
<text transform="matrix(1 0 0 1 156.8333 39.229)" class="st2 st3">法</text>
<text transform="matrix(1 0 0 1 168.8333 39.229)" class="st2 st3">。</text>
<text transform="matrix(1 0 0 1 180.8333 39.229)" class="st2 st3 st4"> </text>
<text transform="matrix(1 0 0 1 192.8333 39.229)" class="st2 st3 st4"> </text>
<text transform="matrix(1 0 0 1 204.8333 39.229)" class="st2 st3 st4"> </text>
<text transform="matrix(1 0 0 1 216.8333 39.229)" class="st2 st3 st4"> </text>
<text transform="matrix(1 0 0 1 228.8333 39.229)" class="st2 st3 st4"> </text>
<text transform="matrix(1 0 0 1 240.8333 39.229)" class="st2 st3 st4"> </text>
<text transform="matrix(1 0 0 1 252.8333 39.229)" class="st2 st3 st4"> </text>
<text transform="matrix(1 0 0 1 264.8333 39.229)" class="st2 st3 st4"> </text>
<text transform="matrix(1 0 0 1 276.8333 39.229)" class="st2 st3 st4"> </text>
<text transform="matrix(1 0 0 1 288.8333 39.229)" class="st2 st3 st4"> </text>
<text transform="matrix(1 0 0 1 300.8333 39.229)" class="st2 st3 st4"> </text>
<text transform="matrix(1 0 0 1 312.8333 39.229)" class="st2 st3">（</text>
<text transform="matrix(1 0 0 1 324.8333 39.229)" class="st2 st3">第</text>
<text transform="matrix(1 0 0 1 336.8333 39.229)" class="st2 st3">十</text>
<text transform="matrix(1 0 0 1 348.8333 39.229)" class="st2 st3">八</text>
<text transform="matrix(1 0 0 1 360.8333 39.229)" class="st2 st3">願</text>
<text transform="matrix(1 0 0 1 372.8333 39.229)" class="st2 st3">）</text>
<text transform="matrix(1 0 0 1 60.8333 66.0293)" class="st2 st3">諸</text>
<text transform="matrix(1 0 0 1 72.8333 66.0293)" class="st2 st3">有</text>
<text transform="matrix(1 0 0 1 84.8333 66.0293)" class="st2 st3">眾</text>
<text transform="matrix(1 0 0 1 96.8333 66.0293)" class="st2 st3">生</text>
<text transform="matrix(1 0 0 1 108.8333 66.0293)" class="st2 st3">，</text>
<text transform="matrix(1 0 0 1 120.8333 66.0293)" class="st2 st3">聞</text>
<text transform="matrix(1 0 0 1 132.8333 66.0293)" class="st2 st3">其</text>
<text transform="matrix(1 0 0 1 144.8333 66.0293)" class="st2 st3">名</text>
<text transform="matrix(1 0 0 1 156.8333 66.0293)" class="st2 st3">號</text>
<text transform="matrix(1 0 0 1 168.8333 66.0293)" class="st2 st3">，</text>
<text transform="matrix(1 0 0 1 180.8333 66.0293)" class="st2 st3">信</text>
<text transform="matrix(1 0 0 1 192.8333 66.0293)" class="st2 st3">心</text>
<text transform="matrix(1 0 0 1 204.8333 66.0293)" class="st2 st3">歡</text>
<text transform="matrix(1 0 0 1 216.8333 66.0293)" class="st2 st3">喜</text>
<text transform="matrix(1 0 0 1 228.8333 66.0293)" class="st2 st3">，</text>
<text transform="matrix(1 0 0 1 240.8333 66.0293)" class="st2 st3">乃</text>
<text transform="matrix(1 0 0 1 252.8333 66.0293)" class="st2 st3">至</text>
<text transform="matrix(1 0 0 1 264.8333 66.0293)" class="st2 st3">一</text>
<text transform="matrix(1 0 0 1 276.8333 66.0293)" class="st2 st3">念</text>
<text transform="matrix(1 0 0 1 288.8333 66.0293)" class="st2 st3">，</text>
<text transform="matrix(1 0 0 1 60.8333 80.4292)" class="st2 st3">至</text>
<text transform="matrix(1 0 0 1 72.8333 80.4292)" class="st2 st3">心</text>
<text transform="matrix(1 0 0 1 84.8333 80.4292)" class="st2 st3">迴</text>
<text transform="matrix(1 0 0 1 96.8333 80.4292)" class="st2 st3">向</text>
<text transform="matrix(1 0 0 1 108.8333 80.4292)" class="st2 st3">，</text>
<text transform="matrix(1 0 0 1 120.8333 80.4292)" class="st2 st3">願</text>
<text transform="matrix(1 0 0 1 132.8333 80.4292)" class="st2 st3">生</text>
<text transform="matrix(1 0 0 1 144.8333 80.4292)" class="st2 st3">彼</text>
<text transform="matrix(1 0 0 1 156.8333 80.4292)" class="st2 st3">國</text>
<text transform="matrix(1 0 0 1 168.8333 80.4292)" class="st2 st3">，</text>
<text transform="matrix(1 0 0 1 180.8333 80.4292)" class="st2 st3">即</text>
<text transform="matrix(1 0 0 1 192.8333 80.4292)" class="st2 st3">得</text>
<text transform="matrix(1 0 0 1 204.8333 80.4292)" class="st2 st3">往</text>
<text transform="matrix(1 0 0 1 216.8333 80.4292)" class="st2 st3">生</text>
<text transform="matrix(1 0 0 1 228.8333 80.4292)" class="st2 st3">，</text>
<text transform="matrix(1 0 0 1 240.8333 80.4292)" class="st2 st3">住</text>
<text transform="matrix(1 0 0 1 252.8333 80.4292)" class="st2 st3">不</text>
<text transform="matrix(1 0 0 1 264.8333 80.4292)" class="st2 st3">退</text>
<text transform="matrix(1 0 0 1 276.8333 80.4292)" class="st2 st3">轉</text>
<text transform="matrix(1 0 0 1 288.8333 80.4292)" class="st2 st3">。</text>
<text transform="matrix(1 0 0 1 60.8333 94.8291)" class="st2 st3">唯</text>
<text transform="matrix(1 0 0 1 72.8333 94.8291)" class="st2 st3">除</text>
<text transform="matrix(1 0 0 1 84.8333 94.8291)" class="st2 st3">五</text>
<text transform="matrix(1 0 0 1 96.8333 94.8291)" class="st2 st3">逆</text>
<text transform="matrix(1 0 0 1 108.8333 94.8291)" class="st2 st3">，</text>
<text transform="matrix(1 0 0 1 120.8333 94.8291)" class="st2 st3">誹</text>
<text transform="matrix(1 0 0 1 132.8333 94.8291)" class="st2 st3">謗</text>
<text transform="matrix(1 0 0 1 144.8333 94.8291)" class="st2 st3">正</text>
<text transform="matrix(1 0 0 1 156.8333 94.8291)" class="st2 st3">法</text>
<text transform="matrix(1 0 0 1 168.8333 94.8291)" class="st2 st3">。</text>
<text transform="matrix(1 0 0 1 180.8333 94.8291)" class="st2 st3 st4"> </text>
<text transform="matrix(1 0 0 1 192.8333 94.8291)" class="st2 st3 st4"> </text>
<text transform="matrix(1 0 0 1 204.8333 94.8291)" class="st2 st3 st4"> </text>
<text transform="matrix(1 0 0 1 216.8333 94.8291)" class="st2 st3 st4"> </text>
<text transform="matrix(1 0 0 1 228.8333 94.8291)" class="st2 st3 st4"> </text>
<text transform="matrix(1 0 0 1 240.8333 94.8291)" class="st2 st3 st4"> </text>
<text transform="matrix(1 0 0 1 252.8333 94.8291)" class="st2 st3 st4"> </text>
<text transform="matrix(1 0 0 1 264.8333 94.8291)" class="st2 st3 st4"> </text>
<text transform="matrix(1 0 0 1 276.8333 94.8291)" class="st2 st3 st4"> </text>
<text transform="matrix(1 0 0 1 288.8333 94.8291)" class="st2 st3">（</text>
<text transform="matrix(1 0 0 1 300.8333 94.8291)" class="st2 st3">十</text>
<text transform="matrix(1 0 0 1 312.8333 94.8291)" class="st2 st3">八</text>
<text transform="matrix(1 0 0 1 324.8333 94.8291)" class="st2 st3">願</text>
<text transform="matrix(1 0 0 1 336.8333 94.8291)" class="st2 st3">成</text>
<text transform="matrix(1 0 0 1 348.8333 94.8291)" class="st2 st3">就</text>
<text transform="matrix(1 0 0 1 360.8333 94.8291)" class="st2 st3">文</text>
<text transform="matrix(1 0 0 1 372.8333 94.8291)" class="st2 st3">）</text>
<text transform="matrix(1 0 0 1 60.8333 121.6294)" class="st2 st3">其</text>
<text transform="matrix(1 0 0 1 72.8333 121.6294)" class="st2 st3">有</text>
<text transform="matrix(1 0 0 1 84.8333 121.6294)" class="st2 st3">得</text>
<text transform="matrix(1 0 0 1 96.8333 121.6294)" class="st2 st3">聞</text>
<text transform="matrix(1 0 0 1 108.8333 121.6294)" class="st2 st3">，</text>
<text transform="matrix(1 0 0 1 120.8333 121.6294)" class="st2 st3">彼</text>
<text transform="matrix(1 0 0 1 132.8333 121.6294)" class="st2 st3">佛</text>
<text transform="matrix(1 0 0 1 144.8333 121.6294)" class="st2 st3">名</text>
<text transform="matrix(1 0 0 1 156.8333 121.6294)" class="st2 st3">號</text>
<text transform="matrix(1 0 0 1 168.8333 121.6294)" class="st2 st3">，</text>
<text transform="matrix(1 0 0 1 180.8333 121.6294)" class="st2 st3">歡</text>
<text transform="matrix(1 0 0 1 192.8333 121.6294)" class="st2 st3">喜</text>
<text transform="matrix(1 0 0 1 204.8333 121.6294)" class="st2 st3">踴</text>
<text transform="matrix(1 0 0 1 216.8333 121.6294)" class="st2 st3">躍</text>
<text transform="matrix(1 0 0 1 228.8333 121.6294)" class="st2 st3">，</text>
<text transform="matrix(1 0 0 1 240.8333 121.6294)" class="st2 st3">乃</text>
<text transform="matrix(1 0 0 1 252.8333 121.6294)" class="st2 st3">至</text>
<text transform="matrix(1 0 0 1 264.8333 121.6294)" class="st2 st3">一</text>
<text transform="matrix(1 0 0 1 276.8333 121.6294)" class="st2 st3">念</text>
<text transform="matrix(1 0 0 1 288.8333 121.6294)" class="st2 st3">；</text>
<text transform="matrix(1 0 0 1 60.8333 136.0293)" class="st2 st3">當</text>
<text transform="matrix(1 0 0 1 72.8333 136.0293)" class="st2 st3">知</text>
<text transform="matrix(1 0 0 1 84.8333 136.0293)" class="st2 st3">此</text>
<text transform="matrix(1 0 0 1 96.8333 136.0293)" class="st2 st3">人</text>
<text transform="matrix(1 0 0 1 108.8333 136.0293)" class="st2 st3">，</text>
<text transform="matrix(1 0 0 1 120.8333 136.0293)" class="st2 st3">為</text>
<text transform="matrix(1 0 0 1 132.8333 136.0293)" class="st2 st3">得</text>
<text transform="matrix(1 0 0 1 144.8333 136.0293)" class="st2 st3">大</text>
<text transform="matrix(1 0 0 1 156.8333 136.0293)" class="st2 st3">利</text>
<text transform="matrix(1 0 0 1 168.8333 136.0293)" class="st2 st3">，</text>
<text transform="matrix(1 0 0 1 180.8333 136.0293)" class="st2 st3">則</text>
<text transform="matrix(1 0 0 1 192.8333 136.0293)" class="st2 st3">是</text>
<text transform="matrix(1 0 0 1 204.8333 136.0293)" class="st2 st3">具</text>
<text transform="matrix(1 0 0 1 216.8333 136.0293)" class="st2 st3">足</text>
<text transform="matrix(1 0 0 1 228.8333 136.0293)" class="st2 st3">，</text>
<text transform="matrix(1 0 0 1 240.8333 136.0293)" class="st2 st3">無</text>
<text transform="matrix(1 0 0 1 252.8333 136.0293)" class="st2 st3">上</text>
<text transform="matrix(1 0 0 1 264.8333 136.0293)" class="st2 st3">功</text>
<text transform="matrix(1 0 0 1 276.8333 136.0293)" class="st2 st3">德</text>
<text transform="matrix(1 0 0 1 288.8333 136.0293)" class="st2 st3">。</text>
<text transform="matrix(1 0 0 1 300.8333 136.0293)" class="st2 st3">（</text>
<text transform="matrix(1 0 0 1 312.8333 136.0293)" class="st2 st3">咐</text>
<text transform="matrix(1 0 0 1 324.8333 136.0293)" class="st2 st3">囑</text>
<text transform="matrix(1 0 0 1 336.8333 136.0293)" class="st2 st3">彌</text>
<text transform="matrix(1 0 0 1 348.8333 136.0293)" class="st2 st3">勒</text>
<text transform="matrix(1 0 0 1 360.8333 136.0293)" class="st2 st3">文</text>
<text transform="matrix(1 0 0 1 372.8333 136.0293)" class="st2 st3">）</text>
<rect y="47.6" class="st1" width="42" height="28.7"/>
<text transform="matrix(1 0 0 1 8.9998 57.9292)" class="st2 st3">大經</text>
<text transform="matrix(1 0 0 1 2.9998 72.3291)" class="st2 st3">三要文</text>
</svg>
