<?xml version="1.0" encoding="utf-8"?>
<!-- Generator: Adobe Illustrator 21.1.0, SVG Export Plug-In . SVG Version: 6.00 Build 0)  -->
<svg version="1.1" baseProfile="tiny" id="圖層_1"
	 xmlns="http://www.w3.org/2000/svg" xmlns:xlink="http://www.w3.org/1999/xlink" x="0px" y="0px" viewBox="0 0 390.8 142.8"
	 xml:space="preserve">
<g>
	<g>
		<path d="M56.5,5c0,0.5-0.3,0.8-0.8,0.8c-0.5,0-0.8-0.3-0.8-0.8c0-0.5,0.3-0.8,0.8-0.8C56.2,4.2,56.4,4.5,56.5,5z"/>
		<path d="M56.5,61c0,0.5-0.3,0.8-0.8,0.8c-0.5,0-0.8-0.3-0.8-0.8c0-0.5,0.3-0.8,0.8-0.8C56.2,60.2,56.4,60.5,56.5,61z"/>
		<path d="M56.5,117c0,0.5-0.3,0.8-0.8,0.8c-0.5,0-0.8-0.3-0.8-0.8c0-0.5,0.3-0.8,0.8-0.8C56.2,116.2,56.4,116.5,56.5,117z"/>
	</g>
</g>
<line fill="none" stroke="#040000" stroke-width="0.5" stroke-miterlimit="10" x1="43.6" y1="61" x2="46.5" y2="61"/>
<line fill="none" stroke="#040000" stroke-width="0.5" stroke-miterlimit="10" x1="46.5" y1="5" x2="49.4" y2="5"/>
<line fill="none" stroke="#040000" stroke-width="0.5" stroke-miterlimit="10" x1="46.5" y1="117" x2="49.4" y2="117"/>
<line fill="none" stroke="#040000" stroke-width="0.5" stroke-miterlimit="10" x1="46.5" y1="4.8" x2="46.5" y2="117.3"/>
<rect x="60.8" y="0.1" fill="none" width="330" height="142.7"/>
<text transform="matrix(1 0 0 1 60.8333 10.4292)" font-family="KaiTi" font-size="12px">設</text>
<text transform="matrix(1 0 0 1 72.8333 10.4292)" font-family="KaiTi" font-size="12px">我</text>
<text transform="matrix(1 0 0 1 84.8333 10.4292)" font-family="KaiTi" font-size="12px">得</text>
<text transform="matrix(1 0 0 1 96.8333 10.4292)" font-family="KaiTi" font-size="12px">佛</text>
<text transform="matrix(1 0 0 1 108.8333 10.4292)" font-family="KaiTi" font-size="12px">，</text>
<text transform="matrix(1 0 0 1 120.8333 10.4292)" font-family="KaiTi" font-size="12px">十</text>
<text transform="matrix(1 0 0 1 132.8333 10.4292)" font-family="KaiTi" font-size="12px">方</text>
<text transform="matrix(1 0 0 1 144.8333 10.4292)" font-family="KaiTi" font-size="12px">眾</text>
<text transform="matrix(1 0 0 1 156.8333 10.4292)" font-family="KaiTi" font-size="12px">生</text>
<text transform="matrix(1 0 0 1 168.8333 10.4292)" font-family="KaiTi" font-size="12px">，</text>
<text transform="matrix(1 0 0 1 180.8333 10.4292)" font-family="KaiTi" font-size="12px">至</text>
<text transform="matrix(1 0 0 1 192.8333 10.4292)" font-family="KaiTi" font-size="12px">心</text>
<text transform="matrix(1 0 0 1 204.8333 10.4292)" font-family="KaiTi" font-size="12px">信</text>
<text transform="matrix(1 0 0 1 216.8333 10.4292)" font-family="KaiTi" font-size="12px">樂</text>
<text transform="matrix(1 0 0 1 228.8333 10.4292)" font-family="KaiTi" font-size="12px">，</text>
<text transform="matrix(1 0 0 1 240.8333 10.4292)" font-family="KaiTi" font-size="12px">欲</text>
<text transform="matrix(1 0 0 1 252.8333 10.4292)" font-family="KaiTi" font-size="12px">生</text>
<text transform="matrix(1 0 0 1 264.8333 10.4292)" font-family="KaiTi" font-size="12px">我</text>
<text transform="matrix(1 0 0 1 276.8333 10.4292)" font-family="KaiTi" font-size="12px">國</text>
<text transform="matrix(1 0 0 1 288.8333 10.4292)" font-family="KaiTi" font-size="12px">，</text>
<text transform="matrix(1 0 0 1 60.8333 24.8291)" font-family="KaiTi" font-size="12px">乃</text>
<text transform="matrix(1 0 0 1 72.8333 24.8291)" font-family="KaiTi" font-size="12px">至</text>
<text transform="matrix(1 0 0 1 84.8333 24.8291)" font-family="KaiTi" font-size="12px">十</text>
<text transform="matrix(1 0 0 1 96.8333 24.8291)" font-family="KaiTi" font-size="12px">念</text>
<text transform="matrix(1 0 0 1 108.8333 24.8291)" font-family="KaiTi" font-size="12px">；</text>
<text transform="matrix(1 0 0 1 120.8333 24.8291)" font-family="KaiTi" font-size="12px">若</text>
<text transform="matrix(1 0 0 1 132.8333 24.8291)" font-family="KaiTi" font-size="12px">不</text>
<text transform="matrix(1 0 0 1 144.8333 24.8291)" font-family="KaiTi" font-size="12px">生</text>
<text transform="matrix(1 0 0 1 156.8333 24.8291)" font-family="KaiTi" font-size="12px">者</text>
<text transform="matrix(1 0 0 1 168.8333 24.8291)" font-family="KaiTi" font-size="12px">，</text>
<text transform="matrix(1 0 0 1 180.8333 24.8291)" font-family="KaiTi" font-size="12px">不</text>
<text transform="matrix(1 0 0 1 192.8333 24.8291)" font-family="KaiTi" font-size="12px">取</text>
<text transform="matrix(1 0 0 1 204.8333 24.8291)" font-family="KaiTi" font-size="12px">正</text>
<text transform="matrix(1 0 0 1 216.8333 24.8291)" font-family="KaiTi" font-size="12px">覺</text>
<text transform="matrix(1 0 0 1 228.8333 24.8291)" font-family="KaiTi" font-size="12px">。</text>
<text transform="matrix(1 0 0 1 60.8333 39.229)" font-family="KaiTi" font-size="12px">唯</text>
<text transform="matrix(1 0 0 1 72.8333 39.229)" font-family="KaiTi" font-size="12px">除</text>
<text transform="matrix(1 0 0 1 84.8333 39.229)" font-family="KaiTi" font-size="12px">五</text>
<text transform="matrix(1 0 0 1 96.8333 39.229)" font-family="KaiTi" font-size="12px">逆</text>
<text transform="matrix(1 0 0 1 108.8333 39.229)" font-family="KaiTi" font-size="12px">，</text>
<text transform="matrix(1 0 0 1 120.8333 39.229)" font-family="KaiTi" font-size="12px">誹</text>
<text transform="matrix(1 0 0 1 132.8333 39.229)" font-family="KaiTi" font-size="12px">謗</text>
<text transform="matrix(1 0 0 1 144.8333 39.229)" font-family="KaiTi" font-size="12px">正</text>
<text transform="matrix(1 0 0 1 156.8333 39.229)" font-family="KaiTi" font-size="12px">法</text>
<text transform="matrix(1 0 0 1 168.8333 39.229)" font-family="KaiTi" font-size="12px">。</text>
<text transform="matrix(1 0 0 1 180.8333 39.229)" font-family="KaiTi" font-size="12px"> </text>
<text transform="matrix(1 0 0 1 192.8333 39.229)" font-family="KaiTi" font-size="12px"> </text>
<text transform="matrix(1 0 0 1 204.8333 39.229)" font-family="KaiTi" font-size="12px"> </text>
<text transform="matrix(1 0 0 1 216.8333 39.229)" font-family="KaiTi" font-size="12px"> </text>
<text transform="matrix(1 0 0 1 228.8333 39.229)" font-family="KaiTi" font-size="12px"> </text>
<text transform="matrix(1 0 0 1 240.8333 39.229)" font-family="KaiTi" font-size="12px"> </text>
<text transform="matrix(1 0 0 1 252.8333 39.229)" font-family="KaiTi" font-size="12px"> </text>
<text transform="matrix(1 0 0 1 264.8333 39.229)" font-family="KaiTi" font-size="12px"> </text>
<text transform="matrix(1 0 0 1 276.8333 39.229)" font-family="KaiTi" font-size="12px"> </text>
<text transform="matrix(1 0 0 1 288.8333 39.229)" font-family="KaiTi" font-size="12px"> </text>
<text transform="matrix(1 0 0 1 300.8333 39.229)" font-family="KaiTi" font-size="12px"> </text>
<text transform="matrix(1 0 0 1 312.8333 39.229)" font-family="KaiTi" font-size="12px">（</text>
<text transform="matrix(1 0 0 1 324.8333 39.229)" font-family="KaiTi" font-size="12px">第</text>
<text transform="matrix(1 0 0 1 336.8333 39.229)" font-family="KaiTi" font-size="12px">十</text>
<text transform="matrix(1 0 0 1 348.8333 39.229)" font-family="KaiTi" font-size="12px">八</text>
<text transform="matrix(1 0 0 1 360.8333 39.229)" font-family="KaiTi" font-size="12px">願</text>
<text transform="matrix(1 0 0 1 372.8333 39.229)" font-family="KaiTi" font-size="12px">）</text>
<text transform="matrix(1 0 0 1 60.8333 66.0293)" font-family="KaiTi" font-size="12px">諸</text>
<text transform="matrix(1 0 0 1 72.8333 66.0293)" font-family="KaiTi" font-size="12px">有</text>
<text transform="matrix(1 0 0 1 84.8333 66.0293)" font-family="KaiTi" font-size="12px">眾</text>
<text transform="matrix(1 0 0 1 96.8333 66.0293)" font-family="KaiTi" font-size="12px">生</text>
<text transform="matrix(1 0 0 1 108.8333 66.0293)" font-family="KaiTi" font-size="12px">，</text>
<text transform="matrix(1 0 0 1 120.8333 66.0293)" font-family="KaiTi" font-size="12px">聞</text>
<text transform="matrix(1 0 0 1 132.8333 66.0293)" font-family="KaiTi" font-size="12px">其</text>
<text transform="matrix(1 0 0 1 144.8333 66.0293)" font-family="KaiTi" font-size="12px">名</text>
<text transform="matrix(1 0 0 1 156.8333 66.0293)" font-family="KaiTi" font-size="12px">號</text>
<text transform="matrix(1 0 0 1 168.8333 66.0293)" font-family="KaiTi" font-size="12px">，</text>
<text transform="matrix(1 0 0 1 180.8333 66.0293)" font-family="KaiTi" font-size="12px">信</text>
<text transform="matrix(1 0 0 1 192.8333 66.0293)" font-family="KaiTi" font-size="12px">心</text>
<text transform="matrix(1 0 0 1 204.8333 66.0293)" font-family="KaiTi" font-size="12px">歡</text>
<text transform="matrix(1 0 0 1 216.8333 66.0293)" font-family="KaiTi" font-size="12px">喜</text>
<text transform="matrix(1 0 0 1 228.8333 66.0293)" font-family="KaiTi" font-size="12px">，</text>
<text transform="matrix(1 0 0 1 240.8333 66.0293)" font-family="KaiTi" font-size="12px">乃</text>
<text transform="matrix(1 0 0 1 252.8333 66.0293)" font-family="KaiTi" font-size="12px">至</text>
<text transform="matrix(1 0 0 1 264.8333 66.0293)" font-family="KaiTi" font-size="12px">一</text>
<text transform="matrix(1 0 0 1 276.8333 66.0293)" font-family="KaiTi" font-size="12px">念</text>
<text transform="matrix(1 0 0 1 288.8333 66.0293)" font-family="KaiTi" font-size="12px">，</text>
<text transform="matrix(1 0 0 1 60.8333 80.4292)" font-family="KaiTi" font-size="12px">至</text>
<text transform="matrix(1 0 0 1 72.8333 80.4292)" font-family="KaiTi" font-size="12px">心</text>
<text transform="matrix(1 0 0 1 84.8333 80.4292)" font-family="KaiTi" font-size="12px">回</text>
<text transform="matrix(1 0 0 1 96.8333 80.4292)" font-family="KaiTi" font-size="12px">向</text>
<text transform="matrix(1 0 0 1 108.8333 80.4292)" font-family="KaiTi" font-size="12px">，</text>
<text transform="matrix(1 0 0 1 120.8333 80.4292)" font-family="KaiTi" font-size="12px">願</text>
<text transform="matrix(1 0 0 1 132.8333 80.4292)" font-family="KaiTi" font-size="12px">生</text>
<text transform="matrix(1 0 0 1 144.8333 80.4292)" font-family="KaiTi" font-size="12px">彼</text>
<text transform="matrix(1 0 0 1 156.8333 80.4292)" font-family="KaiTi" font-size="12px">國</text>
<text transform="matrix(1 0 0 1 168.8333 80.4292)" font-family="KaiTi" font-size="12px">，</text>
<text transform="matrix(1 0 0 1 180.8333 80.4292)" font-family="KaiTi" font-size="12px">即</text>
<text transform="matrix(1 0 0 1 192.8333 80.4292)" font-family="KaiTi" font-size="12px">得</text>
<text transform="matrix(1 0 0 1 204.8333 80.4292)" font-family="KaiTi" font-size="12px">往</text>
<text transform="matrix(1 0 0 1 216.8333 80.4292)" font-family="KaiTi" font-size="12px">生</text>
<text transform="matrix(1 0 0 1 228.8333 80.4292)" font-family="KaiTi" font-size="12px">，</text>
<text transform="matrix(1 0 0 1 240.8333 80.4292)" font-family="KaiTi" font-size="12px">住</text>
<text transform="matrix(1 0 0 1 252.8333 80.4292)" font-family="KaiTi" font-size="12px">不</text>
<text transform="matrix(1 0 0 1 264.8333 80.4292)" font-family="KaiTi" font-size="12px">退</text>
<text transform="matrix(1 0 0 1 276.8333 80.4292)" font-family="KaiTi" font-size="12px">轉</text>
<text transform="matrix(1 0 0 1 288.8333 80.4292)" font-family="KaiTi" font-size="12px">。</text>
<text transform="matrix(1 0 0 1 60.8333 94.8291)" font-family="KaiTi" font-size="12px">唯</text>
<text transform="matrix(1 0 0 1 72.8333 94.8291)" font-family="KaiTi" font-size="12px">除</text>
<text transform="matrix(1 0 0 1 84.8333 94.8291)" font-family="KaiTi" font-size="12px">五</text>
<text transform="matrix(1 0 0 1 96.8333 94.8291)" font-family="KaiTi" font-size="12px">逆</text>
<text transform="matrix(1 0 0 1 108.8333 94.8291)" font-family="KaiTi" font-size="12px">，</text>
<text transform="matrix(1 0 0 1 120.8333 94.8291)" font-family="KaiTi" font-size="12px">誹</text>
<text transform="matrix(1 0 0 1 132.8333 94.8291)" font-family="KaiTi" font-size="12px">謗</text>
<text transform="matrix(1 0 0 1 144.8333 94.8291)" font-family="KaiTi" font-size="12px">正</text>
<text transform="matrix(1 0 0 1 156.8333 94.8291)" font-family="KaiTi" font-size="12px">法</text>
<text transform="matrix(1 0 0 1 168.8333 94.8291)" font-family="KaiTi" font-size="12px">。</text>
<text transform="matrix(1 0 0 1 180.8333 94.8291)" font-family="KaiTi" font-size="12px"> </text>
<text transform="matrix(1 0 0 1 192.8333 94.8291)" font-family="KaiTi" font-size="12px"> </text>
<text transform="matrix(1 0 0 1 204.8333 94.8291)" font-family="KaiTi" font-size="12px"> </text>
<text transform="matrix(1 0 0 1 216.8333 94.8291)" font-family="KaiTi" font-size="12px"> </text>
<text transform="matrix(1 0 0 1 228.8333 94.8291)" font-family="KaiTi" font-size="12px"> </text>
<text transform="matrix(1 0 0 1 240.8333 94.8291)" font-family="KaiTi" font-size="12px"> </text>
<text transform="matrix(1 0 0 1 252.8333 94.8291)" font-family="KaiTi" font-size="12px"> </text>
<text transform="matrix(1 0 0 1 264.8333 94.8291)" font-family="KaiTi" font-size="12px"> </text>
<text transform="matrix(1 0 0 1 276.8333 94.8291)" font-family="KaiTi" font-size="12px"> </text>
<text transform="matrix(1 0 0 1 288.8333 94.8291)" font-family="KaiTi" font-size="12px">（</text>
<text transform="matrix(1 0 0 1 300.8333 94.8291)" font-family="KaiTi" font-size="12px">十</text>
<text transform="matrix(1 0 0 1 312.8333 94.8291)" font-family="KaiTi" font-size="12px">八</text>
<text transform="matrix(1 0 0 1 324.8333 94.8291)" font-family="KaiTi" font-size="12px">願</text>
<text transform="matrix(1 0 0 1 336.8333 94.8291)" font-family="KaiTi" font-size="12px">成</text>
<text transform="matrix(1 0 0 1 348.8333 94.8291)" font-family="KaiTi" font-size="12px">就</text>
<text transform="matrix(1 0 0 1 360.8333 94.8291)" font-family="KaiTi" font-size="12px">文</text>
<text transform="matrix(1 0 0 1 372.8333 94.8291)" font-family="KaiTi" font-size="12px">）</text>
<text transform="matrix(1 0 0 1 60.8333 121.6294)" font-family="KaiTi" font-size="12px">其</text>
<text transform="matrix(1 0 0 1 72.8333 121.6294)" font-family="KaiTi" font-size="12px">有</text>
<text transform="matrix(1 0 0 1 84.8333 121.6294)" font-family="KaiTi" font-size="12px">得</text>
<text transform="matrix(1 0 0 1 96.8333 121.6294)" font-family="KaiTi" font-size="12px">聞</text>
<text transform="matrix(1 0 0 1 108.8333 121.6294)" font-family="KaiTi" font-size="12px">，</text>
<text transform="matrix(1 0 0 1 120.8333 121.6294)" font-family="KaiTi" font-size="12px">彼</text>
<text transform="matrix(1 0 0 1 132.8333 121.6294)" font-family="KaiTi" font-size="12px">佛</text>
<text transform="matrix(1 0 0 1 144.8333 121.6294)" font-family="KaiTi" font-size="12px">名</text>
<text transform="matrix(1 0 0 1 156.8333 121.6294)" font-family="KaiTi" font-size="12px">號</text>
<text transform="matrix(1 0 0 1 168.8333 121.6294)" font-family="KaiTi" font-size="12px">，</text>
<text transform="matrix(1 0 0 1 180.8333 121.6294)" font-family="KaiTi" font-size="12px">歡</text>
<text transform="matrix(1 0 0 1 192.8333 121.6294)" font-family="KaiTi" font-size="12px">喜</text>
<text transform="matrix(1 0 0 1 204.8333 121.6294)" font-family="KaiTi" font-size="12px">踴</text>
<text transform="matrix(1 0 0 1 216.8333 121.6294)" font-family="KaiTi" font-size="12px">躍</text>
<text transform="matrix(1 0 0 1 228.8333 121.6294)" font-family="KaiTi" font-size="12px">，</text>
<text transform="matrix(1 0 0 1 240.8333 121.6294)" font-family="KaiTi" font-size="12px">乃</text>
<text transform="matrix(1 0 0 1 252.8333 121.6294)" font-family="KaiTi" font-size="12px">至</text>
<text transform="matrix(1 0 0 1 264.8333 121.6294)" font-family="KaiTi" font-size="12px">一</text>
<text transform="matrix(1 0 0 1 276.8333 121.6294)" font-family="KaiTi" font-size="12px">念</text>
<text transform="matrix(1 0 0 1 288.8333 121.6294)" font-family="KaiTi" font-size="12px">；</text>
<text transform="matrix(1 0 0 1 60.8333 136.0293)" font-family="KaiTi" font-size="12px">當</text>
<text transform="matrix(1 0 0 1 72.8333 136.0293)" font-family="KaiTi" font-size="12px">知</text>
<text transform="matrix(1 0 0 1 84.8333 136.0293)" font-family="KaiTi" font-size="12px">此</text>
<text transform="matrix(1 0 0 1 96.8333 136.0293)" font-family="KaiTi" font-size="12px">人</text>
<text transform="matrix(1 0 0 1 108.8333 136.0293)" font-family="KaiTi" font-size="12px">，</text>
<text transform="matrix(1 0 0 1 120.8333 136.0293)" font-family="KaiTi" font-size="12px">為</text>
<text transform="matrix(1 0 0 1 132.8333 136.0293)" font-family="KaiTi" font-size="12px">得</text>
<text transform="matrix(1 0 0 1 144.8333 136.0293)" font-family="KaiTi" font-size="12px">大</text>
<text transform="matrix(1 0 0 1 156.8333 136.0293)" font-family="KaiTi" font-size="12px">利</text>
<text transform="matrix(1 0 0 1 168.8333 136.0293)" font-family="KaiTi" font-size="12px">，</text>
<text transform="matrix(1 0 0 1 180.8333 136.0293)" font-family="KaiTi" font-size="12px">則</text>
<text transform="matrix(1 0 0 1 192.8333 136.0293)" font-family="KaiTi" font-size="12px">是</text>
<text transform="matrix(1 0 0 1 204.8333 136.0293)" font-family="KaiTi" font-size="12px">具</text>
<text transform="matrix(1 0 0 1 216.8333 136.0293)" font-family="KaiTi" font-size="12px">足</text>
<text transform="matrix(1 0 0 1 228.8333 136.0293)" font-family="KaiTi" font-size="12px">，</text>
<text transform="matrix(1 0 0 1 240.8333 136.0293)" font-family="KaiTi" font-size="12px">無</text>
<text transform="matrix(1 0 0 1 252.8333 136.0293)" font-family="KaiTi" font-size="12px">上</text>
<text transform="matrix(1 0 0 1 264.8333 136.0293)" font-family="KaiTi" font-size="12px">功</text>
<text transform="matrix(1 0 0 1 276.8333 136.0293)" font-family="KaiTi" font-size="12px">德</text>
<text transform="matrix(1 0 0 1 288.8333 136.0293)" font-family="KaiTi" font-size="12px">。</text>
<text transform="matrix(1 0 0 1 300.8333 136.0293)" font-family="KaiTi" font-size="12px">（</text>
<text transform="matrix(1 0 0 1 312.8333 136.0293)" font-family="KaiTi" font-size="12px">咐</text>
<text transform="matrix(1 0 0 1 324.8333 136.0293)" font-family="KaiTi" font-size="12px">囑</text>
<text transform="matrix(1 0 0 1 336.8333 136.0293)" font-family="KaiTi" font-size="12px">彌</text>
<text transform="matrix(1 0 0 1 348.8333 136.0293)" font-family="KaiTi" font-size="12px">勒</text>
<text transform="matrix(1 0 0 1 360.8333 136.0293)" font-family="KaiTi" font-size="12px">文</text>
<text transform="matrix(1 0 0 1 372.8333 136.0293)" font-family="KaiTi" font-size="12px">）</text>
<rect y="47.6" fill="none" width="42" height="28.7"/>
<text transform="matrix(1 0 0 1 8.9998 57.9292)" font-family="KaiTi" font-size="12px">大經</text>
<text transform="matrix(1 0 0 1 2.9998 72.3291)" font-family="KaiTi" font-size="12px">三要文</text>
</svg>
