<?xml version="1.0" encoding="utf-8"?>
<!-- Generator: Adobe Illustrator 21.0.0, SVG Export Plug-In . SVG Version: 6.00 Build 0)  -->
<svg version="1.1" id="圖層_1" xmlns="http://www.w3.org/2000/svg" xmlns:xlink="http://www.w3.org/1999/xlink" x="0px" y="0px"
	 viewBox="0 0 218.5 52.4" style="enable-background:new 0 0 218.5 52.4;" xml:space="preserve">
<style type="text/css">
	.st0{font-family:'KaiTi';}
	.st1{font-size:10px;}
	.st2{letter-spacing:5;}
	.st3{font-family:'DFKaiShu-SB-Estd-BF';}
	.st4{fill:none;stroke:#000000;stroke-width:0.5;stroke-miterlimit:10;}
</style>
<text transform="matrix(1 0 0 1 103.4999 8.5938)"><tspan x="0" y="0" class="st0 st1">假觀</tspan><tspan x="20" y="0" class="st0 st1 st2"> </tspan><tspan x="30" y="0" class="st0 st1"> 第一觀</tspan><tspan x="65" y="0" class="st3 st1">、</tspan><tspan x="75" y="0" class="st0 st1">第二觀</tspan><tspan x="105" y="0" class="st0 st1 st2"> </tspan><tspan x="0" y="14" class="st0 st1">真觀</tspan><tspan x="20" y="14" class="st0 st1 st2"> </tspan><tspan x="30" y="14" class="st0 st1"> 第三觀至第七觀</tspan><tspan x="0" y="28" class="st0 st1">假觀</tspan><tspan x="20" y="28" class="st0 st1 st2"> </tspan><tspan x="30" y="28" class="st0 st1"> 第八觀</tspan><tspan x="0" y="42" class="st0 st1">真觀</tspan><tspan x="20" y="42" class="st0 st1 st2"> </tspan><tspan x="30" y="42" class="st0 st1"> 第九觀至第十三觀</tspan></text>
<line class="st4" x1="127.3" y1="5.5" x2="135.7" y2="5.5"/>
<line class="st4" x1="127.3" y1="19.2" x2="135.7" y2="19.2"/>
<line class="st4" x1="127.3" y1="32.8" x2="135.7" y2="32.8"/>
<line class="st4" x1="127.3" y1="46.5" x2="135.7" y2="46.5"/>
<text transform="matrix(1 0 0 1 61.1666 15.5936)"><tspan x="0" y="0" class="st0 st1">依報觀</tspan><tspan x="0" y="28" class="st0 st1">正報觀</tspan></text>
<g>
	<line class="st4" x1="97.6" y1="5.5" x2="97.6" y2="19.2"/>
	<line class="st4" x1="97.5" y1="5.5" x2="100.2" y2="5.5"/>
	<line class="st4" x1="97.5" y1="19.2" x2="100.2" y2="19.2"/>
	<line class="st4" x1="97.6" y1="12.3" x2="94.8" y2="12.3"/>
</g>
<g>
	<line class="st4" x1="97.7" y1="32.8" x2="97.7" y2="46.5"/>
	<line class="st4" x1="97.6" y1="32.8" x2="100.3" y2="32.8"/>
	<line class="st4" x1="97.6" y1="46.5" x2="100.3" y2="46.5"/>
	<line class="st4" x1="97.7" y1="39.7" x2="94.9" y2="39.7"/>
</g>
<g>
	<line class="st4" x1="55.5" y1="12.3" x2="55.5" y2="39.7"/>
	<line class="st4" x1="55.5" y1="12.3" x2="58.2" y2="12.3"/>
	<line class="st4" x1="55.5" y1="39.7" x2="58.2" y2="39.7"/>
	<line class="st4" x1="55.5" y1="26" x2="52.7" y2="26"/>
</g>
<text transform="matrix(1 0 0 1 -7.629395e-05 29.5938)" class="st0 st1">定善十三觀</text>
</svg>
