<?xml version="1.0" encoding="utf-8"?>
<!-- Generator: Adobe Illustrator 21.0.0, SVG Export Plug-In . SVG Version: 6.00 Build 0)  -->
<svg version="1.1" baseProfile="tiny" id="图层_1"
	 xmlns="http://www.w3.org/2000/svg" xmlns:xlink="http://www.w3.org/1999/xlink" x="0px" y="0px" viewBox="0 0 248.9 122.4"
	 overflow="scroll" xml:space="preserve">
<text transform="matrix(1 0 0 1 168.917 8.5936)" font-family="'KaiTi'" font-size="10px">(一)教兴所由</text>
<text transform="matrix(1 0 0 1 168.917 22.5936)" font-family="'KaiTi'" font-size="10px">(二)说听方轨</text>
<text transform="matrix(1 0 0 1 168.917 36.5936)" font-family="'KaiTi'" font-size="10px">(三)众生发心久近</text>
<text transform="matrix(1 0 0 1 168.917 50.5936)" font-family="'KaiTi'" font-size="10px">(四)观经的宗旨</text>
<text transform="matrix(1 0 0 1 168.917 64.5936)" font-family="'KaiTi'" font-size="10px">(五)观经的得名</text>
<text transform="matrix(1 0 0 1 168.917 78.5936)" font-family="'KaiTi'" font-size="10px">(六)观经的说人</text>
<text transform="matrix(1 0 0 1 168.917 92.5936)" font-family="'KaiTi'" font-size="10px">(七)三身三土义</text>
<text transform="matrix(1 0 0 1 168.917 106.5936)" font-family="'KaiTi'" font-size="10px">(八)凡圣通往</text>
<text transform="matrix(1 0 0 1 168.917 120.5936)" font-family="'KaiTi'" font-size="10px">(九)三界不摄</text>
<line fill="none" stroke="#000000" stroke-width="0.5" stroke-miterlimit="10" x1="162.4" y1="47" x2="165.3" y2="47"/>
<line fill="none" stroke="#000000" stroke-width="0.5" stroke-miterlimit="10" x1="165.1" y1="18.6" x2="167.9" y2="18.6"/>
<line fill="none" stroke="#000000" stroke-width="0.5" stroke-miterlimit="10" x1="165.1" y1="75.3" x2="167.8" y2="75.3"/>
<line fill="none" stroke="#000000" stroke-width="0.5" stroke-miterlimit="10" x1="165.3" y1="18.6" x2="165.3" y2="75.3"/>
<text transform="matrix(1 0 0 1 59.292 8.5936)" font-family="'KaiTi'" font-size="10px">第一节</text>
<text transform="matrix(1 0 0 1 89.292 8.5936)" font-family="'DFKaiShu-SB-Estd-BF'" font-size="10px">：</text>
<text transform="matrix(1 0 0 1 99.292 8.5936)" font-family="'KaiTi'" font-size="10px">净土教的成立</text>
<text transform="matrix(1 0 0 1 59.292 50.5936)" font-family="'KaiTi'" font-size="10px">第二节</text>
<text transform="matrix(1 0 0 1 89.292 50.5936)" font-family="'DFKaiShu-SB-Estd-BF'" font-size="10px">：</text>
<text transform="matrix(1 0 0 1 99.292 50.5936)" font-family="'KaiTi'" font-size="10px">净土教的所依</text>
<text transform="matrix(1 0 0 1 59.292 106.5936)" font-family="'KaiTi'" font-size="10px">第三节</text>
<text transform="matrix(1 0 0 1 89.292 106.5936)" font-family="'DFKaiShu-SB-Estd-BF'" font-size="10px">：</text>
<text transform="matrix(1 0 0 1 99.292 106.5936)" font-family="'KaiTi'" font-size="10px">净   土   论</text>
<line fill="none" stroke="#000000" stroke-width="0.5" stroke-miterlimit="10" x1="162.4" y1="5.3" x2="167.8" y2="5.3"/>
<g>
	<line fill="none" stroke="#000000" stroke-width="0.5" stroke-miterlimit="10" x1="162.5" y1="103.3" x2="165.4" y2="103.3"/>
	<line fill="none" stroke="#000000" stroke-width="0.5" stroke-miterlimit="10" x1="165.2" y1="88.7" x2="168.1" y2="88.7"/>
	<line fill="none" stroke="#000000" stroke-width="0.5" stroke-miterlimit="10" x1="165.3" y1="117.9" x2="168.1" y2="117.9"/>
	<line fill="none" stroke="#000000" stroke-width="0.5" stroke-miterlimit="10" x1="165.4" y1="88.5" x2="165.4" y2="118.2"/>
</g>
<g>
	<line fill="none" stroke="#000000" stroke-width="0.5" stroke-miterlimit="10" x1="50.6" y1="46.9" x2="53.5" y2="46.9"/>
	<line fill="none" stroke="#000000" stroke-width="0.5" stroke-miterlimit="10" x1="53.4" y1="5.3" x2="56.3" y2="5.3"/>
	<line fill="none" stroke="#000000" stroke-width="0.5" stroke-miterlimit="10" x1="53.4" y1="103.3" x2="56.2" y2="103.3"/>
	<line fill="none" stroke="#000000" stroke-width="0.5" stroke-miterlimit="10" x1="53.5" y1="5" x2="53.5" y2="103.5"/>
</g>
<text transform="matrix(1 0 0 1 1.716614e-04 8.5936)" font-family="'KaiTi'" font-size="10px">  上卷</text>
<text transform="matrix(1 0 0 1 30.0002 8.5936)" font-family="'DFKaiShu-SB-Estd-BF'" font-size="10px">：</text>
<text transform="matrix(1 0 0 1 1.716614e-04 36.5936)" font-family="'KaiTi'" font-size="10px">  第一章</text>
<text transform="matrix(1 0 0 1 1.716614e-04 50.5936)" font-family="'KaiTi'" font-size="10px">(第一大门)</text>
<text transform="matrix(1 0 0 1 1.716614e-04 64.5936)" font-family="'KaiTi'" font-size="10px">净土教概论</text>
</svg>
