<?xml version="1.0" encoding="utf-8"?>
<!-- Generator: Adobe Illustrator 21.0.0, SVG Export Plug-In . SVG Version: 6.00 Build 0)  -->
<svg version="1.1" baseProfile="tiny" id="图层_1"
	 xmlns="http://www.w3.org/2000/svg" xmlns:xlink="http://www.w3.org/1999/xlink" x="0px" y="0px" viewBox="0 0 370.1 195.9"
	 overflow="scroll" xml:space="preserve">
<text transform="matrix(1 0 0 1 310.0832 10.3436)" font-family="'KaiTi'" font-size="10px">1.总说二种道</text>
<text transform="matrix(1 0 0 1 310.0832 27.8436)" font-family="'KaiTi'" font-size="10px">2.问答解释</text>
<text transform="matrix(1 0 0 1 310.0832 45.3436)" font-family="'KaiTi'" font-size="10px">1.总说</text>
<text transform="matrix(1 0 0 1 310.0832 62.8436)" font-family="'KaiTi'" font-size="10px">2.问答解释</text>
<text transform="matrix(1 0 0 1 310.0832 97.8436)" font-family="'KaiTi'" font-size="10px">1.一相三昧</text>
<text transform="matrix(1 0 0 1 310.0832 115.3436)" font-family="'KaiTi'" font-size="10px">2.念佛三昧</text>
<text transform="matrix(1 0 0 1 310.0832 132.8436)" font-family="'KaiTi'" font-size="10px">1.总说</text>
<text transform="matrix(1 0 0 1 310.0832 150.3436)" font-family="'KaiTi'" font-size="10px">2.问答解释</text>
<text transform="matrix(1 0 0 1 192.0835 19.0936)" font-family="'KaiTi'" font-size="10px">(</text>
<text transform="matrix(1 0 0 1 197.0835 19.0936)" font-family="'KaiTi'" font-size="10px">一</text>
<text transform="matrix(1 0 0 1 207.0835 19.0936)" font-family="'KaiTi'" font-size="10px">)</text>
<text transform="matrix(1 0 0 1 212.0835 19.0936)" font-family="'KaiTi'" font-size="10px">难</text>
<text transform="matrix(1 0 0 1 222.0835 19.0936)" font-family="'KaiTi'" font-size="10px">行</text>
<text transform="matrix(1 0 0 1 232.0835 19.0936)" font-family="'KaiTi'" font-size="10px">道</text>
<text transform="matrix(1 0 0 1 242.0835 19.0936)" font-family="'KaiTi'" font-size="10px">与</text>
<text transform="matrix(1 0 0 1 252.0835 19.0936)" font-family="'KaiTi'" font-size="10px">易</text>
<text transform="matrix(1 0 0 1 262.0835 19.0936)" font-family="'KaiTi'" font-size="10px">行</text>
<text transform="matrix(1 0 0 1 272.0835 19.0936)" font-family="'KaiTi'" font-size="10px">道</text>
<text transform="matrix(1 0 0 1 192.0835 36.5936)" font-family="'KaiTi'" font-size="10px">(</text>
<text transform="matrix(1 0 0 1 197.0835 36.5936)" font-family="'KaiTi'" font-size="10px">二</text>
<text transform="matrix(1 0 0 1 207.0835 36.5936)" font-family="'KaiTi'" font-size="10px">)</text>
<text transform="matrix(1 0 0 1 212.0835 36.5936)" font-family="'KaiTi'" font-size="10px">时</text>
<text transform="matrix(1 0 0 1 222.0835 36.5936)" font-family="'KaiTi'" font-size="10px"> </text>
<text transform="matrix(1 0 0 1 232.0835 36.5936)" font-family="'KaiTi'" font-size="10px"> </text>
<text transform="matrix(1 0 0 1 237.0835 36.5936)" font-family="'KaiTi'" font-size="10px">劫</text>
<text transform="matrix(1 0 0 1 247.0835 36.5936)" font-family="'KaiTi'" font-size="10px"> </text>
<text transform="matrix(1 0 0 1 252.0835 36.5936)" font-family="'KaiTi'" font-size="10px"> </text>
<text transform="matrix(1 0 0 1 262.0835 36.5936)" font-family="'KaiTi'" font-size="10px">大</text>
<text transform="matrix(1 0 0 1 272.0835 36.5936)" font-family="'KaiTi'" font-size="10px"> </text>
<text transform="matrix(1 0 0 1 282.0835 36.5936)" font-family="'KaiTi'" font-size="10px"> </text>
<text transform="matrix(1 0 0 1 287.0835 36.5936)" font-family="'KaiTi'" font-size="10px">小</text>
<text transform="matrix(1 0 0 1 192.0835 54.0936)" font-family="'KaiTi'" font-size="10px">(</text>
<text transform="matrix(1 0 0 1 197.0835 54.0936)" font-family="'KaiTi'" font-size="10px">三</text>
<text transform="matrix(1 0 0 1 207.0835 54.0936)" font-family="'KaiTi'" font-size="10px">)</text>
<text transform="matrix(1 0 0 1 212.0835 54.0936)" font-family="'KaiTi'" font-size="10px">轮</text>
<text transform="matrix(1 0 0 1 222.0835 54.0936)" font-family="'KaiTi'" font-size="10px"> </text>
<text transform="matrix(1 0 0 1 232.0835 54.0936)" font-family="'KaiTi'" font-size="10px"> </text>
<text transform="matrix(1 0 0 1 237.0835 54.0936)" font-family="'KaiTi'" font-size="10px">回</text>
<text transform="matrix(1 0 0 1 247.0835 54.0936)" font-family="'KaiTi'" font-size="10px"> </text>
<text transform="matrix(1 0 0 1 257.0835 54.0936)" font-family="'KaiTi'" font-size="10px"> </text>
<text transform="matrix(1 0 0 1 262.0835 54.0936)" font-family="'KaiTi'" font-size="10px">无</text>
<text transform="matrix(1 0 0 1 272.0835 54.0936)" font-family="'KaiTi'" font-size="10px"> </text>
<text transform="matrix(1 0 0 1 282.0835 54.0936)" font-family="'KaiTi'" font-size="10px"> </text>
<text transform="matrix(1 0 0 1 287.0835 54.0936)" font-family="'KaiTi'" font-size="10px">穷</text>
<text transform="matrix(1 0 0 1 192.0835 71.5936)" font-family="'KaiTi'" font-size="10px">(</text>
<text transform="matrix(1 0 0 1 197.0835 71.5936)" font-family="'KaiTi'" font-size="10px">四</text>
<text transform="matrix(1 0 0 1 207.0835 71.5936)" font-family="'KaiTi'" font-size="10px">)</text>
<text transform="matrix(1 0 0 1 212.0835 71.5936)" font-family="'KaiTi'" font-size="10px">劝</text>
<text transform="matrix(1 0 0 1 222.0835 71.5936)" font-family="'KaiTi'" font-size="10px"> </text>
<text transform="matrix(1 0 0 1 232.0835 71.5936)" font-family="'KaiTi'" font-size="10px"> </text>
<text transform="matrix(1 0 0 1 237.0835 71.5936)" font-family="'KaiTi'" font-size="10px">信</text>
<text transform="matrix(1 0 0 1 247.0835 71.5936)" font-family="'KaiTi'" font-size="10px"> </text>
<text transform="matrix(1 0 0 1 252.0835 71.5936)" font-family="'KaiTi'" font-size="10px"> </text>
<text transform="matrix(1 0 0 1 262.0835 71.5936)" font-family="'KaiTi'" font-size="10px">求</text>
<text transform="matrix(1 0 0 1 272.0835 71.5936)" font-family="'KaiTi'" font-size="10px"> </text>
<text transform="matrix(1 0 0 1 277.0835 71.5936)" font-family="'KaiTi'" font-size="10px"> </text>
<text transform="matrix(1 0 0 1 287.0835 71.5936)" font-family="'KaiTi'" font-size="10px">生</text>
<text transform="matrix(1 0 0 1 192.0835 89.0936)" font-family="'KaiTi'" font-size="10px">(</text>
<text transform="matrix(1 0 0 1 197.0835 89.0936)" font-family="'KaiTi'" font-size="10px">一</text>
<text transform="matrix(1 0 0 1 207.0835 89.0936)" font-family="'KaiTi'" font-size="10px">)</text>
<text transform="matrix(1 0 0 1 212.0835 89.0936)" font-family="'KaiTi'" font-size="10px">诸</text>
<text transform="matrix(1 0 0 1 222.0835 89.0936)" font-family="'KaiTi'" font-size="10px">大</text>
<text transform="matrix(1 0 0 1 232.0835 89.0936)" font-family="'KaiTi'" font-size="10px">德</text>
<text transform="matrix(1 0 0 1 242.0835 89.0936)" font-family="'KaiTi'" font-size="10px">叹</text>
<text transform="matrix(1 0 0 1 252.0835 89.0936)" font-family="'KaiTi'" font-size="10px">归</text>
<text transform="matrix(1 0 0 1 262.0835 89.0936)" font-family="'KaiTi'" font-size="10px">净</text>
<text transform="matrix(1 0 0 1 272.0835 89.0936)" font-family="'KaiTi'" font-size="10px">土</text>
<text transform="matrix(1 0 0 1 192.0835 106.5936)" font-family="'KaiTi'" font-size="10px">(</text>
<text transform="matrix(1 0 0 1 197.0835 106.5936)" font-family="'KaiTi'" font-size="10px">二</text>
<text transform="matrix(1 0 0 1 207.0835 106.5936)" font-family="'KaiTi'" font-size="10px">)</text>
<text transform="matrix(1 0 0 1 212.0835 106.5936)" font-family="'KaiTi'" font-size="10px">念</text>
<text transform="matrix(1 0 0 1 222.0835 106.5936)" font-family="'KaiTi'" font-size="10px"> </text>
<text transform="matrix(1 0 0 1 227.0835 106.5936)" font-family="'KaiTi'" font-size="10px"> </text>
<text transform="matrix(1 0 0 1 237.0835 106.5936)" font-family="'KaiTi'" font-size="10px">佛</text>
<text transform="matrix(1 0 0 1 247.0835 106.5936)" font-family="'KaiTi'" font-size="10px"> </text>
<text transform="matrix(1 0 0 1 252.0835 106.5936)" font-family="'KaiTi'" font-size="10px"> </text>
<text transform="matrix(1 0 0 1 262.0835 106.5936)" font-family="'KaiTi'" font-size="10px">三</text>
<text transform="matrix(1 0 0 1 272.0835 106.5936)" font-family="'KaiTi'" font-size="10px"> </text>
<text transform="matrix(1 0 0 1 277.0835 106.5936)" font-family="'KaiTi'" font-size="10px"> </text>
<text transform="matrix(1 0 0 1 287.0835 106.5936)" font-family="'KaiTi'" font-size="10px">昧</text>
<text transform="matrix(1 0 0 1 192.0835 124.0936)" font-family="'KaiTi'" font-size="10px">(</text>
<text transform="matrix(1 0 0 1 197.0835 124.0936)" font-family="'KaiTi'" font-size="10px">三</text>
<text transform="matrix(1 0 0 1 207.0835 124.0936)" font-family="'KaiTi'" font-size="10px">)</text>
<text transform="matrix(1 0 0 1 212.0835 124.0936)" font-family="'KaiTi'" font-size="10px">念</text>
<text transform="matrix(1 0 0 1 222.0835 124.0936)" font-family="'KaiTi'" font-size="10px">佛</text>
<text transform="matrix(1 0 0 1 232.0835 124.0936)" font-family="'KaiTi'" font-size="10px">三</text>
<text transform="matrix(1 0 0 1 242.0835 124.0936)" font-family="'KaiTi'" font-size="10px">昧</text>
<text transform="matrix(1 0 0 1 252.0835 124.0936)" font-family="'KaiTi'" font-size="10px">的</text>
<text transform="matrix(1 0 0 1 262.0835 124.0936)" font-family="'KaiTi'" font-size="10px">功</text>
<text transform="matrix(1 0 0 1 272.0835 124.0936)" font-family="'KaiTi'" font-size="10px">德</text>
<text transform="matrix(1 0 0 1 282.0835 124.0936)" font-family="'KaiTi'" font-size="10px">利</text>
<text transform="matrix(1 0 0 1 292.0835 124.0936)" font-family="'KaiTi'" font-size="10px">益</text>
<text transform="matrix(1 0 0 1 192.0835 141.5936)" font-family="'KaiTi'" font-size="10px">(</text>
<text transform="matrix(1 0 0 1 197.0835 141.5936)" font-family="'KaiTi'" font-size="10px">一</text>
<text transform="matrix(1 0 0 1 207.0835 141.5936)" font-family="'KaiTi'" font-size="10px">)</text>
<text transform="matrix(1 0 0 1 212.0835 141.5936)" font-family="'KaiTi'" font-size="10px">修</text>
<text transform="matrix(1 0 0 1 222.0835 141.5936)" font-family="'KaiTi'" font-size="10px"> </text>
<text transform="matrix(1 0 0 1 227.0835 141.5936)" font-family="'KaiTi'" font-size="10px">道</text>
<text transform="matrix(1 0 0 1 237.0835 141.5936)" font-family="'KaiTi'" font-size="10px"> </text>
<text transform="matrix(1 0 0 1 242.0835 141.5936)" font-family="'KaiTi'" font-size="10px">延</text>
<text transform="matrix(1 0 0 1 252.0835 141.5936)" font-family="'KaiTi'" font-size="10px"> </text>
<text transform="matrix(1 0 0 1 257.0835 141.5936)" font-family="'KaiTi'" font-size="10px">促</text>
<text transform="matrix(1 0 0 1 267.0835 141.5936)" font-family="'KaiTi'" font-size="10px"> </text>
<text transform="matrix(1 0 0 1 272.0835 141.5936)" font-family="'KaiTi'" font-size="10px">比</text>
<text transform="matrix(1 0 0 1 282.0835 141.5936)" font-family="'KaiTi'" font-size="10px"> </text>
<text transform="matrix(1 0 0 1 287.0835 141.5936)" font-family="'KaiTi'" font-size="10px">较</text>
<text transform="matrix(1 0 0 1 192.0835 159.0936)" font-family="'KaiTi'" font-size="10px">(</text>
<text transform="matrix(1 0 0 1 197.0835 159.0936)" font-family="'KaiTi'" font-size="10px">二</text>
<text transform="matrix(1 0 0 1 207.0835 159.0936)" font-family="'KaiTi'" font-size="10px">)</text>
<text transform="matrix(1 0 0 1 212.0835 159.0936)" font-family="'KaiTi'" font-size="10px">禅</text>
<text transform="matrix(1 0 0 1 222.0835 159.0936)" font-family="'KaiTi'" font-size="10px"> </text>
<text transform="matrix(1 0 0 1 232.0835 159.0936)" font-family="'KaiTi'" font-size="10px"> </text>
<text transform="matrix(1 0 0 1 237.0835 159.0936)" font-family="'KaiTi'" font-size="10px">观</text>
<text transform="matrix(1 0 0 1 247.0835 159.0936)" font-family="'KaiTi'" font-size="10px"> </text>
<text transform="matrix(1 0 0 1 257.0835 159.0936)" font-family="'KaiTi'" font-size="10px"> </text>
<text transform="matrix(1 0 0 1 262.0835 159.0936)" font-family="'KaiTi'" font-size="10px">比</text>
<text transform="matrix(1 0 0 1 272.0835 159.0936)" font-family="'KaiTi'" font-size="10px"> </text>
<text transform="matrix(1 0 0 1 282.0835 159.0936)" font-family="'KaiTi'" font-size="10px"> </text>
<text transform="matrix(1 0 0 1 287.0835 159.0936)" font-family="'KaiTi'" font-size="10px">较</text>
<text transform="matrix(1 0 0 1 192.0835 176.5936)" font-family="'KaiTi'" font-size="10px">(</text>
<text transform="matrix(1 0 0 1 197.0835 176.5936)" font-family="'KaiTi'" font-size="10px">三</text>
<text transform="matrix(1 0 0 1 207.0835 176.5936)" font-family="'KaiTi'" font-size="10px">)</text>
<text transform="matrix(1 0 0 1 212.0835 176.5936)" font-family="'KaiTi'" font-size="10px">净</text>
<text transform="matrix(1 0 0 1 222.0835 176.5936)" font-family="'KaiTi'" font-size="10px"> </text>
<text transform="matrix(1 0 0 1 227.0835 176.5936)" font-family="'KaiTi'" font-size="10px"> </text>
<text transform="matrix(1 0 0 1 237.0835 176.5936)" font-family="'KaiTi'" font-size="10px">秽</text>
<text transform="matrix(1 0 0 1 247.0835 176.5936)" font-family="'KaiTi'" font-size="10px"> </text>
<text transform="matrix(1 0 0 1 252.0835 176.5936)" font-family="'KaiTi'" font-size="10px"> </text>
<text transform="matrix(1 0 0 1 262.0835 176.5936)" font-family="'KaiTi'" font-size="10px">比</text>
<text transform="matrix(1 0 0 1 272.0835 176.5936)" font-family="'KaiTi'" font-size="10px"> </text>
<text transform="matrix(1 0 0 1 277.0835 176.5936)" font-family="'KaiTi'" font-size="10px"> </text>
<text transform="matrix(1 0 0 1 287.0835 176.5936)" font-family="'KaiTi'" font-size="10px">较</text>
<text transform="matrix(1 0 0 1 192.0835 194.0936)" font-family="'KaiTi'" font-size="10px">(</text>
<text transform="matrix(1 0 0 1 197.0835 194.0936)" font-family="'KaiTi'" font-size="10px">四</text>
<text transform="matrix(1 0 0 1 207.0835 194.0936)" font-family="'KaiTi'" font-size="10px">)</text>
<text transform="matrix(1 0 0 1 212.0835 194.0936)" font-family="'KaiTi'" font-size="10px">劝</text>
<text transform="matrix(1 0 0 1 222.0835 194.0936)" font-family="'KaiTi'" font-size="10px"> </text>
<text transform="matrix(1 0 0 1 232.0835 194.0936)" font-family="'KaiTi'" font-size="10px"> </text>
<text transform="matrix(1 0 0 1 237.0835 194.0936)" font-family="'KaiTi'" font-size="10px">信</text>
<text transform="matrix(1 0 0 1 247.0835 194.0936)" font-family="'KaiTi'" font-size="10px"> </text>
<text transform="matrix(1 0 0 1 257.0835 194.0936)" font-family="'KaiTi'" font-size="10px"> </text>
<text transform="matrix(1 0 0 1 262.0835 194.0936)" font-family="'KaiTi'" font-size="10px">求</text>
<text transform="matrix(1 0 0 1 272.0835 194.0936)" font-family="'KaiTi'" font-size="10px"> </text>
<text transform="matrix(1 0 0 1 282.0835 194.0936)" font-family="'KaiTi'" font-size="10px"> </text>
<text transform="matrix(1 0 0 1 287.0835 194.0936)" font-family="'KaiTi'" font-size="10px">生</text>
<g>
	<line fill="none" stroke="#000000" stroke-width="0.5" stroke-miterlimit="10" x1="285.2" y1="15.8" x2="303.1" y2="15.8"/>
	<line fill="none" stroke="#000000" stroke-width="0.5" stroke-miterlimit="10" x1="303" y1="7.2" x2="305.9" y2="7.2"/>
	<line fill="none" stroke="#000000" stroke-width="0.5" stroke-miterlimit="10" x1="303.1" y1="24.4" x2="305.9" y2="24.4"/>
	<line fill="none" stroke="#000000" stroke-width="0.5" stroke-miterlimit="10" x1="303.2" y1="7.2" x2="303.2" y2="24.4"/>
</g>
<g>
	<line fill="none" stroke="#000000" stroke-width="0.5" stroke-miterlimit="10" x1="300.1" y1="50.1" x2="303" y2="50.1"/>
	<line fill="none" stroke="#000000" stroke-width="0.5" stroke-miterlimit="10" x1="302.9" y1="41.5" x2="305.8" y2="41.5"/>
	<line fill="none" stroke="#000000" stroke-width="0.5" stroke-miterlimit="10" x1="303" y1="58.7" x2="305.8" y2="58.7"/>
	<line fill="none" stroke="#000000" stroke-width="0.5" stroke-miterlimit="10" x1="303.1" y1="41.5" x2="303.1" y2="58.7"/>
</g>
<g>
	<line fill="none" stroke="#000000" stroke-width="0.5" stroke-miterlimit="10" x1="300.6" y1="102.9" x2="303.5" y2="102.9"/>
	<line fill="none" stroke="#000000" stroke-width="0.5" stroke-miterlimit="10" x1="303.4" y1="94.4" x2="306.3" y2="94.4"/>
	<line fill="none" stroke="#000000" stroke-width="0.5" stroke-miterlimit="10" x1="303.5" y1="111.5" x2="306.3" y2="111.5"/>
	<line fill="none" stroke="#000000" stroke-width="0.5" stroke-miterlimit="10" x1="303.6" y1="94.4" x2="303.6" y2="111.5"/>
</g>
<g>
	<line fill="none" stroke="#000000" stroke-width="0.5" stroke-miterlimit="10" x1="300.7" y1="138.1" x2="303.6" y2="138.1"/>
	<line fill="none" stroke="#000000" stroke-width="0.5" stroke-miterlimit="10" x1="303.5" y1="129.5" x2="306.4" y2="129.5"/>
	<line fill="none" stroke="#000000" stroke-width="0.5" stroke-miterlimit="10" x1="303.6" y1="146.7" x2="306.4" y2="146.7"/>
	<line fill="none" stroke="#000000" stroke-width="0.5" stroke-miterlimit="10" x1="303.7" y1="129.5" x2="303.7" y2="146.7"/>
</g>
<g>
	<line fill="none" stroke="#000000" stroke-width="0.5" stroke-miterlimit="10" x1="184.4" y1="41.5" x2="187.3" y2="41.5"/>
	<line fill="none" stroke="#000000" stroke-width="0.5" stroke-miterlimit="10" x1="187.3" y1="15.8" x2="190.2" y2="15.8"/>
	<line fill="none" stroke="#000000" stroke-width="0.5" stroke-miterlimit="10" x1="187.2" y1="68.1" x2="190" y2="68.1"/>
	<line fill="none" stroke="#000000" stroke-width="0.5" stroke-miterlimit="10" x1="187.3" y1="15.8" x2="187.3" y2="68.1"/>
</g>
<g>
	<line fill="none" stroke="#000000" stroke-width="0.5" stroke-miterlimit="10" x1="184.3" y1="102.9" x2="187.2" y2="102.9"/>
	<line fill="none" stroke="#000000" stroke-width="0.5" stroke-miterlimit="10" x1="187.2" y1="85.2" x2="190.1" y2="85.2"/>
	<line fill="none" stroke="#000000" stroke-width="0.5" stroke-miterlimit="10" x1="187.1" y1="120.6" x2="189.9" y2="120.6"/>
	<line fill="none" stroke="#000000" stroke-width="0.5" stroke-miterlimit="10" x1="187.2" y1="85.2" x2="187.2" y2="120.6"/>
</g>
<g>
	<line fill="none" stroke="#000000" stroke-width="0.5" stroke-miterlimit="10" x1="184.2" y1="163.9" x2="187.1" y2="163.9"/>
	<line fill="none" stroke="#000000" stroke-width="0.5" stroke-miterlimit="10" x1="187.2" y1="138.2" x2="190.1" y2="138.2"/>
	<line fill="none" stroke="#000000" stroke-width="0.5" stroke-miterlimit="10" x1="187.1" y1="190.4" x2="189.9" y2="190.4"/>
	<line fill="none" stroke="#000000" stroke-width="0.5" stroke-miterlimit="10" x1="187.2" y1="138.2" x2="187.2" y2="190.4"/>
</g>
<text transform="matrix(1 0 0 1 81.7502 38.3436)" font-family="'KaiTi'" font-size="10px"> </text>
<text transform="matrix(1 0 0 1 86.7502 38.3436)" font-family="'KaiTi'" font-size="10px">第</text>
<text transform="matrix(1 0 0 1 96.7502 38.3436)" font-family="'KaiTi'" font-size="10px">一</text>
<text transform="matrix(1 0 0 1 106.7502 38.3436)" font-family="'KaiTi'" font-size="10px">节</text>
<text transform="matrix(1 0 0 1 116.7502 38.3436)" font-family="'DFKaiShu-SB-Estd-BF'" font-size="10px">：</text>
<text transform="matrix(1 0 0 1 126.7502 38.3436)" font-family="'KaiTi'" font-size="10px">(</text>
<text transform="matrix(1 0 0 1 131.7502 38.3436)" font-family="'KaiTi'" font-size="10px">第</text>
<text transform="matrix(1 0 0 1 141.7502 38.3436)" font-family="'KaiTi'" font-size="10px">三</text>
<text transform="matrix(1 0 0 1 151.7502 38.3436)" font-family="'KaiTi'" font-size="10px">大</text>
<text transform="matrix(1 0 0 1 161.7502 38.3436)" font-family="'KaiTi'" font-size="10px">门</text>
<text transform="matrix(1 0 0 1 171.7502 38.3436)" font-family="'KaiTi'" font-size="10px">)</text>
<text transform="matrix(1 0 0 1 81.7502 52.3436)" font-family="'KaiTi'" font-size="10px">净</text>
<text transform="matrix(1 0 0 1 91.7502 52.3436)" font-family="'KaiTi'" font-size="10px">土</text>
<text transform="matrix(1 0 0 1 101.7502 52.3436)" font-family="'KaiTi'" font-size="10px">往</text>
<text transform="matrix(1 0 0 1 111.7502 52.3436)" font-family="'KaiTi'" font-size="10px">生</text>
<text transform="matrix(1 0 0 1 121.7502 52.3436)" font-family="'KaiTi'" font-size="10px">法</text>
<text transform="matrix(1 0 0 1 131.7502 52.3436)" font-family="'KaiTi'" font-size="10px">门</text>
<text transform="matrix(1 0 0 1 141.7502 52.3436)" font-family="'KaiTi'" font-size="10px">为</text>
<text transform="matrix(1 0 0 1 151.7502 52.3436)" font-family="'KaiTi'" font-size="10px">易</text>
<text transform="matrix(1 0 0 1 161.7502 52.3436)" font-family="'KaiTi'" font-size="10px">行</text>
<text transform="matrix(1 0 0 1 171.7502 52.3436)" font-family="'KaiTi'" font-size="10px">道</text>
<text transform="matrix(1 0 0 1 81.7502 80.3436)" font-family="'KaiTi'" font-size="10px"> </text>
<text transform="matrix(1 0 0 1 91.7502 80.3436)" font-family="'KaiTi'" font-size="10px"> </text>
<text transform="matrix(1 0 0 1 101.7502 80.3436)" font-family="'KaiTi'" font-size="10px"> </text>
<text transform="matrix(1 0 0 1 111.7502 80.3436)" font-family="'KaiTi'" font-size="10px"> </text>
<text transform="matrix(1 0 0 1 121.7502 80.3436)" font-family="'KaiTi'" font-size="10px"> </text>
<text transform="matrix(1 0 0 1 131.7502 80.3436)" font-family="'KaiTi'" font-size="10px"> </text>
<text transform="matrix(1 0 0 1 141.7502 80.3436)" font-family="'KaiTi'" font-size="10px"> </text>
<text transform="matrix(1 0 0 1 151.7502 80.3436)" font-family="'KaiTi'" font-size="10px">下</text>
<text transform="matrix(1 0 0 1 161.7502 80.3436)" font-family="'KaiTi'" font-size="10px">卷</text>
<text transform="matrix(1 0 0 1 171.7502 80.3436)" font-family="'DFKaiShu-SB-Estd-BF'" font-size="10px">：</text>
<text transform="matrix(1 0 0 1 81.7502 99.5936)" font-family="'KaiTi'" font-size="10px"> </text>
<text transform="matrix(1 0 0 1 86.7502 99.5936)" font-family="'KaiTi'" font-size="10px">第</text>
<text transform="matrix(1 0 0 1 96.7502 99.5936)" font-family="'KaiTi'" font-size="10px">二</text>
<text transform="matrix(1 0 0 1 106.7502 99.5936)" font-family="'KaiTi'" font-size="10px">节</text>
<text transform="matrix(1 0 0 1 116.7502 99.5936)" font-family="'DFKaiShu-SB-Estd-BF'" font-size="10px">：</text>
<text transform="matrix(1 0 0 1 126.7502 99.5936)" font-family="'KaiTi'" font-size="10px">(</text>
<text transform="matrix(1 0 0 1 131.7502 99.5936)" font-family="'KaiTi'" font-size="10px">第</text>
<text transform="matrix(1 0 0 1 141.7502 99.5936)" font-family="'KaiTi'" font-size="10px">四</text>
<text transform="matrix(1 0 0 1 151.7502 99.5936)" font-family="'KaiTi'" font-size="10px">大</text>
<text transform="matrix(1 0 0 1 161.7502 99.5936)" font-family="'KaiTi'" font-size="10px">门</text>
<text transform="matrix(1 0 0 1 171.7502 99.5936)" font-family="'KaiTi'" font-size="10px">)</text>
<text transform="matrix(1 0 0 1 81.7502 113.5936)" font-family="'KaiTi'" font-size="10px">念</text>
<text transform="matrix(1 0 0 1 91.7502 113.5936)" font-family="'KaiTi'" font-size="10px">佛</text>
<text transform="matrix(1 0 0 1 101.7502 113.5936)" font-family="'KaiTi'" font-size="10px">三</text>
<text transform="matrix(1 0 0 1 111.7502 113.5936)" font-family="'KaiTi'" font-size="10px">昧</text>
<text transform="matrix(1 0 0 1 121.7502 113.5936)" font-family="'KaiTi'" font-size="10px">成</text>
<text transform="matrix(1 0 0 1 131.7502 113.5936)" font-family="'KaiTi'" font-size="10px">就</text>
<text transform="matrix(1 0 0 1 141.7502 113.5936)" font-family="'KaiTi'" font-size="10px">净</text>
<text transform="matrix(1 0 0 1 151.7502 113.5936)" font-family="'KaiTi'" font-size="10px">土</text>
<text transform="matrix(1 0 0 1 161.7502 113.5936)" font-family="'KaiTi'" font-size="10px">往</text>
<text transform="matrix(1 0 0 1 171.7502 113.5936)" font-family="'KaiTi'" font-size="10px">生</text>
<text transform="matrix(1 0 0 1 81.7502 160.8436)" font-family="'KaiTi'" font-size="10px"> </text>
<text transform="matrix(1 0 0 1 86.7502 160.8436)" font-family="'KaiTi'" font-size="10px">第</text>
<text transform="matrix(1 0 0 1 96.7502 160.8436)" font-family="'KaiTi'" font-size="10px">三</text>
<text transform="matrix(1 0 0 1 106.7502 160.8436)" font-family="'KaiTi'" font-size="10px">节</text>
<text transform="matrix(1 0 0 1 116.7502 160.8436)" font-family="'DFKaiShu-SB-Estd-BF'" font-size="10px">：</text>
<text transform="matrix(1 0 0 1 126.7502 160.8436)" font-family="'KaiTi'" font-size="10px">(</text>
<text transform="matrix(1 0 0 1 131.7502 160.8436)" font-family="'KaiTi'" font-size="10px">第</text>
<text transform="matrix(1 0 0 1 141.7502 160.8436)" font-family="'KaiTi'" font-size="10px">五</text>
<text transform="matrix(1 0 0 1 151.7502 160.8436)" font-family="'KaiTi'" font-size="10px">大</text>
<text transform="matrix(1 0 0 1 161.7502 160.8436)" font-family="'KaiTi'" font-size="10px">门</text>
<text transform="matrix(1 0 0 1 171.7502 160.8436)" font-family="'KaiTi'" font-size="10px">)</text>
<text transform="matrix(1 0 0 1 81.7502 174.8436)" font-family="'KaiTi'" font-size="10px"> </text>
<text transform="matrix(1 0 0 1 86.7502 174.8436)" font-family="'KaiTi'" font-size="10px">比</text>
<text transform="matrix(1 0 0 1 96.7502 174.8436)" font-family="'KaiTi'" font-size="10px">较</text>
<text transform="matrix(1 0 0 1 106.7502 174.8436)" font-family="'KaiTi'" font-size="10px">优</text>
<text transform="matrix(1 0 0 1 116.7502 174.8436)" font-family="'KaiTi'" font-size="10px">劣</text>
<text transform="matrix(1 0 0 1 126.7502 174.8436)" font-family="'DFKaiShu-SB-Estd-BF'" font-size="10px">，</text>
<text transform="matrix(1 0 0 1 136.7502 174.8436)" font-family="'KaiTi'" font-size="10px">劝</text>
<text transform="matrix(1 0 0 1 146.7502 174.8436)" font-family="'KaiTi'" font-size="10px">信</text>
<text transform="matrix(1 0 0 1 156.7502 174.8436)" font-family="'KaiTi'" font-size="10px">求</text>
<text transform="matrix(1 0 0 1 166.7502 174.8436)" font-family="'KaiTi'" font-size="10px">往</text>
<g>
	<line fill="none" stroke="#000000" stroke-width="0.5" stroke-miterlimit="10" x1="73.1" y1="102.6" x2="76" y2="102.6"/>
	<line fill="none" stroke="#000000" stroke-width="0.5" stroke-miterlimit="10" x1="76.1" y1="34.3" x2="79" y2="34.3"/>
	<line fill="none" stroke="#000000" stroke-width="0.5" stroke-miterlimit="10" x1="76" y1="175.2" x2="78.8" y2="175.2"/>
	<line fill="none" stroke="#000000" stroke-width="0.5" stroke-miterlimit="10" x1="76.1" y1="34.3" x2="76.1" y2="175.2"/>
</g>
<text transform="matrix(1 0 0 1 0 100)" font-family="'KaiTi'" font-size="10px"> </text>
<text transform="matrix(1 0 0 1 10 100)" font-family="'KaiTi'" font-size="10px"> </text>
<text transform="matrix(1 0 0 1 15 100)" font-family="'KaiTi'" font-size="10px">第</text>
<text transform="matrix(1 0 0 1 25 100)" font-family="'KaiTi'" font-size="10px">三</text>
<text transform="matrix(1 0 0 1 35 100)" font-family="'KaiTi'" font-size="10px">章</text>
<text transform="matrix(1 0 0 1 45 100)" font-family="'DFKaiShu-SB-Estd-BF'" font-size="10px">：</text>
<text transform="matrix(1 0 0 1 0 114)" font-family="'KaiTi'" font-size="10px">净</text>
<text transform="matrix(1 0 0 1 10 114)" font-family="'KaiTi'" font-size="10px">土</text>
<text transform="matrix(1 0 0 1 20 114)" font-family="'KaiTi'" font-size="10px">往</text>
<text transform="matrix(1 0 0 1 30 114)" font-family="'KaiTi'" font-size="10px">生</text>
<text transform="matrix(1 0 0 1 40 114)" font-family="'KaiTi'" font-size="10px">的</text>
<text transform="matrix(1 0 0 1 50 114)" font-family="'KaiTi'" font-size="10px">践</text>
<text transform="matrix(1 0 0 1 60 114)" font-family="'KaiTi'" font-size="10px">行</text>
</svg>
