<?xml version="1.0" encoding="utf-8"?>
<!-- Generator: Adobe Illustrator 21.0.0, SVG Export Plug-In . SVG Version: 6.00 Build 0)  -->
<svg version="1.1" baseProfile="tiny" id="图层_1"
	 xmlns="http://www.w3.org/2000/svg" xmlns:xlink="http://www.w3.org/1999/xlink" x="0px" y="0px" viewBox="0 0 288.5 94.4"
	 overflow="scroll" xml:space="preserve">
<text transform="matrix(1 0 0 1 -1.144409e-04 50.9374)" font-family="'KaiTi'" font-size="10px">第十八愿</text>
<text transform="matrix(1 0 0 1 53.5 8.5938)" font-family="'KaiTi'" font-size="10px">十</text>
<text transform="matrix(1 0 0 1 63.5 8.5938)" font-family="'KaiTi'" font-size="10px">方</text>
<text transform="matrix(1 0 0 1 73.5 8.5938)" font-family="'KaiTi'" font-size="10px">众</text>
<text transform="matrix(1 0 0 1 83.5 8.5938)" font-family="'KaiTi'" font-size="10px">生</text>
<text transform="matrix(1 0 0 1 93.5 8.5938)" font-family="'KaiTi'" font-size="10px"> </text>
<text transform="matrix(1 0 0 1 98.5 8.5938)" font-family="'KaiTi'" font-size="10px"> </text>
<text transform="matrix(1 0 0 1 108.5 8.5938)" font-family="'KaiTi'" font-size="10px"> </text>
<text transform="matrix(1 0 0 1 113.5 8.5938)" font-family="'KaiTi'" font-size="10px"> </text>
<text transform="matrix(1 0 0 1 123.5 8.5938)" font-family="'KaiTi'" font-size="10px"> </text>
<text transform="matrix(1 0 0 1 133.5 8.5938)" font-family="'KaiTi'" font-size="10px"> </text>
<text transform="matrix(1 0 0 1 143.5 8.5938)" font-family="'KaiTi'" font-size="10px"> </text>
<text transform="matrix(1 0 0 1 153.5 8.5938)" font-family="'KaiTi'" font-size="10px"> </text>
<text transform="matrix(1 0 0 1 163.5 8.5938)" font-family="'KaiTi'" font-size="10px"> </text>
<text transform="matrix(1 0 0 1 173.5 8.5938)" font-family="'KaiTi'" font-size="10px"> </text>
<text transform="matrix(1 0 0 1 183.5 8.5938)" font-family="'KaiTi'" font-size="10px"> </text>
<text transform="matrix(1 0 0 1 193.5 8.5938)" font-family="'KaiTi'" font-size="10px"> </text>
<text transform="matrix(1 0 0 1 203.5 8.5938)" font-family="'KaiTi'" font-size="10px">机</text>
<text transform="matrix(1 0 0 1 53.5 22.5938)" font-family="'KaiTi'" font-size="10px">至</text>
<text transform="matrix(1 0 0 1 63.5 22.5938)" font-family="'KaiTi'" font-size="10px"> </text>
<text transform="matrix(1 0 0 1 73.5 22.5938)" font-family="'KaiTi'" font-size="10px"> </text>
<text transform="matrix(1 0 0 1 83.5 22.5938)" font-family="'KaiTi'" font-size="10px">心</text>
<text transform="matrix(1 0 0 1 93.5 22.5938)" font-family="'KaiTi'" font-size="10px"> </text>
<text transform="matrix(1 0 0 1 103.5 22.5938)" font-family="'KaiTi'" font-size="10px"> </text>
<text transform="matrix(1 0 0 1 108.5 22.5938)" font-family="'KaiTi'" font-size="10px">至</text>
<text transform="matrix(1 0 0 1 118.5 22.5938)" font-family="'KaiTi'" font-size="10px"> </text>
<text transform="matrix(1 0 0 1 128.5 22.5938)" font-family="'KaiTi'" font-size="10px">诚</text>
<text transform="matrix(1 0 0 1 138.5 22.5938)" font-family="'KaiTi'" font-size="10px"> </text>
<text transform="matrix(1 0 0 1 148.5 22.5938)" font-family="'KaiTi'" font-size="10px">心</text>
<text transform="matrix(1 0 0 1 53.5 36.5938)" font-family="'KaiTi'" font-size="10px">信</text>
<text transform="matrix(1 0 0 1 63.5 36.5938)" font-family="'KaiTi'" font-size="10px"> </text>
<text transform="matrix(1 0 0 1 73.5 36.5938)" font-family="'KaiTi'" font-size="10px"> </text>
<text transform="matrix(1 0 0 1 83.5 36.5938)" font-family="'KaiTi'" font-size="10px">乐</text>
<text transform="matrix(1 0 0 1 93.5 36.5938)" font-family="'KaiTi'" font-size="10px"> </text>
<text transform="matrix(1 0 0 1 103.5 36.5938)" font-family="'KaiTi'" font-size="10px"> </text>
<text transform="matrix(1 0 0 1 108.5 36.5938)" font-family="'KaiTi'" font-size="10px">深</text>
<text transform="matrix(1 0 0 1 118.5 36.5938)" font-family="'KaiTi'" font-size="10px"> </text>
<text transform="matrix(1 0 0 1 128.5 36.5938)" font-family="'KaiTi'" font-size="10px"> </text>
<text transform="matrix(1 0 0 1 138.5 36.5938)" font-family="'KaiTi'" font-size="10px"> </text>
<text transform="matrix(1 0 0 1 148.5 36.5938)" font-family="'KaiTi'" font-size="10px">心</text>
<text transform="matrix(1 0 0 1 158.5 36.5938)" font-family="'KaiTi'" font-size="10px"> </text>
<text transform="matrix(1 0 0 1 168.5 36.5938)" font-family="'KaiTi'" font-size="10px"> </text>
<text transform="matrix(1 0 0 1 173.5 36.5938)" font-family="'KaiTi'" font-size="10px">三</text>
<text transform="matrix(1 0 0 1 183.5 36.5938)" font-family="'KaiTi'" font-size="10px">心</text>
<text transform="matrix(1 0 0 1 193.5 36.5938)" font-family="'KaiTi'" font-size="10px"> </text>
<text transform="matrix(1 0 0 1 203.5 36.5938)" font-family="'KaiTi'" font-size="10px">心</text>
<text transform="matrix(1 0 0 1 53.5 50.5938)" font-family="'KaiTi'" font-size="10px">欲</text>
<text transform="matrix(1 0 0 1 63.5 50.5938)" font-family="'KaiTi'" font-size="10px">生</text>
<text transform="matrix(1 0 0 1 73.5 50.5938)" font-family="'KaiTi'" font-size="10px">我</text>
<text transform="matrix(1 0 0 1 83.5 50.5938)" font-family="'KaiTi'" font-size="10px">国</text>
<text transform="matrix(1 0 0 1 93.5 50.5938)" font-family="'KaiTi'" font-size="10px"> </text>
<text transform="matrix(1 0 0 1 103.5 50.5938)" font-family="'KaiTi'" font-size="10px"> </text>
<text transform="matrix(1 0 0 1 108.5 50.5938)" font-family="'KaiTi'" font-size="10px">回</text>
<text transform="matrix(1 0 0 1 118.5 50.5938)" font-family="'KaiTi'" font-size="10px">向</text>
<text transform="matrix(1 0 0 1 128.5 50.5938)" font-family="'KaiTi'" font-size="10px">发</text>
<text transform="matrix(1 0 0 1 138.5 50.5938)" font-family="'KaiTi'" font-size="10px">愿</text>
<text transform="matrix(1 0 0 1 148.5 50.5938)" font-family="'KaiTi'" font-size="10px">心</text>
<text transform="matrix(1 0 0 1 158.5 50.5938)" font-family="'KaiTi'" font-size="10px"> </text>
<text transform="matrix(1 0 0 1 168.5 50.5938)" font-family="'KaiTi'" font-size="10px"> </text>
<text transform="matrix(1 0 0 1 178.5 50.5938)" font-family="'KaiTi'" font-size="10px"> </text>
<text transform="matrix(1 0 0 1 188.5 50.5938)" font-family="'KaiTi'" font-size="10px"> </text>
<text transform="matrix(1 0 0 1 198.5 50.5938)" font-family="'KaiTi'" font-size="10px"> </text>
<text transform="matrix(1 0 0 1 208.5 50.5938)" font-family="'KaiTi'" font-size="10px"> </text>
<text transform="matrix(1 0 0 1 218.5 50.5938)" font-family="'KaiTi'" font-size="10px"> </text>
<text transform="matrix(1 0 0 1 228.5 50.5938)" font-family="'KaiTi'" font-size="10px">心</text>
<text transform="matrix(1 0 0 1 238.5 50.5938)" font-family="'KaiTi'" font-size="10px">行</text>
<text transform="matrix(1 0 0 1 248.5 50.5938)" font-family="'KaiTi'" font-size="10px">具</text>
<text transform="matrix(1 0 0 1 258.5 50.5938)" font-family="'KaiTi'" font-size="10px">足</text>
<text transform="matrix(1 0 0 1 268.5 50.5938)" font-family="'KaiTi'" font-size="10px"> </text>
<text transform="matrix(1 0 0 1 278.5 50.5938)" font-family="'KaiTi'" font-size="10px">因</text>
<text transform="matrix(1 0 0 1 53.5 64.5938)" font-family="'KaiTi'" font-size="10px">乃</text>
<text transform="matrix(1 0 0 1 63.5 64.5938)" font-family="'KaiTi'" font-size="10px">至</text>
<text transform="matrix(1 0 0 1 73.5 64.5938)" font-family="'KaiTi'" font-size="10px">十</text>
<text transform="matrix(1 0 0 1 83.5 64.5938)" font-family="'KaiTi'" font-size="10px">念</text>
<text transform="matrix(1 0 0 1 93.5 64.5938)" font-family="'KaiTi'" font-size="10px"> </text>
<text transform="matrix(1 0 0 1 103.5 64.5938)" font-family="'KaiTi'" font-size="10px"> </text>
<text transform="matrix(1 0 0 1 108.5 64.5938)" font-family="'KaiTi'" font-size="10px"> </text>
<text transform="matrix(1 0 0 1 118.5 64.5938)" font-family="'KaiTi'" font-size="10px"> </text>
<text transform="matrix(1 0 0 1 123.5 64.5938)" font-family="'KaiTi'" font-size="10px"> </text>
<text transform="matrix(1 0 0 1 133.5 64.5938)" font-family="'KaiTi'" font-size="10px"> </text>
<text transform="matrix(1 0 0 1 143.5 64.5938)" font-family="'KaiTi'" font-size="10px"> </text>
<text transform="matrix(1 0 0 1 153.5 64.5938)" font-family="'KaiTi'" font-size="10px"> </text>
<text transform="matrix(1 0 0 1 163.5 64.5938)" font-family="'KaiTi'" font-size="10px"> </text>
<text transform="matrix(1 0 0 1 173.5 64.5938)" font-family="'KaiTi'" font-size="10px"> </text>
<text transform="matrix(1 0 0 1 183.5 64.5938)" font-family="'KaiTi'" font-size="10px"> </text>
<text transform="matrix(1 0 0 1 193.5 64.5938)" font-family="'KaiTi'" font-size="10px"> </text>
<text transform="matrix(1 0 0 1 203.5 64.5938)" font-family="'KaiTi'" font-size="10px">行</text>
<text transform="matrix(1 0 0 1 53.5 78.5938)" font-family="'KaiTi'" font-size="10px">若</text>
<text transform="matrix(1 0 0 1 63.5 78.5938)" font-family="'KaiTi'" font-size="10px">不</text>
<text transform="matrix(1 0 0 1 73.5 78.5938)" font-family="'KaiTi'" font-size="10px">生</text>
<text transform="matrix(1 0 0 1 83.5 78.5938)" font-family="'KaiTi'" font-size="10px">者</text>
<text transform="matrix(1 0 0 1 53.5 85.5938)" font-family="'KaiTi'" font-size="10px"> </text>
<text transform="matrix(1 0 0 1 63.5 85.5938)" font-family="'KaiTi'" font-size="10px"> </text>
<text transform="matrix(1 0 0 1 73.5 85.5938)" font-family="'KaiTi'" font-size="10px"> </text>
<text transform="matrix(1 0 0 1 83.5 85.5938)" font-family="'KaiTi'" font-size="10px"> </text>
<text transform="matrix(1 0 0 1 93.5 85.5938)" font-family="'KaiTi'" font-size="10px"> </text>
<text transform="matrix(1 0 0 1 103.5 85.5938)" font-family="'KaiTi'" font-size="10px"> </text>
<text transform="matrix(1 0 0 1 113.5 85.5938)" font-family="'KaiTi'" font-size="10px"> </text>
<text transform="matrix(1 0 0 1 123.5 85.5938)" font-family="'KaiTi'" font-size="10px"> </text>
<text transform="matrix(1 0 0 1 133.5 85.5938)" font-family="'KaiTi'" font-size="10px"> </text>
<text transform="matrix(1 0 0 1 143.5 85.5938)" font-family="'KaiTi'" font-size="10px"> </text>
<text transform="matrix(1 0 0 1 153.5 85.5938)" font-family="'KaiTi'" font-size="10px"> </text>
<text transform="matrix(1 0 0 1 163.5 85.5938)" font-family="'KaiTi'" font-size="10px"> </text>
<text transform="matrix(1 0 0 1 173.5 85.5938)" font-family="'KaiTi'" font-size="10px"> </text>
<text transform="matrix(1 0 0 1 183.5 85.5938)" font-family="'KaiTi'" font-size="10px"> </text>
<text transform="matrix(1 0 0 1 193.5 85.5938)" font-family="'KaiTi'" font-size="10px"> </text>
<text transform="matrix(1 0 0 1 203.5 85.5938)" font-family="'KaiTi'" font-size="10px"> </text>
<text transform="matrix(1 0 0 1 213.5 85.5938)" font-family="'KaiTi'" font-size="10px"> </text>
<text transform="matrix(1 0 0 1 223.5 85.5938)" font-family="'KaiTi'" font-size="10px"> </text>
<text transform="matrix(1 0 0 1 228.5 85.5938)" font-family="'KaiTi'" font-size="10px">即</text>
<text transform="matrix(1 0 0 1 238.5 85.5938)" font-family="'KaiTi'" font-size="10px">得</text>
<text transform="matrix(1 0 0 1 248.5 85.5938)" font-family="'KaiTi'" font-size="10px">往</text>
<text transform="matrix(1 0 0 1 258.5 85.5938)" font-family="'KaiTi'" font-size="10px">生</text>
<text transform="matrix(1 0 0 1 268.5 85.5938)" font-family="'KaiTi'" font-size="10px"> </text>
<text transform="matrix(1 0 0 1 278.5 85.5938)" font-family="'KaiTi'" font-size="10px">果</text>
<text transform="matrix(1 0 0 1 53.5 92.5938)" font-family="'KaiTi'" font-size="10px">不</text>
<text transform="matrix(1 0 0 1 63.5 92.5938)" font-family="'KaiTi'" font-size="10px">取</text>
<text transform="matrix(1 0 0 1 73.5 92.5938)" font-family="'KaiTi'" font-size="10px">正</text>
<text transform="matrix(1 0 0 1 83.5 92.5938)" font-family="'KaiTi'" font-size="10px">觉</text>
<g>
	<line fill="none" stroke="#000000" stroke-width="0.5" stroke-miterlimit="10" x1="97.1" y1="18.6" x2="104.1" y2="18.6"/>
	<line fill="none" stroke="#000000" stroke-width="0.5" stroke-miterlimit="10" x1="97.4" y1="47.4" x2="104.1" y2="47.4"/>
	<line fill="none" stroke="#000000" stroke-width="0.5" stroke-miterlimit="10" x1="103.9" y1="33" x2="96.9" y2="33"/>
</g>
<g>
	<line fill="none" stroke="#000000" stroke-width="0.5" stroke-miterlimit="10" x1="166.7" y1="47.4" x2="166.7" y2="18.6"/>
	<line fill="none" stroke="#000000" stroke-width="0.5" stroke-miterlimit="10" x1="166.7" y1="47.4" x2="163" y2="47.4"/>
	<line fill="none" stroke="#000000" stroke-width="0.5" stroke-miterlimit="10" x1="166.7" y1="18.6" x2="163" y2="18.6"/>
	<line fill="none" stroke="#000000" stroke-width="0.5" stroke-miterlimit="10" x1="166.6" y1="33" x2="170.4" y2="33"/>
</g>
<line fill="none" stroke="#000000" stroke-width="0.5" stroke-miterlimit="10" x1="195.1" y1="33" x2="200.6" y2="33"/>
<line fill="none" stroke="#000000" stroke-width="0.5" stroke-miterlimit="10" x1="96.8" y1="4.8" x2="200.6" y2="4.8"/>
<line fill="none" stroke="#000000" stroke-width="0.5" stroke-miterlimit="10" x1="96.8" y1="61.3" x2="200.6" y2="61.3"/>
<g>
	<line fill="none" stroke="#000000" stroke-width="0.5" stroke-miterlimit="10" x1="221" y1="61.9" x2="221" y2="33"/>
	<line fill="none" stroke="#000000" stroke-width="0.5" stroke-miterlimit="10" x1="221" y1="61.9" x2="217.3" y2="61.9"/>
	<line fill="none" stroke="#000000" stroke-width="0.5" stroke-miterlimit="10" x1="221" y1="33" x2="217.3" y2="33"/>
	<line fill="none" stroke="#000000" stroke-width="0.5" stroke-miterlimit="10" x1="220.9" y1="47.4" x2="224.7" y2="47.4"/>
</g>
<line fill="none" stroke="#000000" stroke-width="0.5" stroke-miterlimit="10" x1="270.8" y1="47.4" x2="276.3" y2="47.4"/>
<line fill="none" stroke="#000000" stroke-width="0.5" stroke-miterlimit="10" x1="270.8" y1="82.5" x2="276.3" y2="82.5"/>
<g>
	<line fill="none" stroke="#000000" stroke-width="0.5" stroke-miterlimit="10" x1="100.5" y1="89.3" x2="100.5" y2="75.2"/>
	<line fill="none" stroke="#000000" stroke-width="0.5" stroke-miterlimit="10" x1="100.6" y1="89.5" x2="96.9" y2="89.5"/>
	<line fill="none" stroke="#000000" stroke-width="0.5" stroke-miterlimit="10" x1="100.6" y1="75.2" x2="96.9" y2="75.2"/>
	<line fill="none" stroke="#000000" stroke-width="0.5" stroke-miterlimit="10" x1="100.5" y1="82.8" x2="224.7" y2="82.8"/>
</g>
<g>
	<line fill="none" stroke="#000000" stroke-width="0.5" stroke-miterlimit="10" x1="46.8" y1="4.8" x2="46.8" y2="89.5"/>
	<line fill="none" stroke="#000000" stroke-width="0.5" stroke-miterlimit="10" x1="46.8" y1="4.8" x2="50.5" y2="4.8"/>
	<line fill="none" stroke="#000000" stroke-width="0.5" stroke-miterlimit="10" x1="46.8" y1="89.3" x2="50.5" y2="89.3"/>
	<line fill="none" stroke="#000000" stroke-width="0.5" stroke-miterlimit="10" x1="46.9" y1="47.4" x2="43.1" y2="47.4"/>
</g>
</svg>
