<?xml version="1.0" encoding="utf-8"?>
<!-- Generator: Adobe Illustrator 21.0.0, SVG Export Plug-In . SVG Version: 6.00 Build 0)  -->
<svg version="1.1" id="圖層_1" xmlns="http://www.w3.org/2000/svg" xmlns:xlink="http://www.w3.org/1999/xlink" x="0px" y="0px"
	 viewBox="0 0 335.5 87.8" style="enable-background:new 0 0 335.5 87.8;" xml:space="preserve">
<style type="text/css">
	.st0{font-family:'KaiTi';}
	.st1{font-size:10px;}
	.st2{fill:none;stroke:#000000;stroke-width:0.5;stroke-miterlimit:10;}
</style>
<text transform="matrix(1 0 0 1 154 8.5938)"><tspan x="0" y="0" class="st0 st1">順次往生  化生</tspan><tspan x="0" y="21" class="st0 st1">轉入第十八願全分念佛</tspan><tspan x="0" y="35" class="st0 st1">滯於諸行  臨終來迎</tspan><tspan x="0" y="56" class="st0 st1">一生結緣下種</tspan><tspan x="0" y="70" class="st0 st1">二生緣種成熟</tspan></text>
<text transform="matrix(1 0 0 1 102 9)"><tspan x="0" y="0" class="st0 st1">全分念佛</tspan><tspan x="0" y="28" class="st0 st1">少分念佛</tspan><tspan x="0" y="63" class="st0 st1">微分念佛</tspan></text>
<text transform="matrix(1 0 0 1 51 9)"><tspan x="0" y="0" class="st0 st1">明信佛智</tspan><tspan x="0" y="28" class="st0 st1">疑惑佛智</tspan><tspan x="0" y="63" class="st0 st1">不明佛智</tspan></text>
<text transform="matrix(1 0 0 1 0 9)"><tspan x="0" y="0" class="st0 st1">第十八願</tspan><tspan x="0" y="28" class="st0 st1">第十九願</tspan><tspan x="0" y="63" class="st0 st1">第二十願</tspan></text>
<line class="st2" x1="42.9" y1="5.7" x2="48.4" y2="5.7"/>
<line class="st2" x1="42.9" y1="33.7" x2="48.4" y2="33.7"/>
<line class="st2" x1="42.9" y1="68.7" x2="48.4" y2="68.7"/>
<line class="st2" x1="93.9" y1="5.7" x2="99.4" y2="5.7"/>
<line class="st2" x1="93.9" y1="34" x2="99.4" y2="34"/>
<line class="st2" x1="93.9" y1="68.7" x2="99.4" y2="68.7"/>
<line class="st2" x1="144.9" y1="5.7" x2="150.4" y2="5.7"/>
<g>
	<line class="st2" x1="147.6" y1="26.3" x2="147.6" y2="40.9"/>
	<line class="st2" x1="147.6" y1="26.3" x2="150.3" y2="26.3"/>
	<line class="st2" x1="147.6" y1="40.9" x2="150.3" y2="40.9"/>
	<line class="st2" x1="147.6" y1="33.6" x2="144.9" y2="33.6"/>
</g>
<g>
	<line class="st2" x1="147.7" y1="61.4" x2="147.7" y2="76"/>
	<line class="st2" x1="147.7" y1="61.4" x2="150.4" y2="61.4"/>
	<line class="st2" x1="147.7" y1="76" x2="150.4" y2="76"/>
	<line class="st2" x1="147.7" y1="68.7" x2="144.9" y2="68.7"/>
</g>
<line class="st2" x1="196.5" y1="5.7" x2="202" y2="5.7"/>
<line class="st2" x1="196.5" y1="40.9" x2="202" y2="40.9"/>
<g>
	<line class="st2" x1="220.2" y1="68.7" x2="220.2" y2="83.3"/>
	<line class="st2" x1="220.2" y1="68.7" x2="222.9" y2="68.7"/>
	<line class="st2" x1="220.2" y1="83.3" x2="222.9" y2="83.3"/>
	<line class="st2" x1="220.2" y1="76" x2="217.5" y2="76"/>
</g>
<text transform="matrix(1 0 0 1 225.9051 72)"><tspan x="0" y="0" class="st0 st1">少分念佛</tspan><tspan x="0" y="14" class="st0 st1">全分念佛</tspan></text>
<line class="st2" x1="256.9" y1="26.3" x2="262.4" y2="26.3"/>
<text transform="matrix(1 0 0 1 265.5 30)"><tspan x="0" y="0" class="st0 st1">順次往生</tspan><tspan x="0" y="14" class="st0 st1">順次往生</tspan></text>
<line class="st2" x1="245.6" y1="40.9" x2="262.4" y2="40.9"/>
<line class="st2" x1="268.5" y1="68.7" x2="274" y2="68.7"/>
<line class="st2" x1="268.5" y1="83.3" x2="274" y2="83.3"/>
<text transform="matrix(1 0 0 1 276.375 72)"><tspan x="0" y="0" class="st0 st1">第三生胎生</tspan><tspan x="0" y="14" class="st0 st1">第三生化生</tspan></text>
<line class="st2" x1="307" y1="26.3" x2="312.5" y2="26.3"/>
<line class="st2" x1="307" y1="40.9" x2="312.5" y2="40.9"/>
<text transform="matrix(1 0 0 1 315.5132 29.5938)"><tspan x="0" y="0" class="st0 st1">化生</tspan><tspan x="0" y="14" class="st0 st1">胎生</tspan></text>
</svg>
