<?xml version="1.0" encoding="utf-8"?>
<!-- Generator: Adobe Illustrator 21.0.0, SVG Export Plug-In . SVG Version: 6.00 Build 0)  -->
<svg version="1.1" baseProfile="tiny" id="圖層_1"
	 xmlns="http://www.w3.org/2000/svg" xmlns:xlink="http://www.w3.org/1999/xlink" x="0px" y="0px" viewBox="0 0 220.2 129.4"
	 overflow="scroll" xml:space="preserve">
<text transform="matrix(1 0 0 1 1.640320e-04 8.5938)" stroke="#000000" stroke-width="0.15" stroke-miterlimit="10" font-family="'KaiTi'" font-size="10px">第</text>
<text transform="matrix(1 0 0 1 10.0002 8.5938)" stroke="#000000" stroke-width="0.15" stroke-miterlimit="10" font-family="'KaiTi'" font-size="10px">十</text>
<text transform="matrix(1 0 0 1 20.0002 8.5938)" stroke="#000000" stroke-width="0.15" stroke-miterlimit="10" font-family="'KaiTi'" font-size="10px">八</text>
<text transform="matrix(1 0 0 1 30.0007 8.5938)" stroke="#000000" stroke-width="0.15" stroke-miterlimit="10" font-family="'KaiTi'" font-size="10px">願</text>
<text transform="matrix(1 0 0 1 40.0007 8.5938)" font-family="'KaiTi'" font-size="10px"> </text>
<text transform="matrix(1 0 0 1 45.0007 8.5938)" stroke="#000000" stroke-width="0.15" stroke-miterlimit="10" font-family="'KaiTi'" font-size="10px">《</text>
<text transform="matrix(1 0 0 1 55.0007 8.5938)" stroke="#000000" stroke-width="0.15" stroke-miterlimit="10" font-family="'KaiTi'" font-size="10px">觀</text>
<text transform="matrix(1 0 0 1 65.0007 8.5938)" stroke="#000000" stroke-width="0.15" stroke-miterlimit="10" font-family="'KaiTi'" font-size="10px">念</text>
<text transform="matrix(1 0 0 1 75.0007 8.5938)" stroke="#000000" stroke-width="0.15" stroke-miterlimit="10" font-family="'KaiTi'" font-size="10px">法</text>
<text transform="matrix(1 0 0 1 85.0007 8.5938)" stroke="#000000" stroke-width="0.15" stroke-miterlimit="10" font-family="'KaiTi'" font-size="10px">門</text>
<text transform="matrix(1 0 0 1 95.0007 8.5938)" stroke="#000000" stroke-width="0.15" stroke-miterlimit="10" font-family="'KaiTi'" font-size="10px">》</text>
<text transform="matrix(1 0 0 1 1.640320e-04 22.5938)" font-family="'KaiTi'" font-size="10px">設</text>
<text transform="matrix(1 0 0 1 10.0002 22.5938)" font-family="'KaiTi'" font-size="10px">我</text>
<text transform="matrix(1 0 0 1 20.0002 22.5938)" font-family="'KaiTi'" font-size="10px">得</text>
<text transform="matrix(1 0 0 1 30.0007 22.5938)" font-family="'KaiTi'" font-size="10px">佛</text>
<text transform="matrix(1 0 0 1 40.0007 22.5938)" font-family="'KaiTi'" font-size="10px"> </text>
<text transform="matrix(1 0 0 1 50.0007 22.5938)" font-family="'KaiTi'" font-size="10px"> </text>
<text transform="matrix(1 0 0 1 55.0007 22.5938)" font-family="'KaiTi'" font-size="10px">若</text>
<text transform="matrix(1 0 0 1 65.0007 22.5938)" font-family="'KaiTi'" font-size="10px">我</text>
<text transform="matrix(1 0 0 1 75.0007 22.5938)" font-family="'KaiTi'" font-size="10px">成</text>
<text transform="matrix(1 0 0 1 85.0007 22.5938)" font-family="'KaiTi'" font-size="10px">佛</text>
<text transform="matrix(1 0 0 1 1.640320e-04 36.5938)" font-family="'KaiTi'" font-size="10px">十</text>
<text transform="matrix(1 0 0 1 10.0002 36.5938)" font-family="'KaiTi'" font-size="10px">方</text>
<text transform="matrix(1 0 0 1 20.0002 36.5938)" font-family="'KaiTi'" font-size="10px">眾</text>
<text transform="matrix(1 0 0 1 30.0007 36.5938)" font-family="'KaiTi'" font-size="10px">生</text>
<text transform="matrix(1 0 0 1 40.0007 36.5938)" font-family="'KaiTi'" font-size="10px"> </text>
<text transform="matrix(1 0 0 1 50.0007 36.5938)" font-family="'KaiTi'" font-size="10px"> </text>
<text transform="matrix(1 0 0 1 55.0007 36.5938)" font-family="'KaiTi'" font-size="10px">十</text>
<text transform="matrix(1 0 0 1 65.0007 36.5938)" font-family="'KaiTi'" font-size="10px">方</text>
<text transform="matrix(1 0 0 1 75.0007 36.5938)" font-family="'KaiTi'" font-size="10px">眾</text>
<text transform="matrix(1 0 0 1 85.0007 36.5938)" font-family="'KaiTi'" font-size="10px">生</text>
<text transform="matrix(1 0 0 1 1.640320e-04 50.5938)" font-family="'KaiTi'" font-size="10px">至</text>
<text transform="matrix(1 0 0 1 10.0002 50.5938)" font-family="'KaiTi'" font-size="10px">心</text>
<text transform="matrix(1 0 0 1 20.0002 50.5938)" font-family="'KaiTi'" font-size="10px">信</text>
<text transform="matrix(1 0 0 1 30.0007 50.5938)" font-family="'KaiTi'" font-size="10px">樂</text>
<text transform="matrix(1 0 0 1 1.640320e-04 57.5938)" font-family="'KaiTi'" font-size="10px"> </text>
<text transform="matrix(1 0 0 1 10.0002 57.5938)" font-family="'KaiTi'" font-size="10px"> </text>
<text transform="matrix(1 0 0 1 20.0002 57.5938)" font-family="'KaiTi'" font-size="10px"> </text>
<text transform="matrix(1 0 0 1 30.0007 57.5938)" font-family="'KaiTi'" font-size="10px"> </text>
<text transform="matrix(1 0 0 1 40.0007 57.5938)" font-family="'KaiTi'" font-size="10px"> </text>
<text transform="matrix(1 0 0 1 50.0007 57.5938)" font-family="'KaiTi'" font-size="10px"> </text>
<text transform="matrix(1 0 0 1 55.0007 57.5938)" font-family="'KaiTi'" font-size="10px">願</text>
<text transform="matrix(1 0 0 1 65.0007 57.5938)" font-family="'KaiTi'" font-size="10px">生</text>
<text transform="matrix(1 0 0 1 75.0007 57.5938)" font-family="'KaiTi'" font-size="10px">我</text>
<text transform="matrix(1 0 0 1 85.0007 57.5938)" font-family="'KaiTi'" font-size="10px">國</text>
<text transform="matrix(1 0 0 1 1.640320e-04 64.5938)" font-family="'KaiTi'" font-size="10px">欲</text>
<text transform="matrix(1 0 0 1 10.0002 64.5938)" font-family="'KaiTi'" font-size="10px">生</text>
<text transform="matrix(1 0 0 1 20.0002 64.5938)" font-family="'KaiTi'" font-size="10px">我</text>
<text transform="matrix(1 0 0 1 30.0007 64.5938)" font-family="'KaiTi'" font-size="10px">國</text>
<text transform="matrix(1 0 0 1 1.640320e-04 71.5938)" font-family="'KaiTi'" font-size="10px"> </text>
<text transform="matrix(1 0 0 1 10.0002 71.5938)" font-family="'KaiTi'" font-size="10px"> </text>
<text transform="matrix(1 0 0 1 20.0002 71.5938)" font-family="'KaiTi'" font-size="10px"> </text>
<text transform="matrix(1 0 0 1 30.0007 71.5938)" font-family="'KaiTi'" font-size="10px"> </text>
<text transform="matrix(1 0 0 1 40.0007 71.5938)" font-family="'KaiTi'" font-size="10px"> </text>
<text transform="matrix(1 0 0 1 50.0007 71.5938)" font-family="'KaiTi'" font-size="10px"> </text>
<text transform="matrix(1 0 0 1 55.0007 71.5938)" font-family="'KaiTi'" font-size="10px">稱</text>
<text transform="matrix(1 0 0 1 65.0007 71.5938)" font-family="'KaiTi'" font-size="10px">我</text>
<text transform="matrix(1 0 0 1 75.0007 71.5938)" font-family="'KaiTi'" font-size="10px">名</text>
<text transform="matrix(1 0 0 1 85.0007 71.5938)" font-family="'KaiTi'" font-size="10px">字</text>
<text transform="matrix(1 0 0 1 1.640320e-04 78.5938)" font-family="'KaiTi'" font-size="10px">乃</text>
<text transform="matrix(1 0 0 1 10.0002 78.5938)" font-family="'KaiTi'" font-size="10px">至</text>
<text transform="matrix(1 0 0 1 20.0002 78.5938)" font-family="'KaiTi'" font-size="10px">十</text>
<text transform="matrix(1 0 0 1 30.0007 78.5938)" font-family="'KaiTi'" font-size="10px">念</text>
<text transform="matrix(1 0 0 1 1.640320e-04 85.5938)" font-family="'KaiTi'" font-size="10px"> </text>
<text transform="matrix(1 0 0 1 10.0002 85.5938)" font-family="'KaiTi'" font-size="10px"> </text>
<text transform="matrix(1 0 0 1 20.0002 85.5938)" font-family="'KaiTi'" font-size="10px"> </text>
<text transform="matrix(1 0 0 1 30.0007 85.5938)" font-family="'KaiTi'" font-size="10px"> </text>
<text transform="matrix(1 0 0 1 40.0007 85.5938)" font-family="'KaiTi'" font-size="10px"> </text>
<text transform="matrix(1 0 0 1 50.0007 85.5938)" font-family="'KaiTi'" font-size="10px"> </text>
<text transform="matrix(1 0 0 1 55.0007 85.5938)" font-family="'KaiTi'" font-size="10px">下</text>
<text transform="matrix(1 0 0 1 65.0007 85.5938)" font-family="'KaiTi'" font-size="10px">至</text>
<text transform="matrix(1 0 0 1 75.0007 85.5938)" font-family="'KaiTi'" font-size="10px">十</text>
<text transform="matrix(1 0 0 1 85.0007 85.5938)" font-family="'KaiTi'" font-size="10px">聲</text>
<text transform="matrix(1 0 0 1 1.640320e-04 99.5938)" font-family="'KaiTi'" font-size="10px"> </text>
<text transform="matrix(1 0 0 1 10.0002 99.5938)" font-family="'KaiTi'" font-size="10px"> </text>
<text transform="matrix(1 0 0 1 20.0002 99.5938)" font-family="'KaiTi'" font-size="10px"> </text>
<text transform="matrix(1 0 0 1 30.0007 99.5938)" font-family="'KaiTi'" font-size="10px"> </text>
<text transform="matrix(1 0 0 1 40.0007 99.5938)" font-family="'KaiTi'" font-size="10px"> </text>
<text transform="matrix(1 0 0 1 50.0007 99.5938)" font-family="'KaiTi'" font-size="10px"> </text>
<text transform="matrix(1 0 0 1 55.0007 99.5938)" font-family="'KaiTi'" font-size="10px">乘</text>
<text transform="matrix(1 0 0 1 65.0007 99.5938)" font-family="'KaiTi'" font-size="10px">我</text>
<text transform="matrix(1 0 0 1 75.0007 99.5938)" font-family="'KaiTi'" font-size="10px">願</text>
<text transform="matrix(1 0 0 1 85.0007 99.5938)" font-family="'KaiTi'" font-size="10px">力</text>
<text transform="matrix(1 0 0 1 1.640320e-04 106.5938)" font-family="'KaiTi'" font-size="10px">若</text>
<text transform="matrix(1 0 0 1 10.0002 106.5938)" font-family="'KaiTi'" font-size="10px">不</text>
<text transform="matrix(1 0 0 1 20.0002 106.5938)" font-family="'KaiTi'" font-size="10px">生</text>
<text transform="matrix(1 0 0 1 30.0007 106.5938)" font-family="'KaiTi'" font-size="10px">者</text>
<text transform="matrix(1 0 0 1 1.640320e-04 113.5938)" font-family="'KaiTi'" font-size="10px"> </text>
<text transform="matrix(1 0 0 1 10.0002 113.5938)" font-family="'KaiTi'" font-size="10px"> </text>
<text transform="matrix(1 0 0 1 20.0002 113.5938)" font-family="'KaiTi'" font-size="10px"> </text>
<text transform="matrix(1 0 0 1 30.0007 113.5938)" font-family="'KaiTi'" font-size="10px"> </text>
<text transform="matrix(1 0 0 1 40.0007 113.5938)" font-family="'KaiTi'" font-size="10px"> </text>
<text transform="matrix(1 0 0 1 50.0007 113.5938)" font-family="'KaiTi'" font-size="10px"> </text>
<text transform="matrix(1 0 0 1 55.0007 113.5938)" font-family="'KaiTi'" font-size="10px">若</text>
<text transform="matrix(1 0 0 1 65.0007 113.5938)" font-family="'KaiTi'" font-size="10px">不</text>
<text transform="matrix(1 0 0 1 75.0007 113.5938)" font-family="'KaiTi'" font-size="10px">生</text>
<text transform="matrix(1 0 0 1 85.0007 113.5938)" font-family="'KaiTi'" font-size="10px">者</text>
<text transform="matrix(1 0 0 1 1.640320e-04 127.5938)" font-family="'KaiTi'" font-size="10px">不</text>
<text transform="matrix(1 0 0 1 10.0002 127.5938)" font-family="'KaiTi'" font-size="10px">取</text>
<text transform="matrix(1 0 0 1 20.0002 127.5938)" font-family="'KaiTi'" font-size="10px">正</text>
<text transform="matrix(1 0 0 1 30.0007 127.5938)" font-family="'KaiTi'" font-size="10px">覺</text>
<text transform="matrix(1 0 0 1 40.0007 127.5938)" font-family="'KaiTi'" font-size="10px"> </text>
<text transform="matrix(1 0 0 1 50.0007 127.5938)" font-family="'KaiTi'" font-size="10px"> </text>
<text transform="matrix(1 0 0 1 55.0007 127.5938)" font-family="'KaiTi'" font-size="10px">不</text>
<text transform="matrix(1 0 0 1 65.0007 127.5938)" font-family="'KaiTi'" font-size="10px">取</text>
<text transform="matrix(1 0 0 1 75.0007 127.5938)" font-family="'KaiTi'" font-size="10px">正</text>
<text transform="matrix(1 0 0 1 85.0007 127.5938)" font-family="'KaiTi'" font-size="10px">覺</text>
<text transform="matrix(1 0 0 1 95.0007 127.5938)" font-family="'KaiTi'" font-size="10px"> </text>
<text transform="matrix(1 0 0 1 105.0007 127.5938)" font-family="'KaiTi'" font-size="10px"> </text>
<g>
	<line fill="none" stroke="#000000" stroke-width="0.5" stroke-miterlimit="10" x1="51.3" y1="54.1" x2="47.6" y2="54.1"/>
	<line fill="none" stroke="#000000" stroke-width="0.5" stroke-miterlimit="10" x1="47.6" y1="61" x2="43.4" y2="61"/>
	<line fill="none" stroke="#000000" stroke-width="0.5" stroke-miterlimit="10" x1="47.6" y1="46.8" x2="43.4" y2="46.8"/>
	<line fill="none" stroke="#000000" stroke-width="0.5" stroke-miterlimit="10" x1="47.6" y1="61.2" x2="47.6" y2="46.6"/>
</g>
<g>
	<line fill="none" stroke="#000000" stroke-width="0.5" stroke-miterlimit="10" x1="43.4" y1="74.4" x2="47.5" y2="74.4"/>
	<line fill="none" stroke="#000000" stroke-width="0.5" stroke-miterlimit="10" x1="47.5" y1="67.5" x2="51.3" y2="67.5"/>
	<line fill="none" stroke="#000000" stroke-width="0.5" stroke-miterlimit="10" x1="47.5" y1="81.7" x2="51.3" y2="81.7"/>
	<line fill="none" stroke="#000000" stroke-width="0.5" stroke-miterlimit="10" x1="47.5" y1="67.3" x2="47.5" y2="81.9"/>
</g>
<g>
	<line fill="none" stroke="#000000" stroke-width="0.5" stroke-miterlimit="10" x1="43.6" y1="102.8" x2="47.7" y2="102.8"/>
	<line fill="none" stroke="#000000" stroke-width="0.5" stroke-miterlimit="10" x1="47.7" y1="95.9" x2="51.5" y2="95.9"/>
	<line fill="none" stroke="#000000" stroke-width="0.5" stroke-miterlimit="10" x1="47.7" y1="110.1" x2="51.5" y2="110.1"/>
	<line fill="none" stroke="#000000" stroke-width="0.5" stroke-miterlimit="10" x1="47.7" y1="95.7" x2="47.7" y2="110.3"/>
</g>
<line fill="none" stroke="#000000" stroke-width="0.5" stroke-miterlimit="10" x1="43.6" y1="32.2" x2="51.3" y2="32.2"/>
<line fill="none" stroke="#000000" stroke-width="0.5" stroke-miterlimit="10" x1="43.6" y1="19.1" x2="51.3" y2="19.1"/>
<line fill="none" stroke="#000000" stroke-width="0.5" stroke-miterlimit="10" x1="43.6" y1="123.4" x2="51.3" y2="123.4"/>
<text transform="matrix(1 0 0 1 115.1672 8.5938)" stroke="#000000" stroke-width="0.15" stroke-miterlimit="10" font-family="'KaiTi'" font-size="10px">第</text>
<text transform="matrix(1 0 0 1 125.1672 8.5938)" stroke="#000000" stroke-width="0.15" stroke-miterlimit="10" font-family="'KaiTi'" font-size="10px">十</text>
<text transform="matrix(1 0 0 1 135.1672 8.5938)" stroke="#000000" stroke-width="0.15" stroke-miterlimit="10" font-family="'KaiTi'" font-size="10px">八</text>
<text transform="matrix(1 0 0 1 145.1676 8.5938)" stroke="#000000" stroke-width="0.15" stroke-miterlimit="10" font-family="'KaiTi'" font-size="10px">願</text>
<text transform="matrix(1 0 0 1 155.1676 8.5938)" font-family="'KaiTi'" font-size="10px"> </text>
<text transform="matrix(1 0 0 1 160.1676 8.5938)" stroke="#000000" stroke-width="0.15" stroke-miterlimit="10" font-family="'KaiTi'" font-size="10px">《</text>
<text transform="matrix(1 0 0 1 170.1676 8.5938)" stroke="#000000" stroke-width="0.15" stroke-miterlimit="10" font-family="'KaiTi'" font-size="10px">往</text>
<text transform="matrix(1 0 0 1 180.1676 8.5938)" stroke="#000000" stroke-width="0.15" stroke-miterlimit="10" font-family="'KaiTi'" font-size="10px">生</text>
<text transform="matrix(1 0 0 1 190.1676 8.5938)" stroke="#000000" stroke-width="0.15" stroke-miterlimit="10" font-family="'KaiTi'" font-size="10px">禮</text>
<text transform="matrix(1 0 0 1 200.1676 8.5938)" stroke="#000000" stroke-width="0.15" stroke-miterlimit="10" font-family="'KaiTi'" font-size="10px">讚</text>
<text transform="matrix(1 0 0 1 210.1676 8.5938)" stroke="#000000" stroke-width="0.15" stroke-miterlimit="10" font-family="'KaiTi'" font-size="10px">》</text>
<text transform="matrix(1 0 0 1 115.1672 22.5938)" font-family="'KaiTi'" font-size="10px">設</text>
<text transform="matrix(1 0 0 1 125.1672 22.5938)" font-family="'KaiTi'" font-size="10px">我</text>
<text transform="matrix(1 0 0 1 135.1672 22.5938)" font-family="'KaiTi'" font-size="10px">得</text>
<text transform="matrix(1 0 0 1 145.1676 22.5938)" font-family="'KaiTi'" font-size="10px">佛</text>
<text transform="matrix(1 0 0 1 155.1676 22.5938)" font-family="'KaiTi'" font-size="10px"> </text>
<text transform="matrix(1 0 0 1 165.1676 22.5938)" font-family="'KaiTi'" font-size="10px"> </text>
<text transform="matrix(1 0 0 1 170.1676 22.5938)" font-family="'KaiTi'" font-size="10px">若</text>
<text transform="matrix(1 0 0 1 180.1676 22.5938)" font-family="'KaiTi'" font-size="10px">我</text>
<text transform="matrix(1 0 0 1 190.1676 22.5938)" font-family="'KaiTi'" font-size="10px">成</text>
<text transform="matrix(1 0 0 1 200.1676 22.5938)" font-family="'KaiTi'" font-size="10px">佛</text>
<text transform="matrix(1 0 0 1 115.1672 36.5938)" font-family="'KaiTi'" font-size="10px">十</text>
<text transform="matrix(1 0 0 1 125.1672 36.5938)" font-family="'KaiTi'" font-size="10px">方</text>
<text transform="matrix(1 0 0 1 135.1672 36.5938)" font-family="'KaiTi'" font-size="10px">眾</text>
<text transform="matrix(1 0 0 1 145.1676 36.5938)" font-family="'KaiTi'" font-size="10px">生</text>
<text transform="matrix(1 0 0 1 155.1676 36.5938)" font-family="'KaiTi'" font-size="10px"> </text>
<text transform="matrix(1 0 0 1 165.1676 36.5938)" font-family="'KaiTi'" font-size="10px"> </text>
<text transform="matrix(1 0 0 1 170.1676 36.5938)" font-family="'KaiTi'" font-size="10px">十</text>
<text transform="matrix(1 0 0 1 180.1676 36.5938)" font-family="'KaiTi'" font-size="10px">方</text>
<text transform="matrix(1 0 0 1 190.1676 36.5938)" font-family="'KaiTi'" font-size="10px">眾</text>
<text transform="matrix(1 0 0 1 200.1676 36.5938)" font-family="'KaiTi'" font-size="10px">生</text>
<text transform="matrix(1 0 0 1 115.1672 50.5938)" font-family="'KaiTi'" font-size="10px">至</text>
<text transform="matrix(1 0 0 1 125.1672 50.5938)" font-family="'KaiTi'" font-size="10px">心</text>
<text transform="matrix(1 0 0 1 135.1672 50.5938)" font-family="'KaiTi'" font-size="10px">信</text>
<text transform="matrix(1 0 0 1 145.1676 50.5938)" font-family="'KaiTi'" font-size="10px">樂</text>
<text transform="matrix(1 0 0 1 115.1672 57.5938)" font-family="'KaiTi'" font-size="10px"> </text>
<text transform="matrix(1 0 0 1 125.1672 57.5938)" font-family="'KaiTi'" font-size="10px"> </text>
<text transform="matrix(1 0 0 1 135.1672 57.5938)" font-family="'KaiTi'" font-size="10px"> </text>
<text transform="matrix(1 0 0 1 145.1676 57.5938)" font-family="'KaiTi'" font-size="10px"> </text>
<text transform="matrix(1 0 0 1 155.1676 57.5938)" font-family="'KaiTi'" font-size="10px"> </text>
<text transform="matrix(1 0 0 1 165.1676 57.5938)" font-family="'KaiTi'" font-size="10px"> </text>
<text transform="matrix(1 0 0 1 170.1676 57.5938)" font-family="'KaiTi'" font-size="10px">稱</text>
<text transform="matrix(1 0 0 1 180.1676 57.5938)" font-family="'KaiTi'" font-size="10px">我</text>
<text transform="matrix(1 0 0 1 190.1676 57.5938)" font-family="'KaiTi'" font-size="10px">名</text>
<text transform="matrix(1 0 0 1 200.1676 57.5938)" font-family="'KaiTi'" font-size="10px">號</text>
<text transform="matrix(1 0 0 1 115.1672 64.5938)" font-family="'KaiTi'" font-size="10px">欲</text>
<text transform="matrix(1 0 0 1 125.1672 64.5938)" font-family="'KaiTi'" font-size="10px">生</text>
<text transform="matrix(1 0 0 1 135.1672 64.5938)" font-family="'KaiTi'" font-size="10px">我</text>
<text transform="matrix(1 0 0 1 145.1676 64.5938)" font-family="'KaiTi'" font-size="10px">國</text>
<text transform="matrix(1 0 0 1 115.1672 71.5938)" font-family="'KaiTi'" font-size="10px"> </text>
<text transform="matrix(1 0 0 1 125.1672 71.5938)" font-family="'KaiTi'" font-size="10px"> </text>
<text transform="matrix(1 0 0 1 135.1672 71.5938)" font-family="'KaiTi'" font-size="10px"> </text>
<text transform="matrix(1 0 0 1 145.1676 71.5938)" font-family="'KaiTi'" font-size="10px"> </text>
<text transform="matrix(1 0 0 1 155.1676 71.5938)" font-family="'KaiTi'" font-size="10px"> </text>
<text transform="matrix(1 0 0 1 165.1676 71.5938)" font-family="'KaiTi'" font-size="10px"> </text>
<text transform="matrix(1 0 0 1 115.1672 78.5938)" font-family="'KaiTi'" font-size="10px">乃</text>
<text transform="matrix(1 0 0 1 125.1672 78.5938)" font-family="'KaiTi'" font-size="10px">至</text>
<text transform="matrix(1 0 0 1 135.1672 78.5938)" font-family="'KaiTi'" font-size="10px">十</text>
<text transform="matrix(1 0 0 1 145.1676 78.5938)" font-family="'KaiTi'" font-size="10px">念</text>
<text transform="matrix(1 0 0 1 155.1676 78.5938)" font-family="'KaiTi'" font-size="10px"> </text>
<text transform="matrix(1 0 0 1 165.1676 78.5938)" font-family="'KaiTi'" font-size="10px"> </text>
<text transform="matrix(1 0 0 1 170.1676 78.5938)" font-family="'KaiTi'" font-size="10px">下</text>
<text transform="matrix(1 0 0 1 180.1676 78.5938)" font-family="'KaiTi'" font-size="10px">至</text>
<text transform="matrix(1 0 0 1 190.1676 78.5938)" font-family="'KaiTi'" font-size="10px">十</text>
<text transform="matrix(1 0 0 1 200.1676 78.5938)" font-family="'KaiTi'" font-size="10px">聲</text>
<text transform="matrix(1 0 0 1 115.1672 85.5938)" font-family="'KaiTi'" font-size="10px"> </text>
<text transform="matrix(1 0 0 1 125.1672 85.5938)" font-family="'KaiTi'" font-size="10px"> </text>
<text transform="matrix(1 0 0 1 135.1672 85.5938)" font-family="'KaiTi'" font-size="10px"> </text>
<text transform="matrix(1 0 0 1 145.1676 85.5938)" font-family="'KaiTi'" font-size="10px"> </text>
<text transform="matrix(1 0 0 1 155.1676 85.5938)" font-family="'KaiTi'" font-size="10px"> </text>
<text transform="matrix(1 0 0 1 165.1676 85.5938)" font-family="'KaiTi'" font-size="10px"> </text>
<text transform="matrix(1 0 0 1 170.1676 85.5938)" font-family="'KaiTi'" font-size="10px"> </text>
<text transform="matrix(1 0 0 1 180.1676 85.5938)" font-family="'KaiTi'" font-size="10px"> </text>
<text transform="matrix(1 0 0 1 190.1676 85.5938)" font-family="'KaiTi'" font-size="10px"> </text>
<text transform="matrix(1 0 0 1 200.1676 85.5938)" font-family="'KaiTi'" font-size="10px"> </text>
<text transform="matrix(1 0 0 1 210.1676 85.5938)" font-family="'KaiTi'" font-size="10px"> </text>
<text transform="matrix(1 0 0 1 115.1672 92.5938)" font-family="'KaiTi'" font-size="10px">若</text>
<text transform="matrix(1 0 0 1 125.1672 92.5938)" font-family="'KaiTi'" font-size="10px">不</text>
<text transform="matrix(1 0 0 1 135.1672 92.5938)" font-family="'KaiTi'" font-size="10px">生</text>
<text transform="matrix(1 0 0 1 145.1676 92.5938)" font-family="'KaiTi'" font-size="10px">者</text>
<text transform="matrix(1 0 0 1 155.1676 92.5938)" font-family="'KaiTi'" font-size="10px"> </text>
<text transform="matrix(1 0 0 1 165.1676 92.5938)" font-family="'KaiTi'" font-size="10px"> </text>
<text transform="matrix(1 0 0 1 170.1676 92.5938)" font-family="'KaiTi'" font-size="10px">若</text>
<text transform="matrix(1 0 0 1 180.1676 92.5938)" font-family="'KaiTi'" font-size="10px">不</text>
<text transform="matrix(1 0 0 1 190.1676 92.5938)" font-family="'KaiTi'" font-size="10px">生</text>
<text transform="matrix(1 0 0 1 200.1676 92.5938)" font-family="'KaiTi'" font-size="10px">者</text>
<text transform="matrix(1 0 0 1 115.1672 99.5938)" font-family="'KaiTi'" font-size="10px"> </text>
<text transform="matrix(1 0 0 1 125.1672 99.5938)" font-family="'KaiTi'" font-size="10px"> </text>
<text transform="matrix(1 0 0 1 135.1672 99.5938)" font-family="'KaiTi'" font-size="10px"> </text>
<text transform="matrix(1 0 0 1 145.1676 99.5938)" font-family="'KaiTi'" font-size="10px"> </text>
<text transform="matrix(1 0 0 1 155.1676 99.5938)" font-family="'KaiTi'" font-size="10px"> </text>
<text transform="matrix(1 0 0 1 165.1676 99.5938)" font-family="'KaiTi'" font-size="10px"> </text>
<text transform="matrix(1 0 0 1 115.1672 106.5938)" font-family="'KaiTi'" font-size="10px">不</text>
<text transform="matrix(1 0 0 1 125.1672 106.5938)" font-family="'KaiTi'" font-size="10px">取</text>
<text transform="matrix(1 0 0 1 135.1672 106.5938)" font-family="'KaiTi'" font-size="10px">正</text>
<text transform="matrix(1 0 0 1 145.1676 106.5938)" font-family="'KaiTi'" font-size="10px">覺</text>
<text transform="matrix(1 0 0 1 155.1676 106.5938)" font-family="'KaiTi'" font-size="10px"> </text>
<text transform="matrix(1 0 0 1 165.1676 106.5938)" font-family="'KaiTi'" font-size="10px"> </text>
<text transform="matrix(1 0 0 1 170.1676 106.5938)" font-family="'KaiTi'" font-size="10px">不</text>
<text transform="matrix(1 0 0 1 180.1676 106.5938)" font-family="'KaiTi'" font-size="10px">取</text>
<text transform="matrix(1 0 0 1 190.1676 106.5938)" font-family="'KaiTi'" font-size="10px">正</text>
<text transform="matrix(1 0 0 1 200.1676 106.5938)" font-family="'KaiTi'" font-size="10px">覺</text>
<g>
	<line fill="none" stroke="#000000" stroke-width="0.5" stroke-miterlimit="10" x1="166.5" y1="54.3" x2="162.7" y2="54.3"/>
	<line fill="none" stroke="#000000" stroke-width="0.5" stroke-miterlimit="10" x1="162.7" y1="61.2" x2="158.5" y2="61.2"/>
	<line fill="none" stroke="#000000" stroke-width="0.5" stroke-miterlimit="10" x1="162.7" y1="47" x2="158.5" y2="47"/>
	<line fill="none" stroke="#000000" stroke-width="0.5" stroke-miterlimit="10" x1="162.7" y1="61.4" x2="162.7" y2="46.8"/>
</g>
<line fill="none" stroke="#000000" stroke-width="0.5" stroke-miterlimit="10" x1="158.7" y1="19.1" x2="166.3" y2="19.1"/>
<line fill="none" stroke="#000000" stroke-width="0.5" stroke-miterlimit="10" x1="158.7" y1="32.2" x2="166.3" y2="32.2"/>
<line fill="none" stroke="#000000" stroke-width="0.5" stroke-miterlimit="10" x1="158.7" y1="74.6" x2="166.3" y2="74.6"/>
<line fill="none" stroke="#000000" stroke-width="0.5" stroke-miterlimit="10" x1="158.9" y1="89.2" x2="166.6" y2="89.2"/>
<line fill="none" stroke="#000000" stroke-width="0.5" stroke-miterlimit="10" x1="158.9" y1="103" x2="166.6" y2="103"/>
</svg>
