<?xml version="1.0" encoding="utf-8"?>
<!-- Generator: Adobe Illustrator 21.0.0, SVG Export Plug-In . SVG Version: 6.00 Build 0)  -->
<svg version="1.1" baseProfile="tiny" id="图层_1"
	 xmlns="http://www.w3.org/2000/svg" xmlns:xlink="http://www.w3.org/1999/xlink" x="0px" y="0px" viewBox="0 0 230.2 122.5"
	 overflow="scroll" xml:space="preserve">
<text transform="matrix(1 0 0 1 7.535553e-02 8.6689)" stroke="#000000" stroke-width="0.15" stroke-miterlimit="10" font-family="'KaiTi'" font-size="10px">第</text>
<text transform="matrix(1 0 0 1 10.0754 8.6689)" stroke="#000000" stroke-width="0.15" stroke-miterlimit="10" font-family="'KaiTi'" font-size="10px">十</text>
<text transform="matrix(1 0 0 1 20.0754 8.6689)" stroke="#000000" stroke-width="0.15" stroke-miterlimit="10" font-family="'KaiTi'" font-size="10px">八</text>
<text transform="matrix(1 0 0 1 30.0758 8.6689)" stroke="#000000" stroke-width="0.15" stroke-miterlimit="10" font-family="'KaiTi'" font-size="10px">愿</text>
<text transform="matrix(1 0 0 1 40.0758 8.6689)" font-family="'KaiTi'" font-size="10px"> </text>
<text transform="matrix(1 0 0 1 45.0758 8.6689)" font-family="'KaiTi'" font-size="10px"> </text>
<text transform="matrix(1 0 0 1 50.0758 8.6689)" font-family="'KaiTi'" font-size="10px"> </text>
<text transform="matrix(1 0 0 1 55.0758 8.6689)" font-family="'KaiTi'" font-size="10px">〈</text>
<text transform="matrix(1 0 0 1 65.0758 8.6689)" font-family="'KaiTi'" font-size="10px">玄</text>
<text transform="matrix(1 0 0 1 75.0758 8.6689)" font-family="'KaiTi'" font-size="10px">义</text>
<text transform="matrix(1 0 0 1 85.0758 8.6689)" font-family="'KaiTi'" font-size="10px">分</text>
<text transform="matrix(1 0 0 1 95.0758 8.6689)" font-family="'KaiTi'" font-size="10px">〉</text>
<text transform="matrix(1 0 0 1 105.0758 8.6689)" font-family="'KaiTi'" font-size="10px"> </text>
<text transform="matrix(1 0 0 1 110.0758 8.6689)" stroke="#000000" stroke-width="0.15" stroke-miterlimit="10" font-family="'KaiTi'" font-size="10px">《</text>
<text transform="matrix(1 0 0 1 120.0758 8.6689)" stroke="#000000" stroke-width="0.15" stroke-miterlimit="10" font-family="'KaiTi'" font-size="10px">观</text>
<text transform="matrix(1 0 0 1 130.0758 8.6689)" stroke="#000000" stroke-width="0.15" stroke-miterlimit="10" font-family="'KaiTi'" font-size="10px">念</text>
<text transform="matrix(1 0 0 1 140.0758 8.6689)" stroke="#000000" stroke-width="0.15" stroke-miterlimit="10" font-family="'KaiTi'" font-size="10px">法</text>
<text transform="matrix(1 0 0 1 150.0758 8.6689)" stroke="#000000" stroke-width="0.15" stroke-miterlimit="10" font-family="'KaiTi'" font-size="10px">门</text>
<text transform="matrix(1 0 0 1 160.0758 8.6689)" stroke="#000000" stroke-width="0.15" stroke-miterlimit="10" font-family="'KaiTi'" font-size="10px">》</text>
<text transform="matrix(1 0 0 1 170.0758 8.6689)" stroke="#000000" stroke-width="0.15" stroke-miterlimit="10" font-family="'KaiTi'" font-size="10px">《</text>
<text transform="matrix(1 0 0 1 180.0758 8.6689)" stroke="#000000" stroke-width="0.15" stroke-miterlimit="10" font-family="'KaiTi'" font-size="10px">往</text>
<text transform="matrix(1 0 0 1 190.0758 8.6689)" stroke="#000000" stroke-width="0.15" stroke-miterlimit="10" font-family="'KaiTi'" font-size="10px">生</text>
<text transform="matrix(1 0 0 1 200.0758 8.6689)" stroke="#000000" stroke-width="0.15" stroke-miterlimit="10" font-family="'KaiTi'" font-size="10px">礼</text>
<text transform="matrix(1 0 0 1 210.0758 8.6689)" stroke="#000000" stroke-width="0.15" stroke-miterlimit="10" font-family="'KaiTi'" font-size="10px">赞</text>
<text transform="matrix(1 0 0 1 220.0758 8.6689)" stroke="#000000" stroke-width="0.15" stroke-miterlimit="10" font-family="'KaiTi'" font-size="10px">》</text>
<text transform="matrix(1 0 0 1 7.535553e-02 15.6689)" font-family="'KaiTi'" font-size="10px"> </text>
<text transform="matrix(1 0 0 1 7.535553e-02 22.6689)" font-family="'KaiTi'" font-size="10px">设</text>
<text transform="matrix(1 0 0 1 10.0754 22.6689)" font-family="'KaiTi'" font-size="10px">我</text>
<text transform="matrix(1 0 0 1 20.0754 22.6689)" font-family="'KaiTi'" font-size="10px">得</text>
<text transform="matrix(1 0 0 1 30.0758 22.6689)" font-family="'KaiTi'" font-size="10px">佛</text>
<text transform="matrix(1 0 0 1 40.0758 22.6689)" font-family="'KaiTi'" font-size="10px"> </text>
<text transform="matrix(1 0 0 1 50.0758 22.6689)" font-family="'KaiTi'" font-size="10px"> </text>
<text transform="matrix(1 0 0 1 55.0758 22.6689)" font-family="'KaiTi'" font-size="10px"> </text>
<text transform="matrix(1 0 0 1 60.0758 22.6689)" font-family="'KaiTi'" font-size="10px">若</text>
<text transform="matrix(1 0 0 1 70.0758 22.6689)" font-family="'KaiTi'" font-size="10px">我</text>
<text transform="matrix(1 0 0 1 80.0758 22.6689)" font-family="'KaiTi'" font-size="10px">得</text>
<text transform="matrix(1 0 0 1 90.0758 22.6689)" font-family="'KaiTi'" font-size="10px">佛</text>
<text transform="matrix(1 0 0 1 100.0758 22.6689)" font-family="'KaiTi'" font-size="10px"> </text>
<text transform="matrix(1 0 0 1 105.0758 22.6689)" font-family="'KaiTi'" font-size="10px"> </text>
<text transform="matrix(1 0 0 1 115.0758 22.6689)" font-family="'KaiTi'" font-size="10px"> </text>
<text transform="matrix(1 0 0 1 120.0758 22.6689)" font-family="'KaiTi'" font-size="10px">若</text>
<text transform="matrix(1 0 0 1 130.0758 22.6689)" font-family="'KaiTi'" font-size="10px">我</text>
<text transform="matrix(1 0 0 1 140.0758 22.6689)" font-family="'KaiTi'" font-size="10px">成</text>
<text transform="matrix(1 0 0 1 150.0758 22.6689)" font-family="'KaiTi'" font-size="10px">佛</text>
<text transform="matrix(1 0 0 1 160.0758 22.6689)" font-family="'KaiTi'" font-size="10px"> </text>
<text transform="matrix(1 0 0 1 165.0758 22.6689)" font-family="'KaiTi'" font-size="10px"> </text>
<text transform="matrix(1 0 0 1 175.0758 22.6689)" font-family="'KaiTi'" font-size="10px"> </text>
<text transform="matrix(1 0 0 1 180.0758 22.6689)" font-family="'KaiTi'" font-size="10px">若</text>
<text transform="matrix(1 0 0 1 190.0758 22.6689)" font-family="'KaiTi'" font-size="10px">我</text>
<text transform="matrix(1 0 0 1 200.0758 22.6689)" font-family="'KaiTi'" font-size="10px">成</text>
<text transform="matrix(1 0 0 1 210.0758 22.6689)" font-family="'KaiTi'" font-size="10px">佛</text>
<text transform="matrix(1 0 0 1 7.535553e-02 36.6689)" font-family="'KaiTi'" font-size="10px">十</text>
<text transform="matrix(1 0 0 1 10.0754 36.6689)" font-family="'KaiTi'" font-size="10px">方</text>
<text transform="matrix(1 0 0 1 20.0754 36.6689)" font-family="'KaiTi'" font-size="10px">众</text>
<text transform="matrix(1 0 0 1 30.0758 36.6689)" font-family="'KaiTi'" font-size="10px">生</text>
<text transform="matrix(1 0 0 1 40.0758 36.6689)" font-family="'KaiTi'" font-size="10px"> </text>
<text transform="matrix(1 0 0 1 50.0758 36.6689)" font-family="'KaiTi'" font-size="10px"> </text>
<text transform="matrix(1 0 0 1 55.0758 36.6689)" font-family="'KaiTi'" font-size="10px"> </text>
<text transform="matrix(1 0 0 1 60.0758 36.6689)" font-family="'KaiTi'" font-size="10px">十</text>
<text transform="matrix(1 0 0 1 70.0758 36.6689)" font-family="'KaiTi'" font-size="10px">方</text>
<text transform="matrix(1 0 0 1 80.0758 36.6689)" font-family="'KaiTi'" font-size="10px">众</text>
<text transform="matrix(1 0 0 1 90.0758 36.6689)" font-family="'KaiTi'" font-size="10px">生</text>
<text transform="matrix(1 0 0 1 100.0758 36.6689)" font-family="'KaiTi'" font-size="10px"> </text>
<text transform="matrix(1 0 0 1 105.0758 36.6689)" font-family="'KaiTi'" font-size="10px"> </text>
<text transform="matrix(1 0 0 1 115.0758 36.6689)" font-family="'KaiTi'" font-size="10px"> </text>
<text transform="matrix(1 0 0 1 120.0758 36.6689)" font-family="'KaiTi'" font-size="10px">十</text>
<text transform="matrix(1 0 0 1 130.0758 36.6689)" font-family="'KaiTi'" font-size="10px">方</text>
<text transform="matrix(1 0 0 1 140.0758 36.6689)" font-family="'KaiTi'" font-size="10px">众</text>
<text transform="matrix(1 0 0 1 150.0758 36.6689)" font-family="'KaiTi'" font-size="10px">生</text>
<text transform="matrix(1 0 0 1 160.0758 36.6689)" font-family="'KaiTi'" font-size="10px"> </text>
<text transform="matrix(1 0 0 1 165.0758 36.6689)" font-family="'KaiTi'" font-size="10px"> </text>
<text transform="matrix(1 0 0 1 175.0758 36.6689)" font-family="'KaiTi'" font-size="10px"> </text>
<text transform="matrix(1 0 0 1 180.0758 36.6689)" font-family="'KaiTi'" font-size="10px">十</text>
<text transform="matrix(1 0 0 1 190.0758 36.6689)" font-family="'KaiTi'" font-size="10px">方</text>
<text transform="matrix(1 0 0 1 200.0758 36.6689)" font-family="'KaiTi'" font-size="10px">众</text>
<text transform="matrix(1 0 0 1 210.0758 36.6689)" font-family="'KaiTi'" font-size="10px">生</text>
<text transform="matrix(1 0 0 1 7.535553e-02 50.6689)" font-family="'KaiTi'" font-size="10px">至</text>
<text transform="matrix(1 0 0 1 10.0754 50.6689)" font-family="'KaiTi'" font-size="10px">心</text>
<text transform="matrix(1 0 0 1 20.0754 50.6689)" font-family="'KaiTi'" font-size="10px">信</text>
<text transform="matrix(1 0 0 1 30.0758 50.6689)" font-family="'KaiTi'" font-size="10px">乐</text>
<text transform="matrix(1 0 0 1 40.0758 50.6689)" font-family="'KaiTi'" font-size="10px"> </text>
<text transform="matrix(1 0 0 1 45.0758 50.6689)" font-family="'KaiTi'" font-size="10px"> </text>
<text transform="matrix(1 0 0 1 55.0758 50.6689)" font-family="'KaiTi'" font-size="10px"> </text>
<text transform="matrix(1 0 0 1 60.0758 50.6689)" font-family="'KaiTi'" font-size="10px">称</text>
<text transform="matrix(1 0 0 1 70.0758 50.6689)" font-family="'KaiTi'" font-size="10px">我</text>
<text transform="matrix(1 0 0 1 80.0758 50.6689)" font-family="'KaiTi'" font-size="10px">名</text>
<text transform="matrix(1 0 0 1 90.0758 50.6689)" font-family="'KaiTi'" font-size="10px">号</text>
<text transform="matrix(1 0 0 1 100.0758 50.6689)" font-family="'KaiTi'" font-size="10px"> </text>
<text transform="matrix(1 0 0 1 105.0758 50.6689)" font-family="'KaiTi'" font-size="10px"> </text>
<text transform="matrix(1 0 0 1 115.0758 50.6689)" font-family="'KaiTi'" font-size="10px"> </text>
<text transform="matrix(1 0 0 1 120.0758 50.6689)" font-family="'KaiTi'" font-size="10px">愿</text>
<text transform="matrix(1 0 0 1 130.0758 50.6689)" font-family="'KaiTi'" font-size="10px">生</text>
<text transform="matrix(1 0 0 1 140.0758 50.6689)" font-family="'KaiTi'" font-size="10px">我</text>
<text transform="matrix(1 0 0 1 150.0758 50.6689)" font-family="'KaiTi'" font-size="10px">国</text>
<text transform="matrix(1 0 0 1 7.535553e-02 57.6689)" font-family="'KaiTi'" font-size="10px"> </text>
<text transform="matrix(1 0 0 1 10.0754 57.6689)" font-family="'KaiTi'" font-size="10px"> </text>
<text transform="matrix(1 0 0 1 20.0754 57.6689)" font-family="'KaiTi'" font-size="10px"> </text>
<text transform="matrix(1 0 0 1 30.0758 57.6689)" font-family="'KaiTi'" font-size="10px"> </text>
<text transform="matrix(1 0 0 1 40.0758 57.6689)" font-family="'KaiTi'" font-size="10px"> </text>
<text transform="matrix(1 0 0 1 50.0758 57.6689)" font-family="'KaiTi'" font-size="10px"> </text>
<text transform="matrix(1 0 0 1 7.535553e-02 64.6689)" font-family="'KaiTi'" font-size="10px">欲</text>
<text transform="matrix(1 0 0 1 10.0754 64.6689)" font-family="'KaiTi'" font-size="10px">生</text>
<text transform="matrix(1 0 0 1 20.0754 64.6689)" font-family="'KaiTi'" font-size="10px">我</text>
<text transform="matrix(1 0 0 1 30.0758 64.6689)" font-family="'KaiTi'" font-size="10px">国</text>
<text transform="matrix(1 0 0 1 40.0758 64.6689)" font-family="'KaiTi'" font-size="10px"> </text>
<text transform="matrix(1 0 0 1 45.0758 64.6689)" font-family="'KaiTi'" font-size="10px"> </text>
<text transform="matrix(1 0 0 1 55.0758 64.6689)" font-family="'KaiTi'" font-size="10px"> </text>
<text transform="matrix(1 0 0 1 60.0758 64.6689)" font-family="'KaiTi'" font-size="10px">愿</text>
<text transform="matrix(1 0 0 1 70.0758 64.6689)" font-family="'KaiTi'" font-size="10px">生</text>
<text transform="matrix(1 0 0 1 80.0758 64.6689)" font-family="'KaiTi'" font-size="10px">我</text>
<text transform="matrix(1 0 0 1 90.0758 64.6689)" font-family="'KaiTi'" font-size="10px">国</text>
<text transform="matrix(1 0 0 1 100.0758 64.6689)" font-family="'KaiTi'" font-size="10px"> </text>
<text transform="matrix(1 0 0 1 105.0758 64.6689)" font-family="'KaiTi'" font-size="10px"> </text>
<text transform="matrix(1 0 0 1 115.0758 64.6689)" font-family="'KaiTi'" font-size="10px"> </text>
<text transform="matrix(1 0 0 1 120.0758 64.6689)" font-family="'KaiTi'" font-size="10px">称</text>
<text transform="matrix(1 0 0 1 130.0758 64.6689)" font-family="'KaiTi'" font-size="10px">我</text>
<text transform="matrix(1 0 0 1 140.0758 64.6689)" font-family="'KaiTi'" font-size="10px">名</text>
<text transform="matrix(1 0 0 1 150.0758 64.6689)" font-family="'KaiTi'" font-size="10px">字</text>
<text transform="matrix(1 0 0 1 160.0758 64.6689)" font-family="'KaiTi'" font-size="10px"> </text>
<text transform="matrix(1 0 0 1 165.0758 64.6689)" font-family="'KaiTi'" font-size="10px"> </text>
<text transform="matrix(1 0 0 1 175.0758 64.6689)" font-family="'KaiTi'" font-size="10px"> </text>
<text transform="matrix(1 0 0 1 180.0758 64.6689)" font-family="'KaiTi'" font-size="10px">称</text>
<text transform="matrix(1 0 0 1 190.0758 64.6689)" font-family="'KaiTi'" font-size="10px">我</text>
<text transform="matrix(1 0 0 1 200.0758 64.6689)" font-family="'KaiTi'" font-size="10px">名</text>
<text transform="matrix(1 0 0 1 210.0758 64.6689)" font-family="'KaiTi'" font-size="10px">号</text>
<text transform="matrix(1 0 0 1 7.535553e-02 78.6689)" font-family="'KaiTi'" font-size="10px"> </text>
<text transform="matrix(1 0 0 1 10.0754 78.6689)" font-family="'KaiTi'" font-size="10px"> </text>
<text transform="matrix(1 0 0 1 20.0754 78.6689)" font-family="'KaiTi'" font-size="10px"> </text>
<text transform="matrix(1 0 0 1 30.0758 78.6689)" font-family="'KaiTi'" font-size="10px"> </text>
<text transform="matrix(1 0 0 1 40.0758 78.6689)" font-family="'KaiTi'" font-size="10px"> </text>
<text transform="matrix(1 0 0 1 50.0758 78.6689)" font-family="'KaiTi'" font-size="10px"> </text>
<text transform="matrix(1 0 0 1 55.0758 78.6689)" font-family="'KaiTi'" font-size="10px"> </text>
<text transform="matrix(1 0 0 1 65.0758 78.6689)" font-family="'KaiTi'" font-size="10px"> </text>
<text transform="matrix(1 0 0 1 75.0758 78.6689)" font-family="'KaiTi'" font-size="10px"> </text>
<text transform="matrix(1 0 0 1 85.0758 78.6689)" font-family="'KaiTi'" font-size="10px"> </text>
<text transform="matrix(1 0 0 1 95.0758 78.6689)" font-family="'KaiTi'" font-size="10px"> </text>
<text transform="matrix(1 0 0 1 105.0758 78.6689)" font-family="'KaiTi'" font-size="10px"> </text>
<text transform="matrix(1 0 0 1 110.0758 78.6689)" font-family="'KaiTi'" font-size="10px"> </text>
<text transform="matrix(1 0 0 1 115.0758 78.6689)" font-family="'KaiTi'" font-size="10px"> </text>
<text transform="matrix(1 0 0 1 120.0758 78.6689)" font-family="'KaiTi'" font-size="10px">下</text>
<text transform="matrix(1 0 0 1 130.0758 78.6689)" font-family="'KaiTi'" font-size="10px">至</text>
<text transform="matrix(1 0 0 1 140.0758 78.6689)" font-family="'KaiTi'" font-size="10px">十</text>
<text transform="matrix(1 0 0 1 150.0758 78.6689)" font-family="'KaiTi'" font-size="10px">声</text>
<text transform="matrix(1 0 0 1 7.535553e-02 85.6689)" font-family="'KaiTi'" font-size="10px">乃</text>
<text transform="matrix(1 0 0 1 10.0754 85.6689)" font-family="'KaiTi'" font-size="10px">至</text>
<text transform="matrix(1 0 0 1 20.0754 85.6689)" font-family="'KaiTi'" font-size="10px">十</text>
<text transform="matrix(1 0 0 1 30.0758 85.6689)" font-family="'KaiTi'" font-size="10px">念</text>
<text transform="matrix(1 0 0 1 40.0758 85.6689)" font-family="'KaiTi'" font-size="10px"> </text>
<text transform="matrix(1 0 0 1 50.0758 85.6689)" font-family="'KaiTi'" font-size="10px"> </text>
<text transform="matrix(1 0 0 1 55.0758 85.6689)" font-family="'KaiTi'" font-size="10px"> </text>
<text transform="matrix(1 0 0 1 60.0758 85.6689)" font-family="'KaiTi'" font-size="10px">下</text>
<text transform="matrix(1 0 0 1 70.0758 85.6689)" font-family="'KaiTi'" font-size="10px">至</text>
<text transform="matrix(1 0 0 1 80.0758 85.6689)" font-family="'KaiTi'" font-size="10px">十</text>
<text transform="matrix(1 0 0 1 90.0758 85.6689)" font-family="'KaiTi'" font-size="10px">念</text>
<text transform="matrix(1 0 0 1 100.0758 85.6689)" font-family="'KaiTi'" font-size="10px"> </text>
<text transform="matrix(1 0 0 1 110.0758 85.6689)" font-family="'KaiTi'" font-size="10px"> </text>
<text transform="matrix(1 0 0 1 115.0758 85.6689)" font-family="'KaiTi'" font-size="10px"> </text>
<text transform="matrix(1 0 0 1 125.0758 85.6689)" font-family="'KaiTi'" font-size="10px"> </text>
<text transform="matrix(1 0 0 1 135.0758 85.6689)" font-family="'KaiTi'" font-size="10px"> </text>
<text transform="matrix(1 0 0 1 145.0758 85.6689)" font-family="'KaiTi'" font-size="10px"> </text>
<text transform="matrix(1 0 0 1 155.0758 85.6689)" font-family="'KaiTi'" font-size="10px"> </text>
<text transform="matrix(1 0 0 1 165.0758 85.6689)" font-family="'KaiTi'" font-size="10px"> </text>
<text transform="matrix(1 0 0 1 170.0758 85.6689)" font-family="'KaiTi'" font-size="10px"> </text>
<text transform="matrix(1 0 0 1 175.0758 85.6689)" font-family="'KaiTi'" font-size="10px"> </text>
<text transform="matrix(1 0 0 1 180.0758 85.6689)" font-family="'KaiTi'" font-size="10px">下</text>
<text transform="matrix(1 0 0 1 190.0758 85.6689)" font-family="'KaiTi'" font-size="10px">至</text>
<text transform="matrix(1 0 0 1 200.0758 85.6689)" font-family="'KaiTi'" font-size="10px">十</text>
<text transform="matrix(1 0 0 1 210.0758 85.6689)" font-family="'KaiTi'" font-size="10px">声</text>
<text transform="matrix(1 0 0 1 7.535553e-02 92.6689)" font-family="'KaiTi'" font-size="10px"> </text>
<text transform="matrix(1 0 0 1 10.0754 92.6689)" font-family="'KaiTi'" font-size="10px"> </text>
<text transform="matrix(1 0 0 1 20.0754 92.6689)" font-family="'KaiTi'" font-size="10px"> </text>
<text transform="matrix(1 0 0 1 30.0758 92.6689)" font-family="'KaiTi'" font-size="10px"> </text>
<text transform="matrix(1 0 0 1 40.0758 92.6689)" font-family="'KaiTi'" font-size="10px"> </text>
<text transform="matrix(1 0 0 1 50.0758 92.6689)" font-family="'KaiTi'" font-size="10px"> </text>
<text transform="matrix(1 0 0 1 55.0758 92.6689)" font-family="'KaiTi'" font-size="10px"> </text>
<text transform="matrix(1 0 0 1 65.0758 92.6689)" font-family="'KaiTi'" font-size="10px"> </text>
<text transform="matrix(1 0 0 1 75.0758 92.6689)" font-family="'KaiTi'" font-size="10px"> </text>
<text transform="matrix(1 0 0 1 85.0758 92.6689)" font-family="'KaiTi'" font-size="10px"> </text>
<text transform="matrix(1 0 0 1 95.0758 92.6689)" font-family="'KaiTi'" font-size="10px"> </text>
<text transform="matrix(1 0 0 1 105.0758 92.6689)" font-family="'KaiTi'" font-size="10px"> </text>
<text transform="matrix(1 0 0 1 110.0758 92.6689)" font-family="'KaiTi'" font-size="10px"> </text>
<text transform="matrix(1 0 0 1 115.0758 92.6689)" font-family="'KaiTi'" font-size="10px"> </text>
<text transform="matrix(1 0 0 1 120.0758 92.6689)" font-family="'KaiTi'" font-size="10px">乘</text>
<text transform="matrix(1 0 0 1 130.0758 92.6689)" font-family="'KaiTi'" font-size="10px">我</text>
<text transform="matrix(1 0 0 1 140.0758 92.6689)" font-family="'KaiTi'" font-size="10px">愿</text>
<text transform="matrix(1 0 0 1 150.0758 92.6689)" font-family="'KaiTi'" font-size="10px">力</text>
<text transform="matrix(1 0 0 1 7.535553e-02 99.6689)" font-family="'KaiTi'" font-size="10px"> </text>
<text transform="matrix(1 0 0 1 10.0754 99.6689)" font-family="'KaiTi'" font-size="10px"> </text>
<text transform="matrix(1 0 0 1 20.0754 99.6689)" font-family="'KaiTi'" font-size="10px"> </text>
<text transform="matrix(1 0 0 1 30.0758 99.6689)" font-family="'KaiTi'" font-size="10px"> </text>
<text transform="matrix(1 0 0 1 40.0758 99.6689)" font-family="'KaiTi'" font-size="10px"> </text>
<text transform="matrix(1 0 0 1 50.0758 99.6689)" font-family="'KaiTi'" font-size="10px"> </text>
<text transform="matrix(1 0 0 1 7.535553e-02 106.6689)" font-family="'KaiTi'" font-size="10px">若</text>
<text transform="matrix(1 0 0 1 10.0754 106.6689)" font-family="'KaiTi'" font-size="10px">不</text>
<text transform="matrix(1 0 0 1 20.0754 106.6689)" font-family="'KaiTi'" font-size="10px">生</text>
<text transform="matrix(1 0 0 1 30.0758 106.6689)" font-family="'KaiTi'" font-size="10px">者</text>
<text transform="matrix(1 0 0 1 40.0758 106.6689)" font-family="'KaiTi'" font-size="10px"> </text>
<text transform="matrix(1 0 0 1 45.0758 106.6689)" font-family="'KaiTi'" font-size="10px"> </text>
<text transform="matrix(1 0 0 1 55.0758 106.6689)" font-family="'KaiTi'" font-size="10px"> </text>
<text transform="matrix(1 0 0 1 60.0758 106.6689)" font-family="'KaiTi'" font-size="10px">若</text>
<text transform="matrix(1 0 0 1 70.0758 106.6689)" font-family="'KaiTi'" font-size="10px">不</text>
<text transform="matrix(1 0 0 1 80.0758 106.6689)" font-family="'KaiTi'" font-size="10px">生</text>
<text transform="matrix(1 0 0 1 90.0758 106.6689)" font-family="'KaiTi'" font-size="10px">者</text>
<text transform="matrix(1 0 0 1 100.0758 106.6689)" font-family="'KaiTi'" font-size="10px"> </text>
<text transform="matrix(1 0 0 1 110.0758 106.6689)" font-family="'KaiTi'" font-size="10px"> </text>
<text transform="matrix(1 0 0 1 115.0758 106.6689)" font-family="'KaiTi'" font-size="10px"> </text>
<text transform="matrix(1 0 0 1 120.0758 106.6689)" font-family="'KaiTi'" font-size="10px">若</text>
<text transform="matrix(1 0 0 1 130.0758 106.6689)" font-family="'KaiTi'" font-size="10px">不</text>
<text transform="matrix(1 0 0 1 140.0758 106.6689)" font-family="'KaiTi'" font-size="10px">生</text>
<text transform="matrix(1 0 0 1 150.0758 106.6689)" font-family="'KaiTi'" font-size="10px">者</text>
<text transform="matrix(1 0 0 1 160.0758 106.6689)" font-family="'KaiTi'" font-size="10px"> </text>
<text transform="matrix(1 0 0 1 170.0758 106.6689)" font-family="'KaiTi'" font-size="10px"> </text>
<text transform="matrix(1 0 0 1 175.0758 106.6689)" font-family="'KaiTi'" font-size="10px"> </text>
<text transform="matrix(1 0 0 1 180.0758 106.6689)" font-family="'KaiTi'" font-size="10px">若</text>
<text transform="matrix(1 0 0 1 190.0758 106.6689)" font-family="'KaiTi'" font-size="10px">不</text>
<text transform="matrix(1 0 0 1 200.0758 106.6689)" font-family="'KaiTi'" font-size="10px">生</text>
<text transform="matrix(1 0 0 1 210.0758 106.6689)" font-family="'KaiTi'" font-size="10px">者</text>
<text transform="matrix(1 0 0 1 7.535553e-02 113.6689)" font-family="'KaiTi'" font-size="10px"> </text>
<text transform="matrix(1 0 0 1 10.0754 113.6689)" font-family="'KaiTi'" font-size="10px"> </text>
<text transform="matrix(1 0 0 1 20.0754 113.6689)" font-family="'KaiTi'" font-size="10px"> </text>
<text transform="matrix(1 0 0 1 30.0758 113.6689)" font-family="'KaiTi'" font-size="10px"> </text>
<text transform="matrix(1 0 0 1 40.0758 113.6689)" font-family="'KaiTi'" font-size="10px"> </text>
<text transform="matrix(1 0 0 1 50.0758 113.6689)" font-family="'KaiTi'" font-size="10px"> </text>
<text transform="matrix(1 0 0 1 7.535553e-02 120.6689)" font-family="'KaiTi'" font-size="10px">不</text>
<text transform="matrix(1 0 0 1 10.0754 120.6689)" font-family="'KaiTi'" font-size="10px">取</text>
<text transform="matrix(1 0 0 1 20.0754 120.6689)" font-family="'KaiTi'" font-size="10px">正</text>
<text transform="matrix(1 0 0 1 30.0758 120.6689)" font-family="'KaiTi'" font-size="10px">觉</text>
<text transform="matrix(1 0 0 1 40.0758 120.6689)" font-family="'KaiTi'" font-size="10px"> </text>
<text transform="matrix(1 0 0 1 50.0758 120.6689)" font-family="'KaiTi'" font-size="10px"> </text>
<text transform="matrix(1 0 0 1 55.0758 120.6689)" font-family="'KaiTi'" font-size="10px"> </text>
<text transform="matrix(1 0 0 1 60.0758 120.6689)" font-family="'KaiTi'" font-size="10px">不</text>
<text transform="matrix(1 0 0 1 70.0758 120.6689)" font-family="'KaiTi'" font-size="10px">取</text>
<text transform="matrix(1 0 0 1 80.0758 120.6689)" font-family="'KaiTi'" font-size="10px">正</text>
<text transform="matrix(1 0 0 1 90.0758 120.6689)" font-family="'KaiTi'" font-size="10px">觉</text>
<text transform="matrix(1 0 0 1 100.0758 120.6689)" font-family="'KaiTi'" font-size="10px"> </text>
<text transform="matrix(1 0 0 1 110.0758 120.6689)" font-family="'KaiTi'" font-size="10px"> </text>
<text transform="matrix(1 0 0 1 115.0758 120.6689)" font-family="'KaiTi'" font-size="10px"> </text>
<text transform="matrix(1 0 0 1 120.0758 120.6689)" font-family="'KaiTi'" font-size="10px">不</text>
<text transform="matrix(1 0 0 1 130.0758 120.6689)" font-family="'KaiTi'" font-size="10px">取</text>
<text transform="matrix(1 0 0 1 140.0758 120.6689)" font-family="'KaiTi'" font-size="10px">正</text>
<text transform="matrix(1 0 0 1 150.0758 120.6689)" font-family="'KaiTi'" font-size="10px">觉</text>
<text transform="matrix(1 0 0 1 160.0758 120.6689)" font-family="'KaiTi'" font-size="10px"> </text>
<text transform="matrix(1 0 0 1 170.0758 120.6689)" font-family="'KaiTi'" font-size="10px"> </text>
<text transform="matrix(1 0 0 1 175.0758 120.6689)" font-family="'KaiTi'" font-size="10px"> </text>
<text transform="matrix(1 0 0 1 180.0758 120.6689)" font-family="'KaiTi'" font-size="10px">不</text>
<text transform="matrix(1 0 0 1 190.0758 120.6689)" font-family="'KaiTi'" font-size="10px">取</text>
<text transform="matrix(1 0 0 1 200.0758 120.6689)" font-family="'KaiTi'" font-size="10px">正</text>
<text transform="matrix(1 0 0 1 210.0758 120.6689)" font-family="'KaiTi'" font-size="10px">觉</text>
<line fill="none" stroke="#000000" stroke-width="0.5" stroke-miterlimit="10" x1="43.8" y1="19" x2="56.3" y2="19"/>
<line fill="none" stroke="#000000" stroke-width="0.5" stroke-miterlimit="10" x1="43.8" y1="32.9" x2="56.3" y2="32.9"/>
<line fill="none" stroke="#000000" stroke-width="0.5" stroke-miterlimit="10" x1="43.8" y1="46.8" x2="56.3" y2="46.8"/>
<line fill="none" stroke="#000000" stroke-width="0.5" stroke-miterlimit="10" x1="43.8" y1="60.6" x2="56.3" y2="60.6"/>
<line fill="none" stroke="#000000" stroke-width="0.5" stroke-miterlimit="10" x1="43.8" y1="81.9" x2="56.3" y2="81.9"/>
<line fill="none" stroke="#000000" stroke-width="0.5" stroke-miterlimit="10" x1="43.8" y1="103.1" x2="56.3" y2="103.1"/>
<line fill="none" stroke="#000000" stroke-width="0.5" stroke-miterlimit="10" x1="43.8" y1="117" x2="56.3" y2="117"/>
<line fill="none" stroke="#000000" stroke-width="0.5" stroke-miterlimit="10" x1="103.7" y1="19" x2="116.2" y2="19"/>
<line fill="none" stroke="#000000" stroke-width="0.5" stroke-miterlimit="10" x1="103.7" y1="32.9" x2="116.2" y2="32.9"/>
<line fill="none" stroke="#000000" stroke-width="0.5" stroke-miterlimit="10" x1="103.7" y1="46.8" x2="116.2" y2="60.6"/>
<line fill="none" stroke="#000000" stroke-width="0.5" stroke-miterlimit="10" x1="116.2" y1="46.8" x2="103.7" y2="60.6"/>
<line fill="none" stroke="#000000" stroke-width="0.5" stroke-miterlimit="10" x1="103.7" y1="103.1" x2="116.2" y2="103.1"/>
<line fill="none" stroke="#000000" stroke-width="0.5" stroke-miterlimit="10" x1="103.7" y1="117" x2="116.2" y2="117"/>
<line fill="none" stroke="#000000" stroke-width="0.5" stroke-miterlimit="10" x1="163.9" y1="19" x2="176.5" y2="19"/>
<line fill="none" stroke="#000000" stroke-width="0.5" stroke-miterlimit="10" x1="163.9" y1="32.9" x2="176.5" y2="32.9"/>
<line fill="none" stroke="#000000" stroke-width="0.5" stroke-miterlimit="10" x1="163.9" y1="60.6" x2="176.5" y2="60.6"/>
<line fill="none" stroke="#000000" stroke-width="0.5" stroke-miterlimit="10" x1="163.9" y1="103.1" x2="176.5" y2="103.1"/>
<line fill="none" stroke="#000000" stroke-width="0.5" stroke-miterlimit="10" x1="163.9" y1="117" x2="176.5" y2="117"/>
<line fill="none" stroke="#000000" stroke-width="0.5" stroke-miterlimit="10" x1="163.9" y1="74.5" x2="176.5" y2="81.4"/>
<line fill="none" stroke="#000000" stroke-width="0.5" stroke-miterlimit="10" x1="163.9" y1="88.4" x2="176.5" y2="81.4"/>
<line fill="none" stroke="#000000" stroke-width="0.5" stroke-miterlimit="10" x1="103.7" y1="81.4" x2="116.2" y2="74.5"/>
<line fill="none" stroke="#000000" stroke-width="0.5" stroke-miterlimit="10" x1="116.2" y1="88.4" x2="103.7" y2="81.4"/>
</svg>
