<?xml version="1.0" encoding="utf-8"?>
<!-- Generator: Adobe Illustrator 21.0.0, SVG Export Plug-In . SVG Version: 6.00 Build 0)  -->
<svg version="1.1" baseProfile="tiny" id="图层_1"
	 xmlns="http://www.w3.org/2000/svg" xmlns:xlink="http://www.w3.org/1999/xlink" x="0px" y="0px" viewBox="0 0 422 241.6"
	 overflow="scroll" xml:space="preserve">
<text transform="matrix(1 0 0 1 372.0004 99.5937)" font-family="'KaiTi'" font-size="10px">1.总说</text>
<text transform="matrix(1 0 0 1 372.0004 113.5937)" font-family="'KaiTi'" font-size="10px">2.问答解释</text>
<text transform="matrix(1 0 0 1 372.0004 127.5937)" font-family="'KaiTi'" font-size="10px">1.总论</text>
<text transform="matrix(1 0 0 1 372.0004 141.5937)" font-family="'KaiTi'" font-size="10px">2.引经证</text>
<text transform="matrix(1 0 0 1 263.3336 8.5935)" font-family="'KaiTi'" font-size="10px">(一)比较十方净土</text>
<text transform="matrix(1 0 0 1 263.3336 22.5935)" font-family="'KaiTi'" font-size="10px">(二)义推西方</text>
<text transform="matrix(1 0 0 1 263.3336 36.5935)" font-family="'KaiTi'" font-size="10px">(三)辨经住灭</text>
<text transform="matrix(1 0 0 1 263.3336 50.5935)" font-family="'KaiTi'" font-size="10px">(一)取相对比</text>
<text transform="matrix(1 0 0 1 263.3336 64.5935)" font-family="'KaiTi'" font-size="10px">(二)修道对比</text>
<text transform="matrix(1 0 0 1 263.3336 78.5935)" font-family="'KaiTi'" font-size="10px">(一)引证诸经</text>
<text transform="matrix(1 0 0 1 263.3336 92.5935)" font-family="'KaiTi'" font-size="10px">(二)比较释迦弥陀二佛</text>
<text transform="matrix(1 0 0 1 263.3336 106.5935)" font-family="'KaiTi'" font-size="10px">(三)释往生意</text>
<text transform="matrix(1 0 0 1 263.3336 134.5935)" font-family="'KaiTi'" font-size="10px">(一)比较苦乐与善恶</text>
<text transform="matrix(1 0 0 1 263.3336 148.5935)" font-family="'KaiTi'" font-size="10px">(二)比较寿命</text>
<text transform="matrix(1 0 0 1 263.3336 162.5935)" font-family="'KaiTi'" font-size="10px">(一)引经证</text>
<text transform="matrix(1 0 0 1 263.3336 176.5935)" font-family="'KaiTi'" font-size="10px">(二)释回向</text>
<text transform="matrix(1 0 0 1 263.3336 204.5935)" font-family="'KaiTi'" font-size="10px">(一)依善知识作向西意</text>
<text transform="matrix(1 0 0 1 263.3336 218.5935)" font-family="'KaiTi'" font-size="10px">(二)明净土受生的殊胜</text>
<text transform="matrix(1 0 0 1 123.0421 57.5935)" font-family="'KaiTi'" font-size="10px">第</text>
<text transform="matrix(1 0 0 1 133.0421 57.5935)" font-family="'KaiTi'" font-size="10px">七</text>
<text transform="matrix(1 0 0 1 143.0421 57.5935)" font-family="'KaiTi'" font-size="10px">大</text>
<text transform="matrix(1 0 0 1 153.0421 57.5935)" font-family="'KaiTi'" font-size="10px">门</text>
<text transform="matrix(1 0 0 1 163.0421 57.5935)" font-family="'DFKaiShu-SB-Estd-BF'" font-size="10px">：</text>
<text transform="matrix(1 0 0 1 173.0421 57.5935)" font-family="'KaiTi'" font-size="10px">对</text>
<text transform="matrix(1 0 0 1 183.0421 57.5935)" font-family="'KaiTi'" font-size="10px"> </text>
<text transform="matrix(1 0 0 1 193.0421 57.5935)" font-family="'KaiTi'" font-size="10px">比</text>
<text transform="matrix(1 0 0 1 203.0421 57.5935)" font-family="'KaiTi'" font-size="10px"> </text>
<text transform="matrix(1 0 0 1 213.0421 57.5935)" font-family="'KaiTi'" font-size="10px">劝</text>
<text transform="matrix(1 0 0 1 223.0421 57.5935)" font-family="'KaiTi'" font-size="10px"> </text>
<text transform="matrix(1 0 0 1 233.0421 57.5935)" font-family="'KaiTi'" font-size="10px">生</text>
<text transform="matrix(1 0 0 1 123.0421 92.5935)" font-family="'KaiTi'" font-size="10px">第</text>
<text transform="matrix(1 0 0 1 133.0421 92.5935)" font-family="'KaiTi'" font-size="10px">八</text>
<text transform="matrix(1 0 0 1 143.0421 92.5935)" font-family="'KaiTi'" font-size="10px">大</text>
<text transform="matrix(1 0 0 1 153.0421 92.5935)" font-family="'KaiTi'" font-size="10px">门</text>
<text transform="matrix(1 0 0 1 163.0421 92.5935)" font-family="'DFKaiShu-SB-Estd-BF'" font-size="10px">：</text>
<text transform="matrix(1 0 0 1 173.0421 92.5935)" font-family="'KaiTi'" font-size="10px">劝</text>
<text transform="matrix(1 0 0 1 183.0421 92.5935)" font-family="'KaiTi'" font-size="10px"> </text>
<text transform="matrix(1 0 0 1 193.0421 92.5935)" font-family="'KaiTi'" font-size="10px">舍</text>
<text transform="matrix(1 0 0 1 203.0421 92.5935)" font-family="'KaiTi'" font-size="10px"> </text>
<text transform="matrix(1 0 0 1 213.0421 92.5935)" font-family="'KaiTi'" font-size="10px">此</text>
<text transform="matrix(1 0 0 1 223.0421 92.5935)" font-family="'KaiTi'" font-size="10px"> </text>
<text transform="matrix(1 0 0 1 233.0421 92.5935)" font-family="'KaiTi'" font-size="10px">土</text>
<text transform="matrix(1 0 0 1 123.0421 106.5935)" font-family="'KaiTi'" font-size="10px"> </text>
<text transform="matrix(1 0 0 1 133.0421 106.5935)" font-family="'KaiTi'" font-size="10px"> </text>
<text transform="matrix(1 0 0 1 143.0421 106.5935)" font-family="'KaiTi'" font-size="10px"> </text>
<text transform="matrix(1 0 0 1 153.0421 106.5935)" font-family="'KaiTi'" font-size="10px"> </text>
<text transform="matrix(1 0 0 1 163.0421 106.5935)" font-family="'KaiTi'" font-size="10px"> </text>
<text transform="matrix(1 0 0 1 173.0421 106.5935)" font-family="'KaiTi'" font-size="10px">求</text>
<text transform="matrix(1 0 0 1 183.0421 106.5935)" font-family="'KaiTi'" font-size="10px"> </text>
<text transform="matrix(1 0 0 1 193.0421 106.5935)" font-family="'KaiTi'" font-size="10px">生</text>
<text transform="matrix(1 0 0 1 203.0421 106.5935)" font-family="'KaiTi'" font-size="10px"> </text>
<text transform="matrix(1 0 0 1 213.0421 106.5935)" font-family="'KaiTi'" font-size="10px">西</text>
<text transform="matrix(1 0 0 1 223.0421 106.5935)" font-family="'KaiTi'" font-size="10px"> </text>
<text transform="matrix(1 0 0 1 233.0421 106.5935)" font-family="'KaiTi'" font-size="10px">方</text>
<text transform="matrix(1 0 0 1 123.0421 141.5935)" font-family="'KaiTi'" font-size="10px">第</text>
<text transform="matrix(1 0 0 1 133.0421 141.5935)" font-family="'KaiTi'" font-size="10px">九</text>
<text transform="matrix(1 0 0 1 143.0421 141.5935)" font-family="'KaiTi'" font-size="10px">大</text>
<text transform="matrix(1 0 0 1 153.0421 141.5935)" font-family="'KaiTi'" font-size="10px">门</text>
<text transform="matrix(1 0 0 1 163.0421 141.5935)" font-family="'DFKaiShu-SB-Estd-BF'" font-size="10px">：</text>
<text transform="matrix(1 0 0 1 173.0421 141.5935)" font-family="'KaiTi'" font-size="10px">比</text>
<text transform="matrix(1 0 0 1 183.0421 141.5935)" font-family="'KaiTi'" font-size="10px">较</text>
<text transform="matrix(1 0 0 1 193.0421 141.5935)" font-family="'KaiTi'" font-size="10px">三</text>
<text transform="matrix(1 0 0 1 203.0421 141.5935)" font-family="'KaiTi'" font-size="10px">种</text>
<text transform="matrix(1 0 0 1 213.0421 141.5935)" font-family="'KaiTi'" font-size="10px">差</text>
<text transform="matrix(1 0 0 1 223.0421 141.5935)" font-family="'KaiTi'" font-size="10px">别</text>
<text transform="matrix(1 0 0 1 123.0421 169.5935)" font-family="'KaiTi'" font-size="10px">第</text>
<text transform="matrix(1 0 0 1 133.0421 169.5935)" font-family="'KaiTi'" font-size="10px">十</text>
<text transform="matrix(1 0 0 1 143.0421 169.5935)" font-family="'KaiTi'" font-size="10px">大</text>
<text transform="matrix(1 0 0 1 153.0421 169.5935)" font-family="'KaiTi'" font-size="10px">门</text>
<text transform="matrix(1 0 0 1 163.0421 169.5935)" font-family="'DFKaiShu-SB-Estd-BF'" font-size="10px">：</text>
<text transform="matrix(1 0 0 1 173.0421 169.5935)" font-family="'KaiTi'" font-size="10px">西</text>
<text transform="matrix(1 0 0 1 183.0421 169.5935)" font-family="'KaiTi'" font-size="10px">方</text>
<text transform="matrix(1 0 0 1 193.0421 169.5935)" font-family="'KaiTi'" font-size="10px">不</text>
<text transform="matrix(1 0 0 1 203.0421 169.5935)" font-family="'KaiTi'" font-size="10px">可</text>
<text transform="matrix(1 0 0 1 213.0421 169.5935)" font-family="'KaiTi'" font-size="10px">思</text>
<text transform="matrix(1 0 0 1 223.0421 169.5935)" font-family="'KaiTi'" font-size="10px">议</text>
<text transform="matrix(1 0 0 1 233.0421 169.5935)" font-family="'DFKaiShu-SB-Estd-BF'" font-size="10px">，</text>
<text transform="matrix(1 0 0 1 123.0421 183.5935)" font-family="'KaiTi'" font-size="10px"> </text>
<text transform="matrix(1 0 0 1 133.0421 183.5935)" font-family="'KaiTi'" font-size="10px"> </text>
<text transform="matrix(1 0 0 1 143.0421 183.5935)" font-family="'KaiTi'" font-size="10px"> </text>
<text transform="matrix(1 0 0 1 153.0421 183.5935)" font-family="'KaiTi'" font-size="10px"> </text>
<text transform="matrix(1 0 0 1 163.0421 183.5935)" font-family="'KaiTi'" font-size="10px"> </text>
<text transform="matrix(1 0 0 1 173.0421 183.5935)" font-family="'KaiTi'" font-size="10px">十</text>
<text transform="matrix(1 0 0 1 183.0421 183.5935)" font-family="'KaiTi'" font-size="10px">方</text>
<text transform="matrix(1 0 0 1 193.0421 183.5935)" font-family="'KaiTi'" font-size="10px">诸</text>
<text transform="matrix(1 0 0 1 203.0421 183.5935)" font-family="'KaiTi'" font-size="10px">佛</text>
<text transform="matrix(1 0 0 1 213.0421 183.5935)" font-family="'KaiTi'" font-size="10px">劝</text>
<text transform="matrix(1 0 0 1 223.0421 183.5935)" font-family="'KaiTi'" font-size="10px">生</text>
<text transform="matrix(1 0 0 1 123.0421 211.5935)" font-family="'KaiTi'" font-size="10px">第</text>
<text transform="matrix(1 0 0 1 133.0421 211.5935)" font-family="'KaiTi'" font-size="10px">十</text>
<text transform="matrix(1 0 0 1 143.0421 211.5935)" font-family="'KaiTi'" font-size="10px">一</text>
<text transform="matrix(1 0 0 1 153.0421 211.5935)" font-family="'KaiTi'" font-size="10px">大</text>
<text transform="matrix(1 0 0 1 163.0421 211.5935)" font-family="'KaiTi'" font-size="10px">门</text>
<text transform="matrix(1 0 0 1 173.0421 211.5935)" font-family="'DFKaiShu-SB-Estd-BF'" font-size="10px">：</text>
<text transform="matrix(1 0 0 1 183.0421 211.5935)" font-family="'KaiTi'" font-size="10px">劝</text>
<text transform="matrix(1 0 0 1 193.0421 211.5935)" font-family="'KaiTi'" font-size="10px">早</text>
<text transform="matrix(1 0 0 1 203.0421 211.5935)" font-family="'KaiTi'" font-size="10px">作</text>
<text transform="matrix(1 0 0 1 213.0421 211.5935)" font-family="'KaiTi'" font-size="10px">生</text>
<text transform="matrix(1 0 0 1 223.0421 211.5935)" font-family="'KaiTi'" font-size="10px">西</text>
<text transform="matrix(1 0 0 1 233.0421 211.5935)" font-family="'KaiTi'" font-size="10px">准</text>
<text transform="matrix(1 0 0 1 243.0421 211.5935)" font-family="'KaiTi'" font-size="10px">备</text>
<text transform="matrix(1 0 0 1 123.0421 239.593)" font-family="'KaiTi'" font-size="10px">第</text>
<text transform="matrix(1 0 0 1 133.0421 239.593)" font-family="'KaiTi'" font-size="10px">十</text>
<text transform="matrix(1 0 0 1 143.0421 239.593)" font-family="'KaiTi'" font-size="10px">二</text>
<text transform="matrix(1 0 0 1 153.0421 239.593)" font-family="'KaiTi'" font-size="10px">大</text>
<text transform="matrix(1 0 0 1 163.0421 239.593)" font-family="'KaiTi'" font-size="10px">门</text>
<text transform="matrix(1 0 0 1 173.0421 239.593)" font-family="'DFKaiShu-SB-Estd-BF'" font-size="10px">：</text>
<text transform="matrix(1 0 0 1 183.0421 239.593)" font-family="'KaiTi'" font-size="10px">引</text>
<text transform="matrix(1 0 0 1 193.0421 239.593)" font-family="'KaiTi'" font-size="10px">经</text>
<text transform="matrix(1 0 0 1 203.0421 239.593)" font-family="'KaiTi'" font-size="10px">说</text>
<text transform="matrix(1 0 0 1 213.0421 239.593)" font-family="'KaiTi'" font-size="10px">明</text>
<text transform="matrix(1 0 0 1 223.0421 239.593)" font-family="'KaiTi'" font-size="10px">往</text>
<text transform="matrix(1 0 0 1 233.0421 239.593)" font-family="'KaiTi'" font-size="10px">生</text>
<text transform="matrix(1 0 0 1 243.0421 239.593)" font-family="'KaiTi'" font-size="10px">行</text>
<text transform="matrix(1 0 0 1 253.0421 239.593)" font-family="'KaiTi'" font-size="10px">业</text>
<text transform="matrix(1 0 0 1 263.0421 239.593)" font-family="'DFKaiShu-SB-Estd-BF'" font-size="10px">，</text>
<text transform="matrix(1 0 0 1 273.0421 239.593)" font-family="'KaiTi'" font-size="10px">普</text>
<text transform="matrix(1 0 0 1 283.0421 239.593)" font-family="'KaiTi'" font-size="10px">愿</text>
<text transform="matrix(1 0 0 1 293.0421 239.593)" font-family="'KaiTi'" font-size="10px">同</text>
<text transform="matrix(1 0 0 1 303.0421 239.593)" font-family="'KaiTi'" font-size="10px">生</text>
<text transform="matrix(1 0 0 1 1.525879e-04 77.667)" font-family="'KaiTi'" font-size="10px">第</text>
<text transform="matrix(1 0 0 1 1.525879e-04 91.667)" font-family="'KaiTi'" font-size="10px">四</text>
<text transform="matrix(1 0 0 1 1.525879e-04 105.667)" font-family="'KaiTi'" font-size="10px">章</text>
<text transform="matrix(1 0 0 1 1.525879e-04 119.667)" font-family="'KaiTi'" font-size="10px">力</text>
<text transform="matrix(1 0 0 1 1.525879e-04 133.667)" font-family="'KaiTi'" font-size="10px">劝</text>
<text transform="matrix(1 0 0 1 1.525879e-04 147.667)" font-family="'KaiTi'" font-size="10px">修</text>
<text transform="matrix(1 0 0 1 1.525879e-04 161.667)" font-family="'KaiTi'" font-size="10px">净</text>
<text transform="matrix(1 0 0 1 1.525879e-04 175.667)" font-family="'KaiTi'" font-size="10px">往</text>
<text transform="matrix(1 0 0 1 1.525879e-04 189.667)" font-family="'KaiTi'" font-size="10px">生</text>
<g>
	<line fill="none" stroke="#000000" stroke-width="0.5" stroke-miterlimit="10" x1="361.5" y1="131" x2="365.1" y2="131"/>
	<line fill="none" stroke="#000000" stroke-width="0.5" stroke-miterlimit="10" x1="365.3" y1="123.3" x2="368.2" y2="123.3"/>
	<line fill="none" stroke="#000000" stroke-width="0.5" stroke-miterlimit="10" x1="365.4" y1="138.8" x2="368.2" y2="138.8"/>
	<line fill="none" stroke="#000000" stroke-width="0.5" stroke-miterlimit="10" x1="365.3" y1="123.3" x2="365.3" y2="138.8"/>
</g>
<g>
	<line fill="none" stroke="#000000" stroke-width="0.5" stroke-miterlimit="10" x1="195.3" y1="19.2" x2="258.5" y2="19.2"/>
	<line fill="none" stroke="#000000" stroke-width="0.5" stroke-miterlimit="10" x1="258.6" y1="5.2" x2="261.5" y2="5.2"/>
	<line fill="none" stroke="#000000" stroke-width="0.5" stroke-miterlimit="10" x1="258.7" y1="33.3" x2="261.5" y2="33.3"/>
	<line fill="none" stroke="#000000" stroke-width="0.5" stroke-miterlimit="10" x1="258.8" y1="5.2" x2="258.8" y2="33.3"/>
</g>
<g>
	<line fill="none" stroke="#000000" stroke-width="0.5" stroke-miterlimit="10" x1="115" y1="110.5" x2="117.9" y2="110.5"/>
	<line fill="none" stroke="#000000" stroke-width="0.5" stroke-miterlimit="10" x1="117.9" y1="53.2" x2="120.8" y2="53.2"/>
	<line fill="none" stroke="#000000" stroke-width="0.5" stroke-miterlimit="10" x1="117.6" y1="166.3" x2="120.4" y2="166.3"/>
	<line fill="none" stroke="#000000" stroke-width="0.5" stroke-miterlimit="10" x1="117.9" y1="53.2" x2="117.9" y2="166.3"/>
</g>
<g>
	<line fill="none" stroke="#000000" stroke-width="0.5" stroke-miterlimit="10" x1="327.8" y1="102.7" x2="365.1" y2="102.7"/>
	<line fill="none" stroke="#000000" stroke-width="0.5" stroke-miterlimit="10" x1="365.7" y1="95" x2="368.6" y2="95"/>
	<line fill="none" stroke="#000000" stroke-width="0.5" stroke-miterlimit="10" x1="365.8" y1="110.5" x2="368.6" y2="110.5"/>
	<line fill="none" stroke="#000000" stroke-width="0.5" stroke-miterlimit="10" x1="365.7" y1="95" x2="365.7" y2="110.5"/>
</g>
<text transform="matrix(1 0 0 1 21.3335 22.5937)" font-family="'KaiTi'" font-size="10px">第</text>
<text transform="matrix(1 0 0 1 31.3335 22.5937)" font-family="'KaiTi'" font-size="10px">一</text>
<text transform="matrix(1 0 0 1 41.3335 22.5937)" font-family="'KaiTi'" font-size="10px">节</text>
<text transform="matrix(1 0 0 1 51.334 22.5937)" font-family="'KaiTi'" font-size="10px">(</text>
<text transform="matrix(1 0 0 1 56.334 22.5937)" font-family="'KaiTi'" font-size="10px">第</text>
<text transform="matrix(1 0 0 1 66.334 22.5937)" font-family="'KaiTi'" font-size="10px">六</text>
<text transform="matrix(1 0 0 1 76.334 22.5937)" font-family="'KaiTi'" font-size="10px">大</text>
<text transform="matrix(1 0 0 1 86.334 22.5937)" font-family="'KaiTi'" font-size="10px">门</text>
<text transform="matrix(1 0 0 1 96.334 22.5937)" font-family="'KaiTi'" font-size="10px">)</text>
<text transform="matrix(1 0 0 1 101.334 22.5937)" font-family="'DFKaiShu-SB-Estd-BF'" font-size="10px">：</text>
<text transform="matrix(1 0 0 1 111.334 22.5937)" font-family="'KaiTi'" font-size="10px">西</text>
<text transform="matrix(1 0 0 1 121.334 22.5937)" font-family="'KaiTi'" font-size="10px">方</text>
<text transform="matrix(1 0 0 1 131.334 22.5937)" font-family="'KaiTi'" font-size="10px">净</text>
<text transform="matrix(1 0 0 1 141.334 22.5937)" font-family="'KaiTi'" font-size="10px">土</text>
<text transform="matrix(1 0 0 1 151.334 22.5937)" font-family="'KaiTi'" font-size="10px">最</text>
<text transform="matrix(1 0 0 1 161.334 22.5937)" font-family="'KaiTi'" font-size="10px">为</text>
<text transform="matrix(1 0 0 1 171.334 22.5937)" font-family="'KaiTi'" font-size="10px">殊</text>
<text transform="matrix(1 0 0 1 181.334 22.5937)" font-family="'KaiTi'" font-size="10px">胜</text>
<text transform="matrix(1 0 0 1 21.3335 113.5937)" font-family="'KaiTi'" font-size="10px">第</text>
<text transform="matrix(1 0 0 1 31.3335 113.5937)" font-family="'KaiTi'" font-size="10px">二</text>
<text transform="matrix(1 0 0 1 41.3335 113.5937)" font-family="'KaiTi'" font-size="10px">节</text>
<text transform="matrix(1 0 0 1 51.334 113.5937)" font-family="'DFKaiShu-SB-Estd-BF'" font-size="10px">：</text>
<text transform="matrix(1 0 0 1 61.334 113.5937)" font-family="'KaiTi'" font-size="10px">比</text>
<text transform="matrix(1 0 0 1 71.334 113.5937)" font-family="'KaiTi'" font-size="10px">较</text>
<text transform="matrix(1 0 0 1 81.334 113.5937)" font-family="'KaiTi'" font-size="10px">此</text>
<text transform="matrix(1 0 0 1 91.334 113.5937)" font-family="'KaiTi'" font-size="10px">界</text>
<text transform="matrix(1 0 0 1 101.334 113.5937)" font-family="'KaiTi'" font-size="10px">与</text>
<text transform="matrix(1 0 0 1 21.3335 127.5937)" font-family="'KaiTi'" font-size="10px"> </text>
<text transform="matrix(1 0 0 1 31.3335 127.5937)" font-family="'KaiTi'" font-size="10px">极</text>
<text transform="matrix(1 0 0 1 41.3335 127.5937)" font-family="'KaiTi'" font-size="10px">乐</text>
<text transform="matrix(1 0 0 1 51.334 127.5937)" font-family="'DFKaiShu-SB-Estd-BF'" font-size="10px">，</text>
<text transform="matrix(1 0 0 1 61.334 127.5937)" font-family="'KaiTi'" font-size="10px">明</text>
<text transform="matrix(1 0 0 1 71.334 127.5937)" font-family="'KaiTi'" font-size="10px">生</text>
<text transform="matrix(1 0 0 1 81.334 127.5937)" font-family="'KaiTi'" font-size="10px">西</text>
<text transform="matrix(1 0 0 1 91.334 127.5937)" font-family="'KaiTi'" font-size="10px">利</text>
<text transform="matrix(1 0 0 1 101.334 127.5937)" font-family="'KaiTi'" font-size="10px">益</text>
<text transform="matrix(1 0 0 1 21.3335 225.5937)" font-family="'KaiTi'" font-size="10px">第</text>
<text transform="matrix(1 0 0 1 31.3335 225.5937)" font-family="'KaiTi'" font-size="10px">三</text>
<text transform="matrix(1 0 0 1 41.3335 225.5937)" font-family="'KaiTi'" font-size="10px">节</text>
<text transform="matrix(1 0 0 1 51.334 225.5937)" font-family="'DFKaiShu-SB-Estd-BF'" font-size="10px">：</text>
<text transform="matrix(1 0 0 1 61.334 225.5937)" font-family="'KaiTi'" font-size="10px">普</text>
<text transform="matrix(1 0 0 1 71.334 225.5937)" font-family="'KaiTi'" font-size="10px">劝</text>
<text transform="matrix(1 0 0 1 81.334 225.5937)" font-family="'KaiTi'" font-size="10px">同</text>
<text transform="matrix(1 0 0 1 91.334 225.5937)" font-family="'KaiTi'" font-size="10px">归</text>
<g>
	<line fill="none" stroke="#000000" stroke-width="0.5" stroke-miterlimit="10" x1="13.4" y1="121.2" x2="16.3" y2="121.2"/>
	<line fill="none" stroke="#000000" stroke-width="0.5" stroke-miterlimit="10" x1="16.3" y1="17.7" x2="19.2" y2="17.7"/>
	<line fill="none" stroke="#000000" stroke-width="0.5" stroke-miterlimit="10" x1="16" y1="222" x2="18.8" y2="222"/>
	<line fill="none" stroke="#000000" stroke-width="0.5" stroke-miterlimit="10" x1="16.3" y1="17.7" x2="16.3" y2="222"/>
</g>
<g>
	<line fill="none" stroke="#000000" stroke-width="0.5" stroke-miterlimit="10" x1="255.9" y1="88.7" x2="258.7" y2="88.7"/>
	<line fill="none" stroke="#000000" stroke-width="0.5" stroke-miterlimit="10" x1="258.5" y1="74.7" x2="261.4" y2="74.7"/>
	<line fill="none" stroke="#000000" stroke-width="0.5" stroke-miterlimit="10" x1="258.6" y1="102.7" x2="261.4" y2="102.7"/>
	<line fill="none" stroke="#000000" stroke-width="0.5" stroke-miterlimit="10" x1="258.7" y1="74.7" x2="258.7" y2="102.7"/>
</g>
<g>
	<line fill="none" stroke="#000000" stroke-width="0.5" stroke-miterlimit="10" x1="255.9" y1="54.3" x2="258.9" y2="54.3"/>
	<line fill="none" stroke="#000000" stroke-width="0.5" stroke-miterlimit="10" x1="258.7" y1="46.7" x2="261.6" y2="46.7"/>
	<line fill="none" stroke="#000000" stroke-width="0.5" stroke-miterlimit="10" x1="258.8" y1="61.5" x2="261.6" y2="61.5"/>
	<line fill="none" stroke="#000000" stroke-width="0.5" stroke-miterlimit="10" x1="258.9" y1="46.7" x2="258.9" y2="61.5"/>
</g>
<g>
	<line fill="none" stroke="#000000" stroke-width="0.5" stroke-miterlimit="10" x1="255.9" y1="137.8" x2="259.3" y2="137.8"/>
	<line fill="none" stroke="#000000" stroke-width="0.5" stroke-miterlimit="10" x1="258.8" y1="130.2" x2="261.7" y2="130.2"/>
	<line fill="none" stroke="#000000" stroke-width="0.5" stroke-miterlimit="10" x1="258.9" y1="145" x2="261.7" y2="145"/>
	<line fill="none" stroke="#000000" stroke-width="0.5" stroke-miterlimit="10" x1="259.1" y1="130.2" x2="259.1" y2="145"/>
</g>
<g>
	<line fill="none" stroke="#000000" stroke-width="0.5" stroke-miterlimit="10" x1="256.1" y1="166.8" x2="258.9" y2="166.8"/>
	<line fill="none" stroke="#000000" stroke-width="0.5" stroke-miterlimit="10" x1="259.1" y1="159.2" x2="262" y2="159.2"/>
	<line fill="none" stroke="#000000" stroke-width="0.5" stroke-miterlimit="10" x1="259.2" y1="174" x2="262" y2="174"/>
	<line fill="none" stroke="#000000" stroke-width="0.5" stroke-miterlimit="10" x1="259.3" y1="159.2" x2="259.3" y2="174"/>
</g>
<g>
	<line fill="none" stroke="#000000" stroke-width="0.5" stroke-miterlimit="10" x1="256.5" y1="208.3" x2="259.4" y2="208.3"/>
	<line fill="none" stroke="#000000" stroke-width="0.5" stroke-miterlimit="10" x1="259.2" y1="200.7" x2="262.1" y2="200.7"/>
	<line fill="none" stroke="#000000" stroke-width="0.5" stroke-miterlimit="10" x1="259.3" y1="215.5" x2="262.1" y2="215.5"/>
	<line fill="none" stroke="#000000" stroke-width="0.5" stroke-miterlimit="10" x1="259.4" y1="200.7" x2="259.4" y2="215.5"/>
</g>
<g>
	<line fill="none" stroke="#000000" stroke-width="0.5" stroke-miterlimit="10" x1="113.8" y1="222" x2="116.5" y2="222"/>
	<line fill="none" stroke="#000000" stroke-width="0.5" stroke-miterlimit="10" x1="116.3" y1="208" x2="119.2" y2="208"/>
	<line fill="none" stroke="#000000" stroke-width="0.5" stroke-miterlimit="10" x1="116.4" y1="236" x2="119.2" y2="236"/>
	<line fill="none" stroke="#000000" stroke-width="0.5" stroke-miterlimit="10" x1="116.5" y1="208" x2="116.5" y2="236"/>
</g>
</svg>
