<?xml version="1.0" encoding="utf-8"?>
<!-- Generator: Adobe Illustrator 21.0.0, SVG Export Plug-In . SVG Version: 6.00 Build 0)  -->
<svg version="1.1" baseProfile="tiny" id="图层_1"
	 xmlns="http://www.w3.org/2000/svg" xmlns:xlink="http://www.w3.org/1999/xlink" x="0px" y="0px" viewBox="0 0 220.3 136.5"
	 overflow="scroll" xml:space="preserve">
<text transform="matrix(1 0 0 1 7.535934e-02 8.6689)" stroke="#000000" stroke-width="0.15" stroke-miterlimit="10" font-family="'KaiTi'" font-size="10px">第</text>
<text transform="matrix(1 0 0 1 10.0754 8.6689)" stroke="#000000" stroke-width="0.15" stroke-miterlimit="10" font-family="'KaiTi'" font-size="10px">十</text>
<text transform="matrix(1 0 0 1 20.0754 8.6689)" stroke="#000000" stroke-width="0.15" stroke-miterlimit="10" font-family="'KaiTi'" font-size="10px">八</text>
<text transform="matrix(1 0 0 1 30.0758 8.6689)" stroke="#000000" stroke-width="0.15" stroke-miterlimit="10" font-family="'KaiTi'" font-size="10px">愿</text>
<text transform="matrix(1 0 0 1 40.0758 8.6689)" font-family="'KaiTi'" font-size="10px"> </text>
<text transform="matrix(1 0 0 1 45.0758 8.6689)" stroke="#000000" stroke-width="0.15" stroke-miterlimit="10" font-family="'KaiTi'" font-size="10px">《</text>
<text transform="matrix(1 0 0 1 55.0758 8.6689)" stroke="#000000" stroke-width="0.15" stroke-miterlimit="10" font-family="'KaiTi'" font-size="10px">观</text>
<text transform="matrix(1 0 0 1 65.0759 8.6689)" stroke="#000000" stroke-width="0.15" stroke-miterlimit="10" font-family="'KaiTi'" font-size="10px">念</text>
<text transform="matrix(1 0 0 1 75.0759 8.6689)" stroke="#000000" stroke-width="0.15" stroke-miterlimit="10" font-family="'KaiTi'" font-size="10px">法</text>
<text transform="matrix(1 0 0 1 85.0759 8.6689)" stroke="#000000" stroke-width="0.15" stroke-miterlimit="10" font-family="'KaiTi'" font-size="10px">门</text>
<text transform="matrix(1 0 0 1 95.0759 8.6689)" stroke="#000000" stroke-width="0.15" stroke-miterlimit="10" font-family="'KaiTi'" font-size="10px">》</text>
<text transform="matrix(1 0 0 1 7.535934e-02 22.6689)" font-family="'KaiTi'" font-size="10px">设</text>
<text transform="matrix(1 0 0 1 10.0754 22.6689)" font-family="'KaiTi'" font-size="10px">我</text>
<text transform="matrix(1 0 0 1 20.0754 22.6689)" font-family="'KaiTi'" font-size="10px">得</text>
<text transform="matrix(1 0 0 1 30.0758 22.6689)" font-family="'KaiTi'" font-size="10px">佛</text>
<text transform="matrix(1 0 0 1 40.0758 22.6689)" font-family="'KaiTi'" font-size="10px"> </text>
<text transform="matrix(1 0 0 1 50.0758 22.6689)" font-family="'KaiTi'" font-size="10px"> </text>
<text transform="matrix(1 0 0 1 55.0758 22.6689)" font-family="'KaiTi'" font-size="10px">若</text>
<text transform="matrix(1 0 0 1 65.0759 22.6689)" font-family="'KaiTi'" font-size="10px">我</text>
<text transform="matrix(1 0 0 1 75.0759 22.6689)" font-family="'KaiTi'" font-size="10px">成</text>
<text transform="matrix(1 0 0 1 85.0759 22.6689)" font-family="'KaiTi'" font-size="10px">佛</text>
<text transform="matrix(1 0 0 1 7.535934e-02 36.6689)" font-family="'KaiTi'" font-size="10px">十</text>
<text transform="matrix(1 0 0 1 10.0754 36.6689)" font-family="'KaiTi'" font-size="10px">方</text>
<text transform="matrix(1 0 0 1 20.0754 36.6689)" font-family="'KaiTi'" font-size="10px">众</text>
<text transform="matrix(1 0 0 1 30.0758 36.6689)" font-family="'KaiTi'" font-size="10px">生</text>
<text transform="matrix(1 0 0 1 40.0758 36.6689)" font-family="'KaiTi'" font-size="10px"> </text>
<text transform="matrix(1 0 0 1 50.0758 36.6689)" font-family="'KaiTi'" font-size="10px"> </text>
<text transform="matrix(1 0 0 1 55.0758 36.6689)" font-family="'KaiTi'" font-size="10px">十</text>
<text transform="matrix(1 0 0 1 65.0759 36.6689)" font-family="'KaiTi'" font-size="10px">方</text>
<text transform="matrix(1 0 0 1 75.0759 36.6689)" font-family="'KaiTi'" font-size="10px">众</text>
<text transform="matrix(1 0 0 1 85.0759 36.6689)" font-family="'KaiTi'" font-size="10px">生</text>
<text transform="matrix(1 0 0 1 7.535934e-02 50.6689)" font-family="'KaiTi'" font-size="10px">至</text>
<text transform="matrix(1 0 0 1 10.0754 50.6689)" font-family="'KaiTi'" font-size="10px">心</text>
<text transform="matrix(1 0 0 1 20.0754 50.6689)" font-family="'KaiTi'" font-size="10px">信</text>
<text transform="matrix(1 0 0 1 30.0758 50.6689)" font-family="'KaiTi'" font-size="10px">乐</text>
<text transform="matrix(1 0 0 1 7.535934e-02 57.6689)" font-family="'KaiTi'" font-size="10px"> </text>
<text transform="matrix(1 0 0 1 10.0754 57.6689)" font-family="'KaiTi'" font-size="10px"> </text>
<text transform="matrix(1 0 0 1 20.0754 57.6689)" font-family="'KaiTi'" font-size="10px"> </text>
<text transform="matrix(1 0 0 1 30.0758 57.6689)" font-family="'KaiTi'" font-size="10px"> </text>
<text transform="matrix(1 0 0 1 40.0758 57.6689)" font-family="'KaiTi'" font-size="10px"> </text>
<text transform="matrix(1 0 0 1 50.0758 57.6689)" font-family="'KaiTi'" font-size="10px"> </text>
<text transform="matrix(1 0 0 1 55.0758 57.6689)" font-family="'KaiTi'" font-size="10px">愿</text>
<text transform="matrix(1 0 0 1 65.0759 57.6689)" font-family="'KaiTi'" font-size="10px">生</text>
<text transform="matrix(1 0 0 1 75.0759 57.6689)" font-family="'KaiTi'" font-size="10px">我</text>
<text transform="matrix(1 0 0 1 85.0759 57.6689)" font-family="'KaiTi'" font-size="10px">国</text>
<text transform="matrix(1 0 0 1 7.535934e-02 64.6689)" font-family="'KaiTi'" font-size="10px">欲</text>
<text transform="matrix(1 0 0 1 10.0754 64.6689)" font-family="'KaiTi'" font-size="10px">生</text>
<text transform="matrix(1 0 0 1 20.0754 64.6689)" font-family="'KaiTi'" font-size="10px">我</text>
<text transform="matrix(1 0 0 1 30.0758 64.6689)" font-family="'KaiTi'" font-size="10px">国</text>
<text transform="matrix(1 0 0 1 7.535934e-02 78.6689)" font-family="'KaiTi'" font-size="10px"> </text>
<text transform="matrix(1 0 0 1 10.0754 78.6689)" font-family="'KaiTi'" font-size="10px"> </text>
<text transform="matrix(1 0 0 1 20.0754 78.6689)" font-family="'KaiTi'" font-size="10px"> </text>
<text transform="matrix(1 0 0 1 30.0758 78.6689)" font-family="'KaiTi'" font-size="10px"> </text>
<text transform="matrix(1 0 0 1 40.0758 78.6689)" font-family="'KaiTi'" font-size="10px"> </text>
<text transform="matrix(1 0 0 1 50.0758 78.6689)" font-family="'KaiTi'" font-size="10px"> </text>
<text transform="matrix(1 0 0 1 55.0758 78.6689)" font-family="'KaiTi'" font-size="10px">称</text>
<text transform="matrix(1 0 0 1 65.0759 78.6689)" font-family="'KaiTi'" font-size="10px">我</text>
<text transform="matrix(1 0 0 1 75.0759 78.6689)" font-family="'KaiTi'" font-size="10px">名</text>
<text transform="matrix(1 0 0 1 85.0759 78.6689)" font-family="'KaiTi'" font-size="10px">字</text>
<text transform="matrix(1 0 0 1 7.535934e-02 85.6689)" font-family="'KaiTi'" font-size="10px">乃</text>
<text transform="matrix(1 0 0 1 10.0754 85.6689)" font-family="'KaiTi'" font-size="10px">至</text>
<text transform="matrix(1 0 0 1 20.0754 85.6689)" font-family="'KaiTi'" font-size="10px">十</text>
<text transform="matrix(1 0 0 1 30.0758 85.6689)" font-family="'KaiTi'" font-size="10px">念</text>
<text transform="matrix(1 0 0 1 7.535934e-02 92.6689)" font-family="'KaiTi'" font-size="10px"> </text>
<text transform="matrix(1 0 0 1 10.0754 92.6689)" font-family="'KaiTi'" font-size="10px"> </text>
<text transform="matrix(1 0 0 1 20.0754 92.6689)" font-family="'KaiTi'" font-size="10px"> </text>
<text transform="matrix(1 0 0 1 30.0758 92.6689)" font-family="'KaiTi'" font-size="10px"> </text>
<text transform="matrix(1 0 0 1 40.0758 92.6689)" font-family="'KaiTi'" font-size="10px"> </text>
<text transform="matrix(1 0 0 1 50.0758 92.6689)" font-family="'KaiTi'" font-size="10px"> </text>
<text transform="matrix(1 0 0 1 55.0758 92.6689)" font-family="'KaiTi'" font-size="10px">下</text>
<text transform="matrix(1 0 0 1 65.0759 92.6689)" font-family="'KaiTi'" font-size="10px">至</text>
<text transform="matrix(1 0 0 1 75.0759 92.6689)" font-family="'KaiTi'" font-size="10px">十</text>
<text transform="matrix(1 0 0 1 85.0759 92.6689)" font-family="'KaiTi'" font-size="10px">声</text>
<text transform="matrix(1 0 0 1 7.535934e-02 106.6689)" font-family="'KaiTi'" font-size="10px"> </text>
<text transform="matrix(1 0 0 1 10.0754 106.6689)" font-family="'KaiTi'" font-size="10px"> </text>
<text transform="matrix(1 0 0 1 20.0754 106.6689)" font-family="'KaiTi'" font-size="10px"> </text>
<text transform="matrix(1 0 0 1 30.0758 106.6689)" font-family="'KaiTi'" font-size="10px"> </text>
<text transform="matrix(1 0 0 1 40.0758 106.6689)" font-family="'KaiTi'" font-size="10px"> </text>
<text transform="matrix(1 0 0 1 50.0758 106.6689)" font-family="'KaiTi'" font-size="10px"> </text>
<text transform="matrix(1 0 0 1 55.0758 106.6689)" font-family="'KaiTi'" font-size="10px">乘</text>
<text transform="matrix(1 0 0 1 65.0759 106.6689)" font-family="'KaiTi'" font-size="10px">我</text>
<text transform="matrix(1 0 0 1 75.0759 106.6689)" font-family="'KaiTi'" font-size="10px">愿</text>
<text transform="matrix(1 0 0 1 85.0759 106.6689)" font-family="'KaiTi'" font-size="10px">力</text>
<text transform="matrix(1 0 0 1 7.535934e-02 113.6689)" font-family="'KaiTi'" font-size="10px">若</text>
<text transform="matrix(1 0 0 1 10.0754 113.6689)" font-family="'KaiTi'" font-size="10px">不</text>
<text transform="matrix(1 0 0 1 20.0754 113.6689)" font-family="'KaiTi'" font-size="10px">生</text>
<text transform="matrix(1 0 0 1 30.0758 113.6689)" font-family="'KaiTi'" font-size="10px">者</text>
<text transform="matrix(1 0 0 1 7.535934e-02 120.6689)" font-family="'KaiTi'" font-size="10px"> </text>
<text transform="matrix(1 0 0 1 10.0754 120.6689)" font-family="'KaiTi'" font-size="10px"> </text>
<text transform="matrix(1 0 0 1 20.0754 120.6689)" font-family="'KaiTi'" font-size="10px"> </text>
<text transform="matrix(1 0 0 1 30.0758 120.6689)" font-family="'KaiTi'" font-size="10px"> </text>
<text transform="matrix(1 0 0 1 40.0758 120.6689)" font-family="'KaiTi'" font-size="10px"> </text>
<text transform="matrix(1 0 0 1 50.0758 120.6689)" font-family="'KaiTi'" font-size="10px"> </text>
<text transform="matrix(1 0 0 1 55.0758 120.6689)" font-family="'KaiTi'" font-size="10px">若</text>
<text transform="matrix(1 0 0 1 65.0759 120.6689)" font-family="'KaiTi'" font-size="10px">不</text>
<text transform="matrix(1 0 0 1 75.0759 120.6689)" font-family="'KaiTi'" font-size="10px">生</text>
<text transform="matrix(1 0 0 1 85.0759 120.6689)" font-family="'KaiTi'" font-size="10px">者</text>
<text transform="matrix(1 0 0 1 7.535934e-02 134.6689)" font-family="'KaiTi'" font-size="10px">不</text>
<text transform="matrix(1 0 0 1 10.0754 134.6689)" font-family="'KaiTi'" font-size="10px">取</text>
<text transform="matrix(1 0 0 1 20.0754 134.6689)" font-family="'KaiTi'" font-size="10px">正</text>
<text transform="matrix(1 0 0 1 30.0758 134.6689)" font-family="'KaiTi'" font-size="10px">觉</text>
<text transform="matrix(1 0 0 1 40.0758 134.6689)" font-family="'KaiTi'" font-size="10px"> </text>
<text transform="matrix(1 0 0 1 50.0758 134.6689)" font-family="'KaiTi'" font-size="10px"> </text>
<text transform="matrix(1 0 0 1 55.0758 134.6689)" font-family="'KaiTi'" font-size="10px">不</text>
<text transform="matrix(1 0 0 1 65.0759 134.6689)" font-family="'KaiTi'" font-size="10px">取</text>
<text transform="matrix(1 0 0 1 75.0759 134.6689)" font-family="'KaiTi'" font-size="10px">正</text>
<text transform="matrix(1 0 0 1 85.0759 134.6689)" font-family="'KaiTi'" font-size="10px">觉</text>
<text transform="matrix(1 0 0 1 95.0759 134.6689)" font-family="'KaiTi'" font-size="10px"> </text>
<text transform="matrix(1 0 0 1 105.0759 134.6689)" font-family="'KaiTi'" font-size="10px"> </text>
<g>
	<line fill="none" stroke="#000000" stroke-width="0.5" stroke-miterlimit="10" x1="51.4" y1="54.2" x2="47.6" y2="54.2"/>
	<line fill="none" stroke="#000000" stroke-width="0.5" stroke-miterlimit="10" x1="47.6" y1="61.1" x2="43.5" y2="61.1"/>
	<line fill="none" stroke="#000000" stroke-width="0.5" stroke-miterlimit="10" x1="47.6" y1="46.9" x2="43.5" y2="46.9"/>
	<line fill="none" stroke="#000000" stroke-width="0.5" stroke-miterlimit="10" x1="47.6" y1="61.3" x2="47.6" y2="46.7"/>
</g>
<g>
	<line fill="none" stroke="#000000" stroke-width="0.5" stroke-miterlimit="10" x1="43.5" y1="82.4" x2="47.6" y2="82.4"/>
	<line fill="none" stroke="#000000" stroke-width="0.5" stroke-miterlimit="10" x1="47.6" y1="75.5" x2="51.4" y2="75.5"/>
	<line fill="none" stroke="#000000" stroke-width="0.5" stroke-miterlimit="10" x1="47.6" y1="89.7" x2="51.4" y2="89.7"/>
	<line fill="none" stroke="#000000" stroke-width="0.5" stroke-miterlimit="10" x1="47.6" y1="75.3" x2="47.6" y2="89.9"/>
</g>
<g>
	<line fill="none" stroke="#000000" stroke-width="0.5" stroke-miterlimit="10" x1="43.7" y1="109.8" x2="47.8" y2="109.8"/>
	<line fill="none" stroke="#000000" stroke-width="0.5" stroke-miterlimit="10" x1="47.8" y1="102.9" x2="51.6" y2="102.9"/>
	<line fill="none" stroke="#000000" stroke-width="0.5" stroke-miterlimit="10" x1="47.8" y1="117.1" x2="51.6" y2="117.1"/>
	<line fill="none" stroke="#000000" stroke-width="0.5" stroke-miterlimit="10" x1="47.8" y1="102.7" x2="47.8" y2="117.3"/>
</g>
<line fill="none" stroke="#000000" stroke-width="0.5" stroke-miterlimit="10" x1="43.7" y1="32.3" x2="51.4" y2="32.3"/>
<line fill="none" stroke="#000000" stroke-width="0.5" stroke-miterlimit="10" x1="43.7" y1="19.1" x2="51.4" y2="19.1"/>
<line fill="none" stroke="#000000" stroke-width="0.5" stroke-miterlimit="10" x1="43.7" y1="130.5" x2="51.4" y2="130.5"/>
<text transform="matrix(1 0 0 1 115.2424 8.6689)" stroke="#000000" stroke-width="0.15" stroke-miterlimit="10" font-family="'KaiTi'" font-size="10px">第</text>
<text transform="matrix(1 0 0 1 125.2424 8.6689)" stroke="#000000" stroke-width="0.15" stroke-miterlimit="10" font-family="'KaiTi'" font-size="10px">十</text>
<text transform="matrix(1 0 0 1 135.2424 8.6689)" stroke="#000000" stroke-width="0.15" stroke-miterlimit="10" font-family="'KaiTi'" font-size="10px">八</text>
<text transform="matrix(1 0 0 1 145.2428 8.6689)" stroke="#000000" stroke-width="0.15" stroke-miterlimit="10" font-family="'KaiTi'" font-size="10px">愿</text>
<text transform="matrix(1 0 0 1 155.2428 8.6689)" font-family="'KaiTi'" font-size="10px"> </text>
<text transform="matrix(1 0 0 1 160.2428 8.6689)" stroke="#000000" stroke-width="0.15" stroke-miterlimit="10" font-family="'KaiTi'" font-size="10px">《</text>
<text transform="matrix(1 0 0 1 170.2428 8.6689)" stroke="#000000" stroke-width="0.15" stroke-miterlimit="10" font-family="'KaiTi'" font-size="10px">往</text>
<text transform="matrix(1 0 0 1 180.2428 8.6689)" stroke="#000000" stroke-width="0.15" stroke-miterlimit="10" font-family="'KaiTi'" font-size="10px">生</text>
<text transform="matrix(1 0 0 1 190.2428 8.6689)" stroke="#000000" stroke-width="0.15" stroke-miterlimit="10" font-family="'KaiTi'" font-size="10px">礼</text>
<text transform="matrix(1 0 0 1 200.2428 8.6689)" stroke="#000000" stroke-width="0.15" stroke-miterlimit="10" font-family="'KaiTi'" font-size="10px">赞</text>
<text transform="matrix(1 0 0 1 210.2428 8.6689)" stroke="#000000" stroke-width="0.15" stroke-miterlimit="10" font-family="'KaiTi'" font-size="10px">》</text>
<text transform="matrix(1 0 0 1 115.2424 22.6689)" font-family="'KaiTi'" font-size="10px">设</text>
<text transform="matrix(1 0 0 1 125.2424 22.6689)" font-family="'KaiTi'" font-size="10px">我</text>
<text transform="matrix(1 0 0 1 135.2424 22.6689)" font-family="'KaiTi'" font-size="10px">得</text>
<text transform="matrix(1 0 0 1 145.2428 22.6689)" font-family="'KaiTi'" font-size="10px">佛</text>
<text transform="matrix(1 0 0 1 155.2428 22.6689)" font-family="'KaiTi'" font-size="10px"> </text>
<text transform="matrix(1 0 0 1 165.2428 22.6689)" font-family="'KaiTi'" font-size="10px"> </text>
<text transform="matrix(1 0 0 1 170.2428 22.6689)" font-family="'KaiTi'" font-size="10px">若</text>
<text transform="matrix(1 0 0 1 180.2428 22.6689)" font-family="'KaiTi'" font-size="10px">我</text>
<text transform="matrix(1 0 0 1 190.2428 22.6689)" font-family="'KaiTi'" font-size="10px">成</text>
<text transform="matrix(1 0 0 1 200.2428 22.6689)" font-family="'KaiTi'" font-size="10px">佛</text>
<text transform="matrix(1 0 0 1 115.2424 36.6689)" font-family="'KaiTi'" font-size="10px">十</text>
<text transform="matrix(1 0 0 1 125.2424 36.6689)" font-family="'KaiTi'" font-size="10px">方</text>
<text transform="matrix(1 0 0 1 135.2424 36.6689)" font-family="'KaiTi'" font-size="10px">众</text>
<text transform="matrix(1 0 0 1 145.2428 36.6689)" font-family="'KaiTi'" font-size="10px">生</text>
<text transform="matrix(1 0 0 1 155.2428 36.6689)" font-family="'KaiTi'" font-size="10px"> </text>
<text transform="matrix(1 0 0 1 165.2428 36.6689)" font-family="'KaiTi'" font-size="10px"> </text>
<text transform="matrix(1 0 0 1 170.2428 36.6689)" font-family="'KaiTi'" font-size="10px">十</text>
<text transform="matrix(1 0 0 1 180.2428 36.6689)" font-family="'KaiTi'" font-size="10px">方</text>
<text transform="matrix(1 0 0 1 190.2428 36.6689)" font-family="'KaiTi'" font-size="10px">众</text>
<text transform="matrix(1 0 0 1 200.2428 36.6689)" font-family="'KaiTi'" font-size="10px">生</text>
<text transform="matrix(1 0 0 1 115.2424 50.6689)" font-family="'KaiTi'" font-size="10px">至</text>
<text transform="matrix(1 0 0 1 125.2424 50.6689)" font-family="'KaiTi'" font-size="10px">心</text>
<text transform="matrix(1 0 0 1 135.2424 50.6689)" font-family="'KaiTi'" font-size="10px">信</text>
<text transform="matrix(1 0 0 1 145.2428 50.6689)" font-family="'KaiTi'" font-size="10px">乐</text>
<text transform="matrix(1 0 0 1 115.2424 57.6689)" font-family="'KaiTi'" font-size="10px"> </text>
<text transform="matrix(1 0 0 1 125.2424 57.6689)" font-family="'KaiTi'" font-size="10px"> </text>
<text transform="matrix(1 0 0 1 135.2424 57.6689)" font-family="'KaiTi'" font-size="10px"> </text>
<text transform="matrix(1 0 0 1 145.2428 57.6689)" font-family="'KaiTi'" font-size="10px"> </text>
<text transform="matrix(1 0 0 1 155.2428 57.6689)" font-family="'KaiTi'" font-size="10px"> </text>
<text transform="matrix(1 0 0 1 165.2428 57.6689)" font-family="'KaiTi'" font-size="10px"> </text>
<text transform="matrix(1 0 0 1 170.2428 57.6689)" font-family="'KaiTi'" font-size="10px">称</text>
<text transform="matrix(1 0 0 1 180.2428 57.6689)" font-family="'KaiTi'" font-size="10px">我</text>
<text transform="matrix(1 0 0 1 190.2428 57.6689)" font-family="'KaiTi'" font-size="10px">名</text>
<text transform="matrix(1 0 0 1 200.2428 57.6689)" font-family="'KaiTi'" font-size="10px">号</text>
<text transform="matrix(1 0 0 1 115.2424 64.6689)" font-family="'KaiTi'" font-size="10px">欲</text>
<text transform="matrix(1 0 0 1 125.2424 64.6689)" font-family="'KaiTi'" font-size="10px">生</text>
<text transform="matrix(1 0 0 1 135.2424 64.6689)" font-family="'KaiTi'" font-size="10px">我</text>
<text transform="matrix(1 0 0 1 145.2428 64.6689)" font-family="'KaiTi'" font-size="10px">国</text>
<text transform="matrix(1 0 0 1 115.2424 71.6689)" font-family="'KaiTi'" font-size="10px"> </text>
<text transform="matrix(1 0 0 1 125.2424 71.6689)" font-family="'KaiTi'" font-size="10px"> </text>
<text transform="matrix(1 0 0 1 135.2424 71.6689)" font-family="'KaiTi'" font-size="10px"> </text>
<text transform="matrix(1 0 0 1 145.2428 71.6689)" font-family="'KaiTi'" font-size="10px"> </text>
<text transform="matrix(1 0 0 1 155.2428 71.6689)" font-family="'KaiTi'" font-size="10px"> </text>
<text transform="matrix(1 0 0 1 165.2428 71.6689)" font-family="'KaiTi'" font-size="10px"> </text>
<text transform="matrix(1 0 0 1 115.2424 78.6689)" font-family="'KaiTi'" font-size="10px">乃</text>
<text transform="matrix(1 0 0 1 125.2424 78.6689)" font-family="'KaiTi'" font-size="10px">至</text>
<text transform="matrix(1 0 0 1 135.2424 78.6689)" font-family="'KaiTi'" font-size="10px">十</text>
<text transform="matrix(1 0 0 1 145.2428 78.6689)" font-family="'KaiTi'" font-size="10px">念</text>
<text transform="matrix(1 0 0 1 155.2428 78.6689)" font-family="'KaiTi'" font-size="10px"> </text>
<text transform="matrix(1 0 0 1 165.2428 78.6689)" font-family="'KaiTi'" font-size="10px"> </text>
<text transform="matrix(1 0 0 1 170.2428 78.6689)" font-family="'KaiTi'" font-size="10px">下</text>
<text transform="matrix(1 0 0 1 180.2428 78.6689)" font-family="'KaiTi'" font-size="10px">至</text>
<text transform="matrix(1 0 0 1 190.2428 78.6689)" font-family="'KaiTi'" font-size="10px">十</text>
<text transform="matrix(1 0 0 1 200.2428 78.6689)" font-family="'KaiTi'" font-size="10px">声</text>
<text transform="matrix(1 0 0 1 115.2424 85.6689)" font-family="'KaiTi'" font-size="10px"> </text>
<text transform="matrix(1 0 0 1 125.2424 85.6689)" font-family="'KaiTi'" font-size="10px"> </text>
<text transform="matrix(1 0 0 1 135.2424 85.6689)" font-family="'KaiTi'" font-size="10px"> </text>
<text transform="matrix(1 0 0 1 145.2428 85.6689)" font-family="'KaiTi'" font-size="10px"> </text>
<text transform="matrix(1 0 0 1 155.2428 85.6689)" font-family="'KaiTi'" font-size="10px"> </text>
<text transform="matrix(1 0 0 1 165.2428 85.6689)" font-family="'KaiTi'" font-size="10px"> </text>
<text transform="matrix(1 0 0 1 170.2428 85.6689)" font-family="'KaiTi'" font-size="10px"> </text>
<text transform="matrix(1 0 0 1 180.2428 85.6689)" font-family="'KaiTi'" font-size="10px"> </text>
<text transform="matrix(1 0 0 1 190.2428 85.6689)" font-family="'KaiTi'" font-size="10px"> </text>
<text transform="matrix(1 0 0 1 200.2428 85.6689)" font-family="'KaiTi'" font-size="10px"> </text>
<text transform="matrix(1 0 0 1 210.2428 85.6689)" font-family="'KaiTi'" font-size="10px"> </text>
<text transform="matrix(1 0 0 1 115.2424 92.6689)" font-family="'KaiTi'" font-size="10px">若</text>
<text transform="matrix(1 0 0 1 125.2424 92.6689)" font-family="'KaiTi'" font-size="10px">不</text>
<text transform="matrix(1 0 0 1 135.2424 92.6689)" font-family="'KaiTi'" font-size="10px">生</text>
<text transform="matrix(1 0 0 1 145.2428 92.6689)" font-family="'KaiTi'" font-size="10px">者</text>
<text transform="matrix(1 0 0 1 155.2428 92.6689)" font-family="'KaiTi'" font-size="10px"> </text>
<text transform="matrix(1 0 0 1 165.2428 92.6689)" font-family="'KaiTi'" font-size="10px"> </text>
<text transform="matrix(1 0 0 1 170.2428 92.6689)" font-family="'KaiTi'" font-size="10px">若</text>
<text transform="matrix(1 0 0 1 180.2428 92.6689)" font-family="'KaiTi'" font-size="10px">不</text>
<text transform="matrix(1 0 0 1 190.2428 92.6689)" font-family="'KaiTi'" font-size="10px">生</text>
<text transform="matrix(1 0 0 1 200.2428 92.6689)" font-family="'KaiTi'" font-size="10px">者</text>
<text transform="matrix(1 0 0 1 115.2424 99.6689)" font-family="'KaiTi'" font-size="10px"> </text>
<text transform="matrix(1 0 0 1 125.2424 99.6689)" font-family="'KaiTi'" font-size="10px"> </text>
<text transform="matrix(1 0 0 1 135.2424 99.6689)" font-family="'KaiTi'" font-size="10px"> </text>
<text transform="matrix(1 0 0 1 145.2428 99.6689)" font-family="'KaiTi'" font-size="10px"> </text>
<text transform="matrix(1 0 0 1 155.2428 99.6689)" font-family="'KaiTi'" font-size="10px"> </text>
<text transform="matrix(1 0 0 1 165.2428 99.6689)" font-family="'KaiTi'" font-size="10px"> </text>
<text transform="matrix(1 0 0 1 115.2424 106.6689)" font-family="'KaiTi'" font-size="10px">不</text>
<text transform="matrix(1 0 0 1 125.2424 106.6689)" font-family="'KaiTi'" font-size="10px">取</text>
<text transform="matrix(1 0 0 1 135.2424 106.6689)" font-family="'KaiTi'" font-size="10px">正</text>
<text transform="matrix(1 0 0 1 145.2428 106.6689)" font-family="'KaiTi'" font-size="10px">觉</text>
<text transform="matrix(1 0 0 1 155.2428 106.6689)" font-family="'KaiTi'" font-size="10px"> </text>
<text transform="matrix(1 0 0 1 165.2428 106.6689)" font-family="'KaiTi'" font-size="10px"> </text>
<text transform="matrix(1 0 0 1 170.2428 106.6689)" font-family="'KaiTi'" font-size="10px">不</text>
<text transform="matrix(1 0 0 1 180.2428 106.6689)" font-family="'KaiTi'" font-size="10px">取</text>
<text transform="matrix(1 0 0 1 190.2428 106.6689)" font-family="'KaiTi'" font-size="10px">正</text>
<text transform="matrix(1 0 0 1 200.2428 106.6689)" font-family="'KaiTi'" font-size="10px">觉</text>
<g>
	<line fill="none" stroke="#000000" stroke-width="0.5" stroke-miterlimit="10" x1="166.5" y1="54.4" x2="162.8" y2="54.4"/>
	<line fill="none" stroke="#000000" stroke-width="0.5" stroke-miterlimit="10" x1="162.8" y1="61.3" x2="158.6" y2="61.3"/>
	<line fill="none" stroke="#000000" stroke-width="0.5" stroke-miterlimit="10" x1="162.8" y1="47.1" x2="158.6" y2="47.1"/>
	<line fill="none" stroke="#000000" stroke-width="0.5" stroke-miterlimit="10" x1="162.8" y1="61.5" x2="162.8" y2="46.9"/>
</g>
<line fill="none" stroke="#000000" stroke-width="0.5" stroke-miterlimit="10" x1="158.7" y1="19.1" x2="166.4" y2="19.1"/>
<line fill="none" stroke="#000000" stroke-width="0.5" stroke-miterlimit="10" x1="158.7" y1="32.3" x2="166.4" y2="32.3"/>
<line fill="none" stroke="#000000" stroke-width="0.5" stroke-miterlimit="10" x1="158.7" y1="74.6" x2="166.4" y2="74.6"/>
<line fill="none" stroke="#000000" stroke-width="0.5" stroke-miterlimit="10" x1="159" y1="89.3" x2="166.6" y2="89.3"/>
<line fill="none" stroke="#000000" stroke-width="0.5" stroke-miterlimit="10" x1="159" y1="103" x2="166.6" y2="103"/>
</svg>
