<?xml version="1.0" encoding="utf-8"?>
<!-- Generator: Adobe Illustrator 16.0.0, SVG Export Plug-In . SVG Version: 6.00 Build 0)  -->
<!DOCTYPE svg PUBLIC "-//W3C//DTD SVG 1.1//EN" "http://www.w3.org/Graphics/SVG/1.1/DTD/svg11.dtd">
<svg version="1.1" id="图层_1" xmlns="http://www.w3.org/2000/svg" xmlns:xlink="http://www.w3.org/1999/xlink" x="0px" y="0px"
	 width="302.465px" height="96.359px" viewBox="0 0 302.465 96.359" enable-background="new 0 0 302.465 96.359"
	 xml:space="preserve">
<g>
	<text transform="matrix(1 0 0 1 0 33.4263)" font-family="'KaiTi'" font-size="10">观经</text>
	<text transform="matrix(1 0 0 1 30.3501 8.5938)" font-family="'KaiTi'" font-size="10">定善</text>
	<text transform="matrix(1 0 0 1 60.4292 30.1274)"><tspan x="0" y="0" font-family="'KaiTi'" font-size="10" letter-spacing="3">上三品</tspan><tspan x="0" y="28" font-family="'KaiTi'" font-size="10">中</tspan><tspan x="0" y="56" font-family="'KaiTi'" font-size="10" letter-spacing="3">下三品</tspan></text>
	<text transform="matrix(1 0 0 1 77.7754 44.127)"><tspan x="0" y="0" font-family="'KaiTi'" font-size="10">上品</tspan><tspan x="0" y="14" font-family="'KaiTi'" font-size="10">中品</tspan><tspan x="0" y="28" font-family="'KaiTi'" font-size="10">下品</tspan></text>
	<text transform="matrix(1 0 0 1 139.0137 79.5264)"><tspan x="0" y="0" font-family="'KaiTi'" font-size="10">显(万行随一)</tspan><tspan x="0" y="14" font-family="'KaiTi'" font-size="10">隐(非定非散)</tspan></text>
	<text transform="matrix(1 0 0 1 212.4248 8.5938)" font-family="'KaiTi'" font-size="10">十三定观</text>
	<text transform="matrix(1 0 0 1 262.4648 31.8281)" font-family="'KaiTi'" font-size="10">方便要门</text>
	<text transform="matrix(1 0 0 1 108.9565 30.1274)"><tspan x="0" y="0" font-family="'KaiTi'" font-size="10">行福</tspan><tspan x="0" y="42" font-family="'KaiTi'" font-size="10">世福</tspan><tspan x="0" y="56" font-family="'KaiTi'" font-size="10">念佛</tspan></text>
	<text transform="matrix(1 0 0 1 108.9565 51.2944)" font-family="'KaiTi'" font-size="10">戒福</text>
	<line fill="none" stroke="#000000" stroke-width="0.5" stroke-miterlimit="10" x1="71.045" y1="55.445" x2="73.941" y2="55.445"/>
	<line fill="none" stroke="#000000" stroke-width="0.5" stroke-miterlimit="10" x1="73.941" y1="41.682" x2="76.837" y2="41.682"/>
	<line fill="none" stroke="#000000" stroke-width="0.5" stroke-miterlimit="10" x1="73.941" y1="69.131" x2="76.837" y2="69.131"/>
	<line fill="none" stroke="#000000" stroke-width="0.5" stroke-miterlimit="10" x1="73.941" y1="41.474" x2="73.941" y2="69.415"/>
	<line fill="none" stroke="#000000" stroke-width="0.5" stroke-miterlimit="10" x1="53.104" y1="55.345" x2="56" y2="55.345"/>
	<line fill="none" stroke="#000000" stroke-width="0.5" stroke-miterlimit="10" x1="56" y1="26.877" x2="58.896" y2="26.877"/>
	<line fill="none" stroke="#000000" stroke-width="0.5" stroke-miterlimit="10" x1="56" y1="82.535" x2="58.896" y2="82.535"/>
	<line fill="none" stroke="#000000" stroke-width="0.5" stroke-miterlimit="10" x1="55.999" y1="26.625" x2="55.999" y2="82.785"/>
	<line fill="none" stroke="#000000" stroke-width="0.5" stroke-miterlimit="10" x1="21.908" y1="30.406" x2="24.803" y2="30.406"/>
	<line fill="none" stroke="#000000" stroke-width="0.5" stroke-miterlimit="10" x1="24.803" y1="5.63" x2="27.7" y2="5.63"/>
	<line fill="none" stroke="#000000" stroke-width="0.5" stroke-miterlimit="10" x1="24.803" y1="55.342" x2="27.7" y2="55.342"/>
	<line fill="none" stroke="#000000" stroke-width="0.5" stroke-miterlimit="10" x1="24.803" y1="5.377" x2="24.803" y2="55.594"/>
	
		<line fill="none" stroke="#000000" stroke-width="0.5" stroke-miterlimit="10" x1="100.196" y1="26.625" x2="105.946" y2="26.625"/>
	
		<line fill="none" stroke="#000000" stroke-width="0.5" stroke-miterlimit="10" x1="100.196" y1="69.132" x2="105.946" y2="69.132"/>
	
		<line fill="none" stroke="#000000" stroke-width="0.5" stroke-miterlimit="10" x1="131.285" y1="68.094" x2="203.529" y2="68.094"/>
	
		<line fill="none" stroke="#000000" stroke-width="0.5" stroke-miterlimit="10" x1="131.285" y1="48.228" x2="203.529" y2="48.228"/>
	
		<line fill="none" stroke="#000000" stroke-width="0.5" stroke-miterlimit="10" x1="131.285" y1="26.625" x2="203.529" y2="26.625"/>
	
		<line fill="none" stroke="#000000" stroke-width="0.5" stroke-miterlimit="10" x1="100.196" y1="82.536" x2="105.946" y2="82.536"/>
	<line fill="none" stroke="#000000" stroke-width="0.5" stroke-miterlimit="10" x1="197.78" y1="75.705" x2="203.53" y2="75.705"/>
	<line fill="none" stroke="#000000" stroke-width="0.5" stroke-miterlimit="10" x1="197.78" y1="90.121" x2="257.994" y2="90.121"/>
	
		<line fill="none" stroke="#000000" stroke-width="0.5" stroke-miterlimit="10" x1="203.529" y1="51.594" x2="209.279" y2="51.594"/>
	<g>
		
			<line fill="none" stroke="#000000" stroke-width="0.5" stroke-miterlimit="10" x1="103.811" y1="48.229" x2="106.707" y2="48.229"/>
		
			<line fill="none" stroke="#000000" stroke-width="0.5" stroke-miterlimit="10" x1="101.035" y1="41.312" x2="103.931" y2="41.312"/>
		
			<line fill="none" stroke="#000000" stroke-width="0.5" stroke-miterlimit="10" x1="101.044" y1="55.478" x2="103.939" y2="55.478"/>
		
			<line fill="none" stroke="#000000" stroke-width="0.5" stroke-miterlimit="10" x1="103.932" y1="41.057" x2="103.932" y2="55.729"/>
	</g>
	<g>
		
			<line fill="none" stroke="#000000" stroke-width="0.5" stroke-miterlimit="10" x1="131.264" y1="82.621" x2="134.16" y2="82.621"/>
		
			<line fill="none" stroke="#000000" stroke-width="0.5" stroke-miterlimit="10" x1="134.16" y1="75.705" x2="137.056" y2="75.705"/>
		
			<line fill="none" stroke="#000000" stroke-width="0.5" stroke-miterlimit="10" x1="134.16" y1="89.871" x2="137.056" y2="89.871"/>
		<line fill="none" stroke="#000000" stroke-width="0.5" stroke-miterlimit="10" x1="134.16" y1="75.449" x2="134.16" y2="90.121"/>
	</g>
	
		<line fill="none" stroke="#000000" stroke-width="0.5" stroke-miterlimit="10" x1="203.529" y1="26.375" x2="203.529" y2="75.938"/>
	<text transform="matrix(1 0 0 1 212.4248 54.7739)" font-family="'KaiTi'" font-size="10">三福九品</text>
	<line fill="none" stroke="#000000" stroke-width="0.5" stroke-miterlimit="10" x1="257.364" y1="28.594" x2="260.26" y2="28.594"/>
	<line fill="none" stroke="#000000" stroke-width="0.5" stroke-miterlimit="10" x1="254.468" y1="5.344" x2="257.363" y2="5.344"/>
	
		<line fill="none" stroke="#000000" stroke-width="0.5" stroke-miterlimit="10" x1="254.468" y1="51.387" x2="257.363" y2="51.387"/>
	<line fill="none" stroke="#000000" stroke-width="0.5" stroke-miterlimit="10" x1="257.363" y1="5.108" x2="257.363" y2="51.606"/>
	<text transform="matrix(1 0 0 1 262.4648 94.0938)" font-family="'KaiTi'" font-size="10">真实弘愿</text>
	<text transform="matrix(1 0 0 1 30.3501 57.9951)" font-family="'KaiTi'" font-size="10">散善</text>
	<line fill="none" stroke="#000000" stroke-width="0.5" stroke-miterlimit="10" x1="53.104" y1="5.377" x2="209.279" y2="5.377"/>
</g>
</svg>
