<?xml version="1.0" encoding="utf-8"?>
<!-- Generator: Adobe Illustrator 21.0.0, SVG Export Plug-In . SVG Version: 6.00 Build 0)  -->
<svg version="1.1" baseProfile="tiny" id="图层_1"
	 xmlns="http://www.w3.org/2000/svg" xmlns:xlink="http://www.w3.org/1999/xlink" x="0px" y="0px" viewBox="0 0 242.5 66.6"
	 overflow="scroll" xml:space="preserve">
<text transform="matrix(1 0 0 1 32.5 8.5938)" font-family="'KaiTi'" font-size="10px">依</text>
<text transform="matrix(1 0 0 1 42.5 8.5938)" font-family="'KaiTi'" font-size="10px">报</text>
<text transform="matrix(1 0 0 1 52.5 8.5938)" font-family="'KaiTi'" font-size="10px"> </text>
<text transform="matrix(1 0 0 1 62.5 8.5938)" font-family="'KaiTi'" font-size="10px">宝</text>
<text transform="matrix(1 0 0 1 72.5 8.5938)" font-family="'KaiTi'" font-size="10px">栏</text>
<text transform="matrix(1 0 0 1 82.5 8.5938)" font-family="'KaiTi'" font-size="10px">网</text>
<text transform="matrix(1 0 0 1 92.5 8.5938)" font-family="'KaiTi'" font-size="10px">树</text>
<text transform="matrix(1 0 0 1 102.5 8.5938)" font-family="'DFKaiShu-SB-Estd-BF'" font-size="10px">、</text>
<text transform="matrix(1 0 0 1 112.5 8.5938)" font-family="'KaiTi'" font-size="10px">宝</text>
<text transform="matrix(1 0 0 1 122.5 8.5938)" font-family="'KaiTi'" font-size="10px">池</text>
<text transform="matrix(1 0 0 1 132.5 8.5938)" font-family="'KaiTi'" font-size="10px">德</text>
<text transform="matrix(1 0 0 1 142.5 8.5938)" font-family="'KaiTi'" font-size="10px">水</text>
<text transform="matrix(1 0 0 1 152.4995 8.5938)" font-family="'DFKaiShu-SB-Estd-BF'" font-size="10px">、</text>
<text transform="matrix(1 0 0 1 162.4995 8.5938)" font-family="'KaiTi'" font-size="10px">楼</text>
<text transform="matrix(1 0 0 1 172.4995 8.5938)" font-family="'KaiTi'" font-size="10px">阁</text>
<text transform="matrix(1 0 0 1 182.4995 8.5938)" font-family="'KaiTi'" font-size="10px">莲</text>
<text transform="matrix(1 0 0 1 192.4995 8.5938)" font-family="'KaiTi'" font-size="10px">花</text>
<text transform="matrix(1 0 0 1 202.4995 8.5938)" font-family="'KaiTi'" font-size="10px">、</text>
<text transform="matrix(1 0 0 1 32.5 22.5938)" font-family="'KaiTi'" font-size="10px"> </text>
<text transform="matrix(1 0 0 1 42.5 22.5938)" font-family="'KaiTi'" font-size="10px"> </text>
<text transform="matrix(1 0 0 1 52.5 22.5938)" font-family="'KaiTi'" font-size="10px"> </text>
<text transform="matrix(1 0 0 1 62.5 22.5938)" font-family="'KaiTi'" font-size="10px">天</text>
<text transform="matrix(1 0 0 1 72.5 22.5938)" font-family="'KaiTi'" font-size="10px">乐</text>
<text transform="matrix(1 0 0 1 82.5 22.5938)" font-family="'DFKaiShu-SB-Estd-BF'" font-size="10px">、</text>
<text transform="matrix(1 0 0 1 92.5 22.5938)" font-family="'KaiTi'" font-size="10px">金</text>
<text transform="matrix(1 0 0 1 102.5 22.5938)" font-family="'KaiTi'" font-size="10px">地</text>
<text transform="matrix(1 0 0 1 112.5 22.5938)" font-family="'DFKaiShu-SB-Estd-BF'" font-size="10px">、</text>
<text transform="matrix(1 0 0 1 122.5 22.5938)" font-family="'KaiTi'" font-size="10px">雨</text>
<text transform="matrix(1 0 0 1 132.5 22.5938)" font-family="'KaiTi'" font-size="10px">花</text>
<text transform="matrix(1 0 0 1 142.5 22.5938)" font-family="'DFKaiShu-SB-Estd-BF'" font-size="10px">、</text>
<text transform="matrix(1 0 0 1 152.4995 22.5938)" font-family="'KaiTi'" font-size="10px">鸟</text>
<text transform="matrix(1 0 0 1 162.4995 22.5938)" font-family="'KaiTi'" font-size="10px">风</text>
<text transform="matrix(1 0 0 1 172.4995 22.5938)" font-family="'KaiTi'" font-size="10px">说</text>
<text transform="matrix(1 0 0 1 182.4995 22.5938)" font-family="'KaiTi'" font-size="10px">法</text>
<text transform="matrix(1 0 0 1 192.4995 22.5938)" font-family="'DFKaiShu-SB-Estd-BF'" font-size="10px">。</text>
<text transform="matrix(1 0 0 1 32.5 36.5933)" font-family="'KaiTi'" font-size="10px">正</text>
<text transform="matrix(1 0 0 1 42.5 36.5933)" font-family="'KaiTi'" font-size="10px">报</text>
<text transform="matrix(1 0 0 1 52.5 36.5933)" font-family="'KaiTi'" font-size="10px"> </text>
<text transform="matrix(1 0 0 1 62.5 36.5933)" font-family="'KaiTi'" font-size="10px">光</text>
<text transform="matrix(1 0 0 1 72.5 36.5933)" font-family="'KaiTi'" font-size="10px">寿</text>
<text transform="matrix(1 0 0 1 82.5 36.5933)" font-family="'KaiTi'" font-size="10px">无</text>
<text transform="matrix(1 0 0 1 92.5 36.5933)" font-family="'KaiTi'" font-size="10px">量</text>
<text transform="matrix(1 0 0 1 102.5 36.5933)" font-family="'DFKaiShu-SB-Estd-BF'" font-size="10px">，</text>
<text transform="matrix(1 0 0 1 112.5 36.5933)" font-family="'KaiTi'" font-size="10px">成</text>
<text transform="matrix(1 0 0 1 122.5 36.5933)" font-family="'KaiTi'" font-size="10px">佛</text>
<text transform="matrix(1 0 0 1 132.5 36.5933)" font-family="'KaiTi'" font-size="10px">十</text>
<text transform="matrix(1 0 0 1 142.5 36.5933)" font-family="'KaiTi'" font-size="10px">劫</text>
<text transform="matrix(1 0 0 1 152.4995 36.5933)" font-family="'DFKaiShu-SB-Estd-BF'" font-size="10px">。</text>
<text transform="matrix(1 0 0 1 32.5 50.5933)" font-family="'KaiTi'" font-size="10px">住</text>
<text transform="matrix(1 0 0 1 42.5 50.5933)" font-family="'KaiTi'" font-size="10px">众</text>
<text transform="matrix(1 0 0 1 52.5 50.5933)" font-family="'KaiTi'" font-size="10px"> </text>
<text transform="matrix(1 0 0 1 62.5 50.5933)" font-family="'KaiTi'" font-size="10px">声</text>
<text transform="matrix(1 0 0 1 72.5 50.5933)" font-family="'KaiTi'" font-size="10px">闻</text>
<text transform="matrix(1 0 0 1 82.5 50.5933)" font-family="'DFKaiShu-SB-Estd-BF'" font-size="10px">、</text>
<text transform="matrix(1 0 0 1 92.5 50.5933)" font-family="'KaiTi'" font-size="10px">菩</text>
<text transform="matrix(1 0 0 1 102.5 50.5933)" font-family="'KaiTi'" font-size="10px">萨</text>
<text transform="matrix(1 0 0 1 112.5 50.5933)" font-family="'KaiTi'" font-size="10px">无</text>
<text transform="matrix(1 0 0 1 122.5 50.5933)" font-family="'KaiTi'" font-size="10px">量</text>
<text transform="matrix(1 0 0 1 132.5 50.5933)" font-family="'KaiTi'" font-size="10px">(</text>
<text transform="matrix(1 0 0 1 137.5 50.5933)" font-family="'KaiTi'" font-size="10px">咸</text>
<text transform="matrix(1 0 0 1 147.5 50.5933)" font-family="'KaiTi'" font-size="10px">同</text>
<text transform="matrix(1 0 0 1 157.4995 50.5933)" font-family="'KaiTi'" font-size="10px">一</text>
<text transform="matrix(1 0 0 1 167.4995 50.5933)" font-family="'KaiTi'" font-size="10px">类</text>
<text transform="matrix(1 0 0 1 177.4995 50.5933)" font-family="'DFKaiShu-SB-Estd-BF'" font-size="10px">、</text>
<text transform="matrix(1 0 0 1 187.4995 50.5933)" font-family="'KaiTi'" font-size="10px">随</text>
<text transform="matrix(1 0 0 1 197.4995 50.5933)" font-family="'KaiTi'" font-size="10px">方</text>
<text transform="matrix(1 0 0 1 207.4995 50.5933)" font-family="'KaiTi'" font-size="10px">立</text>
<text transform="matrix(1 0 0 1 217.4995 50.5933)" font-family="'KaiTi'" font-size="10px">名</text>
<text transform="matrix(1 0 0 1 227.4995 50.5933)" font-family="'KaiTi'" font-size="10px">)</text>
<text transform="matrix(1 0 0 1 232.4995 50.5933)" font-family="'DFKaiShu-SB-Estd-BF'" font-size="10px">。</text>
<text transform="matrix(1 0 0 1 32.5 64.5933)" font-family="'KaiTi'" font-size="10px">果</text>
<text transform="matrix(1 0 0 1 42.5 64.5933)" font-family="'KaiTi'" font-size="10px">位</text>
<text transform="matrix(1 0 0 1 52.5 64.5933)" font-family="'KaiTi'" font-size="10px"> </text>
<text transform="matrix(1 0 0 1 62.5 64.5933)" font-family="'KaiTi'" font-size="10px">一</text>
<text transform="matrix(1 0 0 1 72.5 64.5933)" font-family="'KaiTi'" font-size="10px">生</text>
<text transform="matrix(1 0 0 1 82.5 64.5933)" font-family="'KaiTi'" font-size="10px">补</text>
<text transform="matrix(1 0 0 1 92.5 64.5933)" font-family="'KaiTi'" font-size="10px">处</text>
<text transform="matrix(1 0 0 1 102.5 64.5933)" font-family="'DFKaiShu-SB-Estd-BF'" font-size="10px">。</text>
<line fill="none" stroke="#000000" stroke-width="0.5" stroke-miterlimit="10" x1="54.9" y1="4.6" x2="60.4" y2="4.6"/>
<line fill="none" stroke="#000000" stroke-width="0.5" stroke-miterlimit="10" x1="54.9" y1="32.8" x2="60.4" y2="32.8"/>
<line fill="none" stroke="#000000" stroke-width="0.5" stroke-miterlimit="10" x1="54.5" y1="46.8" x2="60" y2="46.8"/>
<line fill="none" stroke="#000000" stroke-width="0.5" stroke-miterlimit="10" x1="54.9" y1="60.7" x2="60.4" y2="60.7"/>
<g>
	<line fill="none" stroke="#000000" stroke-width="0.5" stroke-miterlimit="10" x1="26.5" y1="4.6" x2="26.5" y2="60.7"/>
	<line fill="none" stroke="#000000" stroke-width="0.5" stroke-miterlimit="10" x1="26.5" y1="4.6" x2="29.3" y2="4.6"/>
	<line fill="none" stroke="#000000" stroke-width="0.5" stroke-miterlimit="10" x1="26.5" y1="60.7" x2="29.3" y2="60.7"/>
	<line fill="none" stroke="#000000" stroke-width="0.5" stroke-miterlimit="10" x1="26.5" y1="32.6" x2="23.8" y2="32.6"/>
</g>
<text transform="matrix(1 0 0 1 0 36.5)" font-family="'KaiTi'" font-size="10px">广赞</text>
</svg>
