<?xml version="1.0" encoding="utf-8"?>
<!-- Generator: Adobe Illustrator 21.0.0, SVG Export Plug-In . SVG Version: 6.00 Build 0)  -->
<svg version="1.1" baseProfile="tiny" id="圖層_1"
	 xmlns="http://www.w3.org/2000/svg" xmlns:xlink="http://www.w3.org/1999/xlink" x="0px" y="0px" viewBox="0 0 251.6 66.6"
	 overflow="scroll" xml:space="preserve">
<text transform="matrix(1 0 0 1 36.625 8.5938)" font-family="'KaiTi'" font-size="10px">1</text>
<text transform="matrix(1 0 0 1 41.625 8.5938)" font-family="'DFKaiShu-SB-Estd-BF'" font-size="10px">.</text>
<text transform="matrix(1 0 0 1 46.625 8.5938)" font-family="'KaiTi'" font-size="10px">歸</text>
<text transform="matrix(1 0 0 1 56.625 8.5938)" font-family="'KaiTi'" font-size="10px">之</text>
<text transform="matrix(1 0 0 1 66.6245 8.5938)" font-family="'KaiTi'" font-size="10px">命</text>
<text transform="matrix(1 0 0 1 76.6245 8.5938)" font-family="'KaiTi'" font-size="10px"> </text>
<text transform="matrix(1 0 0 1 86.6245 8.5938)" font-family="'KaiTi'" font-size="10px"> </text>
<text transform="matrix(1 0 0 1 91.6245 8.5938)" font-family="'KaiTi'" font-size="10px">阿</text>
<text transform="matrix(1 0 0 1 101.6245 8.5938)" font-family="'KaiTi'" font-size="10px">彌</text>
<text transform="matrix(1 0 0 1 111.6245 8.5938)" font-family="'KaiTi'" font-size="10px">陀</text>
<text transform="matrix(1 0 0 1 121.6245 8.5938)" font-family="'KaiTi'" font-size="10px">佛</text>
<text transform="matrix(1 0 0 1 131.6245 8.5938)" font-family="'KaiTi'" font-size="10px">招</text>
<text transform="matrix(1 0 0 1 141.6245 8.5938)" font-family="'KaiTi'" font-size="10px">喚</text>
<text transform="matrix(1 0 0 1 151.6245 8.5938)" font-family="'KaiTi'" font-size="10px">之</text>
<text transform="matrix(1 0 0 1 161.6245 8.5938)" font-family="'KaiTi'" font-size="10px">救</text>
<text transform="matrix(1 0 0 1 171.6245 8.5938)" font-family="'KaiTi'" font-size="10px">命</text>
<text transform="matrix(1 0 0 1 36.625 22.5938)" font-family="'KaiTi'" font-size="10px">2</text>
<text transform="matrix(1 0 0 1 41.625 22.5938)" font-family="'DFKaiShu-SB-Estd-BF'" font-size="10px">.</text>
<text transform="matrix(1 0 0 1 46.625 22.5938)" font-family="'KaiTi'" font-size="10px">歸</text>
<text transform="matrix(1 0 0 1 56.625 22.5938)" font-family="'KaiTi'" font-size="10px">於</text>
<text transform="matrix(1 0 0 1 66.6245 22.5938)" font-family="'KaiTi'" font-size="10px">命</text>
<text transform="matrix(1 0 0 1 76.6245 22.5938)" font-family="'KaiTi'" font-size="10px"> </text>
<text transform="matrix(1 0 0 1 86.6245 22.5938)" font-family="'KaiTi'" font-size="10px"> </text>
<text transform="matrix(1 0 0 1 91.6245 22.5938)" font-family="'KaiTi'" font-size="10px">歸</text>
<text transform="matrix(1 0 0 1 101.6245 22.5938)" font-family="'KaiTi'" font-size="10px">順</text>
<text transform="matrix(1 0 0 1 111.6245 22.5938)" font-family="'DFKaiShu-SB-Estd-BF'" font-size="10px">、</text>
<text transform="matrix(1 0 0 1 121.6245 22.5938)" font-family="'KaiTi'" font-size="10px">信</text>
<text transform="matrix(1 0 0 1 131.6245 22.5938)" font-family="'KaiTi'" font-size="10px">受</text>
<text transform="matrix(1 0 0 1 141.6245 22.5938)" font-family="'KaiTi'" font-size="10px">阿</text>
<text transform="matrix(1 0 0 1 151.6245 22.5938)" font-family="'KaiTi'" font-size="10px">彌</text>
<text transform="matrix(1 0 0 1 161.6245 22.5938)" font-family="'KaiTi'" font-size="10px">陀</text>
<text transform="matrix(1 0 0 1 171.6245 22.5938)" font-family="'KaiTi'" font-size="10px">佛</text>
<text transform="matrix(1 0 0 1 181.6245 22.5938)" font-family="'KaiTi'" font-size="10px">之</text>
<text transform="matrix(1 0 0 1 191.6245 22.5938)" font-family="'KaiTi'" font-size="10px">救</text>
<text transform="matrix(1 0 0 1 201.6245 22.5938)" font-family="'KaiTi'" font-size="10px">命</text>
<text transform="matrix(1 0 0 1 36.625 36.5938)" font-family="'KaiTi'" font-size="10px">3</text>
<text transform="matrix(1 0 0 1 41.625 36.5938)" font-family="'DFKaiShu-SB-Estd-BF'" font-size="10px">.</text>
<text transform="matrix(1 0 0 1 46.625 36.5938)" font-family="'KaiTi'" font-size="10px">敬</text>
<text transform="matrix(1 0 0 1 56.625 36.5938)" font-family="'KaiTi'" font-size="10px"> </text>
<text transform="matrix(1 0 0 1 66.6245 36.5938)" font-family="'KaiTi'" font-size="10px">禮</text>
<text transform="matrix(1 0 0 1 76.6245 36.5938)" font-family="'KaiTi'" font-size="10px"> </text>
<text transform="matrix(1 0 0 1 86.6245 36.5938)" font-family="'KaiTi'" font-size="10px"> </text>
<text transform="matrix(1 0 0 1 91.6245 36.5938)" font-family="'KaiTi'" font-size="10px">身</text>
<text transform="matrix(1 0 0 1 101.6245 36.5938)" font-family="'KaiTi'" font-size="10px">業</text>
<text transform="matrix(1 0 0 1 111.6245 36.5938)" font-family="'KaiTi'" font-size="10px">上</text>
<text transform="matrix(1 0 0 1 121.6245 36.5938)" font-family="'KaiTi'" font-size="10px">之</text>
<text transform="matrix(1 0 0 1 131.6245 36.5938)" font-family="'KaiTi'" font-size="10px">禮</text>
<text transform="matrix(1 0 0 1 141.6245 36.5938)" font-family="'KaiTi'" font-size="10px">拜</text>
<text transform="matrix(1 0 0 1 36.625 50.5938)" font-family="'KaiTi'" font-size="10px">4</text>
<text transform="matrix(1 0 0 1 41.625 50.5938)" font-family="'DFKaiShu-SB-Estd-BF'" font-size="10px">.</text>
<text transform="matrix(1 0 0 1 46.625 50.5938)" font-family="'KaiTi'" font-size="10px">歸</text>
<text transform="matrix(1 0 0 1 56.625 50.5938)" font-family="'KaiTi'" font-size="10px">無</text>
<text transform="matrix(1 0 0 1 66.6245 50.5938)" font-family="'KaiTi'" font-size="10px">量</text>
<text transform="matrix(1 0 0 1 76.6245 50.5938)" font-family="'KaiTi'" font-size="10px">壽</text>
<text transform="matrix(1 0 0 1 86.6245 50.5938)" font-family="'KaiTi'" font-size="10px">命</text>
<text transform="matrix(1 0 0 1 96.6245 50.5938)" font-family="'KaiTi'" font-size="10px"> </text>
<text transform="matrix(1 0 0 1 106.6245 50.5938)" font-family="'KaiTi'" font-size="10px"> </text>
<text transform="matrix(1 0 0 1 111.6245 50.5938)" font-family="'KaiTi'" font-size="10px">凡</text>
<text transform="matrix(1 0 0 1 121.6245 50.5938)" font-family="'KaiTi'" font-size="10px">夫</text>
<text transform="matrix(1 0 0 1 131.6245 50.5938)" font-family="'KaiTi'" font-size="10px">無</text>
<text transform="matrix(1 0 0 1 141.6245 50.5938)" font-family="'KaiTi'" font-size="10px">常</text>
<text transform="matrix(1 0 0 1 151.6245 50.5938)" font-family="'KaiTi'" font-size="10px">之</text>
<text transform="matrix(1 0 0 1 161.6245 50.5938)" font-family="'KaiTi'" font-size="10px">命</text>
<text transform="matrix(1 0 0 1 171.6245 50.5938)" font-family="'DFKaiShu-SB-Estd-BF'" font-size="10px">，</text>
<text transform="matrix(1 0 0 1 181.6245 50.5938)" font-family="'KaiTi'" font-size="10px">歸</text>
<text transform="matrix(1 0 0 1 191.6245 50.5938)" font-family="'KaiTi'" font-size="10px">佛</text>
<text transform="matrix(1 0 0 1 201.6245 50.5938)" font-family="'KaiTi'" font-size="10px">無</text>
<text transform="matrix(1 0 0 1 211.6245 50.5938)" font-family="'KaiTi'" font-size="10px">量</text>
<text transform="matrix(1 0 0 1 221.6245 50.5938)" font-family="'KaiTi'" font-size="10px">壽</text>
<text transform="matrix(1 0 0 1 231.6245 50.5938)" font-family="'KaiTi'" font-size="10px">之</text>
<text transform="matrix(1 0 0 1 241.6245 50.5938)" font-family="'KaiTi'" font-size="10px">命</text>
<text transform="matrix(1 0 0 1 36.625 64.5938)" font-family="'KaiTi'" font-size="10px">5</text>
<text transform="matrix(1 0 0 1 41.625 64.5938)" font-family="'DFKaiShu-SB-Estd-BF'" font-size="10px">.</text>
<text transform="matrix(1 0 0 1 46.625 64.5938)" font-family="'KaiTi'" font-size="10px">生</text>
<text transform="matrix(1 0 0 1 56.625 64.5938)" font-family="'KaiTi'" font-size="10px">命</text>
<text transform="matrix(1 0 0 1 66.6245 64.5938)" font-family="'KaiTi'" font-size="10px">歸</text>
<text transform="matrix(1 0 0 1 76.6245 64.5938)" font-family="'KaiTi'" font-size="10px">還</text>
<text transform="matrix(1 0 0 1 86.6245 64.5938)" font-family="'KaiTi'" font-size="10px">本</text>
<text transform="matrix(1 0 0 1 96.6245 64.5938)" font-family="'KaiTi'" font-size="10px">源</text>
<text transform="matrix(1 0 0 1 106.6245 64.5938)" font-family="'KaiTi'" font-size="10px"> </text>
<text transform="matrix(1 0 0 1 116.6245 64.5938)" font-family="'KaiTi'" font-size="10px"> </text>
<text transform="matrix(1 0 0 1 121.6245 64.5938)" font-family="'KaiTi'" font-size="10px">還</text>
<text transform="matrix(1 0 0 1 131.6245 64.5938)" font-family="'KaiTi'" font-size="10px">源</text>
<text transform="matrix(1 0 0 1 0 36.5938)" font-family="'KaiTi'" font-size="10px">歸命</text>
<line fill="none" stroke="#000000" stroke-width="0.5" stroke-miterlimit="10" x1="80.1" y1="4.6" x2="88.1" y2="4.6"/>
<line fill="none" stroke="#000000" stroke-width="0.5" stroke-miterlimit="10" x1="80.1" y1="18.7" x2="88.1" y2="18.7"/>
<line fill="none" stroke="#000000" stroke-width="0.5" stroke-miterlimit="10" x1="80.1" y1="32.8" x2="88.1" y2="32.8"/>
<line fill="none" stroke="#000000" stroke-width="0.5" stroke-miterlimit="10" x1="100.2" y1="46.7" x2="108.2" y2="46.7"/>
<line fill="none" stroke="#000000" stroke-width="0.5" stroke-miterlimit="10" x1="110" y1="61.2" x2="118" y2="61.2"/>
<g>
	<line fill="none" stroke="#000000" stroke-width="0.5" stroke-miterlimit="10" x1="23.6" y1="32.8" x2="27.7" y2="32.8"/>
	<line fill="none" stroke="#000000" stroke-width="0.5" stroke-miterlimit="10" x1="27.5" y1="4.6" x2="31.6" y2="4.6"/>
	<line fill="none" stroke="#000000" stroke-width="0.5" stroke-miterlimit="10" x1="27.6" y1="61.2" x2="31.6" y2="61.2"/>
	<line fill="none" stroke="#000000" stroke-width="0.5" stroke-miterlimit="10" x1="27.7" y1="4.6" x2="27.7" y2="61.2"/>
</g>
</svg>
