<?xml version="1.0" encoding="utf-8"?>
<!-- Generator: Adobe Illustrator 21.0.0, SVG Export Plug-In . SVG Version: 6.00 Build 0)  -->
<svg version="1.1" id="圖層_1" xmlns="http://www.w3.org/2000/svg" xmlns:xlink="http://www.w3.org/1999/xlink" x="0px" y="0px"
	 viewBox="0 0 227.9 24.6" style="enable-background:new 0 0 227.9 24.6;" xml:space="preserve">
<style type="text/css">
	.st0{font-family:'KaiTi';}
	.st1{font-size:10px;}
	.st2{font-family:'DFKaiShu-SB-Estd-BF';}
	.st3{fill:none;stroke:#000000;stroke-width:0.5;stroke-miterlimit:10;}
</style>
<text transform="matrix(1 0 0 1 64.125 8.5938)"><tspan x="0" y="0" class="st0 st1">此土遇本願</tspan><tspan x="50" y="0" class="st2 st1">，</tspan><tspan x="60" y="0" class="st0 st1">得往生益</tspan><tspan x="0" y="14" class="st0 st1">彼土見彌陀</tspan><tspan x="50" y="14" class="st2 st1">，</tspan><tspan x="60" y="14" class="st0 st1">得成佛益</tspan></text>
<g>
	<line class="st3" x1="56.8" y1="5.1" x2="56.8" y2="20"/>
	<line class="st3" x1="56.8" y1="5.1" x2="60.6" y2="5.1"/>
	<line class="st3" x1="56.8" y1="20" x2="60.6" y2="20"/>
	<line class="st3" x1="56.8" y1="12.8" x2="53.1" y2="12.8"/>
</g>
<text transform="matrix(1 0 0 1 0 8.5938)"><tspan x="0" y="0" class="st0 st1">觀佛本願力</tspan><tspan x="0" y="14" class="st0 st1">遇無空過者</tspan></text>
<text transform="matrix(1 0 0 1 177.875 8.5938)"><tspan x="0" y="0" class="st0 st1">能令速滿足</tspan><tspan x="0" y="14" class="st0 st1">功德大寶海</tspan></text>
<g>
	<line class="st3" x1="170.7" y1="20" x2="170.7" y2="5.1"/>
	<line class="st3" x1="170.7" y1="20" x2="166.9" y2="20"/>
	<line class="st3" x1="170.7" y1="5.1" x2="166.9" y2="5.1"/>
	<line class="st3" x1="170.7" y1="12.3" x2="174.4" y2="12.3"/>
</g>
</svg>
