<?xml version="1.0" encoding="utf-8"?>
<!-- Generator: Adobe Illustrator 21.0.0, SVG Export Plug-In . SVG Version: 6.00 Build 0)  -->
<svg version="1.1" id="圖層_1" xmlns="http://www.w3.org/2000/svg" xmlns:xlink="http://www.w3.org/1999/xlink" x="0px" y="0px"
	 viewBox="0 0 183.2 178.6" style="enable-background:new 0 0 183.2 178.6;" xml:space="preserve">
<style type="text/css">
	.st0{font-family:'KaiTi';}
	.st1{font-size:10px;}
	.st2{font-family:'DFKaiShu-SB-Estd-BF';}
	.st3{fill:none;stroke:#040000;stroke-width:0.5;stroke-miterlimit:10;}
</style>
<text transform="matrix(1 0 0 1 103.1672 8.5936)"><tspan x="0" y="0" class="st0 st1">一</tspan><tspan x="10" y="0" class="st2 st1">、</tspan><tspan x="20" y="0" class="st0 st1">觀佛三昧法</tspan><tspan x="0" y="14" class="st0 st1">二</tspan><tspan x="10" y="14" class="st2 st1">、</tspan><tspan x="20" y="14" class="st0 st1">念佛三昧法</tspan><tspan x="0" y="28" class="st0 st1">三</tspan><tspan x="10" y="28" class="st2 st1">、</tspan><tspan x="20" y="28" class="st0 st1">道場念佛法</tspan><tspan x="0" y="42" class="st0 st1">四</tspan><tspan x="10" y="42" class="st2 st1">、</tspan><tspan x="20" y="42" class="st0 st1">懺悔發願法</tspan><tspan x="0" y="56" class="st0 st1">五</tspan><tspan x="10" y="56" class="st2 st1">、</tspan><tspan x="20" y="56" class="st0 st1">臨終行法</tspan><tspan x="0" y="70" class="st0 st1">一</tspan><tspan x="10" y="70" class="st2 st1">、</tspan><tspan x="20" y="70" class="st0 st1">滅罪增上緣</tspan><tspan x="0" y="84" class="st0 st1">二</tspan><tspan x="10" y="84" class="st2 st1">、</tspan><tspan x="20" y="84" class="st0 st1">護念增上緣</tspan><tspan x="0" y="98" class="st0 st1">三</tspan><tspan x="10" y="98" class="st2 st1">、</tspan><tspan x="20" y="98" class="st0 st1">見佛增上緣</tspan><tspan x="0" y="112" class="st0 st1">四</tspan><tspan x="10" y="112" class="st2 st1">、</tspan><tspan x="20" y="112" class="st0 st1">攝生增上緣</tspan><tspan x="0" y="126" class="st0 st1">五</tspan><tspan x="10" y="126" class="st2 st1">、</tspan><tspan x="20" y="126" class="st0 st1">證生增上緣</tspan><tspan x="0" y="140" class="st0 st1">一</tspan><tspan x="10" y="140" class="st2 st1">、</tspan><tspan x="20" y="140" class="st0 st1">不信罪報問答</tspan><tspan x="0" y="154" class="st0 st1">二</tspan><tspan x="10" y="154" class="st2 st1">、</tspan><tspan x="20" y="154" class="st0 st1">信行功德問答</tspan><tspan x="0" y="168" class="st0 st1">三</tspan><tspan x="10" y="168" class="st2 st1">、</tspan><tspan x="20" y="168" class="st0 st1">滅罪方法問答</tspan></text>
<g>
	<line class="st3" x1="97.5" y1="4.7" x2="97.5" y2="62"/>
	<line class="st3" x1="97.3" y1="5" x2="100.2" y2="5"/>
	<line class="st3" x1="97.3" y1="62" x2="100.2" y2="62"/>
	<line class="st3" x1="94.5" y1="33.4" x2="97.4" y2="33.4"/>
</g>
<g>
	<line class="st3" x1="97.6" y1="74.4" x2="97.6" y2="131.7"/>
	<line class="st3" x1="97.4" y1="74.7" x2="100.3" y2="74.7"/>
	<line class="st3" x1="97.4" y1="131.7" x2="100.3" y2="131.7"/>
	<line class="st3" x1="94.6" y1="103" x2="97.5" y2="103"/>
</g>
<g>
	<line class="st3" x1="94.7" y1="158.8" x2="97.6" y2="158.8"/>
	<line class="st3" x1="97.6" y1="145" x2="100.5" y2="145"/>
	<line class="st3" x1="97.6" y1="172.5" x2="100.5" y2="172.5"/>
	<line class="st3" x1="97.6" y1="144.8" x2="97.6" y2="172.7"/>
</g>
<text transform="matrix(1 0 0 1 21.3337 29.5936)"><tspan x="0" y="0" class="st0 st1">一</tspan><tspan x="10" y="0" class="st2 st1">、</tspan><tspan x="20" y="0" class="st0 st1">三昧行相分</tspan><tspan x="0" y="14" class="st0 st1">  (示三昧行法)</tspan><tspan x="0" y="70" class="st0 st1">二</tspan><tspan x="10" y="70" class="st2 st1">、</tspan><tspan x="20" y="70" class="st0 st1">五緣功德分</tspan><tspan x="0" y="84" class="st0 st1">  (示念佛利益)</tspan><tspan x="0" y="126" class="st0 st1">三</tspan><tspan x="10" y="126" class="st2 st1">、</tspan><tspan x="20" y="126" class="st0 st1">結勸修行分</tspan><tspan x="0" y="140" class="st0 st1">  (示信謗損益)</tspan></text>
<g>
	<line class="st3" x1="15.6" y1="26" x2="15.6" y2="152"/>
	<line class="st3" x1="15.4" y1="26.3" x2="18.3" y2="26.3"/>
	<line class="st3" x1="15.4" y1="152" x2="18.3" y2="152"/>
	<line class="st3" x1="12.6" y1="89" x2="15.5" y2="89"/>
</g>
<text transform="matrix(1 0 0 1 1.640320e-04 71.5936)"><tspan x="0" y="0" class="st0 st1">觀</tspan><tspan x="0" y="14" class="st0 st1">念</tspan><tspan x="0" y="28" class="st0 st1">法</tspan><tspan x="0" y="42" class="st0 st1">門</tspan></text>
</svg>
