<?xml version="1.0" encoding="utf-8"?>
<!-- Generator: Adobe Illustrator 21.0.0, SVG Export Plug-In . SVG Version: 6.00 Build 0)  -->
<svg version="1.1" baseProfile="tiny" id="图层_1"
	 xmlns="http://www.w3.org/2000/svg" xmlns:xlink="http://www.w3.org/1999/xlink" x="0px" y="0px" viewBox="0 0 361.3 458.4"
	 overflow="scroll" xml:space="preserve">
<text transform="matrix(1 0 0 1 163.6671 22.5938)" font-family="'KaiTi'" font-size="10px">化</text>
<text transform="matrix(1 0 0 1 173.6671 22.5938)" font-family="'KaiTi'" font-size="10px"> </text>
<text transform="matrix(1 0 0 1 183.6671 22.5938)" font-family="'KaiTi'" font-size="10px">前</text>
<text transform="matrix(1 0 0 1 193.6671 22.5938)" font-family="'KaiTi'" font-size="10px"> </text>
<text transform="matrix(1 0 0 1 203.6671 22.5938)" font-family="'KaiTi'" font-size="10px">序</text>
<text transform="matrix(1 0 0 1 163.6671 36.5938)" font-family="'KaiTi'" font-size="10px">禁</text>
<text transform="matrix(1 0 0 1 173.6671 36.5938)" font-family="'KaiTi'" font-size="10px"> </text>
<text transform="matrix(1 0 0 1 183.6671 36.5938)" font-family="'KaiTi'" font-size="10px">父</text>
<text transform="matrix(1 0 0 1 193.6671 36.5938)" font-family="'KaiTi'" font-size="10px"> </text>
<text transform="matrix(1 0 0 1 203.6671 36.5938)" font-family="'KaiTi'" font-size="10px">缘</text>
<text transform="matrix(1 0 0 1 163.6671 50.5938)" font-family="'KaiTi'" font-size="10px">禁</text>
<text transform="matrix(1 0 0 1 173.6671 50.5938)" font-family="'KaiTi'" font-size="10px"> </text>
<text transform="matrix(1 0 0 1 183.6671 50.5938)" font-family="'KaiTi'" font-size="10px">母</text>
<text transform="matrix(1 0 0 1 193.6671 50.5938)" font-family="'KaiTi'" font-size="10px"> </text>
<text transform="matrix(1 0 0 1 203.6671 50.5938)" font-family="'KaiTi'" font-size="10px">缘</text>
<text transform="matrix(1 0 0 1 163.6671 64.5938)" font-family="'KaiTi'" font-size="10px">厌</text>
<text transform="matrix(1 0 0 1 173.6671 64.5938)" font-family="'KaiTi'" font-size="10px"> </text>
<text transform="matrix(1 0 0 1 183.6671 64.5938)" font-family="'KaiTi'" font-size="10px">苦</text>
<text transform="matrix(1 0 0 1 193.6671 64.5938)" font-family="'KaiTi'" font-size="10px"> </text>
<text transform="matrix(1 0 0 1 203.6671 64.5938)" font-family="'KaiTi'" font-size="10px">缘</text>
<text transform="matrix(1 0 0 1 163.6671 78.5938)" font-family="'KaiTi'" font-size="10px">欣</text>
<text transform="matrix(1 0 0 1 173.6671 78.5938)" font-family="'KaiTi'" font-size="10px"> </text>
<text transform="matrix(1 0 0 1 183.6671 78.5938)" font-family="'KaiTi'" font-size="10px">净</text>
<text transform="matrix(1 0 0 1 193.6671 78.5938)" font-family="'KaiTi'" font-size="10px"> </text>
<text transform="matrix(1 0 0 1 203.6671 78.5938)" font-family="'KaiTi'" font-size="10px">缘</text>
<text transform="matrix(1 0 0 1 163.6671 92.5938)" font-family="'KaiTi'" font-size="10px">散</text>
<text transform="matrix(1 0 0 1 173.6671 92.5938)" font-family="'KaiTi'" font-size="10px">善</text>
<text transform="matrix(1 0 0 1 183.6671 92.5938)" font-family="'KaiTi'" font-size="10px">显</text>
<text transform="matrix(1 0 0 1 193.6671 92.5938)" font-family="'KaiTi'" font-size="10px">行</text>
<text transform="matrix(1 0 0 1 203.6671 92.5938)" font-family="'KaiTi'" font-size="10px">缘</text>
<text transform="matrix(1 0 0 1 163.6671 106.5938)" font-family="'KaiTi'" font-size="10px">定</text>
<text transform="matrix(1 0 0 1 173.6671 106.5938)" font-family="'KaiTi'" font-size="10px">善</text>
<text transform="matrix(1 0 0 1 183.6671 106.5938)" font-family="'KaiTi'" font-size="10px">示</text>
<text transform="matrix(1 0 0 1 193.6671 106.5938)" font-family="'KaiTi'" font-size="10px">观</text>
<text transform="matrix(1 0 0 1 203.6671 106.5938)" font-family="'KaiTi'" font-size="10px">缘</text>
<text transform="matrix(1 0 0 1 163.6671 120.5938)" font-family="'KaiTi'" font-size="10px">一</text>
<text transform="matrix(1 0 0 1 173.6671 120.5938)" font-family="'KaiTi'" font-size="10px"> </text>
<text transform="matrix(1 0 0 1 183.6671 120.5938)" font-family="'KaiTi'" font-size="10px">日</text>
<text transform="matrix(1 0 0 1 193.6671 120.5938)" font-family="'KaiTi'" font-size="10px"> </text>
<text transform="matrix(1 0 0 1 203.6671 120.5938)" font-family="'KaiTi'" font-size="10px">观</text>
<text transform="matrix(1 0 0 1 163.6671 134.5938)" font-family="'KaiTi'" font-size="10px">二</text>
<text transform="matrix(1 0 0 1 173.6671 134.5938)" font-family="'KaiTi'" font-size="10px"> </text>
<text transform="matrix(1 0 0 1 183.6671 134.5938)" font-family="'KaiTi'" font-size="10px">水</text>
<text transform="matrix(1 0 0 1 193.6671 134.5938)" font-family="'KaiTi'" font-size="10px"> </text>
<text transform="matrix(1 0 0 1 203.6671 134.5938)" font-family="'KaiTi'" font-size="10px">观</text>
<text transform="matrix(1 0 0 1 163.6671 148.5938)" font-family="'KaiTi'" font-size="10px">三</text>
<text transform="matrix(1 0 0 1 173.6671 148.5938)" font-family="'KaiTi'" font-size="10px"> </text>
<text transform="matrix(1 0 0 1 183.6671 148.5938)" font-family="'KaiTi'" font-size="10px">地</text>
<text transform="matrix(1 0 0 1 193.6671 148.5938)" font-family="'KaiTi'" font-size="10px"> </text>
<text transform="matrix(1 0 0 1 203.6671 148.5938)" font-family="'KaiTi'" font-size="10px">观</text>
<text transform="matrix(1 0 0 1 163.6671 162.5938)" font-family="'KaiTi'" font-size="10px">四</text>
<text transform="matrix(1 0 0 1 173.6671 162.5938)" font-family="'KaiTi'" font-size="10px"> </text>
<text transform="matrix(1 0 0 1 183.6671 162.5938)" font-family="'KaiTi'" font-size="10px">宝</text>
<text transform="matrix(1 0 0 1 193.6671 162.5938)" font-family="'KaiTi'" font-size="10px">树</text>
<text transform="matrix(1 0 0 1 203.6671 162.5938)" font-family="'KaiTi'" font-size="10px">观</text>
<text transform="matrix(1 0 0 1 163.6671 176.5938)" font-family="'KaiTi'" font-size="10px">五</text>
<text transform="matrix(1 0 0 1 173.6671 176.5938)" font-family="'KaiTi'" font-size="10px"> </text>
<text transform="matrix(1 0 0 1 183.6671 176.5938)" font-family="'KaiTi'" font-size="10px">宝</text>
<text transform="matrix(1 0 0 1 193.6671 176.5938)" font-family="'KaiTi'" font-size="10px">池</text>
<text transform="matrix(1 0 0 1 203.6671 176.5938)" font-family="'KaiTi'" font-size="10px">观</text>
<text transform="matrix(1 0 0 1 163.6671 190.5938)" font-family="'KaiTi'" font-size="10px">六</text>
<text transform="matrix(1 0 0 1 173.6671 190.5938)" font-family="'KaiTi'" font-size="10px"> </text>
<text transform="matrix(1 0 0 1 183.6671 190.5938)" font-family="'KaiTi'" font-size="10px">宝</text>
<text transform="matrix(1 0 0 1 193.6671 190.5938)" font-family="'KaiTi'" font-size="10px">楼</text>
<text transform="matrix(1 0 0 1 203.6671 190.5938)" font-family="'KaiTi'" font-size="10px">观</text>
<text transform="matrix(1 0 0 1 163.6671 204.5938)" font-family="'KaiTi'" font-size="10px">七</text>
<text transform="matrix(1 0 0 1 173.6671 204.5938)" font-family="'KaiTi'" font-size="10px"> </text>
<text transform="matrix(1 0 0 1 183.6671 204.5938)" font-family="'KaiTi'" font-size="10px">华</text>
<text transform="matrix(1 0 0 1 193.6671 204.5938)" font-family="'KaiTi'" font-size="10px">座</text>
<text transform="matrix(1 0 0 1 203.6671 204.5938)" font-family="'KaiTi'" font-size="10px">观</text>
<text transform="matrix(1 0 0 1 163.6671 218.5938)" font-family="'KaiTi'" font-size="10px">八</text>
<text transform="matrix(1 0 0 1 173.6671 218.5938)" font-family="'KaiTi'" font-size="10px"> </text>
<text transform="matrix(1 0 0 1 183.6671 218.5938)" font-family="'KaiTi'" font-size="10px">像</text>
<text transform="matrix(1 0 0 1 193.6671 218.5938)" font-family="'KaiTi'" font-size="10px"> </text>
<text transform="matrix(1 0 0 1 203.6671 218.5938)" font-family="'KaiTi'" font-size="10px">观</text>
<text transform="matrix(1 0 0 1 163.6671 232.5938)" font-family="'KaiTi'" font-size="10px">九</text>
<text transform="matrix(1 0 0 1 173.6671 232.5938)" font-family="'KaiTi'" font-size="10px"> </text>
<text transform="matrix(1 0 0 1 183.6671 232.5938)" font-family="'KaiTi'" font-size="10px">真</text>
<text transform="matrix(1 0 0 1 193.6671 232.5938)" font-family="'KaiTi'" font-size="10px">身</text>
<text transform="matrix(1 0 0 1 203.6671 232.5938)" font-family="'KaiTi'" font-size="10px">观</text>
<text transform="matrix(1 0 0 1 163.6671 246.5938)" font-family="'KaiTi'" font-size="10px">十</text>
<text transform="matrix(1 0 0 1 173.6671 246.5938)" font-family="'KaiTi'" font-size="10px"> </text>
<text transform="matrix(1 0 0 1 183.6671 246.5938)" font-family="'KaiTi'" font-size="10px">观</text>
<text transform="matrix(1 0 0 1 193.6671 246.5938)" font-family="'KaiTi'" font-size="10px">音</text>
<text transform="matrix(1 0 0 1 203.6671 246.5938)" font-family="'KaiTi'" font-size="10px">观</text>
<text transform="matrix(1 0 0 1 163.6671 260.5938)" font-family="'KaiTi'" font-size="10px">十</text>
<text transform="matrix(1 0 0 1 173.6671 260.5938)" font-family="'KaiTi'" font-size="10px">一</text>
<text transform="matrix(1 0 0 1 183.6671 260.5938)" font-family="'KaiTi'" font-size="10px">势</text>
<text transform="matrix(1 0 0 1 193.6671 260.5938)" font-family="'KaiTi'" font-size="10px">至</text>
<text transform="matrix(1 0 0 1 203.6671 260.5938)" font-family="'KaiTi'" font-size="10px">观</text>
<text transform="matrix(1 0 0 1 163.6671 274.5938)" font-family="'KaiTi'" font-size="10px">十</text>
<text transform="matrix(1 0 0 1 173.6671 274.5938)" font-family="'KaiTi'" font-size="10px">二</text>
<text transform="matrix(1 0 0 1 183.6671 274.5938)" font-family="'KaiTi'" font-size="10px">普</text>
<text transform="matrix(1 0 0 1 193.6671 274.5938)" font-family="'KaiTi'" font-size="10px"> </text>
<text transform="matrix(1 0 0 1 203.6671 274.5938)" font-family="'KaiTi'" font-size="10px">观</text>
<text transform="matrix(1 0 0 1 213.6671 274.5938)" font-family="'KaiTi'" font-size="10px"> </text>
<text transform="matrix(1 0 0 1 163.6671 288.5938)" font-family="'KaiTi'" font-size="10px">十</text>
<text transform="matrix(1 0 0 1 173.6671 288.5938)" font-family="'KaiTi'" font-size="10px">三</text>
<text transform="matrix(1 0 0 1 183.6671 288.5938)" font-family="'KaiTi'" font-size="10px">杂</text>
<text transform="matrix(1 0 0 1 193.6671 288.5938)" font-family="'KaiTi'" font-size="10px">想</text>
<text transform="matrix(1 0 0 1 203.6671 288.5938)" font-family="'KaiTi'" font-size="10px">观</text>
<text transform="matrix(1 0 0 1 163.6671 316.5938)" font-family="'KaiTi'" font-size="10px">十</text>
<text transform="matrix(1 0 0 1 173.6671 316.5938)" font-family="'KaiTi'" font-size="10px">四</text>
<text transform="matrix(1 0 0 1 183.6671 316.5938)" font-family="'KaiTi'" font-size="10px">上</text>
<text transform="matrix(1 0 0 1 193.6671 316.5938)" font-family="'KaiTi'" font-size="10px">辈</text>
<text transform="matrix(1 0 0 1 203.6671 316.5938)" font-family="'KaiTi'" font-size="10px">观</text>
<text transform="matrix(1 0 0 1 163.6671 358.5938)" font-family="'KaiTi'" font-size="10px">十</text>
<text transform="matrix(1 0 0 1 173.6671 358.5938)" font-family="'KaiTi'" font-size="10px">五</text>
<text transform="matrix(1 0 0 1 183.6671 358.5938)" font-family="'KaiTi'" font-size="10px">中</text>
<text transform="matrix(1 0 0 1 193.6671 358.5938)" font-family="'KaiTi'" font-size="10px">辈</text>
<text transform="matrix(1 0 0 1 203.6671 358.5938)" font-family="'KaiTi'" font-size="10px">观</text>
<text transform="matrix(1 0 0 1 163.6671 400.5938)" font-family="'KaiTi'" font-size="10px">十</text>
<text transform="matrix(1 0 0 1 173.6671 400.5938)" font-family="'KaiTi'" font-size="10px">六</text>
<text transform="matrix(1 0 0 1 183.6671 400.5938)" font-family="'KaiTi'" font-size="10px">下</text>
<text transform="matrix(1 0 0 1 193.6671 400.5938)" font-family="'KaiTi'" font-size="10px">辈</text>
<text transform="matrix(1 0 0 1 203.6671 400.5938)" font-family="'KaiTi'" font-size="10px">观</text>
<text transform="matrix(1 0 0 1 227.0003 50.5938)" font-family="'KaiTi'" font-size="10px">二</text>
<text transform="matrix(1 0 0 1 237.0003 50.5938)" font-family="'KaiTi'" font-size="10px">序</text>
<text transform="matrix(1 0 0 1 247.0003 50.5938)" font-family="'KaiTi'" font-size="10px">七</text>
<text transform="matrix(1 0 0 1 257.0003 50.5938)" font-family="'KaiTi'" font-size="10px">缘</text>
<text transform="matrix(1 0 0 1 227.0003 64.5938)" font-family="'KaiTi'" font-size="10px">三</text>
<text transform="matrix(1 0 0 1 237.0003 64.5938)" font-family="'KaiTi'" font-size="10px">序</text>
<text transform="matrix(1 0 0 1 247.0003 64.5938)" font-family="'KaiTi'" font-size="10px">六</text>
<text transform="matrix(1 0 0 1 257.0003 64.5938)" font-family="'KaiTi'" font-size="10px">缘</text>
<text transform="matrix(1 0 0 1 227.0003 127.5938)" font-family="'KaiTi'" font-size="10px">假</text>
<text transform="matrix(1 0 0 1 237.0003 127.5938)" font-family="'KaiTi'" font-size="10px"> </text>
<text transform="matrix(1 0 0 1 247.0003 127.5938)" font-family="'KaiTi'" font-size="10px"> </text>
<text transform="matrix(1 0 0 1 257.0003 127.5938)" font-family="'KaiTi'" font-size="10px">依</text>
<text transform="matrix(1 0 0 1 227.0003 169.5938)" font-family="'KaiTi'" font-size="10px">真</text>
<text transform="matrix(1 0 0 1 237.0003 169.5938)" font-family="'KaiTi'" font-size="10px"> </text>
<text transform="matrix(1 0 0 1 247.0003 169.5938)" font-family="'KaiTi'" font-size="10px"> </text>
<text transform="matrix(1 0 0 1 257.0003 169.5938)" font-family="'KaiTi'" font-size="10px">依</text>
<text transform="matrix(1 0 0 1 227.0003 218.5938)" font-family="'KaiTi'" font-size="10px">假</text>
<text transform="matrix(1 0 0 1 237.0003 218.5938)" font-family="'KaiTi'" font-size="10px"> </text>
<text transform="matrix(1 0 0 1 247.0003 218.5938)" font-family="'KaiTi'" font-size="10px"> </text>
<text transform="matrix(1 0 0 1 257.0003 218.5938)" font-family="'KaiTi'" font-size="10px">正</text>
<text transform="matrix(1 0 0 1 227.0003 232.5938)" font-family="'KaiTi'" font-size="10px">真</text>
<text transform="matrix(1 0 0 1 237.0003 232.5938)" font-family="'KaiTi'" font-size="10px"> </text>
<text transform="matrix(1 0 0 1 247.0003 232.5938)" font-family="'KaiTi'" font-size="10px"> </text>
<text transform="matrix(1 0 0 1 257.0003 232.5938)" font-family="'KaiTi'" font-size="10px">正</text>
<text transform="matrix(1 0 0 1 227.0003 302.5938)" font-family="'KaiTi'" font-size="10px">上</text>
<text transform="matrix(1 0 0 1 237.0003 302.5938)" font-family="'KaiTi'" font-size="10px">品</text>
<text transform="matrix(1 0 0 1 247.0003 302.5938)" font-family="'KaiTi'" font-size="10px">上</text>
<text transform="matrix(1 0 0 1 257.0003 302.5938)" font-family="'KaiTi'" font-size="10px">生</text>
<text transform="matrix(1 0 0 1 227.0003 316.5938)" font-family="'KaiTi'" font-size="10px">上</text>
<text transform="matrix(1 0 0 1 237.0003 316.5938)" font-family="'KaiTi'" font-size="10px">品</text>
<text transform="matrix(1 0 0 1 247.0003 316.5938)" font-family="'KaiTi'" font-size="10px">中</text>
<text transform="matrix(1 0 0 1 257.0003 316.5938)" font-family="'KaiTi'" font-size="10px">生</text>
<text transform="matrix(1 0 0 1 227.0003 330.5938)" font-family="'KaiTi'" font-size="10px">上</text>
<text transform="matrix(1 0 0 1 237.0003 330.5938)" font-family="'KaiTi'" font-size="10px">品</text>
<text transform="matrix(1 0 0 1 247.0003 330.5938)" font-family="'KaiTi'" font-size="10px">下</text>
<text transform="matrix(1 0 0 1 257.0003 330.5938)" font-family="'KaiTi'" font-size="10px">生</text>
<text transform="matrix(1 0 0 1 227.0003 344.5938)" font-family="'KaiTi'" font-size="10px">中</text>
<text transform="matrix(1 0 0 1 237.0003 344.5938)" font-family="'KaiTi'" font-size="10px">品</text>
<text transform="matrix(1 0 0 1 247.0003 344.5938)" font-family="'KaiTi'" font-size="10px">上</text>
<text transform="matrix(1 0 0 1 257.0003 344.5938)" font-family="'KaiTi'" font-size="10px">生</text>
<text transform="matrix(1 0 0 1 227.0003 358.5938)" font-family="'KaiTi'" font-size="10px">中</text>
<text transform="matrix(1 0 0 1 237.0003 358.5938)" font-family="'KaiTi'" font-size="10px">品</text>
<text transform="matrix(1 0 0 1 247.0003 358.5938)" font-family="'KaiTi'" font-size="10px">中</text>
<text transform="matrix(1 0 0 1 257.0003 358.5938)" font-family="'KaiTi'" font-size="10px">生</text>
<text transform="matrix(1 0 0 1 227.0003 372.5938)" font-family="'KaiTi'" font-size="10px">中</text>
<text transform="matrix(1 0 0 1 237.0003 372.5938)" font-family="'KaiTi'" font-size="10px">品</text>
<text transform="matrix(1 0 0 1 247.0003 372.5938)" font-family="'KaiTi'" font-size="10px">下</text>
<text transform="matrix(1 0 0 1 257.0003 372.5938)" font-family="'KaiTi'" font-size="10px">生</text>
<text transform="matrix(1 0 0 1 227.0003 386.5938)" font-family="'KaiTi'" font-size="10px">下</text>
<text transform="matrix(1 0 0 1 237.0003 386.5938)" font-family="'KaiTi'" font-size="10px">品</text>
<text transform="matrix(1 0 0 1 247.0003 386.5938)" font-family="'KaiTi'" font-size="10px">上</text>
<text transform="matrix(1 0 0 1 257.0003 386.5938)" font-family="'KaiTi'" font-size="10px">生</text>
<text transform="matrix(1 0 0 1 227.0003 400.5938)" font-family="'KaiTi'" font-size="10px">下</text>
<text transform="matrix(1 0 0 1 237.0003 400.5938)" font-family="'KaiTi'" font-size="10px">品</text>
<text transform="matrix(1 0 0 1 247.0003 400.5938)" font-family="'KaiTi'" font-size="10px">中</text>
<text transform="matrix(1 0 0 1 257.0003 400.5938)" font-family="'KaiTi'" font-size="10px">生</text>
<text transform="matrix(1 0 0 1 227.0003 414.5938)" font-family="'KaiTi'" font-size="10px">下</text>
<text transform="matrix(1 0 0 1 237.0003 414.5938)" font-family="'KaiTi'" font-size="10px">品</text>
<text transform="matrix(1 0 0 1 247.0003 414.5938)" font-family="'KaiTi'" font-size="10px">下</text>
<text transform="matrix(1 0 0 1 257.0003 414.5938)" font-family="'KaiTi'" font-size="10px">生</text>
<text transform="matrix(1 0 0 1 281.25 148.5938)" font-family="'KaiTi'" font-size="10px">通依报</text>
<text transform="matrix(1 0 0 1 281.25 204.5938)" font-family="'KaiTi'" font-size="10px">别依报</text>
<text transform="matrix(1 0 0 1 281.25 225.5938)" font-family="'KaiTi'" font-size="10px">别正报</text>
<text transform="matrix(1 0 0 1 281.25 267.5938)" font-family="'KaiTi'" font-size="10px">通正报</text>
<text transform="matrix(1 0 0 1 281.25 302.5938)" font-family="'KaiTi'" font-size="10px">大乘上善之凡夫人</text>
<text transform="matrix(1 0 0 1 281.25 316.5938)" font-family="'KaiTi'" font-size="10px">大乘次善之凡夫人</text>
<text transform="matrix(1 0 0 1 281.25 330.5938)" font-family="'KaiTi'" font-size="10px">大乘下善之凡夫人</text>
<text transform="matrix(1 0 0 1 281.25 344.5938)" font-family="'KaiTi'" font-size="10px">小乘上善之凡夫人</text>
<text transform="matrix(1 0 0 1 281.25 358.5938)" font-family="'KaiTi'" font-size="10px">小乘次善之凡夫人</text>
<text transform="matrix(1 0 0 1 281.25 372.5938)" font-family="'KaiTi'" font-size="10px">世善上福之凡夫人</text>
<text transform="matrix(1 0 0 1 281.25 386.5938)" font-family="'KaiTi'" font-size="10px">十恶轻罪之凡夫人</text>
<text transform="matrix(1 0 0 1 281.25 400.5938)" font-family="'KaiTi'" font-size="10px">破戒次罪之凡夫人</text>
<text transform="matrix(1 0 0 1 281.25 414.5938)" font-family="'KaiTi'" font-size="10px">五逆重罪之凡夫人</text>
<text transform="matrix(1 0 0 1 325.084 176.5938)" font-family="'KaiTi'" font-size="10px">依报</text>
<text transform="matrix(1 0 0 1 325.084 246.5938)" font-family="'KaiTi'" font-size="10px">正报</text>
<text transform="matrix(1 0 0 1 120 8.5938)" font-family="'KaiTi'" font-size="10px">证</text>
<text transform="matrix(1 0 0 1 130 8.5938)" font-family="'KaiTi'" font-size="10px">信</text>
<text transform="matrix(1 0 0 1 140 8.5938)" font-family="'KaiTi'" font-size="10px">序</text>
<text transform="matrix(1 0 0 1 120 64.5938)" font-family="'KaiTi'" font-size="10px">发</text>
<text transform="matrix(1 0 0 1 130 64.5938)" font-family="'KaiTi'" font-size="10px">起</text>
<text transform="matrix(1 0 0 1 140 64.5938)" font-family="'KaiTi'" font-size="10px">序</text>
<text transform="matrix(1 0 0 1 120 204.5938)" font-family="'KaiTi'" font-size="10px">定</text>
<text transform="matrix(1 0 0 1 130 204.5938)" font-family="'KaiTi'" font-size="10px">善</text>
<text transform="matrix(1 0 0 1 140 204.5938)" font-family="'KaiTi'" font-size="10px">门</text>
<text transform="matrix(1 0 0 1 120 358.5938)" font-family="'KaiTi'" font-size="10px">散</text>
<text transform="matrix(1 0 0 1 130 358.5938)" font-family="'KaiTi'" font-size="10px">善</text>
<text transform="matrix(1 0 0 1 140 358.5938)" font-family="'KaiTi'" font-size="10px">门</text>
<text transform="matrix(1 0 0 1 120 428.5938)" font-family="'KaiTi'" font-size="10px">序</text>
<text transform="matrix(1 0 0 1 130 428.5938)" font-family="'KaiTi'" font-size="10px"> </text>
<text transform="matrix(1 0 0 1 140 428.5938)" font-family="'KaiTi'" font-size="10px">分</text>
<text transform="matrix(1 0 0 1 150 428.5938)" font-family="'KaiTi'" font-size="10px"> </text>
<text transform="matrix(1 0 0 1 120 442.5938)" font-family="'KaiTi'" font-size="10px">正</text>
<text transform="matrix(1 0 0 1 130 442.5938)" font-family="'KaiTi'" font-size="10px">宗</text>
<text transform="matrix(1 0 0 1 140 442.5938)" font-family="'KaiTi'" font-size="10px">分</text>
<text transform="matrix(1 0 0 1 120 456.5938)" font-family="'KaiTi'" font-size="10px">流</text>
<text transform="matrix(1 0 0 1 130 456.5938)" font-family="'KaiTi'" font-size="10px">通</text>
<text transform="matrix(1 0 0 1 140 456.5938)" font-family="'KaiTi'" font-size="10px">分</text>
<text transform="matrix(1 0 0 1 76.5 36.5938)" font-family="'KaiTi'" font-size="10px">序</text>
<text transform="matrix(1 0 0 1 86.5 36.5938)" font-family="'KaiTi'" font-size="10px"> </text>
<text transform="matrix(1 0 0 1 96.5 36.5938)" font-family="'KaiTi'" font-size="10px">分</text>
<text transform="matrix(1 0 0 1 76.5 281.5938)" font-family="'KaiTi'" font-size="10px">正</text>
<text transform="matrix(1 0 0 1 86.5 281.5938)" font-family="'KaiTi'" font-size="10px">宗</text>
<text transform="matrix(1 0 0 1 96.5 281.5938)" font-family="'KaiTi'" font-size="10px">分</text>
<text transform="matrix(1 0 0 1 76.5 386.5938)" font-family="'KaiTi'" font-size="10px">得</text>
<text transform="matrix(1 0 0 1 86.5 386.5938)" font-family="'KaiTi'" font-size="10px">益</text>
<text transform="matrix(1 0 0 1 96.5 386.5938)" font-family="'KaiTi'" font-size="10px">分</text>
<text transform="matrix(1 0 0 1 76.5 414.5938)" font-family="'KaiTi'" font-size="10px">流</text>
<text transform="matrix(1 0 0 1 86.5 414.5938)" font-family="'KaiTi'" font-size="10px">通</text>
<text transform="matrix(1 0 0 1 96.5 414.5938)" font-family="'KaiTi'" font-size="10px">分</text>
<text transform="matrix(1 0 0 1 76.5 442.5938)" font-family="'KaiTi'" font-size="10px">耆</text>
<text transform="matrix(1 0 0 1 86.5 442.5938)" font-family="'KaiTi'" font-size="10px">闍</text>
<text transform="matrix(1 0 0 1 96.5 442.5938)" font-family="'KaiTi'" font-size="10px">分</text>
<text transform="matrix(1 0 0 1 33 131.0938)" font-family="'KaiTi'" font-size="10px">王宫会</text>
<text transform="matrix(1 0 0 1 33 442.5938)" font-family="'KaiTi'" font-size="10px">耆闍会</text>
<text transform="matrix(1 0 0 1 0 285.0938)" font-family="'KaiTi'" font-size="10px">观经</text>
<g>
	<line fill="none" stroke="#000000" stroke-width="0.5" stroke-miterlimit="10" x1="26.4" y1="128.1" x2="26.4" y2="439.8"/>
	<line fill="none" stroke="#000000" stroke-width="0.5" stroke-miterlimit="10" x1="26.4" y1="128.1" x2="30.1" y2="128.1"/>
	<line fill="none" stroke="#000000" stroke-width="0.5" stroke-miterlimit="10" x1="26.4" y1="439.8" x2="30.1" y2="439.8"/>
	<line fill="none" stroke="#000000" stroke-width="0.5" stroke-miterlimit="10" x1="26.4" y1="281" x2="22.6" y2="281"/>
</g>
<g>
	<line fill="none" stroke="#000000" stroke-width="0.5" stroke-miterlimit="10" x1="70.1" y1="33.4" x2="70.1" y2="411.8"/>
	<line fill="none" stroke="#000000" stroke-width="0.5" stroke-miterlimit="10" x1="70.1" y1="33.4" x2="73.8" y2="33.4"/>
	<line fill="none" stroke="#000000" stroke-width="0.5" stroke-miterlimit="10" x1="70.1" y1="278.8" x2="73.8" y2="278.8"/>
	<line fill="none" stroke="#000000" stroke-width="0.5" stroke-miterlimit="10" x1="70.1" y1="128.1" x2="66.3" y2="128.1"/>
</g>
<g>
	<line fill="none" stroke="#000000" stroke-width="0.5" stroke-miterlimit="10" x1="112.8" y1="5.1" x2="112.8" y2="61.6"/>
	<line fill="none" stroke="#000000" stroke-width="0.5" stroke-miterlimit="10" x1="112.8" y1="5.1" x2="116.5" y2="5.1"/>
	<line fill="none" stroke="#000000" stroke-width="0.5" stroke-miterlimit="10" x1="112.8" y1="61.6" x2="116.5" y2="61.6"/>
	<line fill="none" stroke="#000000" stroke-width="0.5" stroke-miterlimit="10" x1="112.8" y1="33.4" x2="109" y2="33.4"/>
</g>
<g>
	<line fill="none" stroke="#000000" stroke-width="0.5" stroke-miterlimit="10" x1="112.9" y1="201.4" x2="112.9" y2="355.1"/>
	<line fill="none" stroke="#000000" stroke-width="0.5" stroke-miterlimit="10" x1="112.9" y1="201.4" x2="116.6" y2="201.4"/>
	<line fill="none" stroke="#000000" stroke-width="0.5" stroke-miterlimit="10" x1="112.9" y1="355.1" x2="116.6" y2="355.1"/>
	<line fill="none" stroke="#000000" stroke-width="0.5" stroke-miterlimit="10" x1="112.9" y1="278.9" x2="109.1" y2="278.9"/>
</g>
<line fill="none" stroke="#000000" stroke-width="0.5" stroke-miterlimit="10" x1="70.1" y1="383.1" x2="73.8" y2="383.1"/>
<line fill="none" stroke="#000000" stroke-width="0.5" stroke-miterlimit="10" x1="70.1" y1="411.8" x2="73.8" y2="411.8"/>
<line fill="none" stroke="#000000" stroke-width="0.5" stroke-miterlimit="10" x1="65.8" y1="439.9" x2="73.8" y2="439.9"/>
<g>
	<line fill="none" stroke="#000000" stroke-width="0.5" stroke-miterlimit="10" x1="112.9" y1="425.3" x2="112.9" y2="453.9"/>
	<line fill="none" stroke="#000000" stroke-width="0.5" stroke-miterlimit="10" x1="112.9" y1="425.3" x2="116.6" y2="425.3"/>
	<line fill="none" stroke="#000000" stroke-width="0.5" stroke-miterlimit="10" x1="112.9" y1="453.9" x2="116.6" y2="453.9"/>
	<line fill="none" stroke="#000000" stroke-width="0.5" stroke-miterlimit="10" x1="112.9" y1="439.9" x2="109.1" y2="439.9"/>
</g>
<g>
	<line fill="none" stroke="#000000" stroke-width="0.5" stroke-miterlimit="10" x1="156.6" y1="19.3" x2="156.6" y2="103.3"/>
	<line fill="none" stroke="#000000" stroke-width="0.5" stroke-miterlimit="10" x1="156.6" y1="19.3" x2="160.3" y2="19.3"/>
	<line fill="none" stroke="#000000" stroke-width="0.5" stroke-miterlimit="10" x1="156.6" y1="103.3" x2="160.3" y2="103.3"/>
	<line fill="none" stroke="#000000" stroke-width="0.5" stroke-miterlimit="10" x1="156.6" y1="61.7" x2="152.8" y2="61.7"/>
</g>
<g>
	<line fill="none" stroke="#000000" stroke-width="0.5" stroke-miterlimit="10" x1="156.6" y1="116.5" x2="156.6" y2="285.2"/>
	<line fill="none" stroke="#000000" stroke-width="0.5" stroke-miterlimit="10" x1="156.6" y1="116.5" x2="160.3" y2="116.5"/>
	<line fill="none" stroke="#000000" stroke-width="0.5" stroke-miterlimit="10" x1="156.6" y1="285.2" x2="160.3" y2="285.2"/>
	<line fill="none" stroke="#000000" stroke-width="0.5" stroke-miterlimit="10" x1="156.6" y1="201.4" x2="152.8" y2="201.4"/>
</g>
<g>
	<line fill="none" stroke="#000000" stroke-width="0.5" stroke-miterlimit="10" x1="156.7" y1="312.3" x2="156.7" y2="397.1"/>
	<line fill="none" stroke="#000000" stroke-width="0.5" stroke-miterlimit="10" x1="156.7" y1="312.3" x2="160.4" y2="312.3"/>
	<line fill="none" stroke="#000000" stroke-width="0.5" stroke-miterlimit="10" x1="156.7" y1="397.1" x2="160.4" y2="397.1"/>
	<line fill="none" stroke="#000000" stroke-width="0.5" stroke-miterlimit="10" x1="156.7" y1="355.1" x2="152.9" y2="355.1"/>
</g>
<g>
	<line fill="none" stroke="#000000" stroke-width="0.5" stroke-miterlimit="10" x1="220.8" y1="298" x2="220.8" y2="326.7"/>
	<line fill="none" stroke="#000000" stroke-width="0.5" stroke-miterlimit="10" x1="220.8" y1="298" x2="224.5" y2="298"/>
	<line fill="none" stroke="#000000" stroke-width="0.5" stroke-miterlimit="10" x1="220.8" y1="326.7" x2="224.5" y2="326.7"/>
	<line fill="none" stroke="#000000" stroke-width="0.5" stroke-miterlimit="10" x1="220.8" y1="312.7" x2="217" y2="312.7"/>
</g>
<g>
	<line fill="none" stroke="#000000" stroke-width="0.5" stroke-miterlimit="10" x1="220.9" y1="340.4" x2="220.9" y2="369.1"/>
	<line fill="none" stroke="#000000" stroke-width="0.5" stroke-miterlimit="10" x1="220.9" y1="340.4" x2="224.6" y2="340.4"/>
	<line fill="none" stroke="#000000" stroke-width="0.5" stroke-miterlimit="10" x1="220.9" y1="369.1" x2="224.6" y2="369.1"/>
	<line fill="none" stroke="#000000" stroke-width="0.5" stroke-miterlimit="10" x1="220.9" y1="355.1" x2="217.1" y2="355.1"/>
</g>
<g>
	<line fill="none" stroke="#000000" stroke-width="0.5" stroke-miterlimit="10" x1="220.9" y1="382.8" x2="220.9" y2="411.4"/>
	<line fill="none" stroke="#000000" stroke-width="0.5" stroke-miterlimit="10" x1="220.9" y1="382.8" x2="224.6" y2="382.8"/>
	<line fill="none" stroke="#000000" stroke-width="0.5" stroke-miterlimit="10" x1="220.9" y1="411.4" x2="224.6" y2="411.4"/>
	<line fill="none" stroke="#000000" stroke-width="0.5" stroke-miterlimit="10" x1="220.9" y1="397.4" x2="217.1" y2="397.4"/>
</g>
<g>
	<line fill="none" stroke="#000000" stroke-width="0.5" stroke-miterlimit="10" x1="220.8" y1="187.1" x2="220.8" y2="144.7"/>
	<line fill="none" stroke="#000000" stroke-width="0.5" stroke-miterlimit="10" x1="220.8" y1="187.1" x2="217.1" y2="187.1"/>
	<line fill="none" stroke="#000000" stroke-width="0.5" stroke-miterlimit="10" x1="220.8" y1="144.7" x2="217.1" y2="144.7"/>
	<line fill="none" stroke="#000000" stroke-width="0.5" stroke-miterlimit="10" x1="220.8" y1="166" x2="224.6" y2="166"/>
</g>
<line fill="none" stroke="#000000" stroke-width="0.5" stroke-miterlimit="10" x1="217.1" y1="214.8" x2="224.6" y2="214.8"/>
<line fill="none" stroke="#000000" stroke-width="0.5" stroke-miterlimit="10" x1="217.1" y1="229.1" x2="224.6" y2="229.1"/>
<g>
	<line fill="none" stroke="#000000" stroke-width="0.5" stroke-miterlimit="10" x1="220.7" y1="131.8" x2="220.7" y2="116"/>
	<line fill="none" stroke="#000000" stroke-width="0.5" stroke-miterlimit="10" x1="220.8" y1="131.8" x2="217.1" y2="131.8"/>
	<line fill="none" stroke="#000000" stroke-width="0.5" stroke-miterlimit="10" x1="220.7" y1="116" x2="217" y2="116"/>
	<line fill="none" stroke="#000000" stroke-width="0.5" stroke-miterlimit="10" x1="220.7" y1="123.9" x2="224.5" y2="123.9"/>
</g>
<g>
	<line fill="none" stroke="#000000" stroke-width="0.5" stroke-miterlimit="10" x1="220.7" y1="103.3" x2="220.7" y2="5.1"/>
	<line fill="none" stroke="#000000" stroke-width="0.5" stroke-miterlimit="10" x1="220.8" y1="103.3" x2="217.1" y2="103.3"/>
	<line fill="none" stroke="#000000" stroke-width="0.5" stroke-miterlimit="10" x1="220.7" y1="5.1" x2="152.8" y2="5.1"/>
	<line fill="none" stroke="#000000" stroke-width="0.5" stroke-miterlimit="10" x1="220.7" y1="53.8" x2="224.5" y2="53.8"/>
</g>
<g>
	<line fill="none" stroke="#000000" stroke-width="0.5" stroke-miterlimit="10" x1="274" y1="165.9" x2="274" y2="123.5"/>
	<line fill="none" stroke="#000000" stroke-width="0.5" stroke-miterlimit="10" x1="274" y1="165.9" x2="270.3" y2="165.9"/>
	<line fill="none" stroke="#000000" stroke-width="0.5" stroke-miterlimit="10" x1="274" y1="123.5" x2="270.3" y2="123.5"/>
	<line fill="none" stroke="#000000" stroke-width="0.5" stroke-miterlimit="10" x1="274" y1="144.8" x2="277.8" y2="144.8"/>
</g>
<line fill="none" stroke="#000000" stroke-width="0.5" stroke-miterlimit="10" x1="217.1" y1="200.5" x2="277.8" y2="200.5"/>
<g>
	<line fill="none" stroke="#000000" stroke-width="0.5" stroke-miterlimit="10" x1="318.3" y1="200.5" x2="318.3" y2="144.8"/>
	<line fill="none" stroke="#000000" stroke-width="0.5" stroke-miterlimit="10" x1="318.3" y1="200.5" x2="314.6" y2="200.5"/>
	<line fill="none" stroke="#000000" stroke-width="0.5" stroke-miterlimit="10" x1="318.3" y1="144.8" x2="314.6" y2="144.8"/>
	<line fill="none" stroke="#000000" stroke-width="0.5" stroke-miterlimit="10" x1="318.3" y1="173.8" x2="322.1" y2="173.8"/>
</g>
<g>
	<line fill="none" stroke="#000000" stroke-width="0.5" stroke-miterlimit="10" x1="273.9" y1="229.1" x2="273.9" y2="214.8"/>
	<line fill="none" stroke="#000000" stroke-width="0.5" stroke-miterlimit="10" x1="273.9" y1="229.1" x2="270.2" y2="229.1"/>
	<line fill="none" stroke="#000000" stroke-width="0.5" stroke-miterlimit="10" x1="273.9" y1="214.8" x2="270.2" y2="214.8"/>
	<line fill="none" stroke="#000000" stroke-width="0.5" stroke-miterlimit="10" x1="273.9" y1="221.9" x2="277.7" y2="221.9"/>
</g>
<g>
	<line fill="none" stroke="#000000" stroke-width="0.5" stroke-miterlimit="10" x1="273.9" y1="285.2" x2="273.9" y2="243.1"/>
	<line fill="none" stroke="#000000" stroke-width="0.5" stroke-miterlimit="10" x1="273.9" y1="285.2" x2="217" y2="285.2"/>
	<line fill="none" stroke="#000000" stroke-width="0.5" stroke-miterlimit="10" x1="273.9" y1="243.4" x2="217" y2="243.4"/>
	<line fill="none" stroke="#000000" stroke-width="0.5" stroke-miterlimit="10" x1="273.9" y1="264.4" x2="277.7" y2="264.4"/>
</g>
<g>
	<line fill="none" stroke="#000000" stroke-width="0.5" stroke-miterlimit="10" x1="318.2" y1="264.4" x2="318.2" y2="221.9"/>
	<line fill="none" stroke="#000000" stroke-width="0.5" stroke-miterlimit="10" x1="318.2" y1="264.2" x2="314.5" y2="264.2"/>
	<line fill="none" stroke="#000000" stroke-width="0.5" stroke-miterlimit="10" x1="318.3" y1="221.9" x2="314.6" y2="221.9"/>
	<line fill="none" stroke="#000000" stroke-width="0.5" stroke-miterlimit="10" x1="318.2" y1="243.4" x2="322" y2="243.4"/>
</g>
<line fill="none" stroke="#000000" stroke-width="0.5" stroke-miterlimit="10" x1="270.2" y1="298" x2="277.7" y2="298"/>
<line fill="none" stroke="#000000" stroke-width="0.5" stroke-miterlimit="10" x1="270.1" y1="312.7" x2="277.6" y2="312.7"/>
<line fill="none" stroke="#000000" stroke-width="0.5" stroke-miterlimit="10" x1="270.2" y1="326.7" x2="277.7" y2="326.7"/>
<line fill="none" stroke="#000000" stroke-width="0.5" stroke-miterlimit="10" x1="270.1" y1="340.4" x2="277.6" y2="340.4"/>
<line fill="none" stroke="#000000" stroke-width="0.5" stroke-miterlimit="10" x1="270.2" y1="355.1" x2="277.7" y2="355.1"/>
<line fill="none" stroke="#000000" stroke-width="0.5" stroke-miterlimit="10" x1="270.1" y1="369.1" x2="277.6" y2="369.1"/>
<line fill="none" stroke="#000000" stroke-width="0.5" stroke-miterlimit="10" x1="270.1" y1="382.8" x2="277.6" y2="382.8"/>
<line fill="none" stroke="#000000" stroke-width="0.5" stroke-miterlimit="10" x1="270.1" y1="397.4" x2="277.6" y2="397.4"/>
<line fill="none" stroke="#000000" stroke-width="0.5" stroke-miterlimit="10" x1="270.2" y1="411.4" x2="277.7" y2="411.4"/>
</svg>
