<?xml version="1.0" encoding="utf-8"?>
<!-- Generator: Adobe Illustrator 21.0.0, SVG Export Plug-In . SVG Version: 6.00 Build 0)  -->
<svg version="1.1" baseProfile="tiny" id="圖層_1"
	 xmlns="http://www.w3.org/2000/svg" xmlns:xlink="http://www.w3.org/1999/xlink" x="0px" y="0px" viewBox="0 0 302.5 96.4"
	 overflow="scroll" xml:space="preserve">
<text transform="matrix(1 0 0 1 -1.087189e-04 33.4264)" font-family="KaiTi" font-size="10px">觀經</text>
<text transform="matrix(1 0 0 1 30.3503 8.5938)" font-family="KaiTi" font-size="10px">定善</text>
<text transform="matrix(1 0 0 1 60.429 30.1274)" font-family="KaiTi" font-size="10px">上</text>
<text transform="matrix(1 0 0 1 73.929 30.1274)" font-family="KaiTi" font-size="10px">三</text>
<text transform="matrix(1 0 0 1 87.429 30.1274)" font-family="KaiTi" font-size="10px">品</text>
<text transform="matrix(1 0 0 1 60.429 58.1274)" font-family="KaiTi" font-size="10px">中</text>
<text transform="matrix(1 0 0 1 60.429 86.1274)" font-family="KaiTi" font-size="10px">下</text>
<text transform="matrix(1 0 0 1 73.929 86.1274)" font-family="KaiTi" font-size="10px">三</text>
<text transform="matrix(1 0 0 1 87.429 86.1274)" font-family="KaiTi" font-size="10px">品</text>
<text transform="matrix(1 0 0 1 77.7756 44.127)" font-family="KaiTi" font-size="10px">上品</text>
<text transform="matrix(1 0 0 1 77.7756 58.127)" font-family="KaiTi" font-size="10px">中品</text>
<text transform="matrix(1 0 0 1 77.7756 72.127)" font-family="KaiTi" font-size="10px">下品</text>
<text transform="matrix(1 0 0 1 139.0137 79.5268)" font-family="KaiTi" font-size="10px">顯(萬行隨一)</text>
<text transform="matrix(1 0 0 1 139.0137 93.5268)" font-family="KaiTi" font-size="10px">隱(非定非散)</text>
<text transform="matrix(1 0 0 1 212.4251 8.5938)" font-family="KaiTi" font-size="10px">十三定觀</text>
<text transform="matrix(1 0 0 1 262.4645 31.8282)" font-family="KaiTi" font-size="10px">方便要門</text>
<text transform="matrix(1 0 0 1 108.9564 30.1274)" font-family="KaiTi" font-size="10px">行福</text>
<text transform="matrix(1 0 0 1 108.9564 72.1274)" font-family="KaiTi" font-size="10px">世福</text>
<text transform="matrix(1 0 0 1 108.9564 86.1274)" font-family="KaiTi" font-size="10px">念佛</text>
<text transform="matrix(1 0 0 1 108.9567 51.2946)" font-family="KaiTi" font-size="10px">戒福</text>
<line fill="none" stroke="#000000" stroke-width="0.5" stroke-miterlimit="10" x1="71" y1="55.4" x2="73.9" y2="55.4"/>
<line fill="none" stroke="#000000" stroke-width="0.5" stroke-miterlimit="10" x1="73.9" y1="41.7" x2="76.8" y2="41.7"/>
<line fill="none" stroke="#000000" stroke-width="0.5" stroke-miterlimit="10" x1="73.9" y1="69.1" x2="76.8" y2="69.1"/>
<line fill="none" stroke="#000000" stroke-width="0.5" stroke-miterlimit="10" x1="73.9" y1="41.5" x2="73.9" y2="69.4"/>
<line fill="none" stroke="#000000" stroke-width="0.5" stroke-miterlimit="10" x1="53.1" y1="55.3" x2="56" y2="55.3"/>
<line fill="none" stroke="#000000" stroke-width="0.5" stroke-miterlimit="10" x1="56" y1="26.9" x2="58.9" y2="26.9"/>
<line fill="none" stroke="#000000" stroke-width="0.5" stroke-miterlimit="10" x1="56" y1="82.5" x2="58.9" y2="82.5"/>
<line fill="none" stroke="#000000" stroke-width="0.5" stroke-miterlimit="10" x1="56" y1="26.6" x2="56" y2="82.8"/>
<line fill="none" stroke="#000000" stroke-width="0.5" stroke-miterlimit="10" x1="21.9" y1="30.4" x2="24.8" y2="30.4"/>
<line fill="none" stroke="#000000" stroke-width="0.5" stroke-miterlimit="10" x1="24.8" y1="5.6" x2="27.7" y2="5.6"/>
<line fill="none" stroke="#000000" stroke-width="0.5" stroke-miterlimit="10" x1="24.8" y1="55.3" x2="27.7" y2="55.3"/>
<line fill="none" stroke="#000000" stroke-width="0.5" stroke-miterlimit="10" x1="24.8" y1="5.4" x2="24.8" y2="55.6"/>
<line fill="none" stroke="#000000" stroke-width="0.5" stroke-miterlimit="10" x1="100.2" y1="26.6" x2="105.9" y2="26.6"/>
<line fill="none" stroke="#000000" stroke-width="0.5" stroke-miterlimit="10" x1="100.2" y1="69.1" x2="105.9" y2="69.1"/>
<line fill="none" stroke="#000000" stroke-width="0.5" stroke-miterlimit="10" x1="131.3" y1="68.1" x2="203.5" y2="68.1"/>
<line fill="none" stroke="#000000" stroke-width="0.5" stroke-miterlimit="10" x1="131.3" y1="48.2" x2="203.5" y2="48.2"/>
<line fill="none" stroke="#000000" stroke-width="0.5" stroke-miterlimit="10" x1="131.3" y1="26.6" x2="203.5" y2="26.6"/>
<line fill="none" stroke="#000000" stroke-width="0.5" stroke-miterlimit="10" x1="100.2" y1="82.5" x2="105.9" y2="82.5"/>
<line fill="none" stroke="#000000" stroke-width="0.5" stroke-miterlimit="10" x1="197.8" y1="75.7" x2="203.5" y2="75.7"/>
<line fill="none" stroke="#000000" stroke-width="0.5" stroke-miterlimit="10" x1="197.8" y1="90.1" x2="258" y2="90.1"/>
<line fill="none" stroke="#000000" stroke-width="0.5" stroke-miterlimit="10" x1="203.5" y1="51.6" x2="209.3" y2="51.6"/>
<g>
	<line fill="none" stroke="#000000" stroke-width="0.5" stroke-miterlimit="10" x1="103.8" y1="48.2" x2="106.7" y2="48.2"/>
	<line fill="none" stroke="#000000" stroke-width="0.5" stroke-miterlimit="10" x1="101" y1="41.3" x2="103.9" y2="41.3"/>
	<line fill="none" stroke="#000000" stroke-width="0.5" stroke-miterlimit="10" x1="101" y1="55.5" x2="103.9" y2="55.5"/>
	<line fill="none" stroke="#000000" stroke-width="0.5" stroke-miterlimit="10" x1="103.9" y1="41.1" x2="103.9" y2="55.7"/>
</g>
<g>
	<line fill="none" stroke="#000000" stroke-width="0.5" stroke-miterlimit="10" x1="131.3" y1="82.6" x2="134.2" y2="82.6"/>
	<line fill="none" stroke="#000000" stroke-width="0.5" stroke-miterlimit="10" x1="134.2" y1="75.7" x2="137.1" y2="75.7"/>
	<line fill="none" stroke="#000000" stroke-width="0.5" stroke-miterlimit="10" x1="134.2" y1="89.9" x2="137.1" y2="89.9"/>
	<line fill="none" stroke="#000000" stroke-width="0.5" stroke-miterlimit="10" x1="134.2" y1="75.4" x2="134.2" y2="90.1"/>
</g>
<line fill="none" stroke="#000000" stroke-width="0.5" stroke-miterlimit="10" x1="203.5" y1="26.4" x2="203.5" y2="75.9"/>
<text transform="matrix(1 0 0 1 212.4252 54.7739)" font-family="KaiTi" font-size="10px">三福九品</text>
<line fill="none" stroke="#000000" stroke-width="0.5" stroke-miterlimit="10" x1="257.4" y1="28.6" x2="260.3" y2="28.6"/>
<line fill="none" stroke="#000000" stroke-width="0.5" stroke-miterlimit="10" x1="254.5" y1="5.3" x2="257.4" y2="5.3"/>
<line fill="none" stroke="#000000" stroke-width="0.5" stroke-miterlimit="10" x1="254.5" y1="51.4" x2="257.4" y2="51.4"/>
<line fill="none" stroke="#000000" stroke-width="0.5" stroke-miterlimit="10" x1="257.4" y1="5.1" x2="257.4" y2="51.6"/>
<text transform="matrix(1 0 0 1 262.4645 94.0938)" font-family="KaiTi" font-size="10px">真實弘願</text>
<text transform="matrix(1 0 0 1 30.3503 57.9953)" font-family="KaiTi" font-size="10px">散善</text>
<line fill="none" stroke="#000000" stroke-width="0.5" stroke-miterlimit="10" x1="53.1" y1="5.4" x2="209.3" y2="5.4"/>
</svg>
