<?xml version="1.0" encoding="utf-8"?>
<!-- Generator: Adobe Illustrator 21.0.0, SVG Export Plug-In . SVG Version: 6.00 Build 0)  -->
<svg version="1.1" baseProfile="tiny" id="图层_1"
	 xmlns="http://www.w3.org/2000/svg" xmlns:xlink="http://www.w3.org/1999/xlink" x="0px" y="0px" viewBox="0 0 161.3 66.4"
	 overflow="scroll" xml:space="preserve">
<text transform="matrix(1 0 0 1 61.3337 8.5936)" font-family="'KaiTi'" font-size="10px">殷</text>
<text transform="matrix(1 0 0 1 71.3337 8.5936)" font-family="'KaiTi'" font-size="10px">懃</text>
<text transform="matrix(1 0 0 1 81.3337 8.5936)" font-family="'KaiTi'" font-size="10px">付</text>
<text transform="matrix(1 0 0 1 91.3337 8.5936)" font-family="'KaiTi'" font-size="10px">嘱</text>
<text transform="matrix(1 0 0 1 101.3337 8.5936)" font-family="'DFKaiShu-SB-Estd-BF'" font-size="10px">，</text>
<text transform="matrix(1 0 0 1 111.3337 8.5936)" font-family="'KaiTi'" font-size="10px">再</text>
<text transform="matrix(1 0 0 1 121.3337 8.5936)" font-family="'KaiTi'" font-size="10px">三</text>
<text transform="matrix(1 0 0 1 131.3336 8.5936)" font-family="'KaiTi'" font-size="10px">叮</text>
<text transform="matrix(1 0 0 1 141.3336 8.5936)" font-family="'KaiTi'" font-size="10px">咛</text>
<text transform="matrix(1 0 0 1 151.3336 8.5936)" font-family="'DFKaiShu-SB-Estd-BF'" font-size="10px">。</text>
<text transform="matrix(1 0 0 1 61.3337 22.5936)" font-family="'KaiTi'" font-size="10px">专</text>
<text transform="matrix(1 0 0 1 71.3337 22.5936)" font-family="'KaiTi'" font-size="10px"> </text>
<text transform="matrix(1 0 0 1 81.3337 22.5936)" font-family="'KaiTi'" font-size="10px">舍</text>
<text transform="matrix(1 0 0 1 91.3337 22.5936)" font-family="'KaiTi'" font-size="10px">杂</text>
<text transform="matrix(1 0 0 1 101.3337 22.5936)" font-family="'KaiTi'" font-size="10px">行</text>
<text transform="matrix(1 0 0 1 111.3337 22.5936)" font-family="'KaiTi'" font-size="10px">归</text>
<text transform="matrix(1 0 0 1 121.3337 22.5936)" font-family="'KaiTi'" font-size="10px">正</text>
<text transform="matrix(1 0 0 1 131.3336 22.5936)" font-family="'KaiTi'" font-size="10px">行</text>
<text transform="matrix(1 0 0 1 61.3337 36.5936)" font-family="'KaiTi'" font-size="10px">专</text>
<text transform="matrix(1 0 0 1 71.3337 36.5936)" font-family="'KaiTi'" font-size="10px"> </text>
<text transform="matrix(1 0 0 1 81.3337 36.5936)" font-family="'KaiTi'" font-size="10px">傍</text>
<text transform="matrix(1 0 0 1 91.3337 36.5936)" font-family="'KaiTi'" font-size="10px">助</text>
<text transform="matrix(1 0 0 1 101.3337 36.5936)" font-family="'KaiTi'" font-size="10px">业</text>
<text transform="matrix(1 0 0 1 111.3337 36.5936)" font-family="'KaiTi'" font-size="10px">专</text>
<text transform="matrix(1 0 0 1 121.3337 36.5936)" font-family="'KaiTi'" font-size="10px">正</text>
<text transform="matrix(1 0 0 1 131.3336 36.5936)" font-family="'KaiTi'" font-size="10px">定</text>
<text transform="matrix(1 0 0 1 61.3337 50.5936)" font-family="'KaiTi'" font-size="10px">专</text>
<text transform="matrix(1 0 0 1 71.3337 50.5936)" font-family="'KaiTi'" font-size="10px"> </text>
<text transform="matrix(1 0 0 1 81.3337 50.5936)" font-family="'KaiTi'" font-size="10px">一</text>
<text transform="matrix(1 0 0 1 91.3337 50.5936)" font-family="'KaiTi'" font-size="10px">行</text>
<text transform="matrix(1 0 0 1 101.3337 50.5936)" font-family="'KaiTi'" font-size="10px"> </text>
<text transform="matrix(1 0 0 1 111.3337 50.5936)" font-family="'KaiTi'" font-size="10px">一</text>
<text transform="matrix(1 0 0 1 121.3337 50.5936)" font-family="'KaiTi'" font-size="10px">信</text>
<text transform="matrix(1 0 0 1 61.3337 64.5936)" font-family="'KaiTi'" font-size="10px">专</text>
<text transform="matrix(1 0 0 1 71.3337 64.5936)" font-family="'KaiTi'" font-size="10px"> </text>
<text transform="matrix(1 0 0 1 81.3337 64.5936)" font-family="'KaiTi'" font-size="10px">一</text>
<text transform="matrix(1 0 0 1 91.3337 64.5936)" font-family="'KaiTi'" font-size="10px">信</text>
<text transform="matrix(1 0 0 1 101.3337 64.5936)" font-family="'KaiTi'" font-size="10px"> </text>
<text transform="matrix(1 0 0 1 111.3337 64.5936)" font-family="'KaiTi'" font-size="10px">一</text>
<text transform="matrix(1 0 0 1 121.3337 64.5936)" font-family="'KaiTi'" font-size="10px">行</text>
<text transform="matrix(1 0 0 1 131.3336 64.5936)" font-family="'KaiTi'" font-size="10px"> </text>
<text transform="matrix(1 0 0 1 141.3336 64.5936)" font-family="'KaiTi'" font-size="10px"> </text>
<line fill="none" stroke="#000000" stroke-width="0.5" stroke-miterlimit="10" x1="73.3" y1="19.4" x2="78.8" y2="19.4"/>
<line fill="none" stroke="#000000" stroke-width="0.5" stroke-miterlimit="10" x1="73.3" y1="33.5" x2="78.8" y2="33.5"/>
<line fill="none" stroke="#000000" stroke-width="0.5" stroke-miterlimit="10" x1="73.3" y1="47.6" x2="78.8" y2="47.6"/>
<line fill="none" stroke="#000000" stroke-width="0.5" stroke-miterlimit="10" x1="73.3" y1="61.7" x2="78.8" y2="61.7"/>
<line fill="none" stroke="#000000" stroke-width="0.5" stroke-miterlimit="10" x1="103.5" y1="47.6" x2="109" y2="47.6"/>
<line fill="none" stroke="#000000" stroke-width="0.5" stroke-miterlimit="10" x1="103.5" y1="61.7" x2="109" y2="61.7"/>
<g>
	<line fill="none" stroke="#000000" stroke-width="0.5" stroke-miterlimit="10" x1="56" y1="19.4" x2="56" y2="33.5"/>
	<line fill="none" stroke="#000000" stroke-width="0.5" stroke-miterlimit="10" x1="55.9" y1="19.4" x2="58.6" y2="19.4"/>
	<line fill="none" stroke="#000000" stroke-width="0.5" stroke-miterlimit="10" x1="55.9" y1="33.5" x2="58.6" y2="33.5"/>
	<line fill="none" stroke="#000000" stroke-width="0.5" stroke-miterlimit="10" x1="56" y1="26.5" x2="53.2" y2="26.5"/>
</g>
<g>
	<line fill="none" stroke="#000000" stroke-width="0.5" stroke-miterlimit="10" x1="56" y1="47.6" x2="56" y2="61.7"/>
	<line fill="none" stroke="#000000" stroke-width="0.5" stroke-miterlimit="10" x1="56" y1="47.6" x2="58.7" y2="47.6"/>
	<line fill="none" stroke="#000000" stroke-width="0.5" stroke-miterlimit="10" x1="56" y1="61.7" x2="58.7" y2="61.7"/>
	<line fill="none" stroke="#000000" stroke-width="0.5" stroke-miterlimit="10" x1="56" y1="54.6" x2="53.2" y2="54.6"/>
</g>
<line fill="none" stroke="#000000" stroke-width="0.5" stroke-miterlimit="10" x1="53.2" y1="4.9" x2="58.7" y2="4.9"/>
<text transform="matrix(1 0 0 1 1.640320e-04 8.5936)" font-family="'KaiTi'" font-size="10px">(一)专复专</text>
<text transform="matrix(1 0 0 1 1.640320e-04 29.5936)" font-family="'KaiTi'" font-size="10px">(二)专复专</text>
<text transform="matrix(1 0 0 1 1.640320e-04 57.5936)" font-family="'KaiTi'" font-size="10px">(三)专复专</text>
</svg>
