<?xml version="1.0" encoding="utf-8"?>
<!-- Generator: Adobe Illustrator 21.0.0, SVG Export Plug-In . SVG Version: 6.00 Build 0)  -->
<svg version="1.1" id="圖層_1" xmlns="http://www.w3.org/2000/svg" xmlns:xlink="http://www.w3.org/1999/xlink" x="0px" y="0px"
	 viewBox="0 0 81.5 108.4" style="enable-background:new 0 0 81.5 108.4;" xml:space="preserve">
<style type="text/css">
	.st0{enable-background:new    ;}
	.st1{font-family:'KaiTi';}
	.st2{font-size:10px;}
	.st3{letter-spacing:5;}
	.st4{fill:none;stroke:#000000;stroke-width:0.5;stroke-miterlimit:10;}
</style>
<text transform="matrix(1 0 0 1 51.5001 8.5937)" class="st0"><tspan x="0" y="0" class="st1 st2">獨尊性</tspan><tspan x="0" y="14" class="st1 st2">統攝性</tspan><tspan x="0" y="28" class="st1 st2">體系性</tspan><tspan x="0" y="56" class="st1 st2">宗</tspan><tspan x="10" y="56" class="st1 st2 st3"> </tspan><tspan x="20" y="56" class="st1 st2">名</tspan><tspan x="0" y="70" class="st1 st2">教</tspan><tspan x="10" y="70" class="st1 st2 st3"> </tspan><tspan x="20" y="70" class="st1 st2">判</tspan><tspan x="0" y="84" class="st1 st2">經</tspan><tspan x="10" y="84" class="st1 st2 st3"> </tspan><tspan x="20" y="84" class="st1 st2">典</tspan><tspan x="0" y="98" class="st1 st2">相</tspan><tspan x="10" y="98" class="st1 st2 st3"> </tspan><tspan x="20" y="98" class="st1 st2">承</tspan></text>
<g>
	<line class="st4" x1="45.8" y1="5.1" x2="45.8" y2="33.3"/>
	<line class="st4" x1="45.6" y1="5.4" x2="48.5" y2="5.4"/>
	<line class="st4" x1="45.6" y1="33.3" x2="48.5" y2="33.3"/>
	<line class="st4" x1="42.9" y1="19.2" x2="45.8" y2="19.2"/>
</g>
<g>
	<line class="st4" x1="45.9" y1="60.6" x2="45.9" y2="103.8"/>
	<line class="st4" x1="45.7" y1="60.9" x2="48.6" y2="60.9"/>
	<line class="st4" x1="45.7" y1="103.8" x2="48.6" y2="103.8"/>
	<line class="st4" x1="42.9" y1="82.2" x2="45.8" y2="82.2"/>
</g>
<text transform="matrix(1 0 0 1 0 22.5937)"><tspan x="0" y="0" class="st1 st2">宗的特性</tspan><tspan x="0" y="63" class="st1 st2">立宗要素</tspan></text>
</svg>
