<?xml version="1.0" encoding="utf-8"?>
<!-- Generator: Adobe Illustrator 21.0.0, SVG Export Plug-In . SVG Version: 6.00 Build 0)  -->
<svg version="1.1" baseProfile="tiny" id="图层_1"
	 xmlns="http://www.w3.org/2000/svg" xmlns:xlink="http://www.w3.org/1999/xlink" x="0px" y="0px" viewBox="0 0 112.6 31.6"
	 overflow="scroll" xml:space="preserve">
<text transform="matrix(1 0 0 1 32.6003 8.5937)" font-family="'KaiTi'" font-size="10px">总</text>
<text transform="matrix(1 0 0 1 42.6003 8.5937)" font-family="'DFKaiShu-SB-Estd-BF'" font-size="10px">：</text>
<text transform="matrix(1 0 0 1 52.6003 8.5937)" font-family="'KaiTi'" font-size="10px">众生一切之愿</text>
<text transform="matrix(1 0 0 1 32.6003 29.5937)" font-family="'KaiTi'" font-size="10px">别</text>
<text transform="matrix(1 0 0 1 42.6003 29.5937)" font-family="'DFKaiShu-SB-Estd-BF'" font-size="10px">：</text>
<text transform="matrix(1 0 0 1 52.6003 29.5937)" font-family="'KaiTi'" font-size="10px">往生净土之愿</text>
<text transform="matrix(1 0 0 1 0 19.2604)" font-family="'KaiTi'" font-size="10px">志愿</text>
<g>
	<line fill="none" stroke="#000000" stroke-width="0.5" stroke-miterlimit="10" x1="25.9" y1="5.4" x2="25.9" y2="26.9"/>
	<line fill="none" stroke="#000000" stroke-width="0.5" stroke-miterlimit="10" x1="25.9" y1="5.4" x2="29.7" y2="5.4"/>
	<line fill="none" stroke="#000000" stroke-width="0.5" stroke-miterlimit="10" x1="25.9" y1="26.9" x2="29.7" y2="26.9"/>
	<line fill="none" stroke="#000000" stroke-width="0.5" stroke-miterlimit="10" x1="25.9" y1="16.1" x2="22.2" y2="16.1"/>
</g>
</svg>
