<?xml version="1.0" encoding="utf-8"?>
<!-- Generator: Adobe Illustrator 21.0.0, SVG Export Plug-In . SVG Version: 6.00 Build 0)  -->
<svg version="1.1" id="图层_1" xmlns="http://www.w3.org/2000/svg" xmlns:xlink="http://www.w3.org/1999/xlink" x="0px" y="0px"
	 viewBox="0 0 116.7 66.4" style="enable-background:new 0 0 116.7 66.4;" xml:space="preserve">
<style type="text/css">
	.st0{font-family:'KaiTi';}
	.st1{font-size:10px;}
	.st2{font-family:'DFKaiShu-SB-Estd-BF';}
	.st3{fill:none;stroke:#000000;stroke-width:0.5;stroke-miterlimit:10;}
</style>
<text transform="matrix(1 0 0 1 26.7412 8.5938)"><tspan x="0" y="0" class="st0 st1">令我作佛</tspan><tspan x="40" y="0" class="st2 st1">，</tspan><tspan x="50" y="0" class="st0 st1">国土第一</tspan><tspan x="0" y="14" class="st0 st1">其众奇妙(众第一)</tspan><tspan x="0" y="28" class="st0 st1">道场超绝(成佛第一)</tspan><tspan x="0" y="42" class="st0 st1">国如泥洹(快乐第一)</tspan><tspan x="0" y="56" class="st0 st1">而无等双(国土第一)</tspan></text>
<g>
	<line class="st3" x1="21.1" y1="19.4" x2="21.1" y2="60.7"/>
	<line class="st3" x1="21" y1="19.4" x2="23.7" y2="19.4"/>
	<line class="st3" x1="21" y1="60.7" x2="23.7" y2="60.7"/>
	<line class="st3" x1="21" y1="40" x2="18.2" y2="40"/>
</g>
<line class="st3" x1="18.3" y1="4.6" x2="23.8" y2="4.6"/>
<text transform="matrix(1 0 0 1 5.7412 8.5938)"><tspan x="0" y="0" class="st0 st1">总</tspan><tspan x="0" y="35" class="st0 st1">别</tspan></text>
<g>
	<line class="st3" x1="0.1" y1="4.9" x2="2.9" y2="4.9"/>
	<line class="st3" x1="0.1" y1="40" x2="2.9" y2="40"/>
	<line class="st3" x1="0.3" y1="4.6" x2="0.3" y2="40"/>
</g>
</svg>
