<?xml version="1.0" encoding="utf-8"?>
<!-- Generator: Adobe Illustrator 21.0.0, SVG Export Plug-In . SVG Version: 6.00 Build 0)  -->
<svg version="1.1" id="圖層_1" xmlns="http://www.w3.org/2000/svg" xmlns:xlink="http://www.w3.org/1999/xlink" x="0px" y="0px"
	 viewBox="0 0 215.8 164.8" style="enable-background:new 0 0 215.8 164.8;" xml:space="preserve">
<style type="text/css">
	.st0{enable-background:new    ;}
	.st1{font-family:'KaiTi';}
	.st2{font-size:10px;}
	.st3{fill:none;stroke:#000000;stroke-width:0.5;stroke-miterlimit:10;}
</style>
<text transform="matrix(1 0 0 1 100.0894 8.5937)" class="st0"><tspan x="0" y="0" class="st1 st2">第一章 概說</tspan><tspan x="0" y="14" class="st1 st2">第二章 教判</tspan><tspan x="0" y="28" class="st1 st2">第三章 經典</tspan><tspan x="0" y="42" class="st1 st2">第四章 相承</tspan><tspan x="0" y="56" class="st1 st2">第五章 安心</tspan><tspan x="0" y="70" class="st1 st2">第六章 起行</tspan><tspan x="0" y="84" class="st1 st2">第七章 作業</tspan><tspan x="0" y="112" class="st1 st2">第八章 本願稱名</tspan><tspan x="0" y="140" class="st1 st2">第九章 凡夫入報</tspan><tspan x="0" y="154" class="st1 st2">第十章 宗旨特色</tspan></text>
<g>
	<line class="st3" x1="95.4" y1="18.4" x2="95.4" y2="46.6"/>
	<line class="st3" x1="95.2" y1="18.6" x2="98.1" y2="18.6"/>
	<line class="st3" x1="95.2" y1="46.6" x2="98.1" y2="46.6"/>
	<line class="st3" x1="92.4" y1="32.5" x2="95.3" y2="32.5"/>
</g>
<g>
	<line class="st3" x1="95.6" y1="60.6" x2="95.6" y2="88.8"/>
	<line class="st3" x1="95.3" y1="60.9" x2="98.2" y2="60.9"/>
	<line class="st3" x1="95.3" y1="88.8" x2="98.2" y2="88.8"/>
	<line class="st3" x1="92.6" y1="74.7" x2="95.5" y2="74.7"/>
</g>
<text transform="matrix(1 0 0 1 65.0894 8.5936)" class="st0"><tspan x="0" y="0" class="st1 st2">        </tspan><tspan x="0" y="28" class="st1 st2"> 約教</tspan><tspan x="0" y="70" class="st1 st2"> 約行</tspan><tspan x="0" y="105" class="st1 st2"> 承上</tspan><tspan x="0" y="119" class="st1 st2"> 起下</tspan><tspan x="0" y="140" class="st1 st2"> 約證</tspan></text>
<line class="st3" x1="92.6" y1="117.3" x2="98.2" y2="117.3"/>
<line class="st3" x1="92.5" y1="145.4" x2="98.2" y2="145.4"/>
<g>
	<line class="st3" x1="64" y1="32.5" x2="64" y2="145.4"/>
	<line class="st3" x1="63.8" y1="32.7" x2="66.7" y2="32.7"/>
	<line class="st3" x1="63.8" y1="145.4" x2="66.7" y2="145.4"/>
	<line class="st3" x1="63.8" y1="74.7" x2="66.7" y2="74.7"/>
	<line class="st3" x1="63.8" y1="117.3" x2="66.7" y2="117.3"/>
	<line class="st3" x1="61.1" y1="88.9" x2="64" y2="88.9"/>
</g>
<text transform="matrix(1 0 0 1 6.8394 8.5936)" class="st0"><tspan x="0" y="0" class="st1 st2">總論</tspan><tspan x="0" y="84" class="st1 st2">分論</tspan><tspan x="0" y="154" class="st1 st2">結論</tspan></text>
<line class="st3" x1="60.9" y1="5.1" x2="98.2" y2="5.1"/>
<line class="st3" x1="60.9" y1="158.9" x2="98.2" y2="158.9"/>
<g>
	<line class="st3" x1="0.3" y1="5.1" x2="0.3" y2="158.9"/>
	<line class="st3" x1="0" y1="5.4" x2="2.9" y2="5.4"/>
	<line class="st3" x1="0" y1="158.9" x2="2.9" y2="158.9"/>
	<line class="st3" x1="0" y1="88.8" x2="2.9" y2="88.8"/>
</g>
<text transform="matrix(1 0 0 1 37.8394 8.5936)" class="st0"><tspan x="0" y="0" class="st1 st2">論述</tspan><tspan x="0" y="84" class="st1 st2">論證</tspan><tspan x="0" y="154" class="st1 st2">論定</tspan></text>
<line class="st3" x1="29.6" y1="5.3" x2="35.2" y2="5.3"/>
<line class="st3" x1="29.6" y1="89.3" x2="35.2" y2="89.3"/>
<line class="st3" x1="29.6" y1="159.3" x2="35.2" y2="159.3"/>
<line class="st3" x1="158" y1="5.3" x2="183.2" y2="5.3"/>
<g>
	<line class="st3" x1="180.1" y1="145" x2="180.1" y2="18"/>
	<line class="st3" x1="180.3" y1="145.3" x2="177.4" y2="145.3"/>
	<line class="st3" x1="180" y1="18.4" x2="158" y2="18.4"/>
	<line class="st3" x1="183.1" y1="82.5" x2="180.2" y2="82.5"/>
</g>
<text transform="matrix(1 0 0 1 185.8394 9)"><tspan x="0" y="0" class="st1 st2">序分</tspan><tspan x="0" y="77" class="st1 st2">正宗分</tspan><tspan x="0" y="154" class="st1 st2">流通分</tspan></text>
<line class="st3" x1="177.6" y1="159.3" x2="183.2" y2="159.3"/>
</svg>
