<?xml version="1.0" encoding="utf-8"?>
<!-- Generator: Adobe Illustrator 21.0.0, SVG Export Plug-In . SVG Version: 6.00 Build 0)  -->
<svg version="1.1" id="图层_1" xmlns="http://www.w3.org/2000/svg" xmlns:xlink="http://www.w3.org/1999/xlink" x="0px" y="0px"
	 viewBox="0 0 184.1 164.4" style="enable-background:new 0 0 184.1 164.4;" xml:space="preserve">
<style type="text/css">
	.st0{enable-background:new    ;}
	.st1{font-family:'KaiTi';}
	.st2{font-size:10px;}
	.st3{fill:none;stroke:#000000;stroke-width:0.5;stroke-miterlimit:10;}
</style>
<text transform="matrix(1 0 0 1 69.0894 8.5937)" class="st0"><tspan x="0" y="0" class="st1 st2">第一章 净土宗总述概说</tspan><tspan x="0" y="14" class="st1 st2">第二章 教相判释</tspan><tspan x="0" y="28" class="st1 st2">第三章 正依经典</tspan><tspan x="0" y="42" class="st1 st2">第四章 相承论释</tspan><tspan x="0" y="56" class="st1 st2">第五章 安心</tspan><tspan x="0" y="70" class="st1 st2">第六章 起行</tspan><tspan x="0" y="84" class="st1 st2">第七章 作业行仪</tspan><tspan x="0" y="112" class="st1 st2">第八章 本愿称名</tspan><tspan x="0" y="140" class="st1 st2">第九章 凡夫入报</tspan><tspan x="0" y="154" class="st1 st2">第十章 净土宗宗旨与特色</tspan></text>
<g>
	<line class="st3" x1="64.4" y1="18.4" x2="64.4" y2="46.6"/>
	<line class="st3" x1="64.2" y1="18.6" x2="67.1" y2="18.6"/>
	<line class="st3" x1="64.2" y1="46.6" x2="67.1" y2="46.6"/>
	<line class="st3" x1="61.4" y1="32.5" x2="64.3" y2="32.5"/>
</g>
<g>
	<line class="st3" x1="64.6" y1="60.6" x2="64.6" y2="88.8"/>
	<line class="st3" x1="64.3" y1="60.9" x2="67.2" y2="60.9"/>
	<line class="st3" x1="64.3" y1="88.8" x2="67.2" y2="88.8"/>
	<line class="st3" x1="61.6" y1="74.7" x2="64.5" y2="74.7"/>
</g>
<text transform="matrix(1 0 0 1 34.0894 8.5936)" class="st0"><tspan x="0" y="0" class="st1 st2">        </tspan><tspan x="0" y="28" class="st1 st2">  教</tspan><tspan x="0" y="70" class="st1 st2">  行</tspan><tspan x="0" y="105" class="st1 st2"> 承上</tspan><tspan x="0" y="119" class="st1 st2"> 起下</tspan><tspan x="0" y="140" class="st1 st2">  证</tspan></text>
<line class="st3" x1="61.6" y1="117.3" x2="67.2" y2="117.3"/>
<line class="st3" x1="61.5" y1="145.4" x2="67.2" y2="145.4"/>
<g>
	<line class="st3" x1="33" y1="32.5" x2="33" y2="145.4"/>
	<line class="st3" x1="32.8" y1="32.7" x2="35.7" y2="32.7"/>
	<line class="st3" x1="32.8" y1="145.4" x2="35.7" y2="145.4"/>
	<line class="st3" x1="32.8" y1="74.7" x2="35.7" y2="74.7"/>
	<line class="st3" x1="32.8" y1="117.3" x2="35.7" y2="117.3"/>
	<line class="st3" x1="30.1" y1="88.9" x2="33" y2="88.9"/>
</g>
<text transform="matrix(1 0 0 1 6.8394 8.5936)" class="st0"><tspan x="0" y="0" class="st1 st2">总述       </tspan><tspan x="0" y="84" class="st1 st2">分述</tspan><tspan x="0" y="154" class="st1 st2">结要</tspan></text>
<line class="st3" x1="29.9" y1="5.1" x2="67.2" y2="5.1"/>
<line class="st3" x1="29.9" y1="158.9" x2="67.2" y2="158.9"/>
<g>
	<line class="st3" x1="0.3" y1="5.1" x2="0.3" y2="158.9"/>
	<line class="st3" x1="0" y1="5.4" x2="2.9" y2="5.4"/>
	<line class="st3" x1="0" y1="158.9" x2="2.9" y2="158.9"/>
	<line class="st3" x1="0" y1="88.8" x2="2.9" y2="88.8"/>
</g>
</svg>
