<?xml version="1.0" encoding="utf-8"?>
<!-- Generator: Adobe Illustrator 21.0.0, SVG Export Plug-In . SVG Version: 6.00 Build 0)  -->
<svg version="1.1" id="圖層_1" xmlns="http://www.w3.org/2000/svg" xmlns:xlink="http://www.w3.org/1999/xlink" x="0px" y="0px"
	 viewBox="0 0 218.8 150.4" style="enable-background:new 0 0 218.8 150.4;" xml:space="preserve">
<style type="text/css">
	.st0{font-family:'KaiTi';}
	.st1{font-size:10px;}
	.st2{letter-spacing:5;}
	.st3{font-family:'DFKaiShu-SB-Estd-BF';}
	.st4{fill:none;stroke:#000000;stroke-width:0.5;stroke-miterlimit:10;}
</style>
<text transform="matrix(1 0 0 1 56.25 8.5938)"><tspan x="0" y="0" class="st0 st1"> 讀</tspan><tspan x="15" y="0" class="st0 st1 st2"> </tspan><tspan x="25" y="0" class="st0 st1">誦</tspan><tspan x="0" y="28" class="st0 st1"> 觀</tspan><tspan x="15" y="28" class="st0 st1 st2"> </tspan><tspan x="25" y="28" class="st0 st1">察</tspan><tspan x="0" y="42" class="st3 st1">(</tspan><tspan x="5" y="42" class="st0 st1">二大河</tspan><tspan x="35" y="42" class="st3 st1">)</tspan><tspan x="0" y="70" class="st0 st1"> 禮</tspan><tspan x="15" y="70" class="st0 st1 st2"> </tspan><tspan x="25" y="70" class="st0 st1">拜</tspan><tspan x="0" y="84" class="st0 st1"> 稱</tspan><tspan x="15" y="84" class="st0 st1 st2"> </tspan><tspan x="25" y="84" class="st0 st1">名</tspan><tspan x="0" y="98" class="st0 st1"> 讚</tspan><tspan x="15" y="98" class="st0 st1 st2"> </tspan><tspan x="25" y="98" class="st0 st1">供</tspan><tspan x="0" y="112" class="st3 st1">(</tspan><tspan x="5" y="112" class="st0 st1">近</tspan><tspan x="15" y="112" class="st0 st1 st2"> </tspan><tspan x="25" y="112" class="st0 st1">海</tspan><tspan x="35" y="112" class="st3 st1">)</tspan><tspan x="0" y="126" class="st0 st1"> </tspan><tspan x="0" y="140" class="st0 st1"> 正</tspan><tspan x="15" y="140" class="st0 st1 st2"> </tspan><tspan x="25" y="140" class="st0 st1">行</tspan></text>
<g>
	<line class="st4" x1="98.1" y1="33.5" x2="98.1" y2="4.7"/>
	<line class="st4" x1="98.1" y1="33.5" x2="94.3" y2="33.5"/>
	<line class="st4" x1="98.1" y1="4.7" x2="94.3" y2="4.7"/>
	<line class="st4" x1="98.1" y1="19.1" x2="101.8" y2="19.1"/>
</g>
<g>
	<line class="st4" x1="98.2" y1="103" x2="98.2" y2="74.2"/>
	<line class="st4" x1="98.2" y1="103" x2="94.4" y2="103"/>
	<line class="st4" x1="98.2" y1="74.2" x2="94.4" y2="74.2"/>
	<line class="st4" x1="98.2" y1="88.6" x2="101.9" y2="88.6"/>
</g>
<text transform="matrix(1 0 0 1 37.5 8.5938)"><tspan x="0" y="0" class="st0 st1">聞</tspan><tspan x="0" y="14" class="st0 st1">思</tspan><tspan x="0" y="42" class="st0 st1">修</tspan></text>
<g>
	<line class="st4" x1="54.5" y1="47.9" x2="54.5" y2="19.1"/>
	<line class="st4" x1="54.6" y1="47.9" x2="50.8" y2="47.9"/>
	<line class="st4" x1="54.6" y1="19.1" x2="50.8" y2="19.1"/>
	<line class="st4" x1="54.6" y1="33.5" x2="58.3" y2="33.5"/>
</g>
<g>
	<line class="st4" x1="30.7" y1="4.7" x2="30.7" y2="47.9"/>
	<line class="st4" x1="30.7" y1="4.7" x2="34.5" y2="4.7"/>
	<line class="st4" x1="30.7" y1="47.9" x2="34.5" y2="47.9"/>
	<line class="st4" x1="30.7" y1="26.3" x2="27" y2="26.3"/>
</g>
<text transform="matrix(1 0 0 1 0 29.5938)"><tspan x="0" y="0" class="st0 st1"> 雜行</tspan><tspan x="0" y="14" class="st3 st1">(</tspan><tspan x="5" y="14" class="st0 st1">眾水</tspan><tspan x="25" y="14" class="st3 st1">)</tspan><tspan x="0" y="105" class="st0 st1"> </tspan><tspan x="0" y="119" class="st0 st1"> 雜行</tspan></text>
<text transform="matrix(1 0 0 1 104.875 22.5938)"><tspan x="0" y="0" class="st0 st1">所觀之境</tspan><tspan x="0" y="70" class="st0 st1">所念之名</tspan></text>
<g>
	<line class="st4" x1="152.1" y1="88.6" x2="152.1" y2="19.1"/>
	<line class="st4" x1="152.1" y1="88.6" x2="148.3" y2="88.6"/>
	<line class="st4" x1="152.1" y1="19.1" x2="148.3" y2="19.1"/>
	<line class="st4" x1="152.1" y1="53.9" x2="155.8" y2="53.9"/>
</g>
<text transform="matrix(1 0 0 1 158.825 57.5938)"><tspan x="0" y="0" class="st0 st1">南無阿彌陀佛</tspan><tspan x="0" y="14" class="st0 st1">(</tspan><tspan x="5" y="14" class="st0 st1 st2"> </tspan><tspan x="15" y="14" class="st0 st1">巨</tspan><tspan x="25" y="14" class="st0 st1 st2"> </tspan><tspan x="35" y="14" class="st0 st1">洋</tspan><tspan x="45" y="14" class="st0 st1 st2"> </tspan><tspan x="55" y="14" class="st0 st1">)</tspan><tspan x="0" y="91" class="st0 st1">正定業</tspan></text>
<g>
	<g>
		<line class="st4" x1="27.7" y1="145.2" x2="55.4" y2="145.2"/>
		<g>
			<polygon points="58.9,145.2 53.9,147.2 55.1,145.2 53.9,143.1 			"/>
		</g>
	</g>
</g>
<g>
	<g>
		<line class="st4" x1="94.4" y1="145.2" x2="152.3" y2="145.2"/>
		<g>
			<polygon points="155.8,145.2 150.8,147.2 152,145.2 150.8,143.1 			"/>
		</g>
	</g>
</g>
</svg>
