<?xml version="1.0" encoding="utf-8"?>
<!-- Generator: Adobe Illustrator 21.0.0, SVG Export Plug-In . SVG Version: 6.00 Build 0)  -->
<svg version="1.1" id="图层_1" xmlns="http://www.w3.org/2000/svg" xmlns:xlink="http://www.w3.org/1999/xlink" x="0px" y="0px"
	 viewBox="0 0 142 66.4" style="enable-background:new 0 0 142 66.4;" xml:space="preserve">
<style type="text/css">
	.st0{font-family:'KaiTi';}
	.st1{font-size:10px;}
	.st2{fill:none;stroke:#000000;stroke-width:0.5;stroke-miterlimit:10;}
</style>
<text transform="matrix(1 0 0 1 51 8.5938)"><tspan x="0" y="0" class="st0 st1">根机上下</tspan><tspan x="0" y="14" class="st0 st1">行业差别</tspan><tspan x="0" y="28" class="st0 st1">来迎报化</tspan><tspan x="0" y="42" class="st0 st1">花开早晚</tspan><tspan x="0" y="56" class="st0 st1">得益不同</tspan></text>
<text transform="matrix(1 0 0 1 101 8.5938)"><tspan x="0" y="0" class="st0 st1">能修</tspan><tspan x="0" y="14" class="st0 st1">所修</tspan><tspan x="0" y="28" class="st0 st1">此土</tspan><tspan x="0" y="49" class="st0 st1">彼土</tspan></text>
<text transform="matrix(1 0 0 1 132 15.5938)"><tspan x="0" y="0" class="st0 st1">因</tspan><tspan x="0" y="31.5" class="st0 st1">果</tspan></text>
<text transform="matrix(1 0 0 1 0 36.5938)" class="st0 st1">杂行辈品</text>
<g>
	<line class="st2" x1="45.4" y1="5.1" x2="45.4" y2="61.6"/>
	<line class="st2" x1="45.4" y1="5.1" x2="48.1" y2="5.1"/>
	<line class="st2" x1="45.4" y1="61.6" x2="48.1" y2="61.6"/>
	<line class="st2" x1="45.4" y1="33.3" x2="42.7" y2="33.3"/>
</g>
<line class="st2" x1="93" y1="5.1" x2="98.5" y2="5.1"/>
<line class="st2" x1="93" y1="19.2" x2="98.5" y2="19.2"/>
<line class="st2" x1="93" y1="33.3" x2="98.5" y2="33.3"/>
<g>
	<line class="st2" x1="95.7" y1="61.6" x2="95.7" y2="46.5"/>
	<line class="st2" x1="95.7" y1="61.6" x2="93" y2="61.6"/>
	<line class="st2" x1="95.7" y1="46.5" x2="93" y2="46.5"/>
	<line class="st2" x1="95.7" y1="54" x2="98.4" y2="54"/>
</g>
<g>
	<line class="st2" x1="126.9" y1="19.2" x2="126.9" y2="4.1"/>
	<line class="st2" x1="126.9" y1="19.2" x2="124.3" y2="19.2"/>
	<line class="st2" x1="126.9" y1="4.1" x2="124.3" y2="4.1"/>
	<line class="st2" x1="126.9" y1="11.7" x2="129.7" y2="11.7"/>
</g>
<g>
	<line class="st2" x1="126.9" y1="54" x2="126.9" y2="33.3"/>
	<line class="st2" x1="126.9" y1="54" x2="124.2" y2="54"/>
	<line class="st2" x1="126.9" y1="33.3" x2="124.2" y2="33.3"/>
	<line class="st2" x1="126.9" y1="43.7" x2="129.7" y2="43.7"/>
</g>
</svg>
