<?xml version="1.0" encoding="utf-8"?>
<!-- Generator: Adobe Illustrator 21.0.0, SVG Export Plug-In . SVG Version: 6.00 Build 0)  -->
<svg version="1.1" id="图层_1" xmlns="http://www.w3.org/2000/svg" xmlns:xlink="http://www.w3.org/1999/xlink" x="0px" y="0px"
	 viewBox="0 0 199.2 150.4" style="enable-background:new 0 0 199.2 150.4;" xml:space="preserve">
<style type="text/css">
	.st0{fill:none;stroke:#000000;stroke-width:0.5;stroke-miterlimit:10;}
	.st1{font-family:'KaiTi';}
	.st2{font-size:10px;}
	.st3{letter-spacing:5;}
</style>
<g>
	<line class="st0" x1="100.3" y1="5" x2="100.3" y2="46.2"/>
	<line class="st0" x1="100.3" y1="5" x2="104" y2="5"/>
	<line class="st0" x1="100.3" y1="46.2" x2="104" y2="46.2"/>
	<line class="st0" x1="100.3" y1="25.6" x2="96.5" y2="25.6"/>
</g>
<g>
	<line class="st0" x1="100.3" y1="89" x2="100.3" y2="130.2"/>
	<line class="st0" x1="100.3" y1="89" x2="104" y2="89"/>
	<line class="st0" x1="100.3" y1="130.2" x2="104" y2="130.2"/>
	<line class="st0" x1="100.3" y1="109.3" x2="96.5" y2="109.3"/>
</g>
<text transform="matrix(1 0 0 1 106 8.5936)"><tspan x="0" y="0" class="st1 st2">略</tspan><tspan x="10" y="0" class="st1 st2 st3">  </tspan><tspan x="30" y="0" class="st1 st2">赞</tspan><tspan x="0" y="42" class="st1 st2">广</tspan><tspan x="10" y="42" class="st1 st2 st3">  </tspan><tspan x="30" y="42" class="st1 st2">赞</tspan><tspan x="0" y="84" class="st1 st2">念佛往生</tspan><tspan x="0" y="126" class="st1 st2">证诚劝信</tspan></text>
<text transform="matrix(1 0 0 1 159.1667 43.5937)"><tspan x="0" y="0" class="st1 st2">依报</tspan><tspan x="0" y="14" class="st1 st2">正报</tspan><tspan x="0" y="35" class="st1 st2">愿生彼国</tspan><tspan x="0" y="49" class="st1 st2">少善不生</tspan><tspan x="0" y="63" class="st1 st2">念佛必生</tspan><tspan x="0" y="77" class="st1 st2">自证</tspan><tspan x="0" y="91" class="st1 st2">他讲</tspan><tspan x="0" y="105" class="st1 st2">劝信</tspan></text>
<g>
	<line class="st0" x1="152.2" y1="74.5" x2="152.2" y2="103"/>
	<line class="st0" x1="152.2" y1="74.5" x2="156" y2="74.5"/>
	<line class="st0" x1="152.2" y1="103" x2="156" y2="103"/>
	<line class="st0" x1="152.2" y1="88.8" x2="148.5" y2="88.8"/>
</g>
<g>
	<line class="st0" x1="152.2" y1="115.9" x2="152.2" y2="144.4"/>
	<line class="st0" x1="152.2" y1="115.9" x2="156" y2="115.9"/>
	<line class="st0" x1="152.2" y1="144.4" x2="156" y2="144.4"/>
	<line class="st0" x1="152.2" y1="130.2" x2="148.5" y2="130.2"/>
</g>
<g>
	<line class="st0" x1="152.2" y1="39.5" x2="152.2" y2="54.9"/>
	<line class="st0" x1="152.2" y1="39.5" x2="156" y2="39.5"/>
	<line class="st0" x1="152.2" y1="54.9" x2="156" y2="54.9"/>
	<line class="st0" x1="152.2" y1="46.2" x2="148.5" y2="46.2"/>
</g>
<text transform="matrix(1 0 0 1 43.6667 29.5941)"><tspan x="0" y="0" class="st1 st2">赞极乐净土</tspan><tspan x="0" y="84" class="st1 st2">劝念佛往生</tspan></text>
<g>
	<line class="st0" x1="36.7" y1="25.6" x2="36.7" y2="109.3"/>
	<line class="st0" x1="36.7" y1="25.6" x2="40.4" y2="25.6"/>
	<line class="st0" x1="36.7" y1="109.3" x2="40.4" y2="109.3"/>
	<line class="st0" x1="36.7" y1="67.4" x2="32.9" y2="67.4"/>
</g>
<text transform="matrix(1 0 0 1 -1.640320e-04 71.6672)" class="st1 st2">正宗分</text>
</svg>
