<?xml version="1.0" encoding="utf-8"?>
<!-- Generator: Adobe Illustrator 21.1.0, SVG Export Plug-In . SVG Version: 6.00 Build 0)  -->
<svg version="1.1" id="圖層_1" xmlns="http://www.w3.org/2000/svg" xmlns:xlink="http://www.w3.org/1999/xlink" x="0px" y="0px"
	 viewBox="0 0 278.1 128" style="enable-background:new 0 0 278.1 128;" xml:space="preserve">
<style type="text/css">
	.st0{font-family:'KaiTi';}
	.st1{font-size:12px;}
	.st2{fill:none;}
	.st3{fill:none;stroke:#000000;stroke-width:0.5;stroke-miterlimit:10;}
	.st4{stroke:#000000;stroke-width:0.5;stroke-miterlimit:10;}
</style>
<text transform="matrix(1 0 0 1 65.1162 10.4781)"><tspan x="0" y="0" class="st0 st1">助　業</tspan><tspan x="0" y="43.2" class="st0 st1">正定業</tspan><tspan x="0" y="72" class="st0 st1">念餘佛</tspan><tspan x="0" y="115.2" class="st0 st1">修餘行</tspan></text>
<rect x="115.4" class="st2" width="114.1" height="125.5"/>
<text transform="matrix(1 0 0 1 115.3711 9.5977)"><tspan x="0" y="0" class="st0 st1">讀誦、觀想、</tspan><tspan x="0" y="14.4" class="st0 st1">禮拜、讚供</tspan><tspan x="0" y="43.2" class="st0 st1">稱名（一心專</tspan><tspan x="0" y="57.6" class="st0 st1">念彌陀名號）</tspan><tspan x="0" y="86.4" class="st0 st1">心常間斷，雖可迴向</tspan><tspan x="0" y="100.8" class="st0 st1">得生，眾名疏雜之行</tspan></text>
<rect x="26.6" y="22.3" class="st2" width="24.6" height="84"/>
<text transform="matrix(1 0 0 1 26.5557 31.8941)"><tspan x="0" y="0" class="st0 st1">正行</tspan><tspan x="0" y="72" class="st0 st1">雜行</tspan></text>
<rect y="39" class="st2" width="15.1" height="50.4"/>
<text transform="matrix(1 0 0 1 6.699976e-06 48.6348)"><tspan x="0" y="0" class="st0 st1">正</tspan><tspan x="0" y="12.4" class="st0 st1">雜</tspan><tspan x="0" y="24.8" class="st0 st1">二</tspan><tspan x="0" y="37.2" class="st0 st1">行</tspan></text>
<rect x="200.9" y="14.5" class="st2" width="49.2" height="41"/>
<text transform="matrix(1 0 0 1 200.9277 24.1162)"><tspan x="0" y="0" class="st0 st1">心常親近</tspan><tspan x="0" y="14.4" class="st0 st1">憶念不斷</tspan><tspan x="0" y="28.8" class="st0 st1">名為無間</tspan></text>
<rect x="263" y="43" class="st2" width="15.1" height="58.4"/>
<text transform="matrix(1 0 0 1 263 52.6348)"><tspan x="0" y="0" class="st0 st1">二</tspan><tspan x="0" y="12.4" class="st0 st1">行</tspan><tspan x="0" y="24.8" class="st0 st1">得</tspan><tspan x="0" y="37.2" class="st0 st1">失</tspan></text>
<g>
	<line class="st3" x1="58.4" y1="7.3" x2="58.4" y2="48.5"/>
	<line class="st3" x1="58.4" y1="7.3" x2="62.1" y2="7.3"/>
	<line class="st3" x1="58.4" y1="48.5" x2="62.1" y2="48.5"/>
	<line class="st3" x1="58.4" y1="28.6" x2="54.6" y2="28.6"/>
</g>
<g>
	<line class="st3" x1="58.4" y1="79.3" x2="58.4" y2="120.5"/>
	<line class="st3" x1="58.4" y1="79.3" x2="62.1" y2="79.3"/>
	<line class="st3" x1="58.4" y1="120.5" x2="62.1" y2="120.5"/>
	<line class="st3" x1="58.4" y1="99.6" x2="54.6" y2="99.6"/>
</g>
<g>
	<line class="st3" x1="20.9" y1="28.3" x2="20.9" y2="100.5"/>
	<line class="st3" x1="20.9" y1="28.3" x2="24.6" y2="28.3"/>
	<line class="st3" x1="20.9" y1="100.5" x2="24.6" y2="100.5"/>
	<line class="st3" x1="20.9" y1="65.7" x2="17.1" y2="65.7"/>
</g>
<g>
	<line class="st3" x1="107.4" y1="120.5" x2="107.4" y2="79.3"/>
	<line class="st3" x1="107.4" y1="120.5" x2="103.6" y2="120.5"/>
	<line class="st3" x1="107.4" y1="79.3" x2="103.6" y2="79.3"/>
	<line class="st3" x1="107.4" y1="100.2" x2="111.1" y2="100.2"/>
</g>
<line class="st4" x1="103.1" y1="7.5" x2="111.1" y2="7.5"/>
<line class="st4" x1="104.1" y1="49" x2="112.1" y2="49"/>
<g>
	<line class="st3" x1="193.4" y1="55.5" x2="193.4" y2="14.3"/>
	<line class="st3" x1="193.4" y1="55.5" x2="189.6" y2="55.5"/>
	<line class="st3" x1="193.4" y1="14.3" x2="189.6" y2="14.3"/>
	<line class="st3" x1="193.4" y1="35.2" x2="197.1" y2="35.2"/>
</g>
<g>
	<line class="st3" x1="255.4" y1="99.5" x2="255.4" y2="35.3"/>
	<line class="st3" x1="255.4" y1="99.5" x2="227.1" y2="99.5"/>
	<line class="st3" x1="255.4" y1="35.3" x2="251.6" y2="35.3"/>
	<line class="st3" x1="255.4" y1="67.8" x2="259.1" y2="67.8"/>
</g>
</svg>
