<?xml version="1.0" encoding="utf-8"?>
<!-- Generator: Adobe Illustrator 21.0.0, SVG Export Plug-In . SVG Version: 6.00 Build 0)  -->
<svg version="1.1" id="图层_1" xmlns="http://www.w3.org/2000/svg" xmlns:xlink="http://www.w3.org/1999/xlink" x="0px" y="0px"
	 viewBox="0 0 332.5 24.4" style="enable-background:new 0 0 332.5 24.4;" xml:space="preserve">
<style type="text/css">
	.st0{font-family:'KaiTi';}
	.st1{font-size:10px;}
	.st2{fill:none;stroke:#000000;stroke-width:0.5;stroke-miterlimit:10;}
	.st3{letter-spacing:5;}
</style>
<text transform="matrix(1 0 0 1 97 8.5942)"><tspan x="0" y="0" class="st0 st1">实相身</tspan><tspan x="0" y="14" class="st0 st1">为物身</tspan></text>
<line class="st2" x1="86.5" y1="4.5" x2="94" y2="4.5"/>
<line class="st2" x1="86.5" y1="18.5" x2="94" y2="18.5"/>
<text transform="matrix(1 0 0 1 53 8.5942)"><tspan x="0" y="0" class="st0 st1">不颠倒</tspan><tspan x="0" y="14" class="st0 st1">不虚伪</tspan></text>
<g>
	<line class="st2" x1="46.5" y1="4.5" x2="46.5" y2="18.7"/>
	<line class="st2" x1="46.5" y1="4.5" x2="50.3" y2="4.5"/>
	<line class="st2" x1="46.5" y1="18.7" x2="50.3" y2="18.7"/>
	<line class="st2" x1="46.5" y1="11.6" x2="42.8" y2="11.6"/>
</g>
<text transform="matrix(1 0 0 1 0 15.5938)" class="st0 st1">真实功德</text>
<line class="st2" x1="129.5" y1="4.5" x2="137" y2="4.5"/>
<line class="st2" x1="129.5" y1="18.5" x2="137" y2="18.5"/>
<text transform="matrix(1 0 0 1 140 8.5942)"><tspan x="0" y="0" class="st0 st1">法性法身</tspan><tspan x="0" y="14" class="st0 st1">方便法身</tspan></text>
<line class="st2" x1="181.5" y1="4.5" x2="189" y2="4.5"/>
<line class="st2" x1="181.5" y1="18.5" x2="189" y2="18.5"/>
<text transform="matrix(1 0 0 1 191 8.5942)"><tspan x="0" y="0" class="st0 st1">略</tspan><tspan x="0" y="14" class="st0 st1">广</tspan></text>
<line class="st2" x1="203.5" y1="4.5" x2="211" y2="4.5"/>
<line class="st2" x1="203.5" y1="18.5" x2="211" y2="18.5"/>
<text transform="matrix(1 0 0 1 213 8.5942)"><tspan x="0" y="0" class="st0 st1">自利</tspan><tspan x="0" y="14" class="st0 st1">利他</tspan></text>
<line class="st2" x1="235.5" y1="4.5" x2="243" y2="4.5"/>
<line class="st2" x1="235.5" y1="18.5" x2="243" y2="18.5"/>
<text transform="matrix(1 0 0 1 245 8.5942)"><tspan x="0" y="0" class="st0 st1">清</tspan><tspan x="10" y="0" class="st0 st1 st3"> </tspan><tspan x="20" y="0" class="st0 st1">净</tspan><tspan x="0" y="14" class="st0 st1">不虚作</tspan></text>
<line class="st2" x1="278.5" y1="4.5" x2="286" y2="4.5"/>
<line class="st2" x1="278.5" y1="18.5" x2="286" y2="18.5"/>
<text transform="matrix(1 0 0 1 289 8.5942)"><tspan x="0" y="0" class="st0 st1">如</tspan><tspan x="0" y="14" class="st0 st1">来</tspan></text>
<g>
	<line class="st2" x1="305.8" y1="18.7" x2="305.8" y2="4.5"/>
	<line class="st2" x1="305.8" y1="18.7" x2="302" y2="18.7"/>
	<line class="st2" x1="305.8" y1="4.5" x2="302" y2="4.5"/>
	<line class="st2" x1="305.8" y1="11.6" x2="309.5" y2="11.6"/>
</g>
<text transform="matrix(1 0 0 1 312.5 15.5938)" class="st0 st1">名号</text>
</svg>
