<?xml version="1.0" encoding="utf-8"?>
<!-- Generator: Adobe Illustrator 21.0.0, SVG Export Plug-In . SVG Version: 6.00 Build 0)  -->
<svg version="1.1" id="图层_1" xmlns="http://www.w3.org/2000/svg" xmlns:xlink="http://www.w3.org/1999/xlink" x="0px" y="0px"
	 viewBox="0 0 344.4 108.7" style="enable-background:new 0 0 344.4 108.7;" xml:space="preserve">
<style type="text/css">
	.st0{fill:#FFFFFF;stroke:#000000;stroke-miterlimit:10;}
	.st1{font-family:'KaiTi';}
	.st2{font-size:10px;}
	.st3{letter-spacing:5;}
	.st4{fill:none;stroke:#000000;stroke-width:0.5;stroke-miterlimit:10;}
</style>
<circle cx="46.1" cy="48.9" r="4"/>
<circle class="st0" cx="66" cy="48.9" r="4"/>
<text transform="matrix(1 0 0 1 31.3335 8.5939)"><tspan x="0" y="0" class="st1 st2">自</tspan><tspan x="10" y="0" class="st1 st2 st3"> </tspan><tspan x="20" y="0" class="st1 st2">他</tspan><tspan x="0" y="14" class="st1 st2">二力判</tspan></text>
<text transform="matrix(1 0 0 1 1.602173e-04 52.4272)" class="st1 st2">佛本愿力</text>
<text transform="matrix(1 0 0 1 35.8335 83.0835)" class="st1 st2">教相</text>
<circle class="st0" cx="85.8" cy="48.9" r="4"/>
<circle class="st0" cx="105.7" cy="48.9" r="4"/>
<circle class="st0" cx="125.6" cy="48.9" r="4"/>
<circle cx="145.4" cy="48.9" r="4"/>
<circle class="st0" cx="165.3" cy="48.9" r="4"/>
<text transform="matrix(1 0 0 1 134.5835 83.0835)" class="st1 st2">摄机</text>
<text transform="matrix(1 0 0 1 134.5835 8.5939)"><tspan x="0" y="0" class="st1 st2">八番</tspan><tspan x="0" y="14" class="st1 st2">问答</tspan></text>
<circle cx="185.2" cy="48.9" r="4"/>
<text transform="matrix(1 0 0 1 175.0835 83.0835)" class="st1 st2">行法</text>
<circle class="st0" cx="205" cy="48.9" r="4"/>
<circle class="st0" cx="224.9" cy="48.9" r="4"/>
<circle class="st0" cx="244.8" cy="48.9" r="4"/>
<circle class="st0" cx="264.6" cy="48.9" r="4"/>
<circle class="st0" cx="284.5" cy="48.9" r="4"/>
<circle class="st0" cx="304.4" cy="48.9" r="4"/>
<circle cx="324.2" cy="48.9" r="4"/>
<text transform="matrix(1 0 0 1 314.0835 83.0835)" class="st1 st2">利益</text>
<text transform="matrix(1 0 0 1 165.3335 8.5941)"><tspan x="0" y="0" class="st1 st2">称</tspan><tspan x="10" y="0" class="st1 st2 st3">  </tspan><tspan x="30" y="0" class="st1 st2">名</tspan><tspan x="0" y="14" class="st1 st2">如实修行</tspan></text>
<text transform="matrix(1 0 0 1 304.3779 8.5937)"><tspan x="0" y="0" class="st1 st2">三</tspan><tspan x="10" y="0" class="st1 st2 st3">  </tspan><tspan x="30" y="0" class="st1 st2">愿</tspan><tspan x="0" y="14" class="st1 st2">速疾成佛</tspan></text>
<g>
	<line class="st4" x1="46.1" y1="91.8" x2="145.4" y2="91.8"/>
	<line class="st4" x1="46.1" y1="91.8" x2="46.1" y2="88"/>
	<line class="st4" x1="145.4" y1="91.8" x2="145.4" y2="88"/>
	<line class="st4" x1="95.8" y1="91.8" x2="95.8" y2="95.5"/>
</g>
<text transform="matrix(1 0 0 1 85.821 106.8335)" class="st1 st2">上卷</text>
<line class="st4" x1="46.1" y1="57.2" x2="46.1" y2="70.9"/>
<line class="st4" x1="46.1" y1="27.6" x2="46.1" y2="41.2"/>
<line class="st4" x1="145.4" y1="57.2" x2="145.4" y2="70.9"/>
<line class="st4" x1="145.4" y1="27.6" x2="145.4" y2="41.2"/>
<line class="st4" x1="185.2" y1="27.6" x2="185.2" y2="41.2"/>
<line class="st4" x1="185.2" y1="57.2" x2="185.2" y2="70.9"/>
<line class="st4" x1="324.2" y1="27.6" x2="324.2" y2="41.2"/>
<line class="st4" x1="324.2" y1="57.2" x2="324.2" y2="70.9"/>
<line class="st4" x1="59" y1="48.9" x2="53.1" y2="48.9"/>
<line class="st4" x1="78.8" y1="48.9" x2="72.9" y2="48.9"/>
<line class="st4" x1="98.7" y1="48.9" x2="92.8" y2="48.9"/>
<line class="st4" x1="118.6" y1="48.9" x2="112.7" y2="48.9"/>
<line class="st4" x1="138.4" y1="48.9" x2="132.6" y2="48.9"/>
<line class="st4" x1="158.3" y1="48.9" x2="152.4" y2="48.9"/>
<line class="st4" x1="178.2" y1="48.9" x2="172.3" y2="48.9"/>
<line class="st4" x1="198" y1="48.9" x2="192.2" y2="48.9"/>
<line class="st4" x1="217.9" y1="48.9" x2="212" y2="48.9"/>
<line class="st4" x1="237.8" y1="48.9" x2="231.9" y2="48.9"/>
<line class="st4" x1="257.6" y1="48.9" x2="251.8" y2="48.9"/>
<line class="st4" x1="277.5" y1="48.9" x2="271.6" y2="48.9"/>
<line class="st4" x1="297.4" y1="48.9" x2="291.5" y2="48.9"/>
<line class="st4" x1="317.2" y1="48.9" x2="311.4" y2="48.9"/>
<g>
	<line class="st4" x1="165.3" y1="91.9" x2="324.2" y2="91.9"/>
	<line class="st4" x1="165.3" y1="91.8" x2="165.3" y2="60.6"/>
	<line class="st4" x1="324.2" y1="91.8" x2="324.2" y2="88"/>
	<line class="st4" x1="250.7" y1="91.9" x2="250.7" y2="95.6"/>
</g>
<text transform="matrix(1 0 0 1 240.7716 106.8337)" class="st1 st2">下卷</text>
</svg>
