<?xml version="1.0" encoding="utf-8"?>
<!-- Generator: Adobe Illustrator 21.0.0, SVG Export Plug-In . SVG Version: 6.00 Build 0)  -->
<svg version="1.1" id="图层_1" xmlns="http://www.w3.org/2000/svg" xmlns:xlink="http://www.w3.org/1999/xlink" x="0px" y="0px"
	 viewBox="0 0 359.7 136.6" style="enable-background:new 0 0 359.7 136.6;" xml:space="preserve">
<style type="text/css">
	.st0{font-family:'KaiTi';}
	.st1{font-size:10px;}
	.st2{font-family:'DFKaiShu-SB-Estd-BF';}
	.st3{fill:none;stroke:#000000;stroke-width:0.5;stroke-miterlimit:10;}
	.st4{letter-spacing:5;}
</style>
<text transform="matrix(1 0 0 1 279.6667 8.5937)"><tspan x="0" y="0" class="st0 st1">第一</tspan><tspan x="20" y="0" class="st2 st1">、</tspan><tspan x="30" y="0" class="st0 st1">愿偈大意章</tspan><tspan x="0" y="14" class="st0 st1">第二</tspan><tspan x="20" y="14" class="st2 st1">、</tspan><tspan x="30" y="14" class="st0 st1">起观生信章</tspan><tspan x="0" y="28" class="st0 st1">第三</tspan><tspan x="20" y="28" class="st2 st1">、</tspan><tspan x="30" y="28" class="st0 st1">观行体相章</tspan><tspan x="0" y="42" class="st0 st1">第四</tspan><tspan x="20" y="42" class="st2 st1">、</tspan><tspan x="30" y="42" class="st0 st1">净入愿心章</tspan><tspan x="0" y="56" class="st0 st1">第五</tspan><tspan x="20" y="56" class="st2 st1">、</tspan><tspan x="30" y="56" class="st0 st1">善巧摄化章</tspan><tspan x="0" y="70" class="st0 st1">第六</tspan><tspan x="20" y="70" class="st2 st1">、</tspan><tspan x="30" y="70" class="st0 st1">离菩提障章</tspan><tspan x="0" y="84" class="st0 st1">第七</tspan><tspan x="20" y="84" class="st2 st1">、</tspan><tspan x="30" y="84" class="st0 st1">顺菩提门章</tspan><tspan x="0" y="98" class="st0 st1">第八</tspan><tspan x="20" y="98" class="st2 st1">、</tspan><tspan x="30" y="98" class="st0 st1">名义摄对章</tspan><tspan x="0" y="112" class="st0 st1">第九</tspan><tspan x="20" y="112" class="st2 st1">、</tspan><tspan x="30" y="112" class="st0 st1">愿事成就章</tspan><tspan x="0" y="126" class="st0 st1">第十</tspan><tspan x="20" y="126" class="st2 st1">、</tspan><tspan x="30" y="126" class="st0 st1">利行满足章</tspan></text>
<g>
	<line class="st3" x1="273.9" y1="33.1" x2="273.9" y2="47.3"/>
	<line class="st3" x1="273.9" y1="33.1" x2="277.7" y2="33.1"/>
	<line class="st3" x1="273.9" y1="47.3" x2="277.7" y2="47.3"/>
	<line class="st3" x1="273.9" y1="40.2" x2="270.2" y2="40.2"/>
</g>
<g>
	<line class="st3" x1="273.8" y1="60.3" x2="273.8" y2="131.4"/>
	<line class="st3" x1="273.8" y1="60.3" x2="277.6" y2="60.3"/>
	<line class="st3" x1="273.8" y1="131.4" x2="277.6" y2="131.4"/>
	<line class="st3" x1="273.9" y1="95.9" x2="270.2" y2="95.9"/>
</g>
<text transform="matrix(1 0 0 1 217.3332 43.5938)"><tspan x="0" y="0" class="st0 st1">云</tspan><tspan x="10" y="0" class="st0 st1 st4"> </tspan><tspan x="20" y="0" class="st0 st1">何</tspan><tspan x="30" y="0" class="st0 st1 st4"> </tspan><tspan x="40" y="0" class="st0 st1">观</tspan><tspan x="0" y="56" class="st0 st1">云何生信心</tspan></text>
<g>
	<line class="st3" x1="210.6" y1="47.3" x2="210.6" y2="33.1"/>
	<line class="st3" x1="210.6" y1="47.3" x2="206.8" y2="47.3"/>
	<line class="st3" x1="210.6" y1="33.1" x2="206.8" y2="33.1"/>
	<line class="st3" x1="210.6" y1="40.2" x2="214.3" y2="40.2"/>
</g>
<text transform="matrix(1 0 0 1 75.9998 8.5937)"><tspan x="0" y="0" class="st0 st1">观见愿生</tspan><tspan x="0" y="14" class="st0 st1">云何观</tspan><tspan x="30" y="14" class="st2 st1">、</tspan><tspan x="40" y="14" class="st0 st1">云何生信心</tspan><tspan x="0" y="28" class="st0 st1">观彼安乐世界(三严二十九种)</tspan><tspan x="0" y="42" class="st0 st1">见阿弥陀佛(愿心庄严)</tspan><tspan x="0" y="91" class="st0 st1">愿生彼国</tspan></text>
<line class="st3" x1="117.9" y1="95.9" x2="214.3" y2="95.9"/>
<line class="st3" x1="117.9" y1="5" x2="277.6" y2="5"/>
<line class="st3" x1="168.1" y1="19" x2="277.7" y2="19"/>
<line class="st3" x1="65.3" y1="5" x2="72.8" y2="5"/>
<line class="st3" x1="65.3" y1="19" x2="72.8" y2="19"/>
<text transform="matrix(1 0 0 1 23 8.5937)"><tspan x="0" y="0" class="st0 st1">总</tspan><tspan x="10" y="0" class="st0 st1 st4">  </tspan><tspan x="30" y="0" class="st0 st1">纲</tspan><tspan x="0" y="14" class="st0 st1">成上起下</tspan><tspan x="0" y="59.5" class="st0 st1">别</tspan><tspan x="10" y="59.5" class="st0 st1 st4">  </tspan><tspan x="30" y="59.5" class="st0 st1">释</tspan></text>
<g>
	<line class="st3" x1="69" y1="33.1" x2="69" y2="95.9"/>
	<line class="st3" x1="69" y1="33" x2="72.8" y2="33"/>
	<line class="st3" x1="69" y1="95.9" x2="72.8" y2="95.9"/>
	<line class="st3" x1="69" y1="64.5" x2="65.3" y2="64.5"/>
</g>
<g>
	<line class="st3" x1="16.2" y1="4.7" x2="16.2" y2="64.5"/>
	<line class="st3" x1="16.2" y1="4.7" x2="20" y2="4.7"/>
	<line class="st3" x1="16.4" y1="64.5" x2="20.2" y2="64.5"/>
	<line class="st3" x1="16.2" y1="34.6" x2="12.5" y2="34.6"/>
</g>
<text transform="matrix(1 0 0 1 0 17.3437)"><tspan x="0" y="0" class="st0 st1">长</tspan><tspan x="0" y="14" class="st0 st1">行</tspan><tspan x="0" y="28" class="st0 st1">十</tspan><tspan x="0" y="42" class="st0 st1">章</tspan></text>
</svg>
