<?xml version="1.0" encoding="utf-8"?>
<!-- Generator: Adobe Illustrator 21.0.0, SVG Export Plug-In . SVG Version: 6.00 Build 0)  -->
<svg version="1.1" id="圖層_1" xmlns="http://www.w3.org/2000/svg" xmlns:xlink="http://www.w3.org/1999/xlink" x="0px" y="0px"
	 viewBox="0 0 172.7 108.4" style="enable-background:new 0 0 172.7 108.4;" xml:space="preserve">
<style type="text/css">
	.st0{font-family:'KaiTi';}
	.st1{font-size:10px;}
	.st2{fill:none;stroke:#000000;stroke-width:0.5;stroke-miterlimit:10;}
</style>
<text transform="matrix(1 0 0 1 92.6665 8.5942)"><tspan x="0" y="0" class="st0 st1">高山垂線穿針</tspan><tspan x="0" y="14" class="st0 st1">盲龜浮木伸頭</tspan><tspan x="0" y="28" class="st0 st1">光壁撒豆難留</tspan><tspan x="0" y="42" class="st0 st1">針尖堆豆不存</tspan><tspan x="0" y="56" class="st0 st1">爪土及大地土</tspan><tspan x="0" y="70" class="st0 st1">天人地獄餓鬼壽長</tspan><tspan x="0" y="84" class="st0 st1">七佛以來猶為蟻子</tspan><tspan x="0" y="98" class="st0 st1">八萬劫後未脫鴿身</tspan></text>
<text transform="matrix(1 0 0 1 51.1663 29.5939)"><tspan x="0" y="0" class="st0 st1">機緣喻</tspan><tspan x="0" y="35" class="st0 st1">數量喻</tspan><tspan x="0" y="63" class="st0 st1">時間喻</tspan></text>
<text transform="matrix(1 0 0 1 -1.640320e-04 64.5942)" class="st0 st1">人身難得</text>
<g>
	<line class="st2" x1="86.7" y1="4.6" x2="86.7" y2="47.6"/>
	<line class="st2" x1="86.6" y1="4.6" x2="89.3" y2="4.6"/>
	<line class="st2" x1="86.6" y1="47.6" x2="89.3" y2="47.6"/>
	<line class="st2" x1="86.6" y1="26.1" x2="83.8" y2="26.1"/>
</g>
<g>
	<line class="st2" x1="86.7" y1="74.7" x2="86.7" y2="104.1"/>
	<line class="st2" x1="86.7" y1="74.7" x2="89.4" y2="74.7"/>
	<line class="st2" x1="86.6" y1="104.1" x2="89.3" y2="104.1"/>
	<line class="st2" x1="86.7" y1="89.4" x2="83.9" y2="89.4"/>
</g>
<line class="st2" x1="84" y1="61.2" x2="89.5" y2="61.2"/>
<g>
	<line class="st2" x1="46.3" y1="26.1" x2="46.3" y2="89.4"/>
	<line class="st2" x1="46.3" y1="26.1" x2="49" y2="26.1"/>
	<line class="st2" x1="46.2" y1="89.4" x2="48.9" y2="89.4"/>
	<line class="st2" x1="46.3" y1="61.2" x2="43.5" y2="61.2"/>
</g>
</svg>
