<?xml version="1.0" encoding="utf-8"?>
<!-- Generator: Adobe Illustrator 21.0.0, SVG Export Plug-In . SVG Version: 6.00 Build 0)  -->
<svg version="1.1" baseProfile="tiny" id="圖層_1"
	 xmlns="http://www.w3.org/2000/svg" xmlns:xlink="http://www.w3.org/1999/xlink" x="0px" y="0px" viewBox="0 0 241.8 136.6"
	 overflow="scroll" xml:space="preserve">
<text transform="matrix(1 0 0 1 0 8.5938)" font-family="'KaiTi'" font-size="10px">如</text>
<text transform="matrix(1 0 0 1 10 8.5938)" font-family="'KaiTi'" font-size="10px">何</text>
<text transform="matrix(1 0 0 1 20 8.5938)" font-family="'KaiTi'" font-size="10px">之</text>
<text transform="matrix(1 0 0 1 30 8.5938)" font-family="'KaiTi'" font-size="10px">彌</text>
<text transform="matrix(1 0 0 1 40 8.5938)" font-family="'KaiTi'" font-size="10px">陀</text>
<text transform="matrix(1 0 0 1 50 8.5938)" font-family="'KaiTi'" font-size="10px">乎</text>
<text transform="matrix(1 0 0 1 60 8.5938)" font-family="'DFKaiShu-SB-Estd-BF'" font-size="10px">？</text>
<text transform="matrix(1 0 0 1 70 8.5938)" font-family="'KaiTi'" font-size="10px">發</text>
<text transform="matrix(1 0 0 1 80 8.5938)" font-family="'KaiTi'" font-size="10px">十</text>
<text transform="matrix(1 0 0 1 90 8.5938)" font-family="'KaiTi'" font-size="10px">念</text>
<text transform="matrix(1 0 0 1 100 8.5938)" font-family="'KaiTi'" font-size="10px">之</text>
<text transform="matrix(1 0 0 1 110 8.5938)" font-family="'KaiTi'" font-size="10px">悲</text>
<text transform="matrix(1 0 0 1 120 8.5938)" font-family="'KaiTi'" font-size="10px">願</text>
<text transform="matrix(1 0 0 1 130 8.5938)" font-family="'DFKaiShu-SB-Estd-BF'" font-size="10px">，</text>
<text transform="matrix(1 0 0 1 140 8.5938)" font-family="'KaiTi'" font-size="10px">攝</text>
<text transform="matrix(1 0 0 1 150 8.5938)" font-family="'KaiTi'" font-size="10px">取</text>
<text transform="matrix(1 0 0 1 160 8.5938)" font-family="'KaiTi'" font-size="10px">十</text>
<text transform="matrix(1 0 0 1 170 8.5938)" font-family="'KaiTi'" font-size="10px">方</text>
<text transform="matrix(1 0 0 1 180 8.5938)" font-family="'KaiTi'" font-size="10px">之</text>
<text transform="matrix(1 0 0 1 190 8.5938)" font-family="'KaiTi'" font-size="10px">眾</text>
<text transform="matrix(1 0 0 1 200 8.5938)" font-family="'KaiTi'" font-size="10px">生</text>
<text transform="matrix(1 0 0 1 210 8.5938)" font-family="'DFKaiShu-SB-Estd-BF'" font-size="10px">；</text>
<text transform="matrix(1 0 0 1 220 8.5938)" font-family="'KaiTi'" font-size="10px"> </text>
<text transform="matrix(1 0 0 1 230 8.5938)" font-family="'KaiTi'" font-size="10px">法</text>
<text transform="matrix(1 0 0 1 0 22.5938)" font-family="'KaiTi'" font-size="10px">如</text>
<text transform="matrix(1 0 0 1 10 22.5938)" font-family="'KaiTi'" font-size="10px">何</text>
<text transform="matrix(1 0 0 1 20 22.5938)" font-family="'KaiTi'" font-size="10px">之</text>
<text transform="matrix(1 0 0 1 30 22.5938)" font-family="'KaiTi'" font-size="10px">我</text>
<text transform="matrix(1 0 0 1 40 22.5938)" font-family="'KaiTi'" font-size="10px">等</text>
<text transform="matrix(1 0 0 1 50 22.5938)" font-family="'KaiTi'" font-size="10px">乎</text>
<text transform="matrix(1 0 0 1 60 22.5938)" font-family="'DFKaiShu-SB-Estd-BF'" font-size="10px">？</text>
<text transform="matrix(1 0 0 1 70 22.5938)" font-family="'KaiTi'" font-size="10px">稱</text>
<text transform="matrix(1 0 0 1 80 22.5938)" font-family="'KaiTi'" font-size="10px">六</text>
<text transform="matrix(1 0 0 1 90 22.5938)" font-family="'KaiTi'" font-size="10px">字</text>
<text transform="matrix(1 0 0 1 100 22.5938)" font-family="'KaiTi'" font-size="10px">之</text>
<text transform="matrix(1 0 0 1 110 22.5938)" font-family="'KaiTi'" font-size="10px">名</text>
<text transform="matrix(1 0 0 1 120 22.5938)" font-family="'KaiTi'" font-size="10px">號</text>
<text transform="matrix(1 0 0 1 130 22.5938)" font-family="'DFKaiShu-SB-Estd-BF'" font-size="10px">，</text>
<text transform="matrix(1 0 0 1 140 22.5938)" font-family="'KaiTi'" font-size="10px">得</text>
<text transform="matrix(1 0 0 1 150 22.5938)" font-family="'KaiTi'" font-size="10px">遂</text>
<text transform="matrix(1 0 0 1 160 22.5938)" font-family="'KaiTi'" font-size="10px">三</text>
<text transform="matrix(1 0 0 1 170 22.5938)" font-family="'KaiTi'" font-size="10px">輩</text>
<text transform="matrix(1 0 0 1 180 22.5938)" font-family="'KaiTi'" font-size="10px">之</text>
<text transform="matrix(1 0 0 1 190 22.5938)" font-family="'KaiTi'" font-size="10px">往</text>
<text transform="matrix(1 0 0 1 200 22.5938)" font-family="'KaiTi'" font-size="10px">生</text>
<text transform="matrix(1 0 0 1 210 22.5938)" font-family="'DFKaiShu-SB-Estd-BF'" font-size="10px">。</text>
<text transform="matrix(1 0 0 1 220 22.5938)" font-family="'KaiTi'" font-size="10px"> </text>
<text transform="matrix(1 0 0 1 230 22.5938)" font-family="'KaiTi'" font-size="10px">機</text>
<text transform="matrix(1 0 0 1 0 36.5933)" font-family="'KaiTi'" font-size="10px">永</text>
<text transform="matrix(1 0 0 1 10 36.5933)" font-family="'KaiTi'" font-size="10px">劫</text>
<text transform="matrix(1 0 0 1 20 36.5933)" font-family="'KaiTi'" font-size="10px">之</text>
<text transform="matrix(1 0 0 1 30 36.5933)" font-family="'KaiTi'" font-size="10px">修</text>
<text transform="matrix(1 0 0 1 40 36.5933)" font-family="'KaiTi'" font-size="10px">行</text>
<text transform="matrix(1 0 0 1 50 36.5933)" font-family="'KaiTi'" font-size="10px">是</text>
<text transform="matrix(1 0 0 1 60 36.5933)" font-family="'KaiTi'" font-size="10px">為</text>
<text transform="matrix(1 0 0 1 70 36.5933)" font-family="'KaiTi'" font-size="10px">誰</text>
<text transform="matrix(1 0 0 1 80 36.5933)" font-family="'KaiTi'" font-size="10px">乎</text>
<text transform="matrix(1 0 0 1 90 36.5933)" font-family="'DFKaiShu-SB-Estd-BF'" font-size="10px">？</text>
<text transform="matrix(1 0 0 1 100 36.5933)" font-family="'KaiTi'" font-size="10px">功</text>
<text transform="matrix(1 0 0 1 110 36.5933)" font-family="'KaiTi'" font-size="10px">讓</text>
<text transform="matrix(1 0 0 1 120 36.5933)" font-family="'KaiTi'" font-size="10px">未</text>
<text transform="matrix(1 0 0 1 130 36.5933)" font-family="'KaiTi'" font-size="10px">來</text>
<text transform="matrix(1 0 0 1 140 36.5933)" font-family="'KaiTi'" font-size="10px">之</text>
<text transform="matrix(1 0 0 1 150 36.5933)" font-family="'KaiTi'" font-size="10px">眾</text>
<text transform="matrix(1 0 0 1 160 36.5933)" font-family="'KaiTi'" font-size="10px">生</text>
<text transform="matrix(1 0 0 1 170 36.5933)" font-family="'DFKaiShu-SB-Estd-BF'" font-size="10px">；</text>
<text transform="matrix(1 0 0 1 0 50.5933)" font-family="'KaiTi'" font-size="10px">超</text>
<text transform="matrix(1 0 0 1 10 50.5933)" font-family="'KaiTi'" font-size="10px">世</text>
<text transform="matrix(1 0 0 1 20 50.5933)" font-family="'KaiTi'" font-size="10px">之</text>
<text transform="matrix(1 0 0 1 30 50.5933)" font-family="'KaiTi'" font-size="10px">悲</text>
<text transform="matrix(1 0 0 1 40 50.5933)" font-family="'KaiTi'" font-size="10px">願</text>
<text transform="matrix(1 0 0 1 50 50.5933)" font-family="'KaiTi'" font-size="10px">又</text>
<text transform="matrix(1 0 0 1 60 50.5933)" font-family="'KaiTi'" font-size="10px">何</text>
<text transform="matrix(1 0 0 1 70 50.5933)" font-family="'KaiTi'" font-size="10px">意</text>
<text transform="matrix(1 0 0 1 80 50.5933)" font-family="'KaiTi'" font-size="10px">乎</text>
<text transform="matrix(1 0 0 1 90 50.5933)" font-family="'DFKaiShu-SB-Estd-BF'" font-size="10px">？</text>
<text transform="matrix(1 0 0 1 100 50.5933)" font-family="'KaiTi'" font-size="10px">志</text>
<text transform="matrix(1 0 0 1 110 50.5933)" font-family="'KaiTi'" font-size="10px">賜</text>
<text transform="matrix(1 0 0 1 120 50.5933)" font-family="'KaiTi'" font-size="10px">末</text>
<text transform="matrix(1 0 0 1 130 50.5933)" font-family="'KaiTi'" font-size="10px">法</text>
<text transform="matrix(1 0 0 1 140 50.5933)" font-family="'KaiTi'" font-size="10px">之</text>
<text transform="matrix(1 0 0 1 150 50.5933)" font-family="'KaiTi'" font-size="10px">我</text>
<text transform="matrix(1 0 0 1 160 50.5933)" font-family="'KaiTi'" font-size="10px">等</text>
<text transform="matrix(1 0 0 1 170 50.5933)" font-family="'DFKaiShu-SB-Estd-BF'" font-size="10px">。</text>
<text transform="matrix(1 0 0 1 0 64.5933)" font-family="'KaiTi'" font-size="10px">我</text>
<text transform="matrix(1 0 0 1 10 64.5933)" font-family="'KaiTi'" font-size="10px">等</text>
<text transform="matrix(1 0 0 1 20 64.5933)" font-family="'KaiTi'" font-size="10px">若</text>
<text transform="matrix(1 0 0 1 30 64.5933)" font-family="'KaiTi'" font-size="10px">不</text>
<text transform="matrix(1 0 0 1 40 64.5933)" font-family="'KaiTi'" font-size="10px">往</text>
<text transform="matrix(1 0 0 1 50 64.5933)" font-family="'KaiTi'" font-size="10px">生</text>
<text transform="matrix(1 0 0 1 60 64.5933)" font-family="'KaiTi'" font-size="10px">者</text>
<text transform="matrix(1 0 0 1 70 64.5933)" font-family="'DFKaiShu-SB-Estd-BF'" font-size="10px">，</text>
<text transform="matrix(1 0 0 1 80 64.5933)" font-family="'KaiTi'" font-size="10px">佛</text>
<text transform="matrix(1 0 0 1 90 64.5933)" font-family="'KaiTi'" font-size="10px">豈</text>
<text transform="matrix(1 0 0 1 100 64.5933)" font-family="'KaiTi'" font-size="10px">成</text>
<text transform="matrix(1 0 0 1 110 64.5933)" font-family="'KaiTi'" font-size="10px">正</text>
<text transform="matrix(1 0 0 1 120 64.5933)" font-family="'KaiTi'" font-size="10px">覺</text>
<text transform="matrix(1 0 0 1 130 64.5933)" font-family="'KaiTi'" font-size="10px">乎</text>
<text transform="matrix(1 0 0 1 140 64.5933)" font-family="'DFKaiShu-SB-Estd-BF'" font-size="10px">？</text>
<text transform="matrix(1 0 0 1 0 78.5933)" font-family="'KaiTi'" font-size="10px">佛</text>
<text transform="matrix(1 0 0 1 10 78.5933)" font-family="'KaiTi'" font-size="10px">若</text>
<text transform="matrix(1 0 0 1 20 78.5933)" font-family="'KaiTi'" font-size="10px">已</text>
<text transform="matrix(1 0 0 1 30 78.5933)" font-family="'KaiTi'" font-size="10px">成</text>
<text transform="matrix(1 0 0 1 40 78.5933)" font-family="'KaiTi'" font-size="10px">正</text>
<text transform="matrix(1 0 0 1 50 78.5933)" font-family="'KaiTi'" font-size="10px">覺</text>
<text transform="matrix(1 0 0 1 60 78.5933)" font-family="'KaiTi'" font-size="10px">者</text>
<text transform="matrix(1 0 0 1 70 78.5933)" font-family="'DFKaiShu-SB-Estd-BF'" font-size="10px">，</text>
<text transform="matrix(1 0 0 1 80 78.5933)" font-family="'KaiTi'" font-size="10px">我</text>
<text transform="matrix(1 0 0 1 90 78.5933)" font-family="'KaiTi'" font-size="10px">等</text>
<text transform="matrix(1 0 0 1 100 78.5933)" font-family="'KaiTi'" font-size="10px">豈</text>
<text transform="matrix(1 0 0 1 110 78.5933)" font-family="'KaiTi'" font-size="10px">不</text>
<text transform="matrix(1 0 0 1 120 78.5933)" font-family="'KaiTi'" font-size="10px">生</text>
<text transform="matrix(1 0 0 1 130 78.5933)" font-family="'KaiTi'" font-size="10px">乎</text>
<text transform="matrix(1 0 0 1 140 78.5933)" font-family="'DFKaiShu-SB-Estd-BF'" font-size="10px">？</text>
<text transform="matrix(1 0 0 1 0 92.5933)" font-family="'KaiTi'" font-size="10px">我</text>
<text transform="matrix(1 0 0 1 10 92.5933)" font-family="'KaiTi'" font-size="10px">等</text>
<text transform="matrix(1 0 0 1 20 92.5933)" font-family="'KaiTi'" font-size="10px">之</text>
<text transform="matrix(1 0 0 1 30 92.5933)" font-family="'KaiTi'" font-size="10px">往</text>
<text transform="matrix(1 0 0 1 40 92.5933)" font-family="'KaiTi'" font-size="10px">生</text>
<text transform="matrix(1 0 0 1 50 92.5933)" font-family="'KaiTi'" font-size="10px">依</text>
<text transform="matrix(1 0 0 1 60 92.5933)" font-family="'KaiTi'" font-size="10px">佛</text>
<text transform="matrix(1 0 0 1 70 92.5933)" font-family="'KaiTi'" font-size="10px">之</text>
<text transform="matrix(1 0 0 1 80 92.5933)" font-family="'KaiTi'" font-size="10px">正</text>
<text transform="matrix(1 0 0 1 90 92.5933)" font-family="'KaiTi'" font-size="10px">覺</text>
<text transform="matrix(1 0 0 1 100 92.5933)" font-family="'DFKaiShu-SB-Estd-BF'" font-size="10px">；</text>
<text transform="matrix(1 0 0 1 0 106.5933)" font-family="'KaiTi'" font-size="10px">佛</text>
<text transform="matrix(1 0 0 1 10 106.5933)" font-family="'KaiTi'" font-size="10px">之</text>
<text transform="matrix(1 0 0 1 20 106.5933)" font-family="'KaiTi'" font-size="10px">正</text>
<text transform="matrix(1 0 0 1 30 106.5933)" font-family="'KaiTi'" font-size="10px">覺</text>
<text transform="matrix(1 0 0 1 40 106.5933)" font-family="'KaiTi'" font-size="10px">依</text>
<text transform="matrix(1 0 0 1 50 106.5933)" font-family="'KaiTi'" font-size="10px">我</text>
<text transform="matrix(1 0 0 1 60 106.5933)" font-family="'KaiTi'" font-size="10px">等</text>
<text transform="matrix(1 0 0 1 70 106.5933)" font-family="'KaiTi'" font-size="10px">之</text>
<text transform="matrix(1 0 0 1 80 106.5933)" font-family="'KaiTi'" font-size="10px">往</text>
<text transform="matrix(1 0 0 1 90 106.5933)" font-family="'KaiTi'" font-size="10px">生</text>
<text transform="matrix(1 0 0 1 100 106.5933)" font-family="'DFKaiShu-SB-Estd-BF'" font-size="10px">。</text>
<text transform="matrix(1 0 0 1 0 120.5933)" font-family="'KaiTi'" font-size="10px">若</text>
<text transform="matrix(1 0 0 1 10 120.5933)" font-family="'KaiTi'" font-size="10px">不</text>
<text transform="matrix(1 0 0 1 20 120.5933)" font-family="'KaiTi'" font-size="10px">生</text>
<text transform="matrix(1 0 0 1 30 120.5933)" font-family="'KaiTi'" font-size="10px">者</text>
<text transform="matrix(1 0 0 1 40 120.5933)" font-family="'KaiTi'" font-size="10px">之</text>
<text transform="matrix(1 0 0 1 50 120.5933)" font-family="'KaiTi'" font-size="10px">誓</text>
<text transform="matrix(1 0 0 1 60 120.5933)" font-family="'KaiTi'" font-size="10px">可</text>
<text transform="matrix(1 0 0 1 70 120.5933)" font-family="'KaiTi'" font-size="10px">知</text>
<text transform="matrix(1 0 0 1 80 120.5933)" font-family="'DFKaiShu-SB-Estd-BF'" font-size="10px">；</text>
<text transform="matrix(1 0 0 1 0 134.5933)" font-family="'KaiTi'" font-size="10px">不</text>
<text transform="matrix(1 0 0 1 10 134.5933)" font-family="'KaiTi'" font-size="10px">取</text>
<text transform="matrix(1 0 0 1 20 134.5933)" font-family="'KaiTi'" font-size="10px">正</text>
<text transform="matrix(1 0 0 1 30 134.5933)" font-family="'KaiTi'" font-size="10px">覺</text>
<text transform="matrix(1 0 0 1 40 134.5933)" font-family="'KaiTi'" font-size="10px">之</text>
<text transform="matrix(1 0 0 1 50 134.5933)" font-family="'KaiTi'" font-size="10px">言</text>
<text transform="matrix(1 0 0 1 60 134.5933)" font-family="'KaiTi'" font-size="10px">無</text>
<text transform="matrix(1 0 0 1 70 134.5933)" font-family="'KaiTi'" font-size="10px">限</text>
<text transform="matrix(1 0 0 1 80 134.5933)" font-family="'DFKaiShu-SB-Estd-BF'" font-size="10px">。</text>
<g>
	<line fill="none" stroke="#000000" stroke-width="0.5" stroke-miterlimit="10" x1="184.5" y1="47.5" x2="184.5" y2="33.2"/>
	<line fill="none" stroke="#000000" stroke-width="0.5" stroke-miterlimit="10" x1="184.5" y1="47.5" x2="180.8" y2="47.5"/>
	<line fill="none" stroke="#000000" stroke-width="0.5" stroke-miterlimit="10" x1="184.5" y1="33.2" x2="180.8" y2="33.2"/>
	<line fill="none" stroke="#000000" stroke-width="0.5" stroke-miterlimit="10" x1="184.4" y1="40.4" x2="188.2" y2="40.4"/>
</g>
<g>
	<line fill="none" stroke="#000000" stroke-width="0.5" stroke-miterlimit="10" x1="155.8" y1="75.5" x2="155.8" y2="61.2"/>
	<line fill="none" stroke="#000000" stroke-width="0.5" stroke-miterlimit="10" x1="155.7" y1="75.5" x2="152" y2="75.5"/>
	<line fill="none" stroke="#000000" stroke-width="0.5" stroke-miterlimit="10" x1="155.7" y1="61.2" x2="152" y2="61.2"/>
	<line fill="none" stroke="#000000" stroke-width="0.5" stroke-miterlimit="10" x1="155.7" y1="68.4" x2="159.5" y2="68.4"/>
</g>
<g>
	<line fill="none" stroke="#000000" stroke-width="0.5" stroke-miterlimit="10" x1="114.5" y1="103.8" x2="114.5" y2="89.4"/>
	<line fill="none" stroke="#000000" stroke-width="0.5" stroke-miterlimit="10" x1="114.5" y1="103.8" x2="110.8" y2="103.8"/>
	<line fill="none" stroke="#000000" stroke-width="0.5" stroke-miterlimit="10" x1="114.5" y1="89.4" x2="110.8" y2="89.4"/>
	<line fill="none" stroke="#000000" stroke-width="0.5" stroke-miterlimit="10" x1="114.4" y1="96.6" x2="118.2" y2="96.6"/>
</g>
<line fill="none" stroke="#000000" stroke-width="0.5" stroke-miterlimit="10" x1="220.5" y1="4.7" x2="226" y2="4.7"/>
<line fill="none" stroke="#000000" stroke-width="0.5" stroke-miterlimit="10" x1="220.5" y1="19.2" x2="226" y2="19.2"/>
<text transform="matrix(1 0 0 1 191.75 43.5)" font-family="'KaiTi'" font-size="10px">行願皆為眾</text>
<text transform="matrix(1 0 0 1 163.75 71.75)" font-family="'KaiTi'" font-size="10px">機法一體</text>
<text transform="matrix(1 0 0 1 122.5 100.2505)" font-family="'KaiTi'" font-size="10px">機法一體</text>
</svg>
