<?xml version="1.0" encoding="utf-8"?>
<!-- Generator: Adobe Illustrator 16.0.0, SVG Export Plug-In . SVG Version: 6.00 Build 0)  -->
<!DOCTYPE svg PUBLIC "-//W3C//DTD SVG 1.1//EN" "http://www.w3.org/Graphics/SVG/1.1/DTD/svg11.dtd">
<svg version="1.1" id="图层_1" xmlns="http://www.w3.org/2000/svg" xmlns:xlink="http://www.w3.org/1999/xlink" x="0px" y="0px"
	 width="222.122px" height="52.859px" viewBox="0 0 222.122 52.859" enable-background="new 0 0 222.122 52.859"
	 xml:space="preserve">
<g>
	<text transform="matrix(1 0 0 1 0 29.5938)" font-family="'KaiTi'" font-size="10">南无阿弥陀佛</text>
	<text transform="matrix(1 0 0 1 70.9634 8.5938)"><tspan x="0" y="0" font-family="'KaiTi'" font-size="10" letter-spacing="2">言南无者即是归命</tspan><tspan x="0" y="14" font-family="'KaiTi'" font-size="10" letter-spacing="2">亦是发愿回向之义</tspan><tspan x="0" y="28" font-family="'KaiTi'" font-size="10">言阿弥陀佛者即是其行</tspan><tspan x="0" y="42" font-family="'KaiTi'" font-size="10" letter-spacing="2">以斯义故必得往生</tspan></text>
	<text transform="matrix(1 0 0 1 182.1216 8.5938)"><tspan x="0" y="0" font-family="'KaiTi'" font-size="10">南无归命</tspan><tspan x="0" y="14" font-family="'KaiTi'" font-size="10">发愿回向</tspan><tspan x="0" y="28" font-family="'KaiTi'" font-size="10">即是其行</tspan><tspan x="0" y="42" font-family="'KaiTi'" font-size="10">必得往生</tspan></text>
	<g>
		<line fill="none" stroke="#000000" stroke-width="0.5" stroke-miterlimit="10" x1="66.033" y1="47.396" x2="68.92" y2="47.396"/>
		<line fill="none" stroke="#000000" stroke-width="0.5" stroke-miterlimit="10" x1="66.033" y1="5.481" x2="68.92" y2="5.481"/>
		<line fill="none" stroke="#000000" stroke-width="0.5" stroke-miterlimit="10" x1="63.146" y1="26.568" x2="66.033" y2="26.568"/>
		<line fill="none" stroke="#000000" stroke-width="0.5" stroke-miterlimit="10" x1="66.149" y1="5.237" x2="66.149" y2="47.662"/>
	</g>
	<line fill="none" stroke="#000000" stroke-width="0.5" stroke-miterlimit="10" x1="173.734" y1="5.237" x2="179.498" y2="5.237"/>
	<line fill="none" stroke="#000000" stroke-width="0.5" stroke-miterlimit="10" x1="173.734" y1="19.291" x2="179.29" y2="19.291"/>
	
		<line fill="none" stroke="#000000" stroke-width="0.5" stroke-miterlimit="10" x1="173.734" y1="33.344" x2="179.487" y2="33.344"/>
	
		<line fill="none" stroke="#000000" stroke-width="0.5" stroke-miterlimit="10" x1="173.734" y1="47.396" x2="179.415" y2="47.396"/>
</g>
</svg>
