<?xml version="1.0" encoding="utf-8"?>
<!-- Generator: Adobe Illustrator 21.0.0, SVG Export Plug-In . SVG Version: 6.00 Build 0)  -->
<svg version="1.1" baseProfile="tiny" id="图层_1"
	 xmlns="http://www.w3.org/2000/svg" xmlns:xlink="http://www.w3.org/1999/xlink" x="0px" y="0px" viewBox="0 0 233.4 70.6"
	 overflow="scroll" xml:space="preserve">
<path fill="none" stroke="#000000" stroke-width="0.25" stroke-miterlimit="10" d="M155.8,24.8"/>
<path fill="none" stroke="#000000" stroke-width="0.25" stroke-miterlimit="10" d="M155.8,0"/>
<path fill="none" stroke="#000000" stroke-width="0.25" stroke-miterlimit="10" d="M162.7,12.8"/>
<path fill="none" stroke="#000000" stroke-width="0.25" stroke-miterlimit="10" d="M155.8,24.6"/>
<path fill="none" stroke="#000000" stroke-width="0.25" stroke-miterlimit="10" d="M155.7,24.1"/>
<text transform="matrix(1 0 0 1 113.4156 12.8)" font-family="'KaiTi'" font-size="10px">定善凡夫……观经十三观</text>
<text transform="matrix(1 0 0 1 113.4156 26.8)" font-family="'KaiTi'" font-size="10px">散善凡夫……九品中前六品</text>
<text transform="matrix(1 0 0 1 113.4156 40.7999)" font-family="'KaiTi'" font-size="10px">十恶众生……下品上生</text>
<text transform="matrix(1 0 0 1 113.4156 54.7999)" font-family="'KaiTi'" font-size="10px">破戒众生……下品中生</text>
<text transform="matrix(1 0 0 1 113.4156 68.7999)" font-family="'KaiTi'" font-size="10px">五逆众生……下品下生</text>
<g>
	<line fill="none" stroke="#000000" stroke-width="0.5" stroke-miterlimit="10" x1="104.6" y1="16.1" x2="107.5" y2="16.1"/>
	<line fill="none" stroke="#000000" stroke-width="0.5" stroke-miterlimit="10" x1="107.4" y1="9.2" x2="110.3" y2="9.2"/>
	<line fill="none" stroke="#000000" stroke-width="0.5" stroke-miterlimit="10" x1="107.4" y1="23.4" x2="110.3" y2="23.4"/>
	<line fill="none" stroke="#000000" stroke-width="0.5" stroke-miterlimit="10" x1="107.5" y1="9" x2="107.5" y2="23.6"/>
</g>
<line fill="none" stroke="#000000" stroke-width="0.5" stroke-miterlimit="10" x1="104.6" y1="51.1" x2="107.5" y2="51.1"/>
<line fill="none" stroke="#000000" stroke-width="0.5" stroke-miterlimit="10" x1="107.4" y1="37.6" x2="110.3" y2="37.6"/>
<line fill="none" stroke="#000000" stroke-width="0.5" stroke-miterlimit="10" x1="107.4" y1="65.1" x2="110.3" y2="65.1"/>
<line fill="none" stroke="#000000" stroke-width="0.5" stroke-miterlimit="10" x1="107.5" y1="37.3" x2="107.5" y2="65.3"/>
<text transform="matrix(1 0 0 1 78.4155 20.0398)" font-family="'KaiTi'" font-size="10px">善二</text>
<text transform="matrix(1 0 0 1 78.4155 55.0398)" font-family="'KaiTi'" font-size="10px">恶三</text>
<line fill="none" stroke="#000000" stroke-width="0.5" stroke-miterlimit="10" x1="71.1" y1="33.3" x2="74" y2="33.3"/>
<line fill="none" stroke="#000000" stroke-width="0.5" stroke-miterlimit="10" x1="73.8" y1="16.3" x2="76.7" y2="16.3"/>
<line fill="none" stroke="#000000" stroke-width="0.5" stroke-miterlimit="10" x1="73.8" y1="51.3" x2="76.7" y2="51.3"/>
<line fill="none" stroke="#000000" stroke-width="0.5" stroke-miterlimit="10" x1="73.9" y1="16" x2="73.9" y2="51.5"/>
<text transform="matrix(1 0 0 1 0 37.31)" font-family="'KaiTi'" font-size="10px">南无(十方众生)</text>
</svg>
