<?xml version="1.0" encoding="utf-8"?>
<!-- Generator: Adobe Illustrator 21.0.0, SVG Export Plug-In . SVG Version: 6.00 Build 0)  -->
<svg version="1.1" id="图层_1" xmlns="http://www.w3.org/2000/svg" xmlns:xlink="http://www.w3.org/1999/xlink" x="0px" y="0px"
	 viewBox="0 0 257.2 80.4" style="enable-background:new 0 0 257.2 80.4;" xml:space="preserve">
<style type="text/css">
	.st0{enable-background:new    ;}
	.st1{font-family:'KaiTi';}
	.st2{font-size:10px;}
	.st3{letter-spacing:5;}
	.st4{fill:none;stroke:#000000;stroke-width:0.5;stroke-miterlimit:10;}
</style>
<text transform="matrix(1 0 0 1 23.5 22.5935)" class="st0"><tspan x="0" y="0" class="st1 st2">且分能所</tspan><tspan x="0" y="42" class="st1 st2">冥绝能所</tspan></text>
<text transform="matrix(1 0 0 1 76.825 15.125)" class="st0"><tspan x="0" y="0" class="st1 st2">能</tspan><tspan x="10" y="0" class="st1 st2 st3">  </tspan><tspan x="30" y="0" class="st1 st2">归</tspan><tspan x="0" y="14" class="st1 st2">所</tspan><tspan x="10" y="14" class="st1 st2 st3">  </tspan><tspan x="30" y="14" class="st1 st2">归</tspan></text>
<line class="st4" x1="120" y1="11.8" x2="127.5" y2="11.8"/>
<line class="st4" x1="120" y1="26" x2="127.5" y2="26"/>
<g>
	<line class="st4" x1="70" y1="11.6" x2="70" y2="26.1"/>
	<line class="st4" x1="70" y1="11.6" x2="73.8" y2="11.6"/>
	<line class="st4" x1="70" y1="26.1" x2="73.8" y2="26.1"/>
	<line class="st4" x1="70" y1="18.9" x2="66.3" y2="18.9"/>
</g>
<text transform="matrix(1 0 0 1 -3.051758e-05 8.5938)" class="st0"><tspan x="0" y="0" class="st1 st2">南</tspan><tspan x="0" y="14" class="st1 st2">无</tspan><tspan x="0" y="28" class="st1 st2">阿</tspan><tspan x="0" y="42" class="st1 st2">弥</tspan><tspan x="0" y="56" class="st1 st2">陀</tspan><tspan x="0" y="70" class="st1 st2">佛</tspan></text>
<g>
	<line class="st4" x1="17" y1="18.9" x2="17" y2="61.9"/>
	<line class="st4" x1="17" y1="18.9" x2="20.8" y2="18.9"/>
	<line class="st4" x1="17" y1="61.9" x2="20.8" y2="61.9"/>
	<line class="st4" x1="17.1" y1="39.8" x2="13.4" y2="39.8"/>
</g>
<line class="st4" x1="66.3" y1="61.9" x2="73.8" y2="61.9"/>
<text transform="matrix(1 0 0 1 76.825 64.7813)" class="st1 st2">能所一体</text>
<line class="st4" x1="120" y1="61.9" x2="127.5" y2="61.9"/>
<text transform="matrix(1 0 0 1 130.4998 15.125)" class="st0"><tspan x="0" y="0" class="st1 st2">南</tspan><tspan x="10" y="0" class="st1 st2 st3">  </tspan><tspan x="30" y="0" class="st1 st2">无</tspan><tspan x="0" y="14" class="st1 st2">阿弥陀佛</tspan></text>
<text transform="matrix(1 0 0 1 130.4997 64.7813)" class="st1 st2">南无阿弥陀佛</text>
<line class="st4" x1="173.9" y1="11.6" x2="200.6" y2="11.6"/>
<line class="st4" x1="173.9" y1="25.9" x2="200.6" y2="25.9"/>
<line class="st4" x1="193.1" y1="61.7" x2="200.6" y2="61.7"/>
<text transform="matrix(1 0 0 1 203.6248 15.125)" class="st0"><tspan x="0" y="0" class="st1 st2">在</tspan><tspan x="10" y="0" class="st1 st2 st3"> </tspan><tspan x="20" y="0" class="st1 st2">心</tspan><tspan x="0" y="14" class="st1 st2">在</tspan><tspan x="10" y="14" class="st1 st2 st3"> </tspan><tspan x="20" y="14" class="st1 st2">缘</tspan></text>
<text transform="matrix(1 0 0 1 203.6247 64.7813)" class="st1 st2">在决定</text>
<g>
	<line class="st4" x1="240.5" y1="61.5" x2="240.5" y2="11.6"/>
	<line class="st4" x1="240.5" y1="61.5" x2="236.7" y2="61.5"/>
	<line class="st4" x1="240.5" y1="11.8" x2="236.7" y2="11.8"/>
	<line class="st4" x1="240.5" y1="36.6" x2="244.2" y2="36.6"/>
</g>
<text transform="matrix(1 0 0 1 247.175 19.2604)" class="st0"><tspan x="0" y="0" class="st1 st2">正</tspan><tspan x="0" y="14" class="st1 st2">定</tspan><tspan x="0" y="28" class="st1 st2">之</tspan><tspan x="0" y="42" class="st1 st2">业</tspan></text>
</svg>
