<?xml version="1.0" encoding="utf-8"?>
<!-- Generator: Adobe Illustrator 21.0.0, SVG Export Plug-In . SVG Version: 6.00 Build 0)  -->
<svg version="1.1" baseProfile="tiny" id="圖層_1"
	 xmlns="http://www.w3.org/2000/svg" xmlns:xlink="http://www.w3.org/1999/xlink" x="0px" y="0px" viewBox="0 0 169.2 38.6"
	 overflow="scroll" xml:space="preserve">
<text transform="matrix(1 0 0 1 34.25 8.5938)" font-family="'KaiTi'" font-size="10px">1</text>
<text transform="matrix(1 0 0 1 39.25 8.5938)" font-family="'DFKaiShu-SB-Estd-BF'" font-size="10px">.</text>
<text transform="matrix(1 0 0 1 44.25 8.5938)" font-family="'KaiTi'" font-size="10px">歸</text>
<text transform="matrix(1 0 0 1 54.25 8.5938)" font-family="'KaiTi'" font-size="10px">命</text>
<text transform="matrix(1 0 0 1 64.25 8.5938)" font-family="'KaiTi'" font-size="10px"> </text>
<text transform="matrix(1 0 0 1 74.25 8.5938)" font-family="'KaiTi'" font-size="10px"> </text>
<text transform="matrix(1 0 0 1 79.25 8.5938)" font-family="'KaiTi'" font-size="10px">歸</text>
<text transform="matrix(1 0 0 1 89.25 8.5938)" font-family="'KaiTi'" font-size="10px">順</text>
<text transform="matrix(1 0 0 1 99.25 8.5938)" font-family="'DFKaiShu-SB-Estd-BF'" font-size="10px">、</text>
<text transform="matrix(1 0 0 1 109.25 8.5938)" font-family="'KaiTi'" font-size="10px">服</text>
<text transform="matrix(1 0 0 1 119.25 8.5938)" font-family="'KaiTi'" font-size="10px">從</text>
<text transform="matrix(1 0 0 1 129.25 8.5938)" font-family="'KaiTi'" font-size="10px">佛</text>
<text transform="matrix(1 0 0 1 139.25 8.5938)" font-family="'KaiTi'" font-size="10px">之</text>
<text transform="matrix(1 0 0 1 149.25 8.5938)" font-family="'KaiTi'" font-size="10px">命</text>
<text transform="matrix(1 0 0 1 159.25 8.5938)" font-family="'KaiTi'" font-size="10px">令</text>
<text transform="matrix(1 0 0 1 34.25 22.5938)" font-family="'KaiTi'" font-size="10px">2</text>
<text transform="matrix(1 0 0 1 39.25 22.5938)" font-family="'DFKaiShu-SB-Estd-BF'" font-size="10px">.</text>
<text transform="matrix(1 0 0 1 44.25 22.5938)" font-family="'KaiTi'" font-size="10px">敬</text>
<text transform="matrix(1 0 0 1 54.25 22.5938)" font-family="'KaiTi'" font-size="10px">禮</text>
<text transform="matrix(1 0 0 1 64.25 22.5938)" font-family="'KaiTi'" font-size="10px"> </text>
<text transform="matrix(1 0 0 1 74.25 22.5938)" font-family="'KaiTi'" font-size="10px"> </text>
<text transform="matrix(1 0 0 1 79.25 22.5938)" font-family="'KaiTi'" font-size="10px">以</text>
<text transform="matrix(1 0 0 1 89.25 22.5938)" font-family="'KaiTi'" font-size="10px">身</text>
<text transform="matrix(1 0 0 1 99.25 22.5938)" font-family="'KaiTi'" font-size="10px">業</text>
<text transform="matrix(1 0 0 1 109.25 22.5938)" font-family="'KaiTi'" font-size="10px">禮</text>
<text transform="matrix(1 0 0 1 119.25 22.5938)" font-family="'KaiTi'" font-size="10px">拜</text>
<text transform="matrix(1 0 0 1 129.25 22.5938)" font-family="'KaiTi'" font-size="10px">佛</text>
<text transform="matrix(1 0 0 1 34.25 36.5938)" font-family="'KaiTi'" font-size="10px">3</text>
<text transform="matrix(1 0 0 1 39.25 36.5938)" font-family="'DFKaiShu-SB-Estd-BF'" font-size="10px">.</text>
<text transform="matrix(1 0 0 1 44.25 36.5938)" font-family="'KaiTi'" font-size="10px">救</text>
<text transform="matrix(1 0 0 1 54.25 36.5938)" font-family="'KaiTi'" font-size="10px">我</text>
<text transform="matrix(1 0 0 1 64.25 36.5938)" font-family="'KaiTi'" font-size="10px"> </text>
<text transform="matrix(1 0 0 1 74.25 36.5938)" font-family="'KaiTi'" font-size="10px"> </text>
<text transform="matrix(1 0 0 1 79.25 36.5938)" font-family="'KaiTi'" font-size="10px">向</text>
<text transform="matrix(1 0 0 1 89.25 36.5938)" font-family="'KaiTi'" font-size="10px">佛</text>
<text transform="matrix(1 0 0 1 99.25 36.5938)" font-family="'KaiTi'" font-size="10px">祈</text>
<text transform="matrix(1 0 0 1 109.25 36.5938)" font-family="'KaiTi'" font-size="10px">請</text>
<text transform="matrix(1 0 0 1 119.25 36.5938)" font-family="'KaiTi'" font-size="10px">救</text>
<text transform="matrix(1 0 0 1 129.25 36.5938)" font-family="'KaiTi'" font-size="10px">度</text>
<text transform="matrix(1 0 0 1 139.25 36.5938)" font-family="'KaiTi'" font-size="10px">我</text>
<line fill="none" stroke="#000000" stroke-width="0.5" stroke-miterlimit="10" x1="67.8" y1="4.6" x2="75.8" y2="4.6"/>
<line fill="none" stroke="#000000" stroke-width="0.5" stroke-miterlimit="10" x1="67.8" y1="19.3" x2="75.8" y2="19.3"/>
<line fill="none" stroke="#000000" stroke-width="0.5" stroke-miterlimit="10" x1="67.8" y1="33.9" x2="75.8" y2="33.9"/>
<g>
	<line fill="none" stroke="#000000" stroke-width="0.5" stroke-miterlimit="10" x1="22.9" y1="19.3" x2="27" y2="19.3"/>
	<line fill="none" stroke="#000000" stroke-width="0.5" stroke-miterlimit="10" x1="26.8" y1="4.6" x2="30.9" y2="4.6"/>
	<line fill="none" stroke="#000000" stroke-width="0.5" stroke-miterlimit="10" x1="26.9" y1="33.9" x2="30.9" y2="33.9"/>
	<line fill="none" stroke="#000000" stroke-width="0.5" stroke-miterlimit="10" x1="27" y1="4.6" x2="27" y2="33.9"/>
</g>
<text transform="matrix(1 0 0 1 0 22.5938)" font-family="'KaiTi'" font-size="10px">南無</text>
</svg>
