<?xml version="1.0" encoding="utf-8"?>
<!-- Generator: Adobe Illustrator 21.0.0, SVG Export Plug-In . SVG Version: 6.00 Build 0)  -->
<svg version="1.1" id="图层_1" xmlns="http://www.w3.org/2000/svg" xmlns:xlink="http://www.w3.org/1999/xlink" x="0px" y="0px"
	 viewBox="0 0 370 125" style="enable-background:new 0 0 370 125;" xml:space="preserve">
<style type="text/css">
	.st0{fill:none;stroke:#000000;stroke-width:0.5;stroke-miterlimit:10;}
	.st1{stroke:#000000;stroke-width:0.25;stroke-miterlimit:10;}
	.st2{font-family:'DFKaiShu-SB-Estd-BF';}
	.st3{font-size:14px;}
	.st4{fill:none;stroke:#000000;stroke-width:0.25;stroke-miterlimit:10;}
</style>
<path class="st0" d="M108.2,48.7"/>
<path class="st0" d="M108.2,77.2"/>
<path class="st0" d="M108,87.8"/>
<text transform="matrix(1 0 0 1 124.6991 25.916)" class="st1 st2 st3">善二</text>
<path class="st4" d="M183.8,37.7"/>
<path class="st4" d="M183.8,12.9"/>
<path class="st4" d="M190.7,25.7"/>
<path class="st4" d="M183.8,37.5"/>
<path class="st4" d="M177.4,31.5"/>
<path class="st4" d="M183.7,37"/>
<text transform="matrix(1 0 0 1 0.8718 58.0619)" class="st1 st2 st3">南无(十方众生)</text>
<line class="st0" x1="99.5" y1="53.4" x2="108.1" y2="53.4"/>
<line class="st0" x1="167.3" y1="90.6" x2="167.3" y2="62.1"/>
<line class="st0" x1="167.3" y1="118.8" x2="167.3" y2="90.3"/>
<line class="st0" x1="158.8" y1="90.4" x2="167.3" y2="90.4"/>
<text transform="matrix(1 0 0 1 124.6989 94.1347)" class="st1 st2 st3">恶三</text>
<line class="st0" x1="167.4" y1="36.9" x2="167.4" y2="8.4"/>
<line class="st0" x1="158.8" y1="22.7" x2="167.4" y2="22.7"/>
<line class="st0" x1="108.2" y1="90.1" x2="108.2" y2="21.8"/>
<line class="st0" x1="108.2" y1="21.9" x2="116.7" y2="21.9"/>
<line class="st0" x1="108.2" y1="90.1" x2="116.7" y2="90.1"/>
<line class="st0" x1="167.2" y1="62.1" x2="175.7" y2="62.1"/>
<line class="st0" x1="167.2" y1="118.8" x2="175.7" y2="118.8"/>
<line class="st0" x1="167.2" y1="8.4" x2="175.8" y2="8.4"/>
<line class="st0" x1="167.2" y1="36.6" x2="175.8" y2="36.6"/>
<text transform="matrix(1 0 0 1 183.6491 66.8936)" class="st1 st2 st3">十恶众生······下品上生</text>
<text transform="matrix(1 0 0 1 183.6489 94.7994)" class="st1 st2 st3">破戒众生······下品中生</text>
<text transform="matrix(1 0 0 1 183.6489 122.1227)" class="st1 st2 st3">五逆众生······下品下生</text>
<text transform="matrix(1 0 0 1 183.749 12.8969)" class="st1 st2 st3">定善凡夫······观经十三观</text>
<text transform="matrix(1 0 0 1 183.7491 41.3969)" class="st1 st2 st3">散善凡夫······九品中前六品</text>
</svg>
