<?xml version="1.0" encoding="utf-8"?>
<!-- Generator: Adobe Illustrator 21.0.0, SVG Export Plug-In . SVG Version: 6.00 Build 0)  -->
<svg version="1.1" baseProfile="tiny" id="圖層_1"
	 xmlns="http://www.w3.org/2000/svg" xmlns:xlink="http://www.w3.org/1999/xlink" x="0px" y="0px" viewBox="0 0 222.1 52.9"
	 overflow="scroll" xml:space="preserve">
<text transform="matrix(1 0 0 1 0 29.5937)" font-family="KaiTi" font-size="10px">南無阿彌陀佛</text>
<text transform="matrix(1 0 0 1 70.9634 8.5938)" font-family="KaiTi" font-size="10px">言</text>
<text transform="matrix(1 0 0 1 83.8135 8.5938)" font-family="KaiTi" font-size="10px">南</text>
<text transform="matrix(1 0 0 1 96.6636 8.5938)" font-family="KaiTi" font-size="10px">無</text>
<text transform="matrix(1 0 0 1 109.5132 8.5938)" font-family="KaiTi" font-size="10px">者</text>
<text transform="matrix(1 0 0 1 122.3633 8.5938)" font-family="KaiTi" font-size="10px">即</text>
<text transform="matrix(1 0 0 1 135.2134 8.5938)" font-family="KaiTi" font-size="10px">是</text>
<text transform="matrix(1 0 0 1 148.0635 8.5938)" font-family="KaiTi" font-size="10px">歸</text>
<text transform="matrix(1 0 0 1 160.9136 8.5938)" font-family="KaiTi" font-size="10px">命</text>
<text transform="matrix(1 0 0 1 70.9634 22.5938)" font-family="KaiTi" font-size="10px">亦</text>
<text transform="matrix(1 0 0 1 83.8135 22.5938)" font-family="KaiTi" font-size="10px">是</text>
<text transform="matrix(1 0 0 1 96.6636 22.5938)" font-family="KaiTi" font-size="10px">發</text>
<text transform="matrix(1 0 0 1 109.5132 22.5938)" font-family="KaiTi" font-size="10px">願</text>
<text transform="matrix(1 0 0 1 122.3633 22.5938)" font-family="KaiTi" font-size="10px">回</text>
<text transform="matrix(1 0 0 1 135.2134 22.5938)" font-family="KaiTi" font-size="10px">向</text>
<text transform="matrix(1 0 0 1 148.0635 22.5938)" font-family="KaiTi" font-size="10px">之</text>
<text transform="matrix(1 0 0 1 160.9136 22.5938)" font-family="KaiTi" font-size="10px">義</text>
<text transform="matrix(1 0 0 1 70.9634 36.5938)" font-family="KaiTi" font-size="10px">言</text>
<text transform="matrix(1 0 0 1 80.9634 36.5938)" font-family="KaiTi" font-size="10px">阿</text>
<text transform="matrix(1 0 0 1 90.9634 36.5938)" font-family="KaiTi" font-size="10px">彌</text>
<text transform="matrix(1 0 0 1 100.9634 36.5938)" font-family="KaiTi" font-size="10px">陀</text>
<text transform="matrix(1 0 0 1 110.9634 36.5938)" font-family="KaiTi" font-size="10px">佛</text>
<text transform="matrix(1 0 0 1 120.9634 36.5938)" font-family="KaiTi" font-size="10px">者</text>
<text transform="matrix(1 0 0 1 130.9634 36.5938)" font-family="KaiTi" font-size="10px">即</text>
<text transform="matrix(1 0 0 1 140.9634 36.5938)" font-family="KaiTi" font-size="10px">是</text>
<text transform="matrix(1 0 0 1 150.9634 36.5938)" font-family="KaiTi" font-size="10px">其</text>
<text transform="matrix(1 0 0 1 160.9634 36.5938)" font-family="KaiTi" font-size="10px">行</text>
<text transform="matrix(1 0 0 1 70.9634 50.5938)" font-family="KaiTi" font-size="10px">以</text>
<text transform="matrix(1 0 0 1 83.8135 50.5938)" font-family="KaiTi" font-size="10px">斯</text>
<text transform="matrix(1 0 0 1 96.6636 50.5938)" font-family="KaiTi" font-size="10px">義</text>
<text transform="matrix(1 0 0 1 109.5132 50.5938)" font-family="KaiTi" font-size="10px">故</text>
<text transform="matrix(1 0 0 1 122.3633 50.5938)" font-family="KaiTi" font-size="10px">必</text>
<text transform="matrix(1 0 0 1 135.2134 50.5938)" font-family="KaiTi" font-size="10px">得</text>
<text transform="matrix(1 0 0 1 148.0635 50.5938)" font-family="KaiTi" font-size="10px">往</text>
<text transform="matrix(1 0 0 1 160.9136 50.5938)" font-family="KaiTi" font-size="10px">生</text>
<text transform="matrix(1 0 0 1 182.1216 8.5938)" font-family="KaiTi" font-size="10px">南無歸命</text>
<text transform="matrix(1 0 0 1 182.1216 22.5938)" font-family="KaiTi" font-size="10px">發願回向</text>
<text transform="matrix(1 0 0 1 182.1216 36.5938)" font-family="KaiTi" font-size="10px">即是其行</text>
<text transform="matrix(1 0 0 1 182.1216 50.5938)" font-family="KaiTi" font-size="10px">必得往生</text>
<g>
	<line fill="none" stroke="#000000" stroke-width="0.5" stroke-miterlimit="10" x1="66" y1="47.4" x2="68.9" y2="47.4"/>
	<line fill="none" stroke="#000000" stroke-width="0.5" stroke-miterlimit="10" x1="66" y1="5.5" x2="68.9" y2="5.5"/>
	<line fill="none" stroke="#000000" stroke-width="0.5" stroke-miterlimit="10" x1="63.1" y1="26.6" x2="66" y2="26.6"/>
	<line fill="none" stroke="#000000" stroke-width="0.5" stroke-miterlimit="10" x1="66.1" y1="5.2" x2="66.1" y2="47.7"/>
</g>
<line fill="none" stroke="#000000" stroke-width="0.5" stroke-miterlimit="10" x1="173.7" y1="5.2" x2="179.5" y2="5.2"/>
<line fill="none" stroke="#000000" stroke-width="0.5" stroke-miterlimit="10" x1="173.7" y1="19.3" x2="179.3" y2="19.3"/>
<line fill="none" stroke="#000000" stroke-width="0.5" stroke-miterlimit="10" x1="173.7" y1="33.3" x2="179.5" y2="33.3"/>
<line fill="none" stroke="#000000" stroke-width="0.5" stroke-miterlimit="10" x1="173.7" y1="47.4" x2="179.4" y2="47.4"/>
</svg>
