<?xml version="1.0" encoding="utf-8"?>
<!-- Generator: Adobe Illustrator 21.0.0, SVG Export Plug-In . SVG Version: 6.00 Build 0)  -->
<svg version="1.1" id="图层_1" xmlns="http://www.w3.org/2000/svg" xmlns:xlink="http://www.w3.org/1999/xlink" x="0px" y="0px"
	 viewBox="0 0 231.4 70.6" style="enable-background:new 0 0 231.4 70.6;" xml:space="preserve">
<style type="text/css">
	.st0{fill:none;stroke:#000000;stroke-width:0.25;stroke-miterlimit:10;}
	.st1{font-family:'KaiTi';}
	.st2{font-size:10px;}
	.st3{fill:none;stroke:#000000;stroke-width:0.5;stroke-miterlimit:10;}
</style>
<path class="st0" d="M153.8,24.8"/>
<path class="st0" d="M155.8,0"/>
<path class="st0" d="M160.7,12.8"/>
<path class="st0" d="M153.8,24.6"/>
<path class="st0" d="M153.7,24.1"/>
<text transform="matrix(1 0 0 1 111.4156 12.8)" class="st1 st2">定善凡夫……观经十三观</text>
<text transform="matrix(1 0 0 1 111.4156 26.8)" class="st1 st2">散善凡夫……九品中前六品</text>
<text transform="matrix(1 0 0 1 111.4156 40.7999)" class="st1 st2">十恶众生……下品上生</text>
<text transform="matrix(1 0 0 1 111.4156 54.7999)" class="st1 st2">破戒众生……下品中生</text>
<text transform="matrix(1 0 0 1 111.4156 68.7999)" class="st1 st2">五逆众生……下品下生</text>
<g>
	<line class="st3" x1="102.6" y1="16.1" x2="105.5" y2="16.1"/>
	<line class="st3" x1="105.4" y1="9.2" x2="108.3" y2="9.2"/>
	<line class="st3" x1="105.4" y1="23.4" x2="108.3" y2="23.4"/>
	<line class="st3" x1="105.5" y1="9" x2="105.5" y2="23.6"/>
</g>
<line class="st3" x1="102.6" y1="51.1" x2="105.5" y2="51.1"/>
<line class="st3" x1="105.4" y1="37.6" x2="108.3" y2="37.6"/>
<line class="st3" x1="105.4" y1="65.1" x2="108.3" y2="65.1"/>
<line class="st3" x1="105.5" y1="37.3" x2="105.5" y2="65.3"/>
<text transform="matrix(1 0 0 1 79.4155 20.0398)" class="st1 st2">善二</text>
<text transform="matrix(1 0 0 1 79.4155 55.0398)" class="st1 st2">恶三</text>
<line class="st3" x1="71.1" y1="33.3" x2="74" y2="33.3"/>
<line class="st3" x1="73.8" y1="16.3" x2="76.7" y2="16.3"/>
<line class="st3" x1="73.8" y1="51.3" x2="76.7" y2="51.3"/>
<line class="st3" x1="73.9" y1="16" x2="73.9" y2="51.5"/>
<text transform="matrix(1 0 0 1 0 37.31)" class="st1 st2">南无(十方众生)</text>
</svg>
