<?xml version="1.0" encoding="utf-8"?>
<!-- Generator: Adobe Illustrator 21.0.0, SVG Export Plug-In . SVG Version: 6.00 Build 0)  -->
<svg version="1.1" id="圖層_1" xmlns="http://www.w3.org/2000/svg" xmlns:xlink="http://www.w3.org/1999/xlink" x="0px" y="0px"
	 viewBox="0 0 285 129.4" style="enable-background:new 0 0 285 129.4;" xml:space="preserve">
<style type="text/css">
	.st0{font-family:'KaiTi';}
	.st1{font-size:10px;}
	.st2{font-family:'DFKaiShu-SB-Estd-BF';}
	.st3{fill:none;stroke:#000000;stroke-width:0.5;stroke-miterlimit:10;}
</style>
<text transform="matrix(1 0 0 1 195 15.5938)"><tspan x="0" y="0" class="st0 st1">淨土入信歡喜</tspan><tspan x="0" y="14" class="st0 st1">見佛往生</tspan><tspan x="40" y="14" class="st2 st1">(</tspan><tspan x="45" y="14" class="st0 st1">來迎引接</tspan><tspan x="85" y="14" class="st2 st1">)</tspan><tspan x="0" y="28" class="st0 st1">罪障滅盡</tspan><tspan x="0" y="42" class="st0 st1">隨逐影護</tspan><tspan x="0" y="56" class="st0 st1">修習善業</tspan><tspan x="0" y="70" class="st0 st1">促成善緣</tspan><tspan x="0" y="84" class="st0 st1">貧苦得濟</tspan><tspan x="0" y="98" class="st0 st1">延年轉壽</tspan><tspan x="0" y="112" class="st0 st1">重轉輕受</tspan></text>
<text transform="matrix(1 0 0 1 163 16)"><tspan x="0" y="0" class="st0 st1">始益</tspan><tspan x="0" y="14" class="st0 st1">終益</tspan><tspan x="0" y="28" class="st0 st1">滅罪</tspan><tspan x="0" y="42" class="st0 st1">護念</tspan><tspan x="0" y="63" class="st0 st1">生善</tspan><tspan x="0" y="98" class="st0 st1">攘災</tspan></text>
<text transform="matrix(1 0 0 1 132 23.4063)"><tspan x="0" y="0" class="st0 st1">約時</tspan><tspan x="0" y="35" class="st0 st1">約質</tspan><tspan x="0" y="91" class="st0 st1">招福</tspan></text>
<text transform="matrix(1 0 0 1 81 9.4063)"><tspan x="0" y="0" class="st0 st1">往生極樂</tspan><tspan x="0" y="31.5" class="st0 st1">心的利益</tspan><tspan x="0" y="105" class="st0 st1">物的利益</tspan></text>
<text transform="matrix(1 0 0 1 50 9.4063)"><tspan x="0" y="0" class="st0 st1">當益</tspan><tspan x="0" y="66.5" class="st0 st1">現益</tspan></text>
<line class="st3" x1="186.5" y1="11.1" x2="192" y2="11.1"/>
<line class="st3" x1="186.5" y1="26.2" x2="192" y2="26.2"/>
<line class="st3" x1="186.5" y1="40" x2="192" y2="40"/>
<line class="st3" x1="186.5" y1="54.3" x2="192" y2="54.3"/>
<g>
	<line class="st3" x1="189.3" y1="95.5" x2="189.3" y2="124.8"/>
	<line class="st3" x1="189.3" y1="95.5" x2="191.9" y2="95.5"/>
	<line class="st3" x1="189.3" y1="124.8" x2="191.9" y2="124.8"/>
	<line class="st3" x1="189.3" y1="110.1" x2="186.5" y2="110.1"/>
</g>
<g>
	<line class="st3" x1="189.3" y1="67.8" x2="189.3" y2="82.8"/>
	<line class="st3" x1="189.3" y1="67.8" x2="191.9" y2="67.8"/>
	<line class="st3" x1="189.3" y1="82.8" x2="191.9" y2="82.8"/>
	<line class="st3" x1="189.3" y1="75.3" x2="186.5" y2="75.3"/>
</g>
<g>
	<line class="st3" x1="157" y1="11.1" x2="157" y2="26.2"/>
	<line class="st3" x1="157" y1="11.1" x2="159.7" y2="11.1"/>
	<line class="st3" x1="157" y1="26.2" x2="159.7" y2="26.2"/>
	<line class="st3" x1="157" y1="18.7" x2="154.2" y2="18.7"/>
</g>
<g>
	<line class="st3" x1="157.1" y1="40.2" x2="157.1" y2="75.3"/>
	<line class="st3" x1="157.1" y1="40.2" x2="159.7" y2="40.2"/>
	<line class="st3" x1="157.1" y1="75.3" x2="159.7" y2="75.3"/>
	<line class="st3" x1="157.1" y1="54.3" x2="154.3" y2="54.3"/>
</g>
<line class="st3" x1="154.3" y1="110.1" x2="159.8" y2="110.1"/>
<line class="st3" x1="123.7" y1="110.1" x2="129.2" y2="110.1"/>
<g>
	<line class="st3" x1="128.3" y1="18.7" x2="128.3" y2="54.3"/>
	<line class="st3" x1="128.3" y1="18.7" x2="131" y2="18.7"/>
	<line class="st3" x1="128.3" y1="54.3" x2="131" y2="54.3"/>
	<line class="st3" x1="128.3" y1="36.5" x2="125.6" y2="36.5"/>
</g>
<line class="st3" x1="72.3" y1="6.3" x2="77.8" y2="6.3"/>
<g>
	<line class="st3" x1="75.1" y1="36.5" x2="75.1" y2="110.1"/>
	<line class="st3" x1="75.1" y1="36.5" x2="77.8" y2="36.5"/>
	<line class="st3" x1="75.1" y1="110.1" x2="77.8" y2="110.1"/>
	<line class="st3" x1="75.1" y1="73.3" x2="72.3" y2="73.3"/>
</g>
<g>
	<line class="st3" x1="45.3" y1="6.3" x2="45.3" y2="73.3"/>
	<line class="st3" x1="45.3" y1="6.3" x2="48" y2="6.3"/>
	<line class="st3" x1="45.3" y1="73.3" x2="48" y2="73.3"/>
	<line class="st3" x1="45.3" y1="36.5" x2="42.6" y2="36.5"/>
</g>
<text transform="matrix(1 0 0 1 0 39.125)" class="st0 st1">念佛利益</text>
</svg>
