<?xml version="1.0" encoding="utf-8"?>
<!-- Generator: Adobe Illustrator 19.1.0, SVG Export Plug-In . SVG Version: 6.00 Build 0)  -->
<svg version="1.1" id="圖層_1" xmlns="http://www.w3.org/2000/svg" xmlns:xlink="http://www.w3.org/1999/xlink" x="0px" y="0px"
	 viewBox="0 0 68.6 302.2" style="enable-background:new 0 0 68.6 302.2;" xml:space="preserve">
<style type="text/css">
	.st0{fill:#040000;}
	.st1{font-family:KaiTi;}
	.st2{font-size:10px;}
	.st3{font-size:10px;glyph-orientation-vertical:0;writing-mode:tb;}
	.st4{writing-mode:tb;}
	.st5{font-size:10px;glyph-orientation-vertical:0;}
	.st6{fill:none;stroke:#040000;stroke-width:0.5;stroke-miterlimit:10;}
</style>
<text transform="matrix(1 0 0 1 23.3352 8.5938)" class="st0 st1 st2">念佛成佛</text>
<text transform="matrix(1 0 0 1 17.8012 28.6464)" class="st0 st1 st2">果</text>
<text transform="matrix(1 0 0 1 8.9995 41.938)" class="st0 st1 st3">用</text>
<text transform="matrix(1 0 0 1 8.9997 63.938)" class="st0 st1 st3">第二二願</text>
<text transform="matrix(1 0 0 1 8.9997 117.1879)" class="st0 st1 st3">還相迴向願</text>
<text transform="matrix(1 0 0 1 8.9997 180.9081)" class="st4"><tspan x="0" y="0" class="st0 st1 st5">供養諸佛</tspan><tspan x="-4" y="40" class="st0 st1 st5">，</tspan><tspan x="0" y="50" class="st0 st1 st5">開化眾生</tspan></text>
<text transform="matrix(1 0 0 1 8.9155 282.1983)" class="st0 st1 st3">還相</text>
<text transform="matrix(1 0 0 1 36.4502 41.938)" class="st0 st1 st3">體</text>
<text transform="matrix(1 0 0 1 36.4499 63.938)" class="st0 st1 st3">第十一願</text>
<text transform="matrix(1 0 0 1 36.4499 117.1879)" class="st0 st1 st3">必至滅度願</text>
<text transform="matrix(1 0 0 1 36.4499 180.9081)" class="st4"><tspan x="0" y="0" class="st0 st1 st5">成等正覺</tspan><tspan x="-4" y="40" class="st0 st1 st5">，</tspan><tspan x="0" y="50" class="st0 st1 st5">證大涅槃</tspan></text>
<text transform="matrix(1 0 0 1 58.6409 28.6467)" class="st0 st1 st2">因</text>
<text transform="matrix(1 0 0 1 63.6409 63.9385)" class="st0 st1 st3">第十八願</text>
<text transform="matrix(1 0 0 1 63.6409 117.1885)" class="st0 st1 st3">念佛往生願</text>
<text transform="matrix(1 0 0 1 63.6409 180.9085)" class="st4"><tspan x="0" y="0" class="st0 st1 st5">欲生我國</tspan><tspan x="-4" y="40" class="st0 st1 st5">，</tspan><tspan x="0" y="50" class="st0 st1 st5">乃至十念</tspan></text>
<text transform="matrix(1 0 0 1 50.1434 282.198)" class="st0 st1 st3">往相</text>
<g>
	<line class="st6" x1="22.8" y1="32.2" x2="22.8" y2="35.1"/>
	<line class="st6" x1="36.4" y1="35" x2="36.4" y2="38.1"/>
	<line class="st6" x1="9" y1="35.2" x2="9" y2="38.1"/>
	<line class="st6" x1="36.7" y1="35.2" x2="8.7" y2="35.2"/>
</g>
<g>
	<line class="st6" x1="50.1" y1="280.1" x2="50.1" y2="277.2"/>
	<line class="st6" x1="36.5" y1="277.3" x2="36.5" y2="274.2"/>
	<line class="st6" x1="63.9" y1="277" x2="63.9" y2="274.2"/>
	<line class="st6" x1="36.3" y1="277" x2="64.2" y2="277"/>
</g>
<g>
	<line class="st6" x1="43.3" y1="12.7" x2="43.3" y2="15.5"/>
	<line class="st6" x1="63.6" y1="15.5" x2="63.6" y2="18.4"/>
	<line class="st6" x1="22.8" y1="15.5" x2="22.8" y2="18.4"/>
	<line class="st6" x1="63.9" y1="15.5" x2="22.5" y2="15.5"/>
</g>
<line class="st6" x1="8.8" y1="54.9" x2="8.8" y2="60.6"/>
<line class="st6" x1="36.7" y1="54.9" x2="36.7" y2="60.6"/>
<line class="st6" x1="63.9" y1="32.2" x2="63.9" y2="60.6"/>
<line class="st6" x1="8.9" y1="274.1" x2="8.9" y2="279.8"/>
<g>
	<line class="st6" x1="36.7" y1="107.6" x2="36.7" y2="113.2"/>
	<line class="st6" x1="8.9" y1="107.6" x2="8.9" y2="113.2"/>
	<line class="st6" x1="63.9" y1="107.6" x2="63.9" y2="113.2"/>
</g>
<g>
	<line class="st6" x1="36.7" y1="171.4" x2="36.7" y2="177"/>
	<line class="st6" x1="8.9" y1="171.4" x2="8.9" y2="177"/>
	<line class="st6" x1="63.9" y1="171.4" x2="63.9" y2="177"/>
</g>
</svg>
