<?xml version="1.0" encoding="utf-8"?>
<!-- Generator: Adobe Illustrator 21.0.0, SVG Export Plug-In . SVG Version: 6.00 Build 0)  -->
<svg version="1.1" baseProfile="tiny" id="图层_1"
	 xmlns="http://www.w3.org/2000/svg" xmlns:xlink="http://www.w3.org/1999/xlink" x="0px" y="0px" viewBox="0 0 312.7 66.6"
	 overflow="scroll" xml:space="preserve">
<text transform="matrix(1 0 0 1 -1.373291e-04 30.3957)" font-family="'KaiTi'" font-size="10px">念佛成佛</text>
<text transform="matrix(1 0 0 1 51.25 8.5938)" font-family="'KaiTi'" font-size="10px">因</text>
<text transform="matrix(1 0 0 1 61.25 8.5938)" font-family="'KaiTi'" font-size="10px"> </text>
<text transform="matrix(1 0 0 1 71.25 8.5938)" font-family="'KaiTi'" font-size="10px"> </text>
<text transform="matrix(1 0 0 1 81.25 8.5938)" font-family="'KaiTi'" font-size="10px"> </text>
<text transform="matrix(1 0 0 1 91.25 8.5938)" font-family="'KaiTi'" font-size="10px">第</text>
<text transform="matrix(1 0 0 1 101.25 8.5938)" font-family="'KaiTi'" font-size="10px">十</text>
<text transform="matrix(1 0 0 1 111.25 8.5938)" font-family="'KaiTi'" font-size="10px">八</text>
<text transform="matrix(1 0 0 1 121.25 8.5938)" font-family="'KaiTi'" font-size="10px">愿</text>
<text transform="matrix(1 0 0 1 131.25 8.5938)" font-family="'KaiTi'" font-size="10px"> </text>
<text transform="matrix(1 0 0 1 141.25 8.5938)" font-family="'KaiTi'" font-size="10px">念</text>
<text transform="matrix(1 0 0 1 151.25 8.5938)" font-family="'KaiTi'" font-size="10px">佛</text>
<text transform="matrix(1 0 0 1 161.25 8.5938)" font-family="'KaiTi'" font-size="10px">往</text>
<text transform="matrix(1 0 0 1 171.25 8.5938)" font-family="'KaiTi'" font-size="10px">生</text>
<text transform="matrix(1 0 0 1 181.25 8.5938)" font-family="'KaiTi'" font-size="10px"> </text>
<text transform="matrix(1 0 0 1 191.25 8.5938)" font-family="'KaiTi'" font-size="10px">若</text>
<text transform="matrix(1 0 0 1 201.25 8.5938)" font-family="'KaiTi'" font-size="10px">不</text>
<text transform="matrix(1 0 0 1 211.25 8.5938)" font-family="'KaiTi'" font-size="10px">生</text>
<text transform="matrix(1 0 0 1 221.25 8.5938)" font-family="'KaiTi'" font-size="10px">者</text>
<text transform="matrix(1 0 0 1 231.25 8.5938)" font-family="'DFKaiShu-SB-Estd-BF'" font-size="10px">，</text>
<text transform="matrix(1 0 0 1 241.25 8.5938)" font-family="'KaiTi'" font-size="10px">不</text>
<text transform="matrix(1 0 0 1 251.25 8.5938)" font-family="'KaiTi'" font-size="10px">取</text>
<text transform="matrix(1 0 0 1 261.25 8.5938)" font-family="'KaiTi'" font-size="10px">正</text>
<text transform="matrix(1 0 0 1 271.25 8.5938)" font-family="'KaiTi'" font-size="10px">觉</text>
<text transform="matrix(1 0 0 1 51.25 36.5938)" font-family="'KaiTi'" font-size="10px"> </text>
<text transform="matrix(1 0 0 1 61.25 36.5938)" font-family="'KaiTi'" font-size="10px"> </text>
<text transform="matrix(1 0 0 1 71.25 36.5938)" font-family="'KaiTi'" font-size="10px">体</text>
<text transform="matrix(1 0 0 1 81.25 36.5938)" font-family="'KaiTi'" font-size="10px"> </text>
<text transform="matrix(1 0 0 1 91.25 36.5938)" font-family="'KaiTi'" font-size="10px">第</text>
<text transform="matrix(1 0 0 1 101.25 36.5938)" font-family="'KaiTi'" font-size="10px">十</text>
<text transform="matrix(1 0 0 1 111.25 36.5938)" font-family="'KaiTi'" font-size="10px">一</text>
<text transform="matrix(1 0 0 1 121.25 36.5938)" font-family="'KaiTi'" font-size="10px">愿</text>
<text transform="matrix(1 0 0 1 131.25 36.5938)" font-family="'KaiTi'" font-size="10px"> </text>
<text transform="matrix(1 0 0 1 141.25 36.5938)" font-family="'KaiTi'" font-size="10px">必</text>
<text transform="matrix(1 0 0 1 151.25 36.5938)" font-family="'KaiTi'" font-size="10px">至</text>
<text transform="matrix(1 0 0 1 161.25 36.5938)" font-family="'KaiTi'" font-size="10px">灭</text>
<text transform="matrix(1 0 0 1 171.25 36.5938)" font-family="'KaiTi'" font-size="10px">度</text>
<text transform="matrix(1 0 0 1 181.25 36.5938)" font-family="'KaiTi'" font-size="10px"> </text>
<text transform="matrix(1 0 0 1 191.25 36.5938)" font-family="'KaiTi'" font-size="10px">成</text>
<text transform="matrix(1 0 0 1 201.25 36.5938)" font-family="'KaiTi'" font-size="10px">等</text>
<text transform="matrix(1 0 0 1 211.25 36.5938)" font-family="'KaiTi'" font-size="10px">正</text>
<text transform="matrix(1 0 0 1 221.25 36.5938)" font-family="'KaiTi'" font-size="10px">觉</text>
<text transform="matrix(1 0 0 1 231.25 36.5938)" font-family="'DFKaiShu-SB-Estd-BF'" font-size="10px">，</text>
<text transform="matrix(1 0 0 1 241.25 36.5938)" font-family="'KaiTi'" font-size="10px">证</text>
<text transform="matrix(1 0 0 1 251.25 36.5938)" font-family="'KaiTi'" font-size="10px">大</text>
<text transform="matrix(1 0 0 1 261.25 36.5938)" font-family="'KaiTi'" font-size="10px">涅</text>
<text transform="matrix(1 0 0 1 271.25 36.5938)" font-family="'KaiTi'" font-size="10px">盘</text>
<text transform="matrix(1 0 0 1 51.25 50.5938)" font-family="'KaiTi'" font-size="10px">果</text>
<text transform="matrix(1 0 0 1 51.25 64.5938)" font-family="'KaiTi'" font-size="10px"> </text>
<text transform="matrix(1 0 0 1 61.25 64.5938)" font-family="'KaiTi'" font-size="10px"> </text>
<text transform="matrix(1 0 0 1 71.25 64.5938)" font-family="'KaiTi'" font-size="10px">用</text>
<text transform="matrix(1 0 0 1 81.25 64.5938)" font-family="'KaiTi'" font-size="10px"> </text>
<text transform="matrix(1 0 0 1 91.25 64.5938)" font-family="'KaiTi'" font-size="10px">第</text>
<text transform="matrix(1 0 0 1 101.25 64.5938)" font-family="'KaiTi'" font-size="10px">二</text>
<text transform="matrix(1 0 0 1 111.25 64.5938)" font-family="'KaiTi'" font-size="10px">二</text>
<text transform="matrix(1 0 0 1 121.25 64.5938)" font-family="'KaiTi'" font-size="10px">愿</text>
<text transform="matrix(1 0 0 1 131.25 64.5938)" font-family="'KaiTi'" font-size="10px"> </text>
<text transform="matrix(1 0 0 1 141.25 64.5938)" font-family="'KaiTi'" font-size="10px">一</text>
<text transform="matrix(1 0 0 1 151.25 64.5938)" font-family="'KaiTi'" font-size="10px">生</text>
<text transform="matrix(1 0 0 1 161.25 64.5938)" font-family="'KaiTi'" font-size="10px">补</text>
<text transform="matrix(1 0 0 1 171.25 64.5938)" font-family="'KaiTi'" font-size="10px">处</text>
<text transform="matrix(1 0 0 1 181.25 64.5938)" font-family="'KaiTi'" font-size="10px"> </text>
<text transform="matrix(1 0 0 1 191.25 64.5938)" font-family="'KaiTi'" font-size="10px">供</text>
<text transform="matrix(1 0 0 1 201.25 64.5938)" font-family="'KaiTi'" font-size="10px">养</text>
<text transform="matrix(1 0 0 1 211.25 64.5938)" font-family="'KaiTi'" font-size="10px">诸</text>
<text transform="matrix(1 0 0 1 221.25 64.5938)" font-family="'KaiTi'" font-size="10px">佛</text>
<text transform="matrix(1 0 0 1 231.25 64.5938)" font-family="'DFKaiShu-SB-Estd-BF'" font-size="10px">，</text>
<text transform="matrix(1 0 0 1 241.25 64.5938)" font-family="'KaiTi'" font-size="10px">开</text>
<text transform="matrix(1 0 0 1 251.25 64.5938)" font-family="'KaiTi'" font-size="10px">化</text>
<text transform="matrix(1 0 0 1 261.25 64.5938)" font-family="'KaiTi'" font-size="10px">众</text>
<text transform="matrix(1 0 0 1 271.25 64.5938)" font-family="'KaiTi'" font-size="10px">生</text>
<line fill="none" stroke="#000000" stroke-width="0.5" stroke-miterlimit="10" x1="83.2" y1="32.7" x2="88.7" y2="32.7"/>
<line fill="none" stroke="#000000" stroke-width="0.5" stroke-miterlimit="10" x1="83.2" y1="61" x2="88.7" y2="61"/>
<g>
	<line fill="none" stroke="#000000" stroke-width="0.5" stroke-miterlimit="10" x1="66.4" y1="32.7" x2="66.4" y2="61"/>
	<line fill="none" stroke="#000000" stroke-width="0.5" stroke-miterlimit="10" x1="66.4" y1="32.7" x2="69.1" y2="32.7"/>
	<line fill="none" stroke="#000000" stroke-width="0.5" stroke-miterlimit="10" x1="66.4" y1="61" x2="69.1" y2="61"/>
	<line fill="none" stroke="#000000" stroke-width="0.5" stroke-miterlimit="10" x1="66.4" y1="47.4" x2="63.6" y2="47.4"/>
</g>
<line fill="none" stroke="#000000" stroke-width="0.5" stroke-miterlimit="10" x1="63.6" y1="5.3" x2="88.7" y2="5.3"/>
<g>
	<line fill="none" stroke="#000000" stroke-width="0.5" stroke-miterlimit="10" x1="45.7" y1="5.3" x2="45.7" y2="47.4"/>
	<line fill="none" stroke="#000000" stroke-width="0.5" stroke-miterlimit="10" x1="45.7" y1="5.3" x2="48.4" y2="5.3"/>
	<line fill="none" stroke="#000000" stroke-width="0.5" stroke-miterlimit="10" x1="45.7" y1="47.4" x2="48.4" y2="47.4"/>
	<line fill="none" stroke="#000000" stroke-width="0.5" stroke-miterlimit="10" x1="45.8" y1="26.4" x2="43" y2="26.4"/>
</g>
<line fill="none" stroke="#000000" stroke-width="0.5" stroke-miterlimit="10" x1="133.2" y1="5.3" x2="138.7" y2="5.3"/>
<line fill="none" stroke="#000000" stroke-width="0.5" stroke-miterlimit="10" x1="133.2" y1="32.7" x2="138.7" y2="32.7"/>
<line fill="none" stroke="#000000" stroke-width="0.5" stroke-miterlimit="10" x1="133.2" y1="61" x2="138.7" y2="61"/>
<line fill="none" stroke="#000000" stroke-width="0.5" stroke-miterlimit="10" x1="183.2" y1="5.3" x2="188.7" y2="5.3"/>
<line fill="none" stroke="#000000" stroke-width="0.5" stroke-miterlimit="10" x1="183.2" y1="32.7" x2="188.7" y2="32.7"/>
<line fill="none" stroke="#000000" stroke-width="0.5" stroke-miterlimit="10" x1="183.2" y1="61" x2="188.7" y2="61"/>
<g>
	<line fill="none" stroke="#000000" stroke-width="0.5" stroke-miterlimit="10" x1="287" y1="32.7" x2="287" y2="5.3"/>
	<line fill="none" stroke="#000000" stroke-width="0.5" stroke-miterlimit="10" x1="287" y1="32.7" x2="284.3" y2="32.7"/>
	<line fill="none" stroke="#000000" stroke-width="0.5" stroke-miterlimit="10" x1="287" y1="5.3" x2="284.3" y2="5.3"/>
	<line fill="none" stroke="#000000" stroke-width="0.5" stroke-miterlimit="10" x1="286.9" y1="19" x2="289.8" y2="19"/>
</g>
<line fill="none" stroke="#000000" stroke-width="0.5" stroke-miterlimit="10" x1="284.2" y1="61" x2="289.7" y2="61"/>
<text transform="matrix(1 0 0 1 292.7297 22.5938)" font-family="'KaiTi'" font-size="10px">往相</text>
<text transform="matrix(1 0 0 1 292.7297 64.5938)" font-family="'KaiTi'" font-size="10px">还相</text>
</svg>
