<?xml version="1.0" encoding="utf-8"?>
<!-- Generator: Adobe Illustrator 21.0.0, SVG Export Plug-In . SVG Version: 6.00 Build 0)  -->
<svg version="1.1" id="图层_1" xmlns="http://www.w3.org/2000/svg" xmlns:xlink="http://www.w3.org/1999/xlink" x="0px" y="0px"
	 viewBox="0 0 149 34.4" style="enable-background:new 0 0 149 34.4;" xml:space="preserve">
<style type="text/css">
	.st0{enable-background:new    ;}
	.st1{font-family:'KaiTi';}
	.st2{font-size:10px;}
	.st3{fill:none;stroke:#000000;stroke-width:0.5;stroke-miterlimit:10;}
</style>
<text transform="matrix(1 0 0 1 33.0002 8.5937)" class="st0"><tspan x="0" y="0" class="st1 st2">胜</tspan><tspan x="0" y="24" class="st1 st2">易</tspan></text>
<g>
	<line class="st3" x1="26.3" y1="5.4" x2="26.3" y2="29.2"/>
	<line class="st3" x1="26.3" y1="5.4" x2="30.1" y2="5.4"/>
	<line class="st3" x1="26.3" y1="29.2" x2="30.1" y2="29.2"/>
	<line class="st3" x1="26.3" y1="17.3" x2="22.6" y2="17.3"/>
</g>
<line class="st3" x1="46.1" y1="5.4" x2="51.6" y2="5.4"/>
<line class="st3" x1="46.1" y1="29.4" x2="51.6" y2="29.4"/>
<text transform="matrix(1 0 0 1 55.0002 8.5937)" class="st0"><tspan x="0" y="0" class="st1 st2">摄一切德</tspan><tspan x="0" y="24" class="st1 st2">通一切机</tspan></text>
<g>
	<line class="st3" x1="102.4" y1="29.2" x2="102.4" y2="5.4"/>
	<line class="st3" x1="102.4" y1="29.2" x2="98.6" y2="29.2"/>
	<line class="st3" x1="102.4" y1="5.4" x2="98.6" y2="5.4"/>
	<line class="st3" x1="102.4" y1="17.3" x2="106.1" y2="17.3"/>
</g>
<text transform="matrix(1 0 0 1 0 21)" class="st1 st2">念佛</text>
<text transform="matrix(1 0 0 1 109 21)" class="st1 st2">选为本愿</text>
</svg>
