<?xml version="1.0" encoding="utf-8"?>
<!-- Generator: Adobe Illustrator 21.0.0, SVG Export Plug-In . SVG Version: 6.00 Build 0)  -->
<svg version="1.1" id="图层_1" xmlns="http://www.w3.org/2000/svg" xmlns:xlink="http://www.w3.org/1999/xlink" x="0px" y="0px"
	 viewBox="0 0 234 206.4" style="enable-background:new 0 0 234 206.4;" xml:space="preserve">
<style type="text/css">
	.st0{font-family:'KaiTi';}
	.st1{font-size:10px;}
	.st2{fill:none;stroke:#000000;stroke-width:0.5;stroke-miterlimit:10;}
</style>
<text transform="matrix(1 0 0 1 80.5 8.5938)"><tspan x="0" y="0" class="st0 st1">1弥陀住顶</tspan><tspan x="0" y="14" class="st0 st1">2佛光护身</tspan><tspan x="0" y="28" class="st0 st1">3诸佛护念</tspan><tspan x="0" y="42" class="st0 st1">4菩萨相随</tspan><tspan x="0" y="56" class="st0 st1">5冥众护持</tspan><tspan x="0" y="70" class="st0 st1">6消除罪障</tspan><tspan x="0" y="84" class="st0 st1">7增长福慧</tspan><tspan x="0" y="98" class="st0 st1">8离诸厄难</tspan><tspan x="0" y="112" class="st0 st1">9能得寿康</tspan><tspan x="0" y="126" class="st0 st1">10将获善终</tspan><tspan x="0" y="140" class="st0 st1">11入正定聚</tspan><tspan x="0" y="154" class="st0 st1">12断除轮回</tspan><tspan x="0" y="168" class="st0 st1">13往生净土</tspan><tspan x="0" y="182" class="st0 st1">14成就佛果</tspan><tspan x="0" y="196" class="st0 st1">15广度众生</tspan></text>
<g>
	<line class="st2" x1="74.8" y1="4.9" x2="74.8" y2="201.6"/>
	<line class="st2" x1="74.8" y1="4.9" x2="77.5" y2="4.9"/>
	<line class="st2" x1="74.8" y1="201.9" x2="77.5" y2="201.9"/>
	<line class="st2" x1="74.8" y1="103.1" x2="72.1" y2="103.1"/>
</g>
<g>
	<line class="st2" x1="136.2" y1="145.3" x2="136.2" y2="4.9"/>
	<line class="st2" x1="136.2" y1="145.3" x2="133.6" y2="145.3"/>
	<line class="st2" x1="136.2" y1="4.9" x2="127.3" y2="4.9"/>
	<line class="st2" x1="136.2" y1="75.1" x2="139" y2="75.1"/>
</g>
<g>
	<line class="st2" x1="136.2" y1="201.9" x2="136.2" y2="158.8"/>
	<line class="st2" x1="136.2" y1="201.9" x2="133.5" y2="201.9"/>
	<line class="st2" x1="136.2" y1="158.8" x2="133.5" y2="158.8"/>
	<line class="st2" x1="136.2" y1="180.3" x2="139" y2="180.3"/>
</g>
<text transform="matrix(1 0 0 1 142.5 78.75)" class="st0 st1">现益</text>
<text transform="matrix(1 0 0 1 0 106.5)" class="st0 st1">念佛十五种利益</text>
<text transform="matrix(1 0 0 1 142.5 183.75)" class="st0 st1">当益</text>
<g>
	<line class="st2" x1="168.2" y1="180.3" x2="168.2" y2="75.1"/>
	<line class="st2" x1="168.2" y1="180.3" x2="165.6" y2="180.3"/>
	<line class="st2" x1="168.2" y1="75.1" x2="165.6" y2="75.1"/>
	<line class="st2" x1="168.2" y1="127.7" x2="171" y2="127.7"/>
</g>
<text transform="matrix(1 0 0 1 174.0249 131.5)" class="st0 st1">念佛现当二益</text>
</svg>
