<?xml version="1.0" encoding="utf-8"?>
<!-- Generator: Adobe Illustrator 21.0.0, SVG Export Plug-In . SVG Version: 6.00 Build 0)  -->
<svg version="1.1" id="图层_1" xmlns="http://www.w3.org/2000/svg" xmlns:xlink="http://www.w3.org/1999/xlink" x="0px" y="0px"
	 viewBox="0 0 285 136.4" style="enable-background:new 0 0 285 136.4;" xml:space="preserve">
<style type="text/css">
	.st0{font-family:'KaiTi';}
	.st1{font-size:10px;}
	.st2{font-family:'DFKaiShu-SB-Estd-BF';}
	.st3{letter-spacing:5;}
	.st4{fill:none;stroke:#000000;stroke-width:0.5;stroke-miterlimit:10;}
</style>
<text transform="matrix(1 0 0 1 0 8.5938)" class="st0 st1">念</text>
<text transform="matrix(1 0 0 1 10 8.5938)" class="st0 st1">观</text>
<text transform="matrix(1 0 0 1 20 8.5938)" class="st0 st1">二</text>
<text transform="matrix(1 0 0 1 30 8.5938)" class="st0 st1">宗</text>
<text transform="matrix(1 0 0 1 40 8.5938)" class="st2 st1">：</text>
<text transform="matrix(1 0 0 1 50 8.5938)" class="st0 st1">今</text>
<text transform="matrix(1 0 0 1 60 8.5938)" class="st0 st1">此</text>
<text transform="matrix(1 0 0 1 70 8.5938)" class="st0 st1">《</text>
<text transform="matrix(1 0 0 1 80 8.5938)" class="st0 st1">观</text>
<text transform="matrix(1 0 0 1 90 8.5938)" class="st0 st1">经</text>
<text transform="matrix(1 0 0 1 100 8.5938)" class="st0 st1">》</text>
<text transform="matrix(1 0 0 1 110 8.5938)" class="st2 st1">：</text>
<text transform="matrix(1 0 0 1 120 8.5938)" class="st0 st1">即</text>
<text transform="matrix(1 0 0 1 130 8.5938)" class="st0 st1">以</text>
<text transform="matrix(1 0 0 1 140 8.5938)" class="st0 st1">观</text>
<text transform="matrix(1 0 0 1 150 8.5938)" class="st0 st1">佛</text>
<text transform="matrix(1 0 0 1 160 8.5938)" class="st0 st1">三</text>
<text transform="matrix(1 0 0 1 170 8.5938)" class="st0 st1">昧</text>
<text transform="matrix(1 0 0 1 180 8.5938)" class="st0 st1">为</text>
<text transform="matrix(1 0 0 1 190 8.5938)" class="st0 st1">宗</text>
<text transform="matrix(1 0 0 1 200 8.5938)" class="st2 st1">，</text>
<text transform="matrix(1 0 0 1 210 8.5938)" class="st0 st1">亦</text>
<text transform="matrix(1 0 0 1 220 8.5938)" class="st0 st1">以</text>
<text transform="matrix(1 0 0 1 230 8.5938)" class="st0 st1">念</text>
<text transform="matrix(1 0 0 1 240 8.5938)" class="st0 st1">佛</text>
<text transform="matrix(1 0 0 1 250 8.5938)" class="st0 st1">三</text>
<text transform="matrix(1 0 0 1 260.0005 8.5938)" class="st0 st1">昧</text>
<text transform="matrix(1 0 0 1 270.0005 8.5938)" class="st0 st1">为</text>
<text transform="matrix(1 0 0 1 0 22.5938)" class="st0 st1 st3"> </text>
<text transform="matrix(1 0 0 1 10 22.5938)" class="st0 st1 st3"> </text>
<text transform="matrix(1 0 0 1 20 22.5938)" class="st0 st1 st3"> </text>
<text transform="matrix(1 0 0 1 30 22.5938)" class="st0 st1 st3"> </text>
<text transform="matrix(1 0 0 1 40 22.5938)" class="st0 st1 st3"> </text>
<text transform="matrix(1 0 0 1 50 22.5938)" class="st0 st1">宗</text>
<text transform="matrix(1 0 0 1 60 22.5938)" class="st2 st1">。</text>
<text transform="matrix(1 0 0 1 0 36.5938)" class="st0 st1 st3"> </text>
<text transform="matrix(1 0 0 1 10 36.5938)" class="st0 st1 st3"> </text>
<text transform="matrix(1 0 0 1 20 36.5938)" class="st0 st1 st3"> </text>
<text transform="matrix(1 0 0 1 40 36.5938)" class="st0 st1 st3"> </text>
<text transform="matrix(1 0 0 1 60 36.5938)" class="st0 st1 st3"> </text>
<text transform="matrix(1 0 0 1 70 36.5938)" class="st0 st1 st3"> </text>
<text transform="matrix(1 0 0 1 80 36.5938)" class="st0 st1 st3"> </text>
<text transform="matrix(1 0 0 1 90 36.5938)" class="st0 st1 st3"> </text>
<text transform="matrix(1 0 0 1 100 36.5938)" class="st0 st1 st3"> </text>
<text transform="matrix(1 0 0 1 110 36.5938)" class="st0 st1 st3"> </text>
<text transform="matrix(1 0 0 1 120 36.5938)" class="st0 st1 st3"> </text>
<text transform="matrix(1 0 0 1 130 36.5938)" class="st0 st1 st3"> </text>
<text transform="matrix(1 0 0 1 140 36.5938)" class="st0 st1 st3"> </text>
<text transform="matrix(1 0 0 1 150 36.5938)" class="st0 st1 st3"> </text>
<text transform="matrix(1 0 0 1 160 36.5938)" class="st0 st1">—</text>
<text transform="matrix(1 0 0 1 170 36.5938)" class="st0 st1"> </text>
<text transform="matrix(1 0 0 1 175 36.5938)" class="st0 st1">—</text>
<text transform="matrix(1 0 0 1 185 36.5938)" class="st0 st1">《</text>
<text transform="matrix(1 0 0 1 195 36.5938)" class="st0 st1">观</text>
<text transform="matrix(1 0 0 1 205 36.5938)" class="st0 st1">经</text>
<text transform="matrix(1 0 0 1 215 36.5938)" class="st0 st1">疏</text>
<text transform="matrix(1 0 0 1 225 36.5938)" class="st0 st1">》</text>
<text transform="matrix(1 0 0 1 235 36.5938)" class="st0 st1">〈</text>
<text transform="matrix(1 0 0 1 245 36.5938)" class="st0 st1">玄</text>
<text transform="matrix(1 0 0 1 255.0005 36.5938)" class="st0 st1">义</text>
<text transform="matrix(1 0 0 1 265.0005 36.5938)" class="st0 st1">分</text>
<text transform="matrix(1 0 0 1 275.0005 36.5938)" class="st0 st1">〉</text>
<text transform="matrix(1 0 0 1 0 64.5938)" class="st0 st1">念</text>
<text transform="matrix(1 0 0 1 10 64.5938)" class="st0 st1">观</text>
<text transform="matrix(1 0 0 1 20 64.5938)" class="st0 st1">废</text>
<text transform="matrix(1 0 0 1 30 64.5938)" class="st0 st1">立</text>
<text transform="matrix(1 0 0 1 40 64.5938)" class="st2 st1">：</text>
<text transform="matrix(1 0 0 1 50 64.5938)" class="st0 st1">佛</text>
<text transform="matrix(1 0 0 1 60 64.5938)" class="st0 st1">告</text>
<text transform="matrix(1 0 0 1 70 64.5938)" class="st0 st1">阿</text>
<text transform="matrix(1 0 0 1 80 64.5938)" class="st0 st1">难</text>
<text transform="matrix(1 0 0 1 90 64.5938)" class="st2 st1">：</text>
<text transform="matrix(1 0 0 1 100 64.5938)" class="st2 st1">「</text>
<text transform="matrix(1 0 0 1 110 64.5938)" class="st0 st1">汝</text>
<text transform="matrix(1 0 0 1 120 64.5938)" class="st0 st1">好</text>
<text transform="matrix(1 0 0 1 130 64.5938)" class="st0 st1">持</text>
<text transform="matrix(1 0 0 1 140 64.5938)" class="st0 st1">是</text>
<text transform="matrix(1 0 0 1 150 64.5938)" class="st0 st1">语</text>
<text transform="matrix(1 0 0 1 160 64.5938)" class="st2 st1">，</text>
<text transform="matrix(1 0 0 1 170 64.5938)" class="st0 st1">持</text>
<text transform="matrix(1 0 0 1 180 64.5938)" class="st0 st1">是</text>
<text transform="matrix(1 0 0 1 190 64.5938)" class="st0 st1">语</text>
<text transform="matrix(1 0 0 1 200 64.5938)" class="st0 st1">者</text>
<text transform="matrix(1 0 0 1 210 64.5938)" class="st2 st1">，</text>
<text transform="matrix(1 0 0 1 220 64.5938)" class="st0 st1">即</text>
<text transform="matrix(1 0 0 1 230 64.5938)" class="st0 st1">是</text>
<text transform="matrix(1 0 0 1 240 64.5938)" class="st0 st1">持</text>
<text transform="matrix(1 0 0 1 250 64.5938)" class="st0 st1">无</text>
<text transform="matrix(1 0 0 1 260.0005 64.5938)" class="st0 st1">量</text>
<text transform="matrix(1 0 0 1 270.0005 64.5938)" class="st0 st1">寿</text>
<text transform="matrix(1 0 0 1 0 78.5938)" class="st0 st1 st3"> </text>
<text transform="matrix(1 0 0 1 10 78.5938)" class="st0 st1 st3"> </text>
<text transform="matrix(1 0 0 1 20 78.5938)" class="st0 st1 st3"> </text>
<text transform="matrix(1 0 0 1 30 78.5938)" class="st0 st1 st3"> </text>
<text transform="matrix(1 0 0 1 40 78.5938)" class="st0 st1 st3"> </text>
<text transform="matrix(1 0 0 1 50 78.5938)" class="st0 st1">佛</text>
<text transform="matrix(1 0 0 1 60 78.5938)" class="st0 st1">名</text>
<text transform="matrix(1 0 0 1 70 78.5938)" class="st2 st1">。</text>
<text transform="matrix(1 0 0 1 80 78.5938)" class="st2 st1">」</text>
<text transform="matrix(1 0 0 1 0 92.5938)" class="st0 st1 st3"> </text>
<text transform="matrix(1 0 0 1 10 92.5938)" class="st0 st1 st3"> </text>
<text transform="matrix(1 0 0 1 20 92.5938)" class="st0 st1 st3"> </text>
<text transform="matrix(1 0 0 1 30 92.5938)" class="st0 st1 st3"> </text>
<text transform="matrix(1 0 0 1 40 92.5938)" class="st0 st1 st3"> </text>
<text transform="matrix(1 0 0 1 50 92.5938)" class="st0 st1 st3"> </text>
<text transform="matrix(1 0 0 1 70 92.5938)" class="st0 st1 st3"> </text>
<text transform="matrix(1 0 0 1 80 92.5938)" class="st0 st1 st3"> </text>
<text transform="matrix(1 0 0 1 90 92.5938)" class="st0 st1 st3"> </text>
<text transform="matrix(1 0 0 1 100 92.5938)" class="st0 st1 st3"> </text>
<text transform="matrix(1 0 0 1 110 92.5938)" class="st0 st1 st3"> </text>
<text transform="matrix(1 0 0 1 120 92.5938)" class="st0 st1 st3"> </text>
<text transform="matrix(1 0 0 1 130 92.5938)" class="st0 st1 st3"> </text>
<text transform="matrix(1 0 0 1 140 92.5938)" class="st0 st1 st3"> </text>
<text transform="matrix(1 0 0 1 150 92.5938)" class="st0 st1 st3"> </text>
<text transform="matrix(1 0 0 1 160 92.5938)" class="st0 st1">—</text>
<text transform="matrix(1 0 0 1 170 92.5938)" class="st0 st1"> </text>
<text transform="matrix(1 0 0 1 175 92.5938)" class="st0 st1">—</text>
<text transform="matrix(1 0 0 1 185 92.5938)" class="st0 st1">《</text>
<text transform="matrix(1 0 0 1 195 92.5938)" class="st0 st1">观</text>
<text transform="matrix(1 0 0 1 205 92.5938)" class="st0 st1 st3"> </text>
<text transform="matrix(1 0 0 1 215 92.5938)" class="st0 st1">经</text>
<text transform="matrix(1 0 0 1 225 92.5938)" class="st0 st1">》</text>
<text transform="matrix(1 0 0 1 235 92.5938)" class="st0 st1">〈</text>
<text transform="matrix(1 0 0 1 245 92.5938)" class="st0 st1">流</text>
<text transform="matrix(1 0 0 1 255.0005 92.5938)" class="st0 st1">通</text>
<text transform="matrix(1 0 0 1 265.0005 92.5938)" class="st0 st1">分</text>
<text transform="matrix(1 0 0 1 275.0005 92.5938)" class="st0 st1">〉</text>
<text transform="matrix(1 0 0 1 0 106.5938)" class="st0 st1">善</text>
<text transform="matrix(1 0 0 1 10 106.5938)" class="st0 st1"> </text>
<text transform="matrix(1 0 0 1 15 106.5938)" class="st0 st1">导</text>
<text transform="matrix(1 0 0 1 25 106.5938)" class="st0 st1"> </text>
<text transform="matrix(1 0 0 1 30 106.5938)" class="st0 st1">释</text>
<text transform="matrix(1 0 0 1 40 106.5938)" class="st2 st1">：</text>
<text transform="matrix(1 0 0 1 50 106.5938)" class="st0 st1">上</text>
<text transform="matrix(1 0 0 1 60 106.5938)" class="st0 st1">来</text>
<text transform="matrix(1 0 0 1 70 106.5938)" class="st0 st1">虽</text>
<text transform="matrix(1 0 0 1 80 106.5938)" class="st0 st1">说</text>
<text transform="matrix(1 0 0 1 90 106.5938)" class="st2 st1">「</text>
<text transform="matrix(1 0 0 1 100 106.5938)" class="st0 st1">定</text>
<text transform="matrix(1 0 0 1 110 106.5938)" class="st2 st1">、</text>
<text transform="matrix(1 0 0 1 120 106.5938)" class="st0 st1">散</text>
<text transform="matrix(1 0 0 1 130 106.5938)" class="st2 st1">」</text>
<text transform="matrix(1 0 0 1 140 106.5938)" class="st0 st1">两</text>
<text transform="matrix(1 0 0 1 150 106.5938)" class="st0 st1">门</text>
<text transform="matrix(1 0 0 1 160 106.5938)" class="st0 st1">之</text>
<text transform="matrix(1 0 0 1 170 106.5938)" class="st0 st1">益</text>
<text transform="matrix(1 0 0 1 180 106.5938)" class="st2 st1">，</text>
<text transform="matrix(1 0 0 1 0 120.5938)" class="st0 st1">结</text>
<text transform="matrix(1 0 0 1 10 120.5938)" class="st0 st1 st3"> </text>
<text transform="matrix(1 0 0 1 20 120.5938)" class="st0 st1 st3"> </text>
<text transform="matrix(1 0 0 1 30 120.5938)" class="st0 st1">归</text>
<text transform="matrix(1 0 0 1 40 120.5938)" class="st2 st1">：</text>
<text transform="matrix(1 0 0 1 50 120.5938)" class="st0 st1">望</text>
<text transform="matrix(1 0 0 1 60 120.5938)" class="st0 st1">佛</text>
<text transform="matrix(1 0 0 1 70 120.5938)" class="st0 st1">本</text>
<text transform="matrix(1 0 0 1 80 120.5938)" class="st0 st1">愿</text>
<text transform="matrix(1 0 0 1 90 120.5938)" class="st2 st1">，</text>
<text transform="matrix(1 0 0 1 100 120.5938)" class="st0 st1">意</text>
<text transform="matrix(1 0 0 1 110 120.5938)" class="st0 st1">在</text>
<text transform="matrix(1 0 0 1 120 120.5938)" class="st0 st1">众</text>
<text transform="matrix(1 0 0 1 130 120.5938)" class="st0 st1">生</text>
<text transform="matrix(1 0 0 1 140 120.5938)" class="st2 st1">，</text>
<text transform="matrix(1 0 0 1 150 120.5938)" class="st0 st1">一</text>
<text transform="matrix(1 0 0 1 160 120.5938)" class="st0 st1">向</text>
<text transform="matrix(1 0 0 1 170 120.5938)" class="st0 st1">专</text>
<text transform="matrix(1 0 0 1 180 120.5938)" class="st0 st1">称</text>
<text transform="matrix(1 0 0 1 190 120.5938)" class="st0 st1">弥</text>
<text transform="matrix(1 0 0 1 200 120.5938)" class="st0 st1">陀</text>
<text transform="matrix(1 0 0 1 210 120.5938)" class="st0 st1">佛</text>
<text transform="matrix(1 0 0 1 220 120.5938)" class="st0 st1">名</text>
<text transform="matrix(1 0 0 1 230 120.5938)" class="st2 st1">。</text>
<text transform="matrix(1 0 0 1 0 134.5938)" class="st0 st1 st3"> </text>
<text transform="matrix(1 0 0 1 10 134.5938)" class="st0 st1 st3"> </text>
<text transform="matrix(1 0 0 1 20 134.5938)" class="st0 st1 st3"> </text>
<text transform="matrix(1 0 0 1 30 134.5938)" class="st0 st1 st3"> </text>
<text transform="matrix(1 0 0 1 40 134.5938)" class="st0 st1 st3"> </text>
<text transform="matrix(1 0 0 1 50 134.5938)" class="st0 st1 st3"> </text>
<text transform="matrix(1 0 0 1 60 134.5938)" class="st0 st1 st3"> </text>
<text transform="matrix(1 0 0 1 70 134.5938)" class="st0 st1 st3"> </text>
<text transform="matrix(1 0 0 1 80 134.5938)" class="st0 st1 st3"> </text>
<text transform="matrix(1 0 0 1 90 134.5938)" class="st0 st1 st3"> </text>
<text transform="matrix(1 0 0 1 100 134.5938)" class="st0 st1 st3"> </text>
<text transform="matrix(1 0 0 1 110 134.5938)" class="st0 st1 st3"> </text>
<text transform="matrix(1 0 0 1 120 134.5938)" class="st0 st1 st3"> </text>
<text transform="matrix(1 0 0 1 130 134.5938)" class="st0 st1 st3"> </text>
<text transform="matrix(1 0 0 1 140 134.5938)" class="st0 st1 st3"> </text>
<text transform="matrix(1 0 0 1 150 134.5938)" class="st0 st1 st3"> </text>
<text transform="matrix(1 0 0 1 160 134.5938)" class="st0 st1">—</text>
<text transform="matrix(1 0 0 1 170 134.5938)" class="st0 st1"> </text>
<text transform="matrix(1 0 0 1 175 134.5938)" class="st0 st1">—</text>
<text transform="matrix(1 0 0 1 185 134.5938)" class="st0 st1">《</text>
<text transform="matrix(1 0 0 1 195 134.5938)" class="st0 st1">观</text>
<text transform="matrix(1 0 0 1 205 134.5938)" class="st0 st1">经</text>
<text transform="matrix(1 0 0 1 215 134.5938)" class="st0 st1">疏</text>
<text transform="matrix(1 0 0 1 225 134.5938)" class="st0 st1">》</text>
<text transform="matrix(1 0 0 1 235 134.5938)" class="st0 st1">〈</text>
<text transform="matrix(1 0 0 1 245 134.5938)" class="st0 st1">散</text>
<text transform="matrix(1 0 0 1 255.0005 134.5938)" class="st0 st1">善</text>
<text transform="matrix(1 0 0 1 265.0005 134.5938)" class="st0 st1">义</text>
<text transform="matrix(1 0 0 1 275.0005 134.5938)" class="st0 st1">〉</text>
<line class="st4" x1="20" y1="24.7" x2="20" y2="41.3"/>
<g>
	<polygon points="20,44.8 18,39.8 20,41 22.1,39.8 	"/>
</g>
</svg>
