<?xml version="1.0" encoding="utf-8"?>
<!-- Generator: Adobe Illustrator 21.0.0, SVG Export Plug-In . SVG Version: 6.00 Build 0)  -->
<svg version="1.1" id="图层_1" xmlns="http://www.w3.org/2000/svg" xmlns:xlink="http://www.w3.org/1999/xlink" x="0px" y="0px"
	 viewBox="0 0 420 180" style="enable-background:new 0 0 420 180;" xml:space="preserve">
<style type="text/css">
	.st0{fill:none;stroke:#000000;stroke-width:0.5;stroke-miterlimit:10;}
	.st1{fill:none;stroke:#000000;stroke-width:0.25;stroke-miterlimit:10;}
	.st2{stroke:#000000;stroke-width:0.25;stroke-miterlimit:10;}
	.st3{font-family:'DFKaiShu-SB-Estd-BF';}
	.st4{font-size:14px;}
	.st5{enable-background:new    ;}
</style>
<g>
	<path class="st0" d="M76,45.3"/>
	<path class="st0" d="M54.9,45.3"/>
	<path class="st0" d="M60.5,45.3"/>
	<path class="st1" d="M96.8,57.7"/>
	<path class="st1" d="M96.8,32.9"/>
	<path class="st1" d="M103.7,45.7"/>
	<path class="st1" d="M96.8,57.5"/>
	<path class="st1" d="M90.4,46"/>
	<path class="st1" d="M96.7,57"/>
	<text transform="matrix(1 0 0 1 6.2619 19.8769)" class="st2 st3 st4">念观二宗：今此《观经》：即以观佛三昧为宗，亦以念佛三昧为宗</text>
	<path class="st0" d="M60.5,44.3"/>
	<line class="st0" x1="261.2" y1="42.7" x2="275.3" y2="42.7"/>
	<text transform="matrix(1 0 0 1 278.2487 45.9381)" class="st2 st3 st4">《观经疏》〈玄义分〉</text>
</g>
<line class="st0" x1="96.7" y1="27.5" x2="96.7" y2="57"/>
<line class="st0" x1="88.4" y1="47.8" x2="96.7" y2="57"/>
<line class="st0" x1="105.8" y1="47.7" x2="96.7" y2="57"/>
<line class="st0" x1="239.3" y1="42.7" x2="253.4" y2="42.7"/>
<text transform="matrix(1 0 0 1 6.2621 75.4836)" class="st5"><tspan x="0" y="0" class="st2 st3 st4">念观废立：佛告阿难：「汝好持是语，持是语者，即是持无量寿佛</tspan><tspan x="68" y="16.8" class="st2 st3 st4">          名。」</tspan></text>
<line class="st0" x1="261.2" y1="101" x2="275.3" y2="101"/>
<text transform="matrix(1 0 0 1 288.2487 104.1966)" class="st2 st3 st4">《观   经》〈流通分〉</text>
<line class="st0" x1="239.3" y1="101" x2="253.4" y2="101"/>
<text transform="matrix(1 0 0 1 6.2621 132.2252)" class="st5"><tspan x="0" y="0" class="st2 st3 st4">善导释：上来虽说「定、散」两门之益，</tspan><tspan x="0" y="16.8" class="st2 st3 st4">结  归：望佛本愿，意在众生，一向专称弥陀佛名。</tspan></text>
<line class="st0" x1="261.2" y1="168.4" x2="275.3" y2="168.4"/>
<text transform="matrix(1 0 0 1 278.2487 171.6123)" class="st2 st3 st4">《观经疏》〈散善义〉</text>
<line class="st0" x1="239.3" y1="168.4" x2="253.4" y2="168.4"/>
</svg>
