<?xml version="1.0" encoding="utf-8"?>
<!-- Generator: Adobe Illustrator 21.0.0, SVG Export Plug-In . SVG Version: 6.00 Build 0)  -->
<svg version="1.1" baseProfile="tiny" id="圖層_1"
	 xmlns="http://www.w3.org/2000/svg" xmlns:xlink="http://www.w3.org/1999/xlink" x="0px" y="0px" viewBox="0 0 194.3 24.6"
	 overflow="scroll" xml:space="preserve">
<text transform="matrix(1 0 0 1 0 15.7603)" font-family="'KaiTi'" font-size="10px">涅槃分</text>
<text transform="matrix(1 0 0 1 44.3333 8.5936)" font-family="'KaiTi'" font-size="10px">1</text>
<text transform="matrix(1 0 0 1 49.3333 8.5936)" font-family="'DFKaiShu-SB-Estd-BF'" font-size="10px">.</text>
<text transform="matrix(1 0 0 1 54.3333 8.5936)" font-family="'KaiTi'" font-size="10px">一</text>
<text transform="matrix(1 0 0 1 64.3333 8.5936)" font-family="'KaiTi'" font-size="10px">分</text>
<text transform="matrix(1 0 0 1 74.3333 8.5936)" font-family="'KaiTi'" font-size="10px">(</text>
<text transform="matrix(1 0 0 1 79.3333 8.5936)" font-family="'KaiTi'" font-size="10px">一</text>
<text transform="matrix(1 0 0 1 89.3333 8.5936)" font-family="'KaiTi'" font-size="10px">部</text>
<text transform="matrix(1 0 0 1 99.3333 8.5936)" font-family="'KaiTi'" font-size="10px">分</text>
<text transform="matrix(1 0 0 1 109.3333 8.5936)" font-family="'KaiTi'" font-size="10px">)</text>
<text transform="matrix(1 0 0 1 114.3333 8.5936)" font-family="'KaiTi'" font-size="10px"> </text>
<text transform="matrix(1 0 0 1 124.3333 8.5936)" font-family="'KaiTi'" font-size="10px">現</text>
<text transform="matrix(1 0 0 1 134.3333 8.5936)" font-family="'KaiTi'" font-size="10px">益</text>
<text transform="matrix(1 0 0 1 144.3333 8.5936)" font-family="'KaiTi'" font-size="10px"> </text>
<text transform="matrix(1 0 0 1 154.3333 8.5936)" font-family="'KaiTi'" font-size="10px">入</text>
<text transform="matrix(1 0 0 1 164.3333 8.5936)" font-family="'KaiTi'" font-size="10px">正</text>
<text transform="matrix(1 0 0 1 174.3333 8.5936)" font-family="'KaiTi'" font-size="10px">定</text>
<text transform="matrix(1 0 0 1 184.3333 8.5936)" font-family="'KaiTi'" font-size="10px">聚</text>
<text transform="matrix(1 0 0 1 44.3333 22.5936)" font-family="'KaiTi'" font-size="10px">2</text>
<text transform="matrix(1 0 0 1 49.3333 22.5936)" font-family="'DFKaiShu-SB-Estd-BF'" font-size="10px">.</text>
<text transform="matrix(1 0 0 1 54.3333 22.5936)" font-family="'KaiTi'" font-size="10px">分</text>
<text transform="matrix(1 0 0 1 64.3333 22.5936)" font-family="'KaiTi'" font-size="10px">齊</text>
<text transform="matrix(1 0 0 1 74.3333 22.5936)" font-family="'KaiTi'" font-size="10px">(</text>
<text transform="matrix(1 0 0 1 79.3333 22.5936)" font-family="'KaiTi'" font-size="10px">等</text>
<text transform="matrix(1 0 0 1 89.3333 22.5936)" font-family="'KaiTi'" font-size="10px"> </text>
<text transform="matrix(1 0 0 1 99.3333 22.5936)" font-family="'KaiTi'" font-size="10px">位</text>
<text transform="matrix(1 0 0 1 109.3333 22.5936)" font-family="'KaiTi'" font-size="10px">)</text>
<text transform="matrix(1 0 0 1 114.3333 22.5936)" font-family="'KaiTi'" font-size="10px"> </text>
<text transform="matrix(1 0 0 1 124.3333 22.5936)" font-family="'KaiTi'" font-size="10px">當</text>
<text transform="matrix(1 0 0 1 134.3333 22.5936)" font-family="'KaiTi'" font-size="10px">益</text>
<text transform="matrix(1 0 0 1 144.3333 22.5936)" font-family="'KaiTi'" font-size="10px"> </text>
<text transform="matrix(1 0 0 1 154.3333 22.5936)" font-family="'KaiTi'" font-size="10px">往</text>
<text transform="matrix(1 0 0 1 164.3333 22.5936)" font-family="'KaiTi'" font-size="10px">生</text>
<text transform="matrix(1 0 0 1 174.3333 22.5936)" font-family="'KaiTi'" font-size="10px">成</text>
<text transform="matrix(1 0 0 1 184.3333 22.5936)" font-family="'KaiTi'" font-size="10px">佛</text>
<g>
	<line fill="none" stroke="#000000" stroke-width="0.5" stroke-miterlimit="10" x1="37.3" y1="5.1" x2="37.3" y2="19.4"/>
	<line fill="none" stroke="#000000" stroke-width="0.5" stroke-miterlimit="10" x1="37.3" y1="5.1" x2="41" y2="5.1"/>
	<line fill="none" stroke="#000000" stroke-width="0.5" stroke-miterlimit="10" x1="37.3" y1="19.4" x2="41" y2="19.4"/>
	<line fill="none" stroke="#000000" stroke-width="0.5" stroke-miterlimit="10" x1="37.3" y1="12.3" x2="33.5" y2="12.3"/>
</g>
<line fill="none" stroke="#000000" stroke-width="0.5" stroke-miterlimit="10" x1="116" y1="5.1" x2="121.5" y2="5.1"/>
<line fill="none" stroke="#000000" stroke-width="0.5" stroke-miterlimit="10" x1="116" y1="19.4" x2="121.5" y2="19.4"/>
<line fill="none" stroke="#000000" stroke-width="0.5" stroke-miterlimit="10" x1="147.3" y1="5.1" x2="152.8" y2="5.1"/>
<line fill="none" stroke="#000000" stroke-width="0.5" stroke-miterlimit="10" x1="147.3" y1="19.4" x2="152.8" y2="19.4"/>
</svg>
