<?xml version="1.0" encoding="utf-8"?>
<!-- Generator: Adobe Illustrator 21.0.0, SVG Export Plug-In . SVG Version: 6.00 Build 0)  -->
<svg version="1.1" baseProfile="tiny" id="圖層_1"
	 xmlns="http://www.w3.org/2000/svg" xmlns:xlink="http://www.w3.org/1999/xlink" x="0px" y="0px" viewBox="0 0 241.2 38.4"
	 xml:space="preserve">
<text transform="matrix(1 0 0 1 32.8336 8.5941)" font-family="'KaiTi'" font-size="10px">(1)彌陀涅槃</text>
<text transform="matrix(1 0 0 1 32.8336 22.5941)" font-family="'KaiTi'" font-size="10px">(2)聖眾涅槃</text>
<text transform="matrix(1 0 0 1 32.8336 36.5941)" font-family="'KaiTi'" font-size="10px">(3)國土涅槃</text>
<g>
	<line fill="none" stroke="#000000" stroke-width="0.5" stroke-miterlimit="10" x1="26.3" y1="5.8" x2="26.3" y2="33.3"/>
	<line fill="none" stroke="#000000" stroke-width="0.5" stroke-miterlimit="10" x1="26.3" y1="5.8" x2="30" y2="5.8"/>
	<line fill="none" stroke="#000000" stroke-width="0.5" stroke-miterlimit="10" x1="26.3" y1="33.3" x2="30" y2="33.3"/>
	<line fill="none" stroke="#000000" stroke-width="0.5" stroke-miterlimit="10" x1="26.4" y1="19.5" x2="22.6" y2="19.5"/>
</g>
<g>
	<line fill="none" stroke="#000000" stroke-width="0.5" stroke-miterlimit="10" x1="94.5" y1="33.3" x2="94.5" y2="5.8"/>
	<line fill="none" stroke="#000000" stroke-width="0.5" stroke-miterlimit="10" x1="94.5" y1="33.3" x2="90.8" y2="33.3"/>
	<line fill="none" stroke="#000000" stroke-width="0.5" stroke-miterlimit="10" x1="94.5" y1="5.8" x2="90.8" y2="5.8"/>
	<line fill="none" stroke="#000000" stroke-width="0.5" stroke-miterlimit="10" x1="94.4" y1="19.5" x2="98.2" y2="19.5"/>
</g>
<text transform="matrix(1 0 0 1 1.678467e-04 22.5941)" font-family="'KaiTi'" font-size="10px">涅槃</text>
<text transform="matrix(1 0 0 1 101.2004 22.5939)" font-family="'KaiTi'" font-size="10px">依正主伴</text>
<text transform="matrix(1 0 0 1 141.2004 22.5939)" font-family="'DFKaiShu-SB-Estd-BF'" font-size="10px">，</text>
<text transform="matrix(1 0 0 1 151.2004 22.5939)" font-family="'KaiTi'" font-size="10px">同一涅槃</text>
<text transform="matrix(1 0 0 1 191.2004 22.5939)" font-family="'DFKaiShu-SB-Estd-BF'" font-size="10px">，</text>
<text transform="matrix(1 0 0 1 201.2004 22.5939)" font-family="'KaiTi'" font-size="10px">妙境界相</text>
</svg>
