<?xml version="1.0" encoding="utf-8"?>
<!-- Generator: Adobe Illustrator 21.0.0, SVG Export Plug-In . SVG Version: 6.00 Build 0)  -->
<svg version="1.1" id="圖層_1" xmlns="http://www.w3.org/2000/svg" xmlns:xlink="http://www.w3.org/1999/xlink" x="0px" y="0px"
	 viewBox="0 0 173 52.4" style="enable-background:new 0 0 173 52.4;" xml:space="preserve">
<style type="text/css">
	.st0{enable-background:new    ;}
	.st1{font-family:'KaiTi';}
	.st2{font-size:10px;}
	.st3{fill:none;stroke:#000000;stroke-width:0.5;stroke-miterlimit:10;}
</style>
<text transform="matrix(1 0 0 1 142.9667 8.5938)" class="st0"><tspan x="0" y="0" class="st1 st2">第一節</tspan><tspan x="0" y="14" class="st1 st2">第二節</tspan><tspan x="0" y="28" class="st1 st2">第三節</tspan><tspan x="0" y="42" class="st1 st2">第四節</tspan></text>
<line class="st3" x1="133.6" y1="5.2" x2="141.1" y2="5.2"/>
<line class="st3" x1="133.6" y1="19.2" x2="141.1" y2="19.2"/>
<line class="st3" x1="133.6" y1="33.1" x2="141.1" y2="33.1"/>
<line class="st3" x1="133.6" y1="47" x2="141.1" y2="47"/>
<text transform="matrix(1 0 0 1 91.8 22.5938)" class="st0"><tspan x="0" y="0" class="st1 st2">淨土三經</tspan><tspan x="0" y="14" class="st1 st2">三經關係</tspan><tspan x="0" y="28" class="st1 st2">三經先後</tspan></text>
<g>
	<line class="st3" x1="85" y1="33.1" x2="85" y2="47.6"/>
	<line class="st3" x1="85" y1="33.1" x2="88.8" y2="33.1"/>
	<line class="st3" x1="85" y1="47.6" x2="88.8" y2="47.6"/>
	<line class="st3" x1="85" y1="40.4" x2="81.3" y2="40.4"/>
</g>
<line class="st3" x1="81.3" y1="19.2" x2="88.8" y2="19.2"/>
<text transform="matrix(1 0 0 1 58.8833 8.5938)" class="st0"><tspan x="0" y="0" class="st1 st2">正依經典之意義</tspan><tspan x="0" y="14" class="st1 st2">直述</tspan><tspan x="0" y="35" class="st1 st2">補充</tspan></text>
<line class="st3" x1="48.4" y1="5.2" x2="55.9" y2="5.2"/>
<g>
	<line class="st3" x1="52.1" y1="19.2" x2="52.1" y2="40.4"/>
	<line class="st3" x1="52.1" y1="19.2" x2="55.9" y2="19.2"/>
	<line class="st3" x1="52.1" y1="40.4" x2="55.9" y2="40.4"/>
	<line class="st3" x1="52.1" y1="29.8" x2="48.4" y2="29.8"/>
</g>
<text transform="matrix(1 0 0 1 6.05 8.5938)" class="st0"><tspan x="0" y="0" class="st1 st2">能依規則</tspan><tspan x="0" y="24.5" class="st1 st2">所依經典</tspan></text>
<g>
	<line class="st3" x1="0.3" y1="5.2" x2="0.3" y2="29.8"/>
	<line class="st3" x1="0.3" y1="5.2" x2="4" y2="5.2"/>
	<line class="st3" x1="0.3" y1="29.8" x2="4" y2="29.8"/>
</g>
</svg>
