<?xml version="1.0" encoding="utf-8"?>
<!-- Generator: Adobe Illustrator 21.0.0, SVG Export Plug-In . SVG Version: 6.00 Build 0)  -->
<svg version="1.1" baseProfile="tiny" id="图层_1"
	 xmlns="http://www.w3.org/2000/svg" xmlns:xlink="http://www.w3.org/1999/xlink" x="0px" y="0px" viewBox="0 0 151.7 52.4"
	 overflow="scroll" xml:space="preserve">
<text transform="matrix(1 0 0 1 141.7498 8.5938)" font-family="'KaiTi'" font-size="10px">教</text>
<text transform="matrix(1 0 0 1 141.7498 22.5938)" font-family="'KaiTi'" font-size="10px">理</text>
<text transform="matrix(1 0 0 1 141.7498 36.5938)" font-family="'KaiTi'" font-size="10px">行</text>
<text transform="matrix(1 0 0 1 141.7498 50.5938)" font-family="'KaiTi'" font-size="10px">果</text>
<text transform="matrix(1 0 0 1 102.7498 22.5938)" font-family="'KaiTi'" font-size="10px">所依</text>
<text transform="matrix(1 0 0 1 102.7498 36.5938)" font-family="'KaiTi'" font-size="10px">能依</text>
<text transform="matrix(1 0 0 1 39.5832 29.5938)" font-family="'KaiTi'" font-size="10px">因</text>
<text transform="matrix(1 0 0 1 49.5832 29.5938)" font-family="'KaiTi'" font-size="10px"> </text>
<text transform="matrix(1 0 0 1 59.5832 29.5938)" font-family="'KaiTi'" font-size="10px"> </text>
<text transform="matrix(1 0 0 1 69.5832 29.5938)" font-family="'KaiTi'" font-size="10px">能</text>
<text transform="matrix(1 0 0 1 79.5832 29.5938)" font-family="'KaiTi'" font-size="10px">证</text>
<text transform="matrix(1 0 0 1 39.5832 50.5938)" font-family="'KaiTi'" font-size="10px">果</text>
<text transform="matrix(1 0 0 1 49.5832 50.5938)" font-family="'KaiTi'" font-size="10px"> </text>
<text transform="matrix(1 0 0 1 59.5832 50.5938)" font-family="'KaiTi'" font-size="10px"> </text>
<text transform="matrix(1 0 0 1 69.5832 50.5938)" font-family="'KaiTi'" font-size="10px">所</text>
<text transform="matrix(1 0 0 1 79.5832 50.5938)" font-family="'KaiTi'" font-size="10px">证</text>
<text transform="matrix(1 0 0 1 6.0833 8.5938)" font-family="'KaiTi'" font-size="10px">能诠</text>
<text transform="matrix(1 0 0 1 6.0833 40.0938)" font-family="'KaiTi'" font-size="10px">所诠</text>
<g>
	<line fill="none" stroke="#000000" stroke-width="0.5" stroke-miterlimit="10" x1="32.8" y1="26" x2="32.8" y2="46.8"/>
	<line fill="none" stroke="#000000" stroke-width="0.5" stroke-miterlimit="10" x1="32.8" y1="26" x2="36.6" y2="26"/>
	<line fill="none" stroke="#000000" stroke-width="0.5" stroke-miterlimit="10" x1="32.8" y1="46.8" x2="36.6" y2="46.8"/>
	<line fill="none" stroke="#000000" stroke-width="0.5" stroke-miterlimit="10" x1="32.8" y1="36.7" x2="29.1" y2="36.7"/>
</g>
<g>
	<line fill="none" stroke="#000000" stroke-width="0.5" stroke-miterlimit="10" x1="96.2" y1="18.4" x2="96.2" y2="33.7"/>
	<line fill="none" stroke="#000000" stroke-width="0.5" stroke-miterlimit="10" x1="96.2" y1="18.4" x2="100" y2="18.4"/>
	<line fill="none" stroke="#000000" stroke-width="0.5" stroke-miterlimit="10" x1="96.2" y1="33.7" x2="100" y2="33.7"/>
	<line fill="none" stroke="#000000" stroke-width="0.5" stroke-miterlimit="10" x1="96.2" y1="26.3" x2="92.5" y2="26.3"/>
</g>
<line fill="none" stroke="#000000" stroke-width="0.5" stroke-miterlimit="10" x1="66.4" y1="26" x2="52.6" y2="26"/>
<line fill="none" stroke="#000000" stroke-width="0.5" stroke-miterlimit="10" x1="66.4" y1="46.8" x2="52.6" y2="46.8"/>
<line fill="none" stroke="#000000" stroke-width="0.5" stroke-miterlimit="10" x1="139.7" y1="18.4" x2="125.8" y2="18.4"/>
<line fill="none" stroke="#000000" stroke-width="0.5" stroke-miterlimit="10" x1="139.7" y1="33.7" x2="125.8" y2="33.7"/>
<line fill="none" stroke="#000000" stroke-width="0.5" stroke-miterlimit="10" x1="139.7" y1="46.8" x2="92.5" y2="46.8"/>
<line fill="none" stroke="#000000" stroke-width="0.5" stroke-miterlimit="10" x1="139.7" y1="4.9" x2="29.1" y2="4.9"/>
<g>
	<line fill="none" stroke="#000000" stroke-width="0.5" stroke-miterlimit="10" x1="0.3" y1="4.9" x2="0.3" y2="36.4"/>
	<line fill="none" stroke="#000000" stroke-width="0.5" stroke-miterlimit="10" x1="0.3" y1="4.9" x2="4" y2="4.9"/>
	<line fill="none" stroke="#000000" stroke-width="0.5" stroke-miterlimit="10" x1="0.3" y1="36.4" x2="4" y2="36.4"/>
</g>
</svg>
