<?xml version="1.0" encoding="utf-8"?>
<!-- Generator: Adobe Illustrator 21.0.0, SVG Export Plug-In . SVG Version: 6.00 Build 0)  -->
<svg version="1.1" id="图层_1" xmlns="http://www.w3.org/2000/svg" xmlns:xlink="http://www.w3.org/1999/xlink" x="0px" y="0px"
	 viewBox="0 0 186.9 94.4" style="enable-background:new 0 0 186.9 94.4;" xml:space="preserve">
<style type="text/css">
	.st0{font-family:'KaiTi';}
	.st1{font-size:10px;}
	.st2{fill:none;stroke:#000000;stroke-width:0.5;stroke-miterlimit:10;}
	.st3{letter-spacing:5;}
</style>
<text transform="matrix(1 0 0 1 136.917 22.5938)"><tspan x="0" y="0" class="st0 st1">难行道</tspan><tspan x="0" y="14" class="st0 st1">易行道</tspan><tspan x="0" y="42" class="st0 st1">凡夫不可行</tspan><tspan x="0" y="56" class="st0 st1">凡夫大光明</tspan></text>
<g>
	<line class="st2" x1="131.5" y1="18.8" x2="131.5" y2="33.1"/>
	<line class="st2" x1="131.2" y1="18.8" x2="134.1" y2="18.8"/>
	<line class="st2" x1="131.2" y1="33.1" x2="134.1" y2="33.1"/>
	<line class="st2" x1="128.5" y1="25.9" x2="131.4" y2="25.9"/>
</g>
<text transform="matrix(1 0 0 1 95.792 15.5938)"><tspan x="0" y="0" class="st0 st1">龙树释</tspan><tspan x="0" y="14" class="st0 st1">昙鸾释</tspan><tspan x="0" y="49" class="st0 st1">诸久堕</tspan><tspan x="0" y="63" class="st0 st1">一速必</tspan></text>
<line class="st2" x1="128.6" y1="61.1" x2="134.3" y2="61.1"/>
<line class="st2" x1="128.6" y1="74.8" x2="134.2" y2="74.8"/>
<g>
	<line class="st2" x1="90.1" y1="11.6" x2="90.1" y2="25.9"/>
	<line class="st2" x1="89.9" y1="11.6" x2="92.8" y2="11.6"/>
	<line class="st2" x1="89.9" y1="25.9" x2="92.8" y2="25.9"/>
	<line class="st2" x1="87.1" y1="18.8" x2="90" y2="18.8"/>
</g>
<text transform="matrix(1 0 0 1 54.792 8.5938)"><tspan x="0" y="0" class="st0 st1">总</tspan><tspan x="10" y="0" class="st0 st1 st3"> </tspan><tspan x="20" y="0" class="st0 st1">释</tspan><tspan x="0" y="14" class="st0 st1">别</tspan><tspan x="10" y="14" class="st0 st1 st3"> </tspan><tspan x="20" y="14" class="st0 st1">释</tspan><tspan x="0" y="56" class="st0 st1">难行道</tspan><tspan x="0" y="70" class="st0 st1">易行道</tspan></text>
<line class="st2" x1="87.1" y1="61.1" x2="92.8" y2="61.1"/>
<line class="st2" x1="87" y1="74.8" x2="92.7" y2="74.8"/>
<g>
	<line class="st2" x1="50.1" y1="4.5" x2="50.1" y2="18.8"/>
	<line class="st2" x1="49.9" y1="4.5" x2="52.8" y2="4.5"/>
	<line class="st2" x1="49.9" y1="18.8" x2="52.8" y2="18.8"/>
	<line class="st2" x1="47.1" y1="11.6" x2="50" y2="11.6"/>
</g>
<text transform="matrix(1 0 0 1 4.917 15.5938)"><tspan x="0" y="0" class="st0 st1">难易二道</tspan><tspan x="0" y="35" class="st0 st1">二道分齐</tspan><tspan x="0" y="56" class="st0 st1">二道胜劣</tspan><tspan x="0" y="77" class="st0 st1">舍难取易</tspan></text>
<g>
	<line class="st2" x1="50.1" y1="61.1" x2="50.1" y2="75.4"/>
	<line class="st2" x1="49.8" y1="61.1" x2="52.7" y2="61.1"/>
	<line class="st2" x1="49.8" y1="75.4" x2="52.7" y2="75.4"/>
	<line class="st2" x1="47.1" y1="68.2" x2="50" y2="68.2"/>
</g>
<g>
	<line class="st2" x1="0.3" y1="11.6" x2="0.3" y2="89.8"/>
	<line class="st2" x1="0" y1="11.6" x2="2.9" y2="11.6"/>
	<line class="st2" x1="0" y1="47.1" x2="2.9" y2="47.1"/>
	<line class="st2" x1="0" y1="89.8" x2="2.9" y2="89.8"/>
	<line class="st2" x1="0.3" y1="68.2" x2="3.1" y2="68.2"/>
</g>
</svg>
